<?xml version="1.0" encoding="UTF-8"?>
<svg xmlns="http://www.w3.org/2000/svg" xmlns:xlink="http://www.w3.org/1999/xlink" width="600pt" height="450pt" viewBox="0 0 600 450" version="1.1">
<defs>
<g>
<symbol overflow="visible" id="dVOwWwiC0-0">
<path style="stroke:none;" d="M 0.59375 2.125 L 0.59375 -8.46875 L 6.59375 -8.46875 L 6.59375 2.125 Z M 1.265625 1.453125 L 5.9375 1.453125 L 5.9375 -7.78125 L 1.265625 -7.78125 Z M 1.265625 1.453125 "/>
</symbol>
<symbol overflow="visible" id="dVOwWwiC0-1">
<path style="stroke:none;" d="M 3.8125 -7.96875 C 3.207031 -7.96875 2.75 -7.664062 2.4375 -7.0625 C 2.132812 -6.46875 1.984375 -5.566406 1.984375 -4.359375 C 1.984375 -3.160156 2.132812 -2.257812 2.4375 -1.65625 C 2.75 -1.0625 3.207031 -0.765625 3.8125 -0.765625 C 4.425781 -0.765625 4.882812 -1.0625 5.1875 -1.65625 C 5.5 -2.257812 5.65625 -3.160156 5.65625 -4.359375 C 5.65625 -5.566406 5.5 -6.46875 5.1875 -7.0625 C 4.882812 -7.664062 4.425781 -7.96875 3.8125 -7.96875 Z M 3.8125 -8.90625 C 4.789062 -8.90625 5.539062 -8.515625 6.0625 -7.734375 C 6.582031 -6.960938 6.84375 -5.835938 6.84375 -4.359375 C 6.84375 -2.890625 6.582031 -1.765625 6.0625 -0.984375 C 5.539062 -0.210938 4.789062 0.171875 3.8125 0.171875 C 2.832031 0.171875 2.082031 -0.210938 1.5625 -0.984375 C 1.050781 -1.765625 0.796875 -2.890625 0.796875 -4.359375 C 0.796875 -5.835938 1.050781 -6.960938 1.5625 -7.734375 C 2.082031 -8.515625 2.832031 -8.90625 3.8125 -8.90625 Z M 3.8125 -8.90625 "/>
</symbol>
<symbol overflow="visible" id="dVOwWwiC0-2">
<path style="stroke:none;" d="M 1.28125 -1.484375 L 2.515625 -1.484375 L 2.515625 0 L 1.28125 0 Z M 1.28125 -1.484375 "/>
</symbol>
<symbol overflow="visible" id="dVOwWwiC0-3">
<path style="stroke:none;" d="M 1.296875 -8.75 L 5.9375 -8.75 L 5.9375 -7.75 L 2.375 -7.75 L 2.375 -5.609375 C 2.550781 -5.671875 2.722656 -5.710938 2.890625 -5.734375 C 3.066406 -5.765625 3.238281 -5.78125 3.40625 -5.78125 C 4.382812 -5.78125 5.160156 -5.507812 5.734375 -4.96875 C 6.304688 -4.4375 6.59375 -3.71875 6.59375 -2.8125 C 6.59375 -1.863281 6.296875 -1.128906 5.703125 -0.609375 C 5.117188 -0.0859375 4.296875 0.171875 3.234375 0.171875 C 2.859375 0.171875 2.476562 0.140625 2.09375 0.078125 C 1.71875 0.015625 1.328125 -0.078125 0.921875 -0.203125 L 0.921875 -1.390625 C 1.273438 -1.203125 1.640625 -1.0625 2.015625 -0.96875 C 2.390625 -0.875 2.785156 -0.828125 3.203125 -0.828125 C 3.878906 -0.828125 4.414062 -1.003906 4.8125 -1.359375 C 5.207031 -1.710938 5.40625 -2.195312 5.40625 -2.8125 C 5.40625 -3.414062 5.207031 -3.894531 4.8125 -4.25 C 4.414062 -4.601562 3.878906 -4.78125 3.203125 -4.78125 C 2.890625 -4.78125 2.570312 -4.742188 2.25 -4.671875 C 1.9375 -4.609375 1.617188 -4.503906 1.296875 -4.359375 Z M 1.296875 -8.75 "/>
</symbol>
<symbol overflow="visible" id="dVOwWwiC1-0">
<path style="stroke:none;" d="M 0.59375 2.125 L 0.59375 -8.46875 L 6.59375 -8.46875 L 6.59375 2.125 Z M 1.265625 1.453125 L 5.9375 1.453125 L 5.9375 -7.78125 L 1.265625 -7.78125 Z M 1.265625 1.453125 "/>
</symbol>
<symbol overflow="visible" id="dVOwWwiC1-1">
<path style="stroke:none;" d="M 3.8125 -4.15625 C 3.25 -4.15625 2.804688 -4.003906 2.484375 -3.703125 C 2.160156 -3.398438 2 -2.988281 2 -2.46875 C 2 -1.9375 2.160156 -1.519531 2.484375 -1.21875 C 2.804688 -0.914062 3.25 -0.765625 3.8125 -0.765625 C 4.375 -0.765625 4.816406 -0.914062 5.140625 -1.21875 C 5.460938 -1.519531 5.625 -1.9375 5.625 -2.46875 C 5.625 -2.988281 5.460938 -3.398438 5.140625 -3.703125 C 4.828125 -4.003906 4.382812 -4.15625 3.8125 -4.15625 Z M 2.625 -4.65625 C 2.125 -4.78125 1.726562 -5.015625 1.4375 -5.359375 C 1.15625 -5.710938 1.015625 -6.140625 1.015625 -6.640625 C 1.015625 -7.335938 1.265625 -7.890625 1.765625 -8.296875 C 2.265625 -8.703125 2.945312 -8.90625 3.8125 -8.90625 C 4.6875 -8.90625 5.367188 -8.703125 5.859375 -8.296875 C 6.359375 -7.890625 6.609375 -7.335938 6.609375 -6.640625 C 6.609375 -6.140625 6.46875 -5.710938 6.1875 -5.359375 C 5.90625 -5.015625 5.507812 -4.78125 5 -4.65625 C 5.570312 -4.519531 6.015625 -4.257812 6.328125 -3.875 C 6.648438 -3.488281 6.8125 -3.019531 6.8125 -2.46875 C 6.8125 -1.613281 6.550781 -0.957031 6.03125 -0.5 C 5.519531 -0.0507812 4.78125 0.171875 3.8125 0.171875 C 2.851562 0.171875 2.113281 -0.0507812 1.59375 -0.5 C 1.070312 -0.957031 0.8125 -1.613281 0.8125 -2.46875 C 0.8125 -3.019531 0.972656 -3.488281 1.296875 -3.875 C 1.617188 -4.257812 2.0625 -4.519531 2.625 -4.65625 Z M 2.203125 -6.53125 C 2.203125 -6.070312 2.34375 -5.71875 2.625 -5.46875 C 2.90625 -5.21875 3.300781 -5.09375 3.8125 -5.09375 C 4.320312 -5.09375 4.71875 -5.21875 5 -5.46875 C 5.289062 -5.71875 5.4375 -6.070312 5.4375 -6.53125 C 5.4375 -6.976562 5.289062 -7.328125 5 -7.578125 C 4.71875 -7.835938 4.320312 -7.96875 3.8125 -7.96875 C 3.300781 -7.96875 2.90625 -7.835938 2.625 -7.578125 C 2.34375 -7.328125 2.203125 -6.976562 2.203125 -6.53125 Z M 2.203125 -6.53125 "/>
</symbol>
<symbol overflow="visible" id="dVOwWwiC1-2">
<path style="stroke:none;" d="M 1.28125 -1.484375 L 2.515625 -1.484375 L 2.515625 0 L 1.28125 0 Z M 1.28125 -1.484375 "/>
</symbol>
<symbol overflow="visible" id="dVOwWwiC2-0">
<path style="stroke:none;" d="M 0.59375 2.125 L 0.59375 -8.46875 L 6.59375 -8.46875 L 6.59375 2.125 Z M 1.265625 1.453125 L 5.9375 1.453125 L 5.9375 -7.78125 L 1.265625 -7.78125 Z M 1.265625 1.453125 "/>
</symbol>
<symbol overflow="visible" id="dVOwWwiC2-1">
<path style="stroke:none;" d="M 1.484375 -1 L 3.421875 -1 L 3.421875 -7.671875 L 1.3125 -7.25 L 1.3125 -8.328125 L 3.40625 -8.75 L 4.59375 -8.75 L 4.59375 -1 L 6.53125 -1 L 6.53125 0 L 1.484375 0 Z M 1.484375 -1 "/>
</symbol>
<symbol overflow="visible" id="dVOwWwiC3-0">
<path style="stroke:none;" d="M 0.59375 2.125 L 0.59375 -8.46875 L 6.59375 -8.46875 L 6.59375 2.125 Z M 1.265625 1.453125 L 5.9375 1.453125 L 5.9375 -7.78125 L 1.265625 -7.78125 Z M 1.265625 1.453125 "/>
</symbol>
<symbol overflow="visible" id="dVOwWwiC3-1">
<path style="stroke:none;" d="M 3.8125 -7.96875 C 3.207031 -7.96875 2.75 -7.664062 2.4375 -7.0625 C 2.132812 -6.46875 1.984375 -5.566406 1.984375 -4.359375 C 1.984375 -3.160156 2.132812 -2.257812 2.4375 -1.65625 C 2.75 -1.0625 3.207031 -0.765625 3.8125 -0.765625 C 4.425781 -0.765625 4.882812 -1.0625 5.1875 -1.65625 C 5.5 -2.257812 5.65625 -3.160156 5.65625 -4.359375 C 5.65625 -5.566406 5.5 -6.46875 5.1875 -7.0625 C 4.882812 -7.664062 4.425781 -7.96875 3.8125 -7.96875 Z M 3.8125 -8.90625 C 4.789062 -8.90625 5.539062 -8.515625 6.0625 -7.734375 C 6.582031 -6.960938 6.84375 -5.835938 6.84375 -4.359375 C 6.84375 -2.890625 6.582031 -1.765625 6.0625 -0.984375 C 5.539062 -0.210938 4.789062 0.171875 3.8125 0.171875 C 2.832031 0.171875 2.082031 -0.210938 1.5625 -0.984375 C 1.050781 -1.765625 0.796875 -2.890625 0.796875 -4.359375 C 0.796875 -5.835938 1.050781 -6.960938 1.5625 -7.734375 C 2.082031 -8.515625 2.832031 -8.90625 3.8125 -8.90625 Z M 3.8125 -8.90625 "/>
</symbol>
<symbol overflow="visible" id="dVOwWwiC3-2">
<path style="stroke:none;" d="M 1.484375 -1 L 3.421875 -1 L 3.421875 -7.671875 L 1.3125 -7.25 L 1.3125 -8.328125 L 3.40625 -8.75 L 4.59375 -8.75 L 4.59375 -1 L 6.53125 -1 L 6.53125 0 L 1.484375 0 Z M 1.484375 -1 "/>
</symbol>
<symbol overflow="visible" id="dVOwWwiC3-3">
<path style="stroke:none;" d="M 1.28125 -1.484375 L 2.515625 -1.484375 L 2.515625 0 L 1.28125 0 Z M 1.28125 -1.484375 "/>
</symbol>
<symbol overflow="visible" id="dVOwWwiC3-4">
<path style="stroke:none;" d="M 3.8125 -4.15625 C 3.25 -4.15625 2.804688 -4.003906 2.484375 -3.703125 C 2.160156 -3.398438 2 -2.988281 2 -2.46875 C 2 -1.9375 2.160156 -1.519531 2.484375 -1.21875 C 2.804688 -0.914062 3.25 -0.765625 3.8125 -0.765625 C 4.375 -0.765625 4.816406 -0.914062 5.140625 -1.21875 C 5.460938 -1.519531 5.625 -1.9375 5.625 -2.46875 C 5.625 -2.988281 5.460938 -3.398438 5.140625 -3.703125 C 4.828125 -4.003906 4.382812 -4.15625 3.8125 -4.15625 Z M 2.625 -4.65625 C 2.125 -4.78125 1.726562 -5.015625 1.4375 -5.359375 C 1.15625 -5.710938 1.015625 -6.140625 1.015625 -6.640625 C 1.015625 -7.335938 1.265625 -7.890625 1.765625 -8.296875 C 2.265625 -8.703125 2.945312 -8.90625 3.8125 -8.90625 C 4.6875 -8.90625 5.367188 -8.703125 5.859375 -8.296875 C 6.359375 -7.890625 6.609375 -7.335938 6.609375 -6.640625 C 6.609375 -6.140625 6.46875 -5.710938 6.1875 -5.359375 C 5.90625 -5.015625 5.507812 -4.78125 5 -4.65625 C 5.570312 -4.519531 6.015625 -4.257812 6.328125 -3.875 C 6.648438 -3.488281 6.8125 -3.019531 6.8125 -2.46875 C 6.8125 -1.613281 6.550781 -0.957031 6.03125 -0.5 C 5.519531 -0.0507812 4.78125 0.171875 3.8125 0.171875 C 2.851562 0.171875 2.113281 -0.0507812 1.59375 -0.5 C 1.070312 -0.957031 0.8125 -1.613281 0.8125 -2.46875 C 0.8125 -3.019531 0.972656 -3.488281 1.296875 -3.875 C 1.617188 -4.257812 2.0625 -4.519531 2.625 -4.65625 Z M 2.203125 -6.53125 C 2.203125 -6.070312 2.34375 -5.71875 2.625 -5.46875 C 2.90625 -5.21875 3.300781 -5.09375 3.8125 -5.09375 C 4.320312 -5.09375 4.71875 -5.21875 5 -5.46875 C 5.289062 -5.71875 5.4375 -6.070312 5.4375 -6.53125 C 5.4375 -6.976562 5.289062 -7.328125 5 -7.578125 C 4.71875 -7.835938 4.320312 -7.96875 3.8125 -7.96875 C 3.300781 -7.96875 2.90625 -7.835938 2.625 -7.578125 C 2.34375 -7.328125 2.203125 -6.976562 2.203125 -6.53125 Z M 2.203125 -6.53125 "/>
</symbol>
<symbol overflow="visible" id="dVOwWwiC3-5">
<path style="stroke:none;" d="M 2.296875 -1 L 6.4375 -1 L 6.4375 0 L 0.875 0 L 0.875 -1 C 1.320312 -1.457031 1.929688 -2.078125 2.703125 -2.859375 C 3.484375 -3.648438 3.972656 -4.160156 4.171875 -4.390625 C 4.554688 -4.804688 4.820312 -5.160156 4.96875 -5.453125 C 5.125 -5.753906 5.203125 -6.046875 5.203125 -6.328125 C 5.203125 -6.796875 5.035156 -7.175781 4.703125 -7.46875 C 4.378906 -7.757812 3.957031 -7.90625 3.4375 -7.90625 C 3.0625 -7.90625 2.664062 -7.84375 2.25 -7.71875 C 1.84375 -7.59375 1.40625 -7.394531 0.9375 -7.125 L 0.9375 -8.328125 C 1.414062 -8.515625 1.859375 -8.65625 2.265625 -8.75 C 2.679688 -8.851562 3.0625 -8.90625 3.40625 -8.90625 C 4.3125 -8.90625 5.035156 -8.675781 5.578125 -8.21875 C 6.117188 -7.769531 6.390625 -7.164062 6.390625 -6.40625 C 6.390625 -6.050781 6.320312 -5.710938 6.1875 -5.390625 C 6.050781 -5.066406 5.804688 -4.6875 5.453125 -4.25 C 5.347656 -4.132812 5.035156 -3.804688 4.515625 -3.265625 C 3.992188 -2.722656 3.253906 -1.96875 2.296875 -1 Z M 2.296875 -1 "/>
</symbol>
<symbol overflow="visible" id="dVOwWwiC3-6">
<path style="stroke:none;" d="M 0.359375 -6.5625 L 1.5 -6.5625 L 3.546875 -1.0625 L 5.609375 -6.5625 L 6.75 -6.5625 L 4.28125 0 L 2.8125 0 Z M 0.359375 -6.5625 "/>
</symbol>
<symbol overflow="visible" id="dVOwWwiC3-7">
<path style="stroke:none;" d="M 4.109375 -3.296875 C 3.242188 -3.296875 2.640625 -3.195312 2.296875 -3 C 1.960938 -2.800781 1.796875 -2.460938 1.796875 -1.984375 C 1.796875 -1.597656 1.921875 -1.289062 2.171875 -1.0625 C 2.429688 -0.84375 2.773438 -0.734375 3.203125 -0.734375 C 3.804688 -0.734375 4.285156 -0.941406 4.640625 -1.359375 C 5.003906 -1.785156 5.1875 -2.351562 5.1875 -3.0625 L 5.1875 -3.296875 Z M 6.265625 -3.75 L 6.265625 0 L 5.1875 0 L 5.1875 -1 C 4.9375 -0.601562 4.628906 -0.304688 4.265625 -0.109375 C 3.898438 0.078125 3.453125 0.171875 2.921875 0.171875 C 2.242188 0.171875 1.707031 -0.015625 1.3125 -0.390625 C 0.914062 -0.773438 0.71875 -1.28125 0.71875 -1.90625 C 0.71875 -2.644531 0.960938 -3.203125 1.453125 -3.578125 C 1.953125 -3.953125 2.691406 -4.140625 3.671875 -4.140625 L 5.1875 -4.140625 L 5.1875 -4.25 C 5.1875 -4.75 5.019531 -5.132812 4.6875 -5.40625 C 4.363281 -5.675781 3.910156 -5.8125 3.328125 -5.8125 C 2.953125 -5.8125 2.582031 -5.765625 2.21875 -5.671875 C 1.863281 -5.578125 1.523438 -5.441406 1.203125 -5.265625 L 1.203125 -6.265625 C 1.597656 -6.421875 1.976562 -6.535156 2.34375 -6.609375 C 2.71875 -6.679688 3.082031 -6.71875 3.4375 -6.71875 C 4.382812 -6.71875 5.09375 -6.472656 5.5625 -5.984375 C 6.03125 -5.492188 6.265625 -4.75 6.265625 -3.75 Z M 6.265625 -3.75 "/>
</symbol>
<symbol overflow="visible" id="dVOwWwiC3-8">
<path style="stroke:none;" d="M 1.125 -9.125 L 2.203125 -9.125 L 2.203125 0 L 1.125 0 Z M 1.125 -9.125 "/>
</symbol>
<symbol overflow="visible" id="dVOwWwiC3-9">
<path style="stroke:none;" d="M 6.75 -3.546875 L 6.75 -3.03125 L 1.78125 -3.03125 C 1.832031 -2.28125 2.054688 -1.710938 2.453125 -1.328125 C 2.859375 -0.941406 3.414062 -0.75 4.125 -0.75 C 4.539062 -0.75 4.941406 -0.796875 5.328125 -0.890625 C 5.722656 -0.992188 6.113281 -1.148438 6.5 -1.359375 L 6.5 -0.328125 C 6.101562 -0.171875 5.703125 -0.0507812 5.296875 0.03125 C 4.890625 0.125 4.476562 0.171875 4.0625 0.171875 C 3.019531 0.171875 2.191406 -0.128906 1.578125 -0.734375 C 0.960938 -1.347656 0.65625 -2.175781 0.65625 -3.21875 C 0.65625 -4.289062 0.945312 -5.140625 1.53125 -5.765625 C 2.113281 -6.398438 2.894531 -6.71875 3.875 -6.71875 C 4.757812 -6.71875 5.457031 -6.429688 5.96875 -5.859375 C 6.488281 -5.296875 6.75 -4.523438 6.75 -3.546875 Z M 5.671875 -3.875 C 5.660156 -4.457031 5.492188 -4.925781 5.171875 -5.28125 C 4.847656 -5.632812 4.421875 -5.8125 3.890625 -5.8125 C 3.285156 -5.8125 2.800781 -5.640625 2.4375 -5.296875 C 2.082031 -4.953125 1.878906 -4.472656 1.828125 -3.859375 Z M 5.671875 -3.875 "/>
</symbol>
<symbol overflow="visible" id="dVOwWwiC3-10">
<path style="stroke:none;" d="M 4.875 -4.71875 C 5.4375 -4.59375 5.875 -4.335938 6.1875 -3.953125 C 6.507812 -3.578125 6.671875 -3.109375 6.671875 -2.546875 C 6.671875 -1.679688 6.375 -1.007812 5.78125 -0.53125 C 5.1875 -0.0625 4.34375 0.171875 3.25 0.171875 C 2.882812 0.171875 2.503906 0.132812 2.109375 0.0625 C 1.722656 -0.0078125 1.328125 -0.117188 0.921875 -0.265625 L 0.921875 -1.40625 C 1.242188 -1.21875 1.597656 -1.070312 1.984375 -0.96875 C 2.378906 -0.875 2.789062 -0.828125 3.21875 -0.828125 C 3.957031 -0.828125 4.519531 -0.972656 4.90625 -1.265625 C 5.300781 -1.554688 5.5 -1.984375 5.5 -2.546875 C 5.5 -3.054688 5.316406 -3.457031 4.953125 -3.75 C 4.585938 -4.039062 4.085938 -4.1875 3.453125 -4.1875 L 2.421875 -4.1875 L 2.421875 -5.15625 L 3.5 -5.15625 C 4.070312 -5.15625 4.515625 -5.269531 4.828125 -5.5 C 5.140625 -5.738281 5.296875 -6.078125 5.296875 -6.515625 C 5.296875 -6.960938 5.132812 -7.304688 4.8125 -7.546875 C 4.5 -7.785156 4.046875 -7.90625 3.453125 -7.90625 C 3.117188 -7.90625 2.765625 -7.867188 2.390625 -7.796875 C 2.023438 -7.734375 1.617188 -7.628906 1.171875 -7.484375 L 1.171875 -8.53125 C 1.628906 -8.65625 2.050781 -8.75 2.4375 -8.8125 C 2.832031 -8.875 3.203125 -8.90625 3.546875 -8.90625 C 4.453125 -8.90625 5.164062 -8.703125 5.6875 -8.296875 C 6.207031 -7.890625 6.46875 -7.335938 6.46875 -6.640625 C 6.46875 -6.148438 6.328125 -5.738281 6.046875 -5.40625 C 5.773438 -5.070312 5.382812 -4.84375 4.875 -4.71875 Z M 4.875 -4.71875 "/>
</symbol>
<symbol overflow="visible" id="dVOwWwiC4-0">
<path style="stroke:none;" d="M 0.59375 2.125 L 0.59375 -8.46875 L 6.59375 -8.46875 L 6.59375 2.125 Z M 1.265625 1.453125 L 5.9375 1.453125 L 5.9375 -7.78125 L 1.265625 -7.78125 Z M 1.265625 1.453125 "/>
</symbol>
<symbol overflow="visible" id="dVOwWwiC4-1">
<path style="stroke:none;" d="M 2.296875 -1 L 6.4375 -1 L 6.4375 0 L 0.875 0 L 0.875 -1 C 1.320312 -1.457031 1.929688 -2.078125 2.703125 -2.859375 C 3.484375 -3.648438 3.972656 -4.160156 4.171875 -4.390625 C 4.554688 -4.804688 4.820312 -5.160156 4.96875 -5.453125 C 5.125 -5.753906 5.203125 -6.046875 5.203125 -6.328125 C 5.203125 -6.796875 5.035156 -7.175781 4.703125 -7.46875 C 4.378906 -7.757812 3.957031 -7.90625 3.4375 -7.90625 C 3.0625 -7.90625 2.664062 -7.84375 2.25 -7.71875 C 1.84375 -7.59375 1.40625 -7.394531 0.9375 -7.125 L 0.9375 -8.328125 C 1.414062 -8.515625 1.859375 -8.65625 2.265625 -8.75 C 2.679688 -8.851562 3.0625 -8.90625 3.40625 -8.90625 C 4.3125 -8.90625 5.035156 -8.675781 5.578125 -8.21875 C 6.117188 -7.769531 6.390625 -7.164062 6.390625 -6.40625 C 6.390625 -6.050781 6.320312 -5.710938 6.1875 -5.390625 C 6.050781 -5.066406 5.804688 -4.6875 5.453125 -4.25 C 5.347656 -4.132812 5.035156 -3.804688 4.515625 -3.265625 C 3.992188 -2.722656 3.253906 -1.96875 2.296875 -1 Z M 2.296875 -1 "/>
</symbol>
<symbol overflow="visible" id="dVOwWwiC5-0">
<path style="stroke:none;" d="M 2.125 -0.59375 L -8.46875 -0.59375 L -8.46875 -6.59375 L 2.125 -6.59375 Z M 1.453125 -1.265625 L 1.453125 -5.9375 L -7.78125 -5.9375 L -7.78125 -1.265625 Z M 1.453125 -1.265625 "/>
</symbol>
<symbol overflow="visible" id="dVOwWwiC5-1">
<path style="stroke:none;" d="M -5.5625 -5.453125 L -9.125 -5.453125 L -9.125 -6.53125 L 0 -6.53125 L 0 -5.453125 L -0.984375 -5.453125 C -0.597656 -5.222656 -0.304688 -4.9375 -0.109375 -4.59375 C 0.078125 -4.25 0.171875 -3.832031 0.171875 -3.34375 C 0.171875 -2.550781 -0.144531 -1.90625 -0.78125 -1.40625 C -1.414062 -0.90625 -2.25 -0.65625 -3.28125 -0.65625 C -4.3125 -0.65625 -5.140625 -0.90625 -5.765625 -1.40625 C -6.398438 -1.90625 -6.71875 -2.550781 -6.71875 -3.34375 C -6.71875 -3.832031 -6.625 -4.25 -6.4375 -4.59375 C -6.25 -4.9375 -5.957031 -5.222656 -5.5625 -5.453125 Z M -3.28125 -1.78125 C -2.488281 -1.78125 -1.863281 -1.941406 -1.40625 -2.265625 C -0.957031 -2.585938 -0.734375 -3.035156 -0.734375 -3.609375 C -0.734375 -4.179688 -0.957031 -4.628906 -1.40625 -4.953125 C -1.863281 -5.285156 -2.488281 -5.453125 -3.28125 -5.453125 C -4.070312 -5.453125 -4.691406 -5.285156 -5.140625 -4.953125 C -5.585938 -4.628906 -5.8125 -4.179688 -5.8125 -3.609375 C -5.8125 -3.035156 -5.585938 -2.585938 -5.140625 -2.265625 C -4.691406 -1.941406 -4.070312 -1.78125 -3.28125 -1.78125 Z M -3.28125 -1.78125 "/>
</symbol>
<symbol overflow="visible" id="dVOwWwiC5-2">
<path style="stroke:none;" d="M -6.375 -5.3125 L -5.34375 -5.3125 C -5.5 -5.007812 -5.613281 -4.691406 -5.6875 -4.359375 C -5.769531 -4.035156 -5.8125 -3.695312 -5.8125 -3.34375 C -5.8125 -2.8125 -5.726562 -2.410156 -5.5625 -2.140625 C -5.40625 -1.867188 -5.160156 -1.734375 -4.828125 -1.734375 C -4.578125 -1.734375 -4.378906 -1.828125 -4.234375 -2.015625 C -4.097656 -2.210938 -3.96875 -2.601562 -3.84375 -3.1875 L -3.75 -3.546875 C -3.59375 -4.316406 -3.363281 -4.863281 -3.0625 -5.1875 C -2.757812 -5.507812 -2.34375 -5.671875 -1.8125 -5.671875 C -1.195312 -5.671875 -0.710938 -5.425781 -0.359375 -4.9375 C -0.00390625 -4.457031 0.171875 -3.796875 0.171875 -2.953125 C 0.171875 -2.597656 0.132812 -2.226562 0.0625 -1.84375 C 0 -1.46875 -0.0976562 -1.070312 -0.234375 -0.65625 L -1.359375 -0.65625 C -1.148438 -1.050781 -0.992188 -1.441406 -0.890625 -1.828125 C -0.785156 -2.210938 -0.734375 -2.597656 -0.734375 -2.984375 C -0.734375 -3.484375 -0.816406 -3.867188 -0.984375 -4.140625 C -1.160156 -4.421875 -1.410156 -4.5625 -1.734375 -4.5625 C -2.023438 -4.5625 -2.25 -4.460938 -2.40625 -4.265625 C -2.5625 -4.066406 -2.710938 -3.632812 -2.859375 -2.96875 L -2.9375 -2.59375 C -3.082031 -1.925781 -3.300781 -1.441406 -3.59375 -1.140625 C -3.882812 -0.847656 -4.28125 -0.703125 -4.78125 -0.703125 C -5.40625 -0.703125 -5.882812 -0.921875 -6.21875 -1.359375 C -6.550781 -1.796875 -6.71875 -2.414062 -6.71875 -3.21875 C -6.71875 -3.613281 -6.6875 -3.988281 -6.625 -4.34375 C -6.570312 -4.695312 -6.488281 -5.019531 -6.375 -5.3125 Z M -6.375 -5.3125 "/>
</symbol>
<symbol overflow="visible" id="dVOwWwiC6-0">
<path style="stroke:none;" d="M 2.125 -0.59375 L -8.46875 -0.59375 L -8.46875 -6.59375 L 2.125 -6.59375 Z M 1.453125 -1.265625 L 1.453125 -5.9375 L -7.78125 -5.9375 L -7.78125 -1.265625 Z M 1.453125 -1.265625 "/>
</symbol>
<symbol overflow="visible" id="dVOwWwiC6-1">
<path style="stroke:none;" d="M -3.546875 -6.75 L -3.03125 -6.75 L -3.03125 -1.78125 C -2.28125 -1.832031 -1.710938 -2.054688 -1.328125 -2.453125 C -0.941406 -2.859375 -0.75 -3.414062 -0.75 -4.125 C -0.75 -4.539062 -0.796875 -4.941406 -0.890625 -5.328125 C -0.992188 -5.722656 -1.148438 -6.113281 -1.359375 -6.5 L -0.328125 -6.5 C -0.171875 -6.101562 -0.0507812 -5.703125 0.03125 -5.296875 C 0.125 -4.890625 0.171875 -4.476562 0.171875 -4.0625 C 0.171875 -3.019531 -0.128906 -2.191406 -0.734375 -1.578125 C -1.347656 -0.960938 -2.175781 -0.65625 -3.21875 -0.65625 C -4.289062 -0.65625 -5.140625 -0.945312 -5.765625 -1.53125 C -6.398438 -2.113281 -6.71875 -2.894531 -6.71875 -3.875 C -6.71875 -4.757812 -6.429688 -5.457031 -5.859375 -5.96875 C -5.296875 -6.488281 -4.523438 -6.75 -3.546875 -6.75 Z M -3.875 -5.671875 C -4.457031 -5.660156 -4.925781 -5.492188 -5.28125 -5.171875 C -5.632812 -4.847656 -5.8125 -4.421875 -5.8125 -3.890625 C -5.8125 -3.285156 -5.640625 -2.800781 -5.296875 -2.4375 C -4.953125 -2.082031 -4.472656 -1.878906 -3.859375 -1.828125 Z M -3.875 -5.671875 "/>
</symbol>
<symbol overflow="visible" id="dVOwWwiC7-0">
<path style="stroke:none;" d="M 2.125 -0.59375 L -8.46875 -0.59375 L -8.46875 -6.59375 L 2.125 -6.59375 Z M 1.453125 -1.265625 L 1.453125 -5.9375 L -7.78125 -5.9375 L -7.78125 -1.265625 Z M 1.453125 -1.265625 "/>
</symbol>
<symbol overflow="visible" id="dVOwWwiC7-1">
<path style="stroke:none;" d="M -3.96875 -6.59375 L 0 -6.59375 L 0 -5.515625 L -3.921875 -5.515625 C -4.546875 -5.515625 -5.007812 -5.390625 -5.3125 -5.140625 C -5.625 -4.898438 -5.78125 -4.539062 -5.78125 -4.0625 C -5.78125 -3.476562 -5.59375 -3.015625 -5.21875 -2.671875 C -4.851562 -2.335938 -4.347656 -2.171875 -3.703125 -2.171875 L 0 -2.171875 L 0 -1.09375 L -6.5625 -1.09375 L -6.5625 -2.171875 L -5.546875 -2.171875 C -5.941406 -2.429688 -6.234375 -2.734375 -6.421875 -3.078125 C -6.617188 -3.429688 -6.71875 -3.835938 -6.71875 -4.296875 C -6.71875 -5.046875 -6.484375 -5.613281 -6.015625 -6 C -5.554688 -6.394531 -4.875 -6.59375 -3.96875 -6.59375 Z M -3.96875 -6.59375 "/>
</symbol>
<symbol overflow="visible" id="dVOwWwiC7-2">
<path style="stroke:none;" d="M -6.5625 -1.125 L -6.5625 -2.203125 L 0 -2.203125 L 0 -1.125 Z M -9.125 -1.125 L -9.125 -2.203125 L -7.75 -2.203125 L -7.75 -1.125 Z M -9.125 -1.125 "/>
</symbol>
<symbol overflow="visible" id="dVOwWwiC7-3">
<path style="stroke:none;" d="M -8.421875 -2.203125 L -6.5625 -2.203125 L -6.5625 -4.421875 L -5.71875 -4.421875 L -5.71875 -2.203125 L -2.15625 -2.203125 C -1.625 -2.203125 -1.28125 -2.273438 -1.125 -2.421875 C -0.976562 -2.566406 -0.90625 -2.863281 -0.90625 -3.3125 L -0.90625 -4.421875 L 0 -4.421875 L 0 -3.3125 C 0 -2.476562 -0.15625 -1.898438 -0.46875 -1.578125 C -0.78125 -1.265625 -1.34375 -1.109375 -2.15625 -1.109375 L -5.71875 -1.109375 L -5.71875 -0.328125 L -6.5625 -0.328125 L -6.5625 -1.109375 L -8.421875 -1.109375 Z M -8.421875 -2.203125 "/>
</symbol>
<symbol overflow="visible" id="dVOwWwiC8-0">
<path style="stroke:none;" d="M 2.125 -0.59375 L -8.46875 -0.59375 L -8.46875 -6.59375 L 2.125 -6.59375 Z M 1.453125 -1.265625 L 1.453125 -5.9375 L -7.78125 -5.9375 L -7.78125 -1.265625 Z M 1.453125 -1.265625 "/>
</symbol>
<symbol overflow="visible" id="dVOwWwiC8-1">
<path style="stroke:none;" d="M 0.609375 -3.859375 C 1.390625 -3.554688 1.898438 -3.257812 2.140625 -2.96875 C 2.378906 -2.675781 2.5 -2.289062 2.5 -1.8125 L 2.5 -0.953125 L 1.59375 -0.953125 L 1.59375 -1.578125 C 1.59375 -1.878906 1.519531 -2.109375 1.375 -2.265625 C 1.238281 -2.429688 0.910156 -2.613281 0.390625 -2.8125 L -0.109375 -3.015625 L -6.5625 -0.359375 L -6.5625 -1.5 L -1.4375 -3.546875 L -6.5625 -5.609375 L -6.5625 -6.75 Z M 0.609375 -3.859375 "/>
</symbol>
<symbol overflow="visible" id="dVOwWwiC9-0">
<path style="stroke:none;" d="M 0.59375 2.125 L 0.59375 -8.46875 L 6.59375 -8.46875 L 6.59375 2.125 Z M 1.265625 1.453125 L 5.9375 1.453125 L 5.9375 -7.78125 L 1.265625 -7.78125 Z M 1.265625 1.453125 "/>
</symbol>
<symbol overflow="visible" id="dVOwWwiC9-1">
<path style="stroke:none;" d="M 1.484375 -1 L 3.421875 -1 L 3.421875 -7.671875 L 1.3125 -7.25 L 1.3125 -8.328125 L 3.40625 -8.75 L 4.59375 -8.75 L 4.59375 -1 L 6.53125 -1 L 6.53125 0 L 1.484375 0 Z M 1.484375 -1 "/>
</symbol>
<symbol overflow="visible" id="dVOwWwiC10-0">
<path style="stroke:none;" d="M 0.59375 2.125 L 0.59375 -8.46875 L 6.59375 -8.46875 L 6.59375 2.125 Z M 1.265625 1.453125 L 5.9375 1.453125 L 5.9375 -7.78125 L 1.265625 -7.78125 Z M 1.265625 1.453125 "/>
</symbol>
<symbol overflow="visible" id="dVOwWwiC10-1">
<path style="stroke:none;" d="M 3.8125 -7.96875 C 3.207031 -7.96875 2.75 -7.664062 2.4375 -7.0625 C 2.132812 -6.46875 1.984375 -5.566406 1.984375 -4.359375 C 1.984375 -3.160156 2.132812 -2.257812 2.4375 -1.65625 C 2.75 -1.0625 3.207031 -0.765625 3.8125 -0.765625 C 4.425781 -0.765625 4.882812 -1.0625 5.1875 -1.65625 C 5.5 -2.257812 5.65625 -3.160156 5.65625 -4.359375 C 5.65625 -5.566406 5.5 -6.46875 5.1875 -7.0625 C 4.882812 -7.664062 4.425781 -7.96875 3.8125 -7.96875 Z M 3.8125 -8.90625 C 4.789062 -8.90625 5.539062 -8.515625 6.0625 -7.734375 C 6.582031 -6.960938 6.84375 -5.835938 6.84375 -4.359375 C 6.84375 -2.890625 6.582031 -1.765625 6.0625 -0.984375 C 5.539062 -0.210938 4.789062 0.171875 3.8125 0.171875 C 2.832031 0.171875 2.082031 -0.210938 1.5625 -0.984375 C 1.050781 -1.765625 0.796875 -2.890625 0.796875 -4.359375 C 0.796875 -5.835938 1.050781 -6.960938 1.5625 -7.734375 C 2.082031 -8.515625 2.832031 -8.90625 3.8125 -8.90625 Z M 3.8125 -8.90625 "/>
</symbol>
<symbol overflow="visible" id="dVOwWwiC11-0">
<path style="stroke:none;" d="M 0.59375 2.125 L 0.59375 -8.46875 L 6.59375 -8.46875 L 6.59375 2.125 Z M 1.265625 1.453125 L 5.9375 1.453125 L 5.9375 -7.78125 L 1.265625 -7.78125 Z M 1.265625 1.453125 "/>
</symbol>
<symbol overflow="visible" id="dVOwWwiC11-1">
<path style="stroke:none;" d="M 3.8125 -7.96875 C 3.207031 -7.96875 2.75 -7.664062 2.4375 -7.0625 C 2.132812 -6.46875 1.984375 -5.566406 1.984375 -4.359375 C 1.984375 -3.160156 2.132812 -2.257812 2.4375 -1.65625 C 2.75 -1.0625 3.207031 -0.765625 3.8125 -0.765625 C 4.425781 -0.765625 4.882812 -1.0625 5.1875 -1.65625 C 5.5 -2.257812 5.65625 -3.160156 5.65625 -4.359375 C 5.65625 -5.566406 5.5 -6.46875 5.1875 -7.0625 C 4.882812 -7.664062 4.425781 -7.96875 3.8125 -7.96875 Z M 3.8125 -8.90625 C 4.789062 -8.90625 5.539062 -8.515625 6.0625 -7.734375 C 6.582031 -6.960938 6.84375 -5.835938 6.84375 -4.359375 C 6.84375 -2.890625 6.582031 -1.765625 6.0625 -0.984375 C 5.539062 -0.210938 4.789062 0.171875 3.8125 0.171875 C 2.832031 0.171875 2.082031 -0.210938 1.5625 -0.984375 C 1.050781 -1.765625 0.796875 -2.890625 0.796875 -4.359375 C 0.796875 -5.835938 1.050781 -6.960938 1.5625 -7.734375 C 2.082031 -8.515625 2.832031 -8.90625 3.8125 -8.90625 Z M 3.8125 -8.90625 "/>
</symbol>
<symbol overflow="visible" id="dVOwWwiC11-2">
<path style="stroke:none;" d="M 1.015625 -2.59375 L 1.015625 -6.5625 L 2.09375 -6.5625 L 2.09375 -2.625 C 2.09375 -2.007812 2.210938 -1.546875 2.453125 -1.234375 C 2.703125 -0.921875 3.066406 -0.765625 3.546875 -0.765625 C 4.128906 -0.765625 4.585938 -0.945312 4.921875 -1.3125 C 5.265625 -1.6875 5.4375 -2.195312 5.4375 -2.84375 L 5.4375 -6.5625 L 6.515625 -6.5625 L 6.515625 0 L 5.4375 0 L 5.4375 -1.015625 C 5.175781 -0.609375 4.875 -0.304688 4.53125 -0.109375 C 4.1875 0.078125 3.785156 0.171875 3.328125 0.171875 C 2.566406 0.171875 1.988281 -0.0625 1.59375 -0.53125 C 1.207031 -1 1.015625 -1.6875 1.015625 -2.59375 Z M 3.734375 -6.71875 Z M 3.734375 -6.71875 "/>
</symbol>
<symbol overflow="visible" id="dVOwWwiC12-0">
<path style="stroke:none;" d="M 0.59375 2.125 L 0.59375 -8.46875 L 6.59375 -8.46875 L 6.59375 2.125 Z M 1.265625 1.453125 L 5.9375 1.453125 L 5.9375 -7.78125 L 1.265625 -7.78125 Z M 1.265625 1.453125 "/>
</symbol>
<symbol overflow="visible" id="dVOwWwiC12-1">
<path style="stroke:none;" d="M 1.484375 -1 L 3.421875 -1 L 3.421875 -7.671875 L 1.3125 -7.25 L 1.3125 -8.328125 L 3.40625 -8.75 L 4.59375 -8.75 L 4.59375 -1 L 6.53125 -1 L 6.53125 0 L 1.484375 0 Z M 1.484375 -1 "/>
</symbol>
<symbol overflow="visible" id="dVOwWwiC13-0">
<path style="stroke:none;" d="M 0.59375 2.125 L 0.59375 -8.46875 L 6.59375 -8.46875 L 6.59375 2.125 Z M 1.265625 1.453125 L 5.9375 1.453125 L 5.9375 -7.78125 L 1.265625 -7.78125 Z M 1.265625 1.453125 "/>
</symbol>
<symbol overflow="visible" id="dVOwWwiC13-1">
<path style="stroke:none;" d="M 2.203125 -0.40625 L 2.203125 2.5 L 1.125 2.5 L 1.125 -6.515625 C 1.125 -8.296875 1.957031 -9.1875 3.625 -9.1875 C 5.320312 -9.1875 6.171875 -8.4375 6.171875 -6.9375 C 6.171875 -5.863281 5.832031 -5.132812 5.15625 -4.75 C 6.25 -4.394531 6.796875 -3.695312 6.796875 -2.65625 C 6.796875 -0.800781 5.851562 0.125 3.96875 0.125 C 3.144531 0.125 2.554688 -0.0507812 2.203125 -0.40625 Z M 2.203125 -1.8125 C 2.640625 -1.132812 3.242188 -0.796875 4.015625 -0.796875 C 5.140625 -0.796875 5.703125 -1.410156 5.703125 -2.640625 C 5.703125 -3.742188 4.796875 -4.25 2.984375 -4.15625 L 2.984375 -5.15625 C 4.398438 -5.15625 5.109375 -5.78125 5.109375 -7.03125 C 5.109375 -7.882812 4.648438 -8.3125 3.734375 -8.3125 C 2.710938 -8.3125 2.203125 -7.703125 2.203125 -6.484375 Z M 2.203125 -1.8125 "/>
</symbol>
<symbol overflow="visible" id="dVOwWwiC13-2">
<path style="stroke:none;" d="M 3.109375 -3.109375 C 3.035156 -3.140625 2.953125 -3.164062 2.859375 -3.1875 C 2.765625 -3.207031 2.664062 -3.21875 2.5625 -3.21875 C 2.175781 -3.21875 1.878906 -3.101562 1.671875 -2.875 C 1.472656 -2.65625 1.375 -2.335938 1.375 -1.921875 L 1.375 0 L 0.6875 0 L 0.6875 -3.671875 L 1.375 -3.671875 L 1.375 -3.09375 C 1.507812 -3.320312 1.691406 -3.488281 1.921875 -3.59375 C 2.148438 -3.695312 2.429688 -3.75 2.765625 -3.75 C 2.804688 -3.75 2.851562 -3.75 2.90625 -3.75 C 2.96875 -3.75 3.035156 -3.738281 3.109375 -3.71875 Z M 3.109375 -3.109375 "/>
</symbol>
<symbol overflow="visible" id="dVOwWwiC14-0">
<path style="stroke:none;" d="M 0.59375 2.125 L 0.59375 -8.46875 L 6.59375 -8.46875 L 6.59375 2.125 Z M 1.265625 1.453125 L 5.9375 1.453125 L 5.9375 -7.78125 L 1.265625 -7.78125 Z M 1.265625 1.453125 "/>
</symbol>
<symbol overflow="visible" id="dVOwWwiC14-1">
<path style="stroke:none;" d="M 2.203125 -0.40625 L 2.203125 2.5 L 1.125 2.5 L 1.125 -6.515625 C 1.125 -8.296875 1.957031 -9.1875 3.625 -9.1875 C 5.320312 -9.1875 6.171875 -8.4375 6.171875 -6.9375 C 6.171875 -5.863281 5.832031 -5.132812 5.15625 -4.75 C 6.25 -4.394531 6.796875 -3.695312 6.796875 -2.65625 C 6.796875 -0.800781 5.851562 0.125 3.96875 0.125 C 3.144531 0.125 2.554688 -0.0507812 2.203125 -0.40625 Z M 2.203125 -1.8125 C 2.640625 -1.132812 3.242188 -0.796875 4.015625 -0.796875 C 5.140625 -0.796875 5.703125 -1.410156 5.703125 -2.640625 C 5.703125 -3.742188 4.796875 -4.25 2.984375 -4.15625 L 2.984375 -5.15625 C 4.398438 -5.15625 5.109375 -5.78125 5.109375 -7.03125 C 5.109375 -7.882812 4.648438 -8.3125 3.734375 -8.3125 C 2.710938 -8.3125 2.203125 -7.703125 2.203125 -6.484375 Z M 2.203125 -1.8125 "/>
</symbol>
<symbol overflow="visible" id="dVOwWwiC14-2">
<path style="stroke:none;" d="M 2.59375 -1.84375 C 2.039062 -1.84375 1.660156 -1.785156 1.453125 -1.671875 C 1.234375 -1.554688 1.125 -1.363281 1.125 -1.09375 C 1.125 -0.882812 1.203125 -0.71875 1.359375 -0.59375 C 1.523438 -0.46875 1.742188 -0.40625 2.015625 -0.40625 C 2.390625 -0.40625 2.691406 -0.523438 2.921875 -0.765625 C 3.148438 -1.003906 3.265625 -1.316406 3.265625 -1.703125 L 3.265625 -1.84375 Z M 3.9375 -2.09375 L 3.9375 0 L 3.265625 0 L 3.265625 -0.546875 C 3.109375 -0.328125 2.914062 -0.164062 2.6875 -0.0625 C 2.457031 0.0390625 2.175781 0.09375 1.84375 0.09375 C 1.414062 0.09375 1.078125 -0.0078125 0.828125 -0.21875 C 0.578125 -0.425781 0.453125 -0.707031 0.453125 -1.0625 C 0.453125 -1.476562 0.609375 -1.789062 0.921875 -2 C 1.234375 -2.207031 1.695312 -2.3125 2.3125 -2.3125 L 3.265625 -2.3125 L 3.265625 -2.375 C 3.265625 -2.644531 3.160156 -2.859375 2.953125 -3.015625 C 2.753906 -3.171875 2.46875 -3.25 2.09375 -3.25 C 1.851562 -3.25 1.625 -3.222656 1.40625 -3.171875 C 1.175781 -3.117188 0.957031 -3.039062 0.75 -2.9375 L 0.75 -3.5 C 1 -3.582031 1.242188 -3.644531 1.484375 -3.6875 C 1.710938 -3.726562 1.9375 -3.75 2.15625 -3.75 C 2.757812 -3.75 3.207031 -3.613281 3.5 -3.34375 C 3.789062 -3.0625 3.9375 -2.644531 3.9375 -2.09375 Z M 3.9375 -2.09375 "/>
</symbol>
<symbol overflow="visible" id="dVOwWwiC15-0">
<path style="stroke:none;" d="M 0.59375 2.125 L 0.59375 -8.46875 L 6.59375 -8.46875 L 6.59375 2.125 Z M 1.265625 1.453125 L 5.9375 1.453125 L 5.9375 -7.78125 L 1.265625 -7.78125 Z M 1.265625 1.453125 "/>
</symbol>
<symbol overflow="visible" id="dVOwWwiC15-1">
<path style="stroke:none;" d="M 5.859375 -6.3125 L 5.859375 -5.296875 C 5.546875 -5.472656 5.238281 -5.601562 4.9375 -5.6875 C 4.632812 -5.769531 4.328125 -5.8125 4.015625 -5.8125 C 3.304688 -5.8125 2.757812 -5.585938 2.375 -5.140625 C 1.988281 -4.703125 1.796875 -4.082031 1.796875 -3.28125 C 1.796875 -2.476562 1.988281 -1.851562 2.375 -1.40625 C 2.757812 -0.96875 3.304688 -0.75 4.015625 -0.75 C 4.328125 -0.75 4.632812 -0.789062 4.9375 -0.875 C 5.238281 -0.957031 5.546875 -1.082031 5.859375 -1.25 L 5.859375 -0.25 C 5.554688 -0.113281 5.242188 -0.0078125 4.921875 0.0625 C 4.597656 0.132812 4.253906 0.171875 3.890625 0.171875 C 2.898438 0.171875 2.113281 -0.132812 1.53125 -0.75 C 0.945312 -1.375 0.65625 -2.21875 0.65625 -3.28125 C 0.65625 -4.34375 0.945312 -5.179688 1.53125 -5.796875 C 2.125 -6.410156 2.9375 -6.71875 3.96875 -6.71875 C 4.289062 -6.71875 4.609375 -6.679688 4.921875 -6.609375 C 5.242188 -6.546875 5.554688 -6.445312 5.859375 -6.3125 Z M 5.859375 -6.3125 "/>
</symbol>
<symbol overflow="visible" id="dVOwWwiC15-2">
<path style="stroke:none;" d="M 4.109375 -3.296875 C 3.242188 -3.296875 2.640625 -3.195312 2.296875 -3 C 1.960938 -2.800781 1.796875 -2.460938 1.796875 -1.984375 C 1.796875 -1.597656 1.921875 -1.289062 2.171875 -1.0625 C 2.429688 -0.84375 2.773438 -0.734375 3.203125 -0.734375 C 3.804688 -0.734375 4.285156 -0.941406 4.640625 -1.359375 C 5.003906 -1.785156 5.1875 -2.351562 5.1875 -3.0625 L 5.1875 -3.296875 Z M 6.265625 -3.75 L 6.265625 0 L 5.1875 0 L 5.1875 -1 C 4.9375 -0.601562 4.628906 -0.304688 4.265625 -0.109375 C 3.898438 0.078125 3.453125 0.171875 2.921875 0.171875 C 2.242188 0.171875 1.707031 -0.015625 1.3125 -0.390625 C 0.914062 -0.773438 0.71875 -1.28125 0.71875 -1.90625 C 0.71875 -2.644531 0.960938 -3.203125 1.453125 -3.578125 C 1.953125 -3.953125 2.691406 -4.140625 3.671875 -4.140625 L 5.1875 -4.140625 L 5.1875 -4.25 C 5.1875 -4.75 5.019531 -5.132812 4.6875 -5.40625 C 4.363281 -5.675781 3.910156 -5.8125 3.328125 -5.8125 C 2.953125 -5.8125 2.582031 -5.765625 2.21875 -5.671875 C 1.863281 -5.578125 1.523438 -5.441406 1.203125 -5.265625 L 1.203125 -6.265625 C 1.597656 -6.421875 1.976562 -6.535156 2.34375 -6.609375 C 2.71875 -6.679688 3.082031 -6.71875 3.4375 -6.71875 C 4.382812 -6.71875 5.09375 -6.472656 5.5625 -5.984375 C 6.03125 -5.492188 6.265625 -4.75 6.265625 -3.75 Z M 6.265625 -3.75 "/>
</symbol>
<symbol overflow="visible" id="dVOwWwiC16-0">
<path style="stroke:none;" d="M 0.59375 2.125 L 0.59375 -8.46875 L 6.59375 -8.46875 L 6.59375 2.125 Z M 1.265625 1.453125 L 5.9375 1.453125 L 5.9375 -7.78125 L 1.265625 -7.78125 Z M 1.265625 1.453125 "/>
</symbol>
<symbol overflow="visible" id="dVOwWwiC16-1">
<path style="stroke:none;" d="M 6.59375 -3.96875 L 6.59375 0 L 5.515625 0 L 5.515625 -3.921875 C 5.515625 -4.546875 5.390625 -5.007812 5.140625 -5.3125 C 4.898438 -5.625 4.539062 -5.78125 4.0625 -5.78125 C 3.476562 -5.78125 3.015625 -5.59375 2.671875 -5.21875 C 2.335938 -4.851562 2.171875 -4.347656 2.171875 -3.703125 L 2.171875 0 L 1.09375 0 L 1.09375 -9.125 L 2.171875 -9.125 L 2.171875 -5.546875 C 2.429688 -5.941406 2.734375 -6.234375 3.078125 -6.421875 C 3.429688 -6.617188 3.835938 -6.71875 4.296875 -6.71875 C 5.046875 -6.71875 5.613281 -6.484375 6 -6.015625 C 6.394531 -5.554688 6.59375 -4.875 6.59375 -3.96875 Z M 6.59375 -3.96875 "/>
</symbol>
<symbol overflow="visible" id="dVOwWwiC16-2">
<path style="stroke:none;" d="M 1.125 -6.5625 L 2.203125 -6.5625 L 2.203125 0 L 1.125 0 Z M 1.125 -9.125 L 2.203125 -9.125 L 2.203125 -7.75 L 1.125 -7.75 Z M 1.125 -9.125 "/>
</symbol>
<symbol overflow="visible" id="dVOwWwiC16-3">
<path style="stroke:none;" d="M 6.59375 -3.96875 L 6.59375 0 L 5.515625 0 L 5.515625 -3.921875 C 5.515625 -4.546875 5.390625 -5.007812 5.140625 -5.3125 C 4.898438 -5.625 4.539062 -5.78125 4.0625 -5.78125 C 3.476562 -5.78125 3.015625 -5.59375 2.671875 -5.21875 C 2.335938 -4.851562 2.171875 -4.347656 2.171875 -3.703125 L 2.171875 0 L 1.09375 0 L 1.09375 -6.5625 L 2.171875 -6.5625 L 2.171875 -5.546875 C 2.429688 -5.941406 2.734375 -6.234375 3.078125 -6.421875 C 3.429688 -6.617188 3.835938 -6.71875 4.296875 -6.71875 C 5.046875 -6.71875 5.613281 -6.484375 6 -6.015625 C 6.394531 -5.554688 6.59375 -4.875 6.59375 -3.96875 Z M 6.59375 -3.96875 "/>
</symbol>
<symbol overflow="visible" id="dVOwWwiC17-0">
<path style="stroke:none;" d="M 0.59375 2.125 L 0.59375 -8.46875 L 6.59375 -8.46875 L 6.59375 2.125 Z M 1.265625 1.453125 L 5.9375 1.453125 L 5.9375 -7.78125 L 1.265625 -7.78125 Z M 1.265625 1.453125 "/>
</symbol>
<symbol overflow="visible" id="dVOwWwiC17-1">
<path style="stroke:none;" d="M 2.296875 -1 L 6.4375 -1 L 6.4375 0 L 0.875 0 L 0.875 -1 C 1.320312 -1.457031 1.929688 -2.078125 2.703125 -2.859375 C 3.484375 -3.648438 3.972656 -4.160156 4.171875 -4.390625 C 4.554688 -4.804688 4.820312 -5.160156 4.96875 -5.453125 C 5.125 -5.753906 5.203125 -6.046875 5.203125 -6.328125 C 5.203125 -6.796875 5.035156 -7.175781 4.703125 -7.46875 C 4.378906 -7.757812 3.957031 -7.90625 3.4375 -7.90625 C 3.0625 -7.90625 2.664062 -7.84375 2.25 -7.71875 C 1.84375 -7.59375 1.40625 -7.394531 0.9375 -7.125 L 0.9375 -8.328125 C 1.414062 -8.515625 1.859375 -8.65625 2.265625 -8.75 C 2.679688 -8.851562 3.0625 -8.90625 3.40625 -8.90625 C 4.3125 -8.90625 5.035156 -8.675781 5.578125 -8.21875 C 6.117188 -7.769531 6.390625 -7.164062 6.390625 -6.40625 C 6.390625 -6.050781 6.320312 -5.710938 6.1875 -5.390625 C 6.050781 -5.066406 5.804688 -4.6875 5.453125 -4.25 C 5.347656 -4.132812 5.035156 -3.804688 4.515625 -3.265625 C 3.992188 -2.722656 3.253906 -1.96875 2.296875 -1 Z M 2.296875 -1 "/>
</symbol>
</g>
<clipPath id="clip1">
  <path d="M 50.25 50 L 278.25 50 L 278.25 401 L 50.25 401 Z M 50.25 50 "/>
</clipPath>
<clipPath id="clip2">
  <path d="M 50.25 43 L 278.25 43 L 278.25 401 L 50.25 401 Z M 50.25 43 "/>
</clipPath>
<clipPath id="clip3">
  <path d="M 50.25 30 L 278.25 30 L 278.25 401 L 50.25 401 Z M 50.25 30 "/>
</clipPath>
<clipPath id="clip4">
  <path d="M 296.25 218 L 524.25 218 L 524.25 401 L 296.25 401 Z M 296.25 218 "/>
</clipPath>
<clipPath id="clip5">
  <path d="M 296.25 210 L 524.25 210 L 524.25 401 L 296.25 401 Z M 296.25 210 "/>
</clipPath>
<clipPath id="clip6">
  <path d="M 296.25 216 L 524.25 216 L 524.25 401 L 296.25 401 Z M 296.25 216 "/>
</clipPath>
<clipPath id="clip7">
  <path d="M 542.25 175 L 588 175 L 588 256.5 L 542.25 256.5 Z M 542.25 175 "/>
</clipPath>
<clipPath id="clip8">
  <path d="M 542.25 174.75 L 588 174.75 L 588 256.5 L 542.25 256.5 Z M 542.25 174.75 "/>
</clipPath>
</defs>
<g id="surface1">
<rect x="0" y="0" width="600" height="450" style="fill:rgb(100%,100%,100%);fill-opacity:1;stroke:none;"/>
<path style=" stroke:none;fill-rule:nonzero;fill:rgb(100%,100%,100%);fill-opacity:1;" d="M 50.25 402 L 278.25 402 L 278.25 29.25 L 50.25 29.25 Z M 50.25 402 "/>
<path style=" stroke:none;fill-rule:nonzero;fill:rgb(100%,100%,100%);fill-opacity:1;" d="M 296.25 402 L 524.25 402 L 524.25 29.25 L 296.25 29.25 Z M 296.25 402 "/>
<path style="fill:none;stroke-width:1;stroke-linecap:butt;stroke-linejoin:miter;stroke:rgb(0%,0%,0%);stroke-opacity:0.12;stroke-miterlimit:10;" d="M 104.067708 536 L 104.067708 39 " transform="matrix(0.75,0,0,0.75,0,0)"/>
<path style="fill:none;stroke-width:1;stroke-linecap:butt;stroke-linejoin:miter;stroke:rgb(0%,0%,0%);stroke-opacity:0.12;stroke-miterlimit:10;" d="M 200.973958 536 L 200.973958 39 " transform="matrix(0.75,0,0,0.75,0,0)"/>
<path style="fill:none;stroke-width:1;stroke-linecap:butt;stroke-linejoin:miter;stroke:rgb(0%,0%,0%);stroke-opacity:0.12;stroke-miterlimit:10;" d="M 297.875 536 L 297.875 39 " transform="matrix(0.75,0,0,0.75,0,0)"/>
<path style="fill:none;stroke-width:1;stroke-linecap:butt;stroke-linejoin:miter;stroke:rgb(0%,0%,0%);stroke-opacity:0.12;stroke-miterlimit:10;" d="M 67 513.411458 L 371 513.411458 " transform="matrix(0.75,0,0,0.75,0,0)"/>
<path style="fill:none;stroke-width:1;stroke-linecap:butt;stroke-linejoin:miter;stroke:rgb(0%,0%,0%);stroke-opacity:0.12;stroke-miterlimit:10;" d="M 67 326.760417 L 371 326.760417 " transform="matrix(0.75,0,0,0.75,0,0)"/>
<path style="fill:none;stroke-width:1;stroke-linecap:butt;stroke-linejoin:miter;stroke:rgb(0%,0%,0%);stroke-opacity:0.12;stroke-miterlimit:10;" d="M 67 140.109375 L 371 140.109375 " transform="matrix(0.75,0,0,0.75,0,0)"/>
<path style="fill:none;stroke-width:1;stroke-linecap:butt;stroke-linejoin:miter;stroke:rgb(0%,0%,0%);stroke-opacity:0.12;stroke-miterlimit:10;" d="M 432.067708 536 L 432.067708 39 " transform="matrix(0.75,0,0,0.75,0,0)"/>
<path style="fill:none;stroke-width:1;stroke-linecap:butt;stroke-linejoin:miter;stroke:rgb(0%,0%,0%);stroke-opacity:0.12;stroke-miterlimit:10;" d="M 528.973958 536 L 528.973958 39 " transform="matrix(0.75,0,0,0.75,0,0)"/>
<path style="fill:none;stroke-width:1;stroke-linecap:butt;stroke-linejoin:miter;stroke:rgb(0%,0%,0%);stroke-opacity:0.12;stroke-miterlimit:10;" d="M 625.875 536 L 625.875 39 " transform="matrix(0.75,0,0,0.75,0,0)"/>
<path style="fill:none;stroke-width:1;stroke-linecap:butt;stroke-linejoin:miter;stroke:rgb(0%,0%,0%);stroke-opacity:0.12;stroke-miterlimit:10;" d="M 395 513.411458 L 699 513.411458 " transform="matrix(0.75,0,0,0.75,0,0)"/>
<path style="fill:none;stroke-width:1;stroke-linecap:butt;stroke-linejoin:miter;stroke:rgb(0%,0%,0%);stroke-opacity:0.12;stroke-miterlimit:10;" d="M 395 326.760417 L 699 326.760417 " transform="matrix(0.75,0,0,0.75,0,0)"/>
<path style="fill:none;stroke-width:1;stroke-linecap:butt;stroke-linejoin:miter;stroke:rgb(0%,0%,0%);stroke-opacity:0.12;stroke-miterlimit:10;" d="M 395 140.109375 L 699 140.109375 " transform="matrix(0.75,0,0,0.75,0,0)"/>
<g style="fill:rgb(0%,0%,0%);fill-opacity:1;">
  <use xlink:href="#dVOwWwiC0-1" x="68.933594" y="419.890625"/>
</g>
<g style="fill:rgb(0%,0%,0%);fill-opacity:1;">
  <use xlink:href="#dVOwWwiC0-2" x="76.566406" y="419.890625"/>
</g>
<g style="fill:rgb(0%,0%,0%);fill-opacity:1;">
  <use xlink:href="#dVOwWwiC1-1" x="80.382812" y="419.890625"/>
</g>
<g style="fill:rgb(0%,0%,0%);fill-opacity:1;">
  <use xlink:href="#dVOwWwiC2-1" x="141.324219" y="419.890625"/>
</g>
<g style="fill:rgb(0%,0%,0%);fill-opacity:1;">
  <use xlink:href="#dVOwWwiC1-2" x="148.957031" y="419.890625"/>
</g>
<g style="fill:rgb(0%,0%,0%);fill-opacity:1;">
  <use xlink:href="#dVOwWwiC3-1" x="152.773438" y="419.890625"/>
</g>
<g style="fill:rgb(0%,0%,0%);fill-opacity:1;">
  <use xlink:href="#dVOwWwiC3-2" x="214.246094" y="419.890625"/>
</g>
<g style="fill:rgb(0%,0%,0%);fill-opacity:1;">
  <use xlink:href="#dVOwWwiC3-3" x="221.882812" y="419.890625"/>
</g>
<g style="fill:rgb(0%,0%,0%);fill-opacity:1;">
  <use xlink:href="#dVOwWwiC4-1" x="225.695312" y="419.890625"/>
</g>
<g style="fill:rgb(0%,0%,0%);fill-opacity:1;">
  <use xlink:href="#dVOwWwiC5-1" x="22.128906" y="237.597656"/>
</g>
<g style="fill:rgb(0%,0%,0%);fill-opacity:1;">
  <use xlink:href="#dVOwWwiC6-1" x="22.128906" y="229.980469"/>
</g>
<g style="fill:rgb(0%,0%,0%);fill-opacity:1;">
  <use xlink:href="#dVOwWwiC7-1" x="22.128906" y="222.597656"/>
</g>
<g style="fill:rgb(0%,0%,0%);fill-opacity:1;">
  <use xlink:href="#dVOwWwiC5-2" x="22.128906" y="214.992188"/>
</g>
<g style="fill:rgb(0%,0%,0%);fill-opacity:1;">
  <use xlink:href="#dVOwWwiC7-2" x="22.128906" y="208.742187"/>
</g>
<g style="fill:rgb(0%,0%,0%);fill-opacity:1;">
  <use xlink:href="#dVOwWwiC7-3" x="22.128906" y="205.40625"/>
</g>
<g style="fill:rgb(0%,0%,0%);fill-opacity:1;">
  <use xlink:href="#dVOwWwiC8-1" x="22.128906" y="200.703125"/>
</g>
<g style="fill:rgb(0%,0%,0%);fill-opacity:1;">
  <use xlink:href="#dVOwWwiC0-1" x="35.953125" y="389.210938"/>
</g>
<g style="fill:rgb(0%,0%,0%);fill-opacity:1;">
  <use xlink:href="#dVOwWwiC0-3" x="36.339844" y="249.222656"/>
</g>
<g style="fill:rgb(0%,0%,0%);fill-opacity:1;">
  <use xlink:href="#dVOwWwiC9-1" x="28.316406" y="109.234375"/>
</g>
<g style="fill:rgb(0%,0%,0%);fill-opacity:1;">
  <use xlink:href="#dVOwWwiC10-1" x="35.953125" y="109.234375"/>
</g>
<g style="fill:rgb(0%,0%,0%);fill-opacity:1;">
  <use xlink:href="#dVOwWwiC11-1" x="314.933594" y="419.890625"/>
</g>
<g style="fill:rgb(0%,0%,0%);fill-opacity:1;">
  <use xlink:href="#dVOwWwiC3-3" x="322.566406" y="419.890625"/>
</g>
<g style="fill:rgb(0%,0%,0%);fill-opacity:1;">
  <use xlink:href="#dVOwWwiC3-4" x="326.382812" y="419.890625"/>
</g>
<g style="fill:rgb(0%,0%,0%);fill-opacity:1;">
  <use xlink:href="#dVOwWwiC3-2" x="387.324219" y="419.890625"/>
</g>
<g style="fill:rgb(0%,0%,0%);fill-opacity:1;">
  <use xlink:href="#dVOwWwiC3-3" x="394.957031" y="419.890625"/>
</g>
<g style="fill:rgb(0%,0%,0%);fill-opacity:1;">
  <use xlink:href="#dVOwWwiC3-1" x="398.773438" y="419.890625"/>
</g>
<g style="fill:rgb(0%,0%,0%);fill-opacity:1;">
  <use xlink:href="#dVOwWwiC12-1" x="460.246094" y="419.890625"/>
</g>
<g style="fill:rgb(0%,0%,0%);fill-opacity:1;">
  <use xlink:href="#dVOwWwiC3-3" x="467.882812" y="419.890625"/>
</g>
<g style="fill:rgb(0%,0%,0%);fill-opacity:1;">
  <use xlink:href="#dVOwWwiC3-5" x="471.695312" y="419.890625"/>
</g>
<g style="fill:rgb(0%,0%,0%);fill-opacity:1;">
  <use xlink:href="#dVOwWwiC13-1" x="158.824219" y="23.136719"/>
</g>
<g style="fill:rgb(0%,0%,0%);fill-opacity:1;">
  <use xlink:href="#dVOwWwiC13-2" x="166.484375" y="23.136719"/>
</g>
<g style="fill:rgb(0%,0%,0%);fill-opacity:1;">
  <use xlink:href="#dVOwWwiC14-1" x="404.128906" y="23.136719"/>
</g>
<g style="fill:rgb(0%,0%,0%);fill-opacity:1;">
  <use xlink:href="#dVOwWwiC14-2" x="411.785156" y="23.136719"/>
</g>
<g style="fill:rgb(0%,0%,0%);fill-opacity:1;">
  <use xlink:href="#dVOwWwiC3-6" x="271.429688" y="435.171875"/>
</g>
<g style="fill:rgb(0%,0%,0%);fill-opacity:1;">
  <use xlink:href="#dVOwWwiC3-7" x="278.53125" y="435.171875"/>
</g>
<g style="fill:rgb(0%,0%,0%);fill-opacity:1;">
  <use xlink:href="#dVOwWwiC3-8" x="285.882812" y="435.171875"/>
</g>
<g style="fill:rgb(0%,0%,0%);fill-opacity:1;">
  <use xlink:href="#dVOwWwiC11-2" x="289.21875" y="435.171875"/>
</g>
<g style="fill:rgb(0%,0%,0%);fill-opacity:1;">
  <use xlink:href="#dVOwWwiC3-9" x="296.824219" y="435.171875"/>
</g>
<g clip-path="url(#clip1)" clip-rule="nonzero">
<path style="fill:none;stroke-width:1.5;stroke-linecap:butt;stroke-linejoin:miter;stroke:rgb(0%,44.705883%,69.803923%);stroke-opacity:1;stroke-miterlimit:10;" d="M 80.817708 513.411458 L 169.697917 513.411458 L 171.088542 513.40625 L 172.473958 513.40625 L 173.864583 513.385417 L 175.255208 513.307292 L 176.640625 513.114583 L 178.03125 512.796875 L 179.421875 512.453125 L 180.807292 512.208333 L 182.197917 512.026042 L 183.588542 511.734375 L 184.973958 511.182292 L 186.364583 510.244792 L 187.755208 509.026042 L 189.140625 507.958333 L 190.53125 507.276042 L 191.916667 506.40625 L 193.307292 504.484375 L 194.697917 501.333333 L 196.083333 497.494792 L 197.473958 493.697917 L 198.864583 490.229167 L 200.25 486.651042 L 201.640625 482.026042 L 203.03125 475.515625 L 204.416667 466.90625 L 205.807292 456.760417 L 207.197917 446.130208 L 208.583333 435.703125 L 209.973958 424.630208 L 211.359375 410.854167 L 212.75 393.567708 L 214.140625 374.260417 L 215.526042 354.380208 L 216.916667 333.510417 L 218.307292 311.109375 L 219.692708 288.348958 L 221.083333 266.583333 L 222.473958 245.151042 L 223.859375 222.885417 L 225.25 200.713542 L 226.640625 180.364583 L 228.026042 162.296875 L 229.416667 146.692708 L 230.802083 133.963542 L 232.192708 123.458333 L 233.583333 114.052083 L 234.96875 105.984375 L 236.359375 100.286458 L 237.75 96.630208 L 239.135417 93.338542 L 240.526042 89.875 L 241.916667 88.395833 L 243.302083 92.020833 L 244.692708 101.463542 L 246.083333 114.182292 L 247.46875 127.296875 L 248.859375 140.380208 L 250.244792 155.046875 L 251.635417 172.90625 L 253.026042 193.848958 L 254.411458 215.666667 L 255.802083 236.666667 L 257.192708 258.453125 L 258.578125 283.609375 L 259.96875 311.239583 L 261.359375 337.53125 L 262.744792 360.166667 L 264.135417 379.796875 L 265.526042 397.6875 L 266.911458 413.848958 L 268.302083 427.78125 L 269.6875 439.526042 L 271.078125 449.541667 L 272.46875 458.265625 L 273.854167 466.020833 L 275.244792 473.208333 L 276.635417 480.072917 L 278.020833 486.203125 L 279.411458 490.786458 L 280.802083 493.791667 L 282.1875 496.083333 L 283.578125 498.34375 L 284.96875 500.645833 L 286.354167 503.03125 L 287.744792 505.552083 L 289.130208 507.911458 L 290.520833 509.651042 L 291.911458 510.614583 L 293.296875 511.036458 L 294.6875 511.286458 L 296.078125 511.588542 L 297.463542 511.973958 L 298.854167 512.3125 L 300.244792 512.557292 L 301.630208 512.78125 L 303.020833 513.020833 L 304.40625 513.229167 L 305.796875 513.34375 L 307.1875 513.390625 L 308.572917 513.40625 L 309.963542 513.40625 L 311.354167 513.411458 L 357.182292 513.411458 " transform="matrix(0.75,0,0,0.75,0,0)"/>
</g>
<path style=" stroke:none;fill-rule:nonzero;fill:rgb(0%,44.705883%,69.803923%);fill-opacity:0.15;" d="M 60.613281 385.058594 L 127.273438 385.058594 L 128.316406 385.054688 L 129.355469 385.054688 L 130.398438 385.039062 L 131.441406 384.980469 L 132.480469 384.835938 L 133.523438 384.597656 L 134.566406 384.339844 L 135.605469 384.15625 L 136.648438 384.019531 L 137.691406 383.800781 L 138.730469 383.386719 L 139.773438 382.683594 L 140.816406 381.769531 L 141.855469 380.96875 L 142.898438 380.457031 L 143.9375 379.804688 L 144.980469 378.363281 L 146.023438 376 L 147.0625 373.121094 L 148.105469 370.273438 L 149.148438 367.671875 L 150.1875 364.988281 L 151.230469 361.519531 L 152.273438 356.636719 L 153.3125 350.179688 L 154.355469 342.570312 L 155.398438 334.597656 L 156.4375 326.777344 L 157.480469 318.472656 L 158.519531 308.140625 L 159.5625 295.175781 L 160.605469 280.695312 L 161.644531 265.785156 L 162.6875 250.132812 L 163.730469 233.332031 L 164.769531 216.261719 L 165.8125 199.9375 L 166.855469 183.863281 L 167.894531 167.164062 L 168.9375 150.535156 L 169.980469 135.273438 L 171.019531 121.722656 L 172.0625 110.019531 L 173.101562 100.472656 L 174.144531 92.59375 L 175.1875 85.539062 L 176.226562 79.488281 L 177.269531 75.214844 L 178.3125 72.472656 L 179.351562 70.003906 L 180.394531 67.40625 L 181.4375 66.296875 L 182.476562 69.015625 L 183.519531 76.097656 L 184.5625 85.636719 L 185.601562 95.472656 L 186.644531 105.285156 L 187.683594 116.285156 L 188.726562 129.679688 L 189.769531 145.386719 L 190.808594 161.75 L 191.851562 177.5 L 192.894531 193.839844 L 193.933594 212.707031 L 194.976562 233.429688 L 196.019531 253.148438 L 197.058594 270.125 L 198.101562 284.847656 L 199.144531 298.265625 L 200.183594 310.386719 L 201.226562 320.835938 L 202.265625 329.644531 L 203.308594 337.15625 L 204.351562 343.699219 L 205.390625 349.515625 L 206.433594 354.90625 L 207.476562 360.054688 L 208.515625 364.652344 L 209.558594 368.089844 L 210.601562 370.34375 L 211.640625 372.0625 L 212.683594 373.757812 L 213.726562 375.484375 L 214.765625 377.273438 L 215.808594 379.164062 L 216.847656 380.933594 L 217.890625 382.238281 L 218.933594 382.960938 L 219.972656 383.277344 L 221.015625 383.464844 L 222.058594 383.691406 L 223.097656 383.980469 L 224.140625 384.234375 L 225.183594 384.417969 L 226.222656 384.585938 L 227.265625 384.765625 L 228.304688 384.921875 L 229.347656 385.007812 L 230.390625 385.042969 L 231.429688 385.054688 L 232.472656 385.054688 L 233.515625 385.058594 L 267.886719 385.058594 Z M 60.613281 385.058594 "/>
<g clip-path="url(#clip2)" clip-rule="nonzero">
<path style="fill:none;stroke-width:1.5;stroke-linecap:butt;stroke-linejoin:miter;stroke:rgb(90.196079%,62.352943%,0%);stroke-opacity:1;stroke-miterlimit:10;" d="M 80.817708 513.411458 L 171.088542 513.411458 L 172.473958 513.40625 L 173.864583 513.401042 L 175.255208 513.369792 L 176.640625 513.265625 L 178.03125 513.026042 L 179.421875 512.661458 L 180.807292 512.307292 L 182.197917 512.114583 L 183.588542 512.026042 L 184.973958 511.822917 L 186.364583 511.40625 L 187.755208 510.828125 L 189.140625 510.036458 L 190.53125 508.916667 L 191.916667 507.557292 L 193.307292 506.114583 L 194.697917 504.364583 L 196.083333 501.520833 L 197.473958 496.776042 L 198.864583 490.3125 L 200.25 483.614583 L 201.640625 478.083333 L 203.03125 473.125 L 204.416667 466.489583 L 205.807292 456.953125 L 207.197917 445.442708 L 208.583333 432.75 L 209.973958 417.963542 L 211.359375 400.208333 L 212.75 380.588542 L 214.140625 361.140625 L 215.526042 342.677083 L 216.916667 324.760417 L 218.307292 307.291667 L 219.692708 290.927083 L 221.083333 275.765625 L 222.473958 260.182292 L 223.859375 241.401042 L 225.25 218.09375 L 226.640625 192.90625 L 228.026042 170.848958 L 229.416667 153.895833 L 230.802083 138.953125 L 232.192708 122.427083 L 233.583333 104.973958 L 234.96875 90.302083 L 236.359375 81.354167 L 237.75 78.963542 L 239.135417 82.348958 L 240.526042 89.958333 L 241.916667 99.78125 L 243.302083 109.088542 L 244.692708 115.526042 L 246.083333 119.859375 L 247.46875 126.765625 L 248.859375 140.770833 L 250.244792 161.640625 L 251.635417 185.010417 L 253.026042 206.697917 L 254.411458 225.640625 L 255.802083 243.96875 L 257.192708 264.161458 L 258.578125 286.114583 L 259.96875 307.958333 L 261.359375 328.947917 L 262.744792 349.578125 L 264.135417 369.567708 L 265.526042 387.46875 L 266.911458 402.484375 L 268.302083 415.34375 L 269.6875 427.135417 L 271.078125 438.333333 L 272.46875 449.21875 L 273.854167 460.026042 L 275.244792 470.369792 L 276.635417 479.489583 L 278.020833 487.03125 L 279.411458 493.046875 L 280.802083 497.708333 L 282.1875 501.359375 L 283.578125 504.322917 L 284.96875 506.588542 L 286.354167 508.041667 L 287.744792 508.869792 L 289.130208 509.458333 L 290.520833 510.09375 L 291.911458 510.875 L 293.296875 511.692708 L 294.6875 512.317708 L 296.078125 512.651042 L 297.463542 512.796875 L 298.854167 512.911458 L 300.244792 513.0625 L 301.630208 513.223958 L 303.020833 513.333333 L 304.40625 513.385417 L 305.796875 513.40625 L 307.1875 513.40625 L 308.572917 513.411458 L 357.182292 513.411458 " transform="matrix(0.75,0,0,0.75,0,0)"/>
</g>
<path style=" stroke:none;fill-rule:nonzero;fill:rgb(90.196079%,62.352943%,0%);fill-opacity:0.15;" d="M 60.613281 385.058594 L 128.316406 385.058594 L 129.355469 385.054688 L 130.398438 385.050781 L 131.441406 385.027344 L 132.480469 384.949219 L 133.523438 384.769531 L 134.566406 384.496094 L 135.605469 384.230469 L 136.648438 384.085938 L 137.691406 384.019531 L 138.730469 383.867188 L 139.773438 383.554688 L 140.816406 383.121094 L 141.855469 382.527344 L 142.898438 381.6875 L 143.9375 380.667969 L 144.980469 379.585938 L 146.023438 378.273438 L 147.0625 376.140625 L 148.105469 372.582031 L 149.148438 367.734375 L 150.1875 362.710938 L 151.230469 358.5625 L 152.273438 354.84375 L 153.3125 349.867188 L 154.355469 342.714844 L 155.398438 334.082031 L 156.4375 324.5625 L 157.480469 313.472656 L 158.519531 300.15625 L 159.5625 285.441406 L 160.605469 270.855469 L 161.644531 257.007812 L 162.6875 243.570312 L 163.730469 230.46875 L 164.769531 218.195312 L 165.8125 206.824219 L 166.855469 195.136719 L 167.894531 181.050781 L 168.9375 163.570312 L 169.980469 144.679688 L 171.019531 128.136719 L 172.0625 115.421875 L 173.101562 104.214844 L 174.144531 91.820312 L 175.1875 78.730469 L 176.226562 67.726562 L 177.269531 61.015625 L 178.3125 59.222656 L 179.351562 61.761719 L 180.394531 67.46875 L 181.4375 74.835938 L 182.476562 81.816406 L 183.519531 86.644531 L 184.5625 89.894531 L 185.601562 95.074219 L 186.644531 105.578125 L 187.683594 121.230469 L 188.726562 138.757812 L 189.769531 155.023438 L 190.808594 169.230469 L 191.851562 182.976562 L 192.894531 198.121094 L 193.933594 214.585938 L 194.976562 230.96875 L 196.019531 246.710938 L 197.058594 262.183594 L 198.101562 277.175781 L 199.144531 290.601562 L 200.183594 301.863281 L 201.226562 311.507812 L 202.265625 320.351562 L 203.308594 328.75 L 204.351562 336.914062 L 205.390625 345.019531 L 206.433594 352.777344 L 207.476562 359.617188 L 208.515625 365.273438 L 209.558594 369.785156 L 210.601562 373.28125 L 211.640625 376.019531 L 212.683594 378.242188 L 213.726562 379.941406 L 214.765625 381.03125 L 215.808594 381.652344 L 216.847656 382.09375 L 217.890625 382.570312 L 218.933594 383.15625 L 219.972656 383.769531 L 221.015625 384.238281 L 222.058594 384.488281 L 223.097656 384.597656 L 224.140625 384.683594 L 225.183594 384.796875 L 226.222656 384.917969 L 227.265625 385 L 228.304688 385.039062 L 229.347656 385.054688 L 230.390625 385.054688 L 231.429688 385.058594 L 267.886719 385.058594 Z M 60.613281 385.058594 "/>
<g clip-path="url(#clip3)" clip-rule="nonzero">
<path style="fill:none;stroke-width:1.5;stroke-linecap:butt;stroke-linejoin:miter;stroke:rgb(0%,61.960787%,45.09804%);stroke-opacity:1;stroke-miterlimit:10;" d="M 80.817708 513.411458 L 166.921875 513.411458 L 168.3125 513.40625 L 169.697917 513.40625 L 171.088542 513.385417 L 172.473958 513.3125 L 173.864583 513.15625 L 175.255208 512.9375 L 176.640625 512.776042 L 178.03125 512.760417 L 179.421875 512.770833 L 180.807292 512.5625 L 182.197917 511.973958 L 183.588542 511.083333 L 184.973958 510.166667 L 186.364583 509.520833 L 187.755208 509.177083 L 189.140625 508.838542 L 190.53125 508.046875 L 191.916667 506.359375 L 193.307292 503.510417 L 194.697917 499.697917 L 196.083333 495.614583 L 197.473958 492.046875 L 198.864583 489.151042 L 200.25 486.052083 L 201.640625 481.473958 L 203.03125 475.130208 L 204.416667 467.958333 L 205.807292 460.239583 L 207.197917 450.78125 L 208.583333 439.166667 L 209.973958 426.817708 L 211.359375 414.385417 L 212.75 400.140625 L 214.140625 382.364583 L 215.526042 361.817708 L 216.916667 340.71875 L 218.307292 320.125 L 219.692708 299.401042 L 221.083333 277.614583 L 222.473958 254.177083 L 223.859375 228.958333 L 225.25 203.328125 L 226.640625 179.869792 L 228.026042 159.645833 L 229.416667 140.588542 L 230.802083 120.114583 L 232.192708 98.9375 L 233.583333 80.661458 L 234.96875 68.213542 L 236.359375 62.197917 L 237.75 61.588542 L 239.135417 64.947917 L 240.526042 71.421875 L 241.916667 80.890625 L 243.302083 93.276042 L 244.692708 108.463542 L 246.083333 126.244792 L 247.46875 145.166667 L 248.859375 162.84375 L 250.244792 178.552083 L 251.635417 194.182292 L 253.026042 211.552083 L 254.411458 230.239583 L 255.802083 249.182292 L 257.192708 268.979167 L 258.578125 291.125 L 259.96875 315.395833 L 261.359375 339.067708 L 262.744792 359.052083 L 264.135417 375.104167 L 265.526042 390.28125 L 266.911458 407.296875 L 268.302083 425.151042 L 269.6875 440.401042 L 271.078125 451.041667 L 272.46875 458.114583 L 273.854167 464.067708 L 275.244792 470.234375 L 276.635417 476.364583 L 278.020833 482.25 L 279.411458 488.244792 L 280.802083 494.15625 L 282.1875 499.161458 L 283.578125 502.776042 L 284.96875 505.192708 L 286.354167 506.901042 L 287.744792 508.192708 L 289.130208 509.0625 L 290.520833 509.489583 L 291.911458 509.697917 L 293.296875 510.067708 L 294.6875 510.786458 L 296.078125 511.713542 L 297.463542 512.53125 L 298.854167 513.052083 L 300.244792 513.296875 L 301.630208 513.385417 L 303.020833 513.40625 L 304.40625 513.40625 L 305.796875 513.411458 L 357.182292 513.411458 " transform="matrix(0.75,0,0,0.75,0,0)"/>
</g>
<path style=" stroke:none;fill-rule:nonzero;fill:rgb(0%,61.960787%,45.09804%);fill-opacity:0.15;" d="M 60.613281 385.058594 L 125.191406 385.058594 L 126.234375 385.054688 L 127.273438 385.054688 L 128.316406 385.039062 L 129.355469 384.984375 L 130.398438 384.867188 L 131.441406 384.703125 L 132.480469 384.582031 L 133.523438 384.570312 L 134.566406 384.578125 L 135.605469 384.421875 L 136.648438 383.980469 L 137.691406 383.3125 L 138.730469 382.625 L 139.773438 382.140625 L 140.816406 381.882812 L 141.855469 381.628906 L 142.898438 381.035156 L 143.9375 379.769531 L 144.980469 377.632812 L 146.023438 374.773438 L 147.0625 371.710938 L 148.105469 369.035156 L 149.148438 366.863281 L 150.1875 364.539062 L 151.230469 361.105469 L 152.273438 356.347656 L 153.3125 350.96875 L 154.355469 345.179688 L 155.398438 338.085938 L 156.4375 329.375 L 157.480469 320.113281 L 158.519531 310.789062 L 159.5625 300.105469 L 160.605469 286.773438 L 161.644531 271.363281 L 162.6875 255.539062 L 163.730469 240.09375 L 164.769531 224.550781 L 165.8125 208.210938 L 166.855469 190.632812 L 167.894531 171.71875 L 168.9375 152.496094 L 169.980469 134.902344 L 171.019531 119.734375 L 172.0625 105.441406 L 173.101562 90.085938 L 174.144531 74.203125 L 175.1875 60.496094 L 176.226562 51.160156 L 177.269531 46.648438 L 178.3125 46.191406 L 179.351562 48.710938 L 180.394531 53.566406 L 181.4375 60.667969 L 182.476562 69.957031 L 183.519531 81.347656 L 184.5625 94.683594 L 185.601562 108.875 L 186.644531 122.132812 L 187.683594 133.914062 L 188.726562 145.636719 L 189.769531 158.664062 L 190.808594 172.679688 L 191.851562 186.886719 L 192.894531 201.734375 L 193.933594 218.34375 L 194.976562 236.546875 L 196.019531 254.300781 L 197.058594 269.289062 L 198.101562 281.328125 L 199.144531 292.710938 L 200.183594 305.472656 L 201.226562 318.863281 L 202.265625 330.300781 L 203.308594 338.28125 L 204.351562 343.585938 L 205.390625 348.050781 L 206.433594 352.675781 L 207.476562 357.273438 L 208.515625 361.6875 L 209.558594 366.183594 L 210.601562 370.617188 L 211.640625 374.371094 L 212.683594 377.082031 L 213.726562 378.894531 L 214.765625 380.175781 L 215.808594 381.144531 L 216.847656 381.796875 L 217.890625 382.117188 L 218.933594 382.273438 L 219.972656 382.550781 L 221.015625 383.089844 L 222.058594 383.785156 L 223.097656 384.398438 L 224.140625 384.789062 L 225.183594 384.972656 L 226.222656 385.039062 L 227.265625 385.054688 L 228.304688 385.054688 L 229.347656 385.058594 L 267.886719 385.058594 Z M 60.613281 385.058594 "/>
<g clip-path="url(#clip4)" clip-rule="nonzero">
<path style="fill:none;stroke-width:1.5;stroke-linecap:butt;stroke-linejoin:miter;stroke:rgb(0%,44.705883%,69.803923%);stroke-opacity:1;stroke-miterlimit:10;" d="M 408.817708 513.151042 L 410.208333 513.130208 L 411.59375 513.125 L 412.984375 513.145833 L 414.375 513.177083 L 415.760417 513.223958 L 418.541667 513.307292 L 419.927083 513.333333 L 421.317708 513.34375 L 422.708333 513.333333 L 424.09375 513.291667 L 425.484375 513.223958 L 426.869792 513.114583 L 428.260417 512.958333 L 429.651042 512.755208 L 431.036458 512.515625 L 433.817708 511.994792 L 435.203125 511.760417 L 436.59375 511.578125 L 437.984375 511.453125 L 439.369792 511.385417 L 440.760417 511.359375 L 442.145833 511.348958 L 443.536458 511.328125 L 444.927083 511.28125 L 446.3125 511.1875 L 447.703125 511.046875 L 449.09375 510.84375 L 450.479167 510.578125 L 451.869792 510.255208 L 453.260417 509.875 L 454.645833 509.447917 L 456.036458 508.989583 L 457.427083 508.5 L 458.8125 507.963542 L 460.203125 507.359375 L 461.588542 506.640625 L 462.979167 505.755208 L 464.369792 504.666667 L 465.755208 503.359375 L 467.145833 501.859375 L 468.536458 500.239583 L 469.921875 498.588542 L 471.3125 497.005208 L 472.703125 495.552083 L 474.088542 494.260417 L 475.479167 493.088542 L 476.869792 491.953125 L 478.255208 490.734375 L 479.645833 489.317708 L 481.03125 487.619792 L 482.421875 485.598958 L 483.8125 483.270833 L 485.197917 480.671875 L 486.588542 477.875 L 487.979167 474.947917 L 489.364583 471.963542 L 490.755208 468.963542 L 492.145833 466.010417 L 493.53125 463.125 L 494.921875 460.3125 L 496.3125 457.5625 L 497.697917 454.796875 L 499.088542 451.921875 L 500.473958 448.807292 L 501.864583 445.322917 L 503.255208 441.359375 L 504.640625 436.864583 L 506.03125 431.822917 L 507.421875 426.302083 L 508.807292 420.416667 L 510.197917 414.338542 L 511.588542 408.25 L 512.973958 402.317708 L 514.364583 396.625 L 515.755208 391.171875 L 517.140625 385.885417 L 518.53125 380.682292 L 519.916667 375.510417 L 521.307292 370.401042 L 522.697917 365.442708 L 524.083333 360.755208 L 525.473958 356.421875 L 526.864583 352.432292 L 528.25 348.723958 L 529.640625 345.197917 L 531.03125 341.791667 L 532.416667 338.515625 L 533.807292 335.453125 L 535.197917 332.692708 L 536.583333 330.296875 L 537.973958 328.223958 L 539.359375 326.380208 L 540.75 324.614583 L 542.140625 322.828125 L 543.526042 321 L 544.916667 319.192708 L 546.307292 317.5 L 547.692708 316.026042 L 549.083333 314.802083 L 550.473958 313.828125 L 551.859375 313.078125 L 553.25 312.552083 L 554.640625 312.302083 L 556.026042 312.401042 L 557.416667 312.911458 L 558.802083 313.828125 L 560.192708 315.0625 L 561.583333 316.479167 L 562.96875 317.916667 L 564.359375 319.296875 L 565.75 320.619792 L 567.135417 322.010417 L 568.526042 323.666667 L 569.916667 325.8125 L 571.302083 328.666667 L 572.692708 332.364583 L 574.083333 336.942708 L 575.46875 342.3125 L 576.859375 348.270833 L 578.244792 354.536458 L 579.635417 360.833333 L 581.026042 366.932292 L 582.411458 372.703125 L 583.802083 378.140625 L 585.192708 383.322917 L 586.578125 388.364583 L 587.96875 393.359375 L 589.359375 398.338542 L 590.744792 403.276042 L 592.135417 408.109375 L 593.526042 412.776042 L 594.911458 417.260417 L 596.302083 421.557292 L 597.6875 425.692708 L 599.078125 429.692708 L 600.46875 433.572917 L 601.854167 437.34375 L 603.244792 441.015625 L 604.635417 444.614583 L 606.020833 448.15625 L 607.411458 451.640625 L 608.802083 455.041667 L 610.1875 458.328125 L 611.578125 461.473958 L 612.96875 464.463542 L 614.354167 467.333333 L 615.744792 470.125 L 617.130208 472.885417 L 618.520833 475.630208 L 619.911458 478.34375 L 621.296875 480.979167 L 622.6875 483.494792 L 624.078125 485.848958 L 625.463542 488.036458 L 626.854167 490.078125 L 628.244792 491.989583 L 629.630208 493.802083 L 631.020833 495.526042 L 632.40625 497.15625 L 633.796875 498.6875 L 635.1875 500.104167 L 636.572917 501.380208 L 637.963542 502.510417 L 639.354167 503.479167 L 640.739583 504.302083 L 642.130208 505.010417 L 643.520833 505.65625 L 644.90625 506.28125 L 646.296875 506.927083 L 647.6875 507.59375 L 649.072917 508.270833 L 650.463542 508.932292 L 651.848958 509.536458 L 653.239583 510.067708 L 654.630208 510.505208 L 656.015625 510.859375 L 657.40625 511.140625 L 658.796875 511.369792 L 660.182292 511.5625 L 661.572917 511.729167 L 662.963542 511.880208 L 664.348958 512.020833 L 665.739583 512.151042 L 667.130208 512.270833 L 668.515625 512.385417 L 669.90625 512.494792 L 671.291667 512.609375 L 672.682292 512.71875 L 674.072917 512.817708 L 675.458333 512.90625 L 676.848958 512.96875 L 678.239583 513.005208 L 679.625 513.010417 L 681.015625 512.994792 L 682.40625 512.973958 L 683.791667 512.958333 L 685.182292 512.963542 " transform="matrix(0.75,0,0,0.75,0,0)"/>
</g>
<path style=" stroke:none;fill-rule:nonzero;fill:rgb(0%,44.705883%,69.803923%);fill-opacity:0.15;" d="M 306.613281 384.863281 L 307.65625 384.847656 L 308.695312 384.84375 L 309.738281 384.859375 L 310.78125 384.882812 L 311.820312 384.917969 L 313.90625 384.980469 L 314.945312 385 L 315.988281 385.007812 L 317.03125 385 L 318.070312 384.96875 L 319.113281 384.917969 L 320.152344 384.835938 L 321.195312 384.71875 L 322.238281 384.566406 L 323.277344 384.386719 L 325.363281 383.996094 L 326.402344 383.820312 L 327.445312 383.683594 L 328.488281 383.589844 L 329.527344 383.539062 L 330.570312 383.519531 L 331.609375 383.511719 L 332.652344 383.496094 L 333.695312 383.460938 L 334.734375 383.390625 L 335.777344 383.285156 L 336.820312 383.132812 L 337.859375 382.933594 L 338.902344 382.691406 L 339.945312 382.40625 L 340.984375 382.085938 L 342.027344 381.742188 L 343.070312 381.375 L 344.109375 380.972656 L 345.152344 380.519531 L 346.191406 379.980469 L 347.234375 379.316406 L 348.277344 378.5 L 349.316406 377.519531 L 350.359375 376.394531 L 351.402344 375.179688 L 352.441406 373.941406 L 353.484375 372.753906 L 354.527344 371.664062 L 355.566406 370.695312 L 356.609375 369.816406 L 357.652344 368.964844 L 358.691406 368.050781 L 359.734375 366.988281 L 360.773438 365.714844 L 361.816406 364.199219 L 362.859375 362.453125 L 363.898438 360.503906 L 364.941406 358.40625 L 365.984375 356.210938 L 367.023438 353.972656 L 368.066406 351.722656 L 369.109375 349.507812 L 370.148438 347.34375 L 371.191406 345.234375 L 372.234375 343.171875 L 373.273438 341.097656 L 374.316406 338.941406 L 375.355469 336.605469 L 376.398438 333.992188 L 377.441406 331.019531 L 378.480469 327.648438 L 379.523438 323.867188 L 380.566406 319.726562 L 381.605469 315.3125 L 382.648438 310.753906 L 383.691406 306.1875 L 384.730469 301.738281 L 385.773438 297.46875 L 386.816406 293.378906 L 387.855469 289.414062 L 388.898438 285.511719 L 389.9375 281.632812 L 390.980469 277.800781 L 392.023438 274.082031 L 393.0625 270.566406 L 394.105469 267.316406 L 395.148438 264.324219 L 396.1875 261.542969 L 397.230469 258.898438 L 398.273438 256.34375 L 399.3125 253.886719 L 400.355469 251.589844 L 401.398438 249.519531 L 402.4375 247.722656 L 403.480469 246.167969 L 404.519531 244.785156 L 405.5625 243.460938 L 406.605469 242.121094 L 407.644531 240.75 L 408.6875 239.394531 L 409.730469 238.125 L 410.769531 237.019531 L 411.8125 236.101562 L 412.855469 235.371094 L 413.894531 234.808594 L 414.9375 234.414062 L 415.980469 234.226562 L 417.019531 234.300781 L 418.0625 234.683594 L 419.101562 235.371094 L 420.144531 236.296875 L 421.1875 237.359375 L 422.226562 238.4375 L 423.269531 239.472656 L 424.3125 240.464844 L 425.351562 241.507812 L 426.394531 242.75 L 427.4375 244.359375 L 428.476562 246.5 L 429.519531 249.273438 L 430.5625 252.707031 L 431.601562 256.734375 L 432.644531 261.203125 L 433.683594 265.902344 L 434.726562 270.625 L 435.769531 275.199219 L 436.808594 279.527344 L 437.851562 283.605469 L 438.894531 287.492188 L 439.933594 291.273438 L 440.976562 295.019531 L 442.019531 298.753906 L 443.058594 302.457031 L 444.101562 306.082031 L 445.144531 309.582031 L 446.183594 312.945312 L 447.226562 316.167969 L 448.265625 319.269531 L 449.308594 322.269531 L 450.351562 325.179688 L 451.390625 328.007812 L 452.433594 330.761719 L 453.476562 333.460938 L 454.515625 336.117188 L 455.558594 338.730469 L 456.601562 341.28125 L 457.640625 343.746094 L 458.683594 346.105469 L 459.726562 348.347656 L 460.765625 350.5 L 461.808594 352.59375 L 462.847656 354.664062 L 463.890625 356.722656 L 464.933594 358.757812 L 465.972656 360.734375 L 467.015625 362.621094 L 468.058594 364.386719 L 469.097656 366.027344 L 470.140625 367.558594 L 471.183594 368.992188 L 472.222656 370.351562 L 473.265625 371.644531 L 474.304688 372.867188 L 475.347656 374.015625 L 476.390625 375.078125 L 477.429688 376.035156 L 478.472656 376.882812 L 479.515625 377.609375 L 480.554688 378.226562 L 481.597656 378.757812 L 482.640625 379.242188 L 483.679688 379.710938 L 484.722656 380.195312 L 485.765625 380.695312 L 486.804688 381.203125 L 487.847656 381.699219 L 488.886719 382.152344 L 489.929688 382.550781 L 490.972656 382.878906 L 492.011719 383.144531 L 493.054688 383.355469 L 494.097656 383.527344 L 495.136719 383.671875 L 496.179688 383.796875 L 497.222656 383.910156 L 498.261719 384.015625 L 499.304688 384.113281 L 500.347656 384.203125 L 501.386719 384.289062 L 502.429688 384.371094 L 503.46875 384.457031 L 504.511719 384.539062 L 505.554688 384.613281 L 506.59375 384.679688 L 507.636719 384.726562 L 508.679688 384.753906 L 509.71875 384.757812 L 510.761719 384.746094 L 511.804688 384.730469 L 512.84375 384.71875 L 513.886719 384.722656 L 513.886719 385.058594 L 306.613281 385.058594 Z M 306.613281 384.863281 "/>
<g clip-path="url(#clip5)" clip-rule="nonzero">
<path style="fill:none;stroke-width:1.5;stroke-linecap:butt;stroke-linejoin:miter;stroke:rgb(90.196079%,62.352943%,0%);stroke-opacity:1;stroke-miterlimit:10;" d="M 408.817708 513.234375 L 410.208333 513.223958 L 411.59375 513.21875 L 412.984375 513.213542 L 414.375 513.213542 L 415.760417 513.21875 L 417.151042 513.229167 L 418.541667 513.244792 L 419.927083 513.265625 L 421.317708 513.286458 L 422.708333 513.3125 L 424.09375 513.338542 L 425.484375 513.348958 L 426.869792 513.354167 L 428.260417 513.348958 L 429.651042 513.328125 L 431.036458 513.291667 L 432.427083 513.25 L 433.817708 513.1875 L 435.203125 513.109375 L 436.59375 513.010417 L 437.984375 512.890625 L 439.369792 512.739583 L 440.760417 512.557292 L 442.145833 512.359375 L 443.536458 512.140625 L 444.927083 511.911458 L 446.3125 511.671875 L 447.703125 511.427083 L 449.09375 511.15625 L 450.479167 510.854167 L 451.869792 510.5 L 453.260417 510.078125 L 454.645833 509.5625 L 456.036458 508.953125 L 457.427083 508.255208 L 458.8125 507.473958 L 460.203125 506.640625 L 461.588542 505.78125 L 462.979167 504.901042 L 464.369792 504 L 465.755208 503.072917 L 467.145833 502.09375 L 468.536458 501.0625 L 469.921875 499.963542 L 471.3125 498.796875 L 472.703125 497.557292 L 474.088542 496.213542 L 475.479167 494.760417 L 476.869792 493.182292 L 478.255208 491.46875 L 479.645833 489.619792 L 481.03125 487.625 L 482.421875 485.458333 L 483.8125 483.098958 L 485.197917 480.53125 L 486.588542 477.75 L 487.979167 474.786458 L 489.364583 471.703125 L 490.755208 468.5625 L 492.145833 465.442708 L 493.53125 462.40625 L 494.921875 459.484375 L 496.3125 456.666667 L 497.697917 453.880208 L 499.088542 451.026042 L 500.473958 448 L 501.864583 444.708333 L 503.255208 441.104167 L 504.640625 437.1875 L 506.03125 432.979167 L 507.421875 428.510417 L 508.807292 423.802083 L 510.197917 418.838542 L 511.588542 413.59375 L 512.973958 408.026042 L 514.364583 402.135417 L 515.755208 395.979167 L 517.140625 389.697917 L 518.53125 383.489583 L 519.916667 377.572917 L 521.307292 372.072917 L 522.697917 367.010417 L 524.083333 362.234375 L 525.473958 357.520833 L 526.864583 352.630208 L 528.25 347.4375 L 529.640625 341.994792 L 531.03125 336.520833 L 532.416667 331.354167 L 533.807292 326.854167 L 535.197917 323.270833 L 536.583333 320.666667 L 537.973958 318.885417 L 539.359375 317.604167 L 540.75 316.40625 L 542.140625 314.942708 L 543.526042 313.036458 L 544.916667 310.723958 L 546.307292 308.213542 L 547.692708 305.807292 L 549.083333 303.802083 L 550.473958 302.447917 L 551.859375 301.890625 L 553.25 302.21875 L 554.640625 303.411458 L 556.026042 305.380208 L 557.416667 307.921875 L 558.802083 310.786458 L 560.192708 313.697917 L 561.583333 316.432292 L 562.96875 318.869792 L 564.359375 321.015625 L 565.75 323 L 567.135417 325.041667 L 568.526042 327.395833 L 569.916667 330.270833 L 571.302083 333.791667 L 572.692708 337.963542 L 574.083333 342.6875 L 575.46875 347.796875 L 576.859375 353.104167 L 578.244792 358.458333 L 579.635417 363.755208 L 581.026042 368.96875 L 582.411458 374.114583 L 583.802083 379.255208 L 585.192708 384.447917 L 586.578125 389.78125 L 587.96875 395.291667 L 589.359375 400.963542 L 590.744792 406.692708 L 592.135417 412.286458 L 593.526042 417.520833 L 594.911458 422.208333 L 596.302083 426.260417 L 597.6875 429.713542 L 599.078125 432.708333 L 600.46875 435.4375 L 601.854167 438.078125 L 603.244792 440.770833 L 604.635417 443.588542 L 606.020833 446.588542 L 607.411458 449.776042 L 608.802083 453.130208 L 610.1875 456.59375 L 611.578125 460.098958 L 612.96875 463.578125 L 614.354167 466.984375 L 615.744792 470.286458 L 617.130208 473.484375 L 618.520833 476.5625 L 619.911458 479.494792 L 621.296875 482.244792 L 622.6875 484.776042 L 624.078125 487.078125 L 625.463542 489.171875 L 626.854167 491.098958 L 628.244792 492.901042 L 629.630208 494.619792 L 631.020833 496.28125 L 632.40625 497.895833 L 633.796875 499.458333 L 635.1875 500.947917 L 636.572917 502.348958 L 637.963542 503.640625 L 639.354167 504.807292 L 640.739583 505.854167 L 642.130208 506.791667 L 643.520833 507.625 L 644.90625 508.354167 L 646.296875 508.984375 L 647.6875 509.505208 L 649.072917 509.90625 L 650.463542 510.197917 L 651.848958 510.401042 L 653.239583 510.546875 L 654.630208 510.677083 L 656.015625 510.838542 L 657.40625 511.041667 L 658.796875 511.291667 L 660.182292 511.572917 L 661.572917 511.848958 L 662.963542 512.09375 L 664.348958 512.291667 L 665.739583 512.4375 L 667.130208 512.536458 L 668.515625 512.604167 L 669.90625 512.65625 L 671.291667 512.71875 L 672.682292 512.791667 L 674.072917 512.875 L 675.458333 512.973958 L 676.848958 513.072917 L 678.239583 513.166667 L 679.625 513.244792 L 681.015625 513.302083 L 682.40625 513.348958 L 683.791667 513.375 L 685.182292 513.390625 " transform="matrix(0.75,0,0,0.75,0,0)"/>
</g>
<path style=" stroke:none;fill-rule:nonzero;fill:rgb(90.196079%,62.352943%,0%);fill-opacity:0.15;" d="M 306.613281 384.925781 L 307.65625 384.917969 L 308.695312 384.914062 L 309.738281 384.910156 L 310.78125 384.910156 L 311.820312 384.914062 L 312.863281 384.921875 L 313.90625 384.933594 L 314.945312 384.949219 L 315.988281 384.964844 L 317.03125 384.984375 L 318.070312 385.003906 L 319.113281 385.011719 L 320.152344 385.015625 L 321.195312 385.011719 L 322.238281 384.996094 L 323.277344 384.96875 L 324.320312 384.9375 L 325.363281 384.890625 L 326.402344 384.832031 L 327.445312 384.757812 L 328.488281 384.667969 L 329.527344 384.554688 L 330.570312 384.417969 L 331.609375 384.269531 L 332.652344 384.105469 L 333.695312 383.933594 L 334.734375 383.753906 L 335.777344 383.570312 L 336.820312 383.367188 L 337.859375 383.140625 L 338.902344 382.875 L 339.945312 382.558594 L 340.984375 382.171875 L 342.027344 381.714844 L 343.070312 381.191406 L 344.109375 380.605469 L 345.152344 379.980469 L 346.191406 379.335938 L 347.234375 378.675781 L 348.277344 378 L 349.316406 377.304688 L 350.359375 376.570312 L 351.402344 375.796875 L 352.441406 374.972656 L 353.484375 374.097656 L 354.527344 373.167969 L 355.566406 372.160156 L 356.609375 371.070312 L 357.652344 369.886719 L 358.691406 368.601562 L 359.734375 367.214844 L 360.773438 365.71875 L 361.816406 364.09375 L 362.859375 362.324219 L 363.898438 360.398438 L 364.941406 358.3125 L 365.984375 356.089844 L 367.023438 353.777344 L 368.066406 351.421875 L 369.109375 349.082031 L 370.148438 346.804688 L 371.191406 344.613281 L 372.234375 342.5 L 373.273438 340.410156 L 374.316406 338.269531 L 375.355469 336 L 376.398438 333.53125 L 377.441406 330.828125 L 378.480469 327.890625 L 379.523438 324.734375 L 380.566406 321.382812 L 381.605469 317.851562 L 382.648438 314.128906 L 383.691406 310.195312 L 384.730469 306.019531 L 385.773438 301.601562 L 386.816406 296.984375 L 387.855469 292.273438 L 388.898438 287.617188 L 389.9375 283.179688 L 390.980469 279.054688 L 392.023438 275.257812 L 393.0625 271.675781 L 394.105469 268.140625 L 395.148438 264.472656 L 396.1875 260.578125 L 397.230469 256.496094 L 398.273438 252.390625 L 399.3125 248.515625 L 400.355469 245.140625 L 401.398438 242.453125 L 402.4375 240.5 L 403.480469 239.164062 L 404.519531 238.203125 L 405.5625 237.304688 L 406.605469 236.207031 L 407.644531 234.777344 L 408.6875 233.042969 L 409.730469 231.160156 L 410.769531 229.355469 L 411.8125 227.851562 L 412.855469 226.835938 L 413.894531 226.417969 L 414.9375 226.664062 L 415.980469 227.558594 L 417.019531 229.035156 L 418.0625 230.941406 L 419.101562 233.089844 L 420.144531 235.273438 L 421.1875 237.324219 L 422.226562 239.152344 L 423.269531 240.761719 L 424.3125 242.25 L 425.351562 243.78125 L 426.394531 245.546875 L 427.4375 247.703125 L 428.476562 250.34375 L 429.519531 253.472656 L 430.5625 257.015625 L 431.601562 260.847656 L 432.644531 264.828125 L 433.683594 268.84375 L 434.726562 272.816406 L 435.769531 276.726562 L 436.808594 280.585938 L 437.851562 284.441406 L 438.894531 288.335938 L 439.933594 292.335938 L 440.976562 296.46875 L 442.019531 300.722656 L 443.058594 305.019531 L 444.101562 309.214844 L 445.144531 313.140625 L 446.183594 316.65625 L 447.226562 319.695312 L 448.265625 322.285156 L 449.308594 324.53125 L 450.351562 326.578125 L 451.390625 328.558594 L 452.433594 330.578125 L 453.476562 332.691406 L 454.515625 334.941406 L 455.558594 337.332031 L 456.601562 339.847656 L 457.640625 342.445312 L 458.683594 345.074219 L 459.726562 347.683594 L 460.765625 350.238281 L 461.808594 352.714844 L 462.847656 355.113281 L 463.890625 357.421875 L 464.933594 359.621094 L 465.972656 361.683594 L 467.015625 363.582031 L 468.058594 365.308594 L 469.097656 366.878906 L 470.140625 368.324219 L 471.183594 369.675781 L 472.222656 370.964844 L 473.265625 372.210938 L 474.304688 373.421875 L 475.347656 374.59375 L 476.390625 375.710938 L 477.429688 376.761719 L 478.472656 377.730469 L 479.515625 378.605469 L 480.554688 379.390625 L 481.597656 380.09375 L 482.640625 380.71875 L 483.679688 381.265625 L 484.722656 381.738281 L 485.765625 382.128906 L 486.804688 382.429688 L 487.847656 382.648438 L 488.886719 382.800781 L 489.929688 382.910156 L 490.972656 383.007812 L 492.011719 383.128906 L 493.054688 383.28125 L 494.097656 383.46875 L 495.136719 383.679688 L 496.179688 383.886719 L 497.222656 384.070312 L 498.261719 384.21875 L 499.304688 384.328125 L 500.347656 384.402344 L 501.386719 384.453125 L 502.429688 384.492188 L 503.46875 384.539062 L 504.511719 384.59375 L 505.554688 384.65625 L 506.59375 384.730469 L 507.636719 384.804688 L 508.679688 384.875 L 509.71875 384.933594 L 510.761719 384.976562 L 511.804688 385.011719 L 512.84375 385.03125 L 513.886719 385.042969 L 513.886719 385.058594 L 306.613281 385.058594 Z M 306.613281 384.925781 "/>
<g clip-path="url(#clip6)" clip-rule="nonzero">
<path style="fill:none;stroke-width:1.5;stroke-linecap:butt;stroke-linejoin:miter;stroke:rgb(0%,61.960787%,45.09804%);stroke-opacity:1;stroke-miterlimit:10;" d="M 408.817708 513.40625 L 410.208333 513.401042 L 411.59375 513.390625 L 412.984375 513.375 L 414.375 513.348958 L 415.760417 513.3125 L 417.151042 513.260417 L 418.541667 513.192708 L 419.927083 513.109375 L 421.317708 513.020833 L 422.708333 512.921875 L 424.09375 512.822917 L 425.484375 512.71875 L 426.869792 512.619792 L 428.260417 512.526042 L 429.651042 512.427083 L 431.036458 512.322917 L 432.427083 512.208333 L 433.817708 512.083333 L 435.203125 511.953125 L 436.59375 511.828125 L 437.984375 511.71875 L 439.369792 511.625 L 440.760417 511.546875 L 442.145833 511.473958 L 443.536458 511.390625 L 444.927083 511.286458 L 446.3125 511.145833 L 447.703125 510.963542 L 449.09375 510.729167 L 450.479167 510.4375 L 451.869792 510.083333 L 453.260417 509.640625 L 454.645833 509.09375 L 456.036458 508.411458 L 457.427083 507.578125 L 458.8125 506.578125 L 460.203125 505.427083 L 461.588542 504.151042 L 462.979167 502.802083 L 464.369792 501.421875 L 465.755208 500.067708 L 467.145833 498.744792 L 468.536458 497.458333 L 469.921875 496.171875 L 471.3125 494.859375 L 472.703125 493.489583 L 474.088542 492.046875 L 475.479167 490.53125 L 476.869792 488.921875 L 478.255208 487.203125 L 479.645833 485.328125 L 481.03125 483.260417 L 482.421875 480.973958 L 483.8125 478.458333 L 485.197917 475.744792 L 486.588542 472.895833 L 487.979167 469.963542 L 489.364583 467 L 490.755208 464.041667 L 492.145833 461.072917 L 493.53125 458.078125 L 494.921875 455.015625 L 496.3125 451.859375 L 497.697917 448.598958 L 499.088542 445.244792 L 500.473958 441.817708 L 501.864583 438.307292 L 503.255208 434.703125 L 504.640625 430.9375 L 506.03125 426.947917 L 507.421875 422.635417 L 508.807292 417.9375 L 510.197917 412.802083 L 511.588542 407.203125 L 512.973958 401.177083 L 514.364583 394.796875 L 515.755208 388.192708 L 517.140625 381.572917 L 518.53125 375.177083 L 519.916667 369.265625 L 521.307292 364.041667 L 522.697917 359.619792 L 524.083333 356 L 525.473958 353.046875 L 526.864583 350.552083 L 528.25 348.270833 L 529.640625 346 L 531.03125 343.59375 L 532.416667 341 L 533.807292 338.244792 L 535.197917 335.421875 L 536.583333 332.640625 L 537.973958 330.015625 L 539.359375 327.614583 L 540.75 325.427083 L 542.140625 323.390625 L 543.526042 321.395833 L 544.916667 319.359375 L 546.307292 317.25 L 547.692708 315.145833 L 549.083333 313.203125 L 550.473958 311.645833 L 551.859375 310.6875 L 553.25 310.458333 L 554.640625 310.989583 L 556.026042 312.203125 L 557.416667 313.953125 L 558.802083 316.083333 L 560.192708 318.484375 L 561.583333 321.088542 L 562.96875 323.885417 L 564.359375 326.875 L 565.75 330.0625 L 567.135417 333.416667 L 568.526042 336.911458 L 569.916667 340.53125 L 571.302083 344.28125 L 572.692708 348.182292 L 574.083333 352.270833 L 575.46875 356.536458 L 576.859375 360.942708 L 578.244792 365.416667 L 579.635417 369.848958 L 581.026042 374.161458 L 582.411458 378.302083 L 583.802083 382.28125 L 585.192708 386.145833 L 586.578125 389.96875 L 587.96875 393.838542 L 589.359375 397.833333 L 590.744792 402.010417 L 592.135417 406.375 L 593.526042 410.880208 L 594.911458 415.447917 L 596.302083 419.973958 L 597.6875 424.354167 L 599.078125 428.510417 L 600.46875 432.421875 L 601.854167 436.109375 L 603.244792 439.640625 L 604.635417 443.114583 L 606.020833 446.635417 L 607.411458 450.270833 L 608.802083 454.057292 L 610.1875 457.989583 L 611.578125 461.994792 L 612.96875 465.989583 L 614.354167 469.859375 L 615.744792 473.515625 L 617.130208 476.890625 L 618.520833 479.947917 L 619.911458 482.677083 L 621.296875 485.109375 L 622.6875 487.260417 L 624.078125 489.171875 L 625.463542 490.869792 L 626.854167 492.369792 L 628.244792 493.6875 L 629.630208 494.848958 L 631.020833 495.880208 L 632.40625 496.822917 L 633.796875 497.723958 L 635.1875 498.614583 L 636.572917 499.53125 L 637.963542 500.473958 L 639.354167 501.432292 L 640.739583 502.395833 L 642.130208 503.338542 L 643.520833 504.244792 L 644.90625 505.104167 L 646.296875 505.921875 L 647.6875 506.6875 L 649.072917 507.411458 L 650.463542 508.09375 L 651.848958 508.734375 L 653.239583 509.328125 L 654.630208 509.875 L 656.015625 510.380208 L 657.40625 510.828125 L 658.796875 511.234375 L 660.182292 511.598958 L 661.572917 511.932292 L 662.963542 512.229167 L 664.348958 512.489583 L 665.739583 512.723958 L 667.130208 512.916667 L 668.515625 513.072917 L 669.90625 513.1875 L 671.291667 513.265625 L 672.682292 513.3125 L 674.072917 513.333333 L 675.458333 513.333333 L 676.848958 513.322917 L 678.239583 513.302083 L 679.625 513.286458 L 681.015625 513.270833 L 682.40625 513.265625 L 683.791667 513.270833 L 685.182292 513.286458 " transform="matrix(0.75,0,0,0.75,0,0)"/>
</g>
<path style=" stroke:none;fill-rule:nonzero;fill:rgb(0%,61.960787%,45.09804%);fill-opacity:0.15;" d="M 306.613281 385.054688 L 307.65625 385.050781 L 308.695312 385.042969 L 309.738281 385.03125 L 310.78125 385.011719 L 311.820312 384.984375 L 312.863281 384.945312 L 313.90625 384.894531 L 314.945312 384.832031 L 315.988281 384.765625 L 317.03125 384.691406 L 318.070312 384.617188 L 319.113281 384.539062 L 320.152344 384.464844 L 321.195312 384.394531 L 322.238281 384.320312 L 323.277344 384.242188 L 324.320312 384.15625 L 325.363281 384.0625 L 326.402344 383.964844 L 327.445312 383.871094 L 328.488281 383.789062 L 329.527344 383.71875 L 330.570312 383.660156 L 331.609375 383.605469 L 332.652344 383.542969 L 333.695312 383.464844 L 334.734375 383.359375 L 335.777344 383.222656 L 336.820312 383.046875 L 337.859375 382.828125 L 338.902344 382.5625 L 339.945312 382.230469 L 340.984375 381.820312 L 342.027344 381.308594 L 343.070312 380.683594 L 344.109375 379.933594 L 345.152344 379.070312 L 346.191406 378.113281 L 347.234375 377.101562 L 348.277344 376.066406 L 349.316406 375.050781 L 350.359375 374.058594 L 351.402344 373.09375 L 352.441406 372.128906 L 353.484375 371.144531 L 354.527344 370.117188 L 355.566406 369.035156 L 356.609375 367.898438 L 357.652344 366.691406 L 358.691406 365.402344 L 359.734375 363.996094 L 360.773438 362.445312 L 361.816406 360.730469 L 362.859375 358.84375 L 363.898438 356.808594 L 364.941406 354.671875 L 365.984375 352.472656 L 367.023438 350.25 L 368.066406 348.03125 L 369.109375 345.804688 L 370.148438 343.558594 L 371.191406 341.261719 L 372.234375 338.894531 L 373.273438 336.449219 L 374.316406 333.933594 L 375.355469 331.363281 L 376.398438 328.730469 L 377.441406 326.027344 L 378.480469 323.203125 L 379.523438 320.210938 L 380.566406 316.976562 L 381.605469 313.453125 L 382.648438 309.601562 L 383.691406 305.402344 L 384.730469 300.882812 L 385.773438 296.097656 L 386.816406 291.144531 L 387.855469 286.179688 L 388.898438 281.382812 L 389.9375 276.949219 L 390.980469 273.03125 L 392.023438 269.714844 L 393.0625 267 L 394.105469 264.785156 L 395.148438 262.914062 L 396.1875 261.203125 L 397.230469 259.5 L 398.273438 257.695312 L 399.3125 255.75 L 400.355469 253.683594 L 401.398438 251.566406 L 402.4375 249.480469 L 403.480469 247.511719 L 404.519531 245.710938 L 405.5625 244.070312 L 406.605469 242.542969 L 407.644531 241.046875 L 408.6875 239.519531 L 409.730469 237.9375 L 410.769531 236.359375 L 411.8125 234.902344 L 412.855469 233.734375 L 413.894531 233.015625 L 414.9375 232.84375 L 415.980469 233.242188 L 417.019531 234.152344 L 418.0625 235.464844 L 419.101562 237.0625 L 420.144531 238.863281 L 421.1875 240.816406 L 422.226562 242.914062 L 423.269531 245.15625 L 424.3125 247.546875 L 425.351562 250.0625 L 426.394531 252.683594 L 427.4375 255.398438 L 428.476562 258.210938 L 429.519531 261.136719 L 430.5625 264.203125 L 431.601562 267.402344 L 432.644531 270.707031 L 433.683594 274.0625 L 434.726562 277.386719 L 435.769531 280.621094 L 436.808594 283.726562 L 437.851562 286.710938 L 438.894531 289.609375 L 439.933594 292.476562 L 440.976562 295.378906 L 442.019531 298.375 L 443.058594 301.507812 L 444.101562 304.78125 L 445.144531 308.160156 L 446.183594 311.585938 L 447.226562 314.980469 L 448.265625 318.265625 L 449.308594 321.382812 L 450.351562 324.316406 L 451.390625 327.082031 L 452.433594 329.730469 L 453.476562 332.335938 L 454.515625 334.976562 L 455.558594 337.703125 L 456.601562 340.542969 L 457.640625 343.492188 L 458.683594 346.496094 L 459.726562 349.492188 L 460.765625 352.394531 L 461.808594 355.136719 L 462.847656 357.667969 L 463.890625 359.960938 L 464.933594 362.007812 L 465.972656 363.832031 L 467.015625 365.445312 L 468.058594 366.878906 L 469.097656 368.152344 L 470.140625 369.277344 L 471.183594 370.265625 L 472.222656 371.136719 L 473.265625 371.910156 L 474.304688 372.617188 L 475.347656 373.292969 L 476.390625 373.960938 L 477.429688 374.648438 L 478.472656 375.355469 L 479.515625 376.074219 L 480.554688 376.796875 L 481.597656 377.503906 L 482.640625 378.183594 L 483.679688 378.828125 L 484.722656 379.441406 L 485.765625 380.015625 L 486.804688 380.558594 L 487.847656 381.070312 L 488.886719 381.550781 L 489.929688 381.996094 L 490.972656 382.40625 L 492.011719 382.785156 L 493.054688 383.121094 L 494.097656 383.425781 L 495.136719 383.699219 L 496.179688 383.949219 L 497.222656 384.171875 L 498.261719 384.367188 L 499.304688 384.542969 L 500.347656 384.6875 L 501.386719 384.804688 L 502.429688 384.890625 L 503.46875 384.949219 L 504.511719 384.984375 L 505.554688 385 L 506.59375 385 L 507.636719 384.992188 L 508.679688 384.976562 L 509.71875 384.964844 L 510.761719 384.953125 L 511.804688 384.949219 L 512.84375 384.953125 L 513.886719 384.964844 L 513.886719 385.058594 L 306.613281 385.058594 Z M 306.613281 385.054688 "/>
<path style="fill:none;stroke-width:1;stroke-linecap:butt;stroke-linejoin:miter;stroke:rgb(0%,0%,0%);stroke-opacity:1;stroke-miterlimit:10;" d="M 104.067708 536.5 L 104.067708 542.5 " transform="matrix(0.75,0,0,0.75,0,0)"/>
<path style="fill:none;stroke-width:1;stroke-linecap:butt;stroke-linejoin:miter;stroke:rgb(0%,0%,0%);stroke-opacity:1;stroke-miterlimit:10;" d="M 200.973958 536.5 L 200.973958 542.5 " transform="matrix(0.75,0,0,0.75,0,0)"/>
<path style="fill:none;stroke-width:1;stroke-linecap:butt;stroke-linejoin:miter;stroke:rgb(0%,0%,0%);stroke-opacity:1;stroke-miterlimit:10;" d="M 297.875 536.5 L 297.875 542.5 " transform="matrix(0.75,0,0,0.75,0,0)"/>
<path style="fill:none;stroke-width:1;stroke-linecap:butt;stroke-linejoin:miter;stroke:rgb(0%,0%,0%);stroke-opacity:1;stroke-miterlimit:10;" d="M 66.5 513.411458 L 60.5 513.411458 " transform="matrix(0.75,0,0,0.75,0,0)"/>
<path style="fill:none;stroke-width:1;stroke-linecap:butt;stroke-linejoin:miter;stroke:rgb(0%,0%,0%);stroke-opacity:1;stroke-miterlimit:10;" d="M 66.5 326.760417 L 60.5 326.760417 " transform="matrix(0.75,0,0,0.75,0,0)"/>
<path style="fill:none;stroke-width:1;stroke-linecap:butt;stroke-linejoin:miter;stroke:rgb(0%,0%,0%);stroke-opacity:1;stroke-miterlimit:10;" d="M 66.5 140.109375 L 60.5 140.109375 " transform="matrix(0.75,0,0,0.75,0,0)"/>
<path style="fill:none;stroke-width:1;stroke-linecap:butt;stroke-linejoin:miter;stroke:rgb(0%,0%,0%);stroke-opacity:1;stroke-miterlimit:10;" d="M 432.067708 536.5 L 432.067708 542.5 " transform="matrix(0.75,0,0,0.75,0,0)"/>
<path style="fill:none;stroke-width:1;stroke-linecap:butt;stroke-linejoin:miter;stroke:rgb(0%,0%,0%);stroke-opacity:1;stroke-miterlimit:10;" d="M 528.973958 536.5 L 528.973958 542.5 " transform="matrix(0.75,0,0,0.75,0,0)"/>
<path style="fill:none;stroke-width:1;stroke-linecap:butt;stroke-linejoin:miter;stroke:rgb(0%,0%,0%);stroke-opacity:1;stroke-miterlimit:10;" d="M 625.875 536.5 L 625.875 542.5 " transform="matrix(0.75,0,0,0.75,0,0)"/>
<g clip-path="url(#clip7)" clip-rule="nonzero">
<path style=" stroke:none;fill-rule:nonzero;fill:rgb(100%,100%,100%);fill-opacity:1;" d="M 542.625 256.125 L 587.625 256.125 L 587.625 175.125 L 542.625 175.125 Z M 542.625 256.125 "/>
</g>
<g clip-path="url(#clip8)" clip-rule="nonzero">
<path style="fill:none;stroke-width:1;stroke-linecap:butt;stroke-linejoin:miter;stroke:rgb(0%,0%,0%);stroke-opacity:1;stroke-miterlimit:10;" d="M 723.5 341.5 L 783.5 341.5 L 783.5 233.5 L 723.5 233.5 Z M 723.5 341.5 " transform="matrix(0.75,0,0,0.75,0,0)"/>
</g>
<g style="fill:rgb(0%,0%,0%);fill-opacity:1;">
  <use xlink:href="#dVOwWwiC15-1" x="549.601562" y="192.03125"/>
</g>
<g style="fill:rgb(0%,0%,0%);fill-opacity:1;">
  <use xlink:href="#dVOwWwiC16-1" x="556.199219" y="192.03125"/>
</g>
<g style="fill:rgb(0%,0%,0%);fill-opacity:1;">
  <use xlink:href="#dVOwWwiC15-2" x="563.804688" y="192.03125"/>
</g>
<g style="fill:rgb(0%,0%,0%);fill-opacity:1;">
  <use xlink:href="#dVOwWwiC16-2" x="571.15625" y="192.03125"/>
</g>
<g style="fill:rgb(0%,0%,0%);fill-opacity:1;">
  <use xlink:href="#dVOwWwiC16-3" x="574.492188" y="192.03125"/>
</g>
<g style="fill:rgb(0%,0%,0%);fill-opacity:1;">
  <use xlink:href="#dVOwWwiC3-2" x="570.300781" y="212.515625"/>
</g>
<path style=" stroke:none;fill-rule:nonzero;fill:rgb(0%,44.705883%,69.803923%);fill-opacity:0.15;" d="M 552.871094 215.859375 L 567.871094 215.859375 L 567.871094 200.859375 L 552.871094 200.859375 Z M 552.871094 215.859375 "/>
<path style="fill:none;stroke-width:1.5;stroke-linecap:butt;stroke-linejoin:miter;stroke:rgb(0%,44.705883%,69.803923%);stroke-opacity:1;stroke-miterlimit:10;" d="M 737.161458 277.8125 L 757.161458 277.8125 " transform="matrix(0.75,0,0,0.75,0,0)"/>
<g style="fill:rgb(0%,0%,0%);fill-opacity:1;">
  <use xlink:href="#dVOwWwiC17-1" x="570.742188" y="229.765625"/>
</g>
<path style=" stroke:none;fill-rule:nonzero;fill:rgb(90.196079%,62.352943%,0%);fill-opacity:0.15;" d="M 552.871094 233.109375 L 567.871094 233.109375 L 567.871094 218.109375 L 552.871094 218.109375 Z M 552.871094 233.109375 "/>
<path style="fill:none;stroke-width:1.5;stroke-linecap:butt;stroke-linejoin:miter;stroke:rgb(90.196079%,62.352943%,0%);stroke-opacity:1;stroke-miterlimit:10;" d="M 737.161458 300.8125 L 757.161458 300.8125 " transform="matrix(0.75,0,0,0.75,0,0)"/>
<g style="fill:rgb(0%,0%,0%);fill-opacity:1;">
  <use xlink:href="#dVOwWwiC3-10" x="570.707031" y="247.015625"/>
</g>
<path style=" stroke:none;fill-rule:nonzero;fill:rgb(0%,61.960787%,45.09804%);fill-opacity:0.15;" d="M 552.871094 250.359375 L 567.871094 250.359375 L 567.871094 235.359375 L 552.871094 235.359375 Z M 552.871094 250.359375 "/>
<path style="fill:none;stroke-width:1.5;stroke-linecap:butt;stroke-linejoin:miter;stroke:rgb(0%,61.960787%,45.09804%);stroke-opacity:1;stroke-miterlimit:10;" d="M 737.161458 323.8125 L 757.161458 323.8125 " transform="matrix(0.75,0,0,0.75,0,0)"/>
<path style="fill:none;stroke-width:1;stroke-linecap:butt;stroke-linejoin:miter;stroke:rgb(0%,0%,0%);stroke-opacity:1;stroke-miterlimit:10;" d="M 66.5 536 L 371.5 536 " transform="matrix(0.75,0,0,0.75,0,0)"/>
<path style="fill:none;stroke-width:1;stroke-linecap:butt;stroke-linejoin:miter;stroke:rgb(0%,0%,0%);stroke-opacity:1;stroke-miterlimit:10;" d="M 67 536.5 L 67 38.5 " transform="matrix(0.75,0,0,0.75,0,0)"/>
<path style="fill:none;stroke-width:1;stroke-linecap:butt;stroke-linejoin:miter;stroke:rgb(0%,0%,0%);stroke-opacity:1;stroke-miterlimit:10;" d="M 66.5 39 L 371.5 39 " transform="matrix(0.75,0,0,0.75,0,0)"/>
<path style="fill:none;stroke-width:1;stroke-linecap:butt;stroke-linejoin:miter;stroke:rgb(0%,0%,0%);stroke-opacity:1;stroke-miterlimit:10;" d="M 371 536.5 L 371 38.5 " transform="matrix(0.75,0,0,0.75,0,0)"/>
<path style="fill:none;stroke-width:1;stroke-linecap:butt;stroke-linejoin:miter;stroke:rgb(0%,0%,0%);stroke-opacity:1;stroke-miterlimit:10;" d="M 394.5 536 L 699.5 536 " transform="matrix(0.75,0,0,0.75,0,0)"/>
<path style="fill:none;stroke-width:1;stroke-linecap:butt;stroke-linejoin:miter;stroke:rgb(0%,0%,0%);stroke-opacity:1;stroke-miterlimit:10;" d="M 395 536.5 L 395 38.5 " transform="matrix(0.75,0,0,0.75,0,0)"/>
<path style="fill:none;stroke-width:1;stroke-linecap:butt;stroke-linejoin:miter;stroke:rgb(0%,0%,0%);stroke-opacity:1;stroke-miterlimit:10;" d="M 394.5 39 L 699.5 39 " transform="matrix(0.75,0,0,0.75,0,0)"/>
<path style="fill:none;stroke-width:1;stroke-linecap:butt;stroke-linejoin:miter;stroke:rgb(0%,0%,0%);stroke-opacity:1;stroke-miterlimit:10;" d="M 699 536.5 L 699 38.5 " transform="matrix(0.75,0,0,0.75,0,0)"/>
</g>
</svg>
