<?xml version="1.0" encoding="UTF-8"?>
<svg xmlns="http://www.w3.org/2000/svg" xmlns:xlink="http://www.w3.org/1999/xlink" width="600pt" height="450pt" viewBox="0 0 600 450" version="1.1">
<defs>
<g>
<symbol overflow="visible" id="qVFcDl3M0-0">
<path style="stroke:none;" d="M 0.59375 2.125 L 0.59375 -8.46875 L 6.59375 -8.46875 L 6.59375 2.125 Z M 1.265625 1.453125 L 5.9375 1.453125 L 5.9375 -7.78125 L 1.265625 -7.78125 Z M 1.265625 1.453125 "/>
</symbol>
<symbol overflow="visible" id="qVFcDl3M0-1">
<path style="stroke:none;" d="M 3.8125 -7.96875 C 3.207031 -7.96875 2.75 -7.664062 2.4375 -7.0625 C 2.132812 -6.46875 1.984375 -5.566406 1.984375 -4.359375 C 1.984375 -3.160156 2.132812 -2.257812 2.4375 -1.65625 C 2.75 -1.0625 3.207031 -0.765625 3.8125 -0.765625 C 4.425781 -0.765625 4.882812 -1.0625 5.1875 -1.65625 C 5.5 -2.257812 5.65625 -3.160156 5.65625 -4.359375 C 5.65625 -5.566406 5.5 -6.46875 5.1875 -7.0625 C 4.882812 -7.664062 4.425781 -7.96875 3.8125 -7.96875 Z M 3.8125 -8.90625 C 4.789062 -8.90625 5.539062 -8.515625 6.0625 -7.734375 C 6.582031 -6.960938 6.84375 -5.835938 6.84375 -4.359375 C 6.84375 -2.890625 6.582031 -1.765625 6.0625 -0.984375 C 5.539062 -0.210938 4.789062 0.171875 3.8125 0.171875 C 2.832031 0.171875 2.082031 -0.210938 1.5625 -0.984375 C 1.050781 -1.765625 0.796875 -2.890625 0.796875 -4.359375 C 0.796875 -5.835938 1.050781 -6.960938 1.5625 -7.734375 C 2.082031 -8.515625 2.832031 -8.90625 3.8125 -8.90625 Z M 3.8125 -8.90625 "/>
</symbol>
<symbol overflow="visible" id="qVFcDl3M0-2">
<path style="stroke:none;" d="M 1.28125 -1.484375 L 2.515625 -1.484375 L 2.515625 0 L 1.28125 0 Z M 1.28125 -1.484375 "/>
</symbol>
<symbol overflow="visible" id="qVFcDl3M0-3">
<path style="stroke:none;" d="M 1.296875 -8.75 L 5.9375 -8.75 L 5.9375 -7.75 L 2.375 -7.75 L 2.375 -5.609375 C 2.550781 -5.671875 2.722656 -5.710938 2.890625 -5.734375 C 3.066406 -5.765625 3.238281 -5.78125 3.40625 -5.78125 C 4.382812 -5.78125 5.160156 -5.507812 5.734375 -4.96875 C 6.304688 -4.4375 6.59375 -3.71875 6.59375 -2.8125 C 6.59375 -1.863281 6.296875 -1.128906 5.703125 -0.609375 C 5.117188 -0.0859375 4.296875 0.171875 3.234375 0.171875 C 2.859375 0.171875 2.476562 0.140625 2.09375 0.078125 C 1.71875 0.015625 1.328125 -0.078125 0.921875 -0.203125 L 0.921875 -1.390625 C 1.273438 -1.203125 1.640625 -1.0625 2.015625 -0.96875 C 2.390625 -0.875 2.785156 -0.828125 3.203125 -0.828125 C 3.878906 -0.828125 4.414062 -1.003906 4.8125 -1.359375 C 5.207031 -1.710938 5.40625 -2.195312 5.40625 -2.8125 C 5.40625 -3.414062 5.207031 -3.894531 4.8125 -4.25 C 4.414062 -4.601562 3.878906 -4.78125 3.203125 -4.78125 C 2.890625 -4.78125 2.570312 -4.742188 2.25 -4.671875 C 1.9375 -4.609375 1.617188 -4.503906 1.296875 -4.359375 Z M 1.296875 -8.75 "/>
</symbol>
<symbol overflow="visible" id="qVFcDl3M1-0">
<path style="stroke:none;" d="M 0.59375 2.125 L 0.59375 -8.46875 L 6.59375 -8.46875 L 6.59375 2.125 Z M 1.265625 1.453125 L 5.9375 1.453125 L 5.9375 -7.78125 L 1.265625 -7.78125 Z M 1.265625 1.453125 "/>
</symbol>
<symbol overflow="visible" id="qVFcDl3M1-1">
<path style="stroke:none;" d="M 3.8125 -4.15625 C 3.25 -4.15625 2.804688 -4.003906 2.484375 -3.703125 C 2.160156 -3.398438 2 -2.988281 2 -2.46875 C 2 -1.9375 2.160156 -1.519531 2.484375 -1.21875 C 2.804688 -0.914062 3.25 -0.765625 3.8125 -0.765625 C 4.375 -0.765625 4.816406 -0.914062 5.140625 -1.21875 C 5.460938 -1.519531 5.625 -1.9375 5.625 -2.46875 C 5.625 -2.988281 5.460938 -3.398438 5.140625 -3.703125 C 4.828125 -4.003906 4.382812 -4.15625 3.8125 -4.15625 Z M 2.625 -4.65625 C 2.125 -4.78125 1.726562 -5.015625 1.4375 -5.359375 C 1.15625 -5.710938 1.015625 -6.140625 1.015625 -6.640625 C 1.015625 -7.335938 1.265625 -7.890625 1.765625 -8.296875 C 2.265625 -8.703125 2.945312 -8.90625 3.8125 -8.90625 C 4.6875 -8.90625 5.367188 -8.703125 5.859375 -8.296875 C 6.359375 -7.890625 6.609375 -7.335938 6.609375 -6.640625 C 6.609375 -6.140625 6.46875 -5.710938 6.1875 -5.359375 C 5.90625 -5.015625 5.507812 -4.78125 5 -4.65625 C 5.570312 -4.519531 6.015625 -4.257812 6.328125 -3.875 C 6.648438 -3.488281 6.8125 -3.019531 6.8125 -2.46875 C 6.8125 -1.613281 6.550781 -0.957031 6.03125 -0.5 C 5.519531 -0.0507812 4.78125 0.171875 3.8125 0.171875 C 2.851562 0.171875 2.113281 -0.0507812 1.59375 -0.5 C 1.070312 -0.957031 0.8125 -1.613281 0.8125 -2.46875 C 0.8125 -3.019531 0.972656 -3.488281 1.296875 -3.875 C 1.617188 -4.257812 2.0625 -4.519531 2.625 -4.65625 Z M 2.203125 -6.53125 C 2.203125 -6.070312 2.34375 -5.71875 2.625 -5.46875 C 2.90625 -5.21875 3.300781 -5.09375 3.8125 -5.09375 C 4.320312 -5.09375 4.71875 -5.21875 5 -5.46875 C 5.289062 -5.71875 5.4375 -6.070312 5.4375 -6.53125 C 5.4375 -6.976562 5.289062 -7.328125 5 -7.578125 C 4.71875 -7.835938 4.320312 -7.96875 3.8125 -7.96875 C 3.300781 -7.96875 2.90625 -7.835938 2.625 -7.578125 C 2.34375 -7.328125 2.203125 -6.976562 2.203125 -6.53125 Z M 2.203125 -6.53125 "/>
</symbol>
<symbol overflow="visible" id="qVFcDl3M2-0">
<path style="stroke:none;" d="M 0.59375 2.125 L 0.59375 -8.46875 L 6.59375 -8.46875 L 6.59375 2.125 Z M 1.265625 1.453125 L 5.9375 1.453125 L 5.9375 -7.78125 L 1.265625 -7.78125 Z M 1.265625 1.453125 "/>
</symbol>
<symbol overflow="visible" id="qVFcDl3M2-1">
<path style="stroke:none;" d="M 1.484375 -1 L 3.421875 -1 L 3.421875 -7.671875 L 1.3125 -7.25 L 1.3125 -8.328125 L 3.40625 -8.75 L 4.59375 -8.75 L 4.59375 -1 L 6.53125 -1 L 6.53125 0 L 1.484375 0 Z M 1.484375 -1 "/>
</symbol>
<symbol overflow="visible" id="qVFcDl3M2-2">
<path style="stroke:none;" d="M 3.8125 -7.96875 C 3.207031 -7.96875 2.75 -7.664062 2.4375 -7.0625 C 2.132812 -6.46875 1.984375 -5.566406 1.984375 -4.359375 C 1.984375 -3.160156 2.132812 -2.257812 2.4375 -1.65625 C 2.75 -1.0625 3.207031 -0.765625 3.8125 -0.765625 C 4.425781 -0.765625 4.882812 -1.0625 5.1875 -1.65625 C 5.5 -2.257812 5.65625 -3.160156 5.65625 -4.359375 C 5.65625 -5.566406 5.5 -6.46875 5.1875 -7.0625 C 4.882812 -7.664062 4.425781 -7.96875 3.8125 -7.96875 Z M 3.8125 -8.90625 C 4.789062 -8.90625 5.539062 -8.515625 6.0625 -7.734375 C 6.582031 -6.960938 6.84375 -5.835938 6.84375 -4.359375 C 6.84375 -2.890625 6.582031 -1.765625 6.0625 -0.984375 C 5.539062 -0.210938 4.789062 0.171875 3.8125 0.171875 C 2.832031 0.171875 2.082031 -0.210938 1.5625 -0.984375 C 1.050781 -1.765625 0.796875 -2.890625 0.796875 -4.359375 C 0.796875 -5.835938 1.050781 -6.960938 1.5625 -7.734375 C 2.082031 -8.515625 2.832031 -8.90625 3.8125 -8.90625 Z M 3.8125 -8.90625 "/>
</symbol>
<symbol overflow="visible" id="qVFcDl3M3-0">
<path style="stroke:none;" d="M 0.59375 2.125 L 0.59375 -8.46875 L 6.59375 -8.46875 L 6.59375 2.125 Z M 1.265625 1.453125 L 5.9375 1.453125 L 5.9375 -7.78125 L 1.265625 -7.78125 Z M 1.265625 1.453125 "/>
</symbol>
<symbol overflow="visible" id="qVFcDl3M3-1">
<path style="stroke:none;" d="M 1.28125 -1.484375 L 2.515625 -1.484375 L 2.515625 0 L 1.28125 0 Z M 1.28125 -1.484375 "/>
</symbol>
<symbol overflow="visible" id="qVFcDl3M3-2">
<path style="stroke:none;" d="M 3.8125 -7.96875 C 3.207031 -7.96875 2.75 -7.664062 2.4375 -7.0625 C 2.132812 -6.46875 1.984375 -5.566406 1.984375 -4.359375 C 1.984375 -3.160156 2.132812 -2.257812 2.4375 -1.65625 C 2.75 -1.0625 3.207031 -0.765625 3.8125 -0.765625 C 4.425781 -0.765625 4.882812 -1.0625 5.1875 -1.65625 C 5.5 -2.257812 5.65625 -3.160156 5.65625 -4.359375 C 5.65625 -5.566406 5.5 -6.46875 5.1875 -7.0625 C 4.882812 -7.664062 4.425781 -7.96875 3.8125 -7.96875 Z M 3.8125 -8.90625 C 4.789062 -8.90625 5.539062 -8.515625 6.0625 -7.734375 C 6.582031 -6.960938 6.84375 -5.835938 6.84375 -4.359375 C 6.84375 -2.890625 6.582031 -1.765625 6.0625 -0.984375 C 5.539062 -0.210938 4.789062 0.171875 3.8125 0.171875 C 2.832031 0.171875 2.082031 -0.210938 1.5625 -0.984375 C 1.050781 -1.765625 0.796875 -2.890625 0.796875 -4.359375 C 0.796875 -5.835938 1.050781 -6.960938 1.5625 -7.734375 C 2.082031 -8.515625 2.832031 -8.90625 3.8125 -8.90625 Z M 3.8125 -8.90625 "/>
</symbol>
<symbol overflow="visible" id="qVFcDl3M4-0">
<path style="stroke:none;" d="M 0.59375 2.125 L 0.59375 -8.46875 L 6.59375 -8.46875 L 6.59375 2.125 Z M 1.265625 1.453125 L 5.9375 1.453125 L 5.9375 -7.78125 L 1.265625 -7.78125 Z M 1.265625 1.453125 "/>
</symbol>
<symbol overflow="visible" id="qVFcDl3M4-1">
<path style="stroke:none;" d="M 1.484375 -1 L 3.421875 -1 L 3.421875 -7.671875 L 1.3125 -7.25 L 1.3125 -8.328125 L 3.40625 -8.75 L 4.59375 -8.75 L 4.59375 -1 L 6.53125 -1 L 6.53125 0 L 1.484375 0 Z M 1.484375 -1 "/>
</symbol>
<symbol overflow="visible" id="qVFcDl3M4-2">
<path style="stroke:none;" d="M 1.28125 -1.484375 L 2.515625 -1.484375 L 2.515625 0 L 1.28125 0 Z M 1.28125 -1.484375 "/>
</symbol>
<symbol overflow="visible" id="qVFcDl3M4-3">
<path style="stroke:none;" d="M 2.296875 -1 L 6.4375 -1 L 6.4375 0 L 0.875 0 L 0.875 -1 C 1.320312 -1.457031 1.929688 -2.078125 2.703125 -2.859375 C 3.484375 -3.648438 3.972656 -4.160156 4.171875 -4.390625 C 4.554688 -4.804688 4.820312 -5.160156 4.96875 -5.453125 C 5.125 -5.753906 5.203125 -6.046875 5.203125 -6.328125 C 5.203125 -6.796875 5.035156 -7.175781 4.703125 -7.46875 C 4.378906 -7.757812 3.957031 -7.90625 3.4375 -7.90625 C 3.0625 -7.90625 2.664062 -7.84375 2.25 -7.71875 C 1.84375 -7.59375 1.40625 -7.394531 0.9375 -7.125 L 0.9375 -8.328125 C 1.414062 -8.515625 1.859375 -8.65625 2.265625 -8.75 C 2.679688 -8.851562 3.0625 -8.90625 3.40625 -8.90625 C 4.3125 -8.90625 5.035156 -8.675781 5.578125 -8.21875 C 6.117188 -7.769531 6.390625 -7.164062 6.390625 -6.40625 C 6.390625 -6.050781 6.320312 -5.710938 6.1875 -5.390625 C 6.050781 -5.066406 5.804688 -4.6875 5.453125 -4.25 C 5.347656 -4.132812 5.035156 -3.804688 4.515625 -3.265625 C 3.992188 -2.722656 3.253906 -1.96875 2.296875 -1 Z M 2.296875 -1 "/>
</symbol>
<symbol overflow="visible" id="qVFcDl3M4-4">
<path style="stroke:none;" d="M 3.8125 -7.96875 C 3.207031 -7.96875 2.75 -7.664062 2.4375 -7.0625 C 2.132812 -6.46875 1.984375 -5.566406 1.984375 -4.359375 C 1.984375 -3.160156 2.132812 -2.257812 2.4375 -1.65625 C 2.75 -1.0625 3.207031 -0.765625 3.8125 -0.765625 C 4.425781 -0.765625 4.882812 -1.0625 5.1875 -1.65625 C 5.5 -2.257812 5.65625 -3.160156 5.65625 -4.359375 C 5.65625 -5.566406 5.5 -6.46875 5.1875 -7.0625 C 4.882812 -7.664062 4.425781 -7.96875 3.8125 -7.96875 Z M 3.8125 -8.90625 C 4.789062 -8.90625 5.539062 -8.515625 6.0625 -7.734375 C 6.582031 -6.960938 6.84375 -5.835938 6.84375 -4.359375 C 6.84375 -2.890625 6.582031 -1.765625 6.0625 -0.984375 C 5.539062 -0.210938 4.789062 0.171875 3.8125 0.171875 C 2.832031 0.171875 2.082031 -0.210938 1.5625 -0.984375 C 1.050781 -1.765625 0.796875 -2.890625 0.796875 -4.359375 C 0.796875 -5.835938 1.050781 -6.960938 1.5625 -7.734375 C 2.082031 -8.515625 2.832031 -8.90625 3.8125 -8.90625 Z M 3.8125 -8.90625 "/>
</symbol>
<symbol overflow="visible" id="qVFcDl3M4-5">
<path style="stroke:none;" d="M 0.359375 -6.5625 L 1.5 -6.5625 L 3.546875 -1.0625 L 5.609375 -6.5625 L 6.75 -6.5625 L 4.28125 0 L 2.8125 0 Z M 0.359375 -6.5625 "/>
</symbol>
<symbol overflow="visible" id="qVFcDl3M4-6">
<path style="stroke:none;" d="M 4.109375 -3.296875 C 3.242188 -3.296875 2.640625 -3.195312 2.296875 -3 C 1.960938 -2.800781 1.796875 -2.460938 1.796875 -1.984375 C 1.796875 -1.597656 1.921875 -1.289062 2.171875 -1.0625 C 2.429688 -0.84375 2.773438 -0.734375 3.203125 -0.734375 C 3.804688 -0.734375 4.285156 -0.941406 4.640625 -1.359375 C 5.003906 -1.785156 5.1875 -2.351562 5.1875 -3.0625 L 5.1875 -3.296875 Z M 6.265625 -3.75 L 6.265625 0 L 5.1875 0 L 5.1875 -1 C 4.9375 -0.601562 4.628906 -0.304688 4.265625 -0.109375 C 3.898438 0.078125 3.453125 0.171875 2.921875 0.171875 C 2.242188 0.171875 1.707031 -0.015625 1.3125 -0.390625 C 0.914062 -0.773438 0.71875 -1.28125 0.71875 -1.90625 C 0.71875 -2.644531 0.960938 -3.203125 1.453125 -3.578125 C 1.953125 -3.953125 2.691406 -4.140625 3.671875 -4.140625 L 5.1875 -4.140625 L 5.1875 -4.25 C 5.1875 -4.75 5.019531 -5.132812 4.6875 -5.40625 C 4.363281 -5.675781 3.910156 -5.8125 3.328125 -5.8125 C 2.953125 -5.8125 2.582031 -5.765625 2.21875 -5.671875 C 1.863281 -5.578125 1.523438 -5.441406 1.203125 -5.265625 L 1.203125 -6.265625 C 1.597656 -6.421875 1.976562 -6.535156 2.34375 -6.609375 C 2.71875 -6.679688 3.082031 -6.71875 3.4375 -6.71875 C 4.382812 -6.71875 5.09375 -6.472656 5.5625 -5.984375 C 6.03125 -5.492188 6.265625 -4.75 6.265625 -3.75 Z M 6.265625 -3.75 "/>
</symbol>
<symbol overflow="visible" id="qVFcDl3M4-7">
<path style="stroke:none;" d="M 1.125 -9.125 L 2.203125 -9.125 L 2.203125 0 L 1.125 0 Z M 1.125 -9.125 "/>
</symbol>
<symbol overflow="visible" id="qVFcDl3M4-8">
<path style="stroke:none;" d="M 6.75 -3.546875 L 6.75 -3.03125 L 1.78125 -3.03125 C 1.832031 -2.28125 2.054688 -1.710938 2.453125 -1.328125 C 2.859375 -0.941406 3.414062 -0.75 4.125 -0.75 C 4.539062 -0.75 4.941406 -0.796875 5.328125 -0.890625 C 5.722656 -0.992188 6.113281 -1.148438 6.5 -1.359375 L 6.5 -0.328125 C 6.101562 -0.171875 5.703125 -0.0507812 5.296875 0.03125 C 4.890625 0.125 4.476562 0.171875 4.0625 0.171875 C 3.019531 0.171875 2.191406 -0.128906 1.578125 -0.734375 C 0.960938 -1.347656 0.65625 -2.175781 0.65625 -3.21875 C 0.65625 -4.289062 0.945312 -5.140625 1.53125 -5.765625 C 2.113281 -6.398438 2.894531 -6.71875 3.875 -6.71875 C 4.757812 -6.71875 5.457031 -6.429688 5.96875 -5.859375 C 6.488281 -5.296875 6.75 -4.523438 6.75 -3.546875 Z M 5.671875 -3.875 C 5.660156 -4.457031 5.492188 -4.925781 5.171875 -5.28125 C 4.847656 -5.632812 4.421875 -5.8125 3.890625 -5.8125 C 3.285156 -5.8125 2.800781 -5.640625 2.4375 -5.296875 C 2.082031 -4.953125 1.878906 -4.472656 1.828125 -3.859375 Z M 5.671875 -3.875 "/>
</symbol>
<symbol overflow="visible" id="qVFcDl3M4-9">
<path style="stroke:none;" d="M 4.875 -4.71875 C 5.4375 -4.59375 5.875 -4.335938 6.1875 -3.953125 C 6.507812 -3.578125 6.671875 -3.109375 6.671875 -2.546875 C 6.671875 -1.679688 6.375 -1.007812 5.78125 -0.53125 C 5.1875 -0.0625 4.34375 0.171875 3.25 0.171875 C 2.882812 0.171875 2.503906 0.132812 2.109375 0.0625 C 1.722656 -0.0078125 1.328125 -0.117188 0.921875 -0.265625 L 0.921875 -1.40625 C 1.242188 -1.21875 1.597656 -1.070312 1.984375 -0.96875 C 2.378906 -0.875 2.789062 -0.828125 3.21875 -0.828125 C 3.957031 -0.828125 4.519531 -0.972656 4.90625 -1.265625 C 5.300781 -1.554688 5.5 -1.984375 5.5 -2.546875 C 5.5 -3.054688 5.316406 -3.457031 4.953125 -3.75 C 4.585938 -4.039062 4.085938 -4.1875 3.453125 -4.1875 L 2.421875 -4.1875 L 2.421875 -5.15625 L 3.5 -5.15625 C 4.070312 -5.15625 4.515625 -5.269531 4.828125 -5.5 C 5.140625 -5.738281 5.296875 -6.078125 5.296875 -6.515625 C 5.296875 -6.960938 5.132812 -7.304688 4.8125 -7.546875 C 4.5 -7.785156 4.046875 -7.90625 3.453125 -7.90625 C 3.117188 -7.90625 2.765625 -7.867188 2.390625 -7.796875 C 2.023438 -7.734375 1.617188 -7.628906 1.171875 -7.484375 L 1.171875 -8.53125 C 1.628906 -8.65625 2.050781 -8.75 2.4375 -8.8125 C 2.832031 -8.875 3.203125 -8.90625 3.546875 -8.90625 C 4.453125 -8.90625 5.164062 -8.703125 5.6875 -8.296875 C 6.207031 -7.890625 6.46875 -7.335938 6.46875 -6.640625 C 6.46875 -6.148438 6.328125 -5.738281 6.046875 -5.40625 C 5.773438 -5.070312 5.382812 -4.84375 4.875 -4.71875 Z M 4.875 -4.71875 "/>
</symbol>
<symbol overflow="visible" id="qVFcDl3M5-0">
<path style="stroke:none;" d="M 0.59375 2.125 L 0.59375 -8.46875 L 6.59375 -8.46875 L 6.59375 2.125 Z M 1.265625 1.453125 L 5.9375 1.453125 L 5.9375 -7.78125 L 1.265625 -7.78125 Z M 1.265625 1.453125 "/>
</symbol>
<symbol overflow="visible" id="qVFcDl3M5-1">
<path style="stroke:none;" d="M 1.484375 -1 L 3.421875 -1 L 3.421875 -7.671875 L 1.3125 -7.25 L 1.3125 -8.328125 L 3.40625 -8.75 L 4.59375 -8.75 L 4.59375 -1 L 6.53125 -1 L 6.53125 0 L 1.484375 0 Z M 1.484375 -1 "/>
</symbol>
<symbol overflow="visible" id="qVFcDl3M6-0">
<path style="stroke:none;" d="M 0.59375 2.125 L 0.59375 -8.46875 L 6.59375 -8.46875 L 6.59375 2.125 Z M 1.265625 1.453125 L 5.9375 1.453125 L 5.9375 -7.78125 L 1.265625 -7.78125 Z M 1.265625 1.453125 "/>
</symbol>
<symbol overflow="visible" id="qVFcDl3M6-1">
<path style="stroke:none;" d="M 3.8125 -7.96875 C 3.207031 -7.96875 2.75 -7.664062 2.4375 -7.0625 C 2.132812 -6.46875 1.984375 -5.566406 1.984375 -4.359375 C 1.984375 -3.160156 2.132812 -2.257812 2.4375 -1.65625 C 2.75 -1.0625 3.207031 -0.765625 3.8125 -0.765625 C 4.425781 -0.765625 4.882812 -1.0625 5.1875 -1.65625 C 5.5 -2.257812 5.65625 -3.160156 5.65625 -4.359375 C 5.65625 -5.566406 5.5 -6.46875 5.1875 -7.0625 C 4.882812 -7.664062 4.425781 -7.96875 3.8125 -7.96875 Z M 3.8125 -8.90625 C 4.789062 -8.90625 5.539062 -8.515625 6.0625 -7.734375 C 6.582031 -6.960938 6.84375 -5.835938 6.84375 -4.359375 C 6.84375 -2.890625 6.582031 -1.765625 6.0625 -0.984375 C 5.539062 -0.210938 4.789062 0.171875 3.8125 0.171875 C 2.832031 0.171875 2.082031 -0.210938 1.5625 -0.984375 C 1.050781 -1.765625 0.796875 -2.890625 0.796875 -4.359375 C 0.796875 -5.835938 1.050781 -6.960938 1.5625 -7.734375 C 2.082031 -8.515625 2.832031 -8.90625 3.8125 -8.90625 Z M 3.8125 -8.90625 "/>
</symbol>
<symbol overflow="visible" id="qVFcDl3M7-0">
<path style="stroke:none;" d="M 2.125 -0.59375 L -8.46875 -0.59375 L -8.46875 -6.59375 L 2.125 -6.59375 Z M 1.453125 -1.265625 L 1.453125 -5.9375 L -7.78125 -5.9375 L -7.78125 -1.265625 Z M 1.453125 -1.265625 "/>
</symbol>
<symbol overflow="visible" id="qVFcDl3M7-1">
<path style="stroke:none;" d="M -5.5625 -5.453125 L -9.125 -5.453125 L -9.125 -6.53125 L 0 -6.53125 L 0 -5.453125 L -0.984375 -5.453125 C -0.597656 -5.222656 -0.304688 -4.9375 -0.109375 -4.59375 C 0.078125 -4.25 0.171875 -3.832031 0.171875 -3.34375 C 0.171875 -2.550781 -0.144531 -1.90625 -0.78125 -1.40625 C -1.414062 -0.90625 -2.25 -0.65625 -3.28125 -0.65625 C -4.3125 -0.65625 -5.140625 -0.90625 -5.765625 -1.40625 C -6.398438 -1.90625 -6.71875 -2.550781 -6.71875 -3.34375 C -6.71875 -3.832031 -6.625 -4.25 -6.4375 -4.59375 C -6.25 -4.9375 -5.957031 -5.222656 -5.5625 -5.453125 Z M -3.28125 -1.78125 C -2.488281 -1.78125 -1.863281 -1.941406 -1.40625 -2.265625 C -0.957031 -2.585938 -0.734375 -3.035156 -0.734375 -3.609375 C -0.734375 -4.179688 -0.957031 -4.628906 -1.40625 -4.953125 C -1.863281 -5.285156 -2.488281 -5.453125 -3.28125 -5.453125 C -4.070312 -5.453125 -4.691406 -5.285156 -5.140625 -4.953125 C -5.585938 -4.628906 -5.8125 -4.179688 -5.8125 -3.609375 C -5.8125 -3.035156 -5.585938 -2.585938 -5.140625 -2.265625 C -4.691406 -1.941406 -4.070312 -1.78125 -3.28125 -1.78125 Z M -3.28125 -1.78125 "/>
</symbol>
<symbol overflow="visible" id="qVFcDl3M7-2">
<path style="stroke:none;" d="M -6.375 -5.3125 L -5.34375 -5.3125 C -5.5 -5.007812 -5.613281 -4.691406 -5.6875 -4.359375 C -5.769531 -4.035156 -5.8125 -3.695312 -5.8125 -3.34375 C -5.8125 -2.8125 -5.726562 -2.410156 -5.5625 -2.140625 C -5.40625 -1.867188 -5.160156 -1.734375 -4.828125 -1.734375 C -4.578125 -1.734375 -4.378906 -1.828125 -4.234375 -2.015625 C -4.097656 -2.210938 -3.96875 -2.601562 -3.84375 -3.1875 L -3.75 -3.546875 C -3.59375 -4.316406 -3.363281 -4.863281 -3.0625 -5.1875 C -2.757812 -5.507812 -2.34375 -5.671875 -1.8125 -5.671875 C -1.195312 -5.671875 -0.710938 -5.425781 -0.359375 -4.9375 C -0.00390625 -4.457031 0.171875 -3.796875 0.171875 -2.953125 C 0.171875 -2.597656 0.132812 -2.226562 0.0625 -1.84375 C 0 -1.46875 -0.0976562 -1.070312 -0.234375 -0.65625 L -1.359375 -0.65625 C -1.148438 -1.050781 -0.992188 -1.441406 -0.890625 -1.828125 C -0.785156 -2.210938 -0.734375 -2.597656 -0.734375 -2.984375 C -0.734375 -3.484375 -0.816406 -3.867188 -0.984375 -4.140625 C -1.160156 -4.421875 -1.410156 -4.5625 -1.734375 -4.5625 C -2.023438 -4.5625 -2.25 -4.460938 -2.40625 -4.265625 C -2.5625 -4.066406 -2.710938 -3.632812 -2.859375 -2.96875 L -2.9375 -2.59375 C -3.082031 -1.925781 -3.300781 -1.441406 -3.59375 -1.140625 C -3.882812 -0.847656 -4.28125 -0.703125 -4.78125 -0.703125 C -5.40625 -0.703125 -5.882812 -0.921875 -6.21875 -1.359375 C -6.550781 -1.796875 -6.71875 -2.414062 -6.71875 -3.21875 C -6.71875 -3.613281 -6.6875 -3.988281 -6.625 -4.34375 C -6.570312 -4.695312 -6.488281 -5.019531 -6.375 -5.3125 Z M -6.375 -5.3125 "/>
</symbol>
<symbol overflow="visible" id="qVFcDl3M8-0">
<path style="stroke:none;" d="M 2.125 -0.59375 L -8.46875 -0.59375 L -8.46875 -6.59375 L 2.125 -6.59375 Z M 1.453125 -1.265625 L 1.453125 -5.9375 L -7.78125 -5.9375 L -7.78125 -1.265625 Z M 1.453125 -1.265625 "/>
</symbol>
<symbol overflow="visible" id="qVFcDl3M8-1">
<path style="stroke:none;" d="M -3.546875 -6.75 L -3.03125 -6.75 L -3.03125 -1.78125 C -2.28125 -1.832031 -1.710938 -2.054688 -1.328125 -2.453125 C -0.941406 -2.859375 -0.75 -3.414062 -0.75 -4.125 C -0.75 -4.539062 -0.796875 -4.941406 -0.890625 -5.328125 C -0.992188 -5.722656 -1.148438 -6.113281 -1.359375 -6.5 L -0.328125 -6.5 C -0.171875 -6.101562 -0.0507812 -5.703125 0.03125 -5.296875 C 0.125 -4.890625 0.171875 -4.476562 0.171875 -4.0625 C 0.171875 -3.019531 -0.128906 -2.191406 -0.734375 -1.578125 C -1.347656 -0.960938 -2.175781 -0.65625 -3.21875 -0.65625 C -4.289062 -0.65625 -5.140625 -0.945312 -5.765625 -1.53125 C -6.398438 -2.113281 -6.71875 -2.894531 -6.71875 -3.875 C -6.71875 -4.757812 -6.429688 -5.457031 -5.859375 -5.96875 C -5.296875 -6.488281 -4.523438 -6.75 -3.546875 -6.75 Z M -3.875 -5.671875 C -4.457031 -5.660156 -4.925781 -5.492188 -5.28125 -5.171875 C -5.632812 -4.847656 -5.8125 -4.421875 -5.8125 -3.890625 C -5.8125 -3.285156 -5.640625 -2.800781 -5.296875 -2.4375 C -4.953125 -2.082031 -4.472656 -1.878906 -3.859375 -1.828125 Z M -3.875 -5.671875 "/>
</symbol>
<symbol overflow="visible" id="qVFcDl3M9-0">
<path style="stroke:none;" d="M 2.125 -0.59375 L -8.46875 -0.59375 L -8.46875 -6.59375 L 2.125 -6.59375 Z M 1.453125 -1.265625 L 1.453125 -5.9375 L -7.78125 -5.9375 L -7.78125 -1.265625 Z M 1.453125 -1.265625 "/>
</symbol>
<symbol overflow="visible" id="qVFcDl3M9-1">
<path style="stroke:none;" d="M -3.96875 -6.59375 L 0 -6.59375 L 0 -5.515625 L -3.921875 -5.515625 C -4.546875 -5.515625 -5.007812 -5.390625 -5.3125 -5.140625 C -5.625 -4.898438 -5.78125 -4.539062 -5.78125 -4.0625 C -5.78125 -3.476562 -5.59375 -3.015625 -5.21875 -2.671875 C -4.851562 -2.335938 -4.347656 -2.171875 -3.703125 -2.171875 L 0 -2.171875 L 0 -1.09375 L -6.5625 -1.09375 L -6.5625 -2.171875 L -5.546875 -2.171875 C -5.941406 -2.429688 -6.234375 -2.734375 -6.421875 -3.078125 C -6.617188 -3.429688 -6.71875 -3.835938 -6.71875 -4.296875 C -6.71875 -5.046875 -6.484375 -5.613281 -6.015625 -6 C -5.554688 -6.394531 -4.875 -6.59375 -3.96875 -6.59375 Z M -3.96875 -6.59375 "/>
</symbol>
<symbol overflow="visible" id="qVFcDl3M9-2">
<path style="stroke:none;" d="M -6.5625 -1.125 L -6.5625 -2.203125 L 0 -2.203125 L 0 -1.125 Z M -9.125 -1.125 L -9.125 -2.203125 L -7.75 -2.203125 L -7.75 -1.125 Z M -9.125 -1.125 "/>
</symbol>
<symbol overflow="visible" id="qVFcDl3M9-3">
<path style="stroke:none;" d="M -8.421875 -2.203125 L -6.5625 -2.203125 L -6.5625 -4.421875 L -5.71875 -4.421875 L -5.71875 -2.203125 L -2.15625 -2.203125 C -1.625 -2.203125 -1.28125 -2.273438 -1.125 -2.421875 C -0.976562 -2.566406 -0.90625 -2.863281 -0.90625 -3.3125 L -0.90625 -4.421875 L 0 -4.421875 L 0 -3.3125 C 0 -2.476562 -0.15625 -1.898438 -0.46875 -1.578125 C -0.78125 -1.265625 -1.34375 -1.109375 -2.15625 -1.109375 L -5.71875 -1.109375 L -5.71875 -0.328125 L -6.5625 -0.328125 L -6.5625 -1.109375 L -8.421875 -1.109375 Z M -8.421875 -2.203125 "/>
</symbol>
<symbol overflow="visible" id="qVFcDl3M10-0">
<path style="stroke:none;" d="M 2.125 -0.59375 L -8.46875 -0.59375 L -8.46875 -6.59375 L 2.125 -6.59375 Z M 1.453125 -1.265625 L 1.453125 -5.9375 L -7.78125 -5.9375 L -7.78125 -1.265625 Z M 1.453125 -1.265625 "/>
</symbol>
<symbol overflow="visible" id="qVFcDl3M10-1">
<path style="stroke:none;" d="M 0.609375 -3.859375 C 1.390625 -3.554688 1.898438 -3.257812 2.140625 -2.96875 C 2.378906 -2.675781 2.5 -2.289062 2.5 -1.8125 L 2.5 -0.953125 L 1.59375 -0.953125 L 1.59375 -1.578125 C 1.59375 -1.878906 1.519531 -2.109375 1.375 -2.265625 C 1.238281 -2.429688 0.910156 -2.613281 0.390625 -2.8125 L -0.109375 -3.015625 L -6.5625 -0.359375 L -6.5625 -1.5 L -1.4375 -3.546875 L -6.5625 -5.609375 L -6.5625 -6.75 Z M 0.609375 -3.859375 "/>
</symbol>
<symbol overflow="visible" id="qVFcDl3M11-0">
<path style="stroke:none;" d="M 0.59375 2.125 L 0.59375 -8.46875 L 6.59375 -8.46875 L 6.59375 2.125 Z M 1.265625 1.453125 L 5.9375 1.453125 L 5.9375 -7.78125 L 1.265625 -7.78125 Z M 1.265625 1.453125 "/>
</symbol>
<symbol overflow="visible" id="qVFcDl3M11-1">
<path style="stroke:none;" d="M 1.28125 -1.484375 L 2.515625 -1.484375 L 2.515625 0 L 1.28125 0 Z M 1.28125 -1.484375 "/>
</symbol>
<symbol overflow="visible" id="qVFcDl3M11-2">
<path style="stroke:none;" d="M 3.8125 -4.15625 C 3.25 -4.15625 2.804688 -4.003906 2.484375 -3.703125 C 2.160156 -3.398438 2 -2.988281 2 -2.46875 C 2 -1.9375 2.160156 -1.519531 2.484375 -1.21875 C 2.804688 -0.914062 3.25 -0.765625 3.8125 -0.765625 C 4.375 -0.765625 4.816406 -0.914062 5.140625 -1.21875 C 5.460938 -1.519531 5.625 -1.9375 5.625 -2.46875 C 5.625 -2.988281 5.460938 -3.398438 5.140625 -3.703125 C 4.828125 -4.003906 4.382812 -4.15625 3.8125 -4.15625 Z M 2.625 -4.65625 C 2.125 -4.78125 1.726562 -5.015625 1.4375 -5.359375 C 1.15625 -5.710938 1.015625 -6.140625 1.015625 -6.640625 C 1.015625 -7.335938 1.265625 -7.890625 1.765625 -8.296875 C 2.265625 -8.703125 2.945312 -8.90625 3.8125 -8.90625 C 4.6875 -8.90625 5.367188 -8.703125 5.859375 -8.296875 C 6.359375 -7.890625 6.609375 -7.335938 6.609375 -6.640625 C 6.609375 -6.140625 6.46875 -5.710938 6.1875 -5.359375 C 5.90625 -5.015625 5.507812 -4.78125 5 -4.65625 C 5.570312 -4.519531 6.015625 -4.257812 6.328125 -3.875 C 6.648438 -3.488281 6.8125 -3.019531 6.8125 -2.46875 C 6.8125 -1.613281 6.550781 -0.957031 6.03125 -0.5 C 5.519531 -0.0507812 4.78125 0.171875 3.8125 0.171875 C 2.851562 0.171875 2.113281 -0.0507812 1.59375 -0.5 C 1.070312 -0.957031 0.8125 -1.613281 0.8125 -2.46875 C 0.8125 -3.019531 0.972656 -3.488281 1.296875 -3.875 C 1.617188 -4.257812 2.0625 -4.519531 2.625 -4.65625 Z M 2.203125 -6.53125 C 2.203125 -6.070312 2.34375 -5.71875 2.625 -5.46875 C 2.90625 -5.21875 3.300781 -5.09375 3.8125 -5.09375 C 4.320312 -5.09375 4.71875 -5.21875 5 -5.46875 C 5.289062 -5.71875 5.4375 -6.070312 5.4375 -6.53125 C 5.4375 -6.976562 5.289062 -7.328125 5 -7.578125 C 4.71875 -7.835938 4.320312 -7.96875 3.8125 -7.96875 C 3.300781 -7.96875 2.90625 -7.835938 2.625 -7.578125 C 2.34375 -7.328125 2.203125 -6.976562 2.203125 -6.53125 Z M 2.203125 -6.53125 "/>
</symbol>
<symbol overflow="visible" id="qVFcDl3M11-3">
<path style="stroke:none;" d="M 1.015625 -2.59375 L 1.015625 -6.5625 L 2.09375 -6.5625 L 2.09375 -2.625 C 2.09375 -2.007812 2.210938 -1.546875 2.453125 -1.234375 C 2.703125 -0.921875 3.066406 -0.765625 3.546875 -0.765625 C 4.128906 -0.765625 4.585938 -0.945312 4.921875 -1.3125 C 5.265625 -1.6875 5.4375 -2.195312 5.4375 -2.84375 L 5.4375 -6.5625 L 6.515625 -6.5625 L 6.515625 0 L 5.4375 0 L 5.4375 -1.015625 C 5.175781 -0.609375 4.875 -0.304688 4.53125 -0.109375 C 4.1875 0.078125 3.785156 0.171875 3.328125 0.171875 C 2.566406 0.171875 1.988281 -0.0625 1.59375 -0.53125 C 1.207031 -1 1.015625 -1.6875 1.015625 -2.59375 Z M 3.734375 -6.71875 Z M 3.734375 -6.71875 "/>
</symbol>
<symbol overflow="visible" id="qVFcDl3M12-0">
<path style="stroke:none;" d="M 0.59375 2.125 L 0.59375 -8.46875 L 6.59375 -8.46875 L 6.59375 2.125 Z M 1.265625 1.453125 L 5.9375 1.453125 L 5.9375 -7.78125 L 1.265625 -7.78125 Z M 1.265625 1.453125 "/>
</symbol>
<symbol overflow="visible" id="qVFcDl3M12-1">
<path style="stroke:none;" d="M 1.28125 -1.484375 L 2.515625 -1.484375 L 2.515625 0 L 1.28125 0 Z M 1.28125 -1.484375 "/>
</symbol>
<symbol overflow="visible" id="qVFcDl3M13-0">
<path style="stroke:none;" d="M 0.59375 2.125 L 0.59375 -8.46875 L 6.59375 -8.46875 L 6.59375 2.125 Z M 1.265625 1.453125 L 5.9375 1.453125 L 5.9375 -7.78125 L 1.265625 -7.78125 Z M 1.265625 1.453125 "/>
</symbol>
<symbol overflow="visible" id="qVFcDl3M13-1">
<path style="stroke:none;" d="M 2.203125 -0.40625 L 2.203125 2.5 L 1.125 2.5 L 1.125 -6.515625 C 1.125 -8.296875 1.957031 -9.1875 3.625 -9.1875 C 5.320312 -9.1875 6.171875 -8.4375 6.171875 -6.9375 C 6.171875 -5.863281 5.832031 -5.132812 5.15625 -4.75 C 6.25 -4.394531 6.796875 -3.695312 6.796875 -2.65625 C 6.796875 -0.800781 5.851562 0.125 3.96875 0.125 C 3.144531 0.125 2.554688 -0.0507812 2.203125 -0.40625 Z M 2.203125 -1.8125 C 2.640625 -1.132812 3.242188 -0.796875 4.015625 -0.796875 C 5.140625 -0.796875 5.703125 -1.410156 5.703125 -2.640625 C 5.703125 -3.742188 4.796875 -4.25 2.984375 -4.15625 L 2.984375 -5.15625 C 4.398438 -5.15625 5.109375 -5.78125 5.109375 -7.03125 C 5.109375 -7.882812 4.648438 -8.3125 3.734375 -8.3125 C 2.710938 -8.3125 2.203125 -7.703125 2.203125 -6.484375 Z M 2.203125 -1.8125 "/>
</symbol>
<symbol overflow="visible" id="qVFcDl3M13-2">
<path style="stroke:none;" d="M 3.109375 -3.109375 C 3.035156 -3.140625 2.953125 -3.164062 2.859375 -3.1875 C 2.765625 -3.207031 2.664062 -3.21875 2.5625 -3.21875 C 2.175781 -3.21875 1.878906 -3.101562 1.671875 -2.875 C 1.472656 -2.65625 1.375 -2.335938 1.375 -1.921875 L 1.375 0 L 0.6875 0 L 0.6875 -3.671875 L 1.375 -3.671875 L 1.375 -3.09375 C 1.507812 -3.320312 1.691406 -3.488281 1.921875 -3.59375 C 2.148438 -3.695312 2.429688 -3.75 2.765625 -3.75 C 2.804688 -3.75 2.851562 -3.75 2.90625 -3.75 C 2.96875 -3.75 3.035156 -3.738281 3.109375 -3.71875 Z M 3.109375 -3.109375 "/>
</symbol>
<symbol overflow="visible" id="qVFcDl3M14-0">
<path style="stroke:none;" d="M 0.59375 2.125 L 0.59375 -8.46875 L 6.59375 -8.46875 L 6.59375 2.125 Z M 1.265625 1.453125 L 5.9375 1.453125 L 5.9375 -7.78125 L 1.265625 -7.78125 Z M 1.265625 1.453125 "/>
</symbol>
<symbol overflow="visible" id="qVFcDl3M14-1">
<path style="stroke:none;" d="M 2.203125 -0.40625 L 2.203125 2.5 L 1.125 2.5 L 1.125 -6.515625 C 1.125 -8.296875 1.957031 -9.1875 3.625 -9.1875 C 5.320312 -9.1875 6.171875 -8.4375 6.171875 -6.9375 C 6.171875 -5.863281 5.832031 -5.132812 5.15625 -4.75 C 6.25 -4.394531 6.796875 -3.695312 6.796875 -2.65625 C 6.796875 -0.800781 5.851562 0.125 3.96875 0.125 C 3.144531 0.125 2.554688 -0.0507812 2.203125 -0.40625 Z M 2.203125 -1.8125 C 2.640625 -1.132812 3.242188 -0.796875 4.015625 -0.796875 C 5.140625 -0.796875 5.703125 -1.410156 5.703125 -2.640625 C 5.703125 -3.742188 4.796875 -4.25 2.984375 -4.15625 L 2.984375 -5.15625 C 4.398438 -5.15625 5.109375 -5.78125 5.109375 -7.03125 C 5.109375 -7.882812 4.648438 -8.3125 3.734375 -8.3125 C 2.710938 -8.3125 2.203125 -7.703125 2.203125 -6.484375 Z M 2.203125 -1.8125 "/>
</symbol>
<symbol overflow="visible" id="qVFcDl3M14-2">
<path style="stroke:none;" d="M 2.59375 -1.84375 C 2.039062 -1.84375 1.660156 -1.785156 1.453125 -1.671875 C 1.234375 -1.554688 1.125 -1.363281 1.125 -1.09375 C 1.125 -0.882812 1.203125 -0.71875 1.359375 -0.59375 C 1.523438 -0.46875 1.742188 -0.40625 2.015625 -0.40625 C 2.390625 -0.40625 2.691406 -0.523438 2.921875 -0.765625 C 3.148438 -1.003906 3.265625 -1.316406 3.265625 -1.703125 L 3.265625 -1.84375 Z M 3.9375 -2.09375 L 3.9375 0 L 3.265625 0 L 3.265625 -0.546875 C 3.109375 -0.328125 2.914062 -0.164062 2.6875 -0.0625 C 2.457031 0.0390625 2.175781 0.09375 1.84375 0.09375 C 1.414062 0.09375 1.078125 -0.0078125 0.828125 -0.21875 C 0.578125 -0.425781 0.453125 -0.707031 0.453125 -1.0625 C 0.453125 -1.476562 0.609375 -1.789062 0.921875 -2 C 1.234375 -2.207031 1.695312 -2.3125 2.3125 -2.3125 L 3.265625 -2.3125 L 3.265625 -2.375 C 3.265625 -2.644531 3.160156 -2.859375 2.953125 -3.015625 C 2.753906 -3.171875 2.46875 -3.25 2.09375 -3.25 C 1.851562 -3.25 1.625 -3.222656 1.40625 -3.171875 C 1.175781 -3.117188 0.957031 -3.039062 0.75 -2.9375 L 0.75 -3.5 C 1 -3.582031 1.242188 -3.644531 1.484375 -3.6875 C 1.710938 -3.726562 1.9375 -3.75 2.15625 -3.75 C 2.757812 -3.75 3.207031 -3.613281 3.5 -3.34375 C 3.789062 -3.0625 3.9375 -2.644531 3.9375 -2.09375 Z M 3.9375 -2.09375 "/>
</symbol>
<symbol overflow="visible" id="qVFcDl3M15-0">
<path style="stroke:none;" d="M 0.59375 2.125 L 0.59375 -8.46875 L 6.59375 -8.46875 L 6.59375 2.125 Z M 1.265625 1.453125 L 5.9375 1.453125 L 5.9375 -7.78125 L 1.265625 -7.78125 Z M 1.265625 1.453125 "/>
</symbol>
<symbol overflow="visible" id="qVFcDl3M15-1">
<path style="stroke:none;" d="M 5.859375 -6.3125 L 5.859375 -5.296875 C 5.546875 -5.472656 5.238281 -5.601562 4.9375 -5.6875 C 4.632812 -5.769531 4.328125 -5.8125 4.015625 -5.8125 C 3.304688 -5.8125 2.757812 -5.585938 2.375 -5.140625 C 1.988281 -4.703125 1.796875 -4.082031 1.796875 -3.28125 C 1.796875 -2.476562 1.988281 -1.851562 2.375 -1.40625 C 2.757812 -0.96875 3.304688 -0.75 4.015625 -0.75 C 4.328125 -0.75 4.632812 -0.789062 4.9375 -0.875 C 5.238281 -0.957031 5.546875 -1.082031 5.859375 -1.25 L 5.859375 -0.25 C 5.554688 -0.113281 5.242188 -0.0078125 4.921875 0.0625 C 4.597656 0.132812 4.253906 0.171875 3.890625 0.171875 C 2.898438 0.171875 2.113281 -0.132812 1.53125 -0.75 C 0.945312 -1.375 0.65625 -2.21875 0.65625 -3.28125 C 0.65625 -4.34375 0.945312 -5.179688 1.53125 -5.796875 C 2.125 -6.410156 2.9375 -6.71875 3.96875 -6.71875 C 4.289062 -6.71875 4.609375 -6.679688 4.921875 -6.609375 C 5.242188 -6.546875 5.554688 -6.445312 5.859375 -6.3125 Z M 5.859375 -6.3125 "/>
</symbol>
<symbol overflow="visible" id="qVFcDl3M15-2">
<path style="stroke:none;" d="M 4.109375 -3.296875 C 3.242188 -3.296875 2.640625 -3.195312 2.296875 -3 C 1.960938 -2.800781 1.796875 -2.460938 1.796875 -1.984375 C 1.796875 -1.597656 1.921875 -1.289062 2.171875 -1.0625 C 2.429688 -0.84375 2.773438 -0.734375 3.203125 -0.734375 C 3.804688 -0.734375 4.285156 -0.941406 4.640625 -1.359375 C 5.003906 -1.785156 5.1875 -2.351562 5.1875 -3.0625 L 5.1875 -3.296875 Z M 6.265625 -3.75 L 6.265625 0 L 5.1875 0 L 5.1875 -1 C 4.9375 -0.601562 4.628906 -0.304688 4.265625 -0.109375 C 3.898438 0.078125 3.453125 0.171875 2.921875 0.171875 C 2.242188 0.171875 1.707031 -0.015625 1.3125 -0.390625 C 0.914062 -0.773438 0.71875 -1.28125 0.71875 -1.90625 C 0.71875 -2.644531 0.960938 -3.203125 1.453125 -3.578125 C 1.953125 -3.953125 2.691406 -4.140625 3.671875 -4.140625 L 5.1875 -4.140625 L 5.1875 -4.25 C 5.1875 -4.75 5.019531 -5.132812 4.6875 -5.40625 C 4.363281 -5.675781 3.910156 -5.8125 3.328125 -5.8125 C 2.953125 -5.8125 2.582031 -5.765625 2.21875 -5.671875 C 1.863281 -5.578125 1.523438 -5.441406 1.203125 -5.265625 L 1.203125 -6.265625 C 1.597656 -6.421875 1.976562 -6.535156 2.34375 -6.609375 C 2.71875 -6.679688 3.082031 -6.71875 3.4375 -6.71875 C 4.382812 -6.71875 5.09375 -6.472656 5.5625 -5.984375 C 6.03125 -5.492188 6.265625 -4.75 6.265625 -3.75 Z M 6.265625 -3.75 "/>
</symbol>
<symbol overflow="visible" id="qVFcDl3M16-0">
<path style="stroke:none;" d="M 0.59375 2.125 L 0.59375 -8.46875 L 6.59375 -8.46875 L 6.59375 2.125 Z M 1.265625 1.453125 L 5.9375 1.453125 L 5.9375 -7.78125 L 1.265625 -7.78125 Z M 1.265625 1.453125 "/>
</symbol>
<symbol overflow="visible" id="qVFcDl3M16-1">
<path style="stroke:none;" d="M 6.59375 -3.96875 L 6.59375 0 L 5.515625 0 L 5.515625 -3.921875 C 5.515625 -4.546875 5.390625 -5.007812 5.140625 -5.3125 C 4.898438 -5.625 4.539062 -5.78125 4.0625 -5.78125 C 3.476562 -5.78125 3.015625 -5.59375 2.671875 -5.21875 C 2.335938 -4.851562 2.171875 -4.347656 2.171875 -3.703125 L 2.171875 0 L 1.09375 0 L 1.09375 -9.125 L 2.171875 -9.125 L 2.171875 -5.546875 C 2.429688 -5.941406 2.734375 -6.234375 3.078125 -6.421875 C 3.429688 -6.617188 3.835938 -6.71875 4.296875 -6.71875 C 5.046875 -6.71875 5.613281 -6.484375 6 -6.015625 C 6.394531 -5.554688 6.59375 -4.875 6.59375 -3.96875 Z M 6.59375 -3.96875 "/>
</symbol>
<symbol overflow="visible" id="qVFcDl3M16-2">
<path style="stroke:none;" d="M 1.125 -6.5625 L 2.203125 -6.5625 L 2.203125 0 L 1.125 0 Z M 1.125 -9.125 L 2.203125 -9.125 L 2.203125 -7.75 L 1.125 -7.75 Z M 1.125 -9.125 "/>
</symbol>
<symbol overflow="visible" id="qVFcDl3M16-3">
<path style="stroke:none;" d="M 6.59375 -3.96875 L 6.59375 0 L 5.515625 0 L 5.515625 -3.921875 C 5.515625 -4.546875 5.390625 -5.007812 5.140625 -5.3125 C 4.898438 -5.625 4.539062 -5.78125 4.0625 -5.78125 C 3.476562 -5.78125 3.015625 -5.59375 2.671875 -5.21875 C 2.335938 -4.851562 2.171875 -4.347656 2.171875 -3.703125 L 2.171875 0 L 1.09375 0 L 1.09375 -6.5625 L 2.171875 -6.5625 L 2.171875 -5.546875 C 2.429688 -5.941406 2.734375 -6.234375 3.078125 -6.421875 C 3.429688 -6.617188 3.835938 -6.71875 4.296875 -6.71875 C 5.046875 -6.71875 5.613281 -6.484375 6 -6.015625 C 6.394531 -5.554688 6.59375 -4.875 6.59375 -3.96875 Z M 6.59375 -3.96875 "/>
</symbol>
<symbol overflow="visible" id="qVFcDl3M17-0">
<path style="stroke:none;" d="M 0.59375 2.125 L 0.59375 -8.46875 L 6.59375 -8.46875 L 6.59375 2.125 Z M 1.265625 1.453125 L 5.9375 1.453125 L 5.9375 -7.78125 L 1.265625 -7.78125 Z M 1.265625 1.453125 "/>
</symbol>
<symbol overflow="visible" id="qVFcDl3M17-1">
<path style="stroke:none;" d="M 2.296875 -1 L 6.4375 -1 L 6.4375 0 L 0.875 0 L 0.875 -1 C 1.320312 -1.457031 1.929688 -2.078125 2.703125 -2.859375 C 3.484375 -3.648438 3.972656 -4.160156 4.171875 -4.390625 C 4.554688 -4.804688 4.820312 -5.160156 4.96875 -5.453125 C 5.125 -5.753906 5.203125 -6.046875 5.203125 -6.328125 C 5.203125 -6.796875 5.035156 -7.175781 4.703125 -7.46875 C 4.378906 -7.757812 3.957031 -7.90625 3.4375 -7.90625 C 3.0625 -7.90625 2.664062 -7.84375 2.25 -7.71875 C 1.84375 -7.59375 1.40625 -7.394531 0.9375 -7.125 L 0.9375 -8.328125 C 1.414062 -8.515625 1.859375 -8.65625 2.265625 -8.75 C 2.679688 -8.851562 3.0625 -8.90625 3.40625 -8.90625 C 4.3125 -8.90625 5.035156 -8.675781 5.578125 -8.21875 C 6.117188 -7.769531 6.390625 -7.164062 6.390625 -6.40625 C 6.390625 -6.050781 6.320312 -5.710938 6.1875 -5.390625 C 6.050781 -5.066406 5.804688 -4.6875 5.453125 -4.25 C 5.347656 -4.132812 5.035156 -3.804688 4.515625 -3.265625 C 3.992188 -2.722656 3.253906 -1.96875 2.296875 -1 Z M 2.296875 -1 "/>
</symbol>
</g>
<clipPath id="clip1">
  <path d="M 50.25 37 L 278.25 37 L 278.25 401 L 50.25 401 Z M 50.25 37 "/>
</clipPath>
<clipPath id="clip2">
  <path d="M 50.25 30 L 278.25 30 L 278.25 401 L 50.25 401 Z M 50.25 30 "/>
</clipPath>
<clipPath id="clip3">
  <path d="M 50.25 33 L 278.25 33 L 278.25 401 L 50.25 401 Z M 50.25 33 "/>
</clipPath>
<clipPath id="clip4">
  <path d="M 296.25 211 L 524.25 211 L 524.25 401 L 296.25 401 Z M 296.25 211 "/>
</clipPath>
<clipPath id="clip5">
  <path d="M 296.25 204 L 524.25 204 L 524.25 401 L 296.25 401 Z M 296.25 204 "/>
</clipPath>
<clipPath id="clip6">
  <path d="M 296.25 195 L 524.25 195 L 524.25 401 L 296.25 401 Z M 296.25 195 "/>
</clipPath>
<clipPath id="clip7">
  <path d="M 542.25 175 L 588 175 L 588 256.5 L 542.25 256.5 Z M 542.25 175 "/>
</clipPath>
<clipPath id="clip8">
  <path d="M 542.25 174.75 L 588 174.75 L 588 256.5 L 542.25 256.5 Z M 542.25 174.75 "/>
</clipPath>
</defs>
<g id="surface1">
<rect x="0" y="0" width="600" height="450" style="fill:rgb(100%,100%,100%);fill-opacity:1;stroke:none;"/>
<path style=" stroke:none;fill-rule:nonzero;fill:rgb(100%,100%,100%);fill-opacity:1;" d="M 50.25 402 L 278.25 402 L 278.25 29.25 L 50.25 29.25 Z M 50.25 402 "/>
<path style=" stroke:none;fill-rule:nonzero;fill:rgb(100%,100%,100%);fill-opacity:1;" d="M 296.25 402 L 524.25 402 L 524.25 29.25 L 296.25 29.25 Z M 296.25 402 "/>
<path style="fill:none;stroke-width:1;stroke-linecap:butt;stroke-linejoin:miter;stroke:rgb(0%,0%,0%);stroke-opacity:0.12;stroke-miterlimit:10;" d="M 98.09375 536 L 98.09375 39 " transform="matrix(0.75,0,0,0.75,0,0)"/>
<path style="fill:none;stroke-width:1;stroke-linecap:butt;stroke-linejoin:miter;stroke:rgb(0%,0%,0%);stroke-opacity:0.12;stroke-miterlimit:10;" d="M 194.458333 536 L 194.458333 39 " transform="matrix(0.75,0,0,0.75,0,0)"/>
<path style="fill:none;stroke-width:1;stroke-linecap:butt;stroke-linejoin:miter;stroke:rgb(0%,0%,0%);stroke-opacity:0.12;stroke-miterlimit:10;" d="M 290.828125 536 L 290.828125 39 " transform="matrix(0.75,0,0,0.75,0,0)"/>
<path style="fill:none;stroke-width:1;stroke-linecap:butt;stroke-linejoin:miter;stroke:rgb(0%,0%,0%);stroke-opacity:0.12;stroke-miterlimit:10;" d="M 67 513.411458 L 371 513.411458 " transform="matrix(0.75,0,0,0.75,0,0)"/>
<path style="fill:none;stroke-width:1;stroke-linecap:butt;stroke-linejoin:miter;stroke:rgb(0%,0%,0%);stroke-opacity:0.12;stroke-miterlimit:10;" d="M 67 320.255208 L 371 320.255208 " transform="matrix(0.75,0,0,0.75,0,0)"/>
<path style="fill:none;stroke-width:1;stroke-linecap:butt;stroke-linejoin:miter;stroke:rgb(0%,0%,0%);stroke-opacity:0.12;stroke-miterlimit:10;" d="M 67 127.098958 L 371 127.098958 " transform="matrix(0.75,0,0,0.75,0,0)"/>
<path style="fill:none;stroke-width:1;stroke-linecap:butt;stroke-linejoin:miter;stroke:rgb(0%,0%,0%);stroke-opacity:0.12;stroke-miterlimit:10;" d="M 426.09375 536 L 426.09375 39 " transform="matrix(0.75,0,0,0.75,0,0)"/>
<path style="fill:none;stroke-width:1;stroke-linecap:butt;stroke-linejoin:miter;stroke:rgb(0%,0%,0%);stroke-opacity:0.12;stroke-miterlimit:10;" d="M 522.458333 536 L 522.458333 39 " transform="matrix(0.75,0,0,0.75,0,0)"/>
<path style="fill:none;stroke-width:1;stroke-linecap:butt;stroke-linejoin:miter;stroke:rgb(0%,0%,0%);stroke-opacity:0.12;stroke-miterlimit:10;" d="M 618.828125 536 L 618.828125 39 " transform="matrix(0.75,0,0,0.75,0,0)"/>
<path style="fill:none;stroke-width:1;stroke-linecap:butt;stroke-linejoin:miter;stroke:rgb(0%,0%,0%);stroke-opacity:0.12;stroke-miterlimit:10;" d="M 395 513.411458 L 699 513.411458 " transform="matrix(0.75,0,0,0.75,0,0)"/>
<path style="fill:none;stroke-width:1;stroke-linecap:butt;stroke-linejoin:miter;stroke:rgb(0%,0%,0%);stroke-opacity:0.12;stroke-miterlimit:10;" d="M 395 320.255208 L 699 320.255208 " transform="matrix(0.75,0,0,0.75,0,0)"/>
<path style="fill:none;stroke-width:1;stroke-linecap:butt;stroke-linejoin:miter;stroke:rgb(0%,0%,0%);stroke-opacity:0.12;stroke-miterlimit:10;" d="M 395 127.098958 L 699 127.098958 " transform="matrix(0.75,0,0,0.75,0,0)"/>
<g style="fill:rgb(0%,0%,0%);fill-opacity:1;">
  <use xlink:href="#qVFcDl3M0-1" x="64.449219" y="419.890625"/>
</g>
<g style="fill:rgb(0%,0%,0%);fill-opacity:1;">
  <use xlink:href="#qVFcDl3M0-2" x="72.085938" y="419.890625"/>
</g>
<g style="fill:rgb(0%,0%,0%);fill-opacity:1;">
  <use xlink:href="#qVFcDl3M1-1" x="75.898438" y="419.890625"/>
</g>
<g style="fill:rgb(0%,0%,0%);fill-opacity:1;">
  <use xlink:href="#qVFcDl3M2-1" x="136.4375" y="419.890625"/>
</g>
<g style="fill:rgb(0%,0%,0%);fill-opacity:1;">
  <use xlink:href="#qVFcDl3M3-1" x="144.074219" y="419.890625"/>
</g>
<g style="fill:rgb(0%,0%,0%);fill-opacity:1;">
  <use xlink:href="#qVFcDl3M2-2" x="147.886719" y="419.890625"/>
</g>
<g style="fill:rgb(0%,0%,0%);fill-opacity:1;">
  <use xlink:href="#qVFcDl3M4-1" x="208.957031" y="419.890625"/>
</g>
<g style="fill:rgb(0%,0%,0%);fill-opacity:1;">
  <use xlink:href="#qVFcDl3M4-2" x="216.59375" y="419.890625"/>
</g>
<g style="fill:rgb(0%,0%,0%);fill-opacity:1;">
  <use xlink:href="#qVFcDl3M4-3" x="220.40625" y="419.890625"/>
</g>
<g style="fill:rgb(0%,0%,0%);fill-opacity:1;">
  <use xlink:href="#qVFcDl3M0-1" x="35.953125" y="389.210938"/>
</g>
<g style="fill:rgb(0%,0%,0%);fill-opacity:1;">
  <use xlink:href="#qVFcDl3M0-3" x="36.339844" y="244.34375"/>
</g>
<g style="fill:rgb(0%,0%,0%);fill-opacity:1;">
  <use xlink:href="#qVFcDl3M5-1" x="28.316406" y="99.480469"/>
</g>
<g style="fill:rgb(0%,0%,0%);fill-opacity:1;">
  <use xlink:href="#qVFcDl3M6-1" x="35.953125" y="99.480469"/>
</g>
<g style="fill:rgb(0%,0%,0%);fill-opacity:1;">
  <use xlink:href="#qVFcDl3M7-1" x="22.128906" y="237.597656"/>
</g>
<g style="fill:rgb(0%,0%,0%);fill-opacity:1;">
  <use xlink:href="#qVFcDl3M8-1" x="22.128906" y="229.980469"/>
</g>
<g style="fill:rgb(0%,0%,0%);fill-opacity:1;">
  <use xlink:href="#qVFcDl3M9-1" x="22.128906" y="222.597656"/>
</g>
<g style="fill:rgb(0%,0%,0%);fill-opacity:1;">
  <use xlink:href="#qVFcDl3M7-2" x="22.128906" y="214.992188"/>
</g>
<g style="fill:rgb(0%,0%,0%);fill-opacity:1;">
  <use xlink:href="#qVFcDl3M9-2" x="22.128906" y="208.742187"/>
</g>
<g style="fill:rgb(0%,0%,0%);fill-opacity:1;">
  <use xlink:href="#qVFcDl3M9-3" x="22.128906" y="205.40625"/>
</g>
<g style="fill:rgb(0%,0%,0%);fill-opacity:1;">
  <use xlink:href="#qVFcDl3M10-1" x="22.128906" y="200.703125"/>
</g>
<g style="fill:rgb(0%,0%,0%);fill-opacity:1;">
  <use xlink:href="#qVFcDl3M3-2" x="310.449219" y="419.890625"/>
</g>
<g style="fill:rgb(0%,0%,0%);fill-opacity:1;">
  <use xlink:href="#qVFcDl3M11-1" x="318.085938" y="419.890625"/>
</g>
<g style="fill:rgb(0%,0%,0%);fill-opacity:1;">
  <use xlink:href="#qVFcDl3M11-2" x="321.898438" y="419.890625"/>
</g>
<g style="fill:rgb(0%,0%,0%);fill-opacity:1;">
  <use xlink:href="#qVFcDl3M4-1" x="382.4375" y="419.890625"/>
</g>
<g style="fill:rgb(0%,0%,0%);fill-opacity:1;">
  <use xlink:href="#qVFcDl3M12-1" x="390.074219" y="419.890625"/>
</g>
<g style="fill:rgb(0%,0%,0%);fill-opacity:1;">
  <use xlink:href="#qVFcDl3M4-4" x="393.886719" y="419.890625"/>
</g>
<g style="fill:rgb(0%,0%,0%);fill-opacity:1;">
  <use xlink:href="#qVFcDl3M4-1" x="454.957031" y="419.890625"/>
</g>
<g style="fill:rgb(0%,0%,0%);fill-opacity:1;">
  <use xlink:href="#qVFcDl3M12-1" x="462.59375" y="419.890625"/>
</g>
<g style="fill:rgb(0%,0%,0%);fill-opacity:1;">
  <use xlink:href="#qVFcDl3M4-3" x="466.40625" y="419.890625"/>
</g>
<g style="fill:rgb(0%,0%,0%);fill-opacity:1;">
  <use xlink:href="#qVFcDl3M13-1" x="158.824219" y="23.136719"/>
</g>
<g style="fill:rgb(0%,0%,0%);fill-opacity:1;">
  <use xlink:href="#qVFcDl3M13-2" x="166.484375" y="23.136719"/>
</g>
<g style="fill:rgb(0%,0%,0%);fill-opacity:1;">
  <use xlink:href="#qVFcDl3M14-1" x="404.128906" y="23.136719"/>
</g>
<g style="fill:rgb(0%,0%,0%);fill-opacity:1;">
  <use xlink:href="#qVFcDl3M14-2" x="411.785156" y="23.136719"/>
</g>
<g style="fill:rgb(0%,0%,0%);fill-opacity:1;">
  <use xlink:href="#qVFcDl3M4-5" x="271.429688" y="435.171875"/>
</g>
<g style="fill:rgb(0%,0%,0%);fill-opacity:1;">
  <use xlink:href="#qVFcDl3M4-6" x="278.53125" y="435.171875"/>
</g>
<g style="fill:rgb(0%,0%,0%);fill-opacity:1;">
  <use xlink:href="#qVFcDl3M4-7" x="285.882812" y="435.171875"/>
</g>
<g style="fill:rgb(0%,0%,0%);fill-opacity:1;">
  <use xlink:href="#qVFcDl3M11-3" x="289.21875" y="435.171875"/>
</g>
<g style="fill:rgb(0%,0%,0%);fill-opacity:1;">
  <use xlink:href="#qVFcDl3M4-8" x="296.824219" y="435.171875"/>
</g>
<g clip-path="url(#clip1)" clip-rule="nonzero">
<path style="fill:none;stroke-width:1.5;stroke-linecap:butt;stroke-linejoin:miter;stroke:rgb(0%,44.705883%,69.803923%);stroke-opacity:1;stroke-miterlimit:10;" d="M 80.817708 513.411458 L 161.364583 513.411458 L 164.145833 513.401042 L 165.53125 513.369792 L 166.921875 513.265625 L 168.3125 513.041667 L 169.697917 512.625 L 171.088542 512.052083 L 172.473958 511.463542 L 173.864583 511.083333 L 175.255208 510.989583 L 176.640625 511.041667 L 178.03125 511.104167 L 179.421875 511.119792 L 180.807292 511.010417 L 182.197917 510.609375 L 183.588542 509.723958 L 184.973958 508.0625 L 186.364583 505.369792 L 187.755208 501.677083 L 189.140625 497.40625 L 190.53125 492.875 L 191.916667 488.0625 L 193.307292 482.927083 L 194.697917 478 L 196.083333 473.921875 L 197.473958 470.234375 L 198.864583 465.104167 L 200.25 456.578125 L 201.640625 444.020833 L 203.03125 428.151042 L 204.416667 409.859375 L 205.807292 389.4375 L 207.197917 367.328125 L 208.583333 344.682292 L 209.973958 322.541667 L 211.359375 300.90625 L 212.75 279.354167 L 214.140625 258.385417 L 215.526042 238.953125 L 216.916667 220.161458 L 218.307292 199.234375 L 219.692708 174.791667 L 221.083333 149.0625 L 222.473958 126.192708 L 223.859375 108.776042 L 225.25 96.489583 L 226.640625 87.786458 L 228.026042 81.770833 L 229.416667 78.171875 L 230.802083 76.046875 L 232.192708 73.78125 L 233.583333 71.854167 L 234.96875 73.588542 L 236.359375 80.885417 L 237.75 91.90625 L 239.135417 104.197917 L 240.526042 117.359375 L 241.916667 132.515625 L 243.302083 151.088542 L 244.692708 173.46875 L 246.083333 198.239583 L 247.46875 223.473958 L 248.859375 248.229167 L 250.244792 272.036458 L 251.635417 294.640625 L 253.026042 316.557292 L 254.411458 338.057292 L 255.802083 358.1875 L 257.192708 376.015625 L 258.578125 391.557292 L 259.96875 405.348958 L 261.359375 417.901042 L 262.744792 429.567708 L 264.135417 440.677083 L 265.526042 451.265625 L 266.911458 460.739583 L 268.302083 468.645833 L 269.6875 475.4375 L 271.078125 481.65625 L 272.46875 487.0625 L 273.854167 491.239583 L 275.244792 494.317708 L 276.635417 496.776042 L 278.020833 498.953125 L 279.411458 500.927083 L 280.802083 502.838542 L 282.1875 504.927083 L 283.578125 507.088542 L 284.96875 508.833333 L 286.354167 509.973958 L 287.744792 510.802083 L 289.130208 511.572917 L 290.520833 512.234375 L 291.911458 512.666667 L 293.296875 512.875 L 294.6875 512.963542 L 296.078125 513.026042 L 297.463542 513.125 L 298.854167 513.213542 L 300.244792 513.21875 L 301.630208 513.151042 L 303.020833 513.09375 L 304.411458 513.125 L 305.796875 513.223958 L 307.1875 513.328125 L 308.572917 513.380208 L 309.963542 513.401042 L 311.354167 513.40625 L 312.739583 513.411458 L 357.182292 513.411458 " transform="matrix(0.75,0,0,0.75,0,0)"/>
</g>
<path style=" stroke:none;fill-rule:nonzero;fill:rgb(0%,44.705883%,69.803923%);fill-opacity:0.15;" d="M 60.613281 385.058594 L 121.023438 385.058594 L 123.109375 385.050781 L 124.148438 385.027344 L 125.191406 384.949219 L 126.234375 384.78125 L 127.273438 384.46875 L 128.316406 384.039062 L 129.355469 383.597656 L 130.398438 383.3125 L 131.441406 383.242188 L 132.480469 383.28125 L 133.523438 383.328125 L 134.566406 383.339844 L 135.605469 383.257812 L 136.648438 382.957031 L 137.691406 382.292969 L 138.730469 381.046875 L 139.773438 379.027344 L 140.816406 376.257812 L 141.855469 373.054688 L 142.898438 369.65625 L 143.9375 366.046875 L 144.980469 362.195312 L 146.023438 358.5 L 147.0625 355.441406 L 148.105469 352.675781 L 149.148438 348.828125 L 150.1875 342.433594 L 151.230469 333.015625 L 152.273438 321.113281 L 153.3125 307.394531 L 154.355469 292.078125 L 155.398438 275.496094 L 156.4375 258.511719 L 157.480469 241.90625 L 158.519531 225.679688 L 159.5625 209.515625 L 160.605469 193.789062 L 161.644531 179.214844 L 162.6875 165.121094 L 163.730469 149.425781 L 164.769531 131.09375 L 165.8125 111.796875 L 166.855469 94.644531 L 167.894531 81.582031 L 168.9375 72.367188 L 169.980469 65.839844 L 171.019531 61.328125 L 172.0625 58.628906 L 173.101562 57.035156 L 174.144531 55.335938 L 175.1875 53.890625 L 176.226562 55.191406 L 177.269531 60.664062 L 178.3125 68.929688 L 179.351562 78.148438 L 180.394531 88.019531 L 181.4375 99.386719 L 182.476562 113.316406 L 183.519531 130.101562 L 184.5625 148.679688 L 185.601562 167.605469 L 186.644531 186.171875 L 187.683594 204.027344 L 188.726562 220.980469 L 189.769531 237.417969 L 190.808594 253.542969 L 191.851562 268.640625 L 192.894531 282.011719 L 193.933594 293.667969 L 194.976562 304.011719 L 196.019531 313.425781 L 197.058594 322.175781 L 198.101562 330.507812 L 199.144531 338.449219 L 200.183594 345.554688 L 201.226562 351.484375 L 202.265625 356.578125 L 203.308594 361.242188 L 204.351562 365.296875 L 205.390625 368.429688 L 206.433594 370.738281 L 207.476562 372.582031 L 208.515625 374.214844 L 209.558594 375.695312 L 210.601562 377.128906 L 211.640625 378.695312 L 212.683594 380.316406 L 213.726562 381.625 L 214.765625 382.480469 L 215.808594 383.101562 L 216.847656 383.679688 L 217.890625 384.175781 L 218.933594 384.5 L 219.972656 384.65625 L 221.015625 384.722656 L 222.058594 384.769531 L 223.097656 384.84375 L 224.140625 384.910156 L 225.183594 384.914062 L 226.222656 384.863281 L 227.265625 384.820312 L 228.308594 384.84375 L 229.347656 384.917969 L 230.390625 384.996094 L 231.429688 385.035156 L 232.472656 385.050781 L 233.515625 385.054688 L 234.554688 385.058594 L 267.886719 385.058594 Z M 60.613281 385.058594 "/>
<g clip-path="url(#clip2)" clip-rule="nonzero">
<path style="fill:none;stroke-width:1.5;stroke-linecap:butt;stroke-linejoin:miter;stroke:rgb(90.196079%,62.352943%,0%);stroke-opacity:1;stroke-miterlimit:10;" d="M 80.817708 513.411458 L 158.588542 513.411458 L 159.979167 513.40625 L 161.364583 513.40625 L 162.755208 513.395833 L 164.145833 513.364583 L 165.53125 513.286458 L 166.921875 513.171875 L 168.3125 513.078125 L 169.697917 513.036458 L 171.088542 512.989583 L 172.473958 512.864583 L 173.864583 512.692708 L 175.255208 512.552083 L 176.640625 512.354167 L 178.03125 511.854167 L 179.421875 510.791667 L 180.807292 508.953125 L 182.197917 506.4375 L 183.588542 503.791667 L 184.973958 501.682292 L 186.364583 500.296875 L 187.755208 499.359375 L 189.140625 498.276042 L 190.53125 496.140625 L 191.916667 492.020833 L 193.307292 485.625 L 194.697917 477.682292 L 196.083333 469.557292 L 197.473958 462.088542 L 198.864583 454.630208 L 200.25 445.526042 L 201.640625 433.5 L 203.03125 418.505208 L 204.416667 401.46875 L 205.807292 383.791667 L 207.197917 366.828125 L 208.583333 350.885417 L 209.973958 334.494792 L 211.359375 316.041667 L 212.75 296.020833 L 214.140625 276.057292 L 215.526042 256.270833 L 216.916667 235.635417 L 218.307292 214.432292 L 219.692708 193.489583 L 221.083333 172.088542 L 222.473958 149.317708 L 223.859375 125.963542 L 225.25 103.140625 L 226.640625 82.21875 L 228.026042 67.0625 L 229.416667 61.588542 L 230.802083 64.338542 L 232.192708 69.317708 L 233.583333 71.682292 L 234.96875 70.447917 L 236.359375 68.260417 L 237.75 70.890625 L 239.135417 84.21875 L 240.526042 108.59375 L 241.916667 136.703125 L 243.302083 159.239583 L 244.692708 174.244792 L 246.083333 189.104167 L 247.46875 211.078125 L 248.859375 238.114583 L 250.244792 262.942708 L 251.635417 283.197917 L 253.026042 302.692708 L 254.411458 324.723958 L 255.802083 348.145833 L 257.192708 369.838542 L 258.578125 388.458333 L 259.96875 404.927083 L 261.359375 420.557292 L 262.744792 435.536458 L 264.135417 448.932292 L 265.526042 459.744792 L 266.911458 467.869792 L 268.302083 474.041667 L 269.6875 479.130208 L 271.078125 483.760417 L 272.46875 488.421875 L 273.854167 493.296875 L 275.244792 497.911458 L 276.635417 501.463542 L 278.020833 503.666667 L 279.411458 505.098958 L 280.802083 506.510417 L 282.1875 507.942708 L 283.578125 508.958333 L 284.96875 509.473958 L 286.354167 509.921875 L 287.744792 510.677083 L 289.130208 511.661458 L 290.520833 512.536458 L 291.911458 513.078125 L 293.296875 513.317708 L 294.6875 513.390625 L 296.078125 513.40625 L 297.463542 513.40625 L 298.854167 513.411458 L 357.182292 513.411458 " transform="matrix(0.75,0,0,0.75,0,0)"/>
</g>
<path style=" stroke:none;fill-rule:nonzero;fill:rgb(90.196079%,62.352943%,0%);fill-opacity:0.15;" d="M 60.613281 385.058594 L 118.941406 385.058594 L 119.984375 385.054688 L 121.023438 385.054688 L 122.066406 385.046875 L 123.109375 385.023438 L 124.148438 384.964844 L 125.191406 384.878906 L 126.234375 384.808594 L 127.273438 384.777344 L 128.316406 384.742188 L 129.355469 384.648438 L 130.398438 384.519531 L 131.441406 384.414062 L 132.480469 384.265625 L 133.523438 383.890625 L 134.566406 383.09375 L 135.605469 381.714844 L 136.648438 379.828125 L 137.691406 377.84375 L 138.730469 376.261719 L 139.773438 375.222656 L 140.816406 374.519531 L 141.855469 373.707031 L 142.898438 372.105469 L 143.9375 369.015625 L 144.980469 364.21875 L 146.023438 358.261719 L 147.0625 352.167969 L 148.105469 346.566406 L 149.148438 340.972656 L 150.1875 334.144531 L 151.230469 325.125 L 152.273438 313.878906 L 153.3125 301.101562 L 154.355469 287.84375 L 155.398438 275.121094 L 156.4375 263.164062 L 157.480469 250.871094 L 158.519531 237.03125 L 159.5625 222.015625 L 160.605469 207.042969 L 161.644531 192.203125 L 162.6875 176.726562 L 163.730469 160.824219 L 164.769531 145.117188 L 165.8125 129.066406 L 166.855469 111.988281 L 167.894531 94.472656 L 168.9375 77.355469 L 169.980469 61.664062 L 171.019531 50.296875 L 172.0625 46.191406 L 173.101562 48.253906 L 174.144531 51.988281 L 175.1875 53.761719 L 176.226562 52.835938 L 177.269531 51.195312 L 178.3125 53.167969 L 179.351562 63.164062 L 180.394531 81.445312 L 181.4375 102.527344 L 182.476562 119.429688 L 183.519531 130.683594 L 184.5625 141.828125 L 185.601562 158.308594 L 186.644531 178.585938 L 187.683594 197.207031 L 188.726562 212.398438 L 189.769531 227.019531 L 190.808594 243.542969 L 191.851562 261.109375 L 192.894531 277.378906 L 193.933594 291.34375 L 194.976562 303.695312 L 196.019531 315.417969 L 197.058594 326.652344 L 198.101562 336.699219 L 199.144531 344.808594 L 200.183594 350.902344 L 201.226562 355.53125 L 202.265625 359.347656 L 203.308594 362.820312 L 204.351562 366.316406 L 205.390625 369.972656 L 206.433594 373.433594 L 207.476562 376.097656 L 208.515625 377.75 L 209.558594 378.824219 L 210.601562 379.882812 L 211.640625 380.957031 L 212.683594 381.71875 L 213.726562 382.105469 L 214.765625 382.441406 L 215.808594 383.007812 L 216.847656 383.746094 L 217.890625 384.402344 L 218.933594 384.808594 L 219.972656 384.988281 L 221.015625 385.042969 L 222.058594 385.054688 L 223.097656 385.054688 L 224.140625 385.058594 L 267.886719 385.058594 Z M 60.613281 385.058594 "/>
<g clip-path="url(#clip3)" clip-rule="nonzero">
<path style="fill:none;stroke-width:1.5;stroke-linecap:butt;stroke-linejoin:miter;stroke:rgb(0%,61.960787%,45.09804%);stroke-opacity:1;stroke-miterlimit:10;" d="M 80.817708 513.411458 L 154.421875 513.411458 L 155.8125 513.40625 L 157.197917 513.401042 L 158.588542 513.369792 L 159.979167 513.286458 L 161.364583 513.125 L 162.755208 512.932292 L 164.145833 512.822917 L 165.53125 512.869792 L 166.921875 513.03125 L 168.3125 513.177083 L 169.697917 513.197917 L 171.088542 513.098958 L 172.473958 512.921875 L 173.864583 512.671875 L 175.255208 512.28125 L 176.640625 511.708333 L 178.03125 510.958333 L 179.421875 510.057292 L 180.807292 509.052083 L 182.197917 507.9375 L 183.588542 506.588542 L 184.973958 504.859375 L 186.364583 502.75 L 187.755208 500.515625 L 189.140625 498.354167 L 190.53125 496.052083 L 191.916667 493.1875 L 193.307292 489.515625 L 194.697917 484.744792 L 196.083333 478.109375 L 197.473958 468.807292 L 198.864583 457.307292 L 200.25 445.640625 L 201.640625 435.276042 L 203.03125 425.03125 L 204.416667 411.979167 L 205.807292 394.234375 L 207.197917 372.75 L 208.583333 350.96875 L 209.973958 332.53125 L 211.359375 317.734375 L 212.75 302.40625 L 214.140625 282.145833 L 215.526042 256.802083 L 216.916667 229.270833 L 218.307292 202.302083 L 219.692708 177.760417 L 221.083333 156.255208 L 222.473958 137.166667 L 223.859375 119.708333 L 225.25 102.994792 L 226.640625 86.635417 L 228.026042 72.822917 L 229.416667 65.484375 L 230.802083 66.15625 L 232.192708 71.78125 L 233.583333 77.203125 L 234.96875 79.651042 L 236.359375 80.838542 L 237.75 85.109375 L 239.135417 95.427083 L 240.526042 110.796875 L 241.916667 127.916667 L 243.302083 145.098958 L 244.692708 163.677083 L 246.083333 185.505208 L 247.46875 210.015625 L 248.859375 234.447917 L 250.244792 256.640625 L 251.635417 276.958333 L 253.026042 297.489583 L 254.411458 319.807292 L 255.802083 343.614583 L 257.192708 367.255208 L 258.578125 389.114583 L 259.96875 408.322917 L 261.359375 424.432292 L 262.744792 437.114583 L 264.135417 446.473958 L 265.526042 453.3125 L 266.911458 459.114583 L 268.302083 465.526042 L 269.6875 473.229167 L 271.078125 481.375 L 272.46875 488.552083 L 273.854167 493.958333 L 275.244792 497.755208 L 276.635417 500.713542 L 278.020833 503.432292 L 279.411458 505.869792 L 280.802083 507.723958 L 282.1875 508.911458 L 283.578125 509.682292 L 284.96875 510.375 L 286.354167 511.114583 L 287.744792 511.8125 L 289.130208 512.359375 L 290.520833 512.708333 L 291.911458 512.911458 L 293.296875 513.057292 L 294.6875 513.197917 L 296.078125 513.317708 L 297.463542 513.380208 L 298.854167 513.401042 L 300.244792 513.40625 L 301.630208 513.411458 L 357.182292 513.411458 " transform="matrix(0.75,0,0,0.75,0,0)"/>
</g>
<path style=" stroke:none;fill-rule:nonzero;fill:rgb(0%,61.960787%,45.09804%);fill-opacity:0.15;" d="M 60.613281 385.058594 L 115.816406 385.058594 L 116.859375 385.054688 L 117.898438 385.050781 L 118.941406 385.027344 L 119.984375 384.964844 L 121.023438 384.84375 L 122.066406 384.699219 L 123.109375 384.617188 L 124.148438 384.652344 L 125.191406 384.773438 L 126.234375 384.882812 L 127.273438 384.898438 L 128.316406 384.824219 L 129.355469 384.691406 L 130.398438 384.503906 L 131.441406 384.210938 L 132.480469 383.78125 L 133.523438 383.21875 L 134.566406 382.542969 L 135.605469 381.789062 L 136.648438 380.953125 L 137.691406 379.941406 L 138.730469 378.644531 L 139.773438 377.0625 L 140.816406 375.386719 L 141.855469 373.765625 L 142.898438 372.039062 L 143.9375 369.890625 L 144.980469 367.136719 L 146.023438 363.558594 L 147.0625 358.582031 L 148.105469 351.605469 L 149.148438 342.980469 L 150.1875 334.230469 L 151.230469 326.457031 L 152.273438 318.773438 L 153.3125 308.984375 L 154.355469 295.675781 L 155.398438 279.5625 L 156.4375 263.226562 L 157.480469 249.398438 L 158.519531 238.300781 L 159.5625 226.804688 L 160.605469 211.609375 L 161.644531 192.601562 L 162.6875 171.953125 L 163.730469 151.726562 L 164.769531 133.320312 L 165.8125 117.191406 L 166.855469 102.875 L 167.894531 89.78125 L 168.9375 77.246094 L 169.980469 64.976562 L 171.019531 54.617188 L 172.0625 49.113281 L 173.101562 49.617188 L 174.144531 53.835938 L 175.1875 57.902344 L 176.226562 59.738281 L 177.269531 60.628906 L 178.3125 63.832031 L 179.351562 71.570312 L 180.394531 83.097656 L 181.4375 95.9375 L 182.476562 108.824219 L 183.519531 122.757812 L 184.5625 139.128906 L 185.601562 157.511719 L 186.644531 175.835938 L 187.683594 192.480469 L 188.726562 207.71875 L 189.769531 223.117188 L 190.808594 239.855469 L 191.851562 257.710938 L 192.894531 275.441406 L 193.933594 291.835938 L 194.976562 306.242188 L 196.019531 318.324219 L 197.058594 327.835938 L 198.101562 334.855469 L 199.144531 339.984375 L 200.183594 344.335938 L 201.226562 349.144531 L 202.265625 354.921875 L 203.308594 361.03125 L 204.351562 366.414062 L 205.390625 370.46875 L 206.433594 373.316406 L 207.476562 375.535156 L 208.515625 377.574219 L 209.558594 379.402344 L 210.601562 380.792969 L 211.640625 381.683594 L 212.683594 382.261719 L 213.726562 382.78125 L 214.765625 383.335938 L 215.808594 383.859375 L 216.847656 384.269531 L 217.890625 384.53125 L 218.933594 384.683594 L 219.972656 384.792969 L 221.015625 384.898438 L 222.058594 384.988281 L 223.097656 385.035156 L 224.140625 385.050781 L 225.183594 385.054688 L 226.222656 385.058594 L 267.886719 385.058594 Z M 60.613281 385.058594 "/>
<g clip-path="url(#clip4)" clip-rule="nonzero">
<path style="fill:none;stroke-width:1.5;stroke-linecap:butt;stroke-linejoin:miter;stroke:rgb(0%,44.705883%,69.803923%);stroke-opacity:1;stroke-miterlimit:10;" d="M 408.817708 513.182292 L 410.208333 513.098958 L 411.59375 513.005208 L 414.375 512.786458 L 415.760417 512.677083 L 417.151042 512.588542 L 418.541667 512.515625 L 419.927083 512.473958 L 421.317708 512.458333 L 422.708333 512.453125 L 424.09375 512.447917 L 425.484375 512.432292 L 426.869792 512.395833 L 428.260417 512.333333 L 429.651042 512.239583 L 431.036458 512.125 L 432.427083 511.979167 L 433.817708 511.791667 L 435.203125 511.5625 L 436.59375 511.291667 L 437.984375 510.979167 L 439.369792 510.640625 L 440.760417 510.296875 L 442.151042 509.963542 L 443.536458 509.645833 L 444.927083 509.34375 L 446.3125 509.026042 L 447.703125 508.682292 L 449.09375 508.28125 L 450.479167 507.817708 L 451.869792 507.291667 L 453.260417 506.708333 L 454.645833 506.0625 L 456.036458 505.354167 L 457.427083 504.5625 L 458.8125 503.666667 L 460.203125 502.645833 L 461.588542 501.489583 L 462.979167 500.192708 L 464.369792 498.755208 L 465.755208 497.192708 L 467.145833 495.515625 L 468.536458 493.71875 L 469.921875 491.791667 L 471.3125 489.713542 L 472.703125 487.453125 L 474.088542 484.979167 L 475.479167 482.270833 L 476.869792 479.338542 L 478.255208 476.1875 L 479.645833 472.864583 L 481.03125 469.416667 L 482.421875 465.890625 L 483.8125 462.348958 L 485.197917 458.854167 L 486.588542 455.447917 L 487.979167 452.151042 L 489.364583 448.942708 L 490.755208 445.760417 L 492.145833 442.489583 L 493.53125 439.015625 L 494.921875 435.25 L 496.3125 431.151042 L 497.697917 426.760417 L 499.088542 422.166667 L 500.473958 417.484375 L 501.864583 412.8125 L 503.255208 408.208333 L 504.640625 403.708333 L 506.03125 399.302083 L 507.421875 394.989583 L 508.807292 390.734375 L 510.197917 386.515625 L 511.588542 382.270833 L 512.973958 377.932292 L 514.364583 373.401042 L 515.755208 368.614583 L 517.140625 363.552083 L 518.53125 358.255208 L 519.916667 352.838542 L 521.307292 347.463542 L 522.697917 342.291667 L 524.083333 337.473958 L 525.473958 333.130208 L 526.864583 329.328125 L 528.25 326.114583 L 529.640625 323.5 L 531.03125 321.46875 L 532.416667 319.942708 L 533.807292 318.817708 L 535.197917 317.932292 L 536.583333 317.109375 L 537.973958 316.208333 L 539.359375 315.151042 L 540.75 313.932292 L 542.140625 312.609375 L 543.526042 311.265625 L 544.916667 309.958333 L 546.307292 308.723958 L 547.692708 307.557292 L 549.083333 306.447917 L 550.473958 305.40625 L 551.859375 304.494792 L 553.25 303.828125 L 554.640625 303.583333 L 556.026042 303.932292 L 557.416667 305.020833 L 558.802083 306.958333 L 560.192708 309.770833 L 561.583333 313.447917 L 562.96875 317.927083 L 564.359375 323.088542 L 565.75 328.78125 L 567.135417 334.786458 L 568.526042 340.869792 L 569.916667 346.8125 L 571.302083 352.447917 L 572.692708 357.713542 L 574.083333 362.666667 L 575.46875 367.453125 L 576.859375 372.260417 L 578.244792 377.244792 L 579.635417 382.473958 L 581.026042 387.880208 L 582.411458 393.317708 L 583.802083 398.59375 L 585.192708 403.5625 L 586.578125 408.166667 L 587.96875 412.4375 L 589.359375 416.5 L 590.744792 420.505208 L 592.135417 424.598958 L 593.526042 428.880208 L 594.911458 433.395833 L 596.302083 438.135417 L 597.6875 443.026042 L 599.078125 447.953125 L 600.46875 452.765625 L 601.854167 457.302083 L 603.244792 461.427083 L 604.635417 465.057292 L 606.020833 468.182292 L 607.411458 470.864583 L 608.802083 473.208333 L 610.1875 475.369792 L 611.578125 477.484375 L 612.96875 479.661458 L 614.354167 481.96875 L 615.744792 484.40625 L 617.130208 486.932292 L 618.520833 489.473958 L 619.911458 491.947917 L 621.296875 494.286458 L 622.6875 496.4375 L 624.078125 498.364583 L 625.463542 500.067708 L 626.854167 501.572917 L 628.244792 502.911458 L 629.630208 504.140625 L 631.020833 505.286458 L 632.411458 506.369792 L 633.796875 507.369792 L 635.1875 508.270833 L 636.572917 509.041667 L 637.963542 509.666667 L 639.354167 510.15625 L 640.739583 510.526042 L 642.130208 510.791667 L 643.520833 510.989583 L 644.90625 511.125 L 646.296875 511.21875 L 647.6875 511.291667 L 649.072917 511.354167 L 650.463542 511.421875 L 651.854167 511.505208 L 653.239583 511.609375 L 654.630208 511.734375 L 656.015625 511.875 L 658.796875 512.166667 L 660.182292 512.3125 L 662.963542 512.604167 L 664.348958 512.739583 L 665.739583 512.859375 L 667.130208 512.958333 L 668.515625 513.026042 L 669.90625 513.067708 L 671.291667 513.088542 L 672.682292 513.098958 L 674.072917 513.098958 L 675.458333 513.104167 L 678.239583 513.125 L 679.625 513.145833 L 682.40625 513.177083 L 683.791667 513.197917 L 685.182292 513.213542 " transform="matrix(0.75,0,0,0.75,0,0)"/>
</g>
<path style=" stroke:none;fill-rule:nonzero;fill:rgb(0%,44.705883%,69.803923%);fill-opacity:0.15;" d="M 306.613281 384.886719 L 307.65625 384.824219 L 308.695312 384.753906 L 310.78125 384.589844 L 311.820312 384.507812 L 312.863281 384.441406 L 313.90625 384.386719 L 314.945312 384.355469 L 315.988281 384.34375 L 317.03125 384.339844 L 318.070312 384.335938 L 319.113281 384.324219 L 320.152344 384.296875 L 321.195312 384.25 L 322.238281 384.179688 L 323.277344 384.09375 L 324.320312 383.984375 L 325.363281 383.84375 L 326.402344 383.671875 L 327.445312 383.46875 L 328.488281 383.234375 L 329.527344 382.980469 L 330.570312 382.722656 L 331.613281 382.472656 L 332.652344 382.234375 L 333.695312 382.007812 L 334.734375 381.769531 L 335.777344 381.511719 L 336.820312 381.210938 L 337.859375 380.863281 L 338.902344 380.46875 L 339.945312 380.03125 L 340.984375 379.546875 L 342.027344 379.015625 L 343.070312 378.421875 L 344.109375 377.75 L 345.152344 376.984375 L 346.191406 376.117188 L 347.234375 375.144531 L 348.277344 374.066406 L 349.316406 372.894531 L 350.359375 371.636719 L 351.402344 370.289062 L 352.441406 368.84375 L 353.484375 367.285156 L 354.527344 365.589844 L 355.566406 363.734375 L 356.609375 361.703125 L 357.652344 359.503906 L 358.691406 357.140625 L 359.734375 354.648438 L 360.773438 352.0625 L 361.816406 349.417969 L 362.859375 346.761719 L 363.898438 344.140625 L 364.941406 341.585938 L 365.984375 339.113281 L 367.023438 336.707031 L 368.066406 334.320312 L 369.109375 331.867188 L 370.148438 329.261719 L 371.191406 326.4375 L 372.234375 323.363281 L 373.273438 320.070312 L 374.316406 316.625 L 375.355469 313.113281 L 376.398438 309.609375 L 377.441406 306.15625 L 378.480469 302.78125 L 379.523438 299.476562 L 380.566406 296.242188 L 381.605469 293.050781 L 382.648438 289.886719 L 383.691406 286.703125 L 384.730469 283.449219 L 385.773438 280.050781 L 386.816406 276.460938 L 387.855469 272.664062 L 388.898438 268.691406 L 389.9375 264.628906 L 390.980469 260.597656 L 392.023438 256.71875 L 393.0625 253.105469 L 394.105469 249.847656 L 395.148438 246.996094 L 396.1875 244.585938 L 397.230469 242.625 L 398.273438 241.101562 L 399.3125 239.957031 L 400.355469 239.113281 L 401.398438 238.449219 L 402.4375 237.832031 L 403.480469 237.15625 L 404.519531 236.363281 L 405.5625 235.449219 L 406.605469 234.457031 L 407.644531 233.449219 L 408.6875 232.46875 L 409.730469 231.542969 L 410.769531 230.667969 L 411.8125 229.835938 L 412.855469 229.054688 L 413.894531 228.371094 L 414.9375 227.871094 L 415.980469 227.6875 L 417.019531 227.949219 L 418.0625 228.765625 L 419.101562 230.21875 L 420.144531 232.328125 L 421.1875 235.085938 L 422.226562 238.445312 L 423.269531 242.316406 L 424.3125 246.585938 L 425.351562 251.089844 L 426.394531 255.652344 L 427.4375 260.109375 L 428.476562 264.335938 L 429.519531 268.285156 L 430.5625 272 L 431.601562 275.589844 L 432.644531 279.195312 L 433.683594 282.933594 L 434.726562 286.855469 L 435.769531 290.910156 L 436.808594 294.988281 L 437.851562 298.945312 L 438.894531 302.671875 L 439.933594 306.125 L 440.976562 309.328125 L 442.019531 312.375 L 443.058594 315.378906 L 444.101562 318.449219 L 445.144531 321.660156 L 446.183594 325.046875 L 447.226562 328.601562 L 448.265625 332.269531 L 449.308594 335.964844 L 450.351562 339.574219 L 451.390625 342.976562 L 452.433594 346.070312 L 453.476562 348.792969 L 454.515625 351.136719 L 455.558594 353.148438 L 456.601562 354.90625 L 457.640625 356.527344 L 458.683594 358.113281 L 459.726562 359.746094 L 460.765625 361.476562 L 461.808594 363.304688 L 462.847656 365.199219 L 463.890625 367.105469 L 464.933594 368.960938 L 465.972656 370.714844 L 467.015625 372.328125 L 468.058594 373.773438 L 469.097656 375.050781 L 470.140625 376.179688 L 471.183594 377.183594 L 472.222656 378.105469 L 473.265625 378.964844 L 474.308594 379.777344 L 475.347656 380.527344 L 476.390625 381.203125 L 477.429688 381.78125 L 478.472656 382.25 L 479.515625 382.617188 L 480.554688 382.894531 L 481.597656 383.09375 L 482.640625 383.242188 L 483.679688 383.34375 L 484.722656 383.414062 L 485.765625 383.46875 L 486.804688 383.515625 L 487.847656 383.566406 L 488.890625 383.628906 L 489.929688 383.707031 L 490.972656 383.800781 L 492.011719 383.90625 L 494.097656 384.125 L 495.136719 384.234375 L 497.222656 384.453125 L 498.261719 384.554688 L 499.304688 384.644531 L 500.347656 384.71875 L 501.386719 384.769531 L 502.429688 384.800781 L 503.46875 384.816406 L 504.511719 384.824219 L 505.554688 384.824219 L 506.59375 384.828125 L 508.679688 384.84375 L 509.71875 384.859375 L 511.804688 384.882812 L 512.84375 384.898438 L 513.886719 384.910156 L 513.886719 385.058594 L 306.613281 385.058594 Z M 306.613281 384.886719 "/>
<g clip-path="url(#clip5)" clip-rule="nonzero">
<path style="fill:none;stroke-width:1.5;stroke-linecap:butt;stroke-linejoin:miter;stroke:rgb(90.196079%,62.352943%,0%);stroke-opacity:1;stroke-miterlimit:10;" d="M 408.817708 513.161458 L 410.208333 513.119792 L 411.59375 513.088542 L 412.984375 513.0625 L 414.375 513.052083 L 415.760417 513.052083 L 417.151042 513.067708 L 418.541667 513.088542 L 419.927083 513.109375 L 421.317708 513.114583 L 422.708333 513.09375 L 424.09375 513.026042 L 425.484375 512.916667 L 426.869792 512.770833 L 428.260417 512.604167 L 429.651042 512.442708 L 431.036458 512.302083 L 432.427083 512.197917 L 433.817708 512.125 L 435.203125 512.067708 L 436.59375 512 L 437.984375 511.885417 L 439.369792 511.6875 L 440.760417 511.385417 L 442.151042 510.979167 L 443.536458 510.463542 L 444.927083 509.854167 L 446.3125 509.1875 L 447.703125 508.484375 L 449.09375 507.770833 L 450.479167 507.0625 L 451.869792 506.338542 L 453.260417 505.583333 L 454.645833 504.760417 L 456.036458 503.854167 L 457.427083 502.854167 L 458.8125 501.791667 L 460.203125 500.697917 L 461.588542 499.614583 L 462.979167 498.567708 L 464.369792 497.552083 L 465.755208 496.552083 L 467.145833 495.520833 L 468.536458 494.385417 L 469.921875 493.104167 L 471.3125 491.625 L 472.703125 489.911458 L 474.088542 487.947917 L 475.479167 485.703125 L 476.869792 483.161458 L 478.255208 480.291667 L 479.645833 477.078125 L 481.03125 473.53125 L 482.421875 469.713542 L 483.8125 465.71875 L 485.197917 461.682292 L 486.588542 457.729167 L 487.979167 453.958333 L 489.364583 450.385417 L 490.755208 446.953125 L 492.145833 443.572917 L 493.53125 440.114583 L 494.921875 436.489583 L 496.3125 432.640625 L 497.697917 428.552083 L 499.088542 424.234375 L 500.473958 419.71875 L 501.864583 415.052083 L 503.255208 410.307292 L 504.640625 405.572917 L 506.03125 400.958333 L 507.421875 396.526042 L 508.807292 392.286458 L 510.197917 388.182292 L 511.588542 384.083333 L 512.973958 379.854167 L 514.364583 375.40625 L 515.755208 370.692708 L 517.140625 365.760417 L 518.53125 360.6875 L 519.916667 355.557292 L 521.307292 350.421875 L 522.697917 345.28125 L 524.083333 340.119792 L 525.473958 334.901042 L 526.864583 329.640625 L 528.25 324.401042 L 529.640625 319.302083 L 531.03125 314.489583 L 532.416667 310.119792 L 533.807292 306.302083 L 535.197917 303.072917 L 536.583333 300.421875 L 537.973958 298.255208 L 539.359375 296.494792 L 540.75 295.104167 L 542.140625 294.125 L 543.526042 293.692708 L 544.916667 293.96875 L 546.307292 295.067708 L 547.692708 296.953125 L 549.083333 299.447917 L 550.473958 302.260417 L 551.859375 305.083333 L 553.25 307.713542 L 554.640625 310.09375 L 556.026042 312.317708 L 557.416667 314.557292 L 558.802083 316.984375 L 560.192708 319.734375 L 561.583333 322.859375 L 562.96875 326.354167 L 564.359375 330.1875 L 565.75 334.317708 L 567.135417 338.6875 L 568.526042 343.25 L 569.916667 347.932292 L 571.302083 352.671875 L 572.692708 357.401042 L 574.083333 362.078125 L 575.46875 366.708333 L 576.859375 371.375 L 578.244792 376.192708 L 579.635417 381.291667 L 581.026042 386.755208 L 582.411458 392.583333 L 583.802083 398.666667 L 585.192708 404.822917 L 586.578125 410.828125 L 587.96875 416.510417 L 589.359375 421.755208 L 590.744792 426.515625 L 592.135417 430.838542 L 593.526042 434.807292 L 594.911458 438.520833 L 596.302083 442.098958 L 597.6875 445.635417 L 599.078125 449.182292 L 600.46875 452.75 L 601.854167 456.296875 L 603.244792 459.765625 L 604.635417 463.078125 L 606.020833 466.223958 L 607.411458 469.223958 L 608.802083 472.151042 L 610.1875 475.088542 L 611.578125 478.09375 L 612.96875 481.171875 L 614.354167 484.25 L 615.744792 487.234375 L 617.130208 490.03125 L 618.520833 492.578125 L 619.911458 494.84375 L 621.296875 496.833333 L 622.6875 498.567708 L 624.078125 500.0625 L 625.463542 501.328125 L 626.854167 502.385417 L 628.244792 503.25 L 629.630208 503.96875 L 631.020833 504.583333 L 632.411458 505.161458 L 633.796875 505.744792 L 635.1875 506.359375 L 636.572917 507 L 637.963542 507.645833 L 639.354167 508.260417 L 640.739583 508.8125 L 642.130208 509.291667 L 643.520833 509.703125 L 644.90625 510.072917 L 646.296875 510.416667 L 647.6875 510.755208 L 649.072917 511.083333 L 650.463542 511.401042 L 651.854167 511.682292 L 653.239583 511.916667 L 654.630208 512.098958 L 656.015625 512.208333 L 657.40625 512.255208 L 658.796875 512.244792 L 660.182292 512.192708 L 661.572917 512.125 L 662.963542 512.067708 L 664.348958 512.046875 L 665.739583 512.078125 L 667.130208 512.161458 L 668.515625 512.286458 L 669.90625 512.4375 L 671.291667 512.59375 L 672.682292 512.744792 L 674.072917 512.875 L 675.458333 512.984375 L 676.848958 513.067708 L 678.239583 513.125 L 679.625 513.166667 L 682.40625 513.21875 L 683.791667 513.239583 L 685.182292 513.265625 " transform="matrix(0.75,0,0,0.75,0,0)"/>
</g>
<path style=" stroke:none;fill-rule:nonzero;fill:rgb(90.196079%,62.352943%,0%);fill-opacity:0.15;" d="M 306.613281 384.871094 L 307.65625 384.839844 L 308.695312 384.816406 L 309.738281 384.796875 L 310.78125 384.789062 L 311.820312 384.789062 L 312.863281 384.800781 L 313.90625 384.816406 L 314.945312 384.832031 L 315.988281 384.835938 L 317.03125 384.820312 L 318.070312 384.769531 L 319.113281 384.6875 L 320.152344 384.578125 L 321.195312 384.453125 L 322.238281 384.332031 L 323.277344 384.226562 L 324.320312 384.148438 L 325.363281 384.09375 L 326.402344 384.050781 L 327.445312 384 L 328.488281 383.914062 L 329.527344 383.765625 L 330.570312 383.539062 L 331.613281 383.234375 L 332.652344 382.847656 L 333.695312 382.390625 L 334.734375 381.890625 L 335.777344 381.363281 L 336.820312 380.828125 L 337.859375 380.296875 L 338.902344 379.753906 L 339.945312 379.1875 L 340.984375 378.570312 L 342.027344 377.890625 L 343.070312 377.140625 L 344.109375 376.34375 L 345.152344 375.523438 L 346.191406 374.710938 L 347.234375 373.925781 L 348.277344 373.164062 L 349.316406 372.414062 L 350.359375 371.640625 L 351.402344 370.789062 L 352.441406 369.828125 L 353.484375 368.71875 L 354.527344 367.433594 L 355.566406 365.960938 L 356.609375 364.277344 L 357.652344 362.371094 L 358.691406 360.21875 L 359.734375 357.808594 L 360.773438 355.148438 L 361.816406 352.285156 L 362.859375 349.289062 L 363.898438 346.261719 L 364.941406 343.296875 L 365.984375 340.46875 L 367.023438 337.789062 L 368.066406 335.214844 L 369.109375 332.679688 L 370.148438 330.085938 L 371.191406 327.367188 L 372.234375 324.480469 L 373.273438 321.414062 L 374.316406 318.175781 L 375.355469 314.789062 L 376.398438 311.289062 L 377.441406 307.730469 L 378.480469 304.179688 L 379.523438 300.71875 L 380.566406 297.394531 L 381.605469 294.214844 L 382.648438 291.136719 L 383.691406 288.0625 L 384.730469 284.890625 L 385.773438 281.554688 L 386.816406 278.019531 L 387.855469 274.320312 L 388.898438 270.515625 L 389.9375 266.667969 L 390.980469 262.816406 L 392.023438 258.960938 L 393.0625 255.089844 L 394.105469 251.175781 L 395.148438 247.230469 L 396.1875 243.300781 L 397.230469 239.476562 L 398.273438 235.867188 L 399.3125 232.589844 L 400.355469 229.726562 L 401.398438 227.304688 L 402.4375 225.316406 L 403.480469 223.691406 L 404.519531 222.371094 L 405.5625 221.328125 L 406.605469 220.59375 L 407.644531 220.269531 L 408.6875 220.476562 L 409.730469 221.300781 L 410.769531 222.714844 L 411.8125 224.585938 L 412.855469 226.695312 L 413.894531 228.8125 L 414.9375 230.785156 L 415.980469 232.570312 L 417.019531 234.238281 L 418.0625 235.917969 L 419.101562 237.738281 L 420.144531 239.800781 L 421.1875 242.144531 L 422.226562 244.765625 L 423.269531 247.640625 L 424.3125 250.738281 L 425.351562 254.015625 L 426.394531 257.4375 L 427.4375 260.949219 L 428.476562 264.503906 L 429.519531 268.050781 L 430.5625 271.558594 L 431.601562 275.03125 L 432.644531 278.53125 L 433.683594 282.144531 L 434.726562 285.96875 L 435.769531 290.066406 L 436.808594 294.4375 L 437.851562 299 L 438.894531 303.617188 L 439.933594 308.121094 L 440.976562 312.382812 L 442.019531 316.316406 L 443.058594 319.886719 L 444.101562 323.128906 L 445.144531 326.105469 L 446.183594 328.890625 L 447.226562 331.574219 L 448.265625 334.226562 L 449.308594 336.886719 L 450.351562 339.5625 L 451.390625 342.222656 L 452.433594 344.824219 L 453.476562 347.308594 L 454.515625 349.667969 L 455.558594 351.917969 L 456.601562 354.113281 L 457.640625 356.316406 L 458.683594 358.570312 L 459.726562 360.878906 L 460.765625 363.1875 L 461.808594 365.425781 L 462.847656 367.523438 L 463.890625 369.433594 L 464.933594 371.132812 L 465.972656 372.625 L 467.015625 373.925781 L 468.058594 375.046875 L 469.097656 375.996094 L 470.140625 376.789062 L 471.183594 377.4375 L 472.222656 377.976562 L 473.265625 378.4375 L 474.308594 378.871094 L 475.347656 379.308594 L 476.390625 379.769531 L 477.429688 380.25 L 478.472656 380.734375 L 479.515625 381.195312 L 480.554688 381.609375 L 481.597656 381.96875 L 482.640625 382.277344 L 483.679688 382.554688 L 484.722656 382.8125 L 485.765625 383.066406 L 486.804688 383.3125 L 487.847656 383.550781 L 488.890625 383.761719 L 489.929688 383.9375 L 490.972656 384.074219 L 492.011719 384.15625 L 493.054688 384.191406 L 494.097656 384.183594 L 495.136719 384.144531 L 496.179688 384.09375 L 497.222656 384.050781 L 498.261719 384.035156 L 499.304688 384.058594 L 500.347656 384.121094 L 501.386719 384.214844 L 502.429688 384.328125 L 503.46875 384.445312 L 504.511719 384.558594 L 505.554688 384.65625 L 506.59375 384.738281 L 507.636719 384.800781 L 508.679688 384.84375 L 509.71875 384.875 L 511.804688 384.914062 L 512.84375 384.929688 L 513.886719 384.949219 L 513.886719 385.058594 L 306.613281 385.058594 Z M 306.613281 384.871094 "/>
<g clip-path="url(#clip6)" clip-rule="nonzero">
<path style="fill:none;stroke-width:1.5;stroke-linecap:butt;stroke-linejoin:miter;stroke:rgb(0%,61.960787%,45.09804%);stroke-opacity:1;stroke-miterlimit:10;" d="M 408.817708 513.145833 L 410.208333 513.125 L 411.59375 513.114583 L 414.375 513.135417 L 415.760417 513.151042 L 417.151042 513.161458 L 418.541667 513.15625 L 419.927083 513.135417 L 421.317708 513.098958 L 422.708333 513.046875 L 424.09375 512.979167 L 425.484375 512.895833 L 426.869792 512.802083 L 428.260417 512.692708 L 429.651042 512.572917 L 431.036458 512.432292 L 432.427083 512.270833 L 433.817708 512.078125 L 435.203125 511.84375 L 436.59375 511.578125 L 437.984375 511.291667 L 439.369792 511.005208 L 440.760417 510.729167 L 442.151042 510.484375 L 443.536458 510.265625 L 444.927083 510.057292 L 446.3125 509.838542 L 447.703125 509.59375 L 449.09375 509.296875 L 450.479167 508.942708 L 451.869792 508.526042 L 453.260417 508.03125 L 454.645833 507.442708 L 456.036458 506.729167 L 457.427083 505.859375 L 458.8125 504.8125 L 460.203125 503.604167 L 461.588542 502.265625 L 462.979167 500.838542 L 464.369792 499.385417 L 465.755208 497.9375 L 467.145833 496.510417 L 468.536458 495.09375 L 469.921875 493.661458 L 471.3125 492.15625 L 472.703125 490.536458 L 474.088542 488.765625 L 475.479167 486.817708 L 476.869792 484.6875 L 478.255208 482.401042 L 479.645833 479.989583 L 481.03125 477.484375 L 482.421875 474.90625 L 483.8125 472.213542 L 485.197917 469.328125 L 486.588542 466.135417 L 487.979167 462.53125 L 489.364583 458.442708 L 490.755208 453.885417 L 492.145833 448.947917 L 493.53125 443.776042 L 494.921875 438.546875 L 496.3125 433.395833 L 497.697917 428.411458 L 499.088542 423.609375 L 500.473958 418.953125 L 501.864583 414.380208 L 503.255208 409.802083 L 504.640625 405.135417 L 506.03125 400.307292 L 507.421875 395.260417 L 508.807292 389.989583 L 510.197917 384.541667 L 511.588542 379.026042 L 512.973958 373.578125 L 514.364583 368.338542 L 515.755208 363.401042 L 517.140625 358.776042 L 518.53125 354.395833 L 519.916667 350.130208 L 521.307292 345.833333 L 522.697917 341.380208 L 524.083333 336.723958 L 525.473958 331.880208 L 526.864583 326.921875 L 528.25 321.953125 L 529.640625 317.067708 L 531.03125 312.333333 L 532.416667 307.770833 L 533.807292 303.375 L 535.197917 299.119792 L 536.583333 295.005208 L 537.973958 291.109375 L 539.359375 287.614583 L 540.75 284.8125 L 542.140625 283.015625 L 543.526042 282.510417 L 544.916667 283.427083 L 546.307292 285.739583 L 547.692708 289.255208 L 549.083333 293.671875 L 550.473958 298.697917 L 551.859375 304.052083 L 554.640625 315.041667 L 556.026042 320.40625 L 557.416667 325.53125 L 558.802083 330.296875 L 560.192708 334.604167 L 561.583333 338.40625 L 562.96875 341.723958 L 564.359375 344.645833 L 565.75 347.322917 L 567.135417 349.901042 L 568.526042 352.520833 L 569.916667 355.25 L 571.302083 358.135417 L 572.692708 361.171875 L 574.083333 364.364583 L 575.46875 367.729167 L 576.859375 371.296875 L 578.244792 375.130208 L 579.635417 379.276042 L 581.026042 383.791667 L 582.411458 388.692708 L 583.802083 393.947917 L 585.192708 399.479167 L 586.578125 405.182292 L 587.96875 410.927083 L 589.359375 416.59375 L 590.744792 422.083333 L 592.135417 427.348958 L 593.526042 432.354167 L 594.911458 437.098958 L 596.302083 441.598958 L 597.6875 445.854167 L 599.078125 449.880208 L 600.46875 453.682292 L 601.854167 457.270833 L 603.244792 460.645833 L 604.635417 463.828125 L 606.020833 466.838542 L 607.411458 469.697917 L 608.802083 472.427083 L 610.1875 475.036458 L 611.578125 477.536458 L 612.96875 479.911458 L 614.354167 482.166667 L 615.744792 484.307292 L 617.130208 486.375 L 618.520833 488.390625 L 619.911458 490.401042 L 621.296875 492.416667 L 622.6875 494.411458 L 624.078125 496.359375 L 625.463542 498.203125 L 626.854167 499.90625 L 628.244792 501.427083 L 629.630208 502.729167 L 631.020833 503.8125 L 632.411458 504.677083 L 633.796875 505.359375 L 635.1875 505.911458 L 636.572917 506.395833 L 637.963542 506.864583 L 639.354167 507.364583 L 640.739583 507.911458 L 642.130208 508.489583 L 643.520833 509.078125 L 644.90625 509.651042 L 646.296875 510.177083 L 647.6875 510.635417 L 649.072917 511.026042 L 650.463542 511.348958 L 651.854167 511.604167 L 653.239583 511.817708 L 654.630208 512 L 656.015625 512.161458 L 657.40625 512.3125 L 658.796875 512.453125 L 660.182292 512.583333 L 661.572917 512.703125 L 662.963542 512.8125 L 664.348958 512.90625 L 665.739583 512.994792 L 667.130208 513.072917 L 668.515625 513.145833 L 669.90625 513.208333 L 671.291667 513.265625 L 672.682292 513.307292 L 674.072917 513.34375 L 675.458333 513.369792 L 676.848958 513.385417 L 678.239583 513.395833 L 679.625 513.401042 L 681.015625 513.40625 L 683.791667 513.40625 L 685.182292 513.411458 " transform="matrix(0.75,0,0,0.75,0,0)"/>
</g>
<path style=" stroke:none;fill-rule:nonzero;fill:rgb(0%,61.960787%,45.09804%);fill-opacity:0.15;" d="M 306.613281 384.859375 L 307.65625 384.84375 L 308.695312 384.835938 L 310.78125 384.851562 L 311.820312 384.863281 L 312.863281 384.871094 L 313.90625 384.867188 L 314.945312 384.851562 L 315.988281 384.824219 L 317.03125 384.785156 L 318.070312 384.734375 L 319.113281 384.671875 L 320.152344 384.601562 L 321.195312 384.519531 L 322.238281 384.429688 L 323.277344 384.324219 L 324.320312 384.203125 L 325.363281 384.058594 L 326.402344 383.882812 L 327.445312 383.683594 L 328.488281 383.46875 L 329.527344 383.253906 L 330.570312 383.046875 L 331.613281 382.863281 L 332.652344 382.699219 L 333.695312 382.542969 L 334.734375 382.378906 L 335.777344 382.195312 L 336.820312 381.972656 L 337.859375 381.707031 L 338.902344 381.394531 L 339.945312 381.023438 L 340.984375 380.582031 L 342.027344 380.046875 L 343.070312 379.394531 L 344.109375 378.609375 L 345.152344 377.703125 L 346.191406 376.699219 L 347.234375 375.628906 L 348.277344 374.539062 L 349.316406 373.453125 L 350.359375 372.382812 L 351.402344 371.320312 L 352.441406 370.246094 L 353.484375 369.117188 L 354.527344 367.902344 L 355.566406 366.574219 L 356.609375 365.113281 L 357.652344 363.515625 L 358.691406 361.800781 L 359.734375 359.992188 L 360.773438 358.113281 L 361.816406 356.179688 L 362.859375 354.160156 L 363.898438 351.996094 L 364.941406 349.601562 L 365.984375 346.898438 L 367.023438 343.832031 L 368.066406 340.414062 L 369.109375 336.710938 L 370.148438 332.832031 L 371.191406 328.910156 L 372.234375 325.046875 L 373.273438 321.308594 L 374.316406 317.707031 L 375.355469 314.214844 L 376.398438 310.785156 L 377.441406 307.351562 L 378.480469 303.851562 L 379.523438 300.230469 L 380.566406 296.445312 L 381.605469 292.492188 L 382.648438 288.40625 L 383.691406 284.269531 L 384.730469 280.183594 L 385.773438 276.253906 L 386.816406 272.550781 L 387.855469 269.082031 L 388.898438 265.796875 L 389.9375 262.597656 L 390.980469 259.375 L 392.023438 256.035156 L 393.0625 252.542969 L 394.105469 248.910156 L 395.148438 245.191406 L 396.1875 241.464844 L 397.230469 237.800781 L 398.273438 234.25 L 399.3125 230.828125 L 400.355469 227.53125 L 401.398438 224.339844 L 402.4375 221.253906 L 403.480469 218.332031 L 404.519531 215.710938 L 405.5625 213.609375 L 406.605469 212.261719 L 407.644531 211.882812 L 408.6875 212.570312 L 409.730469 214.304688 L 410.769531 216.941406 L 411.8125 220.253906 L 412.855469 224.023438 L 413.894531 228.039062 L 415.980469 236.28125 L 417.019531 240.304688 L 418.0625 244.148438 L 419.101562 247.722656 L 420.144531 250.953125 L 421.1875 253.804688 L 422.226562 256.292969 L 423.269531 258.484375 L 424.3125 260.492188 L 425.351562 262.425781 L 426.394531 264.390625 L 427.4375 266.4375 L 428.476562 268.601562 L 429.519531 270.878906 L 430.5625 273.273438 L 431.601562 275.796875 L 432.644531 278.472656 L 433.683594 281.347656 L 434.726562 284.457031 L 435.769531 287.84375 L 436.808594 291.519531 L 437.851562 295.460938 L 438.894531 299.609375 L 439.933594 303.886719 L 440.976562 308.195312 L 442.019531 312.445312 L 443.058594 316.5625 L 444.101562 320.511719 L 445.144531 324.265625 L 446.183594 327.824219 L 447.226562 331.199219 L 448.265625 334.390625 L 449.308594 337.410156 L 450.351562 340.261719 L 451.390625 342.953125 L 452.433594 345.484375 L 453.476562 347.871094 L 454.515625 350.128906 L 455.558594 352.273438 L 456.601562 354.320312 L 457.640625 356.277344 L 458.683594 358.152344 L 459.726562 359.933594 L 460.765625 361.625 L 461.808594 363.230469 L 462.847656 364.78125 L 463.890625 366.292969 L 464.933594 367.800781 L 465.972656 369.3125 L 467.015625 370.808594 L 468.058594 372.269531 L 469.097656 373.652344 L 470.140625 374.929688 L 471.183594 376.070312 L 472.222656 377.046875 L 473.265625 377.859375 L 474.308594 378.507812 L 475.347656 379.019531 L 476.390625 379.433594 L 477.429688 379.796875 L 478.472656 380.148438 L 479.515625 380.523438 L 480.554688 380.933594 L 481.597656 381.367188 L 482.640625 381.808594 L 483.679688 382.238281 L 484.722656 382.632812 L 485.765625 382.976562 L 486.804688 383.269531 L 487.847656 383.511719 L 488.890625 383.703125 L 489.929688 383.863281 L 490.972656 384 L 492.011719 384.121094 L 493.054688 384.234375 L 494.097656 384.339844 L 495.136719 384.4375 L 496.179688 384.527344 L 497.222656 384.609375 L 498.261719 384.679688 L 499.304688 384.746094 L 500.347656 384.804688 L 501.386719 384.859375 L 502.429688 384.90625 L 503.46875 384.949219 L 504.511719 384.980469 L 505.554688 385.007812 L 506.59375 385.027344 L 507.636719 385.039062 L 508.679688 385.046875 L 509.71875 385.050781 L 510.761719 385.054688 L 512.84375 385.054688 L 513.886719 385.058594 L 306.613281 385.058594 Z M 306.613281 384.859375 "/>
<path style="fill:none;stroke-width:1;stroke-linecap:butt;stroke-linejoin:miter;stroke:rgb(0%,0%,0%);stroke-opacity:1;stroke-miterlimit:10;" d="M 98.09375 536.5 L 98.09375 542.5 " transform="matrix(0.75,0,0,0.75,0,0)"/>
<path style="fill:none;stroke-width:1;stroke-linecap:butt;stroke-linejoin:miter;stroke:rgb(0%,0%,0%);stroke-opacity:1;stroke-miterlimit:10;" d="M 194.458333 536.5 L 194.458333 542.5 " transform="matrix(0.75,0,0,0.75,0,0)"/>
<path style="fill:none;stroke-width:1;stroke-linecap:butt;stroke-linejoin:miter;stroke:rgb(0%,0%,0%);stroke-opacity:1;stroke-miterlimit:10;" d="M 290.828125 536.5 L 290.828125 542.5 " transform="matrix(0.75,0,0,0.75,0,0)"/>
<path style="fill:none;stroke-width:1;stroke-linecap:butt;stroke-linejoin:miter;stroke:rgb(0%,0%,0%);stroke-opacity:1;stroke-miterlimit:10;" d="M 66.5 513.411458 L 60.5 513.411458 " transform="matrix(0.75,0,0,0.75,0,0)"/>
<path style="fill:none;stroke-width:1;stroke-linecap:butt;stroke-linejoin:miter;stroke:rgb(0%,0%,0%);stroke-opacity:1;stroke-miterlimit:10;" d="M 66.5 320.255208 L 60.5 320.255208 " transform="matrix(0.75,0,0,0.75,0,0)"/>
<path style="fill:none;stroke-width:1;stroke-linecap:butt;stroke-linejoin:miter;stroke:rgb(0%,0%,0%);stroke-opacity:1;stroke-miterlimit:10;" d="M 66.5 127.098958 L 60.5 127.098958 " transform="matrix(0.75,0,0,0.75,0,0)"/>
<path style="fill:none;stroke-width:1;stroke-linecap:butt;stroke-linejoin:miter;stroke:rgb(0%,0%,0%);stroke-opacity:1;stroke-miterlimit:10;" d="M 426.09375 536.5 L 426.09375 542.5 " transform="matrix(0.75,0,0,0.75,0,0)"/>
<path style="fill:none;stroke-width:1;stroke-linecap:butt;stroke-linejoin:miter;stroke:rgb(0%,0%,0%);stroke-opacity:1;stroke-miterlimit:10;" d="M 522.458333 536.5 L 522.458333 542.5 " transform="matrix(0.75,0,0,0.75,0,0)"/>
<path style="fill:none;stroke-width:1;stroke-linecap:butt;stroke-linejoin:miter;stroke:rgb(0%,0%,0%);stroke-opacity:1;stroke-miterlimit:10;" d="M 618.828125 536.5 L 618.828125 542.5 " transform="matrix(0.75,0,0,0.75,0,0)"/>
<g clip-path="url(#clip7)" clip-rule="nonzero">
<path style=" stroke:none;fill-rule:nonzero;fill:rgb(100%,100%,100%);fill-opacity:1;" d="M 542.625 256.125 L 587.625 256.125 L 587.625 175.125 L 542.625 175.125 Z M 542.625 256.125 "/>
</g>
<g clip-path="url(#clip8)" clip-rule="nonzero">
<path style="fill:none;stroke-width:1;stroke-linecap:butt;stroke-linejoin:miter;stroke:rgb(0%,0%,0%);stroke-opacity:1;stroke-miterlimit:10;" d="M 723.5 341.5 L 783.5 341.5 L 783.5 233.5 L 723.5 233.5 Z M 723.5 341.5 " transform="matrix(0.75,0,0,0.75,0,0)"/>
</g>
<g style="fill:rgb(0%,0%,0%);fill-opacity:1;">
  <use xlink:href="#qVFcDl3M15-1" x="549.601562" y="192.03125"/>
</g>
<g style="fill:rgb(0%,0%,0%);fill-opacity:1;">
  <use xlink:href="#qVFcDl3M16-1" x="556.199219" y="192.03125"/>
</g>
<g style="fill:rgb(0%,0%,0%);fill-opacity:1;">
  <use xlink:href="#qVFcDl3M15-2" x="563.804688" y="192.03125"/>
</g>
<g style="fill:rgb(0%,0%,0%);fill-opacity:1;">
  <use xlink:href="#qVFcDl3M16-2" x="571.15625" y="192.03125"/>
</g>
<g style="fill:rgb(0%,0%,0%);fill-opacity:1;">
  <use xlink:href="#qVFcDl3M16-3" x="574.492188" y="192.03125"/>
</g>
<g style="fill:rgb(0%,0%,0%);fill-opacity:1;">
  <use xlink:href="#qVFcDl3M4-1" x="570.300781" y="212.515625"/>
</g>
<path style=" stroke:none;fill-rule:nonzero;fill:rgb(0%,44.705883%,69.803923%);fill-opacity:0.15;" d="M 552.871094 215.859375 L 567.871094 215.859375 L 567.871094 200.859375 L 552.871094 200.859375 Z M 552.871094 215.859375 "/>
<path style="fill:none;stroke-width:1.5;stroke-linecap:butt;stroke-linejoin:miter;stroke:rgb(0%,44.705883%,69.803923%);stroke-opacity:1;stroke-miterlimit:10;" d="M 737.161458 277.8125 L 757.161458 277.8125 " transform="matrix(0.75,0,0,0.75,0,0)"/>
<g style="fill:rgb(0%,0%,0%);fill-opacity:1;">
  <use xlink:href="#qVFcDl3M17-1" x="570.742188" y="229.765625"/>
</g>
<path style=" stroke:none;fill-rule:nonzero;fill:rgb(90.196079%,62.352943%,0%);fill-opacity:0.15;" d="M 552.871094 233.109375 L 567.871094 233.109375 L 567.871094 218.109375 L 552.871094 218.109375 Z M 552.871094 233.109375 "/>
<path style="fill:none;stroke-width:1.5;stroke-linecap:butt;stroke-linejoin:miter;stroke:rgb(90.196079%,62.352943%,0%);stroke-opacity:1;stroke-miterlimit:10;" d="M 737.161458 300.8125 L 757.161458 300.8125 " transform="matrix(0.75,0,0,0.75,0,0)"/>
<g style="fill:rgb(0%,0%,0%);fill-opacity:1;">
  <use xlink:href="#qVFcDl3M4-9" x="570.707031" y="247.015625"/>
</g>
<path style=" stroke:none;fill-rule:nonzero;fill:rgb(0%,61.960787%,45.09804%);fill-opacity:0.15;" d="M 552.871094 250.359375 L 567.871094 250.359375 L 567.871094 235.359375 L 552.871094 235.359375 Z M 552.871094 250.359375 "/>
<path style="fill:none;stroke-width:1.5;stroke-linecap:butt;stroke-linejoin:miter;stroke:rgb(0%,61.960787%,45.09804%);stroke-opacity:1;stroke-miterlimit:10;" d="M 737.161458 323.8125 L 757.161458 323.8125 " transform="matrix(0.75,0,0,0.75,0,0)"/>
<path style="fill:none;stroke-width:1;stroke-linecap:butt;stroke-linejoin:miter;stroke:rgb(0%,0%,0%);stroke-opacity:1;stroke-miterlimit:10;" d="M 66.5 536 L 371.5 536 " transform="matrix(0.75,0,0,0.75,0,0)"/>
<path style="fill:none;stroke-width:1;stroke-linecap:butt;stroke-linejoin:miter;stroke:rgb(0%,0%,0%);stroke-opacity:1;stroke-miterlimit:10;" d="M 67 536.5 L 67 38.5 " transform="matrix(0.75,0,0,0.75,0,0)"/>
<path style="fill:none;stroke-width:1;stroke-linecap:butt;stroke-linejoin:miter;stroke:rgb(0%,0%,0%);stroke-opacity:1;stroke-miterlimit:10;" d="M 66.5 39 L 371.5 39 " transform="matrix(0.75,0,0,0.75,0,0)"/>
<path style="fill:none;stroke-width:1;stroke-linecap:butt;stroke-linejoin:miter;stroke:rgb(0%,0%,0%);stroke-opacity:1;stroke-miterlimit:10;" d="M 371 536.5 L 371 38.5 " transform="matrix(0.75,0,0,0.75,0,0)"/>
<path style="fill:none;stroke-width:1;stroke-linecap:butt;stroke-linejoin:miter;stroke:rgb(0%,0%,0%);stroke-opacity:1;stroke-miterlimit:10;" d="M 394.5 536 L 699.5 536 " transform="matrix(0.75,0,0,0.75,0,0)"/>
<path style="fill:none;stroke-width:1;stroke-linecap:butt;stroke-linejoin:miter;stroke:rgb(0%,0%,0%);stroke-opacity:1;stroke-miterlimit:10;" d="M 395 536.5 L 395 38.5 " transform="matrix(0.75,0,0,0.75,0,0)"/>
<path style="fill:none;stroke-width:1;stroke-linecap:butt;stroke-linejoin:miter;stroke:rgb(0%,0%,0%);stroke-opacity:1;stroke-miterlimit:10;" d="M 394.5 39 L 699.5 39 " transform="matrix(0.75,0,0,0.75,0,0)"/>
<path style="fill:none;stroke-width:1;stroke-linecap:butt;stroke-linejoin:miter;stroke:rgb(0%,0%,0%);stroke-opacity:1;stroke-miterlimit:10;" d="M 699 536.5 L 699 38.5 " transform="matrix(0.75,0,0,0.75,0,0)"/>
</g>
</svg>
