<?xml version="1.0" encoding="UTF-8"?>
<svg xmlns="http://www.w3.org/2000/svg" xmlns:xlink="http://www.w3.org/1999/xlink" width="600pt" height="450pt" viewBox="0 0 600 450" version="1.1">
<defs>
<g>
<symbol overflow="visible" id="crbBcGmF0-0">
<path style="stroke:none;" d="M 0.59375 2.125 L 0.59375 -8.46875 L 6.59375 -8.46875 L 6.59375 2.125 Z M 1.265625 1.453125 L 5.9375 1.453125 L 5.9375 -7.78125 L 1.265625 -7.78125 Z M 1.265625 1.453125 "/>
</symbol>
<symbol overflow="visible" id="crbBcGmF0-1">
<path style="stroke:none;" d="M 3.8125 -7.96875 C 3.207031 -7.96875 2.75 -7.664062 2.4375 -7.0625 C 2.132812 -6.46875 1.984375 -5.566406 1.984375 -4.359375 C 1.984375 -3.160156 2.132812 -2.257812 2.4375 -1.65625 C 2.75 -1.0625 3.207031 -0.765625 3.8125 -0.765625 C 4.425781 -0.765625 4.882812 -1.0625 5.1875 -1.65625 C 5.5 -2.257812 5.65625 -3.160156 5.65625 -4.359375 C 5.65625 -5.566406 5.5 -6.46875 5.1875 -7.0625 C 4.882812 -7.664062 4.425781 -7.96875 3.8125 -7.96875 Z M 3.8125 -8.90625 C 4.789062 -8.90625 5.539062 -8.515625 6.0625 -7.734375 C 6.582031 -6.960938 6.84375 -5.835938 6.84375 -4.359375 C 6.84375 -2.890625 6.582031 -1.765625 6.0625 -0.984375 C 5.539062 -0.210938 4.789062 0.171875 3.8125 0.171875 C 2.832031 0.171875 2.082031 -0.210938 1.5625 -0.984375 C 1.050781 -1.765625 0.796875 -2.890625 0.796875 -4.359375 C 0.796875 -5.835938 1.050781 -6.960938 1.5625 -7.734375 C 2.082031 -8.515625 2.832031 -8.90625 3.8125 -8.90625 Z M 3.8125 -8.90625 "/>
</symbol>
<symbol overflow="visible" id="crbBcGmF0-2">
<path style="stroke:none;" d="M 1.484375 -1 L 3.421875 -1 L 3.421875 -7.671875 L 1.3125 -7.25 L 1.3125 -8.328125 L 3.40625 -8.75 L 4.59375 -8.75 L 4.59375 -1 L 6.53125 -1 L 6.53125 0 L 1.484375 0 Z M 1.484375 -1 "/>
</symbol>
<symbol overflow="visible" id="crbBcGmF1-0">
<path style="stroke:none;" d="M 0.59375 2.125 L 0.59375 -8.46875 L 6.59375 -8.46875 L 6.59375 2.125 Z M 1.265625 1.453125 L 5.9375 1.453125 L 5.9375 -7.78125 L 1.265625 -7.78125 Z M 1.265625 1.453125 "/>
</symbol>
<symbol overflow="visible" id="crbBcGmF1-1">
<path style="stroke:none;" d="M 1.28125 -1.484375 L 2.515625 -1.484375 L 2.515625 0 L 1.28125 0 Z M 1.28125 -1.484375 "/>
</symbol>
<symbol overflow="visible" id="crbBcGmF1-2">
<path style="stroke:none;" d="M 3.8125 -7.96875 C 3.207031 -7.96875 2.75 -7.664062 2.4375 -7.0625 C 2.132812 -6.46875 1.984375 -5.566406 1.984375 -4.359375 C 1.984375 -3.160156 2.132812 -2.257812 2.4375 -1.65625 C 2.75 -1.0625 3.207031 -0.765625 3.8125 -0.765625 C 4.425781 -0.765625 4.882812 -1.0625 5.1875 -1.65625 C 5.5 -2.257812 5.65625 -3.160156 5.65625 -4.359375 C 5.65625 -5.566406 5.5 -6.46875 5.1875 -7.0625 C 4.882812 -7.664062 4.425781 -7.96875 3.8125 -7.96875 Z M 3.8125 -8.90625 C 4.789062 -8.90625 5.539062 -8.515625 6.0625 -7.734375 C 6.582031 -6.960938 6.84375 -5.835938 6.84375 -4.359375 C 6.84375 -2.890625 6.582031 -1.765625 6.0625 -0.984375 C 5.539062 -0.210938 4.789062 0.171875 3.8125 0.171875 C 2.832031 0.171875 2.082031 -0.210938 1.5625 -0.984375 C 1.050781 -1.765625 0.796875 -2.890625 0.796875 -4.359375 C 0.796875 -5.835938 1.050781 -6.960938 1.5625 -7.734375 C 2.082031 -8.515625 2.832031 -8.90625 3.8125 -8.90625 Z M 3.8125 -8.90625 "/>
</symbol>
<symbol overflow="visible" id="crbBcGmF1-3">
<path style="stroke:none;" d="M 2.296875 -1 L 6.4375 -1 L 6.4375 0 L 0.875 0 L 0.875 -1 C 1.320312 -1.457031 1.929688 -2.078125 2.703125 -2.859375 C 3.484375 -3.648438 3.972656 -4.160156 4.171875 -4.390625 C 4.554688 -4.804688 4.820312 -5.160156 4.96875 -5.453125 C 5.125 -5.753906 5.203125 -6.046875 5.203125 -6.328125 C 5.203125 -6.796875 5.035156 -7.175781 4.703125 -7.46875 C 4.378906 -7.757812 3.957031 -7.90625 3.4375 -7.90625 C 3.0625 -7.90625 2.664062 -7.84375 2.25 -7.71875 C 1.84375 -7.59375 1.40625 -7.394531 0.9375 -7.125 L 0.9375 -8.328125 C 1.414062 -8.515625 1.859375 -8.65625 2.265625 -8.75 C 2.679688 -8.851562 3.0625 -8.90625 3.40625 -8.90625 C 4.3125 -8.90625 5.035156 -8.675781 5.578125 -8.21875 C 6.117188 -7.769531 6.390625 -7.164062 6.390625 -6.40625 C 6.390625 -6.050781 6.320312 -5.710938 6.1875 -5.390625 C 6.050781 -5.066406 5.804688 -4.6875 5.453125 -4.25 C 5.347656 -4.132812 5.035156 -3.804688 4.515625 -3.265625 C 3.992188 -2.722656 3.253906 -1.96875 2.296875 -1 Z M 2.296875 -1 "/>
</symbol>
<symbol overflow="visible" id="crbBcGmF1-4">
<path style="stroke:none;" d="M 3.8125 -4.15625 C 3.25 -4.15625 2.804688 -4.003906 2.484375 -3.703125 C 2.160156 -3.398438 2 -2.988281 2 -2.46875 C 2 -1.9375 2.160156 -1.519531 2.484375 -1.21875 C 2.804688 -0.914062 3.25 -0.765625 3.8125 -0.765625 C 4.375 -0.765625 4.816406 -0.914062 5.140625 -1.21875 C 5.460938 -1.519531 5.625 -1.9375 5.625 -2.46875 C 5.625 -2.988281 5.460938 -3.398438 5.140625 -3.703125 C 4.828125 -4.003906 4.382812 -4.15625 3.8125 -4.15625 Z M 2.625 -4.65625 C 2.125 -4.78125 1.726562 -5.015625 1.4375 -5.359375 C 1.15625 -5.710938 1.015625 -6.140625 1.015625 -6.640625 C 1.015625 -7.335938 1.265625 -7.890625 1.765625 -8.296875 C 2.265625 -8.703125 2.945312 -8.90625 3.8125 -8.90625 C 4.6875 -8.90625 5.367188 -8.703125 5.859375 -8.296875 C 6.359375 -7.890625 6.609375 -7.335938 6.609375 -6.640625 C 6.609375 -6.140625 6.46875 -5.710938 6.1875 -5.359375 C 5.90625 -5.015625 5.507812 -4.78125 5 -4.65625 C 5.570312 -4.519531 6.015625 -4.257812 6.328125 -3.875 C 6.648438 -3.488281 6.8125 -3.019531 6.8125 -2.46875 C 6.8125 -1.613281 6.550781 -0.957031 6.03125 -0.5 C 5.519531 -0.0507812 4.78125 0.171875 3.8125 0.171875 C 2.851562 0.171875 2.113281 -0.0507812 1.59375 -0.5 C 1.070312 -0.957031 0.8125 -1.613281 0.8125 -2.46875 C 0.8125 -3.019531 0.972656 -3.488281 1.296875 -3.875 C 1.617188 -4.257812 2.0625 -4.519531 2.625 -4.65625 Z M 2.203125 -6.53125 C 2.203125 -6.070312 2.34375 -5.71875 2.625 -5.46875 C 2.90625 -5.21875 3.300781 -5.09375 3.8125 -5.09375 C 4.320312 -5.09375 4.71875 -5.21875 5 -5.46875 C 5.289062 -5.71875 5.4375 -6.070312 5.4375 -6.53125 C 5.4375 -6.976562 5.289062 -7.328125 5 -7.578125 C 4.71875 -7.835938 4.320312 -7.96875 3.8125 -7.96875 C 3.300781 -7.96875 2.90625 -7.835938 2.625 -7.578125 C 2.34375 -7.328125 2.203125 -6.976562 2.203125 -6.53125 Z M 2.203125 -6.53125 "/>
</symbol>
<symbol overflow="visible" id="crbBcGmF1-5">
<path style="stroke:none;" d="M 1.484375 -1 L 3.421875 -1 L 3.421875 -7.671875 L 1.3125 -7.25 L 1.3125 -8.328125 L 3.40625 -8.75 L 4.59375 -8.75 L 4.59375 -1 L 6.53125 -1 L 6.53125 0 L 1.484375 0 Z M 1.484375 -1 "/>
</symbol>
<symbol overflow="visible" id="crbBcGmF1-6">
<path style="stroke:none;" d="M 0.359375 -6.5625 L 1.5 -6.5625 L 3.546875 -1.0625 L 5.609375 -6.5625 L 6.75 -6.5625 L 4.28125 0 L 2.8125 0 Z M 0.359375 -6.5625 "/>
</symbol>
<symbol overflow="visible" id="crbBcGmF1-7">
<path style="stroke:none;" d="M 4.109375 -3.296875 C 3.242188 -3.296875 2.640625 -3.195312 2.296875 -3 C 1.960938 -2.800781 1.796875 -2.460938 1.796875 -1.984375 C 1.796875 -1.597656 1.921875 -1.289062 2.171875 -1.0625 C 2.429688 -0.84375 2.773438 -0.734375 3.203125 -0.734375 C 3.804688 -0.734375 4.285156 -0.941406 4.640625 -1.359375 C 5.003906 -1.785156 5.1875 -2.351562 5.1875 -3.0625 L 5.1875 -3.296875 Z M 6.265625 -3.75 L 6.265625 0 L 5.1875 0 L 5.1875 -1 C 4.9375 -0.601562 4.628906 -0.304688 4.265625 -0.109375 C 3.898438 0.078125 3.453125 0.171875 2.921875 0.171875 C 2.242188 0.171875 1.707031 -0.015625 1.3125 -0.390625 C 0.914062 -0.773438 0.71875 -1.28125 0.71875 -1.90625 C 0.71875 -2.644531 0.960938 -3.203125 1.453125 -3.578125 C 1.953125 -3.953125 2.691406 -4.140625 3.671875 -4.140625 L 5.1875 -4.140625 L 5.1875 -4.25 C 5.1875 -4.75 5.019531 -5.132812 4.6875 -5.40625 C 4.363281 -5.675781 3.910156 -5.8125 3.328125 -5.8125 C 2.953125 -5.8125 2.582031 -5.765625 2.21875 -5.671875 C 1.863281 -5.578125 1.523438 -5.441406 1.203125 -5.265625 L 1.203125 -6.265625 C 1.597656 -6.421875 1.976562 -6.535156 2.34375 -6.609375 C 2.71875 -6.679688 3.082031 -6.71875 3.4375 -6.71875 C 4.382812 -6.71875 5.09375 -6.472656 5.5625 -5.984375 C 6.03125 -5.492188 6.265625 -4.75 6.265625 -3.75 Z M 6.265625 -3.75 "/>
</symbol>
<symbol overflow="visible" id="crbBcGmF1-8">
<path style="stroke:none;" d="M 1.125 -9.125 L 2.203125 -9.125 L 2.203125 0 L 1.125 0 Z M 1.125 -9.125 "/>
</symbol>
<symbol overflow="visible" id="crbBcGmF1-9">
<path style="stroke:none;" d="M 6.75 -3.546875 L 6.75 -3.03125 L 1.78125 -3.03125 C 1.832031 -2.28125 2.054688 -1.710938 2.453125 -1.328125 C 2.859375 -0.941406 3.414062 -0.75 4.125 -0.75 C 4.539062 -0.75 4.941406 -0.796875 5.328125 -0.890625 C 5.722656 -0.992188 6.113281 -1.148438 6.5 -1.359375 L 6.5 -0.328125 C 6.101562 -0.171875 5.703125 -0.0507812 5.296875 0.03125 C 4.890625 0.125 4.476562 0.171875 4.0625 0.171875 C 3.019531 0.171875 2.191406 -0.128906 1.578125 -0.734375 C 0.960938 -1.347656 0.65625 -2.175781 0.65625 -3.21875 C 0.65625 -4.289062 0.945312 -5.140625 1.53125 -5.765625 C 2.113281 -6.398438 2.894531 -6.71875 3.875 -6.71875 C 4.757812 -6.71875 5.457031 -6.429688 5.96875 -5.859375 C 6.488281 -5.296875 6.75 -4.523438 6.75 -3.546875 Z M 5.671875 -3.875 C 5.660156 -4.457031 5.492188 -4.925781 5.171875 -5.28125 C 4.847656 -5.632812 4.421875 -5.8125 3.890625 -5.8125 C 3.285156 -5.8125 2.800781 -5.640625 2.4375 -5.296875 C 2.082031 -4.953125 1.878906 -4.472656 1.828125 -3.859375 Z M 5.671875 -3.875 "/>
</symbol>
<symbol overflow="visible" id="crbBcGmF1-10">
<path style="stroke:none;" d="M 4.875 -4.71875 C 5.4375 -4.59375 5.875 -4.335938 6.1875 -3.953125 C 6.507812 -3.578125 6.671875 -3.109375 6.671875 -2.546875 C 6.671875 -1.679688 6.375 -1.007812 5.78125 -0.53125 C 5.1875 -0.0625 4.34375 0.171875 3.25 0.171875 C 2.882812 0.171875 2.503906 0.132812 2.109375 0.0625 C 1.722656 -0.0078125 1.328125 -0.117188 0.921875 -0.265625 L 0.921875 -1.40625 C 1.242188 -1.21875 1.597656 -1.070312 1.984375 -0.96875 C 2.378906 -0.875 2.789062 -0.828125 3.21875 -0.828125 C 3.957031 -0.828125 4.519531 -0.972656 4.90625 -1.265625 C 5.300781 -1.554688 5.5 -1.984375 5.5 -2.546875 C 5.5 -3.054688 5.316406 -3.457031 4.953125 -3.75 C 4.585938 -4.039062 4.085938 -4.1875 3.453125 -4.1875 L 2.421875 -4.1875 L 2.421875 -5.15625 L 3.5 -5.15625 C 4.070312 -5.15625 4.515625 -5.269531 4.828125 -5.5 C 5.140625 -5.738281 5.296875 -6.078125 5.296875 -6.515625 C 5.296875 -6.960938 5.132812 -7.304688 4.8125 -7.546875 C 4.5 -7.785156 4.046875 -7.90625 3.453125 -7.90625 C 3.117188 -7.90625 2.765625 -7.867188 2.390625 -7.796875 C 2.023438 -7.734375 1.617188 -7.628906 1.171875 -7.484375 L 1.171875 -8.53125 C 1.628906 -8.65625 2.050781 -8.75 2.4375 -8.8125 C 2.832031 -8.875 3.203125 -8.90625 3.546875 -8.90625 C 4.453125 -8.90625 5.164062 -8.703125 5.6875 -8.296875 C 6.207031 -7.890625 6.46875 -7.335938 6.46875 -6.640625 C 6.46875 -6.148438 6.328125 -5.738281 6.046875 -5.40625 C 5.773438 -5.070312 5.382812 -4.84375 4.875 -4.71875 Z M 4.875 -4.71875 "/>
</symbol>
<symbol overflow="visible" id="crbBcGmF2-0">
<path style="stroke:none;" d="M 0.59375 2.125 L 0.59375 -8.46875 L 6.59375 -8.46875 L 6.59375 2.125 Z M 1.265625 1.453125 L 5.9375 1.453125 L 5.9375 -7.78125 L 1.265625 -7.78125 Z M 1.265625 1.453125 "/>
</symbol>
<symbol overflow="visible" id="crbBcGmF2-1">
<path style="stroke:none;" d="M 3.8125 -4.15625 C 3.25 -4.15625 2.804688 -4.003906 2.484375 -3.703125 C 2.160156 -3.398438 2 -2.988281 2 -2.46875 C 2 -1.9375 2.160156 -1.519531 2.484375 -1.21875 C 2.804688 -0.914062 3.25 -0.765625 3.8125 -0.765625 C 4.375 -0.765625 4.816406 -0.914062 5.140625 -1.21875 C 5.460938 -1.519531 5.625 -1.9375 5.625 -2.46875 C 5.625 -2.988281 5.460938 -3.398438 5.140625 -3.703125 C 4.828125 -4.003906 4.382812 -4.15625 3.8125 -4.15625 Z M 2.625 -4.65625 C 2.125 -4.78125 1.726562 -5.015625 1.4375 -5.359375 C 1.15625 -5.710938 1.015625 -6.140625 1.015625 -6.640625 C 1.015625 -7.335938 1.265625 -7.890625 1.765625 -8.296875 C 2.265625 -8.703125 2.945312 -8.90625 3.8125 -8.90625 C 4.6875 -8.90625 5.367188 -8.703125 5.859375 -8.296875 C 6.359375 -7.890625 6.609375 -7.335938 6.609375 -6.640625 C 6.609375 -6.140625 6.46875 -5.710938 6.1875 -5.359375 C 5.90625 -5.015625 5.507812 -4.78125 5 -4.65625 C 5.570312 -4.519531 6.015625 -4.257812 6.328125 -3.875 C 6.648438 -3.488281 6.8125 -3.019531 6.8125 -2.46875 C 6.8125 -1.613281 6.550781 -0.957031 6.03125 -0.5 C 5.519531 -0.0507812 4.78125 0.171875 3.8125 0.171875 C 2.851562 0.171875 2.113281 -0.0507812 1.59375 -0.5 C 1.070312 -0.957031 0.8125 -1.613281 0.8125 -2.46875 C 0.8125 -3.019531 0.972656 -3.488281 1.296875 -3.875 C 1.617188 -4.257812 2.0625 -4.519531 2.625 -4.65625 Z M 2.203125 -6.53125 C 2.203125 -6.070312 2.34375 -5.71875 2.625 -5.46875 C 2.90625 -5.21875 3.300781 -5.09375 3.8125 -5.09375 C 4.320312 -5.09375 4.71875 -5.21875 5 -5.46875 C 5.289062 -5.71875 5.4375 -6.070312 5.4375 -6.53125 C 5.4375 -6.976562 5.289062 -7.328125 5 -7.578125 C 4.71875 -7.835938 4.320312 -7.96875 3.8125 -7.96875 C 3.300781 -7.96875 2.90625 -7.835938 2.625 -7.578125 C 2.34375 -7.328125 2.203125 -6.976562 2.203125 -6.53125 Z M 2.203125 -6.53125 "/>
</symbol>
<symbol overflow="visible" id="crbBcGmF2-2">
<path style="stroke:none;" d="M 3.8125 -7.96875 C 3.207031 -7.96875 2.75 -7.664062 2.4375 -7.0625 C 2.132812 -6.46875 1.984375 -5.566406 1.984375 -4.359375 C 1.984375 -3.160156 2.132812 -2.257812 2.4375 -1.65625 C 2.75 -1.0625 3.207031 -0.765625 3.8125 -0.765625 C 4.425781 -0.765625 4.882812 -1.0625 5.1875 -1.65625 C 5.5 -2.257812 5.65625 -3.160156 5.65625 -4.359375 C 5.65625 -5.566406 5.5 -6.46875 5.1875 -7.0625 C 4.882812 -7.664062 4.425781 -7.96875 3.8125 -7.96875 Z M 3.8125 -8.90625 C 4.789062 -8.90625 5.539062 -8.515625 6.0625 -7.734375 C 6.582031 -6.960938 6.84375 -5.835938 6.84375 -4.359375 C 6.84375 -2.890625 6.582031 -1.765625 6.0625 -0.984375 C 5.539062 -0.210938 4.789062 0.171875 3.8125 0.171875 C 2.832031 0.171875 2.082031 -0.210938 1.5625 -0.984375 C 1.050781 -1.765625 0.796875 -2.890625 0.796875 -4.359375 C 0.796875 -5.835938 1.050781 -6.960938 1.5625 -7.734375 C 2.082031 -8.515625 2.832031 -8.90625 3.8125 -8.90625 Z M 3.8125 -8.90625 "/>
</symbol>
<symbol overflow="visible" id="crbBcGmF3-0">
<path style="stroke:none;" d="M 0.59375 2.125 L 0.59375 -8.46875 L 6.59375 -8.46875 L 6.59375 2.125 Z M 1.265625 1.453125 L 5.9375 1.453125 L 5.9375 -7.78125 L 1.265625 -7.78125 Z M 1.265625 1.453125 "/>
</symbol>
<symbol overflow="visible" id="crbBcGmF3-1">
<path style="stroke:none;" d="M 1.28125 -1.484375 L 2.515625 -1.484375 L 2.515625 0 L 1.28125 0 Z M 1.28125 -1.484375 "/>
</symbol>
<symbol overflow="visible" id="crbBcGmF4-0">
<path style="stroke:none;" d="M 0.59375 2.125 L 0.59375 -8.46875 L 6.59375 -8.46875 L 6.59375 2.125 Z M 1.265625 1.453125 L 5.9375 1.453125 L 5.9375 -7.78125 L 1.265625 -7.78125 Z M 1.265625 1.453125 "/>
</symbol>
<symbol overflow="visible" id="crbBcGmF4-1">
<path style="stroke:none;" d="M 1.484375 -1 L 3.421875 -1 L 3.421875 -7.671875 L 1.3125 -7.25 L 1.3125 -8.328125 L 3.40625 -8.75 L 4.59375 -8.75 L 4.59375 -1 L 6.53125 -1 L 6.53125 0 L 1.484375 0 Z M 1.484375 -1 "/>
</symbol>
<symbol overflow="visible" id="crbBcGmF4-2">
<path style="stroke:none;" d="M 1.28125 -1.484375 L 2.515625 -1.484375 L 2.515625 0 L 1.28125 0 Z M 1.28125 -1.484375 "/>
</symbol>
<symbol overflow="visible" id="crbBcGmF4-3">
<path style="stroke:none;" d="M 3.8125 -7.96875 C 3.207031 -7.96875 2.75 -7.664062 2.4375 -7.0625 C 2.132812 -6.46875 1.984375 -5.566406 1.984375 -4.359375 C 1.984375 -3.160156 2.132812 -2.257812 2.4375 -1.65625 C 2.75 -1.0625 3.207031 -0.765625 3.8125 -0.765625 C 4.425781 -0.765625 4.882812 -1.0625 5.1875 -1.65625 C 5.5 -2.257812 5.65625 -3.160156 5.65625 -4.359375 C 5.65625 -5.566406 5.5 -6.46875 5.1875 -7.0625 C 4.882812 -7.664062 4.425781 -7.96875 3.8125 -7.96875 Z M 3.8125 -8.90625 C 4.789062 -8.90625 5.539062 -8.515625 6.0625 -7.734375 C 6.582031 -6.960938 6.84375 -5.835938 6.84375 -4.359375 C 6.84375 -2.890625 6.582031 -1.765625 6.0625 -0.984375 C 5.539062 -0.210938 4.789062 0.171875 3.8125 0.171875 C 2.832031 0.171875 2.082031 -0.210938 1.5625 -0.984375 C 1.050781 -1.765625 0.796875 -2.890625 0.796875 -4.359375 C 0.796875 -5.835938 1.050781 -6.960938 1.5625 -7.734375 C 2.082031 -8.515625 2.832031 -8.90625 3.8125 -8.90625 Z M 3.8125 -8.90625 "/>
</symbol>
<symbol overflow="visible" id="crbBcGmF4-4">
<path style="stroke:none;" d="M 1.015625 -2.59375 L 1.015625 -6.5625 L 2.09375 -6.5625 L 2.09375 -2.625 C 2.09375 -2.007812 2.210938 -1.546875 2.453125 -1.234375 C 2.703125 -0.921875 3.066406 -0.765625 3.546875 -0.765625 C 4.128906 -0.765625 4.585938 -0.945312 4.921875 -1.3125 C 5.265625 -1.6875 5.4375 -2.195312 5.4375 -2.84375 L 5.4375 -6.5625 L 6.515625 -6.5625 L 6.515625 0 L 5.4375 0 L 5.4375 -1.015625 C 5.175781 -0.609375 4.875 -0.304688 4.53125 -0.109375 C 4.1875 0.078125 3.785156 0.171875 3.328125 0.171875 C 2.566406 0.171875 1.988281 -0.0625 1.59375 -0.53125 C 1.207031 -1 1.015625 -1.6875 1.015625 -2.59375 Z M 3.734375 -6.71875 Z M 3.734375 -6.71875 "/>
</symbol>
<symbol overflow="visible" id="crbBcGmF5-0">
<path style="stroke:none;" d="M 0.59375 2.125 L 0.59375 -8.46875 L 6.59375 -8.46875 L 6.59375 2.125 Z M 1.265625 1.453125 L 5.9375 1.453125 L 5.9375 -7.78125 L 1.265625 -7.78125 Z M 1.265625 1.453125 "/>
</symbol>
<symbol overflow="visible" id="crbBcGmF5-1">
<path style="stroke:none;" d="M 1.296875 -8.75 L 5.9375 -8.75 L 5.9375 -7.75 L 2.375 -7.75 L 2.375 -5.609375 C 2.550781 -5.671875 2.722656 -5.710938 2.890625 -5.734375 C 3.066406 -5.765625 3.238281 -5.78125 3.40625 -5.78125 C 4.382812 -5.78125 5.160156 -5.507812 5.734375 -4.96875 C 6.304688 -4.4375 6.59375 -3.71875 6.59375 -2.8125 C 6.59375 -1.863281 6.296875 -1.128906 5.703125 -0.609375 C 5.117188 -0.0859375 4.296875 0.171875 3.234375 0.171875 C 2.859375 0.171875 2.476562 0.140625 2.09375 0.078125 C 1.71875 0.015625 1.328125 -0.078125 0.921875 -0.203125 L 0.921875 -1.390625 C 1.273438 -1.203125 1.640625 -1.0625 2.015625 -0.96875 C 2.390625 -0.875 2.785156 -0.828125 3.203125 -0.828125 C 3.878906 -0.828125 4.414062 -1.003906 4.8125 -1.359375 C 5.207031 -1.710938 5.40625 -2.195312 5.40625 -2.8125 C 5.40625 -3.414062 5.207031 -3.894531 4.8125 -4.25 C 4.414062 -4.601562 3.878906 -4.78125 3.203125 -4.78125 C 2.890625 -4.78125 2.570312 -4.742188 2.25 -4.671875 C 1.9375 -4.609375 1.617188 -4.503906 1.296875 -4.359375 Z M 1.296875 -8.75 "/>
</symbol>
<symbol overflow="visible" id="crbBcGmF6-0">
<path style="stroke:none;" d="M 0.59375 2.125 L 0.59375 -8.46875 L 6.59375 -8.46875 L 6.59375 2.125 Z M 1.265625 1.453125 L 5.9375 1.453125 L 5.9375 -7.78125 L 1.265625 -7.78125 Z M 1.265625 1.453125 "/>
</symbol>
<symbol overflow="visible" id="crbBcGmF6-1">
<path style="stroke:none;" d="M 1.484375 -1 L 3.421875 -1 L 3.421875 -7.671875 L 1.3125 -7.25 L 1.3125 -8.328125 L 3.40625 -8.75 L 4.59375 -8.75 L 4.59375 -1 L 6.53125 -1 L 6.53125 0 L 1.484375 0 Z M 1.484375 -1 "/>
</symbol>
<symbol overflow="visible" id="crbBcGmF7-0">
<path style="stroke:none;" d="M 0.59375 2.125 L 0.59375 -8.46875 L 6.59375 -8.46875 L 6.59375 2.125 Z M 1.265625 1.453125 L 5.9375 1.453125 L 5.9375 -7.78125 L 1.265625 -7.78125 Z M 1.265625 1.453125 "/>
</symbol>
<symbol overflow="visible" id="crbBcGmF7-1">
<path style="stroke:none;" d="M 3.8125 -7.96875 C 3.207031 -7.96875 2.75 -7.664062 2.4375 -7.0625 C 2.132812 -6.46875 1.984375 -5.566406 1.984375 -4.359375 C 1.984375 -3.160156 2.132812 -2.257812 2.4375 -1.65625 C 2.75 -1.0625 3.207031 -0.765625 3.8125 -0.765625 C 4.425781 -0.765625 4.882812 -1.0625 5.1875 -1.65625 C 5.5 -2.257812 5.65625 -3.160156 5.65625 -4.359375 C 5.65625 -5.566406 5.5 -6.46875 5.1875 -7.0625 C 4.882812 -7.664062 4.425781 -7.96875 3.8125 -7.96875 Z M 3.8125 -8.90625 C 4.789062 -8.90625 5.539062 -8.515625 6.0625 -7.734375 C 6.582031 -6.960938 6.84375 -5.835938 6.84375 -4.359375 C 6.84375 -2.890625 6.582031 -1.765625 6.0625 -0.984375 C 5.539062 -0.210938 4.789062 0.171875 3.8125 0.171875 C 2.832031 0.171875 2.082031 -0.210938 1.5625 -0.984375 C 1.050781 -1.765625 0.796875 -2.890625 0.796875 -4.359375 C 0.796875 -5.835938 1.050781 -6.960938 1.5625 -7.734375 C 2.082031 -8.515625 2.832031 -8.90625 3.8125 -8.90625 Z M 3.8125 -8.90625 "/>
</symbol>
<symbol overflow="visible" id="crbBcGmF8-0">
<path style="stroke:none;" d="M 2.125 -0.59375 L -8.46875 -0.59375 L -8.46875 -6.59375 L 2.125 -6.59375 Z M 1.453125 -1.265625 L 1.453125 -5.9375 L -7.78125 -5.9375 L -7.78125 -1.265625 Z M 1.453125 -1.265625 "/>
</symbol>
<symbol overflow="visible" id="crbBcGmF8-1">
<path style="stroke:none;" d="M -5.5625 -5.453125 L -9.125 -5.453125 L -9.125 -6.53125 L 0 -6.53125 L 0 -5.453125 L -0.984375 -5.453125 C -0.597656 -5.222656 -0.304688 -4.9375 -0.109375 -4.59375 C 0.078125 -4.25 0.171875 -3.832031 0.171875 -3.34375 C 0.171875 -2.550781 -0.144531 -1.90625 -0.78125 -1.40625 C -1.414062 -0.90625 -2.25 -0.65625 -3.28125 -0.65625 C -4.3125 -0.65625 -5.140625 -0.90625 -5.765625 -1.40625 C -6.398438 -1.90625 -6.71875 -2.550781 -6.71875 -3.34375 C -6.71875 -3.832031 -6.625 -4.25 -6.4375 -4.59375 C -6.25 -4.9375 -5.957031 -5.222656 -5.5625 -5.453125 Z M -3.28125 -1.78125 C -2.488281 -1.78125 -1.863281 -1.941406 -1.40625 -2.265625 C -0.957031 -2.585938 -0.734375 -3.035156 -0.734375 -3.609375 C -0.734375 -4.179688 -0.957031 -4.628906 -1.40625 -4.953125 C -1.863281 -5.285156 -2.488281 -5.453125 -3.28125 -5.453125 C -4.070312 -5.453125 -4.691406 -5.285156 -5.140625 -4.953125 C -5.585938 -4.628906 -5.8125 -4.179688 -5.8125 -3.609375 C -5.8125 -3.035156 -5.585938 -2.585938 -5.140625 -2.265625 C -4.691406 -1.941406 -4.070312 -1.78125 -3.28125 -1.78125 Z M -3.28125 -1.78125 "/>
</symbol>
<symbol overflow="visible" id="crbBcGmF8-2">
<path style="stroke:none;" d="M -6.375 -5.3125 L -5.34375 -5.3125 C -5.5 -5.007812 -5.613281 -4.691406 -5.6875 -4.359375 C -5.769531 -4.035156 -5.8125 -3.695312 -5.8125 -3.34375 C -5.8125 -2.8125 -5.726562 -2.410156 -5.5625 -2.140625 C -5.40625 -1.867188 -5.160156 -1.734375 -4.828125 -1.734375 C -4.578125 -1.734375 -4.378906 -1.828125 -4.234375 -2.015625 C -4.097656 -2.210938 -3.96875 -2.601562 -3.84375 -3.1875 L -3.75 -3.546875 C -3.59375 -4.316406 -3.363281 -4.863281 -3.0625 -5.1875 C -2.757812 -5.507812 -2.34375 -5.671875 -1.8125 -5.671875 C -1.195312 -5.671875 -0.710938 -5.425781 -0.359375 -4.9375 C -0.00390625 -4.457031 0.171875 -3.796875 0.171875 -2.953125 C 0.171875 -2.597656 0.132812 -2.226562 0.0625 -1.84375 C 0 -1.46875 -0.0976562 -1.070312 -0.234375 -0.65625 L -1.359375 -0.65625 C -1.148438 -1.050781 -0.992188 -1.441406 -0.890625 -1.828125 C -0.785156 -2.210938 -0.734375 -2.597656 -0.734375 -2.984375 C -0.734375 -3.484375 -0.816406 -3.867188 -0.984375 -4.140625 C -1.160156 -4.421875 -1.410156 -4.5625 -1.734375 -4.5625 C -2.023438 -4.5625 -2.25 -4.460938 -2.40625 -4.265625 C -2.5625 -4.066406 -2.710938 -3.632812 -2.859375 -2.96875 L -2.9375 -2.59375 C -3.082031 -1.925781 -3.300781 -1.441406 -3.59375 -1.140625 C -3.882812 -0.847656 -4.28125 -0.703125 -4.78125 -0.703125 C -5.40625 -0.703125 -5.882812 -0.921875 -6.21875 -1.359375 C -6.550781 -1.796875 -6.71875 -2.414062 -6.71875 -3.21875 C -6.71875 -3.613281 -6.6875 -3.988281 -6.625 -4.34375 C -6.570312 -4.695312 -6.488281 -5.019531 -6.375 -5.3125 Z M -6.375 -5.3125 "/>
</symbol>
<symbol overflow="visible" id="crbBcGmF9-0">
<path style="stroke:none;" d="M 2.125 -0.59375 L -8.46875 -0.59375 L -8.46875 -6.59375 L 2.125 -6.59375 Z M 1.453125 -1.265625 L 1.453125 -5.9375 L -7.78125 -5.9375 L -7.78125 -1.265625 Z M 1.453125 -1.265625 "/>
</symbol>
<symbol overflow="visible" id="crbBcGmF9-1">
<path style="stroke:none;" d="M -3.546875 -6.75 L -3.03125 -6.75 L -3.03125 -1.78125 C -2.28125 -1.832031 -1.710938 -2.054688 -1.328125 -2.453125 C -0.941406 -2.859375 -0.75 -3.414062 -0.75 -4.125 C -0.75 -4.539062 -0.796875 -4.941406 -0.890625 -5.328125 C -0.992188 -5.722656 -1.148438 -6.113281 -1.359375 -6.5 L -0.328125 -6.5 C -0.171875 -6.101562 -0.0507812 -5.703125 0.03125 -5.296875 C 0.125 -4.890625 0.171875 -4.476562 0.171875 -4.0625 C 0.171875 -3.019531 -0.128906 -2.191406 -0.734375 -1.578125 C -1.347656 -0.960938 -2.175781 -0.65625 -3.21875 -0.65625 C -4.289062 -0.65625 -5.140625 -0.945312 -5.765625 -1.53125 C -6.398438 -2.113281 -6.71875 -2.894531 -6.71875 -3.875 C -6.71875 -4.757812 -6.429688 -5.457031 -5.859375 -5.96875 C -5.296875 -6.488281 -4.523438 -6.75 -3.546875 -6.75 Z M -3.875 -5.671875 C -4.457031 -5.660156 -4.925781 -5.492188 -5.28125 -5.171875 C -5.632812 -4.847656 -5.8125 -4.421875 -5.8125 -3.890625 C -5.8125 -3.285156 -5.640625 -2.800781 -5.296875 -2.4375 C -4.953125 -2.082031 -4.472656 -1.878906 -3.859375 -1.828125 Z M -3.875 -5.671875 "/>
</symbol>
<symbol overflow="visible" id="crbBcGmF10-0">
<path style="stroke:none;" d="M 2.125 -0.59375 L -8.46875 -0.59375 L -8.46875 -6.59375 L 2.125 -6.59375 Z M 1.453125 -1.265625 L 1.453125 -5.9375 L -7.78125 -5.9375 L -7.78125 -1.265625 Z M 1.453125 -1.265625 "/>
</symbol>
<symbol overflow="visible" id="crbBcGmF10-1">
<path style="stroke:none;" d="M -3.96875 -6.59375 L 0 -6.59375 L 0 -5.515625 L -3.921875 -5.515625 C -4.546875 -5.515625 -5.007812 -5.390625 -5.3125 -5.140625 C -5.625 -4.898438 -5.78125 -4.539062 -5.78125 -4.0625 C -5.78125 -3.476562 -5.59375 -3.015625 -5.21875 -2.671875 C -4.851562 -2.335938 -4.347656 -2.171875 -3.703125 -2.171875 L 0 -2.171875 L 0 -1.09375 L -6.5625 -1.09375 L -6.5625 -2.171875 L -5.546875 -2.171875 C -5.941406 -2.429688 -6.234375 -2.734375 -6.421875 -3.078125 C -6.617188 -3.429688 -6.71875 -3.835938 -6.71875 -4.296875 C -6.71875 -5.046875 -6.484375 -5.613281 -6.015625 -6 C -5.554688 -6.394531 -4.875 -6.59375 -3.96875 -6.59375 Z M -3.96875 -6.59375 "/>
</symbol>
<symbol overflow="visible" id="crbBcGmF10-2">
<path style="stroke:none;" d="M -6.5625 -1.125 L -6.5625 -2.203125 L 0 -2.203125 L 0 -1.125 Z M -9.125 -1.125 L -9.125 -2.203125 L -7.75 -2.203125 L -7.75 -1.125 Z M -9.125 -1.125 "/>
</symbol>
<symbol overflow="visible" id="crbBcGmF10-3">
<path style="stroke:none;" d="M -8.421875 -2.203125 L -6.5625 -2.203125 L -6.5625 -4.421875 L -5.71875 -4.421875 L -5.71875 -2.203125 L -2.15625 -2.203125 C -1.625 -2.203125 -1.28125 -2.273438 -1.125 -2.421875 C -0.976562 -2.566406 -0.90625 -2.863281 -0.90625 -3.3125 L -0.90625 -4.421875 L 0 -4.421875 L 0 -3.3125 C 0 -2.476562 -0.15625 -1.898438 -0.46875 -1.578125 C -0.78125 -1.265625 -1.34375 -1.109375 -2.15625 -1.109375 L -5.71875 -1.109375 L -5.71875 -0.328125 L -6.5625 -0.328125 L -6.5625 -1.109375 L -8.421875 -1.109375 Z M -8.421875 -2.203125 "/>
</symbol>
<symbol overflow="visible" id="crbBcGmF11-0">
<path style="stroke:none;" d="M 2.125 -0.59375 L -8.46875 -0.59375 L -8.46875 -6.59375 L 2.125 -6.59375 Z M 1.453125 -1.265625 L 1.453125 -5.9375 L -7.78125 -5.9375 L -7.78125 -1.265625 Z M 1.453125 -1.265625 "/>
</symbol>
<symbol overflow="visible" id="crbBcGmF11-1">
<path style="stroke:none;" d="M 0.609375 -3.859375 C 1.390625 -3.554688 1.898438 -3.257812 2.140625 -2.96875 C 2.378906 -2.675781 2.5 -2.289062 2.5 -1.8125 L 2.5 -0.953125 L 1.59375 -0.953125 L 1.59375 -1.578125 C 1.59375 -1.878906 1.519531 -2.109375 1.375 -2.265625 C 1.238281 -2.429688 0.910156 -2.613281 0.390625 -2.8125 L -0.109375 -3.015625 L -6.5625 -0.359375 L -6.5625 -1.5 L -1.4375 -3.546875 L -6.5625 -5.609375 L -6.5625 -6.75 Z M 0.609375 -3.859375 "/>
</symbol>
<symbol overflow="visible" id="crbBcGmF12-0">
<path style="stroke:none;" d="M 0.59375 2.125 L 0.59375 -8.46875 L 6.59375 -8.46875 L 6.59375 2.125 Z M 1.265625 1.453125 L 5.9375 1.453125 L 5.9375 -7.78125 L 1.265625 -7.78125 Z M 1.265625 1.453125 "/>
</symbol>
<symbol overflow="visible" id="crbBcGmF12-1">
<path style="stroke:none;" d="M 3.8125 -7.96875 C 3.207031 -7.96875 2.75 -7.664062 2.4375 -7.0625 C 2.132812 -6.46875 1.984375 -5.566406 1.984375 -4.359375 C 1.984375 -3.160156 2.132812 -2.257812 2.4375 -1.65625 C 2.75 -1.0625 3.207031 -0.765625 3.8125 -0.765625 C 4.425781 -0.765625 4.882812 -1.0625 5.1875 -1.65625 C 5.5 -2.257812 5.65625 -3.160156 5.65625 -4.359375 C 5.65625 -5.566406 5.5 -6.46875 5.1875 -7.0625 C 4.882812 -7.664062 4.425781 -7.96875 3.8125 -7.96875 Z M 3.8125 -8.90625 C 4.789062 -8.90625 5.539062 -8.515625 6.0625 -7.734375 C 6.582031 -6.960938 6.84375 -5.835938 6.84375 -4.359375 C 6.84375 -2.890625 6.582031 -1.765625 6.0625 -0.984375 C 5.539062 -0.210938 4.789062 0.171875 3.8125 0.171875 C 2.832031 0.171875 2.082031 -0.210938 1.5625 -0.984375 C 1.050781 -1.765625 0.796875 -2.890625 0.796875 -4.359375 C 0.796875 -5.835938 1.050781 -6.960938 1.5625 -7.734375 C 2.082031 -8.515625 2.832031 -8.90625 3.8125 -8.90625 Z M 3.8125 -8.90625 "/>
</symbol>
<symbol overflow="visible" id="crbBcGmF13-0">
<path style="stroke:none;" d="M 0.59375 2.125 L 0.59375 -8.46875 L 6.59375 -8.46875 L 6.59375 2.125 Z M 1.265625 1.453125 L 5.9375 1.453125 L 5.9375 -7.78125 L 1.265625 -7.78125 Z M 1.265625 1.453125 "/>
</symbol>
<symbol overflow="visible" id="crbBcGmF13-1">
<path style="stroke:none;" d="M 2.203125 -0.40625 L 2.203125 2.5 L 1.125 2.5 L 1.125 -6.515625 C 1.125 -8.296875 1.957031 -9.1875 3.625 -9.1875 C 5.320312 -9.1875 6.171875 -8.4375 6.171875 -6.9375 C 6.171875 -5.863281 5.832031 -5.132812 5.15625 -4.75 C 6.25 -4.394531 6.796875 -3.695312 6.796875 -2.65625 C 6.796875 -0.800781 5.851562 0.125 3.96875 0.125 C 3.144531 0.125 2.554688 -0.0507812 2.203125 -0.40625 Z M 2.203125 -1.8125 C 2.640625 -1.132812 3.242188 -0.796875 4.015625 -0.796875 C 5.140625 -0.796875 5.703125 -1.410156 5.703125 -2.640625 C 5.703125 -3.742188 4.796875 -4.25 2.984375 -4.15625 L 2.984375 -5.15625 C 4.398438 -5.15625 5.109375 -5.78125 5.109375 -7.03125 C 5.109375 -7.882812 4.648438 -8.3125 3.734375 -8.3125 C 2.710938 -8.3125 2.203125 -7.703125 2.203125 -6.484375 Z M 2.203125 -1.8125 "/>
</symbol>
<symbol overflow="visible" id="crbBcGmF13-2">
<path style="stroke:none;" d="M 3.109375 -3.109375 C 3.035156 -3.140625 2.953125 -3.164062 2.859375 -3.1875 C 2.765625 -3.207031 2.664062 -3.21875 2.5625 -3.21875 C 2.175781 -3.21875 1.878906 -3.101562 1.671875 -2.875 C 1.472656 -2.65625 1.375 -2.335938 1.375 -1.921875 L 1.375 0 L 0.6875 0 L 0.6875 -3.671875 L 1.375 -3.671875 L 1.375 -3.09375 C 1.507812 -3.320312 1.691406 -3.488281 1.921875 -3.59375 C 2.148438 -3.695312 2.429688 -3.75 2.765625 -3.75 C 2.804688 -3.75 2.851562 -3.75 2.90625 -3.75 C 2.96875 -3.75 3.035156 -3.738281 3.109375 -3.71875 Z M 3.109375 -3.109375 "/>
</symbol>
<symbol overflow="visible" id="crbBcGmF14-0">
<path style="stroke:none;" d="M 0.59375 2.125 L 0.59375 -8.46875 L 6.59375 -8.46875 L 6.59375 2.125 Z M 1.265625 1.453125 L 5.9375 1.453125 L 5.9375 -7.78125 L 1.265625 -7.78125 Z M 1.265625 1.453125 "/>
</symbol>
<symbol overflow="visible" id="crbBcGmF14-1">
<path style="stroke:none;" d="M 2.203125 -0.40625 L 2.203125 2.5 L 1.125 2.5 L 1.125 -6.515625 C 1.125 -8.296875 1.957031 -9.1875 3.625 -9.1875 C 5.320312 -9.1875 6.171875 -8.4375 6.171875 -6.9375 C 6.171875 -5.863281 5.832031 -5.132812 5.15625 -4.75 C 6.25 -4.394531 6.796875 -3.695312 6.796875 -2.65625 C 6.796875 -0.800781 5.851562 0.125 3.96875 0.125 C 3.144531 0.125 2.554688 -0.0507812 2.203125 -0.40625 Z M 2.203125 -1.8125 C 2.640625 -1.132812 3.242188 -0.796875 4.015625 -0.796875 C 5.140625 -0.796875 5.703125 -1.410156 5.703125 -2.640625 C 5.703125 -3.742188 4.796875 -4.25 2.984375 -4.15625 L 2.984375 -5.15625 C 4.398438 -5.15625 5.109375 -5.78125 5.109375 -7.03125 C 5.109375 -7.882812 4.648438 -8.3125 3.734375 -8.3125 C 2.710938 -8.3125 2.203125 -7.703125 2.203125 -6.484375 Z M 2.203125 -1.8125 "/>
</symbol>
<symbol overflow="visible" id="crbBcGmF14-2">
<path style="stroke:none;" d="M 2.59375 -1.84375 C 2.039062 -1.84375 1.660156 -1.785156 1.453125 -1.671875 C 1.234375 -1.554688 1.125 -1.363281 1.125 -1.09375 C 1.125 -0.882812 1.203125 -0.71875 1.359375 -0.59375 C 1.523438 -0.46875 1.742188 -0.40625 2.015625 -0.40625 C 2.390625 -0.40625 2.691406 -0.523438 2.921875 -0.765625 C 3.148438 -1.003906 3.265625 -1.316406 3.265625 -1.703125 L 3.265625 -1.84375 Z M 3.9375 -2.09375 L 3.9375 0 L 3.265625 0 L 3.265625 -0.546875 C 3.109375 -0.328125 2.914062 -0.164062 2.6875 -0.0625 C 2.457031 0.0390625 2.175781 0.09375 1.84375 0.09375 C 1.414062 0.09375 1.078125 -0.0078125 0.828125 -0.21875 C 0.578125 -0.425781 0.453125 -0.707031 0.453125 -1.0625 C 0.453125 -1.476562 0.609375 -1.789062 0.921875 -2 C 1.234375 -2.207031 1.695312 -2.3125 2.3125 -2.3125 L 3.265625 -2.3125 L 3.265625 -2.375 C 3.265625 -2.644531 3.160156 -2.859375 2.953125 -3.015625 C 2.753906 -3.171875 2.46875 -3.25 2.09375 -3.25 C 1.851562 -3.25 1.625 -3.222656 1.40625 -3.171875 C 1.175781 -3.117188 0.957031 -3.039062 0.75 -2.9375 L 0.75 -3.5 C 1 -3.582031 1.242188 -3.644531 1.484375 -3.6875 C 1.710938 -3.726562 1.9375 -3.75 2.15625 -3.75 C 2.757812 -3.75 3.207031 -3.613281 3.5 -3.34375 C 3.789062 -3.0625 3.9375 -2.644531 3.9375 -2.09375 Z M 3.9375 -2.09375 "/>
</symbol>
<symbol overflow="visible" id="crbBcGmF15-0">
<path style="stroke:none;" d="M 0.59375 2.125 L 0.59375 -8.46875 L 6.59375 -8.46875 L 6.59375 2.125 Z M 1.265625 1.453125 L 5.9375 1.453125 L 5.9375 -7.78125 L 1.265625 -7.78125 Z M 1.265625 1.453125 "/>
</symbol>
<symbol overflow="visible" id="crbBcGmF15-1">
<path style="stroke:none;" d="M 5.859375 -6.3125 L 5.859375 -5.296875 C 5.546875 -5.472656 5.238281 -5.601562 4.9375 -5.6875 C 4.632812 -5.769531 4.328125 -5.8125 4.015625 -5.8125 C 3.304688 -5.8125 2.757812 -5.585938 2.375 -5.140625 C 1.988281 -4.703125 1.796875 -4.082031 1.796875 -3.28125 C 1.796875 -2.476562 1.988281 -1.851562 2.375 -1.40625 C 2.757812 -0.96875 3.304688 -0.75 4.015625 -0.75 C 4.328125 -0.75 4.632812 -0.789062 4.9375 -0.875 C 5.238281 -0.957031 5.546875 -1.082031 5.859375 -1.25 L 5.859375 -0.25 C 5.554688 -0.113281 5.242188 -0.0078125 4.921875 0.0625 C 4.597656 0.132812 4.253906 0.171875 3.890625 0.171875 C 2.898438 0.171875 2.113281 -0.132812 1.53125 -0.75 C 0.945312 -1.375 0.65625 -2.21875 0.65625 -3.28125 C 0.65625 -4.34375 0.945312 -5.179688 1.53125 -5.796875 C 2.125 -6.410156 2.9375 -6.71875 3.96875 -6.71875 C 4.289062 -6.71875 4.609375 -6.679688 4.921875 -6.609375 C 5.242188 -6.546875 5.554688 -6.445312 5.859375 -6.3125 Z M 5.859375 -6.3125 "/>
</symbol>
<symbol overflow="visible" id="crbBcGmF15-2">
<path style="stroke:none;" d="M 4.109375 -3.296875 C 3.242188 -3.296875 2.640625 -3.195312 2.296875 -3 C 1.960938 -2.800781 1.796875 -2.460938 1.796875 -1.984375 C 1.796875 -1.597656 1.921875 -1.289062 2.171875 -1.0625 C 2.429688 -0.84375 2.773438 -0.734375 3.203125 -0.734375 C 3.804688 -0.734375 4.285156 -0.941406 4.640625 -1.359375 C 5.003906 -1.785156 5.1875 -2.351562 5.1875 -3.0625 L 5.1875 -3.296875 Z M 6.265625 -3.75 L 6.265625 0 L 5.1875 0 L 5.1875 -1 C 4.9375 -0.601562 4.628906 -0.304688 4.265625 -0.109375 C 3.898438 0.078125 3.453125 0.171875 2.921875 0.171875 C 2.242188 0.171875 1.707031 -0.015625 1.3125 -0.390625 C 0.914062 -0.773438 0.71875 -1.28125 0.71875 -1.90625 C 0.71875 -2.644531 0.960938 -3.203125 1.453125 -3.578125 C 1.953125 -3.953125 2.691406 -4.140625 3.671875 -4.140625 L 5.1875 -4.140625 L 5.1875 -4.25 C 5.1875 -4.75 5.019531 -5.132812 4.6875 -5.40625 C 4.363281 -5.675781 3.910156 -5.8125 3.328125 -5.8125 C 2.953125 -5.8125 2.582031 -5.765625 2.21875 -5.671875 C 1.863281 -5.578125 1.523438 -5.441406 1.203125 -5.265625 L 1.203125 -6.265625 C 1.597656 -6.421875 1.976562 -6.535156 2.34375 -6.609375 C 2.71875 -6.679688 3.082031 -6.71875 3.4375 -6.71875 C 4.382812 -6.71875 5.09375 -6.472656 5.5625 -5.984375 C 6.03125 -5.492188 6.265625 -4.75 6.265625 -3.75 Z M 6.265625 -3.75 "/>
</symbol>
<symbol overflow="visible" id="crbBcGmF16-0">
<path style="stroke:none;" d="M 0.59375 2.125 L 0.59375 -8.46875 L 6.59375 -8.46875 L 6.59375 2.125 Z M 1.265625 1.453125 L 5.9375 1.453125 L 5.9375 -7.78125 L 1.265625 -7.78125 Z M 1.265625 1.453125 "/>
</symbol>
<symbol overflow="visible" id="crbBcGmF16-1">
<path style="stroke:none;" d="M 6.59375 -3.96875 L 6.59375 0 L 5.515625 0 L 5.515625 -3.921875 C 5.515625 -4.546875 5.390625 -5.007812 5.140625 -5.3125 C 4.898438 -5.625 4.539062 -5.78125 4.0625 -5.78125 C 3.476562 -5.78125 3.015625 -5.59375 2.671875 -5.21875 C 2.335938 -4.851562 2.171875 -4.347656 2.171875 -3.703125 L 2.171875 0 L 1.09375 0 L 1.09375 -9.125 L 2.171875 -9.125 L 2.171875 -5.546875 C 2.429688 -5.941406 2.734375 -6.234375 3.078125 -6.421875 C 3.429688 -6.617188 3.835938 -6.71875 4.296875 -6.71875 C 5.046875 -6.71875 5.613281 -6.484375 6 -6.015625 C 6.394531 -5.554688 6.59375 -4.875 6.59375 -3.96875 Z M 6.59375 -3.96875 "/>
</symbol>
<symbol overflow="visible" id="crbBcGmF16-2">
<path style="stroke:none;" d="M 1.125 -6.5625 L 2.203125 -6.5625 L 2.203125 0 L 1.125 0 Z M 1.125 -9.125 L 2.203125 -9.125 L 2.203125 -7.75 L 1.125 -7.75 Z M 1.125 -9.125 "/>
</symbol>
<symbol overflow="visible" id="crbBcGmF16-3">
<path style="stroke:none;" d="M 6.59375 -3.96875 L 6.59375 0 L 5.515625 0 L 5.515625 -3.921875 C 5.515625 -4.546875 5.390625 -5.007812 5.140625 -5.3125 C 4.898438 -5.625 4.539062 -5.78125 4.0625 -5.78125 C 3.476562 -5.78125 3.015625 -5.59375 2.671875 -5.21875 C 2.335938 -4.851562 2.171875 -4.347656 2.171875 -3.703125 L 2.171875 0 L 1.09375 0 L 1.09375 -6.5625 L 2.171875 -6.5625 L 2.171875 -5.546875 C 2.429688 -5.941406 2.734375 -6.234375 3.078125 -6.421875 C 3.429688 -6.617188 3.835938 -6.71875 4.296875 -6.71875 C 5.046875 -6.71875 5.613281 -6.484375 6 -6.015625 C 6.394531 -5.554688 6.59375 -4.875 6.59375 -3.96875 Z M 6.59375 -3.96875 "/>
</symbol>
<symbol overflow="visible" id="crbBcGmF17-0">
<path style="stroke:none;" d="M 0.59375 2.125 L 0.59375 -8.46875 L 6.59375 -8.46875 L 6.59375 2.125 Z M 1.265625 1.453125 L 5.9375 1.453125 L 5.9375 -7.78125 L 1.265625 -7.78125 Z M 1.265625 1.453125 "/>
</symbol>
<symbol overflow="visible" id="crbBcGmF17-1">
<path style="stroke:none;" d="M 2.296875 -1 L 6.4375 -1 L 6.4375 0 L 0.875 0 L 0.875 -1 C 1.320312 -1.457031 1.929688 -2.078125 2.703125 -2.859375 C 3.484375 -3.648438 3.972656 -4.160156 4.171875 -4.390625 C 4.554688 -4.804688 4.820312 -5.160156 4.96875 -5.453125 C 5.125 -5.753906 5.203125 -6.046875 5.203125 -6.328125 C 5.203125 -6.796875 5.035156 -7.175781 4.703125 -7.46875 C 4.378906 -7.757812 3.957031 -7.90625 3.4375 -7.90625 C 3.0625 -7.90625 2.664062 -7.84375 2.25 -7.71875 C 1.84375 -7.59375 1.40625 -7.394531 0.9375 -7.125 L 0.9375 -8.328125 C 1.414062 -8.515625 1.859375 -8.65625 2.265625 -8.75 C 2.679688 -8.851562 3.0625 -8.90625 3.40625 -8.90625 C 4.3125 -8.90625 5.035156 -8.675781 5.578125 -8.21875 C 6.117188 -7.769531 6.390625 -7.164062 6.390625 -6.40625 C 6.390625 -6.050781 6.320312 -5.710938 6.1875 -5.390625 C 6.050781 -5.066406 5.804688 -4.6875 5.453125 -4.25 C 5.347656 -4.132812 5.035156 -3.804688 4.515625 -3.265625 C 3.992188 -2.722656 3.253906 -1.96875 2.296875 -1 Z M 2.296875 -1 "/>
</symbol>
</g>
<clipPath id="clip1">
  <path d="M 50.25 35 L 278.25 35 L 278.25 401 L 50.25 401 Z M 50.25 35 "/>
</clipPath>
<clipPath id="clip2">
  <path d="M 50.25 37 L 278.25 37 L 278.25 401 L 50.25 401 Z M 50.25 37 "/>
</clipPath>
<clipPath id="clip3">
  <path d="M 50.25 30 L 278.25 30 L 278.25 401 L 50.25 401 Z M 50.25 30 "/>
</clipPath>
<clipPath id="clip4">
  <path d="M 296.25 209 L 524.25 209 L 524.25 401 L 296.25 401 Z M 296.25 209 "/>
</clipPath>
<clipPath id="clip5">
  <path d="M 296.25 212 L 524.25 212 L 524.25 401 L 296.25 401 Z M 296.25 212 "/>
</clipPath>
<clipPath id="clip6">
  <path d="M 296.25 211 L 524.25 211 L 524.25 401 L 296.25 401 Z M 296.25 211 "/>
</clipPath>
<clipPath id="clip7">
  <path d="M 542.25 175 L 588 175 L 588 256.5 L 542.25 256.5 Z M 542.25 175 "/>
</clipPath>
<clipPath id="clip8">
  <path d="M 542.25 174.75 L 588 174.75 L 588 256.5 L 542.25 256.5 Z M 542.25 174.75 "/>
</clipPath>
</defs>
<g id="surface1">
<rect x="0" y="0" width="600" height="450" style="fill:rgb(100%,100%,100%);fill-opacity:1;stroke:none;"/>
<path style=" stroke:none;fill-rule:nonzero;fill:rgb(100%,100%,100%);fill-opacity:1;" d="M 50.25 402 L 278.25 402 L 278.25 29.25 L 50.25 29.25 Z M 50.25 402 "/>
<path style=" stroke:none;fill-rule:nonzero;fill:rgb(100%,100%,100%);fill-opacity:1;" d="M 296.25 402 L 524.25 402 L 524.25 29.25 L 296.25 29.25 Z M 296.25 402 "/>
<path style="fill:none;stroke-width:1;stroke-linecap:butt;stroke-linejoin:miter;stroke:rgb(0%,0%,0%);stroke-opacity:0.12;stroke-miterlimit:10;" d="M 114.416667 536 L 114.416667 39 " transform="matrix(0.75,0,0,0.75,0,0)"/>
<path style="fill:none;stroke-width:1;stroke-linecap:butt;stroke-linejoin:miter;stroke:rgb(0%,0%,0%);stroke-opacity:0.12;stroke-miterlimit:10;" d="M 207.213542 536 L 207.213542 39 " transform="matrix(0.75,0,0,0.75,0,0)"/>
<path style="fill:none;stroke-width:1;stroke-linecap:butt;stroke-linejoin:miter;stroke:rgb(0%,0%,0%);stroke-opacity:0.12;stroke-miterlimit:10;" d="M 300.010417 536 L 300.010417 39 " transform="matrix(0.75,0,0,0.75,0,0)"/>
<path style="fill:none;stroke-width:1;stroke-linecap:butt;stroke-linejoin:miter;stroke:rgb(0%,0%,0%);stroke-opacity:0.12;stroke-miterlimit:10;" d="M 67 513.411458 L 371 513.411458 " transform="matrix(0.75,0,0,0.75,0,0)"/>
<path style="fill:none;stroke-width:1;stroke-linecap:butt;stroke-linejoin:miter;stroke:rgb(0%,0%,0%);stroke-opacity:0.12;stroke-miterlimit:10;" d="M 67 323.265625 L 371 323.265625 " transform="matrix(0.75,0,0,0.75,0,0)"/>
<path style="fill:none;stroke-width:1;stroke-linecap:butt;stroke-linejoin:miter;stroke:rgb(0%,0%,0%);stroke-opacity:0.12;stroke-miterlimit:10;" d="M 67 133.125 L 371 133.125 " transform="matrix(0.75,0,0,0.75,0,0)"/>
<path style="fill:none;stroke-width:1;stroke-linecap:butt;stroke-linejoin:miter;stroke:rgb(0%,0%,0%);stroke-opacity:0.12;stroke-miterlimit:10;" d="M 442.411458 536 L 442.411458 39 " transform="matrix(0.75,0,0,0.75,0,0)"/>
<path style="fill:none;stroke-width:1;stroke-linecap:butt;stroke-linejoin:miter;stroke:rgb(0%,0%,0%);stroke-opacity:0.12;stroke-miterlimit:10;" d="M 535.213542 536 L 535.213542 39 " transform="matrix(0.75,0,0,0.75,0,0)"/>
<path style="fill:none;stroke-width:1;stroke-linecap:butt;stroke-linejoin:miter;stroke:rgb(0%,0%,0%);stroke-opacity:0.12;stroke-miterlimit:10;" d="M 628.010417 536 L 628.010417 39 " transform="matrix(0.75,0,0,0.75,0,0)"/>
<path style="fill:none;stroke-width:1;stroke-linecap:butt;stroke-linejoin:miter;stroke:rgb(0%,0%,0%);stroke-opacity:0.12;stroke-miterlimit:10;" d="M 395 513.411458 L 699 513.411458 " transform="matrix(0.75,0,0,0.75,0,0)"/>
<path style="fill:none;stroke-width:1;stroke-linecap:butt;stroke-linejoin:miter;stroke:rgb(0%,0%,0%);stroke-opacity:0.12;stroke-miterlimit:10;" d="M 395 323.265625 L 699 323.265625 " transform="matrix(0.75,0,0,0.75,0,0)"/>
<path style="fill:none;stroke-width:1;stroke-linecap:butt;stroke-linejoin:miter;stroke:rgb(0%,0%,0%);stroke-opacity:0.12;stroke-miterlimit:10;" d="M 395 133.125 L 699 133.125 " transform="matrix(0.75,0,0,0.75,0,0)"/>
<g style="fill:rgb(0%,0%,0%);fill-opacity:1;">
  <use xlink:href="#crbBcGmF0-1" x="76.691406" y="419.890625"/>
</g>
<g style="fill:rgb(0%,0%,0%);fill-opacity:1;">
  <use xlink:href="#crbBcGmF1-1" x="84.324219" y="419.890625"/>
</g>
<g style="fill:rgb(0%,0%,0%);fill-opacity:1;">
  <use xlink:href="#crbBcGmF2-1" x="88.140625" y="419.890625"/>
</g>
<g style="fill:rgb(0%,0%,0%);fill-opacity:1;">
  <use xlink:href="#crbBcGmF0-2" x="146" y="419.890625"/>
</g>
<g style="fill:rgb(0%,0%,0%);fill-opacity:1;">
  <use xlink:href="#crbBcGmF3-1" x="153.636719" y="419.890625"/>
</g>
<g style="fill:rgb(0%,0%,0%);fill-opacity:1;">
  <use xlink:href="#crbBcGmF1-2" x="157.449219" y="419.890625"/>
</g>
<g style="fill:rgb(0%,0%,0%);fill-opacity:1;">
  <use xlink:href="#crbBcGmF4-1" x="215.847656" y="419.890625"/>
</g>
<g style="fill:rgb(0%,0%,0%);fill-opacity:1;">
  <use xlink:href="#crbBcGmF4-2" x="223.480469" y="419.890625"/>
</g>
<g style="fill:rgb(0%,0%,0%);fill-opacity:1;">
  <use xlink:href="#crbBcGmF1-3" x="227.296875" y="419.890625"/>
</g>
<g style="fill:rgb(0%,0%,0%);fill-opacity:1;">
  <use xlink:href="#crbBcGmF2-2" x="35.953125" y="389.210938"/>
</g>
<g style="fill:rgb(0%,0%,0%);fill-opacity:1;">
  <use xlink:href="#crbBcGmF5-1" x="36.339844" y="246.605469"/>
</g>
<g style="fill:rgb(0%,0%,0%);fill-opacity:1;">
  <use xlink:href="#crbBcGmF6-1" x="28.316406" y="103.996094"/>
</g>
<g style="fill:rgb(0%,0%,0%);fill-opacity:1;">
  <use xlink:href="#crbBcGmF7-1" x="35.953125" y="103.996094"/>
</g>
<g style="fill:rgb(0%,0%,0%);fill-opacity:1;">
  <use xlink:href="#crbBcGmF8-1" x="22.128906" y="237.597656"/>
</g>
<g style="fill:rgb(0%,0%,0%);fill-opacity:1;">
  <use xlink:href="#crbBcGmF9-1" x="22.128906" y="229.980469"/>
</g>
<g style="fill:rgb(0%,0%,0%);fill-opacity:1;">
  <use xlink:href="#crbBcGmF10-1" x="22.128906" y="222.597656"/>
</g>
<g style="fill:rgb(0%,0%,0%);fill-opacity:1;">
  <use xlink:href="#crbBcGmF8-2" x="22.128906" y="214.992188"/>
</g>
<g style="fill:rgb(0%,0%,0%);fill-opacity:1;">
  <use xlink:href="#crbBcGmF10-2" x="22.128906" y="208.742187"/>
</g>
<g style="fill:rgb(0%,0%,0%);fill-opacity:1;">
  <use xlink:href="#crbBcGmF10-3" x="22.128906" y="205.40625"/>
</g>
<g style="fill:rgb(0%,0%,0%);fill-opacity:1;">
  <use xlink:href="#crbBcGmF11-1" x="22.128906" y="200.703125"/>
</g>
<g style="fill:rgb(0%,0%,0%);fill-opacity:1;">
  <use xlink:href="#crbBcGmF4-3" x="322.691406" y="419.890625"/>
</g>
<g style="fill:rgb(0%,0%,0%);fill-opacity:1;">
  <use xlink:href="#crbBcGmF1-1" x="330.324219" y="419.890625"/>
</g>
<g style="fill:rgb(0%,0%,0%);fill-opacity:1;">
  <use xlink:href="#crbBcGmF1-4" x="334.140625" y="419.890625"/>
</g>
<g style="fill:rgb(0%,0%,0%);fill-opacity:1;">
  <use xlink:href="#crbBcGmF1-5" x="392" y="419.890625"/>
</g>
<g style="fill:rgb(0%,0%,0%);fill-opacity:1;">
  <use xlink:href="#crbBcGmF1-1" x="399.636719" y="419.890625"/>
</g>
<g style="fill:rgb(0%,0%,0%);fill-opacity:1;">
  <use xlink:href="#crbBcGmF12-1" x="403.449219" y="419.890625"/>
</g>
<g style="fill:rgb(0%,0%,0%);fill-opacity:1;">
  <use xlink:href="#crbBcGmF1-5" x="461.847656" y="419.890625"/>
</g>
<g style="fill:rgb(0%,0%,0%);fill-opacity:1;">
  <use xlink:href="#crbBcGmF1-1" x="469.480469" y="419.890625"/>
</g>
<g style="fill:rgb(0%,0%,0%);fill-opacity:1;">
  <use xlink:href="#crbBcGmF1-3" x="473.296875" y="419.890625"/>
</g>
<g style="fill:rgb(0%,0%,0%);fill-opacity:1;">
  <use xlink:href="#crbBcGmF13-1" x="158.824219" y="23.136719"/>
</g>
<g style="fill:rgb(0%,0%,0%);fill-opacity:1;">
  <use xlink:href="#crbBcGmF13-2" x="166.484375" y="23.136719"/>
</g>
<g style="fill:rgb(0%,0%,0%);fill-opacity:1;">
  <use xlink:href="#crbBcGmF14-1" x="404.128906" y="23.136719"/>
</g>
<g style="fill:rgb(0%,0%,0%);fill-opacity:1;">
  <use xlink:href="#crbBcGmF14-2" x="411.785156" y="23.136719"/>
</g>
<g style="fill:rgb(0%,0%,0%);fill-opacity:1;">
  <use xlink:href="#crbBcGmF1-6" x="271.429688" y="435.171875"/>
</g>
<g style="fill:rgb(0%,0%,0%);fill-opacity:1;">
  <use xlink:href="#crbBcGmF1-7" x="278.53125" y="435.171875"/>
</g>
<g style="fill:rgb(0%,0%,0%);fill-opacity:1;">
  <use xlink:href="#crbBcGmF1-8" x="285.882812" y="435.171875"/>
</g>
<g style="fill:rgb(0%,0%,0%);fill-opacity:1;">
  <use xlink:href="#crbBcGmF4-4" x="289.21875" y="435.171875"/>
</g>
<g style="fill:rgb(0%,0%,0%);fill-opacity:1;">
  <use xlink:href="#crbBcGmF1-9" x="296.824219" y="435.171875"/>
</g>
<g clip-path="url(#clip1)" clip-rule="nonzero">
<path style="fill:none;stroke-width:1.5;stroke-linecap:butt;stroke-linejoin:miter;stroke:rgb(0%,44.705883%,69.803923%);stroke-opacity:1;stroke-miterlimit:10;" d="M 80.817708 513.411458 L 179.421875 513.411458 L 180.807292 513.40625 L 182.197917 513.40625 L 183.588542 513.390625 L 184.973958 513.333333 L 186.364583 513.166667 L 187.755208 512.822917 L 189.140625 512.265625 L 190.53125 511.5 L 191.916667 510.604167 L 193.307292 509.734375 L 194.697917 508.927083 L 196.083333 508.052083 L 197.473958 506.963542 L 198.864583 505.546875 L 200.25 503.5625 L 201.640625 500.520833 L 203.03125 495.932292 L 204.416667 489.942708 L 205.807292 483.484375 L 207.197917 477.536458 L 208.583333 472.40625 L 209.973958 467.213542 L 211.359375 460.375 L 212.75 451.208333 L 214.140625 440.302083 L 215.526042 428.135417 L 216.916667 414.953125 L 218.307292 401.197917 L 219.692708 386.494792 L 221.083333 369.713542 L 222.473958 350.75 L 223.859375 330.15625 L 225.25 307.125 L 226.640625 280.166667 L 228.026042 250.479167 L 229.416667 222.213542 L 230.802083 198.052083 L 232.192708 176.84375 L 233.583333 156.635417 L 234.96875 137.5 L 236.359375 120.859375 L 237.75 107.234375 L 239.135417 95.65625 L 240.526042 85.557292 L 241.916667 77.546875 L 243.302083 71.776042 L 244.692708 68.197917 L 246.083333 68.473958 L 247.46875 74.895833 L 248.859375 87.453125 L 250.244792 103.697917 L 251.635417 121.427083 L 253.026042 140.713542 L 254.411458 162.098958 L 255.802083 184.052083 L 257.192708 204.333333 L 258.578125 222.984375 L 259.96875 242.505208 L 261.359375 264.848958 L 262.744792 288.921875 L 264.135417 311.927083 L 265.526042 332.78125 L 266.911458 352.734375 L 268.302083 372.90625 L 269.6875 392.651042 L 271.078125 410.078125 L 272.46875 423.885417 L 273.854167 434.395833 L 275.244792 442.807292 L 276.635417 450.505208 L 278.020833 458.640625 L 279.411458 467.380208 L 280.802083 475.869792 L 282.1875 483.197917 L 283.578125 489.046875 L 284.96875 493.4375 L 286.354167 496.796875 L 287.744792 499.833333 L 289.130208 502.734375 L 290.520833 505.171875 L 291.911458 507.010417 L 293.296875 508.276042 L 294.6875 509.052083 L 296.078125 509.692708 L 297.463542 510.526042 L 298.854167 511.432292 L 300.244792 512.098958 L 301.630208 512.442708 L 303.020833 512.625 L 304.411458 512.817708 L 305.796875 513.046875 L 307.1875 513.244792 L 308.572917 513.354167 L 309.963542 513.395833 L 311.354167 513.40625 L 312.739583 513.40625 L 314.130208 513.411458 L 357.182292 513.411458 " transform="matrix(0.75,0,0,0.75,0,0)"/>
</g>
<path style=" stroke:none;fill-rule:nonzero;fill:rgb(0%,44.705883%,69.803923%);fill-opacity:0.15;" d="M 60.613281 385.058594 L 134.566406 385.058594 L 135.605469 385.054688 L 136.648438 385.054688 L 137.691406 385.042969 L 138.730469 385 L 139.773438 384.875 L 140.816406 384.617188 L 141.855469 384.199219 L 142.898438 383.625 L 143.9375 382.953125 L 144.980469 382.300781 L 146.023438 381.695312 L 147.0625 381.039062 L 148.105469 380.222656 L 149.148438 379.160156 L 150.1875 377.671875 L 151.230469 375.390625 L 152.273438 371.949219 L 153.3125 367.457031 L 154.355469 362.613281 L 155.398438 358.152344 L 156.4375 354.304688 L 157.480469 350.410156 L 158.519531 345.28125 L 159.5625 338.40625 L 160.605469 330.226562 L 161.644531 321.101562 L 162.6875 311.214844 L 163.730469 300.898438 L 164.769531 289.871094 L 165.8125 277.285156 L 166.855469 263.0625 L 167.894531 247.617188 L 168.9375 230.34375 L 169.980469 210.125 L 171.019531 187.859375 L 172.0625 166.660156 L 173.101562 148.539062 L 174.144531 132.632812 L 175.1875 117.476562 L 176.226562 103.125 L 177.269531 90.644531 L 178.3125 80.425781 L 179.351562 71.742188 L 180.394531 64.167969 L 181.4375 58.160156 L 182.476562 53.832031 L 183.519531 51.148438 L 184.5625 51.355469 L 185.601562 56.171875 L 186.644531 65.589844 L 187.683594 77.773438 L 188.726562 91.070312 L 189.769531 105.535156 L 190.808594 121.574219 L 191.851562 138.039062 L 192.894531 153.25 L 193.933594 167.238281 L 194.976562 181.878906 L 196.019531 198.636719 L 197.058594 216.691406 L 198.101562 233.945312 L 199.144531 249.585938 L 200.183594 264.550781 L 201.226562 279.679688 L 202.265625 294.488281 L 203.308594 307.558594 L 204.351562 317.914062 L 205.390625 325.796875 L 206.433594 332.105469 L 207.476562 337.878906 L 208.515625 343.980469 L 209.558594 350.535156 L 210.601562 356.902344 L 211.640625 362.398438 L 212.683594 366.785156 L 213.726562 370.078125 L 214.765625 372.597656 L 215.808594 374.875 L 216.847656 377.050781 L 217.890625 378.878906 L 218.933594 380.257812 L 219.972656 381.207031 L 221.015625 381.789062 L 222.058594 382.269531 L 223.097656 382.894531 L 224.140625 383.574219 L 225.183594 384.074219 L 226.222656 384.332031 L 227.265625 384.46875 L 228.308594 384.613281 L 229.347656 384.785156 L 230.390625 384.933594 L 231.429688 385.015625 L 232.472656 385.046875 L 233.515625 385.054688 L 234.554688 385.054688 L 235.597656 385.058594 L 267.886719 385.058594 Z M 60.613281 385.058594 "/>
<g clip-path="url(#clip2)" clip-rule="nonzero">
<path style="fill:none;stroke-width:1.5;stroke-linecap:butt;stroke-linejoin:miter;stroke:rgb(90.196079%,62.352943%,0%);stroke-opacity:1;stroke-miterlimit:10;" d="M 80.817708 513.411458 L 154.421875 513.411458 L 155.8125 513.40625 L 157.197917 513.40625 L 158.588542 513.390625 L 159.979167 513.328125 L 161.364583 513.1875 L 164.145833 512.729167 L 165.53125 512.625 L 166.921875 512.692708 L 168.3125 512.848958 L 169.697917 512.979167 L 171.088542 513.026042 L 172.473958 513.052083 L 173.864583 513.09375 L 175.255208 513.114583 L 176.640625 513.088542 L 178.03125 513.072917 L 179.421875 513.114583 L 180.807292 513.135417 L 182.197917 513.088542 L 183.588542 512.994792 L 184.973958 512.854167 L 186.364583 512.598958 L 187.755208 512.21875 L 189.140625 511.78125 L 190.53125 511.276042 L 191.916667 510.583333 L 194.697917 508.854167 L 196.083333 508.145833 L 197.473958 507.453125 L 198.864583 506.494792 L 200.25 505.15625 L 201.640625 503.390625 L 203.03125 500.75 L 204.416667 496.59375 L 205.807292 490.739583 L 207.197917 483.578125 L 208.583333 475.421875 L 209.973958 466.192708 L 211.359375 455.447917 L 212.75 442.744792 L 214.140625 428.588542 L 215.526042 414.947917 L 216.916667 403.744792 L 218.307292 393.96875 L 219.692708 381.541667 L 221.083333 363.536458 L 222.473958 341.380208 L 223.859375 318.802083 L 225.25 297.729167 L 226.640625 277.015625 L 228.026042 254.770833 L 229.416667 230.9375 L 230.802083 207.098958 L 232.192708 184.088542 L 233.583333 160.708333 L 234.96875 136.385417 L 236.359375 114.307292 L 237.75 99.010417 L 239.135417 90.973958 L 240.526042 85.807292 L 241.916667 79.510417 L 243.302083 73.34375 L 244.692708 71.614583 L 246.083333 75.380208 L 247.46875 82.338542 L 248.859375 91.770833 L 250.244792 104.854167 L 251.635417 121.729167 L 253.026042 140.760417 L 254.411458 160.0625 L 255.802083 179.557292 L 257.192708 200.979167 L 258.578125 224.661458 L 259.96875 247.802083 L 261.359375 268.171875 L 262.744792 287.552083 L 264.135417 308.583333 L 265.526042 330.822917 L 266.911458 352.234375 L 268.302083 371.864583 L 269.6875 389.75 L 271.078125 406.109375 L 272.46875 421.192708 L 273.854167 435.151042 L 275.244792 448.046875 L 276.635417 459.807292 L 278.020833 470.0625 L 279.411458 478.260417 L 280.802083 483.963542 L 282.1875 487.4375 L 283.578125 490.005208 L 284.96875 493.026042 L 286.354167 496.708333 L 287.744792 500.395833 L 289.130208 503.40625 L 290.520833 505.458333 L 291.911458 506.75 L 293.296875 507.854167 L 294.6875 509.182292 L 296.078125 510.604167 L 297.463542 511.729167 L 298.854167 512.369792 L 300.244792 512.619792 L 301.630208 512.65625 L 303.020833 512.677083 L 304.411458 512.828125 L 305.796875 513.067708 L 307.1875 513.270833 L 308.572917 513.369792 L 309.963542 513.401042 L 311.354167 513.40625 L 312.739583 513.411458 L 357.182292 513.411458 " transform="matrix(0.75,0,0,0.75,0,0)"/>
</g>
<path style=" stroke:none;fill-rule:nonzero;fill:rgb(90.196079%,62.352943%,0%);fill-opacity:0.15;" d="M 60.613281 385.058594 L 115.816406 385.058594 L 116.859375 385.054688 L 117.898438 385.054688 L 118.941406 385.042969 L 119.984375 384.996094 L 121.023438 384.890625 L 123.109375 384.546875 L 124.148438 384.46875 L 125.191406 384.519531 L 126.234375 384.636719 L 127.273438 384.734375 L 128.316406 384.769531 L 129.355469 384.789062 L 130.398438 384.820312 L 131.441406 384.835938 L 132.480469 384.816406 L 133.523438 384.804688 L 134.566406 384.835938 L 135.605469 384.851562 L 136.648438 384.816406 L 137.691406 384.746094 L 138.730469 384.640625 L 139.773438 384.449219 L 140.816406 384.164062 L 141.855469 383.835938 L 142.898438 383.457031 L 143.9375 382.9375 L 146.023438 381.640625 L 147.0625 381.109375 L 148.105469 380.589844 L 149.148438 379.871094 L 150.1875 378.867188 L 151.230469 377.542969 L 152.273438 375.5625 L 153.3125 372.445312 L 154.355469 368.054688 L 155.398438 362.683594 L 156.4375 356.566406 L 157.480469 349.644531 L 158.519531 341.585938 L 159.5625 332.058594 L 160.605469 321.441406 L 161.644531 311.210938 L 162.6875 302.808594 L 163.730469 295.476562 L 164.769531 286.15625 L 165.8125 272.652344 L 166.855469 256.035156 L 167.894531 239.101562 L 168.9375 223.296875 L 169.980469 207.761719 L 171.019531 191.078125 L 172.0625 173.203125 L 173.101562 155.324219 L 174.144531 138.066406 L 175.1875 120.53125 L 176.226562 102.289062 L 177.269531 85.730469 L 178.3125 74.257812 L 179.351562 68.230469 L 180.394531 64.355469 L 181.4375 59.632812 L 182.476562 55.007812 L 183.519531 53.710938 L 184.5625 56.535156 L 185.601562 61.753906 L 186.644531 68.828125 L 187.683594 78.640625 L 188.726562 91.296875 L 189.769531 105.570312 L 190.808594 120.046875 L 191.851562 134.667969 L 192.894531 150.734375 L 193.933594 168.496094 L 194.976562 185.851562 L 196.019531 201.128906 L 197.058594 215.664062 L 198.101562 231.4375 L 199.144531 248.117188 L 200.183594 264.175781 L 201.226562 278.898438 L 202.265625 292.3125 L 203.308594 304.582031 L 204.351562 315.894531 L 205.390625 326.363281 L 206.433594 336.035156 L 207.476562 344.855469 L 208.515625 352.546875 L 209.558594 358.695312 L 210.601562 362.972656 L 211.640625 365.578125 L 212.683594 367.503906 L 213.726562 369.769531 L 214.765625 372.53125 L 215.808594 375.296875 L 216.847656 377.554688 L 217.890625 379.09375 L 218.933594 380.0625 L 219.972656 380.890625 L 221.015625 381.886719 L 222.058594 382.953125 L 223.097656 383.796875 L 224.140625 384.277344 L 225.183594 384.464844 L 226.222656 384.492188 L 227.265625 384.507812 L 228.308594 384.621094 L 229.347656 384.800781 L 230.390625 384.953125 L 231.429688 385.027344 L 232.472656 385.050781 L 233.515625 385.054688 L 234.554688 385.058594 L 267.886719 385.058594 Z M 60.613281 385.058594 "/>
<g clip-path="url(#clip3)" clip-rule="nonzero">
<path style="fill:none;stroke-width:1.5;stroke-linecap:butt;stroke-linejoin:miter;stroke:rgb(0%,61.960787%,45.09804%);stroke-opacity:1;stroke-miterlimit:10;" d="M 80.817708 513.411458 L 179.421875 513.411458 L 180.807292 513.40625 L 182.197917 513.40625 L 183.588542 513.395833 L 184.973958 513.338542 L 186.364583 513.171875 L 187.755208 512.838542 L 189.140625 512.369792 L 190.53125 511.864583 L 191.916667 511.296875 L 193.307292 510.526042 L 194.697917 509.46875 L 196.083333 508.09375 L 197.473958 506.255208 L 198.864583 503.770833 L 200.25 500.807292 L 201.640625 497.979167 L 203.03125 495.583333 L 204.416667 492.838542 L 205.807292 488.614583 L 207.197917 482.552083 L 208.583333 474.859375 L 209.973958 465.557292 L 211.359375 454.880208 L 212.75 443.640625 L 214.140625 432.151042 L 215.526042 419.333333 L 216.916667 403.979167 L 218.307292 386.078125 L 219.692708 366.427083 L 221.083333 346.328125 L 222.473958 327.46875 L 223.859375 310.739583 L 225.25 295.130208 L 226.640625 278.53125 L 228.026042 259.333333 L 229.416667 236.848958 L 230.802083 211.59375 L 232.192708 186.026042 L 233.583333 163.197917 L 234.96875 144.098958 L 236.359375 126.911458 L 237.75 109.052083 L 239.135417 89.885417 L 240.526042 72.333333 L 241.916667 61.90625 L 243.302083 61.588542 L 244.692708 68.177083 L 246.083333 76.604167 L 247.46875 84.630208 L 248.859375 91.958333 L 250.244792 100.354167 L 251.635417 113.947917 L 253.026042 134.416667 L 254.411458 158.322917 L 255.802083 182.0625 L 257.192708 205.838542 L 258.578125 231.145833 L 259.96875 256.942708 L 261.359375 279.885417 L 262.744792 298.203125 L 264.135417 314.302083 L 265.526042 332.015625 L 266.911458 352.333333 L 268.302083 373.125 L 269.6875 391.895833 L 271.078125 407.796875 L 272.46875 421.989583 L 273.854167 436.114583 L 275.244792 450.03125 L 276.635417 462.026042 L 278.020833 471.020833 L 279.411458 477.458333 L 280.802083 482.453125 L 282.1875 486.807292 L 283.578125 490.734375 L 284.96875 494.442708 L 286.354167 498.479167 L 287.744792 502.927083 L 289.130208 506.947917 L 290.520833 509.677083 L 291.911458 511.010417 L 293.296875 511.369792 L 294.6875 511.255208 L 296.078125 511.125 L 297.463542 511.229167 L 298.854167 511.536458 L 300.244792 511.875 L 301.630208 512.208333 L 304.411458 512.958333 L 305.796875 513.229167 L 307.1875 513.354167 L 308.572917 513.395833 L 309.963542 513.40625 L 311.354167 513.40625 L 312.739583 513.411458 L 357.182292 513.411458 " transform="matrix(0.75,0,0,0.75,0,0)"/>
</g>
<path style=" stroke:none;fill-rule:nonzero;fill:rgb(0%,61.960787%,45.09804%);fill-opacity:0.15;" d="M 60.613281 385.058594 L 134.566406 385.058594 L 135.605469 385.054688 L 136.648438 385.054688 L 137.691406 385.046875 L 138.730469 385.003906 L 139.773438 384.878906 L 140.816406 384.628906 L 141.855469 384.277344 L 142.898438 383.898438 L 143.9375 383.472656 L 144.980469 382.894531 L 146.023438 382.101562 L 147.0625 381.070312 L 148.105469 379.691406 L 149.148438 377.828125 L 150.1875 375.605469 L 151.230469 373.484375 L 152.273438 371.6875 L 153.3125 369.628906 L 154.355469 366.460938 L 155.398438 361.914062 L 156.4375 356.144531 L 157.480469 349.167969 L 158.519531 341.160156 L 159.5625 332.730469 L 160.605469 324.113281 L 161.644531 314.5 L 162.6875 302.984375 L 163.730469 289.558594 L 164.769531 274.820312 L 165.8125 259.746094 L 166.855469 245.601562 L 167.894531 233.054688 L 168.9375 221.347656 L 169.980469 208.898438 L 171.019531 194.5 L 172.0625 177.636719 L 173.101562 158.695312 L 174.144531 139.519531 L 175.1875 122.398438 L 176.226562 108.074219 L 177.269531 95.183594 L 178.3125 81.789062 L 179.351562 67.414062 L 180.394531 54.25 L 181.4375 46.429688 L 182.476562 46.191406 L 183.519531 51.132812 L 184.5625 57.453125 L 185.601562 63.472656 L 186.644531 68.96875 L 187.683594 75.265625 L 188.726562 85.460938 L 189.769531 100.8125 L 190.808594 118.742188 L 191.851562 136.546875 L 192.894531 154.378906 L 193.933594 173.359375 L 194.976562 192.707031 L 196.019531 209.914062 L 197.058594 223.652344 L 198.101562 235.726562 L 199.144531 249.011719 L 200.183594 264.25 L 201.226562 279.84375 L 202.265625 293.921875 L 203.308594 305.847656 L 204.351562 316.492188 L 205.390625 327.085938 L 206.433594 337.523438 L 207.476562 346.519531 L 208.515625 353.265625 L 209.558594 358.09375 L 210.601562 361.839844 L 211.640625 365.105469 L 212.683594 368.050781 L 213.726562 370.832031 L 214.765625 373.859375 L 215.808594 377.195312 L 216.847656 380.210938 L 217.890625 382.257812 L 218.933594 383.257812 L 219.972656 383.527344 L 221.015625 383.441406 L 222.058594 383.34375 L 223.097656 383.421875 L 224.140625 383.652344 L 225.183594 383.90625 L 226.222656 384.15625 L 228.308594 384.71875 L 229.347656 384.921875 L 230.390625 385.015625 L 231.429688 385.046875 L 232.472656 385.054688 L 233.515625 385.054688 L 234.554688 385.058594 L 267.886719 385.058594 Z M 60.613281 385.058594 "/>
<g clip-path="url(#clip4)" clip-rule="nonzero">
<path style="fill:none;stroke-width:1.5;stroke-linecap:butt;stroke-linejoin:miter;stroke:rgb(0%,44.705883%,69.803923%);stroke-opacity:1;stroke-miterlimit:10;" d="M 408.817708 513.260417 L 410.208333 513.265625 L 411.59375 513.28125 L 414.375 513.333333 L 415.760417 513.354167 L 417.151042 513.369792 L 418.541667 513.375 L 419.927083 513.369792 L 421.317708 513.348958 L 422.708333 513.317708 L 424.09375 513.276042 L 425.484375 513.223958 L 426.869792 513.171875 L 428.260417 513.125 L 429.651042 513.098958 L 431.036458 513.083333 L 433.817708 513.083333 L 435.203125 513.067708 L 436.59375 513.036458 L 437.984375 512.979167 L 439.369792 512.916667 L 440.760417 512.84375 L 442.151042 512.786458 L 443.536458 512.744792 L 444.927083 512.708333 L 446.3125 512.671875 L 447.703125 512.614583 L 449.09375 512.53125 L 450.479167 512.40625 L 451.869792 512.223958 L 453.260417 511.989583 L 454.645833 511.692708 L 456.036458 511.348958 L 457.427083 510.953125 L 458.8125 510.536458 L 460.203125 510.109375 L 461.588542 509.6875 L 462.979167 509.276042 L 464.369792 508.869792 L 465.755208 508.453125 L 467.145833 508.015625 L 468.536458 507.520833 L 469.921875 506.942708 L 471.3125 506.244792 L 472.703125 505.390625 L 474.088542 504.354167 L 475.479167 503.130208 L 476.869792 501.75 L 478.255208 500.260417 L 479.645833 498.734375 L 481.03125 497.234375 L 482.421875 495.776042 L 483.8125 494.348958 L 485.197917 492.869792 L 486.588542 491.234375 L 487.979167 489.348958 L 489.364583 487.15625 L 490.755208 484.651042 L 492.145833 481.90625 L 493.53125 479.005208 L 496.3125 473.067708 L 497.697917 470.114583 L 499.088542 467.1875 L 500.473958 464.265625 L 501.864583 461.317708 L 503.255208 458.307292 L 504.640625 455.161458 L 506.03125 451.8125 L 507.421875 448.208333 L 508.807292 444.307292 L 510.197917 440.119792 L 511.588542 435.65625 L 512.973958 430.9375 L 514.364583 425.973958 L 515.755208 420.776042 L 517.140625 415.364583 L 518.53125 409.807292 L 519.916667 404.208333 L 521.307292 398.6875 L 522.697917 393.354167 L 524.083333 388.244792 L 525.473958 383.328125 L 526.864583 378.473958 L 528.25 373.557292 L 529.640625 368.463542 L 531.03125 363.177083 L 532.416667 357.734375 L 533.807292 352.21875 L 535.197917 346.692708 L 536.583333 341.161458 L 537.973958 335.609375 L 539.359375 330.03125 L 540.75 324.463542 L 542.140625 319.057292 L 543.526042 314.010417 L 544.916667 309.5625 L 546.307292 305.901042 L 547.692708 303.140625 L 549.083333 301.28125 L 550.473958 300.255208 L 551.859375 299.9375 L 553.25 300.203125 L 554.640625 300.932292 L 556.026042 301.989583 L 557.416667 303.260417 L 558.802083 304.651042 L 560.192708 306.114583 L 561.583333 307.682292 L 562.96875 309.432292 L 564.359375 311.411458 L 565.75 313.619792 L 567.135417 315.953125 L 568.526042 318.260417 L 569.916667 320.411458 L 571.302083 322.354167 L 572.692708 324.177083 L 574.083333 326.088542 L 575.46875 328.369792 L 576.859375 331.291667 L 578.244792 335.020833 L 579.635417 339.557292 L 581.026042 344.755208 L 582.411458 350.333333 L 583.802083 355.994792 L 585.192708 361.484375 L 586.578125 366.666667 L 587.96875 371.53125 L 589.359375 376.166667 L 590.744792 380.708333 L 592.135417 385.333333 L 593.526042 390.1875 L 594.911458 395.375 L 596.302083 400.90625 L 597.6875 406.682292 L 599.078125 412.505208 L 600.46875 418.15625 L 601.854167 423.463542 L 603.244792 428.375 L 604.635417 432.973958 L 606.020833 437.4375 L 607.411458 441.96875 L 608.802083 446.697917 L 610.1875 451.640625 L 611.578125 456.692708 L 612.96875 461.6875 L 614.354167 466.416667 L 615.744792 470.729167 L 617.130208 474.510417 L 618.520833 477.729167 L 619.911458 480.401042 L 621.296875 482.609375 L 622.6875 484.46875 L 624.078125 486.114583 L 625.463542 487.697917 L 626.854167 489.328125 L 628.244792 491.052083 L 629.630208 492.869792 L 631.020833 494.739583 L 632.411458 496.588542 L 633.796875 498.348958 L 635.1875 499.96875 L 636.572917 501.411458 L 637.963542 502.677083 L 639.354167 503.791667 L 640.739583 504.786458 L 642.130208 505.713542 L 643.520833 506.604167 L 644.90625 507.473958 L 646.296875 508.307292 L 647.6875 509.09375 L 649.072917 509.786458 L 650.463542 510.369792 L 651.848958 510.828125 L 653.239583 511.171875 L 654.630208 511.421875 L 656.015625 511.614583 L 657.40625 511.78125 L 658.796875 511.953125 L 660.182292 512.135417 L 661.572917 512.328125 L 662.963542 512.526042 L 664.348958 512.708333 L 665.739583 512.869792 L 667.130208 513.010417 L 668.515625 513.119792 L 669.90625 513.208333 L 671.291667 513.276042 L 672.682292 513.328125 L 674.072917 513.359375 L 675.458333 513.380208 L 676.848958 513.395833 L 678.239583 513.401042 L 679.625 513.40625 L 682.40625 513.40625 L 683.791667 513.411458 L 685.182292 513.411458 " transform="matrix(0.75,0,0,0.75,0,0)"/>
</g>
<path style=" stroke:none;fill-rule:nonzero;fill:rgb(0%,44.705883%,69.803923%);fill-opacity:0.15;" d="M 306.613281 384.945312 L 307.65625 384.949219 L 308.695312 384.960938 L 310.78125 385 L 311.820312 385.015625 L 312.863281 385.027344 L 313.90625 385.03125 L 314.945312 385.027344 L 315.988281 385.011719 L 317.03125 384.988281 L 318.070312 384.957031 L 319.113281 384.917969 L 320.152344 384.878906 L 321.195312 384.84375 L 322.238281 384.824219 L 323.277344 384.8125 L 325.363281 384.8125 L 326.402344 384.800781 L 327.445312 384.777344 L 328.488281 384.734375 L 329.527344 384.6875 L 330.570312 384.632812 L 331.613281 384.589844 L 332.652344 384.558594 L 333.695312 384.53125 L 334.734375 384.503906 L 335.777344 384.460938 L 336.820312 384.398438 L 337.859375 384.304688 L 338.902344 384.167969 L 339.945312 383.992188 L 340.984375 383.769531 L 342.027344 383.511719 L 343.070312 383.214844 L 344.109375 382.902344 L 345.152344 382.582031 L 346.191406 382.265625 L 347.234375 381.957031 L 348.277344 381.652344 L 349.316406 381.339844 L 350.359375 381.011719 L 351.402344 380.640625 L 352.441406 380.207031 L 353.484375 379.683594 L 354.527344 379.042969 L 355.566406 378.265625 L 356.609375 377.347656 L 357.652344 376.3125 L 358.691406 375.195312 L 359.734375 374.050781 L 360.773438 372.925781 L 361.816406 371.832031 L 362.859375 370.761719 L 363.898438 369.652344 L 364.941406 368.425781 L 365.984375 367.011719 L 367.023438 365.367188 L 368.066406 363.488281 L 369.109375 361.429688 L 370.148438 359.253906 L 372.234375 354.800781 L 373.273438 352.585938 L 374.316406 350.390625 L 375.355469 348.199219 L 376.398438 345.988281 L 377.441406 343.730469 L 378.480469 341.371094 L 379.523438 338.859375 L 380.566406 336.15625 L 381.605469 333.230469 L 382.648438 330.089844 L 383.691406 326.742188 L 384.730469 323.203125 L 385.773438 319.480469 L 386.816406 315.582031 L 387.855469 311.523438 L 388.898438 307.355469 L 389.9375 303.15625 L 390.980469 299.015625 L 392.023438 295.015625 L 393.0625 291.183594 L 394.105469 287.496094 L 395.148438 283.855469 L 396.1875 280.167969 L 397.230469 276.347656 L 398.273438 272.382812 L 399.3125 268.300781 L 400.355469 264.164062 L 401.398438 260.019531 L 402.4375 255.871094 L 403.480469 251.707031 L 404.519531 247.523438 L 405.5625 243.347656 L 406.605469 239.292969 L 407.644531 235.507812 L 408.6875 232.171875 L 409.730469 229.425781 L 410.769531 227.355469 L 411.8125 225.960938 L 412.855469 225.191406 L 413.894531 224.953125 L 414.9375 225.152344 L 415.980469 225.699219 L 417.019531 226.492188 L 418.0625 227.445312 L 419.101562 228.488281 L 420.144531 229.585938 L 421.1875 230.761719 L 422.226562 232.074219 L 423.269531 233.558594 L 424.3125 235.214844 L 425.351562 236.964844 L 426.394531 238.695312 L 427.4375 240.308594 L 428.476562 241.765625 L 429.519531 243.132812 L 430.5625 244.566406 L 431.601562 246.277344 L 432.644531 248.46875 L 433.683594 251.265625 L 434.726562 254.667969 L 435.769531 258.566406 L 436.808594 262.75 L 437.851562 266.996094 L 438.894531 271.113281 L 439.933594 275 L 440.976562 278.648438 L 442.019531 282.125 L 443.058594 285.53125 L 444.101562 289 L 445.144531 292.640625 L 446.183594 296.53125 L 447.226562 300.679688 L 448.265625 305.011719 L 449.308594 309.378906 L 450.351562 313.617188 L 451.390625 317.597656 L 452.433594 321.28125 L 453.476562 324.730469 L 454.515625 328.078125 L 455.558594 331.476562 L 456.601562 335.023438 L 457.640625 338.730469 L 458.683594 342.519531 L 459.726562 346.265625 L 460.765625 349.8125 L 461.808594 353.046875 L 462.847656 355.882812 L 463.890625 358.296875 L 464.933594 360.300781 L 465.972656 361.957031 L 467.015625 363.351562 L 468.058594 364.585938 L 469.097656 365.773438 L 470.140625 366.996094 L 471.183594 368.289062 L 472.222656 369.652344 L 473.265625 371.054688 L 474.308594 372.441406 L 475.347656 373.761719 L 476.390625 374.976562 L 477.429688 376.058594 L 478.472656 377.007812 L 479.515625 377.84375 L 480.554688 378.589844 L 481.597656 379.285156 L 482.640625 379.953125 L 483.679688 380.605469 L 484.722656 381.230469 L 485.765625 381.820312 L 486.804688 382.339844 L 487.847656 382.777344 L 488.886719 383.121094 L 489.929688 383.378906 L 490.972656 383.566406 L 492.011719 383.710938 L 493.054688 383.835938 L 494.097656 383.964844 L 495.136719 384.101562 L 496.179688 384.246094 L 497.222656 384.394531 L 498.261719 384.53125 L 499.304688 384.652344 L 500.347656 384.757812 L 501.386719 384.839844 L 502.429688 384.90625 L 503.46875 384.957031 L 504.511719 384.996094 L 505.554688 385.019531 L 506.59375 385.035156 L 507.636719 385.046875 L 508.679688 385.050781 L 509.71875 385.054688 L 511.804688 385.054688 L 512.84375 385.058594 L 513.886719 385.058594 L 306.613281 385.058594 Z M 306.613281 384.945312 "/>
<g clip-path="url(#clip5)" clip-rule="nonzero">
<path style="fill:none;stroke-width:1.5;stroke-linecap:butt;stroke-linejoin:miter;stroke:rgb(90.196079%,62.352943%,0%);stroke-opacity:1;stroke-miterlimit:10;" d="M 408.817708 513.411458 L 415.760417 513.411458 L 417.151042 513.40625 L 421.317708 513.40625 L 422.708333 513.401042 L 424.09375 513.395833 L 425.484375 513.380208 L 426.869792 513.364583 L 428.260417 513.34375 L 429.651042 513.3125 L 431.036458 513.276042 L 433.817708 513.192708 L 435.203125 513.140625 L 436.59375 513.072917 L 437.984375 512.994792 L 439.369792 512.895833 L 440.760417 512.786458 L 442.151042 512.671875 L 443.536458 512.5625 L 444.927083 512.463542 L 446.3125 512.380208 L 447.703125 512.3125 L 449.09375 512.255208 L 450.479167 512.197917 L 451.869792 512.135417 L 453.260417 512.052083 L 454.645833 511.942708 L 456.036458 511.796875 L 457.427083 511.609375 L 458.8125 511.359375 L 460.203125 511.036458 L 461.588542 510.635417 L 462.979167 510.145833 L 464.369792 509.567708 L 465.755208 508.885417 L 467.145833 508.104167 L 468.536458 507.213542 L 469.921875 506.229167 L 471.3125 505.177083 L 472.703125 504.072917 L 474.088542 502.947917 L 475.479167 501.796875 L 476.869792 500.598958 L 478.255208 499.317708 L 479.645833 497.895833 L 481.03125 496.28125 L 482.421875 494.4375 L 483.8125 492.375 L 485.197917 490.130208 L 486.588542 487.78125 L 487.979167 485.421875 L 489.364583 483.130208 L 490.755208 480.942708 L 492.145833 478.828125 L 493.53125 476.708333 L 494.921875 474.453125 L 496.3125 471.953125 L 497.697917 469.135417 L 499.088542 465.96875 L 500.473958 462.479167 L 501.864583 458.713542 L 503.255208 454.708333 L 504.640625 450.5 L 506.03125 446.09375 L 507.421875 441.520833 L 508.807292 436.833333 L 510.197917 432.114583 L 511.588542 427.458333 L 512.973958 422.916667 L 514.364583 418.484375 L 515.755208 414.072917 L 517.140625 409.583333 L 518.53125 404.932292 L 519.916667 400.104167 L 521.307292 395.177083 L 522.697917 390.270833 L 524.083333 385.489583 L 525.473958 380.875 L 526.864583 376.354167 L 528.25 371.807292 L 529.640625 367.067708 L 531.03125 362.026042 L 532.416667 356.645833 L 533.807292 350.994792 L 535.197917 345.213542 L 536.583333 339.510417 L 537.973958 334.09375 L 539.359375 329.166667 L 540.75 324.84375 L 542.140625 321.182292 L 543.526042 318.114583 L 544.916667 315.526042 L 546.307292 313.260417 L 547.692708 311.1875 L 549.083333 309.265625 L 550.473958 307.546875 L 551.859375 306.166667 L 553.25 305.296875 L 554.640625 305.072917 L 556.026042 305.572917 L 557.416667 306.75 L 558.802083 308.479167 L 560.192708 310.5625 L 561.583333 312.807292 L 562.96875 315.078125 L 564.359375 317.348958 L 565.75 319.677083 L 567.135417 322.203125 L 568.526042 325.057292 L 569.916667 328.3125 L 571.302083 331.989583 L 572.692708 336.052083 L 574.083333 340.432292 L 575.46875 345.067708 L 576.859375 349.848958 L 578.244792 354.635417 L 579.635417 359.239583 L 581.026042 363.447917 L 582.411458 367.09375 L 583.802083 370.09375 L 585.192708 372.510417 L 586.578125 374.526042 L 587.96875 376.432292 L 589.359375 378.541667 L 590.744792 381.125 L 592.135417 384.354167 L 593.526042 388.28125 L 594.911458 392.864583 L 596.302083 397.989583 L 597.6875 403.515625 L 599.078125 409.317708 L 600.46875 415.276042 L 601.854167 421.270833 L 603.244792 427.197917 L 604.635417 432.942708 L 606.020833 438.411458 L 607.411458 443.53125 L 608.802083 448.270833 L 610.1875 452.635417 L 611.578125 456.645833 L 612.96875 460.354167 L 614.354167 463.791667 L 615.744792 466.989583 L 617.130208 469.973958 L 618.520833 472.739583 L 619.911458 475.270833 L 621.296875 477.552083 L 622.6875 479.572917 L 624.078125 481.348958 L 625.463542 482.916667 L 626.854167 484.364583 L 628.244792 485.791667 L 629.630208 487.307292 L 631.020833 488.989583 L 632.411458 490.854167 L 633.796875 492.859375 L 635.1875 494.921875 L 636.572917 496.9375 L 637.963542 498.8125 L 639.354167 500.489583 L 640.739583 501.9375 L 642.130208 503.166667 L 643.520833 504.197917 L 644.90625 505.072917 L 646.296875 505.8125 L 647.6875 506.458333 L 649.072917 507.03125 L 650.463542 507.552083 L 651.848958 508.03125 L 653.239583 508.484375 L 654.630208 508.90625 L 656.015625 509.296875 L 657.40625 509.651042 L 658.796875 509.963542 L 660.182292 510.239583 L 662.963542 510.75 L 664.348958 511.005208 L 667.130208 511.546875 L 668.515625 511.828125 L 669.90625 512.098958 L 671.291667 512.359375 L 672.682292 512.598958 L 674.072917 512.8125 L 675.458333 512.989583 L 676.848958 513.130208 L 678.239583 513.234375 L 679.625 513.302083 L 681.015625 513.348958 L 682.40625 513.380208 L 683.791667 513.395833 L 685.182292 513.401042 " transform="matrix(0.75,0,0,0.75,0,0)"/>
</g>
<path style=" stroke:none;fill-rule:nonzero;fill:rgb(90.196079%,62.352943%,0%);fill-opacity:0.15;" d="M 306.613281 385.058594 L 311.820312 385.058594 L 312.863281 385.054688 L 315.988281 385.054688 L 317.03125 385.050781 L 318.070312 385.046875 L 319.113281 385.035156 L 320.152344 385.023438 L 321.195312 385.007812 L 322.238281 384.984375 L 323.277344 384.957031 L 325.363281 384.894531 L 326.402344 384.855469 L 327.445312 384.804688 L 328.488281 384.746094 L 329.527344 384.671875 L 330.570312 384.589844 L 331.613281 384.503906 L 332.652344 384.421875 L 333.695312 384.347656 L 334.734375 384.285156 L 335.777344 384.234375 L 336.820312 384.191406 L 337.859375 384.148438 L 338.902344 384.101562 L 339.945312 384.039062 L 340.984375 383.957031 L 342.027344 383.847656 L 343.070312 383.707031 L 344.109375 383.519531 L 345.152344 383.277344 L 346.191406 382.976562 L 347.234375 382.609375 L 348.277344 382.175781 L 349.316406 381.664062 L 350.359375 381.078125 L 351.402344 380.410156 L 352.441406 379.671875 L 353.484375 378.882812 L 354.527344 378.054688 L 355.566406 377.210938 L 356.609375 376.347656 L 357.652344 375.449219 L 358.691406 374.488281 L 359.734375 373.421875 L 360.773438 372.210938 L 361.816406 370.828125 L 362.859375 369.28125 L 363.898438 367.597656 L 364.941406 365.835938 L 365.984375 364.066406 L 367.023438 362.347656 L 368.066406 360.707031 L 369.109375 359.121094 L 370.148438 357.53125 L 371.191406 355.839844 L 372.234375 353.964844 L 373.273438 351.851562 L 374.316406 349.476562 L 375.355469 346.859375 L 376.398438 344.035156 L 377.441406 341.03125 L 378.480469 337.875 L 379.523438 334.570312 L 380.566406 331.140625 L 381.605469 327.625 L 382.648438 324.085938 L 383.691406 320.59375 L 384.730469 317.1875 L 385.773438 313.863281 L 386.816406 310.554688 L 387.855469 307.1875 L 388.898438 303.699219 L 389.9375 300.078125 L 390.980469 296.382812 L 392.023438 292.703125 L 393.0625 289.117188 L 394.105469 285.65625 L 395.148438 282.265625 L 396.1875 278.855469 L 397.230469 275.300781 L 398.273438 271.519531 L 399.3125 267.484375 L 400.355469 263.246094 L 401.398438 258.910156 L 402.4375 254.632812 L 403.480469 250.570312 L 404.519531 246.875 L 405.5625 243.632812 L 406.605469 240.886719 L 407.644531 238.585938 L 408.6875 236.644531 L 409.730469 234.945312 L 410.769531 233.390625 L 411.8125 231.949219 L 412.855469 230.660156 L 413.894531 229.625 L 414.9375 228.972656 L 415.980469 228.804688 L 417.019531 229.179688 L 418.0625 230.0625 L 419.101562 231.359375 L 420.144531 232.921875 L 421.1875 234.605469 L 422.226562 236.308594 L 423.269531 238.011719 L 424.3125 239.757812 L 425.351562 241.652344 L 426.394531 243.792969 L 427.4375 246.234375 L 428.476562 248.992188 L 429.519531 252.039062 L 430.5625 255.324219 L 431.601562 258.800781 L 432.644531 262.386719 L 433.683594 265.976562 L 434.726562 269.429688 L 435.769531 272.585938 L 436.808594 275.320312 L 437.851562 277.570312 L 438.894531 279.382812 L 439.933594 280.894531 L 440.976562 282.324219 L 442.019531 283.90625 L 443.058594 285.84375 L 444.101562 288.265625 L 445.144531 291.210938 L 446.183594 294.648438 L 447.226562 298.492188 L 448.265625 302.636719 L 449.308594 306.988281 L 450.351562 311.457031 L 451.390625 315.953125 L 452.433594 320.398438 L 453.476562 324.707031 L 454.515625 328.808594 L 455.558594 332.648438 L 456.601562 336.203125 L 457.640625 339.476562 L 458.683594 342.484375 L 459.726562 345.265625 L 460.765625 347.84375 L 461.808594 350.242188 L 462.847656 352.480469 L 463.890625 354.554688 L 464.933594 356.453125 L 465.972656 358.164062 L 467.015625 359.679688 L 468.058594 361.011719 L 469.097656 362.1875 L 470.140625 363.273438 L 471.183594 364.34375 L 472.222656 365.480469 L 473.265625 366.742188 L 474.308594 368.140625 L 475.347656 369.644531 L 476.390625 371.191406 L 477.429688 372.703125 L 478.472656 374.109375 L 479.515625 375.367188 L 480.554688 376.453125 L 481.597656 377.375 L 482.640625 378.148438 L 483.679688 378.804688 L 484.722656 379.359375 L 485.765625 379.84375 L 486.804688 380.273438 L 487.847656 380.664062 L 488.886719 381.023438 L 489.929688 381.363281 L 490.972656 381.679688 L 492.011719 381.972656 L 493.054688 382.238281 L 494.097656 382.472656 L 495.136719 382.679688 L 497.222656 383.0625 L 498.261719 383.253906 L 500.347656 383.660156 L 501.386719 383.871094 L 502.429688 384.074219 L 503.46875 384.269531 L 504.511719 384.449219 L 505.554688 384.609375 L 506.59375 384.742188 L 507.636719 384.847656 L 508.679688 384.925781 L 509.71875 384.976562 L 510.761719 385.011719 L 511.804688 385.035156 L 512.84375 385.046875 L 513.886719 385.050781 L 513.886719 385.058594 Z M 306.613281 385.058594 "/>
<g clip-path="url(#clip6)" clip-rule="nonzero">
<path style="fill:none;stroke-width:1.5;stroke-linecap:butt;stroke-linejoin:miter;stroke:rgb(0%,61.960787%,45.09804%);stroke-opacity:1;stroke-miterlimit:10;" d="M 408.817708 513.411458 L 414.375 513.411458 L 415.760417 513.40625 L 418.541667 513.40625 L 419.927083 513.401042 L 421.317708 513.395833 L 422.708333 513.385417 L 424.09375 513.375 L 425.484375 513.354167 L 426.869792 513.328125 L 429.651042 513.276042 L 431.036458 513.260417 L 432.427083 513.25 L 433.817708 513.244792 L 435.203125 513.244792 L 436.59375 513.239583 L 437.984375 513.21875 L 439.369792 513.177083 L 440.760417 513.109375 L 442.151042 513.015625 L 443.536458 512.895833 L 444.927083 512.75 L 446.3125 512.578125 L 447.703125 512.380208 L 449.09375 512.15625 L 450.479167 511.895833 L 451.869792 511.598958 L 453.260417 511.260417 L 454.645833 510.885417 L 456.036458 510.484375 L 457.427083 510.067708 L 458.8125 509.640625 L 460.203125 509.208333 L 461.588542 508.75 L 462.979167 508.244792 L 464.369792 507.671875 L 465.755208 507.036458 L 467.145833 506.348958 L 468.536458 505.640625 L 469.921875 504.942708 L 471.3125 504.276042 L 472.703125 503.635417 L 474.088542 502.984375 L 475.479167 502.270833 L 476.869792 501.447917 L 478.255208 500.46875 L 479.645833 499.3125 L 481.03125 497.96875 L 482.421875 496.421875 L 483.8125 494.666667 L 485.197917 492.6875 L 486.588542 490.473958 L 487.979167 488.057292 L 489.364583 485.494792 L 490.755208 482.848958 L 492.145833 480.192708 L 493.53125 477.53125 L 494.921875 474.796875 L 496.3125 471.869792 L 497.697917 468.604167 L 499.088542 464.901042 L 500.473958 460.786458 L 503.255208 452.067708 L 504.640625 447.979167 L 506.03125 444.328125 L 507.421875 441.104167 L 508.807292 438.104167 L 510.197917 434.989583 L 511.588542 431.395833 L 512.973958 427.041667 L 514.364583 421.848958 L 515.755208 415.947917 L 517.140625 409.640625 L 518.53125 403.291667 L 519.916667 397.229167 L 521.307292 391.635417 L 522.697917 386.510417 L 524.083333 381.71875 L 525.473958 377.052083 L 526.864583 372.291667 L 528.25 367.28125 L 529.640625 361.979167 L 531.03125 356.453125 L 532.416667 350.869792 L 533.807292 345.453125 L 535.197917 340.421875 L 536.583333 335.927083 L 537.973958 332.03125 L 539.359375 328.677083 L 540.75 325.729167 L 542.140625 323.005208 L 543.526042 320.338542 L 544.916667 317.630208 L 546.307292 314.859375 L 547.692708 312.088542 L 549.083333 309.463542 L 550.473958 307.161458 L 551.859375 305.364583 L 553.25 304.213542 L 554.640625 303.807292 L 556.026042 304.182292 L 557.416667 305.317708 L 558.802083 307.114583 L 560.192708 309.442708 L 561.583333 312.130208 L 562.96875 315 L 564.359375 317.885417 L 565.75 320.635417 L 567.135417 323.140625 L 568.526042 325.34375 L 569.916667 327.270833 L 571.302083 329.041667 L 572.692708 330.833333 L 574.083333 332.875 L 575.46875 335.34375 L 576.859375 338.369792 L 578.244792 341.96875 L 579.635417 346.078125 L 581.026042 350.572917 L 582.411458 355.307292 L 583.802083 360.140625 L 585.192708 364.958333 L 586.578125 369.692708 L 587.96875 374.333333 L 589.359375 378.921875 L 590.744792 383.557292 L 592.135417 388.34375 L 593.526042 393.380208 L 594.911458 398.713542 L 596.302083 404.328125 L 597.6875 410.15625 L 599.078125 416.083333 L 600.46875 421.979167 L 601.854167 427.697917 L 603.244792 433.130208 L 604.635417 438.1875 L 606.020833 442.848958 L 607.411458 447.109375 L 608.802083 451.026042 L 610.1875 454.651042 L 611.578125 458.0625 L 612.96875 461.317708 L 614.354167 464.473958 L 615.744792 467.572917 L 617.130208 470.635417 L 618.520833 473.677083 L 619.911458 476.677083 L 621.296875 479.598958 L 622.6875 482.401042 L 624.078125 485.041667 L 625.463542 487.484375 L 626.854167 489.697917 L 628.244792 491.666667 L 629.630208 493.401042 L 631.020833 494.921875 L 632.411458 496.286458 L 633.796875 497.546875 L 635.1875 498.770833 L 636.572917 500.010417 L 637.963542 501.286458 L 639.354167 502.583333 L 640.739583 503.864583 L 642.130208 505.078125 L 643.520833 506.161458 L 644.90625 507.088542 L 646.296875 507.84375 L 647.6875 508.432292 L 649.072917 508.885417 L 650.463542 509.244792 L 651.848958 509.546875 L 653.239583 509.833333 L 654.630208 510.125 L 656.015625 510.4375 L 657.40625 510.75 L 658.796875 511.057292 L 660.182292 511.322917 L 661.572917 511.536458 L 662.963542 511.692708 L 664.348958 511.796875 L 667.130208 511.932292 L 668.515625 512.005208 L 669.90625 512.109375 L 671.291667 512.244792 L 674.072917 512.546875 L 675.458333 512.6875 L 676.848958 512.796875 L 678.239583 512.869792 L 679.625 512.916667 L 681.015625 512.942708 L 682.40625 512.963542 L 683.791667 512.989583 L 685.182292 513.03125 " transform="matrix(0.75,0,0,0.75,0,0)"/>
</g>
<path style=" stroke:none;fill-rule:nonzero;fill:rgb(0%,61.960787%,45.09804%);fill-opacity:0.15;" d="M 306.613281 385.058594 L 310.78125 385.058594 L 311.820312 385.054688 L 313.90625 385.054688 L 314.945312 385.050781 L 315.988281 385.046875 L 317.03125 385.039062 L 318.070312 385.03125 L 319.113281 385.015625 L 320.152344 384.996094 L 322.238281 384.957031 L 323.277344 384.945312 L 324.320312 384.9375 L 325.363281 384.933594 L 326.402344 384.933594 L 327.445312 384.929688 L 328.488281 384.914062 L 329.527344 384.882812 L 330.570312 384.832031 L 331.613281 384.761719 L 332.652344 384.671875 L 333.695312 384.5625 L 334.734375 384.433594 L 335.777344 384.285156 L 336.820312 384.117188 L 337.859375 383.921875 L 338.902344 383.699219 L 339.945312 383.445312 L 340.984375 383.164062 L 342.027344 382.863281 L 343.070312 382.550781 L 344.109375 382.230469 L 345.152344 381.90625 L 346.191406 381.5625 L 347.234375 381.183594 L 348.277344 380.753906 L 349.316406 380.277344 L 350.359375 379.761719 L 351.402344 379.230469 L 352.441406 378.707031 L 353.484375 378.207031 L 354.527344 377.726562 L 355.566406 377.238281 L 356.609375 376.703125 L 357.652344 376.085938 L 358.691406 375.351562 L 359.734375 374.484375 L 360.773438 373.476562 L 361.816406 372.316406 L 362.859375 371 L 363.898438 369.515625 L 364.941406 367.855469 L 365.984375 366.042969 L 367.023438 364.121094 L 368.066406 362.136719 L 369.109375 360.144531 L 370.148438 358.148438 L 371.191406 356.097656 L 372.234375 353.902344 L 373.273438 351.453125 L 374.316406 348.675781 L 375.355469 345.589844 L 377.441406 339.050781 L 378.480469 335.984375 L 379.523438 333.246094 L 380.566406 330.828125 L 381.605469 328.578125 L 382.648438 326.242188 L 383.691406 323.546875 L 384.730469 320.28125 L 385.773438 316.386719 L 386.816406 311.960938 L 387.855469 307.230469 L 388.898438 302.46875 L 389.9375 297.921875 L 390.980469 293.726562 L 392.023438 289.882812 L 393.0625 286.289062 L 394.105469 282.789062 L 395.148438 279.21875 L 396.1875 275.460938 L 397.230469 271.484375 L 398.273438 267.339844 L 399.3125 263.152344 L 400.355469 259.089844 L 401.398438 255.316406 L 402.4375 251.945312 L 403.480469 249.023438 L 404.519531 246.507812 L 405.5625 244.296875 L 406.605469 242.253906 L 407.644531 240.253906 L 408.6875 238.222656 L 409.730469 236.144531 L 410.769531 234.066406 L 411.8125 232.097656 L 412.855469 230.371094 L 413.894531 229.023438 L 414.9375 228.160156 L 415.980469 227.855469 L 417.019531 228.136719 L 418.0625 228.988281 L 419.101562 230.335938 L 420.144531 232.082031 L 421.1875 234.097656 L 422.226562 236.25 L 423.269531 238.414062 L 424.3125 240.476562 L 425.351562 242.355469 L 426.394531 244.007812 L 427.4375 245.453125 L 428.476562 246.78125 L 429.519531 248.125 L 430.5625 249.65625 L 431.601562 251.507812 L 432.644531 253.777344 L 433.683594 256.476562 L 434.726562 259.558594 L 435.769531 262.929688 L 436.808594 266.480469 L 437.851562 270.105469 L 438.894531 273.71875 L 439.933594 277.269531 L 440.976562 280.75 L 442.019531 284.191406 L 443.058594 287.667969 L 444.101562 291.257812 L 445.144531 295.035156 L 446.183594 299.035156 L 447.226562 303.246094 L 448.265625 307.617188 L 449.308594 312.0625 L 450.351562 316.484375 L 451.390625 320.773438 L 452.433594 324.847656 L 453.476562 328.640625 L 454.515625 332.136719 L 455.558594 335.332031 L 456.601562 338.269531 L 457.640625 340.988281 L 458.683594 343.546875 L 459.726562 345.988281 L 460.765625 348.355469 L 461.808594 350.679688 L 462.847656 352.976562 L 463.890625 355.257812 L 464.933594 357.507812 L 465.972656 359.699219 L 467.015625 361.800781 L 468.058594 363.78125 L 469.097656 365.613281 L 470.140625 367.273438 L 471.183594 368.75 L 472.222656 370.050781 L 473.265625 371.191406 L 474.308594 372.214844 L 475.347656 373.160156 L 476.390625 374.078125 L 477.429688 375.007812 L 478.472656 375.964844 L 479.515625 376.9375 L 480.554688 377.898438 L 481.597656 378.808594 L 482.640625 379.621094 L 483.679688 380.316406 L 484.722656 380.882812 L 485.765625 381.324219 L 486.804688 381.664062 L 487.847656 381.933594 L 488.886719 382.160156 L 489.929688 382.375 L 490.972656 382.59375 L 492.011719 382.828125 L 493.054688 383.0625 L 494.097656 383.292969 L 495.136719 383.492188 L 496.179688 383.652344 L 497.222656 383.769531 L 498.261719 383.847656 L 500.347656 383.949219 L 501.386719 384.003906 L 502.429688 384.082031 L 503.46875 384.183594 L 505.554688 384.410156 L 506.59375 384.515625 L 507.636719 384.597656 L 508.679688 384.652344 L 509.71875 384.6875 L 510.761719 384.707031 L 511.804688 384.722656 L 512.84375 384.742188 L 513.886719 384.773438 L 513.886719 385.058594 Z M 306.613281 385.058594 "/>
<path style="fill:none;stroke-width:1;stroke-linecap:butt;stroke-linejoin:miter;stroke:rgb(0%,0%,0%);stroke-opacity:1;stroke-miterlimit:10;" d="M 114.416667 536.5 L 114.416667 542.5 " transform="matrix(0.75,0,0,0.75,0,0)"/>
<path style="fill:none;stroke-width:1;stroke-linecap:butt;stroke-linejoin:miter;stroke:rgb(0%,0%,0%);stroke-opacity:1;stroke-miterlimit:10;" d="M 207.213542 536.5 L 207.213542 542.5 " transform="matrix(0.75,0,0,0.75,0,0)"/>
<path style="fill:none;stroke-width:1;stroke-linecap:butt;stroke-linejoin:miter;stroke:rgb(0%,0%,0%);stroke-opacity:1;stroke-miterlimit:10;" d="M 300.010417 536.5 L 300.010417 542.5 " transform="matrix(0.75,0,0,0.75,0,0)"/>
<path style="fill:none;stroke-width:1;stroke-linecap:butt;stroke-linejoin:miter;stroke:rgb(0%,0%,0%);stroke-opacity:1;stroke-miterlimit:10;" d="M 66.5 513.411458 L 60.5 513.411458 " transform="matrix(0.75,0,0,0.75,0,0)"/>
<path style="fill:none;stroke-width:1;stroke-linecap:butt;stroke-linejoin:miter;stroke:rgb(0%,0%,0%);stroke-opacity:1;stroke-miterlimit:10;" d="M 66.5 323.265625 L 60.5 323.265625 " transform="matrix(0.75,0,0,0.75,0,0)"/>
<path style="fill:none;stroke-width:1;stroke-linecap:butt;stroke-linejoin:miter;stroke:rgb(0%,0%,0%);stroke-opacity:1;stroke-miterlimit:10;" d="M 66.5 133.125 L 60.5 133.125 " transform="matrix(0.75,0,0,0.75,0,0)"/>
<path style="fill:none;stroke-width:1;stroke-linecap:butt;stroke-linejoin:miter;stroke:rgb(0%,0%,0%);stroke-opacity:1;stroke-miterlimit:10;" d="M 442.411458 536.5 L 442.411458 542.5 " transform="matrix(0.75,0,0,0.75,0,0)"/>
<path style="fill:none;stroke-width:1;stroke-linecap:butt;stroke-linejoin:miter;stroke:rgb(0%,0%,0%);stroke-opacity:1;stroke-miterlimit:10;" d="M 535.213542 536.5 L 535.213542 542.5 " transform="matrix(0.75,0,0,0.75,0,0)"/>
<path style="fill:none;stroke-width:1;stroke-linecap:butt;stroke-linejoin:miter;stroke:rgb(0%,0%,0%);stroke-opacity:1;stroke-miterlimit:10;" d="M 628.010417 536.5 L 628.010417 542.5 " transform="matrix(0.75,0,0,0.75,0,0)"/>
<g clip-path="url(#clip7)" clip-rule="nonzero">
<path style=" stroke:none;fill-rule:nonzero;fill:rgb(100%,100%,100%);fill-opacity:1;" d="M 542.625 256.125 L 587.625 256.125 L 587.625 175.125 L 542.625 175.125 Z M 542.625 256.125 "/>
</g>
<g clip-path="url(#clip8)" clip-rule="nonzero">
<path style="fill:none;stroke-width:1;stroke-linecap:butt;stroke-linejoin:miter;stroke:rgb(0%,0%,0%);stroke-opacity:1;stroke-miterlimit:10;" d="M 723.5 341.5 L 783.5 341.5 L 783.5 233.5 L 723.5 233.5 Z M 723.5 341.5 " transform="matrix(0.75,0,0,0.75,0,0)"/>
</g>
<g style="fill:rgb(0%,0%,0%);fill-opacity:1;">
  <use xlink:href="#crbBcGmF15-1" x="549.601562" y="192.03125"/>
</g>
<g style="fill:rgb(0%,0%,0%);fill-opacity:1;">
  <use xlink:href="#crbBcGmF16-1" x="556.199219" y="192.03125"/>
</g>
<g style="fill:rgb(0%,0%,0%);fill-opacity:1;">
  <use xlink:href="#crbBcGmF15-2" x="563.804688" y="192.03125"/>
</g>
<g style="fill:rgb(0%,0%,0%);fill-opacity:1;">
  <use xlink:href="#crbBcGmF16-2" x="571.15625" y="192.03125"/>
</g>
<g style="fill:rgb(0%,0%,0%);fill-opacity:1;">
  <use xlink:href="#crbBcGmF16-3" x="574.492188" y="192.03125"/>
</g>
<g style="fill:rgb(0%,0%,0%);fill-opacity:1;">
  <use xlink:href="#crbBcGmF1-5" x="570.300781" y="212.515625"/>
</g>
<path style=" stroke:none;fill-rule:nonzero;fill:rgb(0%,44.705883%,69.803923%);fill-opacity:0.15;" d="M 552.871094 215.859375 L 567.871094 215.859375 L 567.871094 200.859375 L 552.871094 200.859375 Z M 552.871094 215.859375 "/>
<path style="fill:none;stroke-width:1.5;stroke-linecap:butt;stroke-linejoin:miter;stroke:rgb(0%,44.705883%,69.803923%);stroke-opacity:1;stroke-miterlimit:10;" d="M 737.161458 277.8125 L 757.161458 277.8125 " transform="matrix(0.75,0,0,0.75,0,0)"/>
<g style="fill:rgb(0%,0%,0%);fill-opacity:1;">
  <use xlink:href="#crbBcGmF17-1" x="570.742188" y="229.765625"/>
</g>
<path style=" stroke:none;fill-rule:nonzero;fill:rgb(90.196079%,62.352943%,0%);fill-opacity:0.15;" d="M 552.871094 233.109375 L 567.871094 233.109375 L 567.871094 218.109375 L 552.871094 218.109375 Z M 552.871094 233.109375 "/>
<path style="fill:none;stroke-width:1.5;stroke-linecap:butt;stroke-linejoin:miter;stroke:rgb(90.196079%,62.352943%,0%);stroke-opacity:1;stroke-miterlimit:10;" d="M 737.161458 300.8125 L 757.161458 300.8125 " transform="matrix(0.75,0,0,0.75,0,0)"/>
<g style="fill:rgb(0%,0%,0%);fill-opacity:1;">
  <use xlink:href="#crbBcGmF1-10" x="570.707031" y="247.015625"/>
</g>
<path style=" stroke:none;fill-rule:nonzero;fill:rgb(0%,61.960787%,45.09804%);fill-opacity:0.15;" d="M 552.871094 250.359375 L 567.871094 250.359375 L 567.871094 235.359375 L 552.871094 235.359375 Z M 552.871094 250.359375 "/>
<path style="fill:none;stroke-width:1.5;stroke-linecap:butt;stroke-linejoin:miter;stroke:rgb(0%,61.960787%,45.09804%);stroke-opacity:1;stroke-miterlimit:10;" d="M 737.161458 323.8125 L 757.161458 323.8125 " transform="matrix(0.75,0,0,0.75,0,0)"/>
<path style="fill:none;stroke-width:1;stroke-linecap:butt;stroke-linejoin:miter;stroke:rgb(0%,0%,0%);stroke-opacity:1;stroke-miterlimit:10;" d="M 66.5 536 L 371.5 536 " transform="matrix(0.75,0,0,0.75,0,0)"/>
<path style="fill:none;stroke-width:1;stroke-linecap:butt;stroke-linejoin:miter;stroke:rgb(0%,0%,0%);stroke-opacity:1;stroke-miterlimit:10;" d="M 67 536.5 L 67 38.5 " transform="matrix(0.75,0,0,0.75,0,0)"/>
<path style="fill:none;stroke-width:1;stroke-linecap:butt;stroke-linejoin:miter;stroke:rgb(0%,0%,0%);stroke-opacity:1;stroke-miterlimit:10;" d="M 66.5 39 L 371.5 39 " transform="matrix(0.75,0,0,0.75,0,0)"/>
<path style="fill:none;stroke-width:1;stroke-linecap:butt;stroke-linejoin:miter;stroke:rgb(0%,0%,0%);stroke-opacity:1;stroke-miterlimit:10;" d="M 371 536.5 L 371 38.5 " transform="matrix(0.75,0,0,0.75,0,0)"/>
<path style="fill:none;stroke-width:1;stroke-linecap:butt;stroke-linejoin:miter;stroke:rgb(0%,0%,0%);stroke-opacity:1;stroke-miterlimit:10;" d="M 394.5 536 L 699.5 536 " transform="matrix(0.75,0,0,0.75,0,0)"/>
<path style="fill:none;stroke-width:1;stroke-linecap:butt;stroke-linejoin:miter;stroke:rgb(0%,0%,0%);stroke-opacity:1;stroke-miterlimit:10;" d="M 395 536.5 L 395 38.5 " transform="matrix(0.75,0,0,0.75,0,0)"/>
<path style="fill:none;stroke-width:1;stroke-linecap:butt;stroke-linejoin:miter;stroke:rgb(0%,0%,0%);stroke-opacity:1;stroke-miterlimit:10;" d="M 394.5 39 L 699.5 39 " transform="matrix(0.75,0,0,0.75,0,0)"/>
<path style="fill:none;stroke-width:1;stroke-linecap:butt;stroke-linejoin:miter;stroke:rgb(0%,0%,0%);stroke-opacity:1;stroke-miterlimit:10;" d="M 699 536.5 L 699 38.5 " transform="matrix(0.75,0,0,0.75,0,0)"/>
</g>
</svg>
