<?xml version="1.0" encoding="UTF-8"?>
<svg xmlns="http://www.w3.org/2000/svg" xmlns:xlink="http://www.w3.org/1999/xlink" width="600pt" height="450pt" viewBox="0 0 600 450" version="1.1">
<defs>
<g>
<symbol overflow="visible" id="HC+uqNkD0-0">
<path style="stroke:none;" d="M 0.59375 2.125 L 0.59375 -8.46875 L 6.59375 -8.46875 L 6.59375 2.125 Z M 1.265625 1.453125 L 5.9375 1.453125 L 5.9375 -7.78125 L 1.265625 -7.78125 Z M 1.265625 1.453125 "/>
</symbol>
<symbol overflow="visible" id="HC+uqNkD0-1">
<path style="stroke:none;" d="M 3.8125 -7.96875 C 3.207031 -7.96875 2.75 -7.664062 2.4375 -7.0625 C 2.132812 -6.46875 1.984375 -5.566406 1.984375 -4.359375 C 1.984375 -3.160156 2.132812 -2.257812 2.4375 -1.65625 C 2.75 -1.0625 3.207031 -0.765625 3.8125 -0.765625 C 4.425781 -0.765625 4.882812 -1.0625 5.1875 -1.65625 C 5.5 -2.257812 5.65625 -3.160156 5.65625 -4.359375 C 5.65625 -5.566406 5.5 -6.46875 5.1875 -7.0625 C 4.882812 -7.664062 4.425781 -7.96875 3.8125 -7.96875 Z M 3.8125 -8.90625 C 4.789062 -8.90625 5.539062 -8.515625 6.0625 -7.734375 C 6.582031 -6.960938 6.84375 -5.835938 6.84375 -4.359375 C 6.84375 -2.890625 6.582031 -1.765625 6.0625 -0.984375 C 5.539062 -0.210938 4.789062 0.171875 3.8125 0.171875 C 2.832031 0.171875 2.082031 -0.210938 1.5625 -0.984375 C 1.050781 -1.765625 0.796875 -2.890625 0.796875 -4.359375 C 0.796875 -5.835938 1.050781 -6.960938 1.5625 -7.734375 C 2.082031 -8.515625 2.832031 -8.90625 3.8125 -8.90625 Z M 3.8125 -8.90625 "/>
</symbol>
<symbol overflow="visible" id="HC+uqNkD1-0">
<path style="stroke:none;" d="M 0.59375 2.125 L 0.59375 -8.46875 L 6.59375 -8.46875 L 6.59375 2.125 Z M 1.265625 1.453125 L 5.9375 1.453125 L 5.9375 -7.78125 L 1.265625 -7.78125 Z M 1.265625 1.453125 "/>
</symbol>
<symbol overflow="visible" id="HC+uqNkD1-1">
<path style="stroke:none;" d="M 1.28125 -1.484375 L 2.515625 -1.484375 L 2.515625 0 L 1.28125 0 Z M 1.28125 -1.484375 "/>
</symbol>
<symbol overflow="visible" id="HC+uqNkD1-2">
<path style="stroke:none;" d="M 3.8125 -4.15625 C 3.25 -4.15625 2.804688 -4.003906 2.484375 -3.703125 C 2.160156 -3.398438 2 -2.988281 2 -2.46875 C 2 -1.9375 2.160156 -1.519531 2.484375 -1.21875 C 2.804688 -0.914062 3.25 -0.765625 3.8125 -0.765625 C 4.375 -0.765625 4.816406 -0.914062 5.140625 -1.21875 C 5.460938 -1.519531 5.625 -1.9375 5.625 -2.46875 C 5.625 -2.988281 5.460938 -3.398438 5.140625 -3.703125 C 4.828125 -4.003906 4.382812 -4.15625 3.8125 -4.15625 Z M 2.625 -4.65625 C 2.125 -4.78125 1.726562 -5.015625 1.4375 -5.359375 C 1.15625 -5.710938 1.015625 -6.140625 1.015625 -6.640625 C 1.015625 -7.335938 1.265625 -7.890625 1.765625 -8.296875 C 2.265625 -8.703125 2.945312 -8.90625 3.8125 -8.90625 C 4.6875 -8.90625 5.367188 -8.703125 5.859375 -8.296875 C 6.359375 -7.890625 6.609375 -7.335938 6.609375 -6.640625 C 6.609375 -6.140625 6.46875 -5.710938 6.1875 -5.359375 C 5.90625 -5.015625 5.507812 -4.78125 5 -4.65625 C 5.570312 -4.519531 6.015625 -4.257812 6.328125 -3.875 C 6.648438 -3.488281 6.8125 -3.019531 6.8125 -2.46875 C 6.8125 -1.613281 6.550781 -0.957031 6.03125 -0.5 C 5.519531 -0.0507812 4.78125 0.171875 3.8125 0.171875 C 2.851562 0.171875 2.113281 -0.0507812 1.59375 -0.5 C 1.070312 -0.957031 0.8125 -1.613281 0.8125 -2.46875 C 0.8125 -3.019531 0.972656 -3.488281 1.296875 -3.875 C 1.617188 -4.257812 2.0625 -4.519531 2.625 -4.65625 Z M 2.203125 -6.53125 C 2.203125 -6.070312 2.34375 -5.71875 2.625 -5.46875 C 2.90625 -5.21875 3.300781 -5.09375 3.8125 -5.09375 C 4.320312 -5.09375 4.71875 -5.21875 5 -5.46875 C 5.289062 -5.71875 5.4375 -6.070312 5.4375 -6.53125 C 5.4375 -6.976562 5.289062 -7.328125 5 -7.578125 C 4.71875 -7.835938 4.320312 -7.96875 3.8125 -7.96875 C 3.300781 -7.96875 2.90625 -7.835938 2.625 -7.578125 C 2.34375 -7.328125 2.203125 -6.976562 2.203125 -6.53125 Z M 2.203125 -6.53125 "/>
</symbol>
<symbol overflow="visible" id="HC+uqNkD1-3">
<path style="stroke:none;" d="M 3.8125 -7.96875 C 3.207031 -7.96875 2.75 -7.664062 2.4375 -7.0625 C 2.132812 -6.46875 1.984375 -5.566406 1.984375 -4.359375 C 1.984375 -3.160156 2.132812 -2.257812 2.4375 -1.65625 C 2.75 -1.0625 3.207031 -0.765625 3.8125 -0.765625 C 4.425781 -0.765625 4.882812 -1.0625 5.1875 -1.65625 C 5.5 -2.257812 5.65625 -3.160156 5.65625 -4.359375 C 5.65625 -5.566406 5.5 -6.46875 5.1875 -7.0625 C 4.882812 -7.664062 4.425781 -7.96875 3.8125 -7.96875 Z M 3.8125 -8.90625 C 4.789062 -8.90625 5.539062 -8.515625 6.0625 -7.734375 C 6.582031 -6.960938 6.84375 -5.835938 6.84375 -4.359375 C 6.84375 -2.890625 6.582031 -1.765625 6.0625 -0.984375 C 5.539062 -0.210938 4.789062 0.171875 3.8125 0.171875 C 2.832031 0.171875 2.082031 -0.210938 1.5625 -0.984375 C 1.050781 -1.765625 0.796875 -2.890625 0.796875 -4.359375 C 0.796875 -5.835938 1.050781 -6.960938 1.5625 -7.734375 C 2.082031 -8.515625 2.832031 -8.90625 3.8125 -8.90625 Z M 3.8125 -8.90625 "/>
</symbol>
<symbol overflow="visible" id="HC+uqNkD2-0">
<path style="stroke:none;" d="M 0.59375 2.125 L 0.59375 -8.46875 L 6.59375 -8.46875 L 6.59375 2.125 Z M 1.265625 1.453125 L 5.9375 1.453125 L 5.9375 -7.78125 L 1.265625 -7.78125 Z M 1.265625 1.453125 "/>
</symbol>
<symbol overflow="visible" id="HC+uqNkD2-1">
<path style="stroke:none;" d="M 1.484375 -1 L 3.421875 -1 L 3.421875 -7.671875 L 1.3125 -7.25 L 1.3125 -8.328125 L 3.40625 -8.75 L 4.59375 -8.75 L 4.59375 -1 L 6.53125 -1 L 6.53125 0 L 1.484375 0 Z M 1.484375 -1 "/>
</symbol>
<symbol overflow="visible" id="HC+uqNkD2-2">
<path style="stroke:none;" d="M 1.28125 -1.484375 L 2.515625 -1.484375 L 2.515625 0 L 1.28125 0 Z M 1.28125 -1.484375 "/>
</symbol>
<symbol overflow="visible" id="HC+uqNkD2-3">
<path style="stroke:none;" d="M 1.015625 -2.59375 L 1.015625 -6.5625 L 2.09375 -6.5625 L 2.09375 -2.625 C 2.09375 -2.007812 2.210938 -1.546875 2.453125 -1.234375 C 2.703125 -0.921875 3.066406 -0.765625 3.546875 -0.765625 C 4.128906 -0.765625 4.585938 -0.945312 4.921875 -1.3125 C 5.265625 -1.6875 5.4375 -2.195312 5.4375 -2.84375 L 5.4375 -6.5625 L 6.515625 -6.5625 L 6.515625 0 L 5.4375 0 L 5.4375 -1.015625 C 5.175781 -0.609375 4.875 -0.304688 4.53125 -0.109375 C 4.1875 0.078125 3.785156 0.171875 3.328125 0.171875 C 2.566406 0.171875 1.988281 -0.0625 1.59375 -0.53125 C 1.207031 -1 1.015625 -1.6875 1.015625 -2.59375 Z M 3.734375 -6.71875 Z M 3.734375 -6.71875 "/>
</symbol>
<symbol overflow="visible" id="HC+uqNkD3-0">
<path style="stroke:none;" d="M 0.59375 2.125 L 0.59375 -8.46875 L 6.59375 -8.46875 L 6.59375 2.125 Z M 1.265625 1.453125 L 5.9375 1.453125 L 5.9375 -7.78125 L 1.265625 -7.78125 Z M 1.265625 1.453125 "/>
</symbol>
<symbol overflow="visible" id="HC+uqNkD3-1">
<path style="stroke:none;" d="M 1.484375 -1 L 3.421875 -1 L 3.421875 -7.671875 L 1.3125 -7.25 L 1.3125 -8.328125 L 3.40625 -8.75 L 4.59375 -8.75 L 4.59375 -1 L 6.53125 -1 L 6.53125 0 L 1.484375 0 Z M 1.484375 -1 "/>
</symbol>
<symbol overflow="visible" id="HC+uqNkD4-0">
<path style="stroke:none;" d="M 0.59375 2.125 L 0.59375 -8.46875 L 6.59375 -8.46875 L 6.59375 2.125 Z M 1.265625 1.453125 L 5.9375 1.453125 L 5.9375 -7.78125 L 1.265625 -7.78125 Z M 1.265625 1.453125 "/>
</symbol>
<symbol overflow="visible" id="HC+uqNkD4-1">
<path style="stroke:none;" d="M 1.28125 -1.484375 L 2.515625 -1.484375 L 2.515625 0 L 1.28125 0 Z M 1.28125 -1.484375 "/>
</symbol>
<symbol overflow="visible" id="HC+uqNkD4-2">
<path style="stroke:none;" d="M 2.296875 -1 L 6.4375 -1 L 6.4375 0 L 0.875 0 L 0.875 -1 C 1.320312 -1.457031 1.929688 -2.078125 2.703125 -2.859375 C 3.484375 -3.648438 3.972656 -4.160156 4.171875 -4.390625 C 4.554688 -4.804688 4.820312 -5.160156 4.96875 -5.453125 C 5.125 -5.753906 5.203125 -6.046875 5.203125 -6.328125 C 5.203125 -6.796875 5.035156 -7.175781 4.703125 -7.46875 C 4.378906 -7.757812 3.957031 -7.90625 3.4375 -7.90625 C 3.0625 -7.90625 2.664062 -7.84375 2.25 -7.71875 C 1.84375 -7.59375 1.40625 -7.394531 0.9375 -7.125 L 0.9375 -8.328125 C 1.414062 -8.515625 1.859375 -8.65625 2.265625 -8.75 C 2.679688 -8.851562 3.0625 -8.90625 3.40625 -8.90625 C 4.3125 -8.90625 5.035156 -8.675781 5.578125 -8.21875 C 6.117188 -7.769531 6.390625 -7.164062 6.390625 -6.40625 C 6.390625 -6.050781 6.320312 -5.710938 6.1875 -5.390625 C 6.050781 -5.066406 5.804688 -4.6875 5.453125 -4.25 C 5.347656 -4.132812 5.035156 -3.804688 4.515625 -3.265625 C 3.992188 -2.722656 3.253906 -1.96875 2.296875 -1 Z M 2.296875 -1 "/>
</symbol>
<symbol overflow="visible" id="HC+uqNkD4-3">
<path style="stroke:none;" d="M 3.8125 -7.96875 C 3.207031 -7.96875 2.75 -7.664062 2.4375 -7.0625 C 2.132812 -6.46875 1.984375 -5.566406 1.984375 -4.359375 C 1.984375 -3.160156 2.132812 -2.257812 2.4375 -1.65625 C 2.75 -1.0625 3.207031 -0.765625 3.8125 -0.765625 C 4.425781 -0.765625 4.882812 -1.0625 5.1875 -1.65625 C 5.5 -2.257812 5.65625 -3.160156 5.65625 -4.359375 C 5.65625 -5.566406 5.5 -6.46875 5.1875 -7.0625 C 4.882812 -7.664062 4.425781 -7.96875 3.8125 -7.96875 Z M 3.8125 -8.90625 C 4.789062 -8.90625 5.539062 -8.515625 6.0625 -7.734375 C 6.582031 -6.960938 6.84375 -5.835938 6.84375 -4.359375 C 6.84375 -2.890625 6.582031 -1.765625 6.0625 -0.984375 C 5.539062 -0.210938 4.789062 0.171875 3.8125 0.171875 C 2.832031 0.171875 2.082031 -0.210938 1.5625 -0.984375 C 1.050781 -1.765625 0.796875 -2.890625 0.796875 -4.359375 C 0.796875 -5.835938 1.050781 -6.960938 1.5625 -7.734375 C 2.082031 -8.515625 2.832031 -8.90625 3.8125 -8.90625 Z M 3.8125 -8.90625 "/>
</symbol>
<symbol overflow="visible" id="HC+uqNkD4-4">
<path style="stroke:none;" d="M 3.8125 -4.15625 C 3.25 -4.15625 2.804688 -4.003906 2.484375 -3.703125 C 2.160156 -3.398438 2 -2.988281 2 -2.46875 C 2 -1.9375 2.160156 -1.519531 2.484375 -1.21875 C 2.804688 -0.914062 3.25 -0.765625 3.8125 -0.765625 C 4.375 -0.765625 4.816406 -0.914062 5.140625 -1.21875 C 5.460938 -1.519531 5.625 -1.9375 5.625 -2.46875 C 5.625 -2.988281 5.460938 -3.398438 5.140625 -3.703125 C 4.828125 -4.003906 4.382812 -4.15625 3.8125 -4.15625 Z M 2.625 -4.65625 C 2.125 -4.78125 1.726562 -5.015625 1.4375 -5.359375 C 1.15625 -5.710938 1.015625 -6.140625 1.015625 -6.640625 C 1.015625 -7.335938 1.265625 -7.890625 1.765625 -8.296875 C 2.265625 -8.703125 2.945312 -8.90625 3.8125 -8.90625 C 4.6875 -8.90625 5.367188 -8.703125 5.859375 -8.296875 C 6.359375 -7.890625 6.609375 -7.335938 6.609375 -6.640625 C 6.609375 -6.140625 6.46875 -5.710938 6.1875 -5.359375 C 5.90625 -5.015625 5.507812 -4.78125 5 -4.65625 C 5.570312 -4.519531 6.015625 -4.257812 6.328125 -3.875 C 6.648438 -3.488281 6.8125 -3.019531 6.8125 -2.46875 C 6.8125 -1.613281 6.550781 -0.957031 6.03125 -0.5 C 5.519531 -0.0507812 4.78125 0.171875 3.8125 0.171875 C 2.851562 0.171875 2.113281 -0.0507812 1.59375 -0.5 C 1.070312 -0.957031 0.8125 -1.613281 0.8125 -2.46875 C 0.8125 -3.019531 0.972656 -3.488281 1.296875 -3.875 C 1.617188 -4.257812 2.0625 -4.519531 2.625 -4.65625 Z M 2.203125 -6.53125 C 2.203125 -6.070312 2.34375 -5.71875 2.625 -5.46875 C 2.90625 -5.21875 3.300781 -5.09375 3.8125 -5.09375 C 4.320312 -5.09375 4.71875 -5.21875 5 -5.46875 C 5.289062 -5.71875 5.4375 -6.070312 5.4375 -6.53125 C 5.4375 -6.976562 5.289062 -7.328125 5 -7.578125 C 4.71875 -7.835938 4.320312 -7.96875 3.8125 -7.96875 C 3.300781 -7.96875 2.90625 -7.835938 2.625 -7.578125 C 2.34375 -7.328125 2.203125 -6.976562 2.203125 -6.53125 Z M 2.203125 -6.53125 "/>
</symbol>
<symbol overflow="visible" id="HC+uqNkD4-5">
<path style="stroke:none;" d="M 1.484375 -1 L 3.421875 -1 L 3.421875 -7.671875 L 1.3125 -7.25 L 1.3125 -8.328125 L 3.40625 -8.75 L 4.59375 -8.75 L 4.59375 -1 L 6.53125 -1 L 6.53125 0 L 1.484375 0 Z M 1.484375 -1 "/>
</symbol>
<symbol overflow="visible" id="HC+uqNkD4-6">
<path style="stroke:none;" d="M 0.359375 -6.5625 L 1.5 -6.5625 L 3.546875 -1.0625 L 5.609375 -6.5625 L 6.75 -6.5625 L 4.28125 0 L 2.8125 0 Z M 0.359375 -6.5625 "/>
</symbol>
<symbol overflow="visible" id="HC+uqNkD4-7">
<path style="stroke:none;" d="M 4.109375 -3.296875 C 3.242188 -3.296875 2.640625 -3.195312 2.296875 -3 C 1.960938 -2.800781 1.796875 -2.460938 1.796875 -1.984375 C 1.796875 -1.597656 1.921875 -1.289062 2.171875 -1.0625 C 2.429688 -0.84375 2.773438 -0.734375 3.203125 -0.734375 C 3.804688 -0.734375 4.285156 -0.941406 4.640625 -1.359375 C 5.003906 -1.785156 5.1875 -2.351562 5.1875 -3.0625 L 5.1875 -3.296875 Z M 6.265625 -3.75 L 6.265625 0 L 5.1875 0 L 5.1875 -1 C 4.9375 -0.601562 4.628906 -0.304688 4.265625 -0.109375 C 3.898438 0.078125 3.453125 0.171875 2.921875 0.171875 C 2.242188 0.171875 1.707031 -0.015625 1.3125 -0.390625 C 0.914062 -0.773438 0.71875 -1.28125 0.71875 -1.90625 C 0.71875 -2.644531 0.960938 -3.203125 1.453125 -3.578125 C 1.953125 -3.953125 2.691406 -4.140625 3.671875 -4.140625 L 5.1875 -4.140625 L 5.1875 -4.25 C 5.1875 -4.75 5.019531 -5.132812 4.6875 -5.40625 C 4.363281 -5.675781 3.910156 -5.8125 3.328125 -5.8125 C 2.953125 -5.8125 2.582031 -5.765625 2.21875 -5.671875 C 1.863281 -5.578125 1.523438 -5.441406 1.203125 -5.265625 L 1.203125 -6.265625 C 1.597656 -6.421875 1.976562 -6.535156 2.34375 -6.609375 C 2.71875 -6.679688 3.082031 -6.71875 3.4375 -6.71875 C 4.382812 -6.71875 5.09375 -6.472656 5.5625 -5.984375 C 6.03125 -5.492188 6.265625 -4.75 6.265625 -3.75 Z M 6.265625 -3.75 "/>
</symbol>
<symbol overflow="visible" id="HC+uqNkD4-8">
<path style="stroke:none;" d="M 1.125 -9.125 L 2.203125 -9.125 L 2.203125 0 L 1.125 0 Z M 1.125 -9.125 "/>
</symbol>
<symbol overflow="visible" id="HC+uqNkD4-9">
<path style="stroke:none;" d="M 6.75 -3.546875 L 6.75 -3.03125 L 1.78125 -3.03125 C 1.832031 -2.28125 2.054688 -1.710938 2.453125 -1.328125 C 2.859375 -0.941406 3.414062 -0.75 4.125 -0.75 C 4.539062 -0.75 4.941406 -0.796875 5.328125 -0.890625 C 5.722656 -0.992188 6.113281 -1.148438 6.5 -1.359375 L 6.5 -0.328125 C 6.101562 -0.171875 5.703125 -0.0507812 5.296875 0.03125 C 4.890625 0.125 4.476562 0.171875 4.0625 0.171875 C 3.019531 0.171875 2.191406 -0.128906 1.578125 -0.734375 C 0.960938 -1.347656 0.65625 -2.175781 0.65625 -3.21875 C 0.65625 -4.289062 0.945312 -5.140625 1.53125 -5.765625 C 2.113281 -6.398438 2.894531 -6.71875 3.875 -6.71875 C 4.757812 -6.71875 5.457031 -6.429688 5.96875 -5.859375 C 6.488281 -5.296875 6.75 -4.523438 6.75 -3.546875 Z M 5.671875 -3.875 C 5.660156 -4.457031 5.492188 -4.925781 5.171875 -5.28125 C 4.847656 -5.632812 4.421875 -5.8125 3.890625 -5.8125 C 3.285156 -5.8125 2.800781 -5.640625 2.4375 -5.296875 C 2.082031 -4.953125 1.878906 -4.472656 1.828125 -3.859375 Z M 5.671875 -3.875 "/>
</symbol>
<symbol overflow="visible" id="HC+uqNkD4-10">
<path style="stroke:none;" d="M 4.875 -4.71875 C 5.4375 -4.59375 5.875 -4.335938 6.1875 -3.953125 C 6.507812 -3.578125 6.671875 -3.109375 6.671875 -2.546875 C 6.671875 -1.679688 6.375 -1.007812 5.78125 -0.53125 C 5.1875 -0.0625 4.34375 0.171875 3.25 0.171875 C 2.882812 0.171875 2.503906 0.132812 2.109375 0.0625 C 1.722656 -0.0078125 1.328125 -0.117188 0.921875 -0.265625 L 0.921875 -1.40625 C 1.242188 -1.21875 1.597656 -1.070312 1.984375 -0.96875 C 2.378906 -0.875 2.789062 -0.828125 3.21875 -0.828125 C 3.957031 -0.828125 4.519531 -0.972656 4.90625 -1.265625 C 5.300781 -1.554688 5.5 -1.984375 5.5 -2.546875 C 5.5 -3.054688 5.316406 -3.457031 4.953125 -3.75 C 4.585938 -4.039062 4.085938 -4.1875 3.453125 -4.1875 L 2.421875 -4.1875 L 2.421875 -5.15625 L 3.5 -5.15625 C 4.070312 -5.15625 4.515625 -5.269531 4.828125 -5.5 C 5.140625 -5.738281 5.296875 -6.078125 5.296875 -6.515625 C 5.296875 -6.960938 5.132812 -7.304688 4.8125 -7.546875 C 4.5 -7.785156 4.046875 -7.90625 3.453125 -7.90625 C 3.117188 -7.90625 2.765625 -7.867188 2.390625 -7.796875 C 2.023438 -7.734375 1.617188 -7.628906 1.171875 -7.484375 L 1.171875 -8.53125 C 1.628906 -8.65625 2.050781 -8.75 2.4375 -8.8125 C 2.832031 -8.875 3.203125 -8.90625 3.546875 -8.90625 C 4.453125 -8.90625 5.164062 -8.703125 5.6875 -8.296875 C 6.207031 -7.890625 6.46875 -7.335938 6.46875 -6.640625 C 6.46875 -6.148438 6.328125 -5.738281 6.046875 -5.40625 C 5.773438 -5.070312 5.382812 -4.84375 4.875 -4.71875 Z M 4.875 -4.71875 "/>
</symbol>
<symbol overflow="visible" id="HC+uqNkD5-0">
<path style="stroke:none;" d="M 0.59375 2.125 L 0.59375 -8.46875 L 6.59375 -8.46875 L 6.59375 2.125 Z M 1.265625 1.453125 L 5.9375 1.453125 L 5.9375 -7.78125 L 1.265625 -7.78125 Z M 1.265625 1.453125 "/>
</symbol>
<symbol overflow="visible" id="HC+uqNkD5-1">
<path style="stroke:none;" d="M 1.296875 -8.75 L 5.9375 -8.75 L 5.9375 -7.75 L 2.375 -7.75 L 2.375 -5.609375 C 2.550781 -5.671875 2.722656 -5.710938 2.890625 -5.734375 C 3.066406 -5.765625 3.238281 -5.78125 3.40625 -5.78125 C 4.382812 -5.78125 5.160156 -5.507812 5.734375 -4.96875 C 6.304688 -4.4375 6.59375 -3.71875 6.59375 -2.8125 C 6.59375 -1.863281 6.296875 -1.128906 5.703125 -0.609375 C 5.117188 -0.0859375 4.296875 0.171875 3.234375 0.171875 C 2.859375 0.171875 2.476562 0.140625 2.09375 0.078125 C 1.71875 0.015625 1.328125 -0.078125 0.921875 -0.203125 L 0.921875 -1.390625 C 1.273438 -1.203125 1.640625 -1.0625 2.015625 -0.96875 C 2.390625 -0.875 2.785156 -0.828125 3.203125 -0.828125 C 3.878906 -0.828125 4.414062 -1.003906 4.8125 -1.359375 C 5.207031 -1.710938 5.40625 -2.195312 5.40625 -2.8125 C 5.40625 -3.414062 5.207031 -3.894531 4.8125 -4.25 C 4.414062 -4.601562 3.878906 -4.78125 3.203125 -4.78125 C 2.890625 -4.78125 2.570312 -4.742188 2.25 -4.671875 C 1.9375 -4.609375 1.617188 -4.503906 1.296875 -4.359375 Z M 1.296875 -8.75 "/>
</symbol>
<symbol overflow="visible" id="HC+uqNkD6-0">
<path style="stroke:none;" d="M 0.59375 2.125 L 0.59375 -8.46875 L 6.59375 -8.46875 L 6.59375 2.125 Z M 1.265625 1.453125 L 5.9375 1.453125 L 5.9375 -7.78125 L 1.265625 -7.78125 Z M 1.265625 1.453125 "/>
</symbol>
<symbol overflow="visible" id="HC+uqNkD6-1">
<path style="stroke:none;" d="M 1.484375 -1 L 3.421875 -1 L 3.421875 -7.671875 L 1.3125 -7.25 L 1.3125 -8.328125 L 3.40625 -8.75 L 4.59375 -8.75 L 4.59375 -1 L 6.53125 -1 L 6.53125 0 L 1.484375 0 Z M 1.484375 -1 "/>
</symbol>
<symbol overflow="visible" id="HC+uqNkD7-0">
<path style="stroke:none;" d="M 0.59375 2.125 L 0.59375 -8.46875 L 6.59375 -8.46875 L 6.59375 2.125 Z M 1.265625 1.453125 L 5.9375 1.453125 L 5.9375 -7.78125 L 1.265625 -7.78125 Z M 1.265625 1.453125 "/>
</symbol>
<symbol overflow="visible" id="HC+uqNkD7-1">
<path style="stroke:none;" d="M 3.8125 -7.96875 C 3.207031 -7.96875 2.75 -7.664062 2.4375 -7.0625 C 2.132812 -6.46875 1.984375 -5.566406 1.984375 -4.359375 C 1.984375 -3.160156 2.132812 -2.257812 2.4375 -1.65625 C 2.75 -1.0625 3.207031 -0.765625 3.8125 -0.765625 C 4.425781 -0.765625 4.882812 -1.0625 5.1875 -1.65625 C 5.5 -2.257812 5.65625 -3.160156 5.65625 -4.359375 C 5.65625 -5.566406 5.5 -6.46875 5.1875 -7.0625 C 4.882812 -7.664062 4.425781 -7.96875 3.8125 -7.96875 Z M 3.8125 -8.90625 C 4.789062 -8.90625 5.539062 -8.515625 6.0625 -7.734375 C 6.582031 -6.960938 6.84375 -5.835938 6.84375 -4.359375 C 6.84375 -2.890625 6.582031 -1.765625 6.0625 -0.984375 C 5.539062 -0.210938 4.789062 0.171875 3.8125 0.171875 C 2.832031 0.171875 2.082031 -0.210938 1.5625 -0.984375 C 1.050781 -1.765625 0.796875 -2.890625 0.796875 -4.359375 C 0.796875 -5.835938 1.050781 -6.960938 1.5625 -7.734375 C 2.082031 -8.515625 2.832031 -8.90625 3.8125 -8.90625 Z M 3.8125 -8.90625 "/>
</symbol>
<symbol overflow="visible" id="HC+uqNkD8-0">
<path style="stroke:none;" d="M 2.125 -0.59375 L -8.46875 -0.59375 L -8.46875 -6.59375 L 2.125 -6.59375 Z M 1.453125 -1.265625 L 1.453125 -5.9375 L -7.78125 -5.9375 L -7.78125 -1.265625 Z M 1.453125 -1.265625 "/>
</symbol>
<symbol overflow="visible" id="HC+uqNkD8-1">
<path style="stroke:none;" d="M -5.5625 -5.453125 L -9.125 -5.453125 L -9.125 -6.53125 L 0 -6.53125 L 0 -5.453125 L -0.984375 -5.453125 C -0.597656 -5.222656 -0.304688 -4.9375 -0.109375 -4.59375 C 0.078125 -4.25 0.171875 -3.832031 0.171875 -3.34375 C 0.171875 -2.550781 -0.144531 -1.90625 -0.78125 -1.40625 C -1.414062 -0.90625 -2.25 -0.65625 -3.28125 -0.65625 C -4.3125 -0.65625 -5.140625 -0.90625 -5.765625 -1.40625 C -6.398438 -1.90625 -6.71875 -2.550781 -6.71875 -3.34375 C -6.71875 -3.832031 -6.625 -4.25 -6.4375 -4.59375 C -6.25 -4.9375 -5.957031 -5.222656 -5.5625 -5.453125 Z M -3.28125 -1.78125 C -2.488281 -1.78125 -1.863281 -1.941406 -1.40625 -2.265625 C -0.957031 -2.585938 -0.734375 -3.035156 -0.734375 -3.609375 C -0.734375 -4.179688 -0.957031 -4.628906 -1.40625 -4.953125 C -1.863281 -5.285156 -2.488281 -5.453125 -3.28125 -5.453125 C -4.070312 -5.453125 -4.691406 -5.285156 -5.140625 -4.953125 C -5.585938 -4.628906 -5.8125 -4.179688 -5.8125 -3.609375 C -5.8125 -3.035156 -5.585938 -2.585938 -5.140625 -2.265625 C -4.691406 -1.941406 -4.070312 -1.78125 -3.28125 -1.78125 Z M -3.28125 -1.78125 "/>
</symbol>
<symbol overflow="visible" id="HC+uqNkD8-2">
<path style="stroke:none;" d="M -6.375 -5.3125 L -5.34375 -5.3125 C -5.5 -5.007812 -5.613281 -4.691406 -5.6875 -4.359375 C -5.769531 -4.035156 -5.8125 -3.695312 -5.8125 -3.34375 C -5.8125 -2.8125 -5.726562 -2.410156 -5.5625 -2.140625 C -5.40625 -1.867188 -5.160156 -1.734375 -4.828125 -1.734375 C -4.578125 -1.734375 -4.378906 -1.828125 -4.234375 -2.015625 C -4.097656 -2.210938 -3.96875 -2.601562 -3.84375 -3.1875 L -3.75 -3.546875 C -3.59375 -4.316406 -3.363281 -4.863281 -3.0625 -5.1875 C -2.757812 -5.507812 -2.34375 -5.671875 -1.8125 -5.671875 C -1.195312 -5.671875 -0.710938 -5.425781 -0.359375 -4.9375 C -0.00390625 -4.457031 0.171875 -3.796875 0.171875 -2.953125 C 0.171875 -2.597656 0.132812 -2.226562 0.0625 -1.84375 C 0 -1.46875 -0.0976562 -1.070312 -0.234375 -0.65625 L -1.359375 -0.65625 C -1.148438 -1.050781 -0.992188 -1.441406 -0.890625 -1.828125 C -0.785156 -2.210938 -0.734375 -2.597656 -0.734375 -2.984375 C -0.734375 -3.484375 -0.816406 -3.867188 -0.984375 -4.140625 C -1.160156 -4.421875 -1.410156 -4.5625 -1.734375 -4.5625 C -2.023438 -4.5625 -2.25 -4.460938 -2.40625 -4.265625 C -2.5625 -4.066406 -2.710938 -3.632812 -2.859375 -2.96875 L -2.9375 -2.59375 C -3.082031 -1.925781 -3.300781 -1.441406 -3.59375 -1.140625 C -3.882812 -0.847656 -4.28125 -0.703125 -4.78125 -0.703125 C -5.40625 -0.703125 -5.882812 -0.921875 -6.21875 -1.359375 C -6.550781 -1.796875 -6.71875 -2.414062 -6.71875 -3.21875 C -6.71875 -3.613281 -6.6875 -3.988281 -6.625 -4.34375 C -6.570312 -4.695312 -6.488281 -5.019531 -6.375 -5.3125 Z M -6.375 -5.3125 "/>
</symbol>
<symbol overflow="visible" id="HC+uqNkD9-0">
<path style="stroke:none;" d="M 2.125 -0.59375 L -8.46875 -0.59375 L -8.46875 -6.59375 L 2.125 -6.59375 Z M 1.453125 -1.265625 L 1.453125 -5.9375 L -7.78125 -5.9375 L -7.78125 -1.265625 Z M 1.453125 -1.265625 "/>
</symbol>
<symbol overflow="visible" id="HC+uqNkD9-1">
<path style="stroke:none;" d="M -3.546875 -6.75 L -3.03125 -6.75 L -3.03125 -1.78125 C -2.28125 -1.832031 -1.710938 -2.054688 -1.328125 -2.453125 C -0.941406 -2.859375 -0.75 -3.414062 -0.75 -4.125 C -0.75 -4.539062 -0.796875 -4.941406 -0.890625 -5.328125 C -0.992188 -5.722656 -1.148438 -6.113281 -1.359375 -6.5 L -0.328125 -6.5 C -0.171875 -6.101562 -0.0507812 -5.703125 0.03125 -5.296875 C 0.125 -4.890625 0.171875 -4.476562 0.171875 -4.0625 C 0.171875 -3.019531 -0.128906 -2.191406 -0.734375 -1.578125 C -1.347656 -0.960938 -2.175781 -0.65625 -3.21875 -0.65625 C -4.289062 -0.65625 -5.140625 -0.945312 -5.765625 -1.53125 C -6.398438 -2.113281 -6.71875 -2.894531 -6.71875 -3.875 C -6.71875 -4.757812 -6.429688 -5.457031 -5.859375 -5.96875 C -5.296875 -6.488281 -4.523438 -6.75 -3.546875 -6.75 Z M -3.875 -5.671875 C -4.457031 -5.660156 -4.925781 -5.492188 -5.28125 -5.171875 C -5.632812 -4.847656 -5.8125 -4.421875 -5.8125 -3.890625 C -5.8125 -3.285156 -5.640625 -2.800781 -5.296875 -2.4375 C -4.953125 -2.082031 -4.472656 -1.878906 -3.859375 -1.828125 Z M -3.875 -5.671875 "/>
</symbol>
<symbol overflow="visible" id="HC+uqNkD10-0">
<path style="stroke:none;" d="M 2.125 -0.59375 L -8.46875 -0.59375 L -8.46875 -6.59375 L 2.125 -6.59375 Z M 1.453125 -1.265625 L 1.453125 -5.9375 L -7.78125 -5.9375 L -7.78125 -1.265625 Z M 1.453125 -1.265625 "/>
</symbol>
<symbol overflow="visible" id="HC+uqNkD10-1">
<path style="stroke:none;" d="M -3.96875 -6.59375 L 0 -6.59375 L 0 -5.515625 L -3.921875 -5.515625 C -4.546875 -5.515625 -5.007812 -5.390625 -5.3125 -5.140625 C -5.625 -4.898438 -5.78125 -4.539062 -5.78125 -4.0625 C -5.78125 -3.476562 -5.59375 -3.015625 -5.21875 -2.671875 C -4.851562 -2.335938 -4.347656 -2.171875 -3.703125 -2.171875 L 0 -2.171875 L 0 -1.09375 L -6.5625 -1.09375 L -6.5625 -2.171875 L -5.546875 -2.171875 C -5.941406 -2.429688 -6.234375 -2.734375 -6.421875 -3.078125 C -6.617188 -3.429688 -6.71875 -3.835938 -6.71875 -4.296875 C -6.71875 -5.046875 -6.484375 -5.613281 -6.015625 -6 C -5.554688 -6.394531 -4.875 -6.59375 -3.96875 -6.59375 Z M -3.96875 -6.59375 "/>
</symbol>
<symbol overflow="visible" id="HC+uqNkD10-2">
<path style="stroke:none;" d="M -6.5625 -1.125 L -6.5625 -2.203125 L 0 -2.203125 L 0 -1.125 Z M -9.125 -1.125 L -9.125 -2.203125 L -7.75 -2.203125 L -7.75 -1.125 Z M -9.125 -1.125 "/>
</symbol>
<symbol overflow="visible" id="HC+uqNkD10-3">
<path style="stroke:none;" d="M -8.421875 -2.203125 L -6.5625 -2.203125 L -6.5625 -4.421875 L -5.71875 -4.421875 L -5.71875 -2.203125 L -2.15625 -2.203125 C -1.625 -2.203125 -1.28125 -2.273438 -1.125 -2.421875 C -0.976562 -2.566406 -0.90625 -2.863281 -0.90625 -3.3125 L -0.90625 -4.421875 L 0 -4.421875 L 0 -3.3125 C 0 -2.476562 -0.15625 -1.898438 -0.46875 -1.578125 C -0.78125 -1.265625 -1.34375 -1.109375 -2.15625 -1.109375 L -5.71875 -1.109375 L -5.71875 -0.328125 L -6.5625 -0.328125 L -6.5625 -1.109375 L -8.421875 -1.109375 Z M -8.421875 -2.203125 "/>
</symbol>
<symbol overflow="visible" id="HC+uqNkD11-0">
<path style="stroke:none;" d="M 2.125 -0.59375 L -8.46875 -0.59375 L -8.46875 -6.59375 L 2.125 -6.59375 Z M 1.453125 -1.265625 L 1.453125 -5.9375 L -7.78125 -5.9375 L -7.78125 -1.265625 Z M 1.453125 -1.265625 "/>
</symbol>
<symbol overflow="visible" id="HC+uqNkD11-1">
<path style="stroke:none;" d="M 0.609375 -3.859375 C 1.390625 -3.554688 1.898438 -3.257812 2.140625 -2.96875 C 2.378906 -2.675781 2.5 -2.289062 2.5 -1.8125 L 2.5 -0.953125 L 1.59375 -0.953125 L 1.59375 -1.578125 C 1.59375 -1.878906 1.519531 -2.109375 1.375 -2.265625 C 1.238281 -2.429688 0.910156 -2.613281 0.390625 -2.8125 L -0.109375 -3.015625 L -6.5625 -0.359375 L -6.5625 -1.5 L -1.4375 -3.546875 L -6.5625 -5.609375 L -6.5625 -6.75 Z M 0.609375 -3.859375 "/>
</symbol>
<symbol overflow="visible" id="HC+uqNkD12-0">
<path style="stroke:none;" d="M 0.59375 2.125 L 0.59375 -8.46875 L 6.59375 -8.46875 L 6.59375 2.125 Z M 1.265625 1.453125 L 5.9375 1.453125 L 5.9375 -7.78125 L 1.265625 -7.78125 Z M 1.265625 1.453125 "/>
</symbol>
<symbol overflow="visible" id="HC+uqNkD12-1">
<path style="stroke:none;" d="M 3.8125 -7.96875 C 3.207031 -7.96875 2.75 -7.664062 2.4375 -7.0625 C 2.132812 -6.46875 1.984375 -5.566406 1.984375 -4.359375 C 1.984375 -3.160156 2.132812 -2.257812 2.4375 -1.65625 C 2.75 -1.0625 3.207031 -0.765625 3.8125 -0.765625 C 4.425781 -0.765625 4.882812 -1.0625 5.1875 -1.65625 C 5.5 -2.257812 5.65625 -3.160156 5.65625 -4.359375 C 5.65625 -5.566406 5.5 -6.46875 5.1875 -7.0625 C 4.882812 -7.664062 4.425781 -7.96875 3.8125 -7.96875 Z M 3.8125 -8.90625 C 4.789062 -8.90625 5.539062 -8.515625 6.0625 -7.734375 C 6.582031 -6.960938 6.84375 -5.835938 6.84375 -4.359375 C 6.84375 -2.890625 6.582031 -1.765625 6.0625 -0.984375 C 5.539062 -0.210938 4.789062 0.171875 3.8125 0.171875 C 2.832031 0.171875 2.082031 -0.210938 1.5625 -0.984375 C 1.050781 -1.765625 0.796875 -2.890625 0.796875 -4.359375 C 0.796875 -5.835938 1.050781 -6.960938 1.5625 -7.734375 C 2.082031 -8.515625 2.832031 -8.90625 3.8125 -8.90625 Z M 3.8125 -8.90625 "/>
</symbol>
<symbol overflow="visible" id="HC+uqNkD13-0">
<path style="stroke:none;" d="M 0.59375 2.125 L 0.59375 -8.46875 L 6.59375 -8.46875 L 6.59375 2.125 Z M 1.265625 1.453125 L 5.9375 1.453125 L 5.9375 -7.78125 L 1.265625 -7.78125 Z M 1.265625 1.453125 "/>
</symbol>
<symbol overflow="visible" id="HC+uqNkD13-1">
<path style="stroke:none;" d="M 1.28125 -1.484375 L 2.515625 -1.484375 L 2.515625 0 L 1.28125 0 Z M 1.28125 -1.484375 "/>
</symbol>
<symbol overflow="visible" id="HC+uqNkD14-0">
<path style="stroke:none;" d="M 0.59375 2.125 L 0.59375 -8.46875 L 6.59375 -8.46875 L 6.59375 2.125 Z M 1.265625 1.453125 L 5.9375 1.453125 L 5.9375 -7.78125 L 1.265625 -7.78125 Z M 1.265625 1.453125 "/>
</symbol>
<symbol overflow="visible" id="HC+uqNkD14-1">
<path style="stroke:none;" d="M 2.203125 -0.40625 L 2.203125 2.5 L 1.125 2.5 L 1.125 -6.515625 C 1.125 -8.296875 1.957031 -9.1875 3.625 -9.1875 C 5.320312 -9.1875 6.171875 -8.4375 6.171875 -6.9375 C 6.171875 -5.863281 5.832031 -5.132812 5.15625 -4.75 C 6.25 -4.394531 6.796875 -3.695312 6.796875 -2.65625 C 6.796875 -0.800781 5.851562 0.125 3.96875 0.125 C 3.144531 0.125 2.554688 -0.0507812 2.203125 -0.40625 Z M 2.203125 -1.8125 C 2.640625 -1.132812 3.242188 -0.796875 4.015625 -0.796875 C 5.140625 -0.796875 5.703125 -1.410156 5.703125 -2.640625 C 5.703125 -3.742188 4.796875 -4.25 2.984375 -4.15625 L 2.984375 -5.15625 C 4.398438 -5.15625 5.109375 -5.78125 5.109375 -7.03125 C 5.109375 -7.882812 4.648438 -8.3125 3.734375 -8.3125 C 2.710938 -8.3125 2.203125 -7.703125 2.203125 -6.484375 Z M 2.203125 -1.8125 "/>
</symbol>
<symbol overflow="visible" id="HC+uqNkD14-2">
<path style="stroke:none;" d="M 3.109375 -3.109375 C 3.035156 -3.140625 2.953125 -3.164062 2.859375 -3.1875 C 2.765625 -3.207031 2.664062 -3.21875 2.5625 -3.21875 C 2.175781 -3.21875 1.878906 -3.101562 1.671875 -2.875 C 1.472656 -2.65625 1.375 -2.335938 1.375 -1.921875 L 1.375 0 L 0.6875 0 L 0.6875 -3.671875 L 1.375 -3.671875 L 1.375 -3.09375 C 1.507812 -3.320312 1.691406 -3.488281 1.921875 -3.59375 C 2.148438 -3.695312 2.429688 -3.75 2.765625 -3.75 C 2.804688 -3.75 2.851562 -3.75 2.90625 -3.75 C 2.96875 -3.75 3.035156 -3.738281 3.109375 -3.71875 Z M 3.109375 -3.109375 "/>
</symbol>
<symbol overflow="visible" id="HC+uqNkD15-0">
<path style="stroke:none;" d="M 0.59375 2.125 L 0.59375 -8.46875 L 6.59375 -8.46875 L 6.59375 2.125 Z M 1.265625 1.453125 L 5.9375 1.453125 L 5.9375 -7.78125 L 1.265625 -7.78125 Z M 1.265625 1.453125 "/>
</symbol>
<symbol overflow="visible" id="HC+uqNkD15-1">
<path style="stroke:none;" d="M 2.203125 -0.40625 L 2.203125 2.5 L 1.125 2.5 L 1.125 -6.515625 C 1.125 -8.296875 1.957031 -9.1875 3.625 -9.1875 C 5.320312 -9.1875 6.171875 -8.4375 6.171875 -6.9375 C 6.171875 -5.863281 5.832031 -5.132812 5.15625 -4.75 C 6.25 -4.394531 6.796875 -3.695312 6.796875 -2.65625 C 6.796875 -0.800781 5.851562 0.125 3.96875 0.125 C 3.144531 0.125 2.554688 -0.0507812 2.203125 -0.40625 Z M 2.203125 -1.8125 C 2.640625 -1.132812 3.242188 -0.796875 4.015625 -0.796875 C 5.140625 -0.796875 5.703125 -1.410156 5.703125 -2.640625 C 5.703125 -3.742188 4.796875 -4.25 2.984375 -4.15625 L 2.984375 -5.15625 C 4.398438 -5.15625 5.109375 -5.78125 5.109375 -7.03125 C 5.109375 -7.882812 4.648438 -8.3125 3.734375 -8.3125 C 2.710938 -8.3125 2.203125 -7.703125 2.203125 -6.484375 Z M 2.203125 -1.8125 "/>
</symbol>
<symbol overflow="visible" id="HC+uqNkD15-2">
<path style="stroke:none;" d="M 2.59375 -1.84375 C 2.039062 -1.84375 1.660156 -1.785156 1.453125 -1.671875 C 1.234375 -1.554688 1.125 -1.363281 1.125 -1.09375 C 1.125 -0.882812 1.203125 -0.71875 1.359375 -0.59375 C 1.523438 -0.46875 1.742188 -0.40625 2.015625 -0.40625 C 2.390625 -0.40625 2.691406 -0.523438 2.921875 -0.765625 C 3.148438 -1.003906 3.265625 -1.316406 3.265625 -1.703125 L 3.265625 -1.84375 Z M 3.9375 -2.09375 L 3.9375 0 L 3.265625 0 L 3.265625 -0.546875 C 3.109375 -0.328125 2.914062 -0.164062 2.6875 -0.0625 C 2.457031 0.0390625 2.175781 0.09375 1.84375 0.09375 C 1.414062 0.09375 1.078125 -0.0078125 0.828125 -0.21875 C 0.578125 -0.425781 0.453125 -0.707031 0.453125 -1.0625 C 0.453125 -1.476562 0.609375 -1.789062 0.921875 -2 C 1.234375 -2.207031 1.695312 -2.3125 2.3125 -2.3125 L 3.265625 -2.3125 L 3.265625 -2.375 C 3.265625 -2.644531 3.160156 -2.859375 2.953125 -3.015625 C 2.753906 -3.171875 2.46875 -3.25 2.09375 -3.25 C 1.851562 -3.25 1.625 -3.222656 1.40625 -3.171875 C 1.175781 -3.117188 0.957031 -3.039062 0.75 -2.9375 L 0.75 -3.5 C 1 -3.582031 1.242188 -3.644531 1.484375 -3.6875 C 1.710938 -3.726562 1.9375 -3.75 2.15625 -3.75 C 2.757812 -3.75 3.207031 -3.613281 3.5 -3.34375 C 3.789062 -3.0625 3.9375 -2.644531 3.9375 -2.09375 Z M 3.9375 -2.09375 "/>
</symbol>
<symbol overflow="visible" id="HC+uqNkD16-0">
<path style="stroke:none;" d="M 0.59375 2.125 L 0.59375 -8.46875 L 6.59375 -8.46875 L 6.59375 2.125 Z M 1.265625 1.453125 L 5.9375 1.453125 L 5.9375 -7.78125 L 1.265625 -7.78125 Z M 1.265625 1.453125 "/>
</symbol>
<symbol overflow="visible" id="HC+uqNkD16-1">
<path style="stroke:none;" d="M 5.859375 -6.3125 L 5.859375 -5.296875 C 5.546875 -5.472656 5.238281 -5.601562 4.9375 -5.6875 C 4.632812 -5.769531 4.328125 -5.8125 4.015625 -5.8125 C 3.304688 -5.8125 2.757812 -5.585938 2.375 -5.140625 C 1.988281 -4.703125 1.796875 -4.082031 1.796875 -3.28125 C 1.796875 -2.476562 1.988281 -1.851562 2.375 -1.40625 C 2.757812 -0.96875 3.304688 -0.75 4.015625 -0.75 C 4.328125 -0.75 4.632812 -0.789062 4.9375 -0.875 C 5.238281 -0.957031 5.546875 -1.082031 5.859375 -1.25 L 5.859375 -0.25 C 5.554688 -0.113281 5.242188 -0.0078125 4.921875 0.0625 C 4.597656 0.132812 4.253906 0.171875 3.890625 0.171875 C 2.898438 0.171875 2.113281 -0.132812 1.53125 -0.75 C 0.945312 -1.375 0.65625 -2.21875 0.65625 -3.28125 C 0.65625 -4.34375 0.945312 -5.179688 1.53125 -5.796875 C 2.125 -6.410156 2.9375 -6.71875 3.96875 -6.71875 C 4.289062 -6.71875 4.609375 -6.679688 4.921875 -6.609375 C 5.242188 -6.546875 5.554688 -6.445312 5.859375 -6.3125 Z M 5.859375 -6.3125 "/>
</symbol>
<symbol overflow="visible" id="HC+uqNkD16-2">
<path style="stroke:none;" d="M 4.109375 -3.296875 C 3.242188 -3.296875 2.640625 -3.195312 2.296875 -3 C 1.960938 -2.800781 1.796875 -2.460938 1.796875 -1.984375 C 1.796875 -1.597656 1.921875 -1.289062 2.171875 -1.0625 C 2.429688 -0.84375 2.773438 -0.734375 3.203125 -0.734375 C 3.804688 -0.734375 4.285156 -0.941406 4.640625 -1.359375 C 5.003906 -1.785156 5.1875 -2.351562 5.1875 -3.0625 L 5.1875 -3.296875 Z M 6.265625 -3.75 L 6.265625 0 L 5.1875 0 L 5.1875 -1 C 4.9375 -0.601562 4.628906 -0.304688 4.265625 -0.109375 C 3.898438 0.078125 3.453125 0.171875 2.921875 0.171875 C 2.242188 0.171875 1.707031 -0.015625 1.3125 -0.390625 C 0.914062 -0.773438 0.71875 -1.28125 0.71875 -1.90625 C 0.71875 -2.644531 0.960938 -3.203125 1.453125 -3.578125 C 1.953125 -3.953125 2.691406 -4.140625 3.671875 -4.140625 L 5.1875 -4.140625 L 5.1875 -4.25 C 5.1875 -4.75 5.019531 -5.132812 4.6875 -5.40625 C 4.363281 -5.675781 3.910156 -5.8125 3.328125 -5.8125 C 2.953125 -5.8125 2.582031 -5.765625 2.21875 -5.671875 C 1.863281 -5.578125 1.523438 -5.441406 1.203125 -5.265625 L 1.203125 -6.265625 C 1.597656 -6.421875 1.976562 -6.535156 2.34375 -6.609375 C 2.71875 -6.679688 3.082031 -6.71875 3.4375 -6.71875 C 4.382812 -6.71875 5.09375 -6.472656 5.5625 -5.984375 C 6.03125 -5.492188 6.265625 -4.75 6.265625 -3.75 Z M 6.265625 -3.75 "/>
</symbol>
<symbol overflow="visible" id="HC+uqNkD17-0">
<path style="stroke:none;" d="M 0.59375 2.125 L 0.59375 -8.46875 L 6.59375 -8.46875 L 6.59375 2.125 Z M 1.265625 1.453125 L 5.9375 1.453125 L 5.9375 -7.78125 L 1.265625 -7.78125 Z M 1.265625 1.453125 "/>
</symbol>
<symbol overflow="visible" id="HC+uqNkD17-1">
<path style="stroke:none;" d="M 6.59375 -3.96875 L 6.59375 0 L 5.515625 0 L 5.515625 -3.921875 C 5.515625 -4.546875 5.390625 -5.007812 5.140625 -5.3125 C 4.898438 -5.625 4.539062 -5.78125 4.0625 -5.78125 C 3.476562 -5.78125 3.015625 -5.59375 2.671875 -5.21875 C 2.335938 -4.851562 2.171875 -4.347656 2.171875 -3.703125 L 2.171875 0 L 1.09375 0 L 1.09375 -9.125 L 2.171875 -9.125 L 2.171875 -5.546875 C 2.429688 -5.941406 2.734375 -6.234375 3.078125 -6.421875 C 3.429688 -6.617188 3.835938 -6.71875 4.296875 -6.71875 C 5.046875 -6.71875 5.613281 -6.484375 6 -6.015625 C 6.394531 -5.554688 6.59375 -4.875 6.59375 -3.96875 Z M 6.59375 -3.96875 "/>
</symbol>
<symbol overflow="visible" id="HC+uqNkD17-2">
<path style="stroke:none;" d="M 1.125 -6.5625 L 2.203125 -6.5625 L 2.203125 0 L 1.125 0 Z M 1.125 -9.125 L 2.203125 -9.125 L 2.203125 -7.75 L 1.125 -7.75 Z M 1.125 -9.125 "/>
</symbol>
<symbol overflow="visible" id="HC+uqNkD17-3">
<path style="stroke:none;" d="M 6.59375 -3.96875 L 6.59375 0 L 5.515625 0 L 5.515625 -3.921875 C 5.515625 -4.546875 5.390625 -5.007812 5.140625 -5.3125 C 4.898438 -5.625 4.539062 -5.78125 4.0625 -5.78125 C 3.476562 -5.78125 3.015625 -5.59375 2.671875 -5.21875 C 2.335938 -4.851562 2.171875 -4.347656 2.171875 -3.703125 L 2.171875 0 L 1.09375 0 L 1.09375 -6.5625 L 2.171875 -6.5625 L 2.171875 -5.546875 C 2.429688 -5.941406 2.734375 -6.234375 3.078125 -6.421875 C 3.429688 -6.617188 3.835938 -6.71875 4.296875 -6.71875 C 5.046875 -6.71875 5.613281 -6.484375 6 -6.015625 C 6.394531 -5.554688 6.59375 -4.875 6.59375 -3.96875 Z M 6.59375 -3.96875 "/>
</symbol>
<symbol overflow="visible" id="HC+uqNkD18-0">
<path style="stroke:none;" d="M 0.59375 2.125 L 0.59375 -8.46875 L 6.59375 -8.46875 L 6.59375 2.125 Z M 1.265625 1.453125 L 5.9375 1.453125 L 5.9375 -7.78125 L 1.265625 -7.78125 Z M 1.265625 1.453125 "/>
</symbol>
<symbol overflow="visible" id="HC+uqNkD18-1">
<path style="stroke:none;" d="M 2.296875 -1 L 6.4375 -1 L 6.4375 0 L 0.875 0 L 0.875 -1 C 1.320312 -1.457031 1.929688 -2.078125 2.703125 -2.859375 C 3.484375 -3.648438 3.972656 -4.160156 4.171875 -4.390625 C 4.554688 -4.804688 4.820312 -5.160156 4.96875 -5.453125 C 5.125 -5.753906 5.203125 -6.046875 5.203125 -6.328125 C 5.203125 -6.796875 5.035156 -7.175781 4.703125 -7.46875 C 4.378906 -7.757812 3.957031 -7.90625 3.4375 -7.90625 C 3.0625 -7.90625 2.664062 -7.84375 2.25 -7.71875 C 1.84375 -7.59375 1.40625 -7.394531 0.9375 -7.125 L 0.9375 -8.328125 C 1.414062 -8.515625 1.859375 -8.65625 2.265625 -8.75 C 2.679688 -8.851562 3.0625 -8.90625 3.40625 -8.90625 C 4.3125 -8.90625 5.035156 -8.675781 5.578125 -8.21875 C 6.117188 -7.769531 6.390625 -7.164062 6.390625 -6.40625 C 6.390625 -6.050781 6.320312 -5.710938 6.1875 -5.390625 C 6.050781 -5.066406 5.804688 -4.6875 5.453125 -4.25 C 5.347656 -4.132812 5.035156 -3.804688 4.515625 -3.265625 C 3.992188 -2.722656 3.253906 -1.96875 2.296875 -1 Z M 2.296875 -1 "/>
</symbol>
</g>
<clipPath id="clip1">
  <path d="M 50.25 30 L 278.25 30 L 278.25 401 L 50.25 401 Z M 50.25 30 "/>
</clipPath>
<clipPath id="clip2">
  <path d="M 50.25 49 L 278.25 49 L 278.25 401 L 50.25 401 Z M 50.25 49 "/>
</clipPath>
<clipPath id="clip3">
  <path d="M 50.25 54 L 278.25 54 L 278.25 401 L 50.25 401 Z M 50.25 54 "/>
</clipPath>
<clipPath id="clip4">
  <path d="M 296.25 216 L 524.25 216 L 524.25 401 L 296.25 401 Z M 296.25 216 "/>
</clipPath>
<clipPath id="clip5">
  <path d="M 296.25 212 L 524.25 212 L 524.25 401 L 296.25 401 Z M 296.25 212 "/>
</clipPath>
<clipPath id="clip6">
  <path d="M 296.25 217 L 524.25 217 L 524.25 401 L 296.25 401 Z M 296.25 217 "/>
</clipPath>
<clipPath id="clip7">
  <path d="M 542.25 175 L 588 175 L 588 256.5 L 542.25 256.5 Z M 542.25 175 "/>
</clipPath>
<clipPath id="clip8">
  <path d="M 542.25 174.75 L 588 174.75 L 588 256.5 L 542.25 256.5 Z M 542.25 174.75 "/>
</clipPath>
</defs>
<g id="surface1">
<rect x="0" y="0" width="600" height="450" style="fill:rgb(100%,100%,100%);fill-opacity:1;stroke:none;"/>
<path style=" stroke:none;fill-rule:nonzero;fill:rgb(100%,100%,100%);fill-opacity:1;" d="M 50.25 402 L 278.25 402 L 278.25 29.25 L 50.25 29.25 Z M 50.25 402 "/>
<path style=" stroke:none;fill-rule:nonzero;fill:rgb(100%,100%,100%);fill-opacity:1;" d="M 296.25 402 L 524.25 402 L 524.25 29.25 L 296.25 29.25 Z M 296.25 402 "/>
<path style="fill:none;stroke-width:1;stroke-linecap:butt;stroke-linejoin:miter;stroke:rgb(0%,0%,0%);stroke-opacity:0.12;stroke-miterlimit:10;" d="M 94.546875 536 L 94.546875 39 " transform="matrix(0.75,0,0,0.75,0,0)"/>
<path style="fill:none;stroke-width:1;stroke-linecap:butt;stroke-linejoin:miter;stroke:rgb(0%,0%,0%);stroke-opacity:0.12;stroke-miterlimit:10;" d="M 189.984375 536 L 189.984375 39 " transform="matrix(0.75,0,0,0.75,0,0)"/>
<path style="fill:none;stroke-width:1;stroke-linecap:butt;stroke-linejoin:miter;stroke:rgb(0%,0%,0%);stroke-opacity:0.12;stroke-miterlimit:10;" d="M 285.427083 536 L 285.427083 39 " transform="matrix(0.75,0,0,0.75,0,0)"/>
<path style="fill:none;stroke-width:1;stroke-linecap:butt;stroke-linejoin:miter;stroke:rgb(0%,0%,0%);stroke-opacity:0.12;stroke-miterlimit:10;" d="M 67 513.411458 L 371 513.411458 " transform="matrix(0.75,0,0,0.75,0,0)"/>
<path style="fill:none;stroke-width:1;stroke-linecap:butt;stroke-linejoin:miter;stroke:rgb(0%,0%,0%);stroke-opacity:0.12;stroke-miterlimit:10;" d="M 67 330.59375 L 371 330.59375 " transform="matrix(0.75,0,0,0.75,0,0)"/>
<path style="fill:none;stroke-width:1;stroke-linecap:butt;stroke-linejoin:miter;stroke:rgb(0%,0%,0%);stroke-opacity:0.12;stroke-miterlimit:10;" d="M 67 147.776042 L 371 147.776042 " transform="matrix(0.75,0,0,0.75,0,0)"/>
<path style="fill:none;stroke-width:1;stroke-linecap:butt;stroke-linejoin:miter;stroke:rgb(0%,0%,0%);stroke-opacity:0.12;stroke-miterlimit:10;" d="M 422.546875 536 L 422.546875 39 " transform="matrix(0.75,0,0,0.75,0,0)"/>
<path style="fill:none;stroke-width:1;stroke-linecap:butt;stroke-linejoin:miter;stroke:rgb(0%,0%,0%);stroke-opacity:0.12;stroke-miterlimit:10;" d="M 517.984375 536 L 517.984375 39 " transform="matrix(0.75,0,0,0.75,0,0)"/>
<path style="fill:none;stroke-width:1;stroke-linecap:butt;stroke-linejoin:miter;stroke:rgb(0%,0%,0%);stroke-opacity:0.12;stroke-miterlimit:10;" d="M 613.427083 536 L 613.427083 39 " transform="matrix(0.75,0,0,0.75,0,0)"/>
<path style="fill:none;stroke-width:1;stroke-linecap:butt;stroke-linejoin:miter;stroke:rgb(0%,0%,0%);stroke-opacity:0.12;stroke-miterlimit:10;" d="M 395 513.411458 L 699 513.411458 " transform="matrix(0.75,0,0,0.75,0,0)"/>
<path style="fill:none;stroke-width:1;stroke-linecap:butt;stroke-linejoin:miter;stroke:rgb(0%,0%,0%);stroke-opacity:0.12;stroke-miterlimit:10;" d="M 395 330.59375 L 699 330.59375 " transform="matrix(0.75,0,0,0.75,0,0)"/>
<path style="fill:none;stroke-width:1;stroke-linecap:butt;stroke-linejoin:miter;stroke:rgb(0%,0%,0%);stroke-opacity:0.12;stroke-miterlimit:10;" d="M 395 147.776042 L 699 147.776042 " transform="matrix(0.75,0,0,0.75,0,0)"/>
<g style="fill:rgb(0%,0%,0%);fill-opacity:1;">
  <use xlink:href="#HC+uqNkD0-1" x="61.789062" y="419.890625"/>
</g>
<g style="fill:rgb(0%,0%,0%);fill-opacity:1;">
  <use xlink:href="#HC+uqNkD1-1" x="69.425781" y="419.890625"/>
</g>
<g style="fill:rgb(0%,0%,0%);fill-opacity:1;">
  <use xlink:href="#HC+uqNkD1-2" x="73.238281" y="419.890625"/>
</g>
<g style="fill:rgb(0%,0%,0%);fill-opacity:1;">
  <use xlink:href="#HC+uqNkD2-1" x="133.082031" y="419.890625"/>
</g>
<g style="fill:rgb(0%,0%,0%);fill-opacity:1;">
  <use xlink:href="#HC+uqNkD1-1" x="140.71875" y="419.890625"/>
</g>
<g style="fill:rgb(0%,0%,0%);fill-opacity:1;">
  <use xlink:href="#HC+uqNkD1-3" x="144.53125" y="419.890625"/>
</g>
<g style="fill:rgb(0%,0%,0%);fill-opacity:1;">
  <use xlink:href="#HC+uqNkD3-1" x="204.90625" y="419.890625"/>
</g>
<g style="fill:rgb(0%,0%,0%);fill-opacity:1;">
  <use xlink:href="#HC+uqNkD4-1" x="212.542969" y="419.890625"/>
</g>
<g style="fill:rgb(0%,0%,0%);fill-opacity:1;">
  <use xlink:href="#HC+uqNkD4-2" x="216.355469" y="419.890625"/>
</g>
<g style="fill:rgb(0%,0%,0%);fill-opacity:1;">
  <use xlink:href="#HC+uqNkD0-1" x="35.953125" y="389.210938"/>
</g>
<g style="fill:rgb(0%,0%,0%);fill-opacity:1;">
  <use xlink:href="#HC+uqNkD5-1" x="36.339844" y="252.097656"/>
</g>
<g style="fill:rgb(0%,0%,0%);fill-opacity:1;">
  <use xlink:href="#HC+uqNkD6-1" x="28.316406" y="114.988281"/>
</g>
<g style="fill:rgb(0%,0%,0%);fill-opacity:1;">
  <use xlink:href="#HC+uqNkD7-1" x="35.953125" y="114.988281"/>
</g>
<g style="fill:rgb(0%,0%,0%);fill-opacity:1;">
  <use xlink:href="#HC+uqNkD8-1" x="22.128906" y="237.597656"/>
</g>
<g style="fill:rgb(0%,0%,0%);fill-opacity:1;">
  <use xlink:href="#HC+uqNkD9-1" x="22.128906" y="229.980469"/>
</g>
<g style="fill:rgb(0%,0%,0%);fill-opacity:1;">
  <use xlink:href="#HC+uqNkD10-1" x="22.128906" y="222.597656"/>
</g>
<g style="fill:rgb(0%,0%,0%);fill-opacity:1;">
  <use xlink:href="#HC+uqNkD8-2" x="22.128906" y="214.992188"/>
</g>
<g style="fill:rgb(0%,0%,0%);fill-opacity:1;">
  <use xlink:href="#HC+uqNkD10-2" x="22.128906" y="208.742187"/>
</g>
<g style="fill:rgb(0%,0%,0%);fill-opacity:1;">
  <use xlink:href="#HC+uqNkD10-3" x="22.128906" y="205.40625"/>
</g>
<g style="fill:rgb(0%,0%,0%);fill-opacity:1;">
  <use xlink:href="#HC+uqNkD11-1" x="22.128906" y="200.703125"/>
</g>
<g style="fill:rgb(0%,0%,0%);fill-opacity:1;">
  <use xlink:href="#HC+uqNkD4-3" x="307.789062" y="419.890625"/>
</g>
<g style="fill:rgb(0%,0%,0%);fill-opacity:1;">
  <use xlink:href="#HC+uqNkD2-2" x="315.425781" y="419.890625"/>
</g>
<g style="fill:rgb(0%,0%,0%);fill-opacity:1;">
  <use xlink:href="#HC+uqNkD4-4" x="319.238281" y="419.890625"/>
</g>
<g style="fill:rgb(0%,0%,0%);fill-opacity:1;">
  <use xlink:href="#HC+uqNkD4-5" x="379.082031" y="419.890625"/>
</g>
<g style="fill:rgb(0%,0%,0%);fill-opacity:1;">
  <use xlink:href="#HC+uqNkD4-1" x="386.71875" y="419.890625"/>
</g>
<g style="fill:rgb(0%,0%,0%);fill-opacity:1;">
  <use xlink:href="#HC+uqNkD12-1" x="390.53125" y="419.890625"/>
</g>
<g style="fill:rgb(0%,0%,0%);fill-opacity:1;">
  <use xlink:href="#HC+uqNkD4-5" x="450.90625" y="419.890625"/>
</g>
<g style="fill:rgb(0%,0%,0%);fill-opacity:1;">
  <use xlink:href="#HC+uqNkD13-1" x="458.542969" y="419.890625"/>
</g>
<g style="fill:rgb(0%,0%,0%);fill-opacity:1;">
  <use xlink:href="#HC+uqNkD4-2" x="462.355469" y="419.890625"/>
</g>
<g style="fill:rgb(0%,0%,0%);fill-opacity:1;">
  <use xlink:href="#HC+uqNkD14-1" x="158.824219" y="23.136719"/>
</g>
<g style="fill:rgb(0%,0%,0%);fill-opacity:1;">
  <use xlink:href="#HC+uqNkD14-2" x="166.484375" y="23.136719"/>
</g>
<g style="fill:rgb(0%,0%,0%);fill-opacity:1;">
  <use xlink:href="#HC+uqNkD15-1" x="404.128906" y="23.136719"/>
</g>
<g style="fill:rgb(0%,0%,0%);fill-opacity:1;">
  <use xlink:href="#HC+uqNkD15-2" x="411.785156" y="23.136719"/>
</g>
<g style="fill:rgb(0%,0%,0%);fill-opacity:1;">
  <use xlink:href="#HC+uqNkD4-6" x="271.429688" y="435.171875"/>
</g>
<g style="fill:rgb(0%,0%,0%);fill-opacity:1;">
  <use xlink:href="#HC+uqNkD4-7" x="278.53125" y="435.171875"/>
</g>
<g style="fill:rgb(0%,0%,0%);fill-opacity:1;">
  <use xlink:href="#HC+uqNkD4-8" x="285.882812" y="435.171875"/>
</g>
<g style="fill:rgb(0%,0%,0%);fill-opacity:1;">
  <use xlink:href="#HC+uqNkD2-3" x="289.21875" y="435.171875"/>
</g>
<g style="fill:rgb(0%,0%,0%);fill-opacity:1;">
  <use xlink:href="#HC+uqNkD4-9" x="296.824219" y="435.171875"/>
</g>
<g clip-path="url(#clip1)" clip-rule="nonzero">
<path style="fill:none;stroke-width:1.5;stroke-linecap:butt;stroke-linejoin:miter;stroke:rgb(0%,44.705883%,69.803923%);stroke-opacity:1;stroke-miterlimit:10;" d="M 80.817708 513.411458 L 154.421875 513.411458 L 155.8125 513.40625 L 157.197917 513.40625 L 158.588542 513.385417 L 159.979167 513.333333 L 161.364583 513.239583 L 162.755208 513.135417 L 164.145833 513.098958 L 165.53125 513.140625 L 166.921875 513.145833 L 168.3125 512.942708 L 169.697917 512.463542 L 171.088542 511.796875 L 172.473958 511.098958 L 173.864583 510.421875 L 175.255208 509.630208 L 176.640625 508.661458 L 178.03125 507.744792 L 179.421875 507.104167 L 180.807292 506.4375 L 182.197917 505.09375 L 183.588542 502.927083 L 184.973958 500.677083 L 186.364583 499.03125 L 187.755208 497.489583 L 189.140625 494.697917 L 190.53125 489.776042 L 191.916667 482.729167 L 193.307292 473.953125 L 194.697917 463.713542 L 196.083333 452.072917 L 197.473958 439.333333 L 198.864583 426.067708 L 200.25 412.442708 L 201.640625 398.239583 L 203.03125 383.59375 L 204.416667 368.916667 L 205.807292 354.359375 L 207.197917 338.838542 L 208.583333 319.645833 L 209.973958 294.979167 L 211.359375 267.317708 L 212.75 241.140625 L 214.140625 217.609375 L 215.526042 195.239583 L 216.916667 174.567708 L 218.307292 157.421875 L 219.692708 142.651042 L 221.083333 127.489583 L 222.473958 111.895833 L 223.859375 97.421875 L 225.25 84.015625 L 226.640625 71.598958 L 228.026042 62.765625 L 229.416667 61.588542 L 230.802083 70.328125 L 232.192708 87.510417 L 233.583333 108.473958 L 234.96875 128.291667 L 236.359375 144.598958 L 237.75 158.338542 L 239.135417 172.838542 L 240.526042 191.255208 L 241.916667 213.598958 L 243.302083 237.15625 L 244.692708 260.177083 L 246.083333 283.09375 L 247.46875 306.125 L 248.859375 328.036458 L 250.244792 347.390625 L 251.635417 363.671875 L 253.026042 377.880208 L 254.411458 392.458333 L 255.802083 408.796875 L 257.192708 425.46875 L 258.578125 440.4375 L 259.96875 452.973958 L 261.359375 463.005208 L 262.744792 470.953125 L 264.135417 477.854167 L 265.526042 484.354167 L 266.911458 490.260417 L 268.302083 495.223958 L 269.6875 499.036458 L 271.078125 501.71875 L 272.46875 503.770833 L 273.854167 505.75 L 275.244792 507.567708 L 276.635417 508.875 L 278.020833 509.697917 L 279.411458 510.302083 L 280.802083 510.807292 L 282.1875 511.25 L 283.578125 511.677083 L 284.96875 512.098958 L 286.354167 512.458333 L 287.744792 512.6875 L 289.130208 512.786458 L 290.520833 512.78125 L 291.911458 512.75 L 293.296875 512.776042 L 294.6875 512.921875 L 296.078125 513.119792 L 297.463542 513.286458 L 298.854167 513.369792 L 300.244792 513.401042 L 301.630208 513.40625 L 303.020833 513.411458 L 357.182292 513.411458 " transform="matrix(0.75,0,0,0.75,0,0)"/>
</g>
<path style=" stroke:none;fill-rule:nonzero;fill:rgb(0%,44.705883%,69.803923%);fill-opacity:0.15;" d="M 60.613281 385.058594 L 115.816406 385.058594 L 116.859375 385.054688 L 117.898438 385.054688 L 118.941406 385.039062 L 119.984375 385 L 121.023438 384.929688 L 122.066406 384.851562 L 123.109375 384.824219 L 124.148438 384.855469 L 125.191406 384.859375 L 126.234375 384.707031 L 127.273438 384.347656 L 128.316406 383.847656 L 129.355469 383.324219 L 130.398438 382.816406 L 131.441406 382.222656 L 132.480469 381.496094 L 133.523438 380.808594 L 134.566406 380.328125 L 135.605469 379.828125 L 136.648438 378.820312 L 137.691406 377.195312 L 138.730469 375.507812 L 139.773438 374.273438 L 140.816406 373.117188 L 141.855469 371.023438 L 142.898438 367.332031 L 143.9375 362.046875 L 144.980469 355.464844 L 146.023438 347.785156 L 147.0625 339.054688 L 148.105469 329.5 L 149.148438 319.550781 L 150.1875 309.332031 L 151.230469 298.679688 L 152.273438 287.695312 L 153.3125 276.6875 L 154.355469 265.769531 L 155.398438 254.128906 L 156.4375 239.734375 L 157.480469 221.234375 L 158.519531 200.488281 L 159.5625 180.855469 L 160.605469 163.207031 L 161.644531 146.429688 L 162.6875 130.925781 L 163.730469 118.066406 L 164.769531 106.988281 L 165.8125 95.617188 L 166.855469 83.921875 L 167.894531 73.066406 L 168.9375 63.011719 L 169.980469 53.699219 L 171.019531 47.074219 L 172.0625 46.191406 L 173.101562 52.746094 L 174.144531 65.632812 L 175.1875 81.355469 L 176.226562 96.21875 L 177.269531 108.449219 L 178.3125 118.753906 L 179.351562 129.628906 L 180.394531 143.441406 L 181.4375 160.199219 L 182.476562 177.867188 L 183.519531 195.132812 L 184.5625 212.320312 L 185.601562 229.59375 L 186.644531 246.027344 L 187.683594 260.542969 L 188.726562 272.753906 L 189.769531 283.410156 L 190.808594 294.34375 L 191.851562 306.597656 L 192.894531 319.101562 L 193.933594 330.328125 L 194.976562 339.730469 L 196.019531 347.253906 L 197.058594 353.214844 L 198.101562 358.390625 L 199.144531 363.265625 L 200.183594 367.695312 L 201.226562 371.417969 L 202.265625 374.277344 L 203.308594 376.289062 L 204.351562 377.828125 L 205.390625 379.3125 L 206.433594 380.675781 L 207.476562 381.65625 L 208.515625 382.273438 L 209.558594 382.726562 L 210.601562 383.105469 L 211.640625 383.4375 L 212.683594 383.757812 L 213.726562 384.074219 L 214.765625 384.34375 L 215.808594 384.515625 L 216.847656 384.589844 L 217.890625 384.585938 L 218.933594 384.5625 L 219.972656 384.582031 L 221.015625 384.691406 L 222.058594 384.839844 L 223.097656 384.964844 L 224.140625 385.027344 L 225.183594 385.050781 L 226.222656 385.054688 L 227.265625 385.058594 L 267.886719 385.058594 Z M 60.613281 385.058594 "/>
<g clip-path="url(#clip2)" clip-rule="nonzero">
<path style="fill:none;stroke-width:1.5;stroke-linecap:butt;stroke-linejoin:miter;stroke:rgb(90.196079%,62.352943%,0%);stroke-opacity:1;stroke-miterlimit:10;" d="M 80.817708 513.411458 L 161.364583 513.411458 L 162.755208 513.40625 L 164.145833 513.40625 L 165.53125 513.395833 L 166.921875 513.354167 L 168.3125 513.265625 L 169.697917 513.161458 L 171.088542 513.09375 L 172.473958 513.088542 L 173.864583 513.041667 L 175.255208 512.770833 L 176.640625 512.151042 L 178.03125 511.15625 L 179.421875 509.84375 L 180.807292 508.348958 L 182.197917 506.869792 L 183.588542 505.432292 L 184.973958 503.59375 L 186.364583 500.489583 L 187.755208 495.244792 L 189.140625 487.546875 L 190.53125 478.020833 L 191.916667 468.0625 L 193.307292 459.072917 L 194.697917 451.34375 L 196.083333 443.239583 L 197.473958 432.661458 L 198.864583 419.859375 L 200.25 406.958333 L 201.640625 394.661458 L 203.03125 381.75 L 204.416667 367.453125 L 205.807292 351.583333 L 207.197917 333.052083 L 208.583333 310.526042 L 209.973958 284.333333 L 211.359375 256.734375 L 212.75 230.901042 L 214.140625 209.1875 L 215.526042 191.536458 L 216.916667 175.989583 L 218.307292 160.697917 L 219.692708 145.291667 L 221.083333 130.734375 L 222.473958 117.552083 L 223.859375 105.09375 L 225.25 94.234375 L 226.640625 87.869792 L 228.026042 86.692708 L 229.416667 88.484375 L 230.802083 92.625 L 232.192708 100.901042 L 233.583333 113.901042 L 234.96875 129.989583 L 236.359375 147.1875 L 237.75 164.59375 L 239.135417 182.666667 L 240.526042 201.729167 L 241.916667 220.5625 L 243.302083 238.411458 L 244.692708 256.604167 L 246.083333 276.119792 L 247.46875 296.010417 L 248.859375 315.614583 L 250.244792 335.78125 L 251.635417 357.166667 L 253.026042 378.84375 L 254.411458 398.635417 L 255.802083 414.807292 L 257.192708 427.5625 L 258.578125 438.552083 L 259.96875 449.130208 L 261.359375 459.520833 L 262.744792 469.114583 L 264.135417 477.265625 L 265.526042 483.848958 L 266.911458 489.208333 L 268.302083 493.703125 L 269.6875 497.526042 L 271.078125 500.671875 L 272.46875 503.130208 L 273.854167 505.130208 L 275.244792 506.833333 L 276.635417 508.203125 L 278.020833 509.25 L 279.411458 510.130208 L 280.802083 511.020833 L 282.1875 511.859375 L 283.578125 512.432292 L 284.96875 512.640625 L 286.354167 512.552083 L 287.744792 512.354167 L 289.130208 512.25 L 290.520833 512.380208 L 291.911458 512.708333 L 293.296875 513.052083 L 294.6875 513.276042 L 296.078125 513.375 L 297.463542 513.401042 L 300.244792 513.411458 L 357.182292 513.411458 " transform="matrix(0.75,0,0,0.75,0,0)"/>
</g>
<path style=" stroke:none;fill-rule:nonzero;fill:rgb(90.196079%,62.352943%,0%);fill-opacity:0.15;" d="M 60.613281 385.058594 L 121.023438 385.058594 L 122.066406 385.054688 L 123.109375 385.054688 L 124.148438 385.046875 L 125.191406 385.015625 L 126.234375 384.949219 L 127.273438 384.871094 L 128.316406 384.820312 L 129.355469 384.816406 L 130.398438 384.78125 L 131.441406 384.578125 L 132.480469 384.113281 L 133.523438 383.367188 L 134.566406 382.382812 L 135.605469 381.261719 L 136.648438 380.152344 L 137.691406 379.074219 L 138.730469 377.695312 L 139.773438 375.367188 L 140.816406 371.433594 L 141.855469 365.660156 L 142.898438 358.515625 L 143.9375 351.046875 L 144.980469 344.304688 L 146.023438 338.507812 L 147.0625 332.429688 L 148.105469 324.496094 L 149.148438 314.894531 L 150.1875 305.21875 L 151.230469 295.996094 L 152.273438 286.3125 L 153.3125 275.589844 L 154.355469 263.6875 L 155.398438 249.789062 L 156.4375 232.894531 L 157.480469 213.25 L 158.519531 192.550781 L 159.5625 173.175781 L 160.605469 156.890625 L 161.644531 143.652344 L 162.6875 131.992188 L 163.730469 120.523438 L 164.769531 108.96875 L 165.8125 98.050781 L 166.855469 88.164062 L 167.894531 78.820312 L 168.9375 70.675781 L 169.980469 65.902344 L 171.019531 65.019531 L 172.0625 66.363281 L 173.101562 69.46875 L 174.144531 75.675781 L 175.1875 85.425781 L 176.226562 97.492188 L 177.269531 110.390625 L 178.3125 123.445312 L 179.351562 137 L 180.394531 151.296875 L 181.4375 165.421875 L 182.476562 178.808594 L 183.519531 192.453125 L 184.5625 207.089844 L 185.601562 222.007812 L 186.644531 236.710938 L 187.683594 251.835938 L 188.726562 267.875 L 189.769531 284.132812 L 190.808594 298.976562 L 191.851562 311.105469 L 192.894531 320.671875 L 193.933594 328.914062 L 194.976562 336.847656 L 196.019531 344.640625 L 197.058594 351.835938 L 198.101562 357.949219 L 199.144531 362.886719 L 200.183594 366.90625 L 201.226562 370.277344 L 202.265625 373.144531 L 203.308594 375.503906 L 204.351562 377.347656 L 205.390625 378.847656 L 206.433594 380.125 L 207.476562 381.152344 L 208.515625 381.9375 L 209.558594 382.597656 L 210.601562 383.265625 L 211.640625 383.894531 L 212.683594 384.324219 L 213.726562 384.480469 L 214.765625 384.414062 L 215.808594 384.265625 L 216.847656 384.1875 L 217.890625 384.285156 L 218.933594 384.53125 L 219.972656 384.789062 L 221.015625 384.957031 L 222.058594 385.03125 L 223.097656 385.050781 L 225.183594 385.058594 L 267.886719 385.058594 Z M 60.613281 385.058594 "/>
<g clip-path="url(#clip3)" clip-rule="nonzero">
<path style="fill:none;stroke-width:1.5;stroke-linecap:butt;stroke-linejoin:miter;stroke:rgb(0%,61.960787%,45.09804%);stroke-opacity:1;stroke-miterlimit:10;" d="M 80.817708 513.411458 L 161.364583 513.411458 L 164.145833 513.401042 L 165.53125 513.369792 L 166.921875 513.255208 L 168.3125 512.994792 L 169.697917 512.557292 L 171.088542 511.96875 L 172.473958 511.25 L 173.864583 510.40625 L 175.255208 509.484375 L 176.640625 508.479167 L 178.03125 507.197917 L 179.421875 505.625 L 180.807292 504.078125 L 182.197917 502.666667 L 183.588542 500.760417 L 184.973958 497.619792 L 186.364583 493.317708 L 187.755208 488.703125 L 189.140625 484.4375 L 190.53125 480.265625 L 191.916667 475.302083 L 193.307292 468.958333 L 194.697917 461.0625 L 196.083333 451.25 L 197.473958 439.208333 L 198.864583 425.557292 L 200.25 411.197917 L 201.640625 395.791667 L 203.03125 378.052083 L 204.416667 357.453125 L 205.807292 334.848958 L 207.197917 311.6875 L 208.583333 289.46875 L 209.973958 269.557292 L 211.359375 252.21875 L 212.75 236.046875 L 214.140625 218.973958 L 215.526042 199.755208 L 216.916667 178.671875 L 218.307292 158.151042 L 219.692708 142.359375 L 221.083333 133.604167 L 222.473958 128.927083 L 223.859375 122.8125 L 225.25 113.5625 L 226.640625 104.364583 L 228.026042 98.234375 L 229.416667 95.114583 L 230.802083 94.385417 L 232.192708 97.484375 L 233.583333 106.401042 L 234.96875 120.40625 L 236.359375 136.572917 L 237.75 153.583333 L 239.135417 172.635417 L 240.526042 194.411458 L 241.916667 217.911458 L 243.302083 242.416667 L 244.692708 267.567708 L 246.083333 291.505208 L 247.46875 311.8125 L 248.859375 328.177083 L 250.244792 342.463542 L 251.635417 356.71875 L 253.026042 372.177083 L 254.411458 389.3125 L 255.802083 407.536458 L 257.192708 425.114583 L 258.578125 440.34375 L 259.96875 452.541667 L 261.359375 461.838542 L 262.744792 468.880208 L 264.135417 474.817708 L 265.526042 480.84375 L 266.911458 487.265625 L 268.302083 493.192708 L 269.6875 497.677083 L 271.078125 500.84375 L 272.46875 503.520833 L 273.854167 506.015625 L 275.244792 508 L 276.635417 509.3125 L 278.020833 510.203125 L 279.411458 510.901042 L 280.802083 511.4375 L 282.1875 511.864583 L 283.578125 512.28125 L 284.96875 512.677083 L 286.354167 513.005208 L 287.744792 513.223958 L 289.130208 513.34375 L 290.520833 513.390625 L 291.911458 513.40625 L 293.296875 513.40625 L 294.6875 513.411458 L 357.182292 513.411458 " transform="matrix(0.75,0,0,0.75,0,0)"/>
</g>
<path style=" stroke:none;fill-rule:nonzero;fill:rgb(0%,61.960787%,45.09804%);fill-opacity:0.15;" d="M 60.613281 385.058594 L 121.023438 385.058594 L 123.109375 385.050781 L 124.148438 385.027344 L 125.191406 384.941406 L 126.234375 384.746094 L 127.273438 384.417969 L 128.316406 383.976562 L 129.355469 383.4375 L 130.398438 382.804688 L 131.441406 382.113281 L 132.480469 381.359375 L 133.523438 380.398438 L 134.566406 379.21875 L 135.605469 378.058594 L 136.648438 377 L 137.691406 375.570312 L 138.730469 373.214844 L 139.773438 369.988281 L 140.816406 366.527344 L 141.855469 363.328125 L 142.898438 360.199219 L 143.9375 356.476562 L 144.980469 351.71875 L 146.023438 345.796875 L 147.0625 338.4375 L 148.105469 329.40625 L 149.148438 319.167969 L 150.1875 308.398438 L 151.230469 296.84375 L 152.273438 283.539062 L 153.3125 268.089844 L 154.355469 251.136719 L 155.398438 233.765625 L 156.4375 217.101562 L 157.480469 202.167969 L 158.519531 189.164062 L 159.5625 177.035156 L 160.605469 164.230469 L 161.644531 149.816406 L 162.6875 134.003906 L 163.730469 118.613281 L 164.769531 106.769531 L 165.8125 100.203125 L 166.855469 96.695312 L 167.894531 92.109375 L 168.9375 85.171875 L 169.980469 78.273438 L 171.019531 73.675781 L 172.0625 71.335938 L 173.101562 70.789062 L 174.144531 73.113281 L 175.1875 79.800781 L 176.226562 90.304688 L 177.269531 102.429688 L 178.3125 115.1875 L 179.351562 129.476562 L 180.394531 145.808594 L 181.4375 163.433594 L 182.476562 181.8125 L 183.519531 200.675781 L 184.5625 218.628906 L 185.601562 233.859375 L 186.644531 246.132812 L 187.683594 256.847656 L 188.726562 267.539062 L 189.769531 279.132812 L 190.808594 291.984375 L 191.851562 305.652344 L 192.894531 318.835938 L 193.933594 330.257812 L 194.976562 339.40625 L 196.019531 346.378906 L 197.058594 351.660156 L 198.101562 356.113281 L 199.144531 360.632812 L 200.183594 365.449219 L 201.226562 369.894531 L 202.265625 373.257812 L 203.308594 375.632812 L 204.351562 377.640625 L 205.390625 379.511719 L 206.433594 381 L 207.476562 381.984375 L 208.515625 382.652344 L 209.558594 383.175781 L 210.601562 383.578125 L 211.640625 383.898438 L 212.683594 384.210938 L 213.726562 384.507812 L 214.765625 384.753906 L 215.808594 384.917969 L 216.847656 385.007812 L 217.890625 385.042969 L 218.933594 385.054688 L 219.972656 385.054688 L 221.015625 385.058594 L 267.886719 385.058594 Z M 60.613281 385.058594 "/>
<g clip-path="url(#clip4)" clip-rule="nonzero">
<path style="fill:none;stroke-width:1.5;stroke-linecap:butt;stroke-linejoin:miter;stroke:rgb(0%,44.705883%,69.803923%);stroke-opacity:1;stroke-miterlimit:10;" d="M 408.817708 513.119792 L 410.208333 513.052083 L 411.59375 512.979167 L 412.984375 512.901042 L 414.375 512.833333 L 415.760417 512.770833 L 417.151042 512.723958 L 418.541667 512.692708 L 419.927083 512.666667 L 421.317708 512.640625 L 422.708333 512.609375 L 424.09375 512.557292 L 425.484375 512.494792 L 426.869792 512.416667 L 428.260417 512.328125 L 429.651042 512.229167 L 431.036458 512.114583 L 432.427083 511.973958 L 433.817708 511.791667 L 435.203125 511.557292 L 436.59375 511.255208 L 437.984375 510.895833 L 439.369792 510.473958 L 440.760417 510.020833 L 442.151042 509.5625 L 443.536458 509.125 L 444.927083 508.739583 L 446.3125 508.411458 L 447.703125 508.125 L 449.09375 507.833333 L 450.479167 507.479167 L 451.869792 506.984375 L 453.260417 506.302083 L 454.645833 505.40625 L 456.036458 504.307292 L 457.427083 503.041667 L 458.8125 501.666667 L 460.203125 500.234375 L 461.588542 498.770833 L 462.979167 497.291667 L 464.369792 495.760417 L 465.755208 494.125 L 467.145833 492.338542 L 468.536458 490.369792 L 469.921875 488.208333 L 471.3125 485.885417 L 472.703125 483.453125 L 474.088542 480.958333 L 475.479167 478.411458 L 476.869792 475.817708 L 478.255208 473.145833 L 479.645833 470.34375 L 481.03125 467.385417 L 482.421875 464.25 L 483.8125 460.921875 L 485.197917 457.421875 L 486.588542 453.755208 L 487.979167 449.958333 L 489.364583 446.067708 L 492.145833 438.223958 L 493.53125 434.338542 L 494.921875 430.473958 L 496.3125 426.572917 L 497.697917 422.541667 L 499.088542 418.270833 L 500.473958 413.671875 L 501.864583 408.71875 L 503.255208 403.46875 L 504.640625 398.052083 L 506.03125 392.677083 L 507.421875 387.541667 L 508.807292 382.807292 L 510.197917 378.567708 L 511.588542 374.817708 L 512.973958 371.5 L 514.364583 368.505208 L 515.755208 365.703125 L 517.140625 362.953125 L 518.53125 360.104167 L 519.916667 357.015625 L 521.307292 353.567708 L 522.697917 349.734375 L 524.083333 345.578125 L 525.473958 341.25 L 526.864583 336.958333 L 528.25 332.921875 L 529.640625 329.307292 L 531.03125 326.171875 L 532.416667 323.494792 L 533.807292 321.161458 L 535.197917 319.036458 L 536.583333 317.020833 L 537.973958 315.088542 L 539.359375 313.3125 L 540.75 311.848958 L 542.140625 310.869792 L 543.526042 310.520833 L 544.916667 310.869792 L 546.307292 311.890625 L 547.692708 313.479167 L 549.083333 315.484375 L 550.473958 317.78125 L 551.859375 320.302083 L 553.25 323.057292 L 554.640625 326.09375 L 556.026042 329.453125 L 557.416667 333.109375 L 558.802083 336.9375 L 560.192708 340.71875 L 561.583333 344.229167 L 562.96875 347.333333 L 564.359375 350.052083 L 565.75 352.588542 L 567.135417 355.28125 L 568.526042 358.510417 L 569.916667 362.557292 L 571.302083 367.526042 L 572.692708 373.333333 L 574.083333 379.729167 L 575.46875 386.369792 L 576.859375 392.911458 L 578.244792 399.0625 L 579.635417 404.661458 L 581.026042 409.671875 L 582.411458 414.1875 L 583.802083 418.390625 L 585.192708 422.489583 L 586.578125 426.640625 L 587.96875 430.927083 L 589.359375 435.302083 L 590.744792 439.65625 L 592.135417 443.854167 L 593.526042 447.807292 L 594.911458 451.484375 L 596.302083 454.947917 L 597.6875 458.302083 L 599.078125 461.640625 L 600.46875 465.015625 L 601.854167 468.40625 L 603.244792 471.739583 L 604.635417 474.927083 L 606.020833 477.916667 L 607.411458 480.697917 L 608.802083 483.291667 L 610.1875 485.75 L 611.578125 488.104167 L 612.96875 490.385417 L 614.354167 492.567708 L 615.744792 494.625 L 617.130208 496.5 L 618.520833 498.166667 L 619.911458 499.598958 L 621.296875 500.8125 L 622.6875 501.828125 L 624.078125 502.6875 L 625.463542 503.432292 L 626.854167 504.098958 L 628.244792 504.723958 L 629.630208 505.333333 L 631.020833 505.953125 L 632.411458 506.609375 L 633.796875 507.317708 L 635.1875 508.0625 L 636.572917 508.828125 L 637.963542 509.572917 L 639.354167 510.260417 L 640.739583 510.848958 L 642.130208 511.317708 L 643.520833 511.666667 L 644.90625 511.916667 L 646.296875 512.088542 L 647.6875 512.213542 L 649.072917 512.317708 L 650.463542 512.411458 L 651.854167 512.5 L 653.239583 512.578125 L 654.630208 512.640625 L 656.015625 512.692708 L 657.40625 512.729167 L 658.796875 512.755208 L 660.182292 512.786458 L 661.572917 512.817708 L 662.963542 512.864583 L 664.348958 512.921875 L 665.739583 512.989583 L 667.130208 513.067708 L 668.515625 513.145833 L 669.90625 513.213542 L 671.291667 513.276042 L 672.682292 513.322917 L 674.072917 513.359375 L 675.458333 513.380208 L 676.848958 513.395833 L 678.239583 513.401042 L 679.625 513.40625 L 682.40625 513.40625 L 683.791667 513.411458 L 685.182292 513.411458 " transform="matrix(0.75,0,0,0.75,0,0)"/>
</g>
<path style=" stroke:none;fill-rule:nonzero;fill:rgb(0%,44.705883%,69.803923%);fill-opacity:0.15;" d="M 306.613281 384.839844 L 307.65625 384.789062 L 308.695312 384.734375 L 309.738281 384.675781 L 310.78125 384.625 L 311.820312 384.578125 L 312.863281 384.542969 L 313.90625 384.519531 L 314.945312 384.5 L 315.988281 384.480469 L 317.03125 384.457031 L 318.070312 384.417969 L 319.113281 384.371094 L 320.152344 384.3125 L 321.195312 384.246094 L 322.238281 384.171875 L 323.277344 384.085938 L 324.320312 383.980469 L 325.363281 383.84375 L 326.402344 383.667969 L 327.445312 383.441406 L 328.488281 383.171875 L 329.527344 382.855469 L 330.570312 382.515625 L 331.613281 382.171875 L 332.652344 381.84375 L 333.695312 381.554688 L 334.734375 381.308594 L 335.777344 381.09375 L 336.820312 380.875 L 337.859375 380.609375 L 338.902344 380.238281 L 339.945312 379.726562 L 340.984375 379.054688 L 342.027344 378.230469 L 343.070312 377.28125 L 344.109375 376.25 L 345.152344 375.175781 L 346.191406 374.078125 L 347.234375 372.96875 L 348.277344 371.820312 L 349.316406 370.59375 L 350.359375 369.253906 L 351.402344 367.777344 L 352.441406 366.15625 L 353.484375 364.414062 L 354.527344 362.589844 L 355.566406 360.71875 L 356.609375 358.808594 L 357.652344 356.863281 L 358.691406 354.859375 L 359.734375 352.757812 L 360.773438 350.539062 L 361.816406 348.1875 L 362.859375 345.691406 L 363.898438 343.066406 L 364.941406 340.316406 L 365.984375 337.46875 L 367.023438 334.550781 L 369.109375 328.667969 L 370.148438 325.753906 L 371.191406 322.855469 L 372.234375 319.929688 L 373.273438 316.90625 L 374.316406 313.703125 L 375.355469 310.253906 L 376.398438 306.539062 L 377.441406 302.601562 L 378.480469 298.539062 L 379.523438 294.507812 L 380.566406 290.65625 L 381.605469 287.105469 L 382.648438 283.925781 L 383.691406 281.113281 L 384.730469 278.625 L 385.773438 276.378906 L 386.816406 274.277344 L 387.855469 272.214844 L 388.898438 270.078125 L 389.9375 267.761719 L 390.980469 265.175781 L 392.023438 262.300781 L 393.0625 259.183594 L 394.105469 255.9375 L 395.148438 252.71875 L 396.1875 249.691406 L 397.230469 246.980469 L 398.273438 244.628906 L 399.3125 242.621094 L 400.355469 240.871094 L 401.398438 239.277344 L 402.4375 237.765625 L 403.480469 236.316406 L 404.519531 234.984375 L 405.5625 233.886719 L 406.605469 233.152344 L 407.644531 232.890625 L 408.6875 233.152344 L 409.730469 233.917969 L 410.769531 235.109375 L 411.8125 236.613281 L 412.855469 238.335938 L 413.894531 240.226562 L 414.9375 242.292969 L 415.980469 244.570312 L 417.019531 247.089844 L 418.0625 249.832031 L 419.101562 252.703125 L 420.144531 255.539062 L 421.1875 258.171875 L 422.226562 260.5 L 423.269531 262.539062 L 424.3125 264.441406 L 425.351562 266.460938 L 426.394531 268.882812 L 427.4375 271.917969 L 428.476562 275.644531 L 429.519531 280 L 430.5625 284.796875 L 431.601562 289.777344 L 432.644531 294.683594 L 433.683594 299.296875 L 434.726562 303.496094 L 435.769531 307.253906 L 436.808594 310.640625 L 437.851562 313.792969 L 438.894531 316.867188 L 439.933594 319.980469 L 440.976562 323.195312 L 442.019531 326.476562 L 443.058594 329.742188 L 444.101562 332.890625 L 445.144531 335.855469 L 446.183594 338.613281 L 447.226562 341.210938 L 448.265625 343.726562 L 449.308594 346.230469 L 450.351562 348.761719 L 451.390625 351.304688 L 452.433594 353.804688 L 453.476562 356.195312 L 454.515625 358.4375 L 455.558594 360.523438 L 456.601562 362.46875 L 457.640625 364.3125 L 458.683594 366.078125 L 459.726562 367.789062 L 460.765625 369.425781 L 461.808594 370.96875 L 462.847656 372.375 L 463.890625 373.625 L 464.933594 374.699219 L 465.972656 375.609375 L 467.015625 376.371094 L 468.058594 377.015625 L 469.097656 377.574219 L 470.140625 378.074219 L 471.183594 378.542969 L 472.222656 379 L 473.265625 379.464844 L 474.308594 379.957031 L 475.347656 380.488281 L 476.390625 381.046875 L 477.429688 381.621094 L 478.472656 382.179688 L 479.515625 382.695312 L 480.554688 383.136719 L 481.597656 383.488281 L 482.640625 383.75 L 483.679688 383.9375 L 484.722656 384.066406 L 485.765625 384.160156 L 486.804688 384.238281 L 487.847656 384.308594 L 488.890625 384.375 L 489.929688 384.433594 L 490.972656 384.480469 L 492.011719 384.519531 L 493.054688 384.546875 L 494.097656 384.566406 L 495.136719 384.589844 L 496.179688 384.613281 L 497.222656 384.648438 L 498.261719 384.691406 L 499.304688 384.742188 L 500.347656 384.800781 L 501.386719 384.859375 L 502.429688 384.910156 L 503.46875 384.957031 L 504.511719 384.992188 L 505.554688 385.019531 L 506.59375 385.035156 L 507.636719 385.046875 L 508.679688 385.050781 L 509.71875 385.054688 L 511.804688 385.054688 L 512.84375 385.058594 L 513.886719 385.058594 L 306.613281 385.058594 Z M 306.613281 384.839844 "/>
<g clip-path="url(#clip5)" clip-rule="nonzero">
<path style="fill:none;stroke-width:1.5;stroke-linecap:butt;stroke-linejoin:miter;stroke:rgb(90.196079%,62.352943%,0%);stroke-opacity:1;stroke-miterlimit:10;" d="M 408.817708 513.005208 L 410.208333 512.953125 L 411.59375 512.90625 L 412.984375 512.864583 L 414.375 512.828125 L 415.760417 512.786458 L 417.151042 512.729167 L 418.541667 512.666667 L 419.927083 512.588542 L 421.317708 512.510417 L 422.708333 512.4375 L 424.09375 512.380208 L 425.484375 512.322917 L 426.869792 512.276042 L 428.260417 512.21875 L 429.651042 512.151042 L 431.036458 512.0625 L 432.427083 511.947917 L 433.817708 511.8125 L 435.203125 511.651042 L 436.59375 511.458333 L 437.984375 511.223958 L 439.369792 510.9375 L 440.760417 510.588542 L 442.151042 510.192708 L 443.536458 509.760417 L 444.927083 509.302083 L 446.3125 508.833333 L 447.703125 508.364583 L 449.09375 507.864583 L 450.479167 507.3125 L 451.869792 506.666667 L 453.260417 505.885417 L 454.645833 504.921875 L 456.036458 503.760417 L 457.427083 502.375 L 458.8125 500.776042 L 460.203125 498.973958 L 461.588542 497.010417 L 462.979167 494.947917 L 464.369792 492.833333 L 465.755208 490.744792 L 467.145833 488.723958 L 468.536458 486.802083 L 469.921875 484.989583 L 471.3125 483.260417 L 472.703125 481.5625 L 474.088542 479.833333 L 475.479167 477.979167 L 476.869792 475.921875 L 478.255208 473.578125 L 479.645833 470.901042 L 481.03125 467.854167 L 482.421875 464.442708 L 483.8125 460.703125 L 485.197917 456.6875 L 486.588542 452.453125 L 487.979167 448.0625 L 489.364583 443.5625 L 490.755208 438.96875 L 492.145833 434.286458 L 493.53125 429.505208 L 494.921875 424.640625 L 496.3125 419.739583 L 497.697917 414.854167 L 499.088542 410.052083 L 500.473958 405.390625 L 501.864583 400.869792 L 503.255208 396.453125 L 504.640625 392.067708 L 506.03125 387.645833 L 507.421875 383.135417 L 508.807292 378.546875 L 510.197917 373.921875 L 511.588542 369.328125 L 512.973958 364.822917 L 514.364583 360.442708 L 515.755208 356.182292 L 517.140625 352.03125 L 518.53125 347.963542 L 519.916667 343.9375 L 521.307292 339.921875 L 522.697917 335.880208 L 524.083333 331.802083 L 525.473958 327.708333 L 526.864583 323.651042 L 528.25 319.734375 L 529.640625 316.067708 L 531.03125 312.765625 L 532.416667 309.921875 L 533.807292 307.619792 L 535.197917 305.90625 L 536.583333 304.854167 L 537.973958 304.5 L 539.359375 304.885417 L 540.75 306.005208 L 542.140625 307.786458 L 543.526042 310.088542 L 544.916667 312.723958 L 546.307292 315.489583 L 547.692708 318.244792 L 549.083333 320.953125 L 550.473958 323.6875 L 551.859375 326.598958 L 553.25 329.875 L 554.640625 333.625 L 556.026042 337.848958 L 557.416667 342.421875 L 558.802083 347.171875 L 560.192708 351.911458 L 561.583333 356.557292 L 562.96875 361.098958 L 564.359375 365.614583 L 565.75 370.1875 L 567.135417 374.859375 L 568.526042 379.59375 L 569.916667 384.291667 L 571.302083 388.822917 L 572.692708 393.098958 L 574.083333 397.072917 L 575.46875 400.78125 L 576.859375 404.296875 L 578.244792 407.744792 L 579.635417 411.229167 L 581.026042 414.854167 L 582.411458 418.697917 L 583.802083 422.802083 L 585.192708 427.166667 L 586.578125 431.75 L 587.96875 436.46875 L 589.359375 441.192708 L 590.744792 445.807292 L 592.135417 450.197917 L 593.526042 454.296875 L 594.911458 458.088542 L 596.302083 461.567708 L 597.6875 464.765625 L 599.078125 467.71875 L 600.46875 470.458333 L 601.854167 473.026042 L 603.244792 475.463542 L 604.635417 477.807292 L 606.020833 480.072917 L 607.411458 482.255208 L 608.802083 484.317708 L 610.1875 486.213542 L 611.578125 487.916667 L 612.96875 489.432292 L 614.354167 490.796875 L 615.744792 492.083333 L 617.130208 493.364583 L 618.520833 494.671875 L 619.911458 496.026042 L 621.296875 497.395833 L 622.6875 498.739583 L 624.078125 500.03125 L 625.463542 501.260417 L 626.854167 502.4375 L 628.244792 503.588542 L 629.630208 504.744792 L 631.020833 505.901042 L 632.411458 507.052083 L 633.796875 508.15625 L 635.1875 509.161458 L 636.572917 510.03125 L 637.963542 510.739583 L 639.354167 511.28125 L 640.739583 511.671875 L 642.130208 511.932292 L 643.520833 512.104167 L 644.90625 512.208333 L 646.296875 512.265625 L 647.6875 512.302083 L 649.072917 512.322917 L 650.463542 512.348958 L 651.854167 512.380208 L 653.239583 512.421875 L 654.630208 512.46875 L 656.015625 512.526042 L 657.40625 512.583333 L 658.796875 512.635417 L 660.182292 512.692708 L 661.572917 512.75 L 662.963542 512.802083 L 664.348958 512.859375 L 665.739583 512.90625 L 667.130208 512.947917 L 668.515625 512.979167 L 669.90625 513.005208 L 671.291667 513.03125 L 672.682292 513.057292 L 674.072917 513.078125 L 675.458333 513.098958 L 676.848958 513.114583 L 678.239583 513.125 L 679.625 513.130208 L 682.40625 513.151042 L 683.791667 513.166667 L 685.182292 513.1875 " transform="matrix(0.75,0,0,0.75,0,0)"/>
</g>
<path style=" stroke:none;fill-rule:nonzero;fill:rgb(90.196079%,62.352943%,0%);fill-opacity:0.15;" d="M 306.613281 384.753906 L 307.65625 384.714844 L 308.695312 384.679688 L 309.738281 384.648438 L 310.78125 384.621094 L 311.820312 384.589844 L 312.863281 384.546875 L 313.90625 384.5 L 314.945312 384.441406 L 315.988281 384.382812 L 317.03125 384.328125 L 318.070312 384.285156 L 319.113281 384.242188 L 320.152344 384.207031 L 321.195312 384.164062 L 322.238281 384.113281 L 323.277344 384.046875 L 324.320312 383.960938 L 325.363281 383.859375 L 326.402344 383.738281 L 327.445312 383.59375 L 328.488281 383.417969 L 329.527344 383.203125 L 330.570312 382.941406 L 331.613281 382.644531 L 332.652344 382.320312 L 333.695312 381.976562 L 334.734375 381.625 L 335.777344 381.273438 L 336.820312 380.898438 L 337.859375 380.484375 L 338.902344 380 L 339.945312 379.414062 L 340.984375 378.691406 L 342.027344 377.820312 L 343.070312 376.78125 L 344.109375 375.582031 L 345.152344 374.230469 L 346.191406 372.757812 L 347.234375 371.210938 L 348.277344 369.625 L 349.316406 368.058594 L 350.359375 366.542969 L 351.402344 365.101562 L 352.441406 363.742188 L 353.484375 362.445312 L 354.527344 361.171875 L 355.566406 359.875 L 356.609375 358.484375 L 357.652344 356.941406 L 358.691406 355.183594 L 359.734375 353.175781 L 360.773438 350.890625 L 361.816406 348.332031 L 362.859375 345.527344 L 363.898438 342.515625 L 364.941406 339.339844 L 365.984375 336.046875 L 367.023438 332.671875 L 368.066406 329.226562 L 369.109375 325.714844 L 370.148438 322.128906 L 371.191406 318.480469 L 372.234375 314.804688 L 373.273438 311.140625 L 374.316406 307.539062 L 375.355469 304.042969 L 376.398438 300.652344 L 377.441406 297.339844 L 378.480469 294.050781 L 379.523438 290.734375 L 380.566406 287.351562 L 381.605469 283.910156 L 382.648438 280.441406 L 383.691406 276.996094 L 384.730469 273.617188 L 385.773438 270.332031 L 386.816406 267.136719 L 387.855469 264.023438 L 388.898438 260.972656 L 389.9375 257.953125 L 390.980469 254.941406 L 392.023438 251.910156 L 393.0625 248.851562 L 394.105469 245.78125 L 395.148438 242.738281 L 396.1875 239.800781 L 397.230469 237.050781 L 398.273438 234.574219 L 399.3125 232.441406 L 400.355469 230.714844 L 401.398438 229.429688 L 402.4375 228.640625 L 403.480469 228.375 L 404.519531 228.664062 L 405.5625 229.503906 L 406.605469 230.839844 L 407.644531 232.566406 L 408.6875 234.542969 L 409.730469 236.617188 L 410.769531 238.683594 L 411.8125 240.714844 L 412.855469 242.765625 L 413.894531 244.949219 L 414.9375 247.40625 L 415.980469 250.21875 L 417.019531 253.386719 L 418.0625 256.816406 L 419.101562 260.378906 L 420.144531 263.933594 L 421.1875 267.417969 L 422.226562 270.824219 L 423.269531 274.210938 L 424.3125 277.640625 L 425.351562 281.144531 L 426.394531 284.695312 L 427.4375 288.21875 L 428.476562 291.617188 L 429.519531 294.824219 L 430.5625 297.804688 L 431.601562 300.585938 L 432.644531 303.222656 L 433.683594 305.808594 L 434.726562 308.421875 L 435.769531 311.140625 L 436.808594 314.023438 L 437.851562 317.101562 L 438.894531 320.375 L 439.933594 323.8125 L 440.976562 327.351562 L 442.019531 330.894531 L 443.058594 334.355469 L 444.101562 337.648438 L 445.144531 340.722656 L 446.183594 343.566406 L 447.226562 346.175781 L 448.265625 348.574219 L 449.308594 350.789062 L 450.351562 352.84375 L 451.390625 354.769531 L 452.433594 356.597656 L 453.476562 358.355469 L 454.515625 360.054688 L 455.558594 361.691406 L 456.601562 363.238281 L 457.640625 364.660156 L 458.683594 365.9375 L 459.726562 367.074219 L 460.765625 368.097656 L 461.808594 369.0625 L 462.847656 370.023438 L 463.890625 371.003906 L 464.933594 372.019531 L 465.972656 373.046875 L 467.015625 374.054688 L 468.058594 375.023438 L 469.097656 375.945312 L 470.140625 376.828125 L 471.183594 377.691406 L 472.222656 378.558594 L 473.265625 379.425781 L 474.308594 380.289062 L 475.347656 381.117188 L 476.390625 381.871094 L 477.429688 382.523438 L 478.472656 383.054688 L 479.515625 383.460938 L 480.554688 383.753906 L 481.597656 383.949219 L 482.640625 384.078125 L 483.679688 384.15625 L 484.722656 384.199219 L 485.765625 384.226562 L 486.804688 384.242188 L 487.847656 384.261719 L 488.890625 384.285156 L 489.929688 384.316406 L 490.972656 384.351562 L 492.011719 384.394531 L 493.054688 384.4375 L 494.097656 384.476562 L 495.136719 384.519531 L 496.179688 384.5625 L 497.222656 384.601562 L 498.261719 384.644531 L 499.304688 384.679688 L 500.347656 384.710938 L 501.386719 384.734375 L 502.429688 384.753906 L 503.46875 384.773438 L 504.511719 384.792969 L 505.554688 384.808594 L 506.59375 384.824219 L 507.636719 384.835938 L 508.679688 384.84375 L 509.71875 384.847656 L 511.804688 384.863281 L 512.84375 384.875 L 513.886719 384.890625 L 513.886719 385.058594 L 306.613281 385.058594 Z M 306.613281 384.753906 "/>
<g clip-path="url(#clip6)" clip-rule="nonzero">
<path style="fill:none;stroke-width:1.5;stroke-linecap:butt;stroke-linejoin:miter;stroke:rgb(0%,61.960787%,45.09804%);stroke-opacity:1;stroke-miterlimit:10;" d="M 408.817708 513.114583 L 410.208333 513.046875 L 411.59375 512.979167 L 412.984375 512.921875 L 414.375 512.869792 L 415.760417 512.828125 L 417.151042 512.796875 L 418.541667 512.770833 L 419.927083 512.734375 L 421.317708 512.682292 L 422.708333 512.609375 L 424.09375 512.520833 L 425.484375 512.421875 L 426.869792 512.322917 L 428.260417 512.21875 L 429.651042 512.125 L 431.036458 512.026042 L 432.427083 511.911458 L 433.817708 511.760417 L 435.203125 511.5625 L 436.59375 511.291667 L 437.984375 510.932292 L 439.369792 510.473958 L 440.760417 509.916667 L 442.151042 509.276042 L 443.536458 508.572917 L 444.927083 507.833333 L 446.3125 507.088542 L 447.703125 506.364583 L 449.09375 505.6875 L 450.479167 505.078125 L 451.869792 504.5625 L 453.260417 504.140625 L 454.645833 503.786458 L 456.036458 503.458333 L 457.427083 503.072917 L 458.8125 502.567708 L 460.203125 501.869792 L 461.588542 500.9375 L 462.979167 499.744792 L 464.369792 498.286458 L 465.755208 496.552083 L 467.145833 494.546875 L 468.536458 492.291667 L 469.921875 489.822917 L 471.3125 487.213542 L 472.703125 484.552083 L 474.088542 481.916667 L 475.479167 479.359375 L 476.869792 476.895833 L 478.255208 474.489583 L 479.645833 472.078125 L 481.03125 469.552083 L 482.421875 466.807292 L 483.8125 463.723958 L 485.197917 460.1875 L 486.588542 456.15625 L 487.979167 451.630208 L 489.364583 446.713542 L 490.755208 441.546875 L 492.145833 436.296875 L 493.53125 431.09375 L 494.921875 425.979167 L 496.3125 420.921875 L 497.697917 415.84375 L 499.088542 410.682292 L 500.473958 405.447917 L 501.864583 400.234375 L 503.255208 395.223958 L 504.640625 390.614583 L 506.03125 386.5625 L 507.421875 383.119792 L 508.807292 380.1875 L 510.197917 377.541667 L 511.588542 374.848958 L 512.973958 371.744792 L 514.364583 367.932292 L 515.755208 363.25 L 517.140625 357.739583 L 518.53125 351.619792 L 519.916667 345.255208 L 521.307292 339.078125 L 522.697917 333.489583 L 524.083333 328.807292 L 525.473958 325.203125 L 526.864583 322.723958 L 528.25 321.276042 L 529.640625 320.640625 L 531.03125 320.505208 L 532.416667 320.520833 L 533.807292 320.354167 L 535.197917 319.770833 L 536.583333 318.692708 L 537.973958 317.171875 L 539.359375 315.401042 L 540.75 313.619792 L 542.140625 312.078125 L 543.526042 311 L 544.916667 310.552083 L 546.307292 310.848958 L 547.692708 311.953125 L 549.083333 313.859375 L 550.473958 316.505208 L 551.859375 319.765625 L 553.25 323.46875 L 554.640625 327.421875 L 556.026042 331.463542 L 557.416667 335.46875 L 558.802083 339.411458 L 560.192708 343.364583 L 561.583333 347.4375 L 562.96875 351.760417 L 564.359375 356.411458 L 565.75 361.416667 L 567.135417 366.723958 L 568.526042 372.229167 L 569.916667 377.796875 L 571.302083 383.276042 L 572.692708 388.520833 L 574.083333 393.395833 L 575.46875 397.84375 L 576.859375 401.901042 L 578.244792 405.677083 L 579.635417 409.369792 L 581.026042 413.15625 L 582.411458 417.1875 L 583.802083 421.5 L 585.192708 426.046875 L 586.578125 430.703125 L 587.96875 435.322917 L 589.359375 439.786458 L 590.744792 444.005208 L 592.135417 447.96875 L 593.526042 451.703125 L 594.911458 455.260417 L 596.302083 458.671875 L 597.6875 461.958333 L 599.078125 465.098958 L 600.46875 468.078125 L 601.854167 470.880208 L 603.244792 473.526042 L 604.635417 476.041667 L 606.020833 478.46875 L 607.411458 480.84375 L 608.802083 483.171875 L 610.1875 485.421875 L 611.578125 487.557292 L 612.96875 489.546875 L 614.354167 491.364583 L 615.744792 493.015625 L 617.130208 494.53125 L 618.520833 495.953125 L 619.911458 497.328125 L 621.296875 498.677083 L 622.6875 500.010417 L 624.078125 501.317708 L 625.463542 502.578125 L 626.854167 503.760417 L 628.244792 504.848958 L 629.630208 505.822917 L 631.020833 506.682292 L 632.411458 507.416667 L 633.796875 508.03125 L 635.1875 508.520833 L 636.572917 508.901042 L 637.963542 509.182292 L 639.354167 509.390625 L 640.739583 509.5625 L 642.130208 509.739583 L 643.520833 509.958333 L 644.90625 510.244792 L 646.296875 510.598958 L 647.6875 511.010417 L 649.072917 511.447917 L 650.463542 511.875 L 651.854167 512.255208 L 653.239583 512.5625 L 654.630208 512.796875 L 656.015625 512.958333 L 657.40625 513.057292 L 658.796875 513.109375 L 660.182292 513.125 L 661.572917 513.114583 L 662.963542 513.083333 L 664.348958 513.041667 L 665.739583 513 L 667.130208 512.963542 L 668.515625 512.932292 L 669.90625 512.911458 L 671.291667 512.90625 L 672.682292 512.90625 L 674.072917 512.911458 L 675.458333 512.927083 L 676.848958 512.942708 L 678.239583 512.973958 L 679.625 513.010417 L 681.015625 513.057292 L 682.40625 513.114583 L 683.791667 513.171875 L 685.182292 513.229167 " transform="matrix(0.75,0,0,0.75,0,0)"/>
</g>
<path style=" stroke:none;fill-rule:nonzero;fill:rgb(0%,61.960787%,45.09804%);fill-opacity:0.15;" d="M 306.613281 384.835938 L 307.65625 384.785156 L 308.695312 384.734375 L 309.738281 384.691406 L 310.78125 384.652344 L 311.820312 384.621094 L 312.863281 384.597656 L 313.90625 384.578125 L 314.945312 384.550781 L 315.988281 384.511719 L 317.03125 384.457031 L 318.070312 384.390625 L 319.113281 384.316406 L 320.152344 384.242188 L 321.195312 384.164062 L 322.238281 384.09375 L 323.277344 384.019531 L 324.320312 383.933594 L 325.363281 383.820312 L 326.402344 383.671875 L 327.445312 383.46875 L 328.488281 383.199219 L 329.527344 382.855469 L 330.570312 382.4375 L 331.613281 381.957031 L 332.652344 381.429688 L 333.695312 380.875 L 334.734375 380.316406 L 335.777344 379.773438 L 336.820312 379.265625 L 337.859375 378.808594 L 338.902344 378.421875 L 339.945312 378.105469 L 340.984375 377.839844 L 342.027344 377.59375 L 343.070312 377.304688 L 344.109375 376.925781 L 345.152344 376.402344 L 346.191406 375.703125 L 347.234375 374.808594 L 348.277344 373.714844 L 349.316406 372.414062 L 350.359375 370.910156 L 351.402344 369.21875 L 352.441406 367.367188 L 353.484375 365.410156 L 354.527344 363.414062 L 355.566406 361.4375 L 356.609375 359.519531 L 357.652344 357.671875 L 358.691406 355.867188 L 359.734375 354.058594 L 360.773438 352.164062 L 361.816406 350.105469 L 362.859375 347.792969 L 363.898438 345.140625 L 364.941406 342.117188 L 365.984375 338.722656 L 367.023438 335.035156 L 368.066406 331.160156 L 369.109375 327.222656 L 370.148438 323.320312 L 371.191406 319.484375 L 372.234375 315.691406 L 373.273438 311.882812 L 374.316406 308.011719 L 375.355469 304.085938 L 376.398438 300.175781 L 377.441406 296.417969 L 378.480469 292.960938 L 379.523438 289.921875 L 380.566406 287.339844 L 381.605469 285.140625 L 382.648438 283.15625 L 383.691406 281.136719 L 384.730469 278.808594 L 385.773438 275.949219 L 386.816406 272.4375 L 387.855469 268.304688 L 388.898438 263.714844 L 389.9375 258.941406 L 390.980469 254.308594 L 392.023438 250.117188 L 393.0625 246.605469 L 394.105469 243.902344 L 395.148438 242.042969 L 396.1875 240.957031 L 397.230469 240.480469 L 398.273438 240.378906 L 399.3125 240.390625 L 400.355469 240.265625 L 401.398438 239.828125 L 402.4375 239.019531 L 403.480469 237.878906 L 404.519531 236.550781 L 405.5625 235.214844 L 406.605469 234.058594 L 407.644531 233.25 L 408.6875 232.914062 L 409.730469 233.136719 L 410.769531 233.964844 L 411.8125 235.394531 L 412.855469 237.378906 L 413.894531 239.824219 L 414.9375 242.601562 L 415.980469 245.566406 L 417.019531 248.597656 L 418.0625 251.601562 L 419.101562 254.558594 L 420.144531 257.523438 L 421.1875 260.578125 L 422.226562 263.820312 L 423.269531 267.308594 L 424.3125 271.0625 L 425.351562 275.042969 L 426.394531 279.171875 L 427.4375 283.347656 L 428.476562 287.457031 L 429.519531 291.390625 L 430.5625 295.046875 L 431.601562 298.382812 L 432.644531 301.425781 L 433.683594 304.257812 L 434.726562 307.027344 L 435.769531 309.867188 L 436.808594 312.890625 L 437.851562 316.125 L 438.894531 319.535156 L 439.933594 323.027344 L 440.976562 326.492188 L 442.019531 329.839844 L 443.058594 333.003906 L 444.101562 335.976562 L 445.144531 338.777344 L 446.183594 341.445312 L 447.226562 344.003906 L 448.265625 346.46875 L 449.308594 348.824219 L 450.351562 351.058594 L 451.390625 353.160156 L 452.433594 355.144531 L 453.476562 357.03125 L 454.515625 358.851562 L 455.558594 360.632812 L 456.601562 362.378906 L 457.640625 364.066406 L 458.683594 365.667969 L 459.726562 367.160156 L 460.765625 368.523438 L 461.808594 369.761719 L 462.847656 370.898438 L 463.890625 371.964844 L 464.933594 372.996094 L 465.972656 374.007812 L 467.015625 375.007812 L 468.058594 375.988281 L 469.097656 376.933594 L 470.140625 377.820312 L 471.183594 378.636719 L 472.222656 379.367188 L 473.265625 380.011719 L 474.308594 380.5625 L 475.347656 381.023438 L 476.390625 381.390625 L 477.429688 381.675781 L 478.472656 381.886719 L 479.515625 382.042969 L 480.554688 382.171875 L 481.597656 382.304688 L 482.640625 382.46875 L 483.679688 382.683594 L 484.722656 382.949219 L 485.765625 383.257812 L 486.804688 383.585938 L 487.847656 383.90625 L 488.890625 384.191406 L 489.929688 384.421875 L 490.972656 384.597656 L 492.011719 384.71875 L 493.054688 384.792969 L 494.097656 384.832031 L 495.136719 384.84375 L 496.179688 384.835938 L 497.222656 384.8125 L 498.261719 384.78125 L 499.304688 384.75 L 500.347656 384.722656 L 501.386719 384.699219 L 502.429688 384.683594 L 503.46875 384.679688 L 504.511719 384.679688 L 505.554688 384.683594 L 506.59375 384.695312 L 507.636719 384.707031 L 508.679688 384.730469 L 509.71875 384.757812 L 510.761719 384.792969 L 511.804688 384.835938 L 512.84375 384.878906 L 513.886719 384.921875 L 513.886719 385.058594 L 306.613281 385.058594 Z M 306.613281 384.835938 "/>
<path style="fill:none;stroke-width:1;stroke-linecap:butt;stroke-linejoin:miter;stroke:rgb(0%,0%,0%);stroke-opacity:1;stroke-miterlimit:10;" d="M 94.546875 536.5 L 94.546875 542.5 " transform="matrix(0.75,0,0,0.75,0,0)"/>
<path style="fill:none;stroke-width:1;stroke-linecap:butt;stroke-linejoin:miter;stroke:rgb(0%,0%,0%);stroke-opacity:1;stroke-miterlimit:10;" d="M 189.984375 536.5 L 189.984375 542.5 " transform="matrix(0.75,0,0,0.75,0,0)"/>
<path style="fill:none;stroke-width:1;stroke-linecap:butt;stroke-linejoin:miter;stroke:rgb(0%,0%,0%);stroke-opacity:1;stroke-miterlimit:10;" d="M 285.427083 536.5 L 285.427083 542.5 " transform="matrix(0.75,0,0,0.75,0,0)"/>
<path style="fill:none;stroke-width:1;stroke-linecap:butt;stroke-linejoin:miter;stroke:rgb(0%,0%,0%);stroke-opacity:1;stroke-miterlimit:10;" d="M 66.5 513.411458 L 60.5 513.411458 " transform="matrix(0.75,0,0,0.75,0,0)"/>
<path style="fill:none;stroke-width:1;stroke-linecap:butt;stroke-linejoin:miter;stroke:rgb(0%,0%,0%);stroke-opacity:1;stroke-miterlimit:10;" d="M 66.5 330.59375 L 60.5 330.59375 " transform="matrix(0.75,0,0,0.75,0,0)"/>
<path style="fill:none;stroke-width:1;stroke-linecap:butt;stroke-linejoin:miter;stroke:rgb(0%,0%,0%);stroke-opacity:1;stroke-miterlimit:10;" d="M 66.5 147.776042 L 60.5 147.776042 " transform="matrix(0.75,0,0,0.75,0,0)"/>
<path style="fill:none;stroke-width:1;stroke-linecap:butt;stroke-linejoin:miter;stroke:rgb(0%,0%,0%);stroke-opacity:1;stroke-miterlimit:10;" d="M 422.546875 536.5 L 422.546875 542.5 " transform="matrix(0.75,0,0,0.75,0,0)"/>
<path style="fill:none;stroke-width:1;stroke-linecap:butt;stroke-linejoin:miter;stroke:rgb(0%,0%,0%);stroke-opacity:1;stroke-miterlimit:10;" d="M 517.984375 536.5 L 517.984375 542.5 " transform="matrix(0.75,0,0,0.75,0,0)"/>
<path style="fill:none;stroke-width:1;stroke-linecap:butt;stroke-linejoin:miter;stroke:rgb(0%,0%,0%);stroke-opacity:1;stroke-miterlimit:10;" d="M 613.427083 536.5 L 613.427083 542.5 " transform="matrix(0.75,0,0,0.75,0,0)"/>
<g clip-path="url(#clip7)" clip-rule="nonzero">
<path style=" stroke:none;fill-rule:nonzero;fill:rgb(100%,100%,100%);fill-opacity:1;" d="M 542.625 256.125 L 587.625 256.125 L 587.625 175.125 L 542.625 175.125 Z M 542.625 256.125 "/>
</g>
<g clip-path="url(#clip8)" clip-rule="nonzero">
<path style="fill:none;stroke-width:1;stroke-linecap:butt;stroke-linejoin:miter;stroke:rgb(0%,0%,0%);stroke-opacity:1;stroke-miterlimit:10;" d="M 723.5 341.5 L 783.5 341.5 L 783.5 233.5 L 723.5 233.5 Z M 723.5 341.5 " transform="matrix(0.75,0,0,0.75,0,0)"/>
</g>
<g style="fill:rgb(0%,0%,0%);fill-opacity:1;">
  <use xlink:href="#HC+uqNkD16-1" x="549.601562" y="192.03125"/>
</g>
<g style="fill:rgb(0%,0%,0%);fill-opacity:1;">
  <use xlink:href="#HC+uqNkD17-1" x="556.199219" y="192.03125"/>
</g>
<g style="fill:rgb(0%,0%,0%);fill-opacity:1;">
  <use xlink:href="#HC+uqNkD16-2" x="563.804688" y="192.03125"/>
</g>
<g style="fill:rgb(0%,0%,0%);fill-opacity:1;">
  <use xlink:href="#HC+uqNkD17-2" x="571.15625" y="192.03125"/>
</g>
<g style="fill:rgb(0%,0%,0%);fill-opacity:1;">
  <use xlink:href="#HC+uqNkD17-3" x="574.492188" y="192.03125"/>
</g>
<g style="fill:rgb(0%,0%,0%);fill-opacity:1;">
  <use xlink:href="#HC+uqNkD4-5" x="570.300781" y="212.515625"/>
</g>
<path style=" stroke:none;fill-rule:nonzero;fill:rgb(0%,44.705883%,69.803923%);fill-opacity:0.15;" d="M 552.871094 215.859375 L 567.871094 215.859375 L 567.871094 200.859375 L 552.871094 200.859375 Z M 552.871094 215.859375 "/>
<path style="fill:none;stroke-width:1.5;stroke-linecap:butt;stroke-linejoin:miter;stroke:rgb(0%,44.705883%,69.803923%);stroke-opacity:1;stroke-miterlimit:10;" d="M 737.161458 277.8125 L 757.161458 277.8125 " transform="matrix(0.75,0,0,0.75,0,0)"/>
<g style="fill:rgb(0%,0%,0%);fill-opacity:1;">
  <use xlink:href="#HC+uqNkD18-1" x="570.742188" y="229.765625"/>
</g>
<path style=" stroke:none;fill-rule:nonzero;fill:rgb(90.196079%,62.352943%,0%);fill-opacity:0.15;" d="M 552.871094 233.109375 L 567.871094 233.109375 L 567.871094 218.109375 L 552.871094 218.109375 Z M 552.871094 233.109375 "/>
<path style="fill:none;stroke-width:1.5;stroke-linecap:butt;stroke-linejoin:miter;stroke:rgb(90.196079%,62.352943%,0%);stroke-opacity:1;stroke-miterlimit:10;" d="M 737.161458 300.8125 L 757.161458 300.8125 " transform="matrix(0.75,0,0,0.75,0,0)"/>
<g style="fill:rgb(0%,0%,0%);fill-opacity:1;">
  <use xlink:href="#HC+uqNkD4-10" x="570.707031" y="247.015625"/>
</g>
<path style=" stroke:none;fill-rule:nonzero;fill:rgb(0%,61.960787%,45.09804%);fill-opacity:0.15;" d="M 552.871094 250.359375 L 567.871094 250.359375 L 567.871094 235.359375 L 552.871094 235.359375 Z M 552.871094 250.359375 "/>
<path style="fill:none;stroke-width:1.5;stroke-linecap:butt;stroke-linejoin:miter;stroke:rgb(0%,61.960787%,45.09804%);stroke-opacity:1;stroke-miterlimit:10;" d="M 737.161458 323.8125 L 757.161458 323.8125 " transform="matrix(0.75,0,0,0.75,0,0)"/>
<path style="fill:none;stroke-width:1;stroke-linecap:butt;stroke-linejoin:miter;stroke:rgb(0%,0%,0%);stroke-opacity:1;stroke-miterlimit:10;" d="M 66.5 536 L 371.5 536 " transform="matrix(0.75,0,0,0.75,0,0)"/>
<path style="fill:none;stroke-width:1;stroke-linecap:butt;stroke-linejoin:miter;stroke:rgb(0%,0%,0%);stroke-opacity:1;stroke-miterlimit:10;" d="M 67 536.5 L 67 38.5 " transform="matrix(0.75,0,0,0.75,0,0)"/>
<path style="fill:none;stroke-width:1;stroke-linecap:butt;stroke-linejoin:miter;stroke:rgb(0%,0%,0%);stroke-opacity:1;stroke-miterlimit:10;" d="M 66.5 39 L 371.5 39 " transform="matrix(0.75,0,0,0.75,0,0)"/>
<path style="fill:none;stroke-width:1;stroke-linecap:butt;stroke-linejoin:miter;stroke:rgb(0%,0%,0%);stroke-opacity:1;stroke-miterlimit:10;" d="M 371 536.5 L 371 38.5 " transform="matrix(0.75,0,0,0.75,0,0)"/>
<path style="fill:none;stroke-width:1;stroke-linecap:butt;stroke-linejoin:miter;stroke:rgb(0%,0%,0%);stroke-opacity:1;stroke-miterlimit:10;" d="M 394.5 536 L 699.5 536 " transform="matrix(0.75,0,0,0.75,0,0)"/>
<path style="fill:none;stroke-width:1;stroke-linecap:butt;stroke-linejoin:miter;stroke:rgb(0%,0%,0%);stroke-opacity:1;stroke-miterlimit:10;" d="M 395 536.5 L 395 38.5 " transform="matrix(0.75,0,0,0.75,0,0)"/>
<path style="fill:none;stroke-width:1;stroke-linecap:butt;stroke-linejoin:miter;stroke:rgb(0%,0%,0%);stroke-opacity:1;stroke-miterlimit:10;" d="M 394.5 39 L 699.5 39 " transform="matrix(0.75,0,0,0.75,0,0)"/>
<path style="fill:none;stroke-width:1;stroke-linecap:butt;stroke-linejoin:miter;stroke:rgb(0%,0%,0%);stroke-opacity:1;stroke-miterlimit:10;" d="M 699 536.5 L 699 38.5 " transform="matrix(0.75,0,0,0.75,0,0)"/>
</g>
</svg>
