<?xml version="1.0" encoding="UTF-8"?>
<svg xmlns="http://www.w3.org/2000/svg"
     xmlns:xlink="http://www.w3.org/1999/xlink"
     xmlns:gadfly="http://www.gadflyjl.org/ns"
     version="1.2"
     width="141.42mm" height="100mm" viewBox="0 0 141.42 100"
     stroke="none"
     fill="#000000"
     stroke-width="0.3"
     font-size="3.88"
>
<defs>
  <marker id="arrow" markerWidth="15" markerHeight="7" refX="5" refY="3.5" orient="auto" markerUnits="strokeWidth">
    <path d="M0,0 L15,3.5 L0,7 z" stroke="context-stroke" fill="context-stroke"/>
  </marker>
</defs>
<g class="plotroot xscalable yscalable" id="img-6d3f3e2c-1">
  <g font-size="3.88" font-family="'PT Sans','Helvetica Neue','Helvetica',sans-serif" fill="#564A55" stroke="#000000" stroke-opacity="0.000" id="img-6d3f3e2c-2">
    <g transform="translate(76.01,88.39)">
      <g class="primitive">
        <text text-anchor="middle" dy="0.6em">x</text>
      </g>
    </g>
  </g>
  <g class="guide xlabels" font-size="2.82" font-family="'PT Sans Caption','Helvetica Neue','Helvetica',sans-serif" fill="#6C606B" id="img-6d3f3e2c-3">
    <g transform="translate(17.59,81.72)">
      <g class="primitive">
        <text text-anchor="middle" dy="0.6em">0.0</text>
      </g>
    </g>
    <g transform="translate(76.01,81.72)">
      <g class="primitive">
        <text text-anchor="middle" dy="0.6em">0.5</text>
      </g>
    </g>
    <g transform="translate(134.42,81.72)">
      <g class="primitive">
        <text text-anchor="middle" dy="0.6em">1.0</text>
      </g>
    </g>
  </g>
  <g clip-path="url(#img-6d3f3e2c-4)">
    <g id="img-6d3f3e2c-5">
      <g pointer-events="visible" stroke-width="0.3" fill="#000000" fill-opacity="0.000" stroke="#000000" stroke-opacity="0.000" class="guide background" id="img-6d3f3e2c-6">
        <g transform="translate(76.01,42.86)" id="img-6d3f3e2c-7">
          <path d="M-60.41,-37.86 L60.41,-37.86 60.41,37.86 -60.41,37.86  z" class="primitive"/>
        </g>
      </g>
      <g class="guide ygridlines xfixed" stroke-dasharray="0.5,0.5" stroke-width="0.2" stroke="#D0D0E0" id="img-6d3f3e2c-8">
        <g transform="translate(76.01,78.71)" id="img-6d3f3e2c-9">
          <path fill="none" d="M-60.41,0 L60.41,0 " class="primitive"/>
        </g>
        <g transform="translate(76.01,66.76)" id="img-6d3f3e2c-10">
          <path fill="none" d="M-60.41,0 L60.41,0 " class="primitive"/>
        </g>
        <g transform="translate(76.01,54.81)" id="img-6d3f3e2c-11">
          <path fill="none" d="M-60.41,0 L60.41,0 " class="primitive"/>
        </g>
        <g transform="translate(76.01,42.86)" id="img-6d3f3e2c-12">
          <path fill="none" d="M-60.41,0 L60.41,0 " class="primitive"/>
        </g>
        <g transform="translate(76.01,30.9)" id="img-6d3f3e2c-13">
          <path fill="none" d="M-60.41,0 L60.41,0 " class="primitive"/>
        </g>
        <g transform="translate(76.01,18.95)" id="img-6d3f3e2c-14">
          <path fill="none" d="M-60.41,0 L60.41,0 " class="primitive"/>
        </g>
        <g transform="translate(76.01,7)" id="img-6d3f3e2c-15">
          <path fill="none" d="M-60.41,0 L60.41,0 " class="primitive"/>
        </g>
      </g>
      <g class="guide xgridlines yfixed" stroke-dasharray="0.5,0.5" stroke-width="0.2" stroke="#D0D0E0" id="img-6d3f3e2c-16">
        <g transform="translate(17.59,42.86)" id="img-6d3f3e2c-17">
          <path fill="none" d="M0,-37.86 L0,37.86 " class="primitive"/>
        </g>
        <g transform="translate(76.01,42.86)" id="img-6d3f3e2c-18">
          <path fill="none" d="M0,-37.86 L0,37.86 " class="primitive"/>
        </g>
        <g transform="translate(134.42,42.86)" id="img-6d3f3e2c-19">
          <path fill="none" d="M0,-37.86 L0,37.86 " class="primitive"/>
        </g>
      </g>
      <g class="plotpanel" id="img-6d3f3e2c-20">
        <metadata>
          <boundingbox value="15.592500000000001mm 5.0mm 120.82885623730951mm 75.715mm"/>
          <unitbox value="-0.017119058291022594 6.334658021334449 1.0342381165820451 -12.6693160426689"/>
        </metadata>
        <g stroke-width="0.3" fill="#000000" fill-opacity="0.000" class="geometry" id="img-6d3f3e2c-21">
          <g class="color_LCHab{Float32}(70.0f0,60.0f0,240.0f0)" stroke-dasharray="none" stroke="#00BFFF" id="img-6d3f3e2c-22">
            <g transform="translate(76.01,42.86)" id="img-6d3f3e2c-23">
              <path fill="none" d="M-57.95,32.95 L-57.48,28.78 -57.01,26.34 -56.54,24.59 -56.07,23.23 -55.6,22.12 -55.13,21.17 -54.66,20.35 -54.19,19.62 -53.72,18.97 -53.25,18.37 -52.78,17.83 -52.31,17.32 -51.85,16.86 -51.38,16.42 -50.91,16.01 -50.44,15.62 -49.97,15.25 -49.5,14.9 -49.03,14.57 -48.56,14.25 -48.09,13.95 -47.62,13.66 -47.15,13.38 -46.68,13.1 -46.22,12.84 -45.75,12.59 -45.28,12.35 -44.81,12.11 -44.34,11.88 -43.87,11.66 -43.4,11.44 -42.93,11.23 -42.46,11.02 -41.99,10.82 -41.52,10.62 -41.05,10.43 -40.59,10.24 -40.12,10.06 -39.65,9.88 -39.18,9.71 -38.71,9.53 -38.24,9.36 -37.77,9.2 -37.3,9.03 -36.83,8.87 -36.36,8.71 -35.89,8.56 -35.42,8.41 -34.95,8.25 -34.49,8.11 -34.02,7.96 -33.55,7.82 -33.08,7.67 -32.61,7.53 -32.14,7.39 -31.67,7.26 -31.2,7.12 -30.73,6.99 -30.26,6.86 -29.79,6.73 -29.32,6.6 -28.86,6.47 -28.39,6.34 -27.92,6.22 -27.45,6.09 -26.98,5.97 -26.51,5.85 -26.04,5.73 -25.57,5.61 -25.1,5.49 -24.63,5.38 -24.16,5.26 -23.69,5.14 -23.23,5.03 -22.76,4.92 -22.29,4.8 -21.82,4.69 -21.35,4.58 -20.88,4.47 -20.41,4.36 -19.94,4.25 -19.47,4.14 -19,4.03 -18.53,3.93 -18.06,3.82 -17.59,3.72 -17.13,3.61 -16.66,3.51 -16.19,3.4 -15.72,3.3 -15.25,3.19 -14.78,3.09 -14.31,2.99 -13.84,2.89 -13.37,2.79 -12.9,2.68 -12.43,2.58 -11.96,2.48 -11.5,2.38 -11.03,2.28 -10.56,2.18 -10.09,2.08 -9.62,1.99 -9.15,1.89 -8.68,1.79 -8.21,1.69 -7.74,1.59 -7.27,1.5 -6.8,1.4 -6.33,1.3 -5.86,1.2 -5.4,1.11 -4.93,1.01 -4.46,0.91 -3.99,0.82 -3.52,0.72 -3.05,0.62 -2.58,0.53 -2.11,0.43 -1.64,0.34 -1.17,0.24 -0.7,0.14 -0.23,0.05 0.23,-0.05 0.7,-0.14 1.17,-0.24 1.64,-0.34 2.11,-0.43 2.58,-0.53 3.05,-0.62 3.52,-0.72 3.99,-0.82 4.46,-0.91 4.93,-1.01 5.4,-1.11 5.86,-1.2 6.33,-1.3 6.8,-1.4 7.27,-1.5 7.74,-1.59 8.21,-1.69 8.68,-1.79 9.15,-1.89 9.62,-1.99 10.09,-2.08 10.56,-2.18 11.03,-2.28 11.5,-2.38 11.96,-2.48 12.43,-2.58 12.9,-2.68 13.37,-2.79 13.84,-2.89 14.31,-2.99 14.78,-3.09 15.25,-3.19 15.72,-3.3 16.19,-3.4 16.66,-3.51 17.13,-3.61 17.59,-3.72 18.06,-3.82 18.53,-3.93 19,-4.03 19.47,-4.14 19.94,-4.25 20.41,-4.36 20.88,-4.47 21.35,-4.58 21.82,-4.69 22.29,-4.8 22.76,-4.92 23.23,-5.03 23.69,-5.14 24.16,-5.26 24.63,-5.38 25.1,-5.49 25.57,-5.61 26.04,-5.73 26.51,-5.85 26.98,-5.97 27.45,-6.09 27.92,-6.22 28.39,-6.34 28.86,-6.47 29.32,-6.6 29.79,-6.73 30.26,-6.86 30.73,-6.99 31.2,-7.12 31.67,-7.26 32.14,-7.39 32.61,-7.53 33.08,-7.67 33.55,-7.82 34.02,-7.96 34.49,-8.11 34.95,-8.25 35.42,-8.41 35.89,-8.56 36.36,-8.71 36.83,-8.87 37.3,-9.03 37.77,-9.2 38.24,-9.36 38.71,-9.53 39.18,-9.71 39.65,-9.88 40.12,-10.06 40.59,-10.24 41.05,-10.43 41.52,-10.62 41.99,-10.82 42.46,-11.02 42.93,-11.23 43.4,-11.44 43.87,-11.66 44.34,-11.88 44.81,-12.11 45.28,-12.35 45.75,-12.59 46.22,-12.84 46.68,-13.1 47.15,-13.38 47.62,-13.66 48.09,-13.95 48.56,-14.25 49.03,-14.57 49.5,-14.9 49.97,-15.25 50.44,-15.62 50.91,-16.01 51.38,-16.42 51.85,-16.86 52.31,-17.32 52.78,-17.83 53.25,-18.37 53.72,-18.97 54.19,-19.62 54.66,-20.35 55.13,-21.17 55.6,-22.12 56.07,-23.23 56.54,-24.59 57.01,-26.34 57.48,-28.78 57.95,-32.95 58.41,-Inf " class="primitive"/>
            </g>
          </g>
        </g>
      </g>
    </g>
  </g>
  <g class="guide ylabels" font-size="2.82" font-family="'PT Sans Caption','Helvetica Neue','Helvetica',sans-serif" fill="#6C606B" id="img-6d3f3e2c-24">
    <g transform="translate(14.59,78.71)" id="img-6d3f3e2c-25">
      <g class="primitive">
        <text text-anchor="end" dy="0.35em">-6</text>
      </g>
    </g>
    <g transform="translate(14.59,66.76)" id="img-6d3f3e2c-26">
      <g class="primitive">
        <text text-anchor="end" dy="0.35em">-4</text>
      </g>
    </g>
    <g transform="translate(14.59,54.81)" id="img-6d3f3e2c-27">
      <g class="primitive">
        <text text-anchor="end" dy="0.35em">-2</text>
      </g>
    </g>
    <g transform="translate(14.59,42.86)" id="img-6d3f3e2c-28">
      <g class="primitive">
        <text text-anchor="end" dy="0.35em">0</text>
      </g>
    </g>
    <g transform="translate(14.59,30.9)" id="img-6d3f3e2c-29">
      <g class="primitive">
        <text text-anchor="end" dy="0.35em">2</text>
      </g>
    </g>
    <g transform="translate(14.59,18.95)" id="img-6d3f3e2c-30">
      <g class="primitive">
        <text text-anchor="end" dy="0.35em">4</text>
      </g>
    </g>
    <g transform="translate(14.59,7)" id="img-6d3f3e2c-31">
      <g class="primitive">
        <text text-anchor="end" dy="0.35em">6</text>
      </g>
    </g>
  </g>
  <g font-size="3.88" font-family="'PT Sans','Helvetica Neue','Helvetica',sans-serif" fill="#564A55" stroke="#000000" stroke-opacity="0.000" id="img-6d3f3e2c-32">
    <g transform="translate(8.81,42.86)" id="img-6d3f3e2c-33">
      <g class="primitive">
        <text text-anchor="end" dy="0.35em">y</text>
      </g>
    </g>
  </g>
</g>
<defs>
  <clipPath id="img-6d3f3e2c-4">
    <path d="M15.59,5 L136.42,5 136.42,80.72 15.59,80.72 " />
  </clipPath>
</defs>
</svg>
