<?xml version="1.0" encoding="UTF-8"?>
<svg xmlns="http://www.w3.org/2000/svg"
     xmlns:xlink="http://www.w3.org/1999/xlink"
     xmlns:gadfly="http://www.gadflyjl.org/ns"
     version="1.2"
     width="141.42mm" height="100mm" viewBox="0 0 141.42 100"
     stroke="none"
     fill="#000000"
     stroke-width="0.3"
     font-size="3.88"
>
<defs>
  <marker id="arrow" markerWidth="15" markerHeight="7" refX="5" refY="3.5" orient="auto" markerUnits="strokeWidth">
    <path d="M0,0 L15,3.5 L0,7 z" stroke="context-stroke" fill="context-stroke"/>
  </marker>
</defs>
<g class="plotroot xscalable yscalable" id="img-a8bce61e-1">
  <g font-size="3.88" font-family="'PT Sans','Helvetica Neue','Helvetica',sans-serif" fill="#564A55" stroke="#000000" stroke-opacity="0.000" id="img-a8bce61e-2">
    <g transform="translate(76.62,88.39)">
      <g class="primitive">
        <text text-anchor="middle" dy="0.6em">x</text>
      </g>
    </g>
  </g>
  <g class="guide xlabels" font-size="2.82" font-family="'PT Sans Caption','Helvetica Neue','Helvetica',sans-serif" fill="#6C606B" id="img-a8bce61e-3">
    <g transform="translate(18.83,81.71)">
      <g class="primitive">
        <text text-anchor="middle" dy="0.6em">-6</text>
      </g>
    </g>
    <g transform="translate(38.09,81.71)">
      <g class="primitive">
        <text text-anchor="middle" dy="0.6em">-4</text>
      </g>
    </g>
    <g transform="translate(57.36,81.71)">
      <g class="primitive">
        <text text-anchor="middle" dy="0.6em">-2</text>
      </g>
    </g>
    <g transform="translate(76.62,81.71)">
      <g class="primitive">
        <text text-anchor="middle" dy="0.6em">0</text>
      </g>
    </g>
    <g transform="translate(95.89,81.71)">
      <g class="primitive">
        <text text-anchor="middle" dy="0.6em">2</text>
      </g>
    </g>
    <g transform="translate(115.16,81.71)">
      <g class="primitive">
        <text text-anchor="middle" dy="0.6em">4</text>
      </g>
    </g>
    <g transform="translate(134.42,81.71)">
      <g class="primitive">
        <text text-anchor="middle" dy="0.6em">6</text>
      </g>
    </g>
  </g>
  <g clip-path="url(#img-a8bce61e-4)">
    <g id="img-a8bce61e-5">
      <g pointer-events="visible" stroke-width="0.3" fill="#000000" fill-opacity="0.000" stroke="#000000" stroke-opacity="0.000" class="guide background" id="img-a8bce61e-6">
        <g transform="translate(76.62,42.86)" id="img-a8bce61e-7">
          <path d="M-59.8,-37.86 L59.8,-37.86 59.8,37.86 -59.8,37.86  z" class="primitive"/>
        </g>
      </g>
      <g class="guide ygridlines xfixed" stroke-dasharray="0.5,0.5" stroke-width="0.2" stroke="#D0D0E0" id="img-a8bce61e-8">
        <g transform="translate(76.62,78.71)" id="img-a8bce61e-9">
          <path fill="none" d="M-59.8,0 L59.8,0 " class="primitive"/>
        </g>
        <g transform="translate(76.62,42.86)" id="img-a8bce61e-10">
          <path fill="none" d="M-59.8,0 L59.8,0 " class="primitive"/>
        </g>
        <g transform="translate(76.62,7)" id="img-a8bce61e-11">
          <path fill="none" d="M-59.8,0 L59.8,0 " class="primitive"/>
        </g>
      </g>
      <g class="guide xgridlines yfixed" stroke-dasharray="0.5,0.5" stroke-width="0.2" stroke="#D0D0E0" id="img-a8bce61e-12">
        <g transform="translate(18.83,42.86)" id="img-a8bce61e-13">
          <path fill="none" d="M0,-37.86 L0,37.86 " class="primitive"/>
        </g>
        <g transform="translate(38.09,42.86)" id="img-a8bce61e-14">
          <path fill="none" d="M0,-37.86 L0,37.86 " class="primitive"/>
        </g>
        <g transform="translate(57.36,42.86)" id="img-a8bce61e-15">
          <path fill="none" d="M0,-37.86 L0,37.86 " class="primitive"/>
        </g>
        <g transform="translate(76.62,42.86)" id="img-a8bce61e-16">
          <path fill="none" d="M0,-37.86 L0,37.86 " class="primitive"/>
        </g>
        <g transform="translate(95.89,42.86)" id="img-a8bce61e-17">
          <path fill="none" d="M0,-37.86 L0,37.86 " class="primitive"/>
        </g>
        <g transform="translate(115.16,42.86)" id="img-a8bce61e-18">
          <path fill="none" d="M0,-37.86 L0,37.86 " class="primitive"/>
        </g>
        <g transform="translate(134.42,42.86)" id="img-a8bce61e-19">
          <path fill="none" d="M0,-37.86 L0,37.86 " class="primitive"/>
        </g>
      </g>
      <g class="plotpanel" id="img-a8bce61e-20">
        <metadata>
          <boundingbox value="16.82583333333332mm 5.0mm 119.59552290397619mm 75.71499999999999mm"/>
          <unitbox value="-6.20762049772409 1.0278881684445373 12.41524099544818 -1.055776336889075"/>
        </metadata>
        <g stroke-width="0.3" fill="#000000" fill-opacity="0.000" class="geometry" id="img-a8bce61e-21">
          <g class="color_LCHab{Float32}(70.0f0,60.0f0,240.0f0)" stroke-dasharray="none" stroke="#00BFFF" id="img-a8bce61e-22">
            <g transform="translate(76.62,42.86)" id="img-a8bce61e-23">
              <path fill="none" d="M-57.8,35.68 L-57.33,35.67 -56.87,35.66 -56.41,35.65 -55.94,35.64 -55.48,35.63 -55.01,35.62 -54.55,35.61 -54.08,35.6 -53.62,35.58 -53.16,35.57 -52.69,35.56 -52.23,35.54 -51.76,35.53 -51.3,35.51 -50.83,35.49 -50.37,35.48 -49.91,35.46 -49.44,35.44 -48.98,35.42 -48.51,35.39 -48.05,35.37 -47.58,35.35 -47.12,35.32 -46.66,35.3 -46.19,35.27 -45.73,35.24 -45.26,35.21 -44.8,35.18 -44.33,35.15 -43.87,35.11 -43.41,35.07 -42.94,35.04 -42.48,35 -42.01,34.95 -41.55,34.91 -41.09,34.86 -40.62,34.82 -40.16,34.76 -39.69,34.71 -39.23,34.66 -38.76,34.6 -38.3,34.54 -37.84,34.47 -37.37,34.41 -36.91,34.34 -36.44,34.26 -35.98,34.19 -35.51,34.1 -35.05,34.02 -34.59,33.93 -34.12,33.84 -33.66,33.74 -33.19,33.64 -32.73,33.54 -32.26,33.43 -31.8,33.31 -31.34,33.19 -30.87,33.06 -30.41,32.93 -29.94,32.79 -29.48,32.65 -29.01,32.5 -28.55,32.34 -28.09,32.17 -27.62,32 -27.16,31.82 -26.69,31.63 -26.23,31.44 -25.77,31.23 -25.3,31.02 -24.84,30.8 -24.37,30.57 -23.91,30.33 -23.44,30.07 -22.98,29.81 -22.52,29.54 -22.05,29.26 -21.59,28.96 -21.12,28.66 -20.66,28.34 -20.19,28.01 -19.73,27.67 -19.27,27.31 -18.8,26.94 -18.34,26.56 -17.87,26.16 -17.41,25.75 -16.94,25.32 -16.48,24.88 -16.02,24.43 -15.55,23.95 -15.09,23.47 -14.62,22.97 -14.16,22.45 -13.7,21.92 -13.23,21.37 -12.77,20.8 -12.3,20.22 -11.84,19.62 -11.37,19.01 -10.91,18.38 -10.45,17.74 -9.98,17.08 -9.52,16.4 -9.05,15.71 -8.59,15 -8.12,14.28 -7.66,13.55 -7.2,12.8 -6.73,12.04 -6.27,11.27 -5.8,10.49 -5.34,9.69 -4.87,8.88 -4.41,8.07 -3.95,7.24 -3.48,6.41 -3.02,5.57 -2.55,4.72 -2.09,3.87 -1.62,3.02 -1.16,2.16 -0.7,1.3 -0.23,0.43 0.23,-0.43 0.7,-1.3 1.16,-2.16 1.62,-3.02 2.09,-3.87 2.55,-4.72 3.02,-5.57 3.48,-6.41 3.95,-7.24 4.41,-8.07 4.87,-8.88 5.34,-9.69 5.8,-10.49 6.27,-11.27 6.73,-12.04 7.2,-12.8 7.66,-13.55 8.12,-14.28 8.59,-15 9.05,-15.71 9.52,-16.4 9.98,-17.08 10.45,-17.74 10.91,-18.38 11.37,-19.01 11.84,-19.62 12.3,-20.22 12.77,-20.8 13.23,-21.37 13.7,-21.92 14.16,-22.45 14.62,-22.97 15.09,-23.47 15.55,-23.95 16.02,-24.43 16.48,-24.88 16.94,-25.32 17.41,-25.75 17.87,-26.16 18.34,-26.56 18.8,-26.94 19.27,-27.31 19.73,-27.67 20.19,-28.01 20.66,-28.34 21.12,-28.66 21.59,-28.96 22.05,-29.26 22.52,-29.54 22.98,-29.81 23.44,-30.07 23.91,-30.33 24.37,-30.57 24.84,-30.8 25.3,-31.02 25.77,-31.23 26.23,-31.44 26.69,-31.63 27.16,-31.82 27.62,-32 28.09,-32.17 28.55,-32.34 29.01,-32.5 29.48,-32.65 29.94,-32.79 30.41,-32.93 30.87,-33.06 31.34,-33.19 31.8,-33.31 32.26,-33.43 32.73,-33.54 33.19,-33.64 33.66,-33.74 34.12,-33.84 34.59,-33.93 35.05,-34.02 35.51,-34.1 35.98,-34.19 36.44,-34.26 36.91,-34.34 37.37,-34.41 37.84,-34.47 38.3,-34.54 38.76,-34.6 39.23,-34.66 39.69,-34.71 40.16,-34.76 40.62,-34.82 41.09,-34.86 41.55,-34.91 42.01,-34.95 42.48,-35 42.94,-35.04 43.41,-35.07 43.87,-35.11 44.33,-35.15 44.8,-35.18 45.26,-35.21 45.73,-35.24 46.19,-35.27 46.66,-35.3 47.12,-35.32 47.58,-35.35 48.05,-35.37 48.51,-35.39 48.98,-35.42 49.44,-35.44 49.91,-35.46 50.37,-35.48 50.83,-35.49 51.3,-35.51 51.76,-35.53 52.23,-35.54 52.69,-35.56 53.16,-35.57 53.62,-35.58 54.08,-35.6 54.55,-35.61 55.01,-35.62 55.48,-35.63 55.94,-35.64 56.41,-35.65 56.87,-35.66 57.33,-35.67 57.8,-35.68 " class="primitive"/>
            </g>
          </g>
        </g>
      </g>
    </g>
  </g>
  <g class="guide ylabels" font-size="2.82" font-family="'PT Sans Caption','Helvetica Neue','Helvetica',sans-serif" fill="#6C606B" id="img-a8bce61e-24">
    <g transform="translate(15.83,78.71)" id="img-a8bce61e-25">
      <g class="primitive">
        <text text-anchor="end" dy="0.35em">0.0</text>
      </g>
    </g>
    <g transform="translate(15.83,42.86)" id="img-a8bce61e-26">
      <g class="primitive">
        <text text-anchor="end" dy="0.35em">0.5</text>
      </g>
    </g>
    <g transform="translate(15.83,7)" id="img-a8bce61e-27">
      <g class="primitive">
        <text text-anchor="end" dy="0.35em">1.0</text>
      </g>
    </g>
  </g>
  <g font-size="3.88" font-family="'PT Sans','Helvetica Neue','Helvetica',sans-serif" fill="#564A55" stroke="#000000" stroke-opacity="0.000" id="img-a8bce61e-28">
    <g transform="translate(8.81,42.86)" id="img-a8bce61e-29">
      <g class="primitive">
        <text text-anchor="end" dy="0.35em">y</text>
      </g>
    </g>
  </g>
</g>
<defs>
  <clipPath id="img-a8bce61e-4">
    <path d="M16.83,5 L136.42,5 136.42,80.71 16.83,80.71 " />
  </clipPath>
</defs>
</svg>
