<?xml version="1.0" encoding="UTF-8"?>
<svg xmlns="http://www.w3.org/2000/svg" xmlns:xlink="http://www.w3.org/1999/xlink" width="600pt" height="450pt" viewBox="0 0 600 450" version="1.1">
<defs>
<g>
<symbol overflow="visible" id="3EpOu0Te0-0">
<path style="stroke:none;" d="M 0.59375 2.125 L 0.59375 -8.46875 L 6.59375 -8.46875 L 6.59375 2.125 Z M 1.265625 1.453125 L 5.9375 1.453125 L 5.9375 -7.78125 L 1.265625 -7.78125 Z M 1.265625 1.453125 "/>
</symbol>
<symbol overflow="visible" id="3EpOu0Te0-1">
<path style="stroke:none;" d="M 3.8125 -7.96875 C 3.207031 -7.96875 2.75 -7.664062 2.4375 -7.0625 C 2.132812 -6.46875 1.984375 -5.566406 1.984375 -4.359375 C 1.984375 -3.160156 2.132812 -2.257812 2.4375 -1.65625 C 2.75 -1.0625 3.207031 -0.765625 3.8125 -0.765625 C 4.425781 -0.765625 4.882812 -1.0625 5.1875 -1.65625 C 5.5 -2.257812 5.65625 -3.160156 5.65625 -4.359375 C 5.65625 -5.566406 5.5 -6.46875 5.1875 -7.0625 C 4.882812 -7.664062 4.425781 -7.96875 3.8125 -7.96875 Z M 3.8125 -8.90625 C 4.789062 -8.90625 5.539062 -8.515625 6.0625 -7.734375 C 6.582031 -6.960938 6.84375 -5.835938 6.84375 -4.359375 C 6.84375 -2.890625 6.582031 -1.765625 6.0625 -0.984375 C 5.539062 -0.210938 4.789062 0.171875 3.8125 0.171875 C 2.832031 0.171875 2.082031 -0.210938 1.5625 -0.984375 C 1.050781 -1.765625 0.796875 -2.890625 0.796875 -4.359375 C 0.796875 -5.835938 1.050781 -6.960938 1.5625 -7.734375 C 2.082031 -8.515625 2.832031 -8.90625 3.8125 -8.90625 Z M 3.8125 -8.90625 "/>
</symbol>
<symbol overflow="visible" id="3EpOu0Te1-0">
<path style="stroke:none;" d="M 0.59375 2.125 L 0.59375 -8.46875 L 6.59375 -8.46875 L 6.59375 2.125 Z M 1.265625 1.453125 L 5.9375 1.453125 L 5.9375 -7.78125 L 1.265625 -7.78125 Z M 1.265625 1.453125 "/>
</symbol>
<symbol overflow="visible" id="3EpOu0Te1-1">
<path style="stroke:none;" d="M 1.28125 -1.484375 L 2.515625 -1.484375 L 2.515625 0 L 1.28125 0 Z M 1.28125 -1.484375 "/>
</symbol>
<symbol overflow="visible" id="3EpOu0Te2-0">
<path style="stroke:none;" d="M 0.59375 2.125 L 0.59375 -8.46875 L 6.59375 -8.46875 L 6.59375 2.125 Z M 1.265625 1.453125 L 5.9375 1.453125 L 5.9375 -7.78125 L 1.265625 -7.78125 Z M 1.265625 1.453125 "/>
</symbol>
<symbol overflow="visible" id="3EpOu0Te2-1">
<path style="stroke:none;" d="M 3.8125 -7.96875 C 3.207031 -7.96875 2.75 -7.664062 2.4375 -7.0625 C 2.132812 -6.46875 1.984375 -5.566406 1.984375 -4.359375 C 1.984375 -3.160156 2.132812 -2.257812 2.4375 -1.65625 C 2.75 -1.0625 3.207031 -0.765625 3.8125 -0.765625 C 4.425781 -0.765625 4.882812 -1.0625 5.1875 -1.65625 C 5.5 -2.257812 5.65625 -3.160156 5.65625 -4.359375 C 5.65625 -5.566406 5.5 -6.46875 5.1875 -7.0625 C 4.882812 -7.664062 4.425781 -7.96875 3.8125 -7.96875 Z M 3.8125 -8.90625 C 4.789062 -8.90625 5.539062 -8.515625 6.0625 -7.734375 C 6.582031 -6.960938 6.84375 -5.835938 6.84375 -4.359375 C 6.84375 -2.890625 6.582031 -1.765625 6.0625 -0.984375 C 5.539062 -0.210938 4.789062 0.171875 3.8125 0.171875 C 2.832031 0.171875 2.082031 -0.210938 1.5625 -0.984375 C 1.050781 -1.765625 0.796875 -2.890625 0.796875 -4.359375 C 0.796875 -5.835938 1.050781 -6.960938 1.5625 -7.734375 C 2.082031 -8.515625 2.832031 -8.90625 3.8125 -8.90625 Z M 3.8125 -8.90625 "/>
</symbol>
<symbol overflow="visible" id="3EpOu0Te2-2">
<path style="stroke:none;" d="M 5.84375 -3.28125 C 5.84375 -4.070312 5.675781 -4.691406 5.34375 -5.140625 C 5.019531 -5.585938 4.578125 -5.8125 4.015625 -5.8125 C 3.441406 -5.8125 2.988281 -5.585938 2.65625 -5.140625 C 2.332031 -4.691406 2.171875 -4.070312 2.171875 -3.28125 C 2.171875 -2.488281 2.332031 -1.863281 2.65625 -1.40625 C 2.988281 -0.957031 3.441406 -0.734375 4.015625 -0.734375 C 4.578125 -0.734375 5.019531 -0.957031 5.34375 -1.40625 C 5.675781 -1.863281 5.84375 -2.488281 5.84375 -3.28125 Z M 2.171875 -5.5625 C 2.398438 -5.957031 2.6875 -6.25 3.03125 -6.4375 C 3.375 -6.625 3.785156 -6.71875 4.265625 -6.71875 C 5.066406 -6.71875 5.71875 -6.398438 6.21875 -5.765625 C 6.71875 -5.140625 6.96875 -4.3125 6.96875 -3.28125 C 6.96875 -2.25 6.71875 -1.414062 6.21875 -0.78125 C 5.71875 -0.144531 5.066406 0.171875 4.265625 0.171875 C 3.785156 0.171875 3.375 0.078125 3.03125 -0.109375 C 2.6875 -0.304688 2.398438 -0.597656 2.171875 -0.984375 L 2.171875 0 L 1.09375 0 L 1.09375 -9.125 L 2.171875 -9.125 Z M 2.171875 -5.5625 "/>
</symbol>
<symbol overflow="visible" id="3EpOu0Te2-3">
<path style="stroke:none;" d="M 1.125 -6.5625 L 2.203125 -6.5625 L 2.203125 0 L 1.125 0 Z M 1.125 -9.125 L 2.203125 -9.125 L 2.203125 -7.75 L 1.125 -7.75 Z M 1.125 -9.125 "/>
</symbol>
<symbol overflow="visible" id="3EpOu0Te2-4">
<path style="stroke:none;" d="M 1.125 -9.125 L 2.203125 -9.125 L 2.203125 0 L 1.125 0 Z M 1.125 -9.125 "/>
</symbol>
<symbol overflow="visible" id="3EpOu0Te2-5">
<path style="stroke:none;" d="M 2.203125 -8.421875 L 2.203125 -6.5625 L 4.421875 -6.5625 L 4.421875 -5.71875 L 2.203125 -5.71875 L 2.203125 -2.15625 C 2.203125 -1.625 2.273438 -1.28125 2.421875 -1.125 C 2.566406 -0.976562 2.863281 -0.90625 3.3125 -0.90625 L 4.421875 -0.90625 L 4.421875 0 L 3.3125 0 C 2.476562 0 1.898438 -0.15625 1.578125 -0.46875 C 1.265625 -0.78125 1.109375 -1.34375 1.109375 -2.15625 L 1.109375 -5.71875 L 0.328125 -5.71875 L 0.328125 -6.5625 L 1.109375 -6.5625 L 1.109375 -8.421875 Z M 2.203125 -8.421875 "/>
</symbol>
<symbol overflow="visible" id="3EpOu0Te2-6">
<path style="stroke:none;" d="M 4.109375 -3.296875 C 3.242188 -3.296875 2.640625 -3.195312 2.296875 -3 C 1.960938 -2.800781 1.796875 -2.460938 1.796875 -1.984375 C 1.796875 -1.597656 1.921875 -1.289062 2.171875 -1.0625 C 2.429688 -0.84375 2.773438 -0.734375 3.203125 -0.734375 C 3.804688 -0.734375 4.285156 -0.941406 4.640625 -1.359375 C 5.003906 -1.785156 5.1875 -2.351562 5.1875 -3.0625 L 5.1875 -3.296875 Z M 6.265625 -3.75 L 6.265625 0 L 5.1875 0 L 5.1875 -1 C 4.9375 -0.601562 4.628906 -0.304688 4.265625 -0.109375 C 3.898438 0.078125 3.453125 0.171875 2.921875 0.171875 C 2.242188 0.171875 1.707031 -0.015625 1.3125 -0.390625 C 0.914062 -0.773438 0.71875 -1.28125 0.71875 -1.90625 C 0.71875 -2.644531 0.960938 -3.203125 1.453125 -3.578125 C 1.953125 -3.953125 2.691406 -4.140625 3.671875 -4.140625 L 5.1875 -4.140625 L 5.1875 -4.25 C 5.1875 -4.75 5.019531 -5.132812 4.6875 -5.40625 C 4.363281 -5.675781 3.910156 -5.8125 3.328125 -5.8125 C 2.953125 -5.8125 2.582031 -5.765625 2.21875 -5.671875 C 1.863281 -5.578125 1.523438 -5.441406 1.203125 -5.265625 L 1.203125 -6.265625 C 1.597656 -6.421875 1.976562 -6.535156 2.34375 -6.609375 C 2.71875 -6.679688 3.082031 -6.71875 3.4375 -6.71875 C 4.382812 -6.71875 5.09375 -6.472656 5.5625 -5.984375 C 6.03125 -5.492188 6.265625 -4.75 6.265625 -3.75 Z M 6.265625 -3.75 "/>
</symbol>
<symbol overflow="visible" id="3EpOu0Te2-7">
<path style="stroke:none;" d="M 5.3125 -6.375 L 5.3125 -5.34375 C 5.007812 -5.5 4.691406 -5.613281 4.359375 -5.6875 C 4.035156 -5.769531 3.695312 -5.8125 3.34375 -5.8125 C 2.8125 -5.8125 2.410156 -5.726562 2.140625 -5.5625 C 1.867188 -5.40625 1.734375 -5.160156 1.734375 -4.828125 C 1.734375 -4.578125 1.828125 -4.378906 2.015625 -4.234375 C 2.210938 -4.097656 2.601562 -3.96875 3.1875 -3.84375 L 3.546875 -3.75 C 4.316406 -3.59375 4.863281 -3.363281 5.1875 -3.0625 C 5.507812 -2.757812 5.671875 -2.34375 5.671875 -1.8125 C 5.671875 -1.195312 5.425781 -0.710938 4.9375 -0.359375 C 4.457031 -0.00390625 3.796875 0.171875 2.953125 0.171875 C 2.597656 0.171875 2.226562 0.132812 1.84375 0.0625 C 1.46875 0 1.070312 -0.0976562 0.65625 -0.234375 L 0.65625 -1.359375 C 1.050781 -1.148438 1.441406 -0.992188 1.828125 -0.890625 C 2.210938 -0.785156 2.597656 -0.734375 2.984375 -0.734375 C 3.484375 -0.734375 3.867188 -0.816406 4.140625 -0.984375 C 4.421875 -1.160156 4.5625 -1.410156 4.5625 -1.734375 C 4.5625 -2.023438 4.460938 -2.25 4.265625 -2.40625 C 4.066406 -2.5625 3.632812 -2.710938 2.96875 -2.859375 L 2.59375 -2.9375 C 1.925781 -3.082031 1.441406 -3.300781 1.140625 -3.59375 C 0.847656 -3.882812 0.703125 -4.28125 0.703125 -4.78125 C 0.703125 -5.40625 0.921875 -5.882812 1.359375 -6.21875 C 1.796875 -6.550781 2.414062 -6.71875 3.21875 -6.71875 C 3.613281 -6.71875 3.988281 -6.6875 4.34375 -6.625 C 4.695312 -6.570312 5.019531 -6.488281 5.3125 -6.375 Z M 5.3125 -6.375 "/>
</symbol>
<symbol overflow="visible" id="3EpOu0Te3-0">
<path style="stroke:none;" d="M 0.59375 2.125 L 0.59375 -8.46875 L 6.59375 -8.46875 L 6.59375 2.125 Z M 1.265625 1.453125 L 5.9375 1.453125 L 5.9375 -7.78125 L 1.265625 -7.78125 Z M 1.265625 1.453125 "/>
</symbol>
<symbol overflow="visible" id="3EpOu0Te3-1">
<path style="stroke:none;" d="M 1.28125 -1.484375 L 2.515625 -1.484375 L 2.515625 0 L 1.28125 0 Z M 1.28125 -1.484375 "/>
</symbol>
<symbol overflow="visible" id="3EpOu0Te3-2">
<path style="stroke:none;" d="M 1.484375 -1 L 3.421875 -1 L 3.421875 -7.671875 L 1.3125 -7.25 L 1.3125 -8.328125 L 3.40625 -8.75 L 4.59375 -8.75 L 4.59375 -1 L 6.53125 -1 L 6.53125 0 L 1.484375 0 Z M 1.484375 -1 "/>
</symbol>
<symbol overflow="visible" id="3EpOu0Te3-3">
<path style="stroke:none;" d="M 3.8125 -7.96875 C 3.207031 -7.96875 2.75 -7.664062 2.4375 -7.0625 C 2.132812 -6.46875 1.984375 -5.566406 1.984375 -4.359375 C 1.984375 -3.160156 2.132812 -2.257812 2.4375 -1.65625 C 2.75 -1.0625 3.207031 -0.765625 3.8125 -0.765625 C 4.425781 -0.765625 4.882812 -1.0625 5.1875 -1.65625 C 5.5 -2.257812 5.65625 -3.160156 5.65625 -4.359375 C 5.65625 -5.566406 5.5 -6.46875 5.1875 -7.0625 C 4.882812 -7.664062 4.425781 -7.96875 3.8125 -7.96875 Z M 3.8125 -8.90625 C 4.789062 -8.90625 5.539062 -8.515625 6.0625 -7.734375 C 6.582031 -6.960938 6.84375 -5.835938 6.84375 -4.359375 C 6.84375 -2.890625 6.582031 -1.765625 6.0625 -0.984375 C 5.539062 -0.210938 4.789062 0.171875 3.8125 0.171875 C 2.832031 0.171875 2.082031 -0.210938 1.5625 -0.984375 C 1.050781 -1.765625 0.796875 -2.890625 0.796875 -4.359375 C 0.796875 -5.835938 1.050781 -6.960938 1.5625 -7.734375 C 2.082031 -8.515625 2.832031 -8.90625 3.8125 -8.90625 Z M 3.8125 -8.90625 "/>
</symbol>
<symbol overflow="visible" id="3EpOu0Te3-4">
<path style="stroke:none;" d="M 2.359375 -7.78125 L 2.359375 -4.484375 L 3.84375 -4.484375 C 4.394531 -4.484375 4.820312 -4.625 5.125 -4.90625 C 5.425781 -5.195312 5.578125 -5.609375 5.578125 -6.140625 C 5.578125 -6.660156 5.425781 -7.0625 5.125 -7.34375 C 4.820312 -7.632812 4.394531 -7.78125 3.84375 -7.78125 Z M 1.171875 -8.75 L 3.84375 -8.75 C 4.832031 -8.75 5.578125 -8.523438 6.078125 -8.078125 C 6.578125 -7.640625 6.828125 -6.992188 6.828125 -6.140625 C 6.828125 -5.273438 6.578125 -4.617188 6.078125 -4.171875 C 5.578125 -3.734375 4.832031 -3.515625 3.84375 -3.515625 L 2.359375 -3.515625 L 2.359375 0 L 1.171875 0 Z M 1.171875 -8.75 "/>
</symbol>
<symbol overflow="visible" id="3EpOu0Te3-5">
<path style="stroke:none;" d="M 4.9375 -5.5625 C 4.8125 -5.625 4.675781 -5.671875 4.53125 -5.703125 C 4.394531 -5.742188 4.238281 -5.765625 4.0625 -5.765625 C 3.457031 -5.765625 2.988281 -5.566406 2.65625 -5.171875 C 2.332031 -4.773438 2.171875 -4.203125 2.171875 -3.453125 L 2.171875 0 L 1.09375 0 L 1.09375 -6.5625 L 2.171875 -6.5625 L 2.171875 -5.546875 C 2.398438 -5.941406 2.695312 -6.234375 3.0625 -6.421875 C 3.425781 -6.617188 3.867188 -6.71875 4.390625 -6.71875 C 4.460938 -6.71875 4.539062 -6.710938 4.625 -6.703125 C 4.71875 -6.691406 4.816406 -6.675781 4.921875 -6.65625 Z M 4.9375 -5.5625 "/>
</symbol>
<symbol overflow="visible" id="3EpOu0Te3-6">
<path style="stroke:none;" d="M 3.671875 -5.8125 C 3.097656 -5.8125 2.640625 -5.582031 2.296875 -5.125 C 1.960938 -4.675781 1.796875 -4.0625 1.796875 -3.28125 C 1.796875 -2.488281 1.960938 -1.867188 2.296875 -1.421875 C 2.628906 -0.972656 3.085938 -0.75 3.671875 -0.75 C 4.242188 -0.75 4.695312 -0.972656 5.03125 -1.421875 C 5.375 -1.878906 5.546875 -2.5 5.546875 -3.28125 C 5.546875 -4.050781 5.375 -4.664062 5.03125 -5.125 C 4.695312 -5.582031 4.242188 -5.8125 3.671875 -5.8125 Z M 3.671875 -6.71875 C 4.609375 -6.71875 5.34375 -6.410156 5.875 -5.796875 C 6.414062 -5.191406 6.6875 -4.351562 6.6875 -3.28125 C 6.6875 -2.207031 6.414062 -1.363281 5.875 -0.75 C 5.34375 -0.132812 4.609375 0.171875 3.671875 0.171875 C 2.734375 0.171875 1.992188 -0.132812 1.453125 -0.75 C 0.921875 -1.363281 0.65625 -2.207031 0.65625 -3.28125 C 0.65625 -4.351562 0.921875 -5.191406 1.453125 -5.796875 C 1.992188 -6.410156 2.734375 -6.71875 3.671875 -6.71875 Z M 3.671875 -6.71875 "/>
</symbol>
<symbol overflow="visible" id="3EpOu0Te3-7">
<path style="stroke:none;" d="M 5.84375 -3.28125 C 5.84375 -4.070312 5.675781 -4.691406 5.34375 -5.140625 C 5.019531 -5.585938 4.578125 -5.8125 4.015625 -5.8125 C 3.441406 -5.8125 2.988281 -5.585938 2.65625 -5.140625 C 2.332031 -4.691406 2.171875 -4.070312 2.171875 -3.28125 C 2.171875 -2.488281 2.332031 -1.863281 2.65625 -1.40625 C 2.988281 -0.957031 3.441406 -0.734375 4.015625 -0.734375 C 4.578125 -0.734375 5.019531 -0.957031 5.34375 -1.40625 C 5.675781 -1.863281 5.84375 -2.488281 5.84375 -3.28125 Z M 2.171875 -5.5625 C 2.398438 -5.957031 2.6875 -6.25 3.03125 -6.4375 C 3.375 -6.625 3.785156 -6.71875 4.265625 -6.71875 C 5.066406 -6.71875 5.71875 -6.398438 6.21875 -5.765625 C 6.71875 -5.140625 6.96875 -4.3125 6.96875 -3.28125 C 6.96875 -2.25 6.71875 -1.414062 6.21875 -0.78125 C 5.71875 -0.144531 5.066406 0.171875 4.265625 0.171875 C 3.785156 0.171875 3.375 0.078125 3.03125 -0.109375 C 2.6875 -0.304688 2.398438 -0.597656 2.171875 -0.984375 L 2.171875 0 L 1.09375 0 L 1.09375 -9.125 L 2.171875 -9.125 Z M 2.171875 -5.5625 "/>
</symbol>
<symbol overflow="visible" id="3EpOu0Te3-8">
<path style="stroke:none;" d="M 4.109375 -3.296875 C 3.242188 -3.296875 2.640625 -3.195312 2.296875 -3 C 1.960938 -2.800781 1.796875 -2.460938 1.796875 -1.984375 C 1.796875 -1.597656 1.921875 -1.289062 2.171875 -1.0625 C 2.429688 -0.84375 2.773438 -0.734375 3.203125 -0.734375 C 3.804688 -0.734375 4.285156 -0.941406 4.640625 -1.359375 C 5.003906 -1.785156 5.1875 -2.351562 5.1875 -3.0625 L 5.1875 -3.296875 Z M 6.265625 -3.75 L 6.265625 0 L 5.1875 0 L 5.1875 -1 C 4.9375 -0.601562 4.628906 -0.304688 4.265625 -0.109375 C 3.898438 0.078125 3.453125 0.171875 2.921875 0.171875 C 2.242188 0.171875 1.707031 -0.015625 1.3125 -0.390625 C 0.914062 -0.773438 0.71875 -1.28125 0.71875 -1.90625 C 0.71875 -2.644531 0.960938 -3.203125 1.453125 -3.578125 C 1.953125 -3.953125 2.691406 -4.140625 3.671875 -4.140625 L 5.1875 -4.140625 L 5.1875 -4.25 C 5.1875 -4.75 5.019531 -5.132812 4.6875 -5.40625 C 4.363281 -5.675781 3.910156 -5.8125 3.328125 -5.8125 C 2.953125 -5.8125 2.582031 -5.765625 2.21875 -5.671875 C 1.863281 -5.578125 1.523438 -5.441406 1.203125 -5.265625 L 1.203125 -6.265625 C 1.597656 -6.421875 1.976562 -6.535156 2.34375 -6.609375 C 2.71875 -6.679688 3.082031 -6.71875 3.4375 -6.71875 C 4.382812 -6.71875 5.09375 -6.472656 5.5625 -5.984375 C 6.03125 -5.492188 6.265625 -4.75 6.265625 -3.75 Z M 6.265625 -3.75 "/>
</symbol>
<symbol overflow="visible" id="3EpOu0Te3-9">
<path style="stroke:none;" d="M 4.453125 -9.125 L 4.453125 -8.21875 L 3.421875 -8.21875 C 3.035156 -8.21875 2.765625 -8.140625 2.609375 -7.984375 C 2.460938 -7.828125 2.390625 -7.546875 2.390625 -7.140625 L 2.390625 -6.5625 L 4.171875 -6.5625 L 4.171875 -5.71875 L 2.390625 -5.71875 L 2.390625 0 L 1.3125 0 L 1.3125 -5.71875 L 0.28125 -5.71875 L 0.28125 -6.5625 L 1.3125 -6.5625 L 1.3125 -7.015625 C 1.3125 -7.742188 1.476562 -8.273438 1.8125 -8.609375 C 2.15625 -8.953125 2.695312 -9.125 3.4375 -9.125 Z M 4.453125 -9.125 "/>
</symbol>
<symbol overflow="visible" id="3EpOu0Te3-10">
<path style="stroke:none;" d="M 6.75 -3.546875 L 6.75 -3.03125 L 1.78125 -3.03125 C 1.832031 -2.28125 2.054688 -1.710938 2.453125 -1.328125 C 2.859375 -0.941406 3.414062 -0.75 4.125 -0.75 C 4.539062 -0.75 4.941406 -0.796875 5.328125 -0.890625 C 5.722656 -0.992188 6.113281 -1.148438 6.5 -1.359375 L 6.5 -0.328125 C 6.101562 -0.171875 5.703125 -0.0507812 5.296875 0.03125 C 4.890625 0.125 4.476562 0.171875 4.0625 0.171875 C 3.019531 0.171875 2.191406 -0.128906 1.578125 -0.734375 C 0.960938 -1.347656 0.65625 -2.175781 0.65625 -3.21875 C 0.65625 -4.289062 0.945312 -5.140625 1.53125 -5.765625 C 2.113281 -6.398438 2.894531 -6.71875 3.875 -6.71875 C 4.757812 -6.71875 5.457031 -6.429688 5.96875 -5.859375 C 6.488281 -5.296875 6.75 -4.523438 6.75 -3.546875 Z M 5.671875 -3.875 C 5.660156 -4.457031 5.492188 -4.925781 5.171875 -5.28125 C 4.847656 -5.632812 4.421875 -5.8125 3.890625 -5.8125 C 3.285156 -5.8125 2.800781 -5.640625 2.4375 -5.296875 C 2.082031 -4.953125 1.878906 -4.472656 1.828125 -3.859375 Z M 5.671875 -3.875 "/>
</symbol>
<symbol overflow="visible" id="3EpOu0Te3-11">
<path style="stroke:none;" d="M 5.453125 -5.5625 L 5.453125 -9.125 L 6.53125 -9.125 L 6.53125 0 L 5.453125 0 L 5.453125 -0.984375 C 5.222656 -0.597656 4.9375 -0.304688 4.59375 -0.109375 C 4.25 0.078125 3.832031 0.171875 3.34375 0.171875 C 2.550781 0.171875 1.90625 -0.144531 1.40625 -0.78125 C 0.90625 -1.414062 0.65625 -2.25 0.65625 -3.28125 C 0.65625 -4.3125 0.90625 -5.140625 1.40625 -5.765625 C 1.90625 -6.398438 2.550781 -6.71875 3.34375 -6.71875 C 3.832031 -6.71875 4.25 -6.625 4.59375 -6.4375 C 4.9375 -6.25 5.222656 -5.957031 5.453125 -5.5625 Z M 1.78125 -3.28125 C 1.78125 -2.488281 1.941406 -1.863281 2.265625 -1.40625 C 2.585938 -0.957031 3.035156 -0.734375 3.609375 -0.734375 C 4.179688 -0.734375 4.628906 -0.957031 4.953125 -1.40625 C 5.285156 -1.863281 5.453125 -2.488281 5.453125 -3.28125 C 5.453125 -4.070312 5.285156 -4.691406 4.953125 -5.140625 C 4.628906 -5.585938 4.179688 -5.8125 3.609375 -5.8125 C 3.035156 -5.8125 2.585938 -5.585938 2.265625 -5.140625 C 1.941406 -4.691406 1.78125 -4.070312 1.78125 -3.28125 Z M 1.78125 -3.28125 "/>
</symbol>
<symbol overflow="visible" id="3EpOu0Te4-0">
<path style="stroke:none;" d="M 0.59375 2.125 L 0.59375 -8.46875 L 6.59375 -8.46875 L 6.59375 2.125 Z M 1.265625 1.453125 L 5.9375 1.453125 L 5.9375 -7.78125 L 1.265625 -7.78125 Z M 1.265625 1.453125 "/>
</symbol>
<symbol overflow="visible" id="3EpOu0Te4-1">
<path style="stroke:none;" d="M 1.296875 -8.75 L 5.9375 -8.75 L 5.9375 -7.75 L 2.375 -7.75 L 2.375 -5.609375 C 2.550781 -5.671875 2.722656 -5.710938 2.890625 -5.734375 C 3.066406 -5.765625 3.238281 -5.78125 3.40625 -5.78125 C 4.382812 -5.78125 5.160156 -5.507812 5.734375 -4.96875 C 6.304688 -4.4375 6.59375 -3.71875 6.59375 -2.8125 C 6.59375 -1.863281 6.296875 -1.128906 5.703125 -0.609375 C 5.117188 -0.0859375 4.296875 0.171875 3.234375 0.171875 C 2.859375 0.171875 2.476562 0.140625 2.09375 0.078125 C 1.71875 0.015625 1.328125 -0.078125 0.921875 -0.203125 L 0.921875 -1.390625 C 1.273438 -1.203125 1.640625 -1.0625 2.015625 -0.96875 C 2.390625 -0.875 2.785156 -0.828125 3.203125 -0.828125 C 3.878906 -0.828125 4.414062 -1.003906 4.8125 -1.359375 C 5.207031 -1.710938 5.40625 -2.195312 5.40625 -2.8125 C 5.40625 -3.414062 5.207031 -3.894531 4.8125 -4.25 C 4.414062 -4.601562 3.878906 -4.78125 3.203125 -4.78125 C 2.890625 -4.78125 2.570312 -4.742188 2.25 -4.671875 C 1.9375 -4.609375 1.617188 -4.503906 1.296875 -4.359375 Z M 1.296875 -8.75 "/>
</symbol>
<symbol overflow="visible" id="3EpOu0Te4-2">
<path style="stroke:none;" d="M 3.859375 0.609375 C 3.554688 1.390625 3.257812 1.898438 2.96875 2.140625 C 2.675781 2.378906 2.289062 2.5 1.8125 2.5 L 0.953125 2.5 L 0.953125 1.59375 L 1.578125 1.59375 C 1.878906 1.59375 2.109375 1.519531 2.265625 1.375 C 2.429688 1.238281 2.613281 0.910156 2.8125 0.390625 L 3.015625 -0.109375 L 0.359375 -6.5625 L 1.5 -6.5625 L 3.546875 -1.4375 L 5.609375 -6.5625 L 6.75 -6.5625 Z M 3.859375 0.609375 "/>
</symbol>
<symbol overflow="visible" id="3EpOu0Te4-3">
<path style="stroke:none;" d=""/>
</symbol>
<symbol overflow="visible" id="3EpOu0Te4-4">
<path style="stroke:none;" d="M 3.671875 -5.8125 C 3.097656 -5.8125 2.640625 -5.582031 2.296875 -5.125 C 1.960938 -4.675781 1.796875 -4.0625 1.796875 -3.28125 C 1.796875 -2.488281 1.960938 -1.867188 2.296875 -1.421875 C 2.628906 -0.972656 3.085938 -0.75 3.671875 -0.75 C 4.242188 -0.75 4.695312 -0.972656 5.03125 -1.421875 C 5.375 -1.878906 5.546875 -2.5 5.546875 -3.28125 C 5.546875 -4.050781 5.375 -4.664062 5.03125 -5.125 C 4.695312 -5.582031 4.242188 -5.8125 3.671875 -5.8125 Z M 3.671875 -6.71875 C 4.609375 -6.71875 5.34375 -6.410156 5.875 -5.796875 C 6.414062 -5.191406 6.6875 -4.351562 6.6875 -3.28125 C 6.6875 -2.207031 6.414062 -1.363281 5.875 -0.75 C 5.34375 -0.132812 4.609375 0.171875 3.671875 0.171875 C 2.734375 0.171875 1.992188 -0.132812 1.453125 -0.75 C 0.921875 -1.363281 0.65625 -2.207031 0.65625 -3.28125 C 0.65625 -4.351562 0.921875 -5.191406 1.453125 -5.796875 C 1.992188 -6.410156 2.734375 -6.71875 3.671875 -6.71875 Z M 3.671875 -6.71875 "/>
</symbol>
<symbol overflow="visible" id="3EpOu0Te4-5">
<path style="stroke:none;" d="M 6.59375 -3.96875 L 6.59375 0 L 5.515625 0 L 5.515625 -3.921875 C 5.515625 -4.546875 5.390625 -5.007812 5.140625 -5.3125 C 4.898438 -5.625 4.539062 -5.78125 4.0625 -5.78125 C 3.476562 -5.78125 3.015625 -5.59375 2.671875 -5.21875 C 2.335938 -4.851562 2.171875 -4.347656 2.171875 -3.703125 L 2.171875 0 L 1.09375 0 L 1.09375 -9.125 L 2.171875 -9.125 L 2.171875 -5.546875 C 2.429688 -5.941406 2.734375 -6.234375 3.078125 -6.421875 C 3.429688 -6.617188 3.835938 -6.71875 4.296875 -6.71875 C 5.046875 -6.71875 5.613281 -6.484375 6 -6.015625 C 6.394531 -5.554688 6.59375 -4.875 6.59375 -3.96875 Z M 6.59375 -3.96875 "/>
</symbol>
<symbol overflow="visible" id="3EpOu0Te5-0">
<path style="stroke:none;" d="M 0.59375 2.125 L 0.59375 -8.46875 L 6.59375 -8.46875 L 6.59375 2.125 Z M 1.265625 1.453125 L 5.9375 1.453125 L 5.9375 -7.78125 L 1.265625 -7.78125 Z M 1.265625 1.453125 "/>
</symbol>
<symbol overflow="visible" id="3EpOu0Te5-1">
<path style="stroke:none;" d="M 3.8125 -7.96875 C 3.207031 -7.96875 2.75 -7.664062 2.4375 -7.0625 C 2.132812 -6.46875 1.984375 -5.566406 1.984375 -4.359375 C 1.984375 -3.160156 2.132812 -2.257812 2.4375 -1.65625 C 2.75 -1.0625 3.207031 -0.765625 3.8125 -0.765625 C 4.425781 -0.765625 4.882812 -1.0625 5.1875 -1.65625 C 5.5 -2.257812 5.65625 -3.160156 5.65625 -4.359375 C 5.65625 -5.566406 5.5 -6.46875 5.1875 -7.0625 C 4.882812 -7.664062 4.425781 -7.96875 3.8125 -7.96875 Z M 3.8125 -8.90625 C 4.789062 -8.90625 5.539062 -8.515625 6.0625 -7.734375 C 6.582031 -6.960938 6.84375 -5.835938 6.84375 -4.359375 C 6.84375 -2.890625 6.582031 -1.765625 6.0625 -0.984375 C 5.539062 -0.210938 4.789062 0.171875 3.8125 0.171875 C 2.832031 0.171875 2.082031 -0.210938 1.5625 -0.984375 C 1.050781 -1.765625 0.796875 -2.890625 0.796875 -4.359375 C 0.796875 -5.835938 1.050781 -6.960938 1.5625 -7.734375 C 2.082031 -8.515625 2.832031 -8.90625 3.8125 -8.90625 Z M 3.8125 -8.90625 "/>
</symbol>
<symbol overflow="visible" id="3EpOu0Te6-0">
<path style="stroke:none;" d="M 0.59375 2.125 L 0.59375 -8.46875 L 6.59375 -8.46875 L 6.59375 2.125 Z M 1.265625 1.453125 L 5.9375 1.453125 L 5.9375 -7.78125 L 1.265625 -7.78125 Z M 1.265625 1.453125 "/>
</symbol>
<symbol overflow="visible" id="3EpOu0Te6-1">
<path style="stroke:none;" d="M 2.296875 -1 L 6.4375 -1 L 6.4375 0 L 0.875 0 L 0.875 -1 C 1.320312 -1.457031 1.929688 -2.078125 2.703125 -2.859375 C 3.484375 -3.648438 3.972656 -4.160156 4.171875 -4.390625 C 4.554688 -4.804688 4.820312 -5.160156 4.96875 -5.453125 C 5.125 -5.753906 5.203125 -6.046875 5.203125 -6.328125 C 5.203125 -6.796875 5.035156 -7.175781 4.703125 -7.46875 C 4.378906 -7.757812 3.957031 -7.90625 3.4375 -7.90625 C 3.0625 -7.90625 2.664062 -7.84375 2.25 -7.71875 C 1.84375 -7.59375 1.40625 -7.394531 0.9375 -7.125 L 0.9375 -8.328125 C 1.414062 -8.515625 1.859375 -8.65625 2.265625 -8.75 C 2.679688 -8.851562 3.0625 -8.90625 3.40625 -8.90625 C 4.3125 -8.90625 5.035156 -8.675781 5.578125 -8.21875 C 6.117188 -7.769531 6.390625 -7.164062 6.390625 -6.40625 C 6.390625 -6.050781 6.320312 -5.710938 6.1875 -5.390625 C 6.050781 -5.066406 5.804688 -4.6875 5.453125 -4.25 C 5.347656 -4.132812 5.035156 -3.804688 4.515625 -3.265625 C 3.992188 -2.722656 3.253906 -1.96875 2.296875 -1 Z M 2.296875 -1 "/>
</symbol>
<symbol overflow="visible" id="3EpOu0Te6-2">
<path style="stroke:none;" d="M 4.53125 -7.71875 L 1.546875 -3.046875 L 4.53125 -3.046875 Z M 4.21875 -8.75 L 5.71875 -8.75 L 5.71875 -3.046875 L 6.96875 -3.046875 L 6.96875 -2.0625 L 5.71875 -2.0625 L 5.71875 0 L 4.53125 0 L 4.53125 -2.0625 L 0.59375 -2.0625 L 0.59375 -3.203125 Z M 4.21875 -8.75 "/>
</symbol>
<symbol overflow="visible" id="3EpOu0Te7-0">
<path style="stroke:none;" d="M 0.59375 2.125 L 0.59375 -8.46875 L 6.59375 -8.46875 L 6.59375 2.125 Z M 1.265625 1.453125 L 5.9375 1.453125 L 5.9375 -7.78125 L 1.265625 -7.78125 Z M 1.265625 1.453125 "/>
</symbol>
<symbol overflow="visible" id="3EpOu0Te7-1">
<path style="stroke:none;" d="M 3.8125 -7.96875 C 3.207031 -7.96875 2.75 -7.664062 2.4375 -7.0625 C 2.132812 -6.46875 1.984375 -5.566406 1.984375 -4.359375 C 1.984375 -3.160156 2.132812 -2.257812 2.4375 -1.65625 C 2.75 -1.0625 3.207031 -0.765625 3.8125 -0.765625 C 4.425781 -0.765625 4.882812 -1.0625 5.1875 -1.65625 C 5.5 -2.257812 5.65625 -3.160156 5.65625 -4.359375 C 5.65625 -5.566406 5.5 -6.46875 5.1875 -7.0625 C 4.882812 -7.664062 4.425781 -7.96875 3.8125 -7.96875 Z M 3.8125 -8.90625 C 4.789062 -8.90625 5.539062 -8.515625 6.0625 -7.734375 C 6.582031 -6.960938 6.84375 -5.835938 6.84375 -4.359375 C 6.84375 -2.890625 6.582031 -1.765625 6.0625 -0.984375 C 5.539062 -0.210938 4.789062 0.171875 3.8125 0.171875 C 2.832031 0.171875 2.082031 -0.210938 1.5625 -0.984375 C 1.050781 -1.765625 0.796875 -2.890625 0.796875 -4.359375 C 0.796875 -5.835938 1.050781 -6.960938 1.5625 -7.734375 C 2.082031 -8.515625 2.832031 -8.90625 3.8125 -8.90625 Z M 3.8125 -8.90625 "/>
</symbol>
<symbol overflow="visible" id="3EpOu0Te8-0">
<path style="stroke:none;" d="M 0.59375 2.125 L 0.59375 -8.46875 L 6.59375 -8.46875 L 6.59375 2.125 Z M 1.265625 1.453125 L 5.9375 1.453125 L 5.9375 -7.78125 L 1.265625 -7.78125 Z M 1.265625 1.453125 "/>
</symbol>
<symbol overflow="visible" id="3EpOu0Te8-1">
<path style="stroke:none;" d="M 3.96875 -4.84375 C 3.4375 -4.84375 3.015625 -4.660156 2.703125 -4.296875 C 2.390625 -3.929688 2.234375 -3.4375 2.234375 -2.8125 C 2.234375 -2.175781 2.390625 -1.675781 2.703125 -1.3125 C 3.015625 -0.945312 3.4375 -0.765625 3.96875 -0.765625 C 4.5 -0.765625 4.914062 -0.945312 5.21875 -1.3125 C 5.53125 -1.675781 5.6875 -2.175781 5.6875 -2.8125 C 5.6875 -3.4375 5.53125 -3.929688 5.21875 -4.296875 C 4.914062 -4.660156 4.5 -4.84375 3.96875 -4.84375 Z M 6.3125 -8.5625 L 6.3125 -7.484375 C 6.007812 -7.617188 5.707031 -7.722656 5.40625 -7.796875 C 5.101562 -7.867188 4.804688 -7.90625 4.515625 -7.90625 C 3.734375 -7.90625 3.132812 -7.640625 2.71875 -7.109375 C 2.3125 -6.585938 2.078125 -5.796875 2.015625 -4.734375 C 2.242188 -5.066406 2.53125 -5.320312 2.875 -5.5 C 3.226562 -5.6875 3.613281 -5.78125 4.03125 -5.78125 C 4.90625 -5.78125 5.597656 -5.515625 6.109375 -4.984375 C 6.617188 -4.453125 6.875 -3.726562 6.875 -2.8125 C 6.875 -1.90625 6.609375 -1.179688 6.078125 -0.640625 C 5.546875 -0.0976562 4.84375 0.171875 3.96875 0.171875 C 2.945312 0.171875 2.171875 -0.210938 1.640625 -0.984375 C 1.109375 -1.765625 0.84375 -2.890625 0.84375 -4.359375 C 0.84375 -5.742188 1.171875 -6.847656 1.828125 -7.671875 C 2.484375 -8.492188 3.363281 -8.90625 4.46875 -8.90625 C 4.757812 -8.90625 5.054688 -8.875 5.359375 -8.8125 C 5.660156 -8.757812 5.976562 -8.675781 6.3125 -8.5625 Z M 6.3125 -8.5625 "/>
</symbol>
<symbol overflow="visible" id="3EpOu0Te8-2">
<path style="stroke:none;" d="M 3.8125 -4.15625 C 3.25 -4.15625 2.804688 -4.003906 2.484375 -3.703125 C 2.160156 -3.398438 2 -2.988281 2 -2.46875 C 2 -1.9375 2.160156 -1.519531 2.484375 -1.21875 C 2.804688 -0.914062 3.25 -0.765625 3.8125 -0.765625 C 4.375 -0.765625 4.816406 -0.914062 5.140625 -1.21875 C 5.460938 -1.519531 5.625 -1.9375 5.625 -2.46875 C 5.625 -2.988281 5.460938 -3.398438 5.140625 -3.703125 C 4.828125 -4.003906 4.382812 -4.15625 3.8125 -4.15625 Z M 2.625 -4.65625 C 2.125 -4.78125 1.726562 -5.015625 1.4375 -5.359375 C 1.15625 -5.710938 1.015625 -6.140625 1.015625 -6.640625 C 1.015625 -7.335938 1.265625 -7.890625 1.765625 -8.296875 C 2.265625 -8.703125 2.945312 -8.90625 3.8125 -8.90625 C 4.6875 -8.90625 5.367188 -8.703125 5.859375 -8.296875 C 6.359375 -7.890625 6.609375 -7.335938 6.609375 -6.640625 C 6.609375 -6.140625 6.46875 -5.710938 6.1875 -5.359375 C 5.90625 -5.015625 5.507812 -4.78125 5 -4.65625 C 5.570312 -4.519531 6.015625 -4.257812 6.328125 -3.875 C 6.648438 -3.488281 6.8125 -3.019531 6.8125 -2.46875 C 6.8125 -1.613281 6.550781 -0.957031 6.03125 -0.5 C 5.519531 -0.0507812 4.78125 0.171875 3.8125 0.171875 C 2.851562 0.171875 2.113281 -0.0507812 1.59375 -0.5 C 1.070312 -0.957031 0.8125 -1.613281 0.8125 -2.46875 C 0.8125 -3.019531 0.972656 -3.488281 1.296875 -3.875 C 1.617188 -4.257812 2.0625 -4.519531 2.625 -4.65625 Z M 2.203125 -6.53125 C 2.203125 -6.070312 2.34375 -5.71875 2.625 -5.46875 C 2.90625 -5.21875 3.300781 -5.09375 3.8125 -5.09375 C 4.320312 -5.09375 4.71875 -5.21875 5 -5.46875 C 5.289062 -5.71875 5.4375 -6.070312 5.4375 -6.53125 C 5.4375 -6.976562 5.289062 -7.328125 5 -7.578125 C 4.71875 -7.835938 4.320312 -7.96875 3.8125 -7.96875 C 3.300781 -7.96875 2.90625 -7.835938 2.625 -7.578125 C 2.34375 -7.328125 2.203125 -6.976562 2.203125 -6.53125 Z M 2.203125 -6.53125 "/>
</symbol>
<symbol overflow="visible" id="3EpOu0Te9-0">
<path style="stroke:none;" d="M 0.59375 2.125 L 0.59375 -8.46875 L 6.59375 -8.46875 L 6.59375 2.125 Z M 1.265625 1.453125 L 5.9375 1.453125 L 5.9375 -7.78125 L 1.265625 -7.78125 Z M 1.265625 1.453125 "/>
</symbol>
<symbol overflow="visible" id="3EpOu0Te9-1">
<path style="stroke:none;" d="M 3.8125 -7.96875 C 3.207031 -7.96875 2.75 -7.664062 2.4375 -7.0625 C 2.132812 -6.46875 1.984375 -5.566406 1.984375 -4.359375 C 1.984375 -3.160156 2.132812 -2.257812 2.4375 -1.65625 C 2.75 -1.0625 3.207031 -0.765625 3.8125 -0.765625 C 4.425781 -0.765625 4.882812 -1.0625 5.1875 -1.65625 C 5.5 -2.257812 5.65625 -3.160156 5.65625 -4.359375 C 5.65625 -5.566406 5.5 -6.46875 5.1875 -7.0625 C 4.882812 -7.664062 4.425781 -7.96875 3.8125 -7.96875 Z M 3.8125 -8.90625 C 4.789062 -8.90625 5.539062 -8.515625 6.0625 -7.734375 C 6.582031 -6.960938 6.84375 -5.835938 6.84375 -4.359375 C 6.84375 -2.890625 6.582031 -1.765625 6.0625 -0.984375 C 5.539062 -0.210938 4.789062 0.171875 3.8125 0.171875 C 2.832031 0.171875 2.082031 -0.210938 1.5625 -0.984375 C 1.050781 -1.765625 0.796875 -2.890625 0.796875 -4.359375 C 0.796875 -5.835938 1.050781 -6.960938 1.5625 -7.734375 C 2.082031 -8.515625 2.832031 -8.90625 3.8125 -8.90625 Z M 3.8125 -8.90625 "/>
</symbol>
<symbol overflow="visible" id="3EpOu0Te10-0">
<path style="stroke:none;" d="M 2.125 -0.59375 L -8.46875 -0.59375 L -8.46875 -6.59375 L 2.125 -6.59375 Z M 1.453125 -1.265625 L 1.453125 -5.9375 L -7.78125 -5.9375 L -7.78125 -1.265625 Z M 1.453125 -1.265625 "/>
</symbol>
<symbol overflow="visible" id="3EpOu0Te10-1">
<path style="stroke:none;" d="M -7.953125 -4.734375 C -7.953125 -3.867188 -7.628906 -3.179688 -6.984375 -2.671875 C -6.347656 -2.171875 -5.472656 -1.921875 -4.359375 -1.921875 C -3.265625 -1.921875 -2.394531 -2.171875 -1.75 -2.671875 C -1.113281 -3.179688 -0.796875 -3.867188 -0.796875 -4.734375 C -0.796875 -5.585938 -1.113281 -6.265625 -1.75 -6.765625 C -2.394531 -7.273438 -3.265625 -7.53125 -4.359375 -7.53125 C -5.472656 -7.53125 -6.347656 -7.273438 -6.984375 -6.765625 C -7.628906 -6.265625 -7.953125 -5.585938 -7.953125 -4.734375 Z M -8.90625 -4.734375 C -8.90625 -5.953125 -8.492188 -6.925781 -7.671875 -7.65625 C -6.847656 -8.394531 -5.742188 -8.765625 -4.359375 -8.765625 C -2.984375 -8.765625 -1.882812 -8.394531 -1.0625 -7.65625 C -0.238281 -6.925781 0.171875 -5.953125 0.171875 -4.734375 C 0.171875 -3.503906 -0.238281 -2.519531 -1.0625 -1.78125 C -1.882812 -1.039062 -2.984375 -0.671875 -4.359375 -0.671875 C -5.742188 -0.671875 -6.847656 -1.039062 -7.671875 -1.78125 C -8.492188 -2.519531 -8.90625 -3.503906 -8.90625 -4.734375 Z M -8.90625 -4.734375 "/>
</symbol>
<symbol overflow="visible" id="3EpOu0Te11-0">
<path style="stroke:none;" d="M 2.125 -0.59375 L -8.46875 -0.59375 L -8.46875 -6.59375 L 2.125 -6.59375 Z M 1.453125 -1.265625 L 1.453125 -5.9375 L -7.78125 -5.9375 L -7.78125 -1.265625 Z M 1.453125 -1.265625 "/>
</symbol>
<symbol overflow="visible" id="3EpOu0Te11-1">
<path style="stroke:none;" d="M -3.28125 -5.84375 C -4.070312 -5.84375 -4.691406 -5.675781 -5.140625 -5.34375 C -5.585938 -5.019531 -5.8125 -4.578125 -5.8125 -4.015625 C -5.8125 -3.441406 -5.585938 -2.988281 -5.140625 -2.65625 C -4.691406 -2.332031 -4.070312 -2.171875 -3.28125 -2.171875 C -2.488281 -2.171875 -1.863281 -2.332031 -1.40625 -2.65625 C -0.957031 -2.988281 -0.734375 -3.441406 -0.734375 -4.015625 C -0.734375 -4.578125 -0.957031 -5.019531 -1.40625 -5.34375 C -1.863281 -5.675781 -2.488281 -5.84375 -3.28125 -5.84375 Z M -5.5625 -2.171875 C -5.957031 -2.398438 -6.25 -2.6875 -6.4375 -3.03125 C -6.625 -3.375 -6.71875 -3.785156 -6.71875 -4.265625 C -6.71875 -5.066406 -6.398438 -5.71875 -5.765625 -6.21875 C -5.140625 -6.71875 -4.3125 -6.96875 -3.28125 -6.96875 C -2.25 -6.96875 -1.414062 -6.71875 -0.78125 -6.21875 C -0.144531 -5.71875 0.171875 -5.066406 0.171875 -4.265625 C 0.171875 -3.785156 0.078125 -3.375 -0.109375 -3.03125 C -0.304688 -2.6875 -0.597656 -2.398438 -0.984375 -2.171875 L 0 -2.171875 L 0 -1.09375 L -9.125 -1.09375 L -9.125 -2.171875 Z M -5.5625 -2.171875 "/>
</symbol>
<symbol overflow="visible" id="3EpOu0Te12-0">
<path style="stroke:none;" d="M 2.125 -0.59375 L -8.46875 -0.59375 L -8.46875 -6.59375 L 2.125 -6.59375 Z M 1.453125 -1.265625 L 1.453125 -5.9375 L -7.78125 -5.9375 L -7.78125 -1.265625 Z M 1.453125 -1.265625 "/>
</symbol>
<symbol overflow="visible" id="3EpOu0Te12-1">
<path style="stroke:none;" d="M -6.375 -5.3125 L -5.34375 -5.3125 C -5.5 -5.007812 -5.613281 -4.691406 -5.6875 -4.359375 C -5.769531 -4.035156 -5.8125 -3.695312 -5.8125 -3.34375 C -5.8125 -2.8125 -5.726562 -2.410156 -5.5625 -2.140625 C -5.40625 -1.867188 -5.160156 -1.734375 -4.828125 -1.734375 C -4.578125 -1.734375 -4.378906 -1.828125 -4.234375 -2.015625 C -4.097656 -2.210938 -3.96875 -2.601562 -3.84375 -3.1875 L -3.75 -3.546875 C -3.59375 -4.316406 -3.363281 -4.863281 -3.0625 -5.1875 C -2.757812 -5.507812 -2.34375 -5.671875 -1.8125 -5.671875 C -1.195312 -5.671875 -0.710938 -5.425781 -0.359375 -4.9375 C -0.00390625 -4.457031 0.171875 -3.796875 0.171875 -2.953125 C 0.171875 -2.597656 0.132812 -2.226562 0.0625 -1.84375 C 0 -1.46875 -0.0976562 -1.070312 -0.234375 -0.65625 L -1.359375 -0.65625 C -1.148438 -1.050781 -0.992188 -1.441406 -0.890625 -1.828125 C -0.785156 -2.210938 -0.734375 -2.597656 -0.734375 -2.984375 C -0.734375 -3.484375 -0.816406 -3.867188 -0.984375 -4.140625 C -1.160156 -4.421875 -1.410156 -4.5625 -1.734375 -4.5625 C -2.023438 -4.5625 -2.25 -4.460938 -2.40625 -4.265625 C -2.5625 -4.066406 -2.710938 -3.632812 -2.859375 -2.96875 L -2.9375 -2.59375 C -3.082031 -1.925781 -3.300781 -1.441406 -3.59375 -1.140625 C -3.882812 -0.847656 -4.28125 -0.703125 -4.78125 -0.703125 C -5.40625 -0.703125 -5.882812 -0.921875 -6.21875 -1.359375 C -6.550781 -1.796875 -6.71875 -2.414062 -6.71875 -3.21875 C -6.71875 -3.613281 -6.6875 -3.988281 -6.625 -4.34375 C -6.570312 -4.695312 -6.488281 -5.019531 -6.375 -5.3125 Z M -6.375 -5.3125 "/>
</symbol>
<symbol overflow="visible" id="3EpOu0Te12-2">
<path style="stroke:none;" d="M -3.546875 -6.75 L -3.03125 -6.75 L -3.03125 -1.78125 C -2.28125 -1.832031 -1.710938 -2.054688 -1.328125 -2.453125 C -0.941406 -2.859375 -0.75 -3.414062 -0.75 -4.125 C -0.75 -4.539062 -0.796875 -4.941406 -0.890625 -5.328125 C -0.992188 -5.722656 -1.148438 -6.113281 -1.359375 -6.5 L -0.328125 -6.5 C -0.171875 -6.101562 -0.0507812 -5.703125 0.03125 -5.296875 C 0.125 -4.890625 0.171875 -4.476562 0.171875 -4.0625 C 0.171875 -3.019531 -0.128906 -2.191406 -0.734375 -1.578125 C -1.347656 -0.960938 -2.175781 -0.65625 -3.21875 -0.65625 C -4.289062 -0.65625 -5.140625 -0.945312 -5.765625 -1.53125 C -6.398438 -2.113281 -6.71875 -2.894531 -6.71875 -3.875 C -6.71875 -4.757812 -6.429688 -5.457031 -5.859375 -5.96875 C -5.296875 -6.488281 -4.523438 -6.75 -3.546875 -6.75 Z M -3.875 -5.671875 C -4.457031 -5.660156 -4.925781 -5.492188 -5.28125 -5.171875 C -5.632812 -4.847656 -5.8125 -4.421875 -5.8125 -3.890625 C -5.8125 -3.285156 -5.640625 -2.800781 -5.296875 -2.4375 C -4.953125 -2.082031 -4.472656 -1.878906 -3.859375 -1.828125 Z M -3.875 -5.671875 "/>
</symbol>
<symbol overflow="visible" id="3EpOu0Te12-3">
<path style="stroke:none;" d="M -5.296875 -6.234375 C -5.785156 -6.503906 -6.144531 -6.828125 -6.375 -7.203125 C -6.601562 -7.578125 -6.71875 -8.019531 -6.71875 -8.53125 C -6.71875 -9.21875 -6.476562 -9.742188 -6 -10.109375 C -5.519531 -10.484375 -4.84375 -10.671875 -3.96875 -10.671875 L 0 -10.671875 L 0 -9.59375 L -3.921875 -9.59375 C -4.554688 -9.59375 -5.023438 -9.476562 -5.328125 -9.25 C -5.628906 -9.03125 -5.78125 -8.691406 -5.78125 -8.234375 C -5.78125 -7.671875 -5.59375 -7.226562 -5.21875 -6.90625 C -4.851562 -6.582031 -4.347656 -6.421875 -3.703125 -6.421875 L 0 -6.421875 L 0 -5.34375 L -3.921875 -5.34375 C -4.554688 -5.34375 -5.023438 -5.226562 -5.328125 -5 C -5.628906 -4.78125 -5.78125 -4.4375 -5.78125 -3.96875 C -5.78125 -3.414062 -5.59375 -2.976562 -5.21875 -2.65625 C -4.851562 -2.332031 -4.347656 -2.171875 -3.703125 -2.171875 L 0 -2.171875 L 0 -1.09375 L -6.5625 -1.09375 L -6.5625 -2.171875 L -5.546875 -2.171875 C -5.941406 -2.421875 -6.234375 -2.71875 -6.421875 -3.0625 C -6.617188 -3.40625 -6.71875 -3.8125 -6.71875 -4.28125 C -6.71875 -4.757812 -6.597656 -5.164062 -6.359375 -5.5 C -6.117188 -5.832031 -5.765625 -6.078125 -5.296875 -6.234375 Z M -5.296875 -6.234375 "/>
</symbol>
<symbol overflow="visible" id="3EpOu0Te12-4">
<path style="stroke:none;" d="M -9.125 -4.453125 L -8.21875 -4.453125 L -8.21875 -3.421875 C -8.21875 -3.035156 -8.140625 -2.765625 -7.984375 -2.609375 C -7.828125 -2.460938 -7.546875 -2.390625 -7.140625 -2.390625 L -6.5625 -2.390625 L -6.5625 -4.171875 L -5.71875 -4.171875 L -5.71875 -2.390625 L 0 -2.390625 L 0 -1.3125 L -5.71875 -1.3125 L -5.71875 -0.28125 L -6.5625 -0.28125 L -6.5625 -1.3125 L -7.015625 -1.3125 C -7.742188 -1.3125 -8.273438 -1.476562 -8.609375 -1.8125 C -8.953125 -2.15625 -9.125 -2.695312 -9.125 -3.4375 Z M -9.125 -4.453125 "/>
</symbol>
<symbol overflow="visible" id="3EpOu0Te12-5">
<path style="stroke:none;" d="M -3.296875 -4.109375 C -3.296875 -3.242188 -3.195312 -2.640625 -3 -2.296875 C -2.800781 -1.960938 -2.460938 -1.796875 -1.984375 -1.796875 C -1.597656 -1.796875 -1.289062 -1.921875 -1.0625 -2.171875 C -0.84375 -2.429688 -0.734375 -2.773438 -0.734375 -3.203125 C -0.734375 -3.804688 -0.941406 -4.285156 -1.359375 -4.640625 C -1.785156 -5.003906 -2.351562 -5.1875 -3.0625 -5.1875 L -3.296875 -5.1875 Z M -3.75 -6.265625 L 0 -6.265625 L 0 -5.1875 L -1 -5.1875 C -0.601562 -4.9375 -0.304688 -4.628906 -0.109375 -4.265625 C 0.078125 -3.898438 0.171875 -3.453125 0.171875 -2.921875 C 0.171875 -2.242188 -0.015625 -1.707031 -0.390625 -1.3125 C -0.773438 -0.914062 -1.28125 -0.71875 -1.90625 -0.71875 C -2.644531 -0.71875 -3.203125 -0.960938 -3.578125 -1.453125 C -3.953125 -1.953125 -4.140625 -2.691406 -4.140625 -3.671875 L -4.140625 -5.1875 L -4.25 -5.1875 C -4.75 -5.1875 -5.132812 -5.019531 -5.40625 -4.6875 C -5.675781 -4.363281 -5.8125 -3.910156 -5.8125 -3.328125 C -5.8125 -2.953125 -5.765625 -2.582031 -5.671875 -2.21875 C -5.578125 -1.863281 -5.441406 -1.523438 -5.265625 -1.203125 L -6.265625 -1.203125 C -6.421875 -1.597656 -6.535156 -1.976562 -6.609375 -2.34375 C -6.679688 -2.71875 -6.71875 -3.082031 -6.71875 -3.4375 C -6.71875 -4.382812 -6.472656 -5.09375 -5.984375 -5.5625 C -5.492188 -6.03125 -4.75 -6.265625 -3.75 -6.265625 Z M -3.75 -6.265625 "/>
</symbol>
<symbol overflow="visible" id="3EpOu0Te13-0">
<path style="stroke:none;" d="M 2.125 -0.59375 L -8.46875 -0.59375 L -8.46875 -6.59375 L 2.125 -6.59375 Z M 1.453125 -1.265625 L 1.453125 -5.9375 L -7.78125 -5.9375 L -7.78125 -1.265625 Z M 1.453125 -1.265625 "/>
</symbol>
<symbol overflow="visible" id="3EpOu0Te13-1">
<path style="stroke:none;" d="M -3.546875 -6.75 L -3.03125 -6.75 L -3.03125 -1.78125 C -2.28125 -1.832031 -1.710938 -2.054688 -1.328125 -2.453125 C -0.941406 -2.859375 -0.75 -3.414062 -0.75 -4.125 C -0.75 -4.539062 -0.796875 -4.941406 -0.890625 -5.328125 C -0.992188 -5.722656 -1.148438 -6.113281 -1.359375 -6.5 L -0.328125 -6.5 C -0.171875 -6.101562 -0.0507812 -5.703125 0.03125 -5.296875 C 0.125 -4.890625 0.171875 -4.476562 0.171875 -4.0625 C 0.171875 -3.019531 -0.128906 -2.191406 -0.734375 -1.578125 C -1.347656 -0.960938 -2.175781 -0.65625 -3.21875 -0.65625 C -4.289062 -0.65625 -5.140625 -0.945312 -5.765625 -1.53125 C -6.398438 -2.113281 -6.71875 -2.894531 -6.71875 -3.875 C -6.71875 -4.757812 -6.429688 -5.457031 -5.859375 -5.96875 C -5.296875 -6.488281 -4.523438 -6.75 -3.546875 -6.75 Z M -3.875 -5.671875 C -4.457031 -5.660156 -4.925781 -5.492188 -5.28125 -5.171875 C -5.632812 -4.847656 -5.8125 -4.421875 -5.8125 -3.890625 C -5.8125 -3.285156 -5.640625 -2.800781 -5.296875 -2.4375 C -4.953125 -2.082031 -4.472656 -1.878906 -3.859375 -1.828125 Z M -3.875 -5.671875 "/>
</symbol>
<symbol overflow="visible" id="3EpOu0Te13-2">
<path style="stroke:none;" d="M -6.5625 -0.359375 L -6.5625 -1.5 L -1.0625 -3.546875 L -6.5625 -5.609375 L -6.5625 -6.75 L 0 -4.28125 L 0 -2.8125 Z M -6.5625 -0.359375 "/>
</symbol>
<symbol overflow="visible" id="3EpOu0Te13-3">
<path style="stroke:none;" d="M -5.5625 -5.453125 L -9.125 -5.453125 L -9.125 -6.53125 L 0 -6.53125 L 0 -5.453125 L -0.984375 -5.453125 C -0.597656 -5.222656 -0.304688 -4.9375 -0.109375 -4.59375 C 0.078125 -4.25 0.171875 -3.832031 0.171875 -3.34375 C 0.171875 -2.550781 -0.144531 -1.90625 -0.78125 -1.40625 C -1.414062 -0.90625 -2.25 -0.65625 -3.28125 -0.65625 C -4.3125 -0.65625 -5.140625 -0.90625 -5.765625 -1.40625 C -6.398438 -1.90625 -6.71875 -2.550781 -6.71875 -3.34375 C -6.71875 -3.832031 -6.625 -4.25 -6.4375 -4.59375 C -6.25 -4.9375 -5.957031 -5.222656 -5.5625 -5.453125 Z M -3.28125 -1.78125 C -2.488281 -1.78125 -1.863281 -1.941406 -1.40625 -2.265625 C -0.957031 -2.585938 -0.734375 -3.035156 -0.734375 -3.609375 C -0.734375 -4.179688 -0.957031 -4.628906 -1.40625 -4.953125 C -1.863281 -5.285156 -2.488281 -5.453125 -3.28125 -5.453125 C -4.070312 -5.453125 -4.691406 -5.285156 -5.140625 -4.953125 C -5.585938 -4.628906 -5.8125 -4.179688 -5.8125 -3.609375 C -5.8125 -3.035156 -5.585938 -2.585938 -5.140625 -2.265625 C -4.691406 -1.941406 -4.070312 -1.78125 -3.28125 -1.78125 Z M -3.28125 -1.78125 "/>
</symbol>
<symbol overflow="visible" id="3EpOu0Te13-4">
<path style="stroke:none;" d=""/>
</symbol>
<symbol overflow="visible" id="3EpOu0Te13-5">
<path style="stroke:none;" d="M -3.96875 -6.59375 L 0 -6.59375 L 0 -5.515625 L -3.921875 -5.515625 C -4.546875 -5.515625 -5.007812 -5.390625 -5.3125 -5.140625 C -5.625 -4.898438 -5.78125 -4.539062 -5.78125 -4.0625 C -5.78125 -3.476562 -5.59375 -3.015625 -5.21875 -2.671875 C -4.851562 -2.335938 -4.347656 -2.171875 -3.703125 -2.171875 L 0 -2.171875 L 0 -1.09375 L -6.5625 -1.09375 L -6.5625 -2.171875 L -5.546875 -2.171875 C -5.941406 -2.429688 -6.234375 -2.734375 -6.421875 -3.078125 C -6.617188 -3.429688 -6.71875 -3.835938 -6.71875 -4.296875 C -6.71875 -5.046875 -6.484375 -5.613281 -6.015625 -6 C -5.554688 -6.394531 -4.875 -6.59375 -3.96875 -6.59375 Z M -3.96875 -6.59375 "/>
</symbol>
<symbol overflow="visible" id="3EpOu0Te13-6">
<path style="stroke:none;" d="M -2.59375 -1.015625 L -6.5625 -1.015625 L -6.5625 -2.09375 L -2.625 -2.09375 C -2.007812 -2.09375 -1.546875 -2.210938 -1.234375 -2.453125 C -0.921875 -2.703125 -0.765625 -3.066406 -0.765625 -3.546875 C -0.765625 -4.128906 -0.945312 -4.585938 -1.3125 -4.921875 C -1.6875 -5.265625 -2.195312 -5.4375 -2.84375 -5.4375 L -6.5625 -5.4375 L -6.5625 -6.515625 L 0 -6.515625 L 0 -5.4375 L -1.015625 -5.4375 C -0.609375 -5.175781 -0.304688 -4.875 -0.109375 -4.53125 C 0.078125 -4.1875 0.171875 -3.785156 0.171875 -3.328125 C 0.171875 -2.566406 -0.0625 -1.988281 -0.53125 -1.59375 C -1 -1.207031 -1.6875 -1.015625 -2.59375 -1.015625 Z M -6.71875 -3.734375 Z M -6.71875 -3.734375 "/>
</symbol>
<symbol overflow="visible" id="3EpOu0Te14-0">
<path style="stroke:none;" d="M 2.125 -0.59375 L -8.46875 -0.59375 L -8.46875 -6.59375 L 2.125 -6.59375 Z M 1.453125 -1.265625 L 1.453125 -5.9375 L -7.78125 -5.9375 L -7.78125 -1.265625 Z M 1.453125 -1.265625 "/>
</symbol>
<symbol overflow="visible" id="3EpOu0Te14-1">
<path style="stroke:none;" d="M -5.5625 -4.9375 C -5.625 -4.8125 -5.671875 -4.675781 -5.703125 -4.53125 C -5.742188 -4.394531 -5.765625 -4.238281 -5.765625 -4.0625 C -5.765625 -3.457031 -5.566406 -2.988281 -5.171875 -2.65625 C -4.773438 -2.332031 -4.203125 -2.171875 -3.453125 -2.171875 L 0 -2.171875 L 0 -1.09375 L -6.5625 -1.09375 L -6.5625 -2.171875 L -5.546875 -2.171875 C -5.941406 -2.398438 -6.234375 -2.695312 -6.421875 -3.0625 C -6.617188 -3.425781 -6.71875 -3.867188 -6.71875 -4.390625 C -6.71875 -4.460938 -6.710938 -4.539062 -6.703125 -4.625 C -6.691406 -4.71875 -6.675781 -4.816406 -6.65625 -4.921875 Z M -5.5625 -4.9375 "/>
</symbol>
<symbol overflow="visible" id="3EpOu0Te14-2">
<path style="stroke:none;" d="M -3.28125 -5.84375 C -4.070312 -5.84375 -4.691406 -5.675781 -5.140625 -5.34375 C -5.585938 -5.019531 -5.8125 -4.578125 -5.8125 -4.015625 C -5.8125 -3.441406 -5.585938 -2.988281 -5.140625 -2.65625 C -4.691406 -2.332031 -4.070312 -2.171875 -3.28125 -2.171875 C -2.488281 -2.171875 -1.863281 -2.332031 -1.40625 -2.65625 C -0.957031 -2.988281 -0.734375 -3.441406 -0.734375 -4.015625 C -0.734375 -4.578125 -0.957031 -5.019531 -1.40625 -5.34375 C -1.863281 -5.675781 -2.488281 -5.84375 -3.28125 -5.84375 Z M -5.5625 -2.171875 C -5.957031 -2.398438 -6.25 -2.6875 -6.4375 -3.03125 C -6.625 -3.375 -6.71875 -3.785156 -6.71875 -4.265625 C -6.71875 -5.066406 -6.398438 -5.71875 -5.765625 -6.21875 C -5.140625 -6.71875 -4.3125 -6.96875 -3.28125 -6.96875 C -2.25 -6.96875 -1.414062 -6.71875 -0.78125 -6.21875 C -0.144531 -5.71875 0.171875 -5.066406 0.171875 -4.265625 C 0.171875 -3.785156 0.078125 -3.375 -0.109375 -3.03125 C -0.304688 -2.6875 -0.597656 -2.398438 -0.984375 -2.171875 L 0 -2.171875 L 0 -1.09375 L -9.125 -1.09375 L -9.125 -2.171875 Z M -5.5625 -2.171875 "/>
</symbol>
<symbol overflow="visible" id="3EpOu0Te15-0">
<path style="stroke:none;" d="M 2.125 -0.59375 L -8.46875 -0.59375 L -8.46875 -6.59375 L 2.125 -6.59375 Z M 1.453125 -1.265625 L 1.453125 -5.9375 L -7.78125 -5.9375 L -7.78125 -1.265625 Z M 1.453125 -1.265625 "/>
</symbol>
<symbol overflow="visible" id="3EpOu0Te15-1">
<path style="stroke:none;" d="M -5.5625 -4.9375 C -5.625 -4.8125 -5.671875 -4.675781 -5.703125 -4.53125 C -5.742188 -4.394531 -5.765625 -4.238281 -5.765625 -4.0625 C -5.765625 -3.457031 -5.566406 -2.988281 -5.171875 -2.65625 C -4.773438 -2.332031 -4.203125 -2.171875 -3.453125 -2.171875 L 0 -2.171875 L 0 -1.09375 L -6.5625 -1.09375 L -6.5625 -2.171875 L -5.546875 -2.171875 C -5.941406 -2.398438 -6.234375 -2.695312 -6.421875 -3.0625 C -6.617188 -3.425781 -6.71875 -3.867188 -6.71875 -4.390625 C -6.71875 -4.460938 -6.710938 -4.539062 -6.703125 -4.625 C -6.691406 -4.71875 -6.675781 -4.816406 -6.65625 -4.921875 Z M -5.5625 -4.9375 "/>
</symbol>
<symbol overflow="visible" id="3EpOu0Te15-2">
<path style="stroke:none;" d="M -6.375 -5.3125 L -5.34375 -5.3125 C -5.5 -5.007812 -5.613281 -4.691406 -5.6875 -4.359375 C -5.769531 -4.035156 -5.8125 -3.695312 -5.8125 -3.34375 C -5.8125 -2.8125 -5.726562 -2.410156 -5.5625 -2.140625 C -5.40625 -1.867188 -5.160156 -1.734375 -4.828125 -1.734375 C -4.578125 -1.734375 -4.378906 -1.828125 -4.234375 -2.015625 C -4.097656 -2.210938 -3.96875 -2.601562 -3.84375 -3.1875 L -3.75 -3.546875 C -3.59375 -4.316406 -3.363281 -4.863281 -3.0625 -5.1875 C -2.757812 -5.507812 -2.34375 -5.671875 -1.8125 -5.671875 C -1.195312 -5.671875 -0.710938 -5.425781 -0.359375 -4.9375 C -0.00390625 -4.457031 0.171875 -3.796875 0.171875 -2.953125 C 0.171875 -2.597656 0.132812 -2.226562 0.0625 -1.84375 C 0 -1.46875 -0.0976562 -1.070312 -0.234375 -0.65625 L -1.359375 -0.65625 C -1.148438 -1.050781 -0.992188 -1.441406 -0.890625 -1.828125 C -0.785156 -2.210938 -0.734375 -2.597656 -0.734375 -2.984375 C -0.734375 -3.484375 -0.816406 -3.867188 -0.984375 -4.140625 C -1.160156 -4.421875 -1.410156 -4.5625 -1.734375 -4.5625 C -2.023438 -4.5625 -2.25 -4.460938 -2.40625 -4.265625 C -2.5625 -4.066406 -2.710938 -3.632812 -2.859375 -2.96875 L -2.9375 -2.59375 C -3.082031 -1.925781 -3.300781 -1.441406 -3.59375 -1.140625 C -3.882812 -0.847656 -4.28125 -0.703125 -4.78125 -0.703125 C -5.40625 -0.703125 -5.882812 -0.921875 -6.21875 -1.359375 C -6.550781 -1.796875 -6.71875 -2.414062 -6.71875 -3.21875 C -6.71875 -3.613281 -6.6875 -3.988281 -6.625 -4.34375 C -6.570312 -4.695312 -6.488281 -5.019531 -6.375 -5.3125 Z M -6.375 -5.3125 "/>
</symbol>
<symbol overflow="visible" id="3EpOu0Te16-0">
<path style="stroke:none;" d="M 2.125 -0.59375 L -8.46875 -0.59375 L -8.46875 -6.59375 L 2.125 -6.59375 Z M 1.453125 -1.265625 L 1.453125 -5.9375 L -7.78125 -5.9375 L -7.78125 -1.265625 Z M 1.453125 -1.265625 "/>
</symbol>
<symbol overflow="visible" id="3EpOu0Te16-1">
<path style="stroke:none;" d=""/>
</symbol>
<symbol overflow="visible" id="3EpOu0Te16-2">
<path style="stroke:none;" d="M -5.8125 -3.671875 C -5.8125 -3.097656 -5.582031 -2.640625 -5.125 -2.296875 C -4.675781 -1.960938 -4.0625 -1.796875 -3.28125 -1.796875 C -2.488281 -1.796875 -1.867188 -1.960938 -1.421875 -2.296875 C -0.972656 -2.628906 -0.75 -3.085938 -0.75 -3.671875 C -0.75 -4.242188 -0.972656 -4.695312 -1.421875 -5.03125 C -1.878906 -5.375 -2.5 -5.546875 -3.28125 -5.546875 C -4.050781 -5.546875 -4.664062 -5.375 -5.125 -5.03125 C -5.582031 -4.695312 -5.8125 -4.242188 -5.8125 -3.671875 Z M -6.71875 -3.671875 C -6.71875 -4.609375 -6.410156 -5.34375 -5.796875 -5.875 C -5.191406 -6.414062 -4.351562 -6.6875 -3.28125 -6.6875 C -2.207031 -6.6875 -1.363281 -6.414062 -0.75 -5.875 C -0.132812 -5.34375 0.171875 -4.609375 0.171875 -3.671875 C 0.171875 -2.734375 -0.132812 -1.992188 -0.75 -1.453125 C -1.363281 -0.921875 -2.207031 -0.65625 -3.28125 -0.65625 C -4.351562 -0.65625 -5.191406 -0.921875 -5.796875 -1.453125 C -6.410156 -1.992188 -6.71875 -2.734375 -6.71875 -3.671875 Z M -6.71875 -3.671875 "/>
</symbol>
<symbol overflow="visible" id="3EpOu0Te16-3">
<path style="stroke:none;" d="M -5.5625 -5.453125 L -9.125 -5.453125 L -9.125 -6.53125 L 0 -6.53125 L 0 -5.453125 L -0.984375 -5.453125 C -0.597656 -5.222656 -0.304688 -4.9375 -0.109375 -4.59375 C 0.078125 -4.25 0.171875 -3.832031 0.171875 -3.34375 C 0.171875 -2.550781 -0.144531 -1.90625 -0.78125 -1.40625 C -1.414062 -0.90625 -2.25 -0.65625 -3.28125 -0.65625 C -4.3125 -0.65625 -5.140625 -0.90625 -5.765625 -1.40625 C -6.398438 -1.90625 -6.71875 -2.550781 -6.71875 -3.34375 C -6.71875 -3.832031 -6.625 -4.25 -6.4375 -4.59375 C -6.25 -4.9375 -5.957031 -5.222656 -5.5625 -5.453125 Z M -3.28125 -1.78125 C -2.488281 -1.78125 -1.863281 -1.941406 -1.40625 -2.265625 C -0.957031 -2.585938 -0.734375 -3.035156 -0.734375 -3.609375 C -0.734375 -4.179688 -0.957031 -4.628906 -1.40625 -4.953125 C -1.863281 -5.285156 -2.488281 -5.453125 -3.28125 -5.453125 C -4.070312 -5.453125 -4.691406 -5.285156 -5.140625 -4.953125 C -5.585938 -4.628906 -5.8125 -4.179688 -5.8125 -3.609375 C -5.8125 -3.035156 -5.585938 -2.585938 -5.140625 -2.265625 C -4.691406 -1.941406 -4.070312 -1.78125 -3.28125 -1.78125 Z M -3.28125 -1.78125 "/>
</symbol>
<symbol overflow="visible" id="3EpOu0Te16-4">
<path style="stroke:none;" d="M -6.5625 -0.5 L -6.5625 -1.578125 L -1.4375 -2.9375 L -6.5625 -4.265625 L -6.5625 -5.546875 L -1.4375 -6.890625 L -6.5625 -8.234375 L -6.5625 -9.3125 L 0 -7.59375 L 0 -6.328125 L -5.375 -4.90625 L 0 -3.5 L 0 -2.21875 Z M -6.5625 -0.5 "/>
</symbol>
<symbol overflow="visible" id="3EpOu0Te17-0">
<path style="stroke:none;" d="M 0.59375 2.125 L 0.59375 -8.46875 L 6.59375 -8.46875 L 6.59375 2.125 Z M 1.265625 1.453125 L 5.9375 1.453125 L 5.9375 -7.78125 L 1.265625 -7.78125 Z M 1.265625 1.453125 "/>
</symbol>
<symbol overflow="visible" id="3EpOu0Te17-1">
<path style="stroke:none;" d="M 2.359375 -4.171875 L 2.359375 -0.96875 L 4.265625 -0.96875 C 4.898438 -0.96875 5.367188 -1.097656 5.671875 -1.359375 C 5.984375 -1.628906 6.140625 -2.035156 6.140625 -2.578125 C 6.140625 -3.128906 5.984375 -3.53125 5.671875 -3.78125 C 5.367188 -4.039062 4.898438 -4.171875 4.265625 -4.171875 Z M 2.359375 -7.78125 L 2.359375 -5.140625 L 4.109375 -5.140625 C 4.691406 -5.140625 5.125 -5.25 5.40625 -5.46875 C 5.6875 -5.6875 5.828125 -6.015625 5.828125 -6.453125 C 5.828125 -6.898438 5.6875 -7.234375 5.40625 -7.453125 C 5.125 -7.671875 4.691406 -7.78125 4.109375 -7.78125 Z M 1.171875 -8.75 L 4.203125 -8.75 C 5.109375 -8.75 5.800781 -8.5625 6.28125 -8.1875 C 6.769531 -7.8125 7.015625 -7.28125 7.015625 -6.59375 C 7.015625 -6.050781 6.890625 -5.617188 6.640625 -5.296875 C 6.390625 -4.984375 6.023438 -4.789062 5.546875 -4.71875 C 6.128906 -4.59375 6.582031 -4.332031 6.90625 -3.9375 C 7.226562 -3.539062 7.390625 -3.046875 7.390625 -2.453125 C 7.390625 -1.671875 7.125 -1.066406 6.59375 -0.640625 C 6.0625 -0.210938 5.300781 0 4.3125 0 L 1.171875 0 Z M 1.171875 -8.75 "/>
</symbol>
<symbol overflow="visible" id="3EpOu0Te17-2">
<path style="stroke:none;" d="M 4.109375 -3.296875 C 3.242188 -3.296875 2.640625 -3.195312 2.296875 -3 C 1.960938 -2.800781 1.796875 -2.460938 1.796875 -1.984375 C 1.796875 -1.597656 1.921875 -1.289062 2.171875 -1.0625 C 2.429688 -0.84375 2.773438 -0.734375 3.203125 -0.734375 C 3.804688 -0.734375 4.285156 -0.941406 4.640625 -1.359375 C 5.003906 -1.785156 5.1875 -2.351562 5.1875 -3.0625 L 5.1875 -3.296875 Z M 6.265625 -3.75 L 6.265625 0 L 5.1875 0 L 5.1875 -1 C 4.9375 -0.601562 4.628906 -0.304688 4.265625 -0.109375 C 3.898438 0.078125 3.453125 0.171875 2.921875 0.171875 C 2.242188 0.171875 1.707031 -0.015625 1.3125 -0.390625 C 0.914062 -0.773438 0.71875 -1.28125 0.71875 -1.90625 C 0.71875 -2.644531 0.960938 -3.203125 1.453125 -3.578125 C 1.953125 -3.953125 2.691406 -4.140625 3.671875 -4.140625 L 5.1875 -4.140625 L 5.1875 -4.25 C 5.1875 -4.75 5.019531 -5.132812 4.6875 -5.40625 C 4.363281 -5.675781 3.910156 -5.8125 3.328125 -5.8125 C 2.953125 -5.8125 2.582031 -5.765625 2.21875 -5.671875 C 1.863281 -5.578125 1.523438 -5.441406 1.203125 -5.265625 L 1.203125 -6.265625 C 1.597656 -6.421875 1.976562 -6.535156 2.34375 -6.609375 C 2.71875 -6.679688 3.082031 -6.71875 3.4375 -6.71875 C 4.382812 -6.71875 5.09375 -6.472656 5.5625 -5.984375 C 6.03125 -5.492188 6.265625 -4.75 6.265625 -3.75 Z M 6.265625 -3.75 "/>
</symbol>
<symbol overflow="visible" id="3EpOu0Te17-3">
<path style="stroke:none;" d="M 3.859375 0.609375 C 3.554688 1.390625 3.257812 1.898438 2.96875 2.140625 C 2.675781 2.378906 2.289062 2.5 1.8125 2.5 L 0.953125 2.5 L 0.953125 1.59375 L 1.578125 1.59375 C 1.878906 1.59375 2.109375 1.519531 2.265625 1.375 C 2.429688 1.238281 2.613281 0.910156 2.8125 0.390625 L 3.015625 -0.109375 L 0.359375 -6.5625 L 1.5 -6.5625 L 3.546875 -1.4375 L 5.609375 -6.5625 L 6.75 -6.5625 Z M 3.859375 0.609375 "/>
</symbol>
<symbol overflow="visible" id="3EpOu0Te17-4">
<path style="stroke:none;" d="M 6.75 -3.546875 L 6.75 -3.03125 L 1.78125 -3.03125 C 1.832031 -2.28125 2.054688 -1.710938 2.453125 -1.328125 C 2.859375 -0.941406 3.414062 -0.75 4.125 -0.75 C 4.539062 -0.75 4.941406 -0.796875 5.328125 -0.890625 C 5.722656 -0.992188 6.113281 -1.148438 6.5 -1.359375 L 6.5 -0.328125 C 6.101562 -0.171875 5.703125 -0.0507812 5.296875 0.03125 C 4.890625 0.125 4.476562 0.171875 4.0625 0.171875 C 3.019531 0.171875 2.191406 -0.128906 1.578125 -0.734375 C 0.960938 -1.347656 0.65625 -2.175781 0.65625 -3.21875 C 0.65625 -4.289062 0.945312 -5.140625 1.53125 -5.765625 C 2.113281 -6.398438 2.894531 -6.71875 3.875 -6.71875 C 4.757812 -6.71875 5.457031 -6.429688 5.96875 -5.859375 C 6.488281 -5.296875 6.75 -4.523438 6.75 -3.546875 Z M 5.671875 -3.875 C 5.660156 -4.457031 5.492188 -4.925781 5.171875 -5.28125 C 4.847656 -5.632812 4.421875 -5.8125 3.890625 -5.8125 C 3.285156 -5.8125 2.800781 -5.640625 2.4375 -5.296875 C 2.082031 -4.953125 1.878906 -4.472656 1.828125 -3.859375 Z M 5.671875 -3.875 "/>
</symbol>
<symbol overflow="visible" id="3EpOu0Te17-5">
<path style="stroke:none;" d="M 5.3125 -6.375 L 5.3125 -5.34375 C 5.007812 -5.5 4.691406 -5.613281 4.359375 -5.6875 C 4.035156 -5.769531 3.695312 -5.8125 3.34375 -5.8125 C 2.8125 -5.8125 2.410156 -5.726562 2.140625 -5.5625 C 1.867188 -5.40625 1.734375 -5.160156 1.734375 -4.828125 C 1.734375 -4.578125 1.828125 -4.378906 2.015625 -4.234375 C 2.210938 -4.097656 2.601562 -3.96875 3.1875 -3.84375 L 3.546875 -3.75 C 4.316406 -3.59375 4.863281 -3.363281 5.1875 -3.0625 C 5.507812 -2.757812 5.671875 -2.34375 5.671875 -1.8125 C 5.671875 -1.195312 5.425781 -0.710938 4.9375 -0.359375 C 4.457031 -0.00390625 3.796875 0.171875 2.953125 0.171875 C 2.597656 0.171875 2.226562 0.132812 1.84375 0.0625 C 1.46875 0 1.070312 -0.0976562 0.65625 -0.234375 L 0.65625 -1.359375 C 1.050781 -1.148438 1.441406 -0.992188 1.828125 -0.890625 C 2.210938 -0.785156 2.597656 -0.734375 2.984375 -0.734375 C 3.484375 -0.734375 3.867188 -0.816406 4.140625 -0.984375 C 4.421875 -1.160156 4.5625 -1.410156 4.5625 -1.734375 C 4.5625 -2.023438 4.460938 -2.25 4.265625 -2.40625 C 4.066406 -2.5625 3.632812 -2.710938 2.96875 -2.859375 L 2.59375 -2.9375 C 1.925781 -3.082031 1.441406 -3.300781 1.140625 -3.59375 C 0.847656 -3.882812 0.703125 -4.28125 0.703125 -4.78125 C 0.703125 -5.40625 0.921875 -5.882812 1.359375 -6.21875 C 1.796875 -6.550781 2.414062 -6.71875 3.21875 -6.71875 C 3.613281 -6.71875 3.988281 -6.6875 4.34375 -6.625 C 4.695312 -6.570312 5.019531 -6.488281 5.3125 -6.375 Z M 5.3125 -6.375 "/>
</symbol>
<symbol overflow="visible" id="3EpOu0Te17-6">
<path style="stroke:none;" d="M 1.125 -6.5625 L 2.203125 -6.5625 L 2.203125 0 L 1.125 0 Z M 1.125 -9.125 L 2.203125 -9.125 L 2.203125 -7.75 L 1.125 -7.75 Z M 1.125 -9.125 "/>
</symbol>
<symbol overflow="visible" id="3EpOu0Te17-7">
<path style="stroke:none;" d="M 2.203125 -8.421875 L 2.203125 -6.5625 L 4.421875 -6.5625 L 4.421875 -5.71875 L 2.203125 -5.71875 L 2.203125 -2.15625 C 2.203125 -1.625 2.273438 -1.28125 2.421875 -1.125 C 2.566406 -0.976562 2.863281 -0.90625 3.3125 -0.90625 L 4.421875 -0.90625 L 4.421875 0 L 3.3125 0 C 2.476562 0 1.898438 -0.15625 1.578125 -0.46875 C 1.265625 -0.78125 1.109375 -1.34375 1.109375 -2.15625 L 1.109375 -5.71875 L 0.328125 -5.71875 L 0.328125 -6.5625 L 1.109375 -6.5625 L 1.109375 -8.421875 Z M 2.203125 -8.421875 "/>
</symbol>
<symbol overflow="visible" id="3EpOu0Te18-0">
<path style="stroke:none;" d="M 0.59375 2.125 L 0.59375 -8.46875 L 6.59375 -8.46875 L 6.59375 2.125 Z M 1.265625 1.453125 L 5.9375 1.453125 L 5.9375 -7.78125 L 1.265625 -7.78125 Z M 1.265625 1.453125 "/>
</symbol>
<symbol overflow="visible" id="3EpOu0Te18-1">
<path style="stroke:none;" d="M 6.59375 -3.96875 L 6.59375 0 L 5.515625 0 L 5.515625 -3.921875 C 5.515625 -4.546875 5.390625 -5.007812 5.140625 -5.3125 C 4.898438 -5.625 4.539062 -5.78125 4.0625 -5.78125 C 3.476562 -5.78125 3.015625 -5.59375 2.671875 -5.21875 C 2.335938 -4.851562 2.171875 -4.347656 2.171875 -3.703125 L 2.171875 0 L 1.09375 0 L 1.09375 -6.5625 L 2.171875 -6.5625 L 2.171875 -5.546875 C 2.429688 -5.941406 2.734375 -6.234375 3.078125 -6.421875 C 3.429688 -6.617188 3.835938 -6.71875 4.296875 -6.71875 C 5.046875 -6.71875 5.613281 -6.484375 6 -6.015625 C 6.394531 -5.554688 6.59375 -4.875 6.59375 -3.96875 Z M 6.59375 -3.96875 "/>
</symbol>
<symbol overflow="visible" id="3EpOu0Te18-2">
<path style="stroke:none;" d="M 6.75 -3.546875 L 6.75 -3.03125 L 1.78125 -3.03125 C 1.832031 -2.28125 2.054688 -1.710938 2.453125 -1.328125 C 2.859375 -0.941406 3.414062 -0.75 4.125 -0.75 C 4.539062 -0.75 4.941406 -0.796875 5.328125 -0.890625 C 5.722656 -0.992188 6.113281 -1.148438 6.5 -1.359375 L 6.5 -0.328125 C 6.101562 -0.171875 5.703125 -0.0507812 5.296875 0.03125 C 4.890625 0.125 4.476562 0.171875 4.0625 0.171875 C 3.019531 0.171875 2.191406 -0.128906 1.578125 -0.734375 C 0.960938 -1.347656 0.65625 -2.175781 0.65625 -3.21875 C 0.65625 -4.289062 0.945312 -5.140625 1.53125 -5.765625 C 2.113281 -6.398438 2.894531 -6.71875 3.875 -6.71875 C 4.757812 -6.71875 5.457031 -6.429688 5.96875 -5.859375 C 6.488281 -5.296875 6.75 -4.523438 6.75 -3.546875 Z M 5.671875 -3.875 C 5.660156 -4.457031 5.492188 -4.925781 5.171875 -5.28125 C 4.847656 -5.632812 4.421875 -5.8125 3.890625 -5.8125 C 3.285156 -5.8125 2.800781 -5.640625 2.4375 -5.296875 C 2.082031 -4.953125 1.878906 -4.472656 1.828125 -3.859375 Z M 5.671875 -3.875 "/>
</symbol>
<symbol overflow="visible" id="3EpOu0Te18-3">
<path style="stroke:none;" d="M 4.109375 -3.296875 C 3.242188 -3.296875 2.640625 -3.195312 2.296875 -3 C 1.960938 -2.800781 1.796875 -2.460938 1.796875 -1.984375 C 1.796875 -1.597656 1.921875 -1.289062 2.171875 -1.0625 C 2.429688 -0.84375 2.773438 -0.734375 3.203125 -0.734375 C 3.804688 -0.734375 4.285156 -0.941406 4.640625 -1.359375 C 5.003906 -1.785156 5.1875 -2.351562 5.1875 -3.0625 L 5.1875 -3.296875 Z M 6.265625 -3.75 L 6.265625 0 L 5.1875 0 L 5.1875 -1 C 4.9375 -0.601562 4.628906 -0.304688 4.265625 -0.109375 C 3.898438 0.078125 3.453125 0.171875 2.921875 0.171875 C 2.242188 0.171875 1.707031 -0.015625 1.3125 -0.390625 C 0.914062 -0.773438 0.71875 -1.28125 0.71875 -1.90625 C 0.71875 -2.644531 0.960938 -3.203125 1.453125 -3.578125 C 1.953125 -3.953125 2.691406 -4.140625 3.671875 -4.140625 L 5.1875 -4.140625 L 5.1875 -4.25 C 5.1875 -4.75 5.019531 -5.132812 4.6875 -5.40625 C 4.363281 -5.675781 3.910156 -5.8125 3.328125 -5.8125 C 2.953125 -5.8125 2.582031 -5.765625 2.21875 -5.671875 C 1.863281 -5.578125 1.523438 -5.441406 1.203125 -5.265625 L 1.203125 -6.265625 C 1.597656 -6.421875 1.976562 -6.535156 2.34375 -6.609375 C 2.71875 -6.679688 3.082031 -6.71875 3.4375 -6.71875 C 4.382812 -6.71875 5.09375 -6.472656 5.5625 -5.984375 C 6.03125 -5.492188 6.265625 -4.75 6.265625 -3.75 Z M 6.265625 -3.75 "/>
</symbol>
<symbol overflow="visible" id="3EpOu0Te18-4">
<path style="stroke:none;" d="M 5.3125 -6.375 L 5.3125 -5.34375 C 5.007812 -5.5 4.691406 -5.613281 4.359375 -5.6875 C 4.035156 -5.769531 3.695312 -5.8125 3.34375 -5.8125 C 2.8125 -5.8125 2.410156 -5.726562 2.140625 -5.5625 C 1.867188 -5.40625 1.734375 -5.160156 1.734375 -4.828125 C 1.734375 -4.578125 1.828125 -4.378906 2.015625 -4.234375 C 2.210938 -4.097656 2.601562 -3.96875 3.1875 -3.84375 L 3.546875 -3.75 C 4.316406 -3.59375 4.863281 -3.363281 5.1875 -3.0625 C 5.507812 -2.757812 5.671875 -2.34375 5.671875 -1.8125 C 5.671875 -1.195312 5.425781 -0.710938 4.9375 -0.359375 C 4.457031 -0.00390625 3.796875 0.171875 2.953125 0.171875 C 2.597656 0.171875 2.226562 0.132812 1.84375 0.0625 C 1.46875 0 1.070312 -0.0976562 0.65625 -0.234375 L 0.65625 -1.359375 C 1.050781 -1.148438 1.441406 -0.992188 1.828125 -0.890625 C 2.210938 -0.785156 2.597656 -0.734375 2.984375 -0.734375 C 3.484375 -0.734375 3.867188 -0.816406 4.140625 -0.984375 C 4.421875 -1.160156 4.5625 -1.410156 4.5625 -1.734375 C 4.5625 -2.023438 4.460938 -2.25 4.265625 -2.40625 C 4.066406 -2.5625 3.632812 -2.710938 2.96875 -2.859375 L 2.59375 -2.9375 C 1.925781 -3.082031 1.441406 -3.300781 1.140625 -3.59375 C 0.847656 -3.882812 0.703125 -4.28125 0.703125 -4.78125 C 0.703125 -5.40625 0.921875 -5.882812 1.359375 -6.21875 C 1.796875 -6.550781 2.414062 -6.71875 3.21875 -6.71875 C 3.613281 -6.71875 3.988281 -6.6875 4.34375 -6.625 C 4.695312 -6.570312 5.019531 -6.488281 5.3125 -6.375 Z M 5.3125 -6.375 "/>
</symbol>
<symbol overflow="visible" id="3EpOu0Te19-0">
<path style="stroke:none;" d="M 0.59375 2.125 L 0.59375 -8.46875 L 6.59375 -8.46875 L 6.59375 2.125 Z M 1.265625 1.453125 L 5.9375 1.453125 L 5.9375 -7.78125 L 1.265625 -7.78125 Z M 1.265625 1.453125 "/>
</symbol>
<symbol overflow="visible" id="3EpOu0Te19-1">
<path style="stroke:none;" d=""/>
</symbol>
<symbol overflow="visible" id="3EpOu0Te19-2">
<path style="stroke:none;" d="M 5.3125 -6.375 L 5.3125 -5.34375 C 5.007812 -5.5 4.691406 -5.613281 4.359375 -5.6875 C 4.035156 -5.769531 3.695312 -5.8125 3.34375 -5.8125 C 2.8125 -5.8125 2.410156 -5.726562 2.140625 -5.5625 C 1.867188 -5.40625 1.734375 -5.160156 1.734375 -4.828125 C 1.734375 -4.578125 1.828125 -4.378906 2.015625 -4.234375 C 2.210938 -4.097656 2.601562 -3.96875 3.1875 -3.84375 L 3.546875 -3.75 C 4.316406 -3.59375 4.863281 -3.363281 5.1875 -3.0625 C 5.507812 -2.757812 5.671875 -2.34375 5.671875 -1.8125 C 5.671875 -1.195312 5.425781 -0.710938 4.9375 -0.359375 C 4.457031 -0.00390625 3.796875 0.171875 2.953125 0.171875 C 2.597656 0.171875 2.226562 0.132812 1.84375 0.0625 C 1.46875 0 1.070312 -0.0976562 0.65625 -0.234375 L 0.65625 -1.359375 C 1.050781 -1.148438 1.441406 -0.992188 1.828125 -0.890625 C 2.210938 -0.785156 2.597656 -0.734375 2.984375 -0.734375 C 3.484375 -0.734375 3.867188 -0.816406 4.140625 -0.984375 C 4.421875 -1.160156 4.5625 -1.410156 4.5625 -1.734375 C 4.5625 -2.023438 4.460938 -2.25 4.265625 -2.40625 C 4.066406 -2.5625 3.632812 -2.710938 2.96875 -2.859375 L 2.59375 -2.9375 C 1.925781 -3.082031 1.441406 -3.300781 1.140625 -3.59375 C 0.847656 -3.882812 0.703125 -4.28125 0.703125 -4.78125 C 0.703125 -5.40625 0.921875 -5.882812 1.359375 -6.21875 C 1.796875 -6.550781 2.414062 -6.71875 3.21875 -6.71875 C 3.613281 -6.71875 3.988281 -6.6875 4.34375 -6.625 C 4.695312 -6.570312 5.019531 -6.488281 5.3125 -6.375 Z M 5.3125 -6.375 "/>
</symbol>
<symbol overflow="visible" id="3EpOu0Te19-3">
<path style="stroke:none;" d="M 1.125 -6.5625 L 2.203125 -6.5625 L 2.203125 0 L 1.125 0 Z M 1.125 -9.125 L 2.203125 -9.125 L 2.203125 -7.75 L 1.125 -7.75 Z M 1.125 -9.125 "/>
</symbol>
<symbol overflow="visible" id="3EpOu0Te19-4">
<path style="stroke:none;" d="M 6.234375 -5.296875 C 6.503906 -5.785156 6.828125 -6.144531 7.203125 -6.375 C 7.578125 -6.601562 8.019531 -6.71875 8.53125 -6.71875 C 9.21875 -6.71875 9.742188 -6.476562 10.109375 -6 C 10.484375 -5.519531 10.671875 -4.84375 10.671875 -3.96875 L 10.671875 0 L 9.59375 0 L 9.59375 -3.921875 C 9.59375 -4.554688 9.476562 -5.023438 9.25 -5.328125 C 9.03125 -5.628906 8.691406 -5.78125 8.234375 -5.78125 C 7.671875 -5.78125 7.226562 -5.59375 6.90625 -5.21875 C 6.582031 -4.851562 6.421875 -4.347656 6.421875 -3.703125 L 6.421875 0 L 5.34375 0 L 5.34375 -3.921875 C 5.34375 -4.554688 5.226562 -5.023438 5 -5.328125 C 4.78125 -5.628906 4.4375 -5.78125 3.96875 -5.78125 C 3.414062 -5.78125 2.976562 -5.59375 2.65625 -5.21875 C 2.332031 -4.851562 2.171875 -4.347656 2.171875 -3.703125 L 2.171875 0 L 1.09375 0 L 1.09375 -6.5625 L 2.171875 -6.5625 L 2.171875 -5.546875 C 2.421875 -5.941406 2.71875 -6.234375 3.0625 -6.421875 C 3.40625 -6.617188 3.8125 -6.71875 4.28125 -6.71875 C 4.757812 -6.71875 5.164062 -6.597656 5.5 -6.359375 C 5.832031 -6.117188 6.078125 -5.765625 6.234375 -5.296875 Z M 6.234375 -5.296875 "/>
</symbol>
<symbol overflow="visible" id="3EpOu0Te19-5">
<path style="stroke:none;" d="M 2.203125 -8.421875 L 2.203125 -6.5625 L 4.421875 -6.5625 L 4.421875 -5.71875 L 2.203125 -5.71875 L 2.203125 -2.15625 C 2.203125 -1.625 2.273438 -1.28125 2.421875 -1.125 C 2.566406 -0.976562 2.863281 -0.90625 3.3125 -0.90625 L 4.421875 -0.90625 L 4.421875 0 L 3.3125 0 C 2.476562 0 1.898438 -0.15625 1.578125 -0.46875 C 1.265625 -0.78125 1.109375 -1.34375 1.109375 -2.15625 L 1.109375 -5.71875 L 0.328125 -5.71875 L 0.328125 -6.5625 L 1.109375 -6.5625 L 1.109375 -8.421875 Z M 2.203125 -8.421875 "/>
</symbol>
</g>
</defs>
<g id="surface1">
<rect x="0" y="0" width="600" height="450" style="fill:rgb(100%,100%,100%);fill-opacity:1;stroke:none;"/>
<path style=" stroke:none;fill-rule:nonzero;fill:rgb(100%,100%,100%);fill-opacity:1;" d="M 51 402 L 588 402 L 588 29.25 L 51 29.25 Z M 51 402 "/>
<path style="fill:none;stroke-width:1;stroke-linecap:butt;stroke-linejoin:miter;stroke:rgb(0%,0%,0%);stroke-opacity:0.12;stroke-miterlimit:10;" d="M 170.286458 536 L 170.286458 39 " transform="matrix(0.75,0,0,0.75,0,0)"/>
<path style="fill:none;stroke-width:1;stroke-linecap:butt;stroke-linejoin:miter;stroke:rgb(0%,0%,0%);stroke-opacity:0.12;stroke-miterlimit:10;" d="M 426 536 L 426 39 " transform="matrix(0.75,0,0,0.75,0,0)"/>
<path style="fill:none;stroke-width:1;stroke-linecap:butt;stroke-linejoin:miter;stroke:rgb(0%,0%,0%);stroke-opacity:0.12;stroke-miterlimit:10;" d="M 681.713542 536 L 681.713542 39 " transform="matrix(0.75,0,0,0.75,0,0)"/>
<path style="fill:none;stroke-width:1;stroke-linecap:butt;stroke-linejoin:miter;stroke:rgb(0%,0%,0%);stroke-opacity:0.12;stroke-miterlimit:10;" d="M 68 508.03125 L 784 508.03125 " transform="matrix(0.75,0,0,0.75,0,0)"/>
<path style="fill:none;stroke-width:1;stroke-linecap:butt;stroke-linejoin:miter;stroke:rgb(0%,0%,0%);stroke-opacity:0.12;stroke-miterlimit:10;" d="M 68 400.453125 L 784 400.453125 " transform="matrix(0.75,0,0,0.75,0,0)"/>
<path style="fill:none;stroke-width:1;stroke-linecap:butt;stroke-linejoin:miter;stroke:rgb(0%,0%,0%);stroke-opacity:0.12;stroke-miterlimit:10;" d="M 68 292.880208 L 784 292.880208 " transform="matrix(0.75,0,0,0.75,0,0)"/>
<path style="fill:none;stroke-width:1;stroke-linecap:butt;stroke-linejoin:miter;stroke:rgb(0%,0%,0%);stroke-opacity:0.12;stroke-miterlimit:10;" d="M 68 185.302083 L 784 185.302083 " transform="matrix(0.75,0,0,0.75,0,0)"/>
<path style="fill:none;stroke-width:1;stroke-linecap:butt;stroke-linejoin:miter;stroke:rgb(0%,0%,0%);stroke-opacity:0.12;stroke-miterlimit:10;" d="M 68 77.729167 L 784 77.729167 " transform="matrix(0.75,0,0,0.75,0,0)"/>
<g style="fill:rgb(0%,0%,0%);fill-opacity:1;">
  <use xlink:href="#3EpOu0Te0-1" x="118.570312" y="419.890625"/>
</g>
<g style="fill:rgb(0%,0%,0%);fill-opacity:1;">
  <use xlink:href="#3EpOu0Te1-1" x="126.207031" y="419.890625"/>
</g>
<g style="fill:rgb(0%,0%,0%);fill-opacity:1;">
  <use xlink:href="#3EpOu0Te0-1" x="130.019531" y="419.890625"/>
</g>
<g style="fill:rgb(0%,0%,0%);fill-opacity:1;">
  <use xlink:href="#3EpOu0Te2-1" x="310.550781" y="419.890625"/>
</g>
<g style="fill:rgb(0%,0%,0%);fill-opacity:1;">
  <use xlink:href="#3EpOu0Te3-1" x="318.183594" y="419.890625"/>
</g>
<g style="fill:rgb(0%,0%,0%);fill-opacity:1;">
  <use xlink:href="#3EpOu0Te4-1" x="322" y="419.890625"/>
</g>
<g style="fill:rgb(0%,0%,0%);fill-opacity:1;">
  <use xlink:href="#3EpOu0Te3-2" x="501.878906" y="419.890625"/>
</g>
<g style="fill:rgb(0%,0%,0%);fill-opacity:1;">
  <use xlink:href="#3EpOu0Te3-1" x="509.511719" y="419.890625"/>
</g>
<g style="fill:rgb(0%,0%,0%);fill-opacity:1;">
  <use xlink:href="#3EpOu0Te3-3" x="513.328125" y="419.890625"/>
</g>
<g style="fill:rgb(0%,0%,0%);fill-opacity:1;">
  <use xlink:href="#3EpOu0Te3-4" x="259.871094" y="436.109375"/>
</g>
<g style="fill:rgb(0%,0%,0%);fill-opacity:1;">
  <use xlink:href="#3EpOu0Te3-5" x="267.109375" y="436.109375"/>
</g>
<g style="fill:rgb(0%,0%,0%);fill-opacity:1;">
  <use xlink:href="#3EpOu0Te3-6" x="272.042969" y="436.109375"/>
</g>
<g style="fill:rgb(0%,0%,0%);fill-opacity:1;">
  <use xlink:href="#3EpOu0Te3-7" x="279.382812" y="436.109375"/>
</g>
<g style="fill:rgb(0%,0%,0%);fill-opacity:1;">
  <use xlink:href="#3EpOu0Te3-8" x="287" y="436.109375"/>
</g>
<g style="fill:rgb(0%,0%,0%);fill-opacity:1;">
  <use xlink:href="#3EpOu0Te2-2" x="294.355469" y="436.109375"/>
</g>
<g style="fill:rgb(0%,0%,0%);fill-opacity:1;">
  <use xlink:href="#3EpOu0Te2-3" x="301.972656" y="436.109375"/>
</g>
<g style="fill:rgb(0%,0%,0%);fill-opacity:1;">
  <use xlink:href="#3EpOu0Te2-4" x="305.304688" y="436.109375"/>
</g>
<g style="fill:rgb(0%,0%,0%);fill-opacity:1;">
  <use xlink:href="#3EpOu0Te2-3" x="308.640625" y="436.109375"/>
</g>
<g style="fill:rgb(0%,0%,0%);fill-opacity:1;">
  <use xlink:href="#3EpOu0Te2-5" x="311.972656" y="436.109375"/>
</g>
<g style="fill:rgb(0%,0%,0%);fill-opacity:1;">
  <use xlink:href="#3EpOu0Te4-2" x="316.679688" y="436.109375"/>
</g>
<g style="fill:rgb(0%,0%,0%);fill-opacity:1;">
  <use xlink:href="#3EpOu0Te4-3" x="323.78125" y="436.109375"/>
</g>
<g style="fill:rgb(0%,0%,0%);fill-opacity:1;">
  <use xlink:href="#3EpOu0Te4-4" x="327.59375" y="436.109375"/>
</g>
<g style="fill:rgb(0%,0%,0%);fill-opacity:1;">
  <use xlink:href="#3EpOu0Te3-9" x="334.9375" y="436.109375"/>
</g>
<g style="fill:rgb(0%,0%,0%);fill-opacity:1;">
  <use xlink:href="#3EpOu0Te4-3" x="339.160156" y="436.109375"/>
</g>
<g style="fill:rgb(0%,0%,0%);fill-opacity:1;">
  <use xlink:href="#3EpOu0Te4-5" x="342.976562" y="436.109375"/>
</g>
<g style="fill:rgb(0%,0%,0%);fill-opacity:1;">
  <use xlink:href="#3EpOu0Te3-10" x="350.582031" y="436.109375"/>
</g>
<g style="fill:rgb(0%,0%,0%);fill-opacity:1;">
  <use xlink:href="#3EpOu0Te2-6" x="357.964844" y="436.109375"/>
</g>
<g style="fill:rgb(0%,0%,0%);fill-opacity:1;">
  <use xlink:href="#3EpOu0Te3-11" x="365.316406" y="436.109375"/>
</g>
<g style="fill:rgb(0%,0%,0%);fill-opacity:1;">
  <use xlink:href="#3EpOu0Te2-7" x="372.933594" y="436.109375"/>
</g>
<g style="fill:rgb(0%,0%,0%);fill-opacity:1;">
  <use xlink:href="#3EpOu0Te5-1" x="36.703125" y="385.175781"/>
</g>
<g style="fill:rgb(0%,0%,0%);fill-opacity:1;">
  <use xlink:href="#3EpOu0Te6-1" x="29.066406" y="304.496094"/>
</g>
<g style="fill:rgb(0%,0%,0%);fill-opacity:1;">
  <use xlink:href="#3EpOu0Te7-1" x="36.703125" y="304.496094"/>
</g>
<g style="fill:rgb(0%,0%,0%);fill-opacity:1;">
  <use xlink:href="#3EpOu0Te6-2" x="29.066406" y="223.8125"/>
</g>
<g style="fill:rgb(0%,0%,0%);fill-opacity:1;">
  <use xlink:href="#3EpOu0Te7-1" x="36.703125" y="223.8125"/>
</g>
<g style="fill:rgb(0%,0%,0%);fill-opacity:1;">
  <use xlink:href="#3EpOu0Te8-1" x="29.066406" y="143.132812"/>
</g>
<g style="fill:rgb(0%,0%,0%);fill-opacity:1;">
  <use xlink:href="#3EpOu0Te9-1" x="36.703125" y="143.132812"/>
</g>
<g style="fill:rgb(0%,0%,0%);fill-opacity:1;">
  <use xlink:href="#3EpOu0Te8-2" x="29.066406" y="62.449219"/>
</g>
<g style="fill:rgb(0%,0%,0%);fill-opacity:1;">
  <use xlink:href="#3EpOu0Te9-1" x="36.703125" y="62.449219"/>
</g>
<g style="fill:rgb(0%,0%,0%);fill-opacity:1;">
  <use xlink:href="#3EpOu0Te10-1" x="22.28125" y="297.117188"/>
</g>
<g style="fill:rgb(0%,0%,0%);fill-opacity:1;">
  <use xlink:href="#3EpOu0Te11-1" x="22.28125" y="287.671875"/>
</g>
<g style="fill:rgb(0%,0%,0%);fill-opacity:1;">
  <use xlink:href="#3EpOu0Te12-1" x="22.28125" y="280.054688"/>
</g>
<g style="fill:rgb(0%,0%,0%);fill-opacity:1;">
  <use xlink:href="#3EpOu0Te13-1" x="22.28125" y="273.804688"/>
</g>
<g style="fill:rgb(0%,0%,0%);fill-opacity:1;">
  <use xlink:href="#3EpOu0Te14-1" x="22.28125" y="266.417969"/>
</g>
<g style="fill:rgb(0%,0%,0%);fill-opacity:1;">
  <use xlink:href="#3EpOu0Te13-2" x="22.28125" y="261.484375"/>
</g>
<g style="fill:rgb(0%,0%,0%);fill-opacity:1;">
  <use xlink:href="#3EpOu0Te12-2" x="22.28125" y="254.386719"/>
</g>
<g style="fill:rgb(0%,0%,0%);fill-opacity:1;">
  <use xlink:href="#3EpOu0Te13-3" x="22.28125" y="247"/>
</g>
<g style="fill:rgb(0%,0%,0%);fill-opacity:1;">
  <use xlink:href="#3EpOu0Te13-4" x="22.28125" y="239.382812"/>
</g>
<g style="fill:rgb(0%,0%,0%);fill-opacity:1;">
  <use xlink:href="#3EpOu0Te13-5" x="22.28125" y="235.570312"/>
</g>
<g style="fill:rgb(0%,0%,0%);fill-opacity:1;">
  <use xlink:href="#3EpOu0Te13-6" x="22.28125" y="227.964844"/>
</g>
<g style="fill:rgb(0%,0%,0%);fill-opacity:1;">
  <use xlink:href="#3EpOu0Te12-3" x="22.28125" y="220.359375"/>
</g>
<g style="fill:rgb(0%,0%,0%);fill-opacity:1;">
  <use xlink:href="#3EpOu0Te14-2" x="22.28125" y="208.667969"/>
</g>
<g style="fill:rgb(0%,0%,0%);fill-opacity:1;">
  <use xlink:href="#3EpOu0Te13-1" x="22.28125" y="201.054687"/>
</g>
<g style="fill:rgb(0%,0%,0%);fill-opacity:1;">
  <use xlink:href="#3EpOu0Te15-1" x="22.28125" y="193.671875"/>
</g>
<g style="fill:rgb(0%,0%,0%);fill-opacity:1;">
  <use xlink:href="#3EpOu0Te16-1" x="22.28125" y="188.734375"/>
</g>
<g style="fill:rgb(0%,0%,0%);fill-opacity:1;">
  <use xlink:href="#3EpOu0Te16-2" x="22.28125" y="184.921875"/>
</g>
<g style="fill:rgb(0%,0%,0%);fill-opacity:1;">
  <use xlink:href="#3EpOu0Te12-4" x="22.28125" y="177.578125"/>
</g>
<g style="fill:rgb(0%,0%,0%);fill-opacity:1;">
  <use xlink:href="#3EpOu0Te16-1" x="22.28125" y="173.355469"/>
</g>
<g style="fill:rgb(0%,0%,0%);fill-opacity:1;">
  <use xlink:href="#3EpOu0Te16-3" x="22.28125" y="169.539062"/>
</g>
<g style="fill:rgb(0%,0%,0%);fill-opacity:1;">
  <use xlink:href="#3EpOu0Te15-1" x="22.28125" y="161.921875"/>
</g>
<g style="fill:rgb(0%,0%,0%);fill-opacity:1;">
  <use xlink:href="#3EpOu0Te12-5" x="22.28125" y="156.992188"/>
</g>
<g style="fill:rgb(0%,0%,0%);fill-opacity:1;">
  <use xlink:href="#3EpOu0Te16-4" x="22.28125" y="149.636719"/>
</g>
<g style="fill:rgb(0%,0%,0%);fill-opacity:1;">
  <use xlink:href="#3EpOu0Te15-2" x="22.28125" y="139.820312"/>
</g>
<g style="fill:rgb(0%,0%,0%);fill-opacity:1;">
  <use xlink:href="#3EpOu0Te17-1" x="260.785156" y="23.421875"/>
</g>
<g style="fill:rgb(0%,0%,0%);fill-opacity:1;">
  <use xlink:href="#3EpOu0Te17-2" x="269.019531" y="23.421875"/>
</g>
<g style="fill:rgb(0%,0%,0%);fill-opacity:1;">
  <use xlink:href="#3EpOu0Te17-3" x="276.371094" y="23.421875"/>
</g>
<g style="fill:rgb(0%,0%,0%);fill-opacity:1;">
  <use xlink:href="#3EpOu0Te17-4" x="283.472656" y="23.421875"/>
</g>
<g style="fill:rgb(0%,0%,0%);fill-opacity:1;">
  <use xlink:href="#3EpOu0Te17-5" x="290.855469" y="23.421875"/>
</g>
<g style="fill:rgb(0%,0%,0%);fill-opacity:1;">
  <use xlink:href="#3EpOu0Te17-6" x="297.109375" y="23.421875"/>
</g>
<g style="fill:rgb(0%,0%,0%);fill-opacity:1;">
  <use xlink:href="#3EpOu0Te17-2" x="300.441406" y="23.421875"/>
</g>
<g style="fill:rgb(0%,0%,0%);fill-opacity:1;">
  <use xlink:href="#3EpOu0Te18-1" x="307.796875" y="23.421875"/>
</g>
<g style="fill:rgb(0%,0%,0%);fill-opacity:1;">
  <use xlink:href="#3EpOu0Te19-1" x="315.402344" y="23.421875"/>
</g>
<g style="fill:rgb(0%,0%,0%);fill-opacity:1;">
  <use xlink:href="#3EpOu0Te18-2" x="319.214844" y="23.421875"/>
</g>
<g style="fill:rgb(0%,0%,0%);fill-opacity:1;">
  <use xlink:href="#3EpOu0Te19-2" x="326.597656" y="23.421875"/>
</g>
<g style="fill:rgb(0%,0%,0%);fill-opacity:1;">
  <use xlink:href="#3EpOu0Te17-7" x="332.851562" y="23.421875"/>
</g>
<g style="fill:rgb(0%,0%,0%);fill-opacity:1;">
  <use xlink:href="#3EpOu0Te19-3" x="337.554688" y="23.421875"/>
</g>
<g style="fill:rgb(0%,0%,0%);fill-opacity:1;">
  <use xlink:href="#3EpOu0Te19-4" x="340.890625" y="23.421875"/>
</g>
<g style="fill:rgb(0%,0%,0%);fill-opacity:1;">
  <use xlink:href="#3EpOu0Te18-3" x="352.578125" y="23.421875"/>
</g>
<g style="fill:rgb(0%,0%,0%);fill-opacity:1;">
  <use xlink:href="#3EpOu0Te19-5" x="359.933594" y="23.421875"/>
</g>
<g style="fill:rgb(0%,0%,0%);fill-opacity:1;">
  <use xlink:href="#3EpOu0Te17-4" x="364.636719" y="23.421875"/>
</g>
<g style="fill:rgb(0%,0%,0%);fill-opacity:1;">
  <use xlink:href="#3EpOu0Te18-4" x="372.019531" y="23.421875"/>
</g>
<path style=" stroke:none;fill-rule:nonzero;fill:rgb(0%,0%,0%);fill-opacity:1;" d="M 258.945312 372.953125 C 258.945312 377.453125 252.195312 377.453125 252.195312 372.953125 C 252.195312 368.453125 258.945312 368.453125 258.945312 372.953125 "/>
<path style=" stroke:none;fill-rule:nonzero;fill:rgb(0%,0%,0%);fill-opacity:1;" d="M 295.476562 356.816406 C 295.476562 361.316406 288.726562 361.316406 288.726562 356.816406 C 288.726562 352.316406 295.476562 352.316406 295.476562 356.816406 "/>
<path style=" stroke:none;fill-rule:nonzero;fill:rgb(0%,0%,0%);fill-opacity:1;" d="M 340.308594 340.683594 C 340.308594 345.183594 333.558594 345.183594 333.558594 340.683594 C 333.558594 336.183594 340.308594 336.183594 340.308594 340.683594 "/>
<path style=" stroke:none;fill-rule:nonzero;fill:rgb(0%,0%,0%);fill-opacity:1;" d="M 361.230469 324.546875 C 361.230469 329.046875 354.480469 329.046875 354.480469 324.546875 C 354.480469 320.046875 361.230469 320.046875 361.230469 324.546875 "/>
<path style=" stroke:none;fill-rule:nonzero;fill:rgb(0%,0%,0%);fill-opacity:1;" d="M 393.53125 308.410156 C 393.53125 312.910156 386.78125 312.910156 386.78125 308.410156 C 386.78125 303.910156 393.53125 303.910156 393.53125 308.410156 "/>
<path style=" stroke:none;fill-rule:nonzero;fill:rgb(0%,0%,0%);fill-opacity:1;" d="M 381.246094 292.273438 C 381.246094 296.773438 374.496094 296.773438 374.496094 292.273438 C 374.496094 287.773438 381.246094 287.773438 381.246094 292.273438 "/>
<path style=" stroke:none;fill-rule:nonzero;fill:rgb(0%,0%,0%);fill-opacity:1;" d="M 401.011719 276.136719 C 401.011719 280.636719 394.261719 280.636719 394.261719 276.136719 C 394.261719 271.636719 401.011719 271.636719 401.011719 276.136719 "/>
<path style=" stroke:none;fill-rule:nonzero;fill:rgb(0%,0%,0%);fill-opacity:1;" d="M 378.554688 260 C 378.554688 264.5 371.804688 264.5 371.804688 260 C 371.804688 255.5 378.554688 255.5 378.554688 260 "/>
<path style=" stroke:none;fill-rule:nonzero;fill:rgb(0%,0%,0%);fill-opacity:1;" d="M 372.191406 243.863281 C 372.191406 248.363281 365.441406 248.363281 365.441406 243.863281 C 365.441406 239.363281 372.191406 239.363281 372.191406 243.863281 "/>
<path style=" stroke:none;fill-rule:nonzero;fill:rgb(0%,0%,0%);fill-opacity:1;" d="M 357.296875 227.726562 C 357.296875 232.226562 350.546875 232.226562 350.546875 227.726562 C 350.546875 223.226562 357.296875 223.226562 357.296875 227.726562 "/>
<path style=" stroke:none;fill-rule:nonzero;fill:rgb(0%,0%,0%);fill-opacity:1;" d="M 363.015625 211.589844 C 363.015625 216.089844 356.265625 216.089844 356.265625 211.589844 C 356.265625 207.089844 363.015625 207.089844 363.015625 211.589844 "/>
<path style=" stroke:none;fill-rule:nonzero;fill:rgb(0%,0%,0%);fill-opacity:1;" d="M 359.601562 195.453125 C 359.601562 199.953125 352.851562 199.953125 352.851562 195.453125 C 352.851562 190.953125 359.601562 190.953125 359.601562 195.453125 "/>
<path style=" stroke:none;fill-rule:nonzero;fill:rgb(0%,0%,0%);fill-opacity:1;" d="M 356.71875 179.316406 C 356.71875 183.816406 349.96875 183.816406 349.96875 179.316406 C 349.96875 174.816406 356.71875 174.816406 356.71875 179.316406 "/>
<path style=" stroke:none;fill-rule:nonzero;fill:rgb(0%,0%,0%);fill-opacity:1;" d="M 347.285156 163.183594 C 347.285156 167.683594 340.535156 167.683594 340.535156 163.183594 C 340.535156 158.683594 347.285156 158.683594 347.285156 163.183594 "/>
<path style=" stroke:none;fill-rule:nonzero;fill:rgb(0%,0%,0%);fill-opacity:1;" d="M 339.128906 147.046875 C 339.128906 151.546875 332.378906 151.546875 332.378906 147.046875 C 332.378906 142.546875 339.128906 142.546875 339.128906 147.046875 "/>
<path style=" stroke:none;fill-rule:nonzero;fill:rgb(0%,0%,0%);fill-opacity:1;" d="M 332.007812 130.910156 C 332.007812 135.410156 325.257812 135.410156 325.257812 130.910156 C 325.257812 126.410156 332.007812 126.410156 332.007812 130.910156 "/>
<path style=" stroke:none;fill-rule:nonzero;fill:rgb(0%,0%,0%);fill-opacity:1;" d="M 325.738281 114.773438 C 325.738281 119.273438 318.988281 119.273438 318.988281 114.773438 C 318.988281 110.273438 325.738281 110.273438 325.738281 114.773438 "/>
<path style=" stroke:none;fill-rule:nonzero;fill:rgb(0%,0%,0%);fill-opacity:1;" d="M 320.171875 98.636719 C 320.171875 103.136719 313.421875 103.136719 313.421875 98.636719 C 313.421875 94.136719 320.171875 94.136719 320.171875 98.636719 "/>
<path style=" stroke:none;fill-rule:nonzero;fill:rgb(0%,0%,0%);fill-opacity:1;" d="M 325.433594 82.5 C 325.433594 87 318.683594 87 318.683594 82.5 C 318.683594 78 325.433594 78 325.433594 82.5 "/>
<path style=" stroke:none;fill-rule:nonzero;fill:rgb(0%,0%,0%);fill-opacity:1;" d="M 325.300781 66.363281 C 325.300781 70.863281 318.550781 70.863281 318.550781 66.363281 C 318.550781 61.863281 325.300781 61.863281 325.300781 66.363281 "/>
<path style="fill:none;stroke-width:1.5;stroke-linecap:butt;stroke-linejoin:miter;stroke:rgb(0%,0%,0%);stroke-opacity:1;stroke-dasharray:4.5,4.5;stroke-miterlimit:10;" d="M 426 513.411458 L 426 61.588542 " transform="matrix(0.75,0,0,0.75,0,0)"/>
<path style="fill:none;stroke-width:1.5;stroke-linecap:butt;stroke-linejoin:miter;stroke:rgb(0%,0%,0%);stroke-opacity:1;stroke-miterlimit:10;" d="M 176.71875 497.270833 L 600.848958 497.270833 " transform="matrix(0.75,0,0,0.75,0,0)"/>
<path style="fill:none;stroke-width:1.5;stroke-linecap:butt;stroke-linejoin:miter;stroke:rgb(0%,0%,0%);stroke-opacity:1;stroke-miterlimit:10;" d="M 230.692708 475.755208 L 567.78125 475.755208 " transform="matrix(0.75,0,0,0.75,0,0)"/>
<path style="fill:none;stroke-width:1.5;stroke-linecap:butt;stroke-linejoin:miter;stroke:rgb(0%,0%,0%);stroke-opacity:1;stroke-miterlimit:10;" d="M 304.473958 454.244792 L 586.03125 454.244792 " transform="matrix(0.75,0,0,0.75,0,0)"/>
<path style="fill:none;stroke-width:1.5;stroke-linecap:butt;stroke-linejoin:miter;stroke:rgb(0%,0%,0%);stroke-opacity:1;stroke-miterlimit:10;" d="M 349.989583 432.729167 L 591.390625 432.729167 " transform="matrix(0.75,0,0,0.75,0,0)"/>
<path style="fill:none;stroke-width:1.5;stroke-linecap:butt;stroke-linejoin:miter;stroke:rgb(0%,0%,0%);stroke-opacity:1;stroke-miterlimit:10;" d="M 408.203125 411.213542 L 613.473958 411.213542 " transform="matrix(0.75,0,0,0.75,0,0)"/>
<path style="fill:none;stroke-width:1.5;stroke-linecap:butt;stroke-linejoin:miter;stroke:rgb(0%,0%,0%);stroke-opacity:1;stroke-miterlimit:10;" d="M 401.083333 389.697917 L 593.760417 389.697917 " transform="matrix(0.75,0,0,0.75,0,0)"/>
<path style="fill:none;stroke-width:1.5;stroke-linecap:butt;stroke-linejoin:miter;stroke:rgb(0%,0%,0%);stroke-opacity:1;stroke-miterlimit:10;" d="M 437.317708 368.182292 L 608.447917 368.182292 " transform="matrix(0.75,0,0,0.75,0,0)"/>
<path style="fill:none;stroke-width:1.5;stroke-linecap:butt;stroke-linejoin:miter;stroke:rgb(0%,0%,0%);stroke-opacity:1;stroke-miterlimit:10;" d="M 411.619792 346.666667 L 579.786458 346.666667 " transform="matrix(0.75,0,0,0.75,0,0)"/>
<path style="fill:none;stroke-width:1.5;stroke-linecap:butt;stroke-linejoin:miter;stroke:rgb(0%,0%,0%);stroke-opacity:1;stroke-miterlimit:10;" d="M 408.041667 325.151042 L 568.348958 325.151042 " transform="matrix(0.75,0,0,0.75,0,0)"/>
<path style="fill:none;stroke-width:1.5;stroke-linecap:butt;stroke-linejoin:miter;stroke:rgb(0%,0%,0%);stroke-opacity:1;stroke-miterlimit:10;" d="M 392.177083 303.635417 L 547.15625 303.635417 " transform="matrix(0.75,0,0,0.75,0,0)"/>
<path style="fill:none;stroke-width:1.5;stroke-linecap:butt;stroke-linejoin:miter;stroke:rgb(0%,0%,0%);stroke-opacity:1;stroke-miterlimit:10;" d="M 403.6875 282.119792 L 550.640625 282.119792 " transform="matrix(0.75,0,0,0.75,0,0)"/>
<path style="fill:none;stroke-width:1.5;stroke-linecap:butt;stroke-linejoin:miter;stroke:rgb(0%,0%,0%);stroke-opacity:1;stroke-miterlimit:10;" d="M 402.34375 260.604167 L 543.640625 260.604167 " transform="matrix(0.75,0,0,0.75,0,0)"/>
<path style="fill:none;stroke-width:1.5;stroke-linecap:butt;stroke-linejoin:miter;stroke:rgb(0%,0%,0%);stroke-opacity:1;stroke-miterlimit:10;" d="M 401.34375 239.088542 L 537.552083 239.088542 " transform="matrix(0.75,0,0,0.75,0,0)"/>
<path style="fill:none;stroke-width:1.5;stroke-linecap:butt;stroke-linejoin:miter;stroke:rgb(0%,0%,0%);stroke-opacity:1;stroke-miterlimit:10;" d="M 391.265625 217.578125 L 523.583333 217.578125 " transform="matrix(0.75,0,0,0.75,0,0)"/>
<path style="fill:none;stroke-width:1.5;stroke-linecap:butt;stroke-linejoin:miter;stroke:rgb(0%,0%,0%);stroke-opacity:1;stroke-miterlimit:10;" d="M 382.744792 196.0625 L 511.203125 196.0625 " transform="matrix(0.75,0,0,0.75,0,0)"/>
<path style="fill:none;stroke-width:1.5;stroke-linecap:butt;stroke-linejoin:miter;stroke:rgb(0%,0%,0%);stroke-opacity:1;stroke-miterlimit:10;" d="M 375.447917 174.546875 L 500.171875 174.546875 " transform="matrix(0.75,0,0,0.75,0,0)"/>
<path style="fill:none;stroke-width:1.5;stroke-linecap:butt;stroke-linejoin:miter;stroke:rgb(0%,0%,0%);stroke-opacity:1;stroke-miterlimit:10;" d="M 369.135417 153.03125 L 490.28125 153.03125 " transform="matrix(0.75,0,0,0.75,0,0)"/>
<path style="fill:none;stroke-width:1.5;stroke-linecap:butt;stroke-linejoin:miter;stroke:rgb(0%,0%,0%);stroke-opacity:1;stroke-miterlimit:10;" d="M 363.614583 131.515625 L 481.375 131.515625 " transform="matrix(0.75,0,0,0.75,0,0)"/>
<path style="fill:none;stroke-width:1.5;stroke-linecap:butt;stroke-linejoin:miter;stroke:rgb(0%,0%,0%);stroke-opacity:1;stroke-miterlimit:10;" d="M 372.005208 110 L 486.640625 110 " transform="matrix(0.75,0,0,0.75,0,0)"/>
<path style="fill:none;stroke-width:1.5;stroke-linecap:butt;stroke-linejoin:miter;stroke:rgb(0%,0%,0%);stroke-opacity:1;stroke-miterlimit:10;" d="M 373.28125 88.484375 L 485.036458 88.484375 " transform="matrix(0.75,0,0,0.75,0,0)"/>
<path style="fill:none;stroke-width:1;stroke-linecap:butt;stroke-linejoin:miter;stroke:rgb(0%,0%,0%);stroke-opacity:1;stroke-miterlimit:10;" d="M 170.286458 536.5 L 170.286458 542.5 " transform="matrix(0.75,0,0,0.75,0,0)"/>
<path style="fill:none;stroke-width:1;stroke-linecap:butt;stroke-linejoin:miter;stroke:rgb(0%,0%,0%);stroke-opacity:1;stroke-miterlimit:10;" d="M 426 536.5 L 426 542.5 " transform="matrix(0.75,0,0,0.75,0,0)"/>
<path style="fill:none;stroke-width:1;stroke-linecap:butt;stroke-linejoin:miter;stroke:rgb(0%,0%,0%);stroke-opacity:1;stroke-miterlimit:10;" d="M 681.713542 536.5 L 681.713542 542.5 " transform="matrix(0.75,0,0,0.75,0,0)"/>
<path style="fill:none;stroke-width:1;stroke-linecap:butt;stroke-linejoin:miter;stroke:rgb(0%,0%,0%);stroke-opacity:1;stroke-miterlimit:10;" d="M 67.5 508.03125 L 61.5 508.03125 " transform="matrix(0.75,0,0,0.75,0,0)"/>
<path style="fill:none;stroke-width:1;stroke-linecap:butt;stroke-linejoin:miter;stroke:rgb(0%,0%,0%);stroke-opacity:1;stroke-miterlimit:10;" d="M 67.5 400.453125 L 61.5 400.453125 " transform="matrix(0.75,0,0,0.75,0,0)"/>
<path style="fill:none;stroke-width:1;stroke-linecap:butt;stroke-linejoin:miter;stroke:rgb(0%,0%,0%);stroke-opacity:1;stroke-miterlimit:10;" d="M 67.5 292.880208 L 61.5 292.880208 " transform="matrix(0.75,0,0,0.75,0,0)"/>
<path style="fill:none;stroke-width:1;stroke-linecap:butt;stroke-linejoin:miter;stroke:rgb(0%,0%,0%);stroke-opacity:1;stroke-miterlimit:10;" d="M 67.5 185.302083 L 61.5 185.302083 " transform="matrix(0.75,0,0,0.75,0,0)"/>
<path style="fill:none;stroke-width:1;stroke-linecap:butt;stroke-linejoin:miter;stroke:rgb(0%,0%,0%);stroke-opacity:1;stroke-miterlimit:10;" d="M 67.5 77.729167 L 61.5 77.729167 " transform="matrix(0.75,0,0,0.75,0,0)"/>
<path style="fill:none;stroke-width:1;stroke-linecap:butt;stroke-linejoin:miter;stroke:rgb(0%,0%,0%);stroke-opacity:1;stroke-miterlimit:10;" d="M 67.5 536 L 784.5 536 " transform="matrix(0.75,0,0,0.75,0,0)"/>
<path style="fill:none;stroke-width:1;stroke-linecap:butt;stroke-linejoin:miter;stroke:rgb(0%,0%,0%);stroke-opacity:1;stroke-miterlimit:10;" d="M 68 536.5 L 68 38.5 " transform="matrix(0.75,0,0,0.75,0,0)"/>
<path style="fill:none;stroke-width:1;stroke-linecap:butt;stroke-linejoin:miter;stroke:rgb(0%,0%,0%);stroke-opacity:1;stroke-miterlimit:10;" d="M 67.5 39 L 784.5 39 " transform="matrix(0.75,0,0,0.75,0,0)"/>
<path style="fill:none;stroke-width:1;stroke-linecap:butt;stroke-linejoin:miter;stroke:rgb(0%,0%,0%);stroke-opacity:1;stroke-miterlimit:10;" d="M 784 536.5 L 784 38.5 " transform="matrix(0.75,0,0,0.75,0,0)"/>
</g>
</svg>
