<?xml version="1.0" encoding="utf-8"?>
<svg xmlns="http://www.w3.org/2000/svg" xmlns:xlink="http://www.w3.org/1999/xlink" width="600" height="400" viewBox="0 0 2400 1600">
<defs>
  <clipPath id="clip060">
    <rect x="0" y="0" width="2400" height="1600"/>
  </clipPath>
</defs>
<path clip-path="url(#clip060)" d="
M0 1600 L2400 1600 L2400 0 L0 0  Z
  " fill="#ffffff" fill-rule="evenodd" fill-opacity="1"/>
<defs>
  <clipPath id="clip061">
    <rect x="480" y="0" width="1681" height="1600"/>
  </clipPath>
</defs>
<path clip-path="url(#clip060)" d="
M102.74 1505.26 L2352.76 1505.26 L2352.76 62.9921 L102.74 62.9921  Z
  " fill="#ffffff" fill-rule="evenodd" fill-opacity="1"/>
<defs>
  <clipPath id="clip062">
    <rect x="102" y="62" width="2251" height="1443"/>
  </clipPath>
</defs>
<polyline clip-path="url(#clip062)" style="stroke:#000000; stroke-width:2; stroke-opacity:0.1; fill:none" points="
  102.74,1505.26 102.74,62.9921 
  "/>
<polyline clip-path="url(#clip062)" style="stroke:#000000; stroke-width:2; stroke-opacity:0.1; fill:none" points="
  552.743,1505.26 552.743,62.9921 
  "/>
<polyline clip-path="url(#clip062)" style="stroke:#000000; stroke-width:2; stroke-opacity:0.1; fill:none" points="
  1002.75,1505.26 1002.75,62.9921 
  "/>
<polyline clip-path="url(#clip062)" style="stroke:#000000; stroke-width:2; stroke-opacity:0.1; fill:none" points="
  1452.75,1505.26 1452.75,62.9921 
  "/>
<polyline clip-path="url(#clip062)" style="stroke:#000000; stroke-width:2; stroke-opacity:0.1; fill:none" points="
  1902.75,1505.26 1902.75,62.9921 
  "/>
<polyline clip-path="url(#clip062)" style="stroke:#000000; stroke-width:2; stroke-opacity:0.1; fill:none" points="
  2352.76,1505.26 2352.76,62.9921 
  "/>
<polyline clip-path="url(#clip060)" style="stroke:#000000; stroke-width:4; stroke-opacity:1; fill:none" points="
  102.74,1505.26 2352.76,1505.26 
  "/>
<polyline clip-path="url(#clip060)" style="stroke:#000000; stroke-width:4; stroke-opacity:1; fill:none" points="
  102.74,1505.26 102.74,1487.95 
  "/>
<polyline clip-path="url(#clip060)" style="stroke:#000000; stroke-width:4; stroke-opacity:1; fill:none" points="
  552.743,1505.26 552.743,1487.95 
  "/>
<polyline clip-path="url(#clip060)" style="stroke:#000000; stroke-width:4; stroke-opacity:1; fill:none" points="
  1002.75,1505.26 1002.75,1487.95 
  "/>
<polyline clip-path="url(#clip060)" style="stroke:#000000; stroke-width:4; stroke-opacity:1; fill:none" points="
  1452.75,1505.26 1452.75,1487.95 
  "/>
<polyline clip-path="url(#clip060)" style="stroke:#000000; stroke-width:4; stroke-opacity:1; fill:none" points="
  1902.75,1505.26 1902.75,1487.95 
  "/>
<polyline clip-path="url(#clip060)" style="stroke:#000000; stroke-width:4; stroke-opacity:1; fill:none" points="
  2352.76,1505.26 2352.76,1487.95 
  "/>
<path clip-path="url(#clip060)" d="M 0 0 M84.2565 1534.45 Q80.6454 1534.45 78.8167 1538.02 Q77.0111 1541.56 77.0111 1548.69 Q77.0111 1555.79 78.8167 1559.36 Q80.6454 1562.9 84.2565 1562.9 Q87.8907 1562.9 89.6962 1559.36 Q91.5249 1555.79 91.5249 1548.69 Q91.5249 1541.56 89.6962 1538.02 Q87.8907 1534.45 84.2565 1534.45 M84.2565 1530.75 Q90.0666 1530.75 93.1222 1535.35 Q96.2008 1539.94 96.2008 1548.69 Q96.2008 1557.41 93.1222 1562.02 Q90.0666 1566.6 84.2565 1566.6 Q78.4463 1566.6 75.3676 1562.02 Q72.3121 1557.41 72.3121 1548.69 Q72.3121 1539.94 75.3676 1535.35 Q78.4463 1530.75 84.2565 1530.75 Z" fill="#000000" fill-rule="evenodd" fill-opacity="1" /><path clip-path="url(#clip060)" d="M 0 0 M101.27 1560.05 L106.154 1560.05 L106.154 1565.93 L101.27 1565.93 L101.27 1560.05 Z" fill="#000000" fill-rule="evenodd" fill-opacity="1" /><path clip-path="url(#clip060)" d="M 0 0 M121.224 1534.45 Q117.613 1534.45 115.784 1538.02 Q113.979 1541.56 113.979 1548.69 Q113.979 1555.79 115.784 1559.36 Q117.613 1562.9 121.224 1562.9 Q124.858 1562.9 126.664 1559.36 Q128.492 1555.79 128.492 1548.69 Q128.492 1541.56 126.664 1538.02 Q124.858 1534.45 121.224 1534.45 M121.224 1530.75 Q127.034 1530.75 130.09 1535.35 Q133.168 1539.94 133.168 1548.69 Q133.168 1557.41 130.09 1562.02 Q127.034 1566.6 121.224 1566.6 Q115.414 1566.6 112.335 1562.02 Q109.279 1557.41 109.279 1548.69 Q109.279 1539.94 112.335 1535.35 Q115.414 1530.75 121.224 1530.75 Z" fill="#000000" fill-rule="evenodd" fill-opacity="1" /><path clip-path="url(#clip060)" d="M 0 0 M535.058 1534.45 Q531.447 1534.45 529.618 1538.02 Q527.813 1541.56 527.813 1548.69 Q527.813 1555.79 529.618 1559.36 Q531.447 1562.9 535.058 1562.9 Q538.692 1562.9 540.498 1559.36 Q542.327 1555.79 542.327 1548.69 Q542.327 1541.56 540.498 1538.02 Q538.692 1534.45 535.058 1534.45 M535.058 1530.75 Q540.868 1530.75 543.924 1535.35 Q547.003 1539.94 547.003 1548.69 Q547.003 1557.41 543.924 1562.02 Q540.868 1566.6 535.058 1566.6 Q529.248 1566.6 526.169 1562.02 Q523.114 1557.41 523.114 1548.69 Q523.114 1539.94 526.169 1535.35 Q529.248 1530.75 535.058 1530.75 Z" fill="#000000" fill-rule="evenodd" fill-opacity="1" /><path clip-path="url(#clip060)" d="M 0 0 M552.072 1560.05 L556.956 1560.05 L556.956 1565.93 L552.072 1565.93 L552.072 1560.05 Z" fill="#000000" fill-rule="evenodd" fill-opacity="1" /><path clip-path="url(#clip060)" d="M 0 0 M566.053 1562 L582.373 1562 L582.373 1565.93 L560.428 1565.93 L560.428 1562 Q563.09 1559.24 567.674 1554.61 Q572.28 1549.96 573.461 1548.62 Q575.706 1546.09 576.586 1544.36 Q577.489 1542.6 577.489 1540.91 Q577.489 1538.15 575.544 1536.42 Q573.623 1534.68 570.521 1534.68 Q568.322 1534.68 565.868 1535.45 Q563.438 1536.21 560.66 1537.76 L560.66 1533.04 Q563.484 1531.9 565.938 1531.33 Q568.391 1530.75 570.428 1530.75 Q575.799 1530.75 578.993 1533.43 Q582.188 1536.12 582.188 1540.61 Q582.188 1542.74 581.377 1544.66 Q580.59 1546.56 578.484 1549.15 Q577.905 1549.82 574.803 1553.04 Q571.702 1556.23 566.053 1562 Z" fill="#000000" fill-rule="evenodd" fill-opacity="1" /><path clip-path="url(#clip060)" d="M 0 0 M984.02 1534.45 Q980.409 1534.45 978.58 1538.02 Q976.774 1541.56 976.774 1548.69 Q976.774 1555.79 978.58 1559.36 Q980.409 1562.9 984.02 1562.9 Q987.654 1562.9 989.459 1559.36 Q991.288 1555.79 991.288 1548.69 Q991.288 1541.56 989.459 1538.02 Q987.654 1534.45 984.02 1534.45 M984.02 1530.75 Q989.83 1530.75 992.885 1535.35 Q995.964 1539.94 995.964 1548.69 Q995.964 1557.41 992.885 1562.02 Q989.83 1566.6 984.02 1566.6 Q978.21 1566.6 975.131 1562.02 Q972.075 1557.41 972.075 1548.69 Q972.075 1539.94 975.131 1535.35 Q978.21 1530.75 984.02 1530.75 Z" fill="#000000" fill-rule="evenodd" fill-opacity="1" /><path clip-path="url(#clip060)" d="M 0 0 M1001.03 1560.05 L1005.92 1560.05 L1005.92 1565.93 L1001.03 1565.93 L1001.03 1560.05 Z" fill="#000000" fill-rule="evenodd" fill-opacity="1" /><path clip-path="url(#clip060)" d="M 0 0 M1023.83 1535.45 L1012.03 1553.89 L1023.83 1553.89 L1023.83 1535.45 M1022.61 1531.37 L1028.49 1531.37 L1028.49 1553.89 L1033.42 1553.89 L1033.42 1557.78 L1028.49 1557.78 L1028.49 1565.93 L1023.83 1565.93 L1023.83 1557.78 L1008.23 1557.78 L1008.23 1553.27 L1022.61 1531.37 Z" fill="#000000" fill-rule="evenodd" fill-opacity="1" /><path clip-path="url(#clip060)" d="M 0 0 M1434.18 1534.45 Q1430.57 1534.45 1428.75 1538.02 Q1426.94 1541.56 1426.94 1548.69 Q1426.94 1555.79 1428.75 1559.36 Q1430.57 1562.9 1434.18 1562.9 Q1437.82 1562.9 1439.62 1559.36 Q1441.45 1555.79 1441.45 1548.69 Q1441.45 1541.56 1439.62 1538.02 Q1437.82 1534.45 1434.18 1534.45 M1434.18 1530.75 Q1440 1530.75 1443.05 1535.35 Q1446.13 1539.94 1446.13 1548.69 Q1446.13 1557.41 1443.05 1562.02 Q1440 1566.6 1434.18 1566.6 Q1428.37 1566.6 1425.3 1562.02 Q1422.24 1557.41 1422.24 1548.69 Q1422.24 1539.94 1425.3 1535.35 Q1428.37 1530.75 1434.18 1530.75 Z" fill="#000000" fill-rule="evenodd" fill-opacity="1" /><path clip-path="url(#clip060)" d="M 0 0 M1451.2 1560.05 L1456.08 1560.05 L1456.08 1565.93 L1451.2 1565.93 L1451.2 1560.05 Z" fill="#000000" fill-rule="evenodd" fill-opacity="1" /><path clip-path="url(#clip060)" d="M 0 0 M1471.73 1546.79 Q1468.58 1546.79 1466.73 1548.94 Q1464.9 1551.09 1464.9 1554.84 Q1464.9 1558.57 1466.73 1560.75 Q1468.58 1562.9 1471.73 1562.9 Q1474.88 1562.9 1476.71 1560.75 Q1478.56 1558.57 1478.56 1554.84 Q1478.56 1551.09 1476.71 1548.94 Q1474.88 1546.79 1471.73 1546.79 M1481.01 1532.14 L1481.01 1536.39 Q1479.25 1535.56 1477.45 1535.12 Q1475.67 1534.68 1473.91 1534.68 Q1469.28 1534.68 1466.82 1537.81 Q1464.39 1540.93 1464.05 1547.25 Q1465.41 1545.24 1467.47 1544.17 Q1469.53 1543.08 1472.01 1543.08 Q1477.22 1543.08 1480.23 1546.26 Q1483.26 1549.4 1483.26 1554.84 Q1483.26 1560.17 1480.11 1563.39 Q1476.96 1566.6 1471.73 1566.6 Q1465.74 1566.6 1462.56 1562.02 Q1459.39 1557.41 1459.39 1548.69 Q1459.39 1540.49 1463.28 1535.63 Q1467.17 1530.75 1473.72 1530.75 Q1475.48 1530.75 1477.26 1531.09 Q1479.07 1531.44 1481.01 1532.14 Z" fill="#000000" fill-rule="evenodd" fill-opacity="1" /><path clip-path="url(#clip060)" d="M 0 0 M1884.32 1534.45 Q1880.7 1534.45 1878.88 1538.02 Q1877.07 1541.56 1877.07 1548.69 Q1877.07 1555.79 1878.88 1559.36 Q1880.7 1562.9 1884.32 1562.9 Q1887.95 1562.9 1889.76 1559.36 Q1891.58 1555.79 1891.58 1548.69 Q1891.58 1541.56 1889.76 1538.02 Q1887.95 1534.45 1884.32 1534.45 M1884.32 1530.75 Q1890.13 1530.75 1893.18 1535.35 Q1896.26 1539.94 1896.26 1548.69 Q1896.26 1557.41 1893.18 1562.02 Q1890.13 1566.6 1884.32 1566.6 Q1878.51 1566.6 1875.43 1562.02 Q1872.37 1557.41 1872.37 1548.69 Q1872.37 1539.94 1875.43 1535.35 Q1878.51 1530.75 1884.32 1530.75 Z" fill="#000000" fill-rule="evenodd" fill-opacity="1" /><path clip-path="url(#clip060)" d="M 0 0 M1901.33 1560.05 L1906.21 1560.05 L1906.21 1565.93 L1901.33 1565.93 L1901.33 1560.05 Z" fill="#000000" fill-rule="evenodd" fill-opacity="1" /><path clip-path="url(#clip060)" d="M 0 0 M1921.28 1549.52 Q1917.95 1549.52 1916.03 1551.3 Q1914.13 1553.08 1914.13 1556.21 Q1914.13 1559.33 1916.03 1561.12 Q1917.95 1562.9 1921.28 1562.9 Q1924.62 1562.9 1926.54 1561.12 Q1928.46 1559.31 1928.46 1556.21 Q1928.46 1553.08 1926.54 1551.3 Q1924.64 1549.52 1921.28 1549.52 M1916.61 1547.53 Q1913.6 1546.79 1911.91 1544.73 Q1910.24 1542.67 1910.24 1539.71 Q1910.24 1535.56 1913.18 1533.15 Q1916.14 1530.75 1921.28 1530.75 Q1926.44 1530.75 1929.38 1533.15 Q1932.32 1535.56 1932.32 1539.71 Q1932.32 1542.67 1930.63 1544.73 Q1928.97 1546.79 1925.98 1547.53 Q1929.36 1548.32 1931.24 1550.61 Q1933.13 1552.9 1933.13 1556.21 Q1933.13 1561.23 1930.06 1563.92 Q1927 1566.6 1921.28 1566.6 Q1915.57 1566.6 1912.49 1563.92 Q1909.43 1561.23 1909.43 1556.21 Q1909.43 1552.9 1911.33 1550.61 Q1913.23 1548.32 1916.61 1547.53 M1914.89 1540.14 Q1914.89 1542.83 1916.56 1544.33 Q1918.25 1545.84 1921.28 1545.84 Q1924.29 1545.84 1925.98 1544.33 Q1927.69 1542.83 1927.69 1540.14 Q1927.69 1537.46 1925.98 1535.96 Q1924.29 1534.45 1921.28 1534.45 Q1918.25 1534.45 1916.56 1535.96 Q1914.89 1537.46 1914.89 1540.14 Z" fill="#000000" fill-rule="evenodd" fill-opacity="1" /><path clip-path="url(#clip060)" d="M 0 0 M2324.65 1562 L2332.29 1562 L2332.29 1535.63 L2323.98 1537.3 L2323.98 1533.04 L2332.25 1531.37 L2336.92 1531.37 L2336.92 1562 L2344.56 1562 L2344.56 1565.93 L2324.65 1565.93 L2324.65 1562 Z" fill="#000000" fill-rule="evenodd" fill-opacity="1" /><path clip-path="url(#clip060)" d="M 0 0 M2349.63 1560.05 L2354.52 1560.05 L2354.52 1565.93 L2349.63 1565.93 L2349.63 1560.05 Z" fill="#000000" fill-rule="evenodd" fill-opacity="1" /><path clip-path="url(#clip060)" d="M 0 0 M2369.58 1534.45 Q2365.97 1534.45 2364.14 1538.02 Q2362.34 1541.56 2362.34 1548.69 Q2362.34 1555.79 2364.14 1559.36 Q2365.97 1562.9 2369.58 1562.9 Q2373.22 1562.9 2375.02 1559.36 Q2376.85 1555.79 2376.85 1548.69 Q2376.85 1541.56 2375.02 1538.02 Q2373.22 1534.45 2369.58 1534.45 M2369.58 1530.75 Q2375.39 1530.75 2378.45 1535.35 Q2381.53 1539.94 2381.53 1548.69 Q2381.53 1557.41 2378.45 1562.02 Q2375.39 1566.6 2369.58 1566.6 Q2363.77 1566.6 2360.7 1562.02 Q2357.64 1557.41 2357.64 1548.69 Q2357.64 1539.94 2360.7 1535.35 Q2363.77 1530.75 2369.58 1530.75 Z" fill="#000000" fill-rule="evenodd" fill-opacity="1" /><path clip-path="url(#clip060)" d="M 0 0 M948.118 1595.89 L948.118 1613.74 L956.203 1613.74 Q960.691 1613.74 963.142 1611.42 Q965.592 1609.1 965.592 1604.8 Q965.592 1600.53 963.142 1598.21 Q960.691 1595.89 956.203 1595.89 L948.118 1595.89 M941.689 1590.6 L956.203 1590.6 Q964.192 1590.6 968.266 1594.23 Q972.372 1597.83 972.372 1604.8 Q972.372 1611.83 968.266 1615.43 Q964.192 1619.03 956.203 1619.03 L948.118 1619.03 L948.118 1638.12 L941.689 1638.12 L941.689 1590.6 Z" fill="#000000" fill-rule="evenodd" fill-opacity="1" /><path clip-path="url(#clip060)" d="M 0 0 M998.026 1607.95 Q997.039 1607.38 995.861 1607.12 Q994.715 1606.84 993.315 1606.84 Q988.35 1606.84 985.676 1610.08 Q983.034 1613.3 983.034 1619.35 L983.034 1638.12 L977.146 1638.12 L977.146 1602.48 L983.034 1602.48 L983.034 1608.01 Q984.88 1604.77 987.84 1603.21 Q990.801 1601.62 995.034 1601.62 Q995.638 1601.62 996.371 1601.71 Q997.103 1601.78 997.994 1601.93 L998.026 1607.95 Z" fill="#000000" fill-rule="evenodd" fill-opacity="1" /><path clip-path="url(#clip060)" d="M 0 0 M1016.55 1606.58 Q1011.84 1606.58 1009.1 1610.27 Q1006.36 1613.93 1006.36 1620.33 Q1006.36 1626.73 1009.07 1630.42 Q1011.81 1634.08 1016.55 1634.08 Q1021.23 1634.08 1023.97 1630.39 Q1026.7 1626.7 1026.7 1620.33 Q1026.7 1614 1023.97 1610.31 Q1021.23 1606.58 1016.55 1606.58 M1016.55 1601.62 Q1024.19 1601.62 1028.55 1606.58 Q1032.91 1611.55 1032.91 1620.33 Q1032.91 1629.08 1028.55 1634.08 Q1024.19 1639.05 1016.55 1639.05 Q1008.88 1639.05 1004.52 1634.08 Q1000.19 1629.08 1000.19 1620.33 Q1000.19 1611.55 1004.52 1606.58 Q1008.88 1601.62 1016.55 1601.62 Z" fill="#000000" fill-rule="evenodd" fill-opacity="1" /><path clip-path="url(#clip060)" d="M 0 0 M1064.64 1620.33 Q1064.64 1613.87 1061.97 1610.21 Q1059.33 1606.52 1054.68 1606.52 Q1050.03 1606.52 1047.36 1610.21 Q1044.72 1613.87 1044.72 1620.33 Q1044.72 1626.79 1047.36 1630.48 Q1050.03 1634.15 1054.68 1634.15 Q1059.33 1634.15 1061.97 1630.48 Q1064.64 1626.79 1064.64 1620.33 M1044.72 1607.89 Q1046.56 1604.7 1049.37 1603.18 Q1052.2 1601.62 1056.11 1601.62 Q1062.61 1601.62 1066.65 1606.77 Q1070.72 1611.93 1070.72 1620.33 Q1070.72 1628.73 1066.65 1633.89 Q1062.61 1639.05 1056.11 1639.05 Q1052.2 1639.05 1049.37 1637.52 Q1046.56 1635.96 1044.72 1632.78 L1044.72 1638.12 L1038.83 1638.12 L1038.83 1588.6 L1044.72 1588.6 L1044.72 1607.89 Z" fill="#000000" fill-rule="evenodd" fill-opacity="1" /><path clip-path="url(#clip060)" d="M 0 0 M1093.07 1620.2 Q1085.97 1620.2 1083.23 1621.83 Q1080.49 1623.45 1080.49 1627.37 Q1080.49 1630.48 1082.53 1632.33 Q1084.6 1634.15 1088.13 1634.15 Q1093 1634.15 1095.93 1630.71 Q1098.89 1627.24 1098.89 1621.51 L1098.89 1620.2 L1093.07 1620.2 M1104.75 1617.79 L1104.75 1638.12 L1098.89 1638.12 L1098.89 1632.71 Q1096.89 1635.96 1093.89 1637.52 Q1090.9 1639.05 1086.57 1639.05 Q1081.1 1639.05 1077.85 1635.99 Q1074.64 1632.9 1074.64 1627.75 Q1074.64 1621.73 1078.65 1618.68 Q1082.69 1615.62 1090.68 1615.62 L1098.89 1615.62 L1098.89 1615.05 Q1098.89 1611.01 1096.22 1608.81 Q1093.57 1606.58 1088.77 1606.58 Q1085.71 1606.58 1082.82 1607.31 Q1079.92 1608.05 1077.25 1609.51 L1077.25 1604.1 Q1080.46 1602.86 1083.49 1602.25 Q1086.51 1601.62 1089.37 1601.62 Q1097.11 1601.62 1100.93 1605.63 Q1104.75 1609.64 1104.75 1617.79 Z" fill="#000000" fill-rule="evenodd" fill-opacity="1" /><path clip-path="url(#clip060)" d="M 0 0 M1136.48 1620.33 Q1136.48 1613.87 1133.81 1610.21 Q1131.16 1606.52 1126.52 1606.52 Q1121.87 1606.52 1119.2 1610.21 Q1116.56 1613.87 1116.56 1620.33 Q1116.56 1626.79 1119.2 1630.48 Q1121.87 1634.15 1126.52 1634.15 Q1131.16 1634.15 1133.81 1630.48 Q1136.48 1626.79 1136.48 1620.33 M1116.56 1607.89 Q1118.4 1604.7 1121.2 1603.18 Q1124.03 1601.62 1127.95 1601.62 Q1134.44 1601.62 1138.48 1606.77 Q1142.56 1611.93 1142.56 1620.33 Q1142.56 1628.73 1138.48 1633.89 Q1134.44 1639.05 1127.95 1639.05 Q1124.03 1639.05 1121.2 1637.52 Q1118.4 1635.96 1116.56 1632.78 L1116.56 1638.12 L1110.67 1638.12 L1110.67 1588.6 L1116.56 1588.6 L1116.56 1607.89 Z" fill="#000000" fill-rule="evenodd" fill-opacity="1" /><path clip-path="url(#clip060)" d="M 0 0 M1148.7 1602.48 L1154.56 1602.48 L1154.56 1638.12 L1148.7 1638.12 L1148.7 1602.48 M1148.7 1588.6 L1154.56 1588.6 L1154.56 1596.01 L1148.7 1596.01 L1148.7 1588.6 Z" fill="#000000" fill-rule="evenodd" fill-opacity="1" /><path clip-path="url(#clip060)" d="M 0 0 M1160.7 1588.6 L1166.56 1588.6 L1166.56 1638.12 L1160.7 1638.12 L1160.7 1588.6 Z" fill="#000000" fill-rule="evenodd" fill-opacity="1" /><path clip-path="url(#clip060)" d="M 0 0 M1172.7 1602.48 L1178.56 1602.48 L1178.56 1638.12 L1172.7 1638.12 L1172.7 1602.48 M1172.7 1588.6 L1178.56 1588.6 L1178.56 1596.01 L1172.7 1596.01 L1172.7 1588.6 Z" fill="#000000" fill-rule="evenodd" fill-opacity="1" /><path clip-path="url(#clip060)" d="M 0 0 M1190.49 1592.35 L1190.49 1602.48 L1202.56 1602.48 L1202.56 1607.03 L1190.49 1607.03 L1190.49 1626.38 Q1190.49 1630.74 1191.67 1631.98 Q1192.88 1633.22 1196.54 1633.22 L1202.56 1633.22 L1202.56 1638.12 L1196.54 1638.12 Q1189.76 1638.12 1187.18 1635.61 Q1184.6 1633.06 1184.6 1626.38 L1184.6 1607.03 L1180.31 1607.03 L1180.31 1602.48 L1184.6 1602.48 L1184.6 1592.35 L1190.49 1592.35 Z" fill="#000000" fill-rule="evenodd" fill-opacity="1" /><path clip-path="url(#clip060)" d="M 0 0 M1223.53 1641.43 Q1221.05 1647.8 1218.69 1649.74 Q1216.34 1651.68 1212.39 1651.68 L1207.71 1651.68 L1207.71 1646.78 L1211.15 1646.78 Q1213.57 1646.78 1214.91 1645.64 Q1216.24 1644.49 1217.87 1640.22 L1218.92 1637.55 L1204.5 1602.48 L1210.7 1602.48 L1221.84 1630.36 L1232.98 1602.48 L1239.19 1602.48 L1223.53 1641.43 Z" fill="#000000" fill-rule="evenodd" fill-opacity="1" /><path clip-path="url(#clip060)" d="M 0 0 M1279.87 1606.58 Q1275.16 1606.58 1272.42 1610.27 Q1269.68 1613.93 1269.68 1620.33 Q1269.68 1626.73 1272.39 1630.42 Q1275.12 1634.08 1279.87 1634.08 Q1284.55 1634.08 1287.28 1630.39 Q1290.02 1626.7 1290.02 1620.33 Q1290.02 1614 1287.28 1610.31 Q1284.55 1606.58 1279.87 1606.58 M1279.87 1601.62 Q1287.51 1601.62 1291.87 1606.58 Q1296.23 1611.55 1296.23 1620.33 Q1296.23 1629.08 1291.87 1634.08 Q1287.51 1639.05 1279.87 1639.05 Q1272.2 1639.05 1267.84 1634.08 Q1263.51 1629.08 1263.51 1620.33 Q1263.51 1611.55 1267.84 1606.58 Q1272.2 1601.62 1279.87 1601.62 Z" fill="#000000" fill-rule="evenodd" fill-opacity="1" /><path clip-path="url(#clip060)" d="M 0 0 M1320.42 1588.6 L1320.42 1593.47 L1314.81 1593.47 Q1311.66 1593.47 1310.42 1594.74 Q1309.21 1596.01 1309.21 1599.32 L1309.21 1602.48 L1318.86 1602.48 L1318.86 1607.03 L1309.21 1607.03 L1309.21 1638.12 L1303.32 1638.12 L1303.32 1607.03 L1297.72 1607.03 L1297.72 1602.48 L1303.32 1602.48 L1303.32 1599.99 Q1303.32 1594.04 1306.09 1591.34 Q1308.86 1588.6 1314.88 1588.6 L1320.42 1588.6 Z" fill="#000000" fill-rule="evenodd" fill-opacity="1" /><path clip-path="url(#clip060)" d="M 0 0 M1376.91 1616.61 L1376.91 1638.12 L1371.06 1638.12 L1371.06 1616.8 Q1371.06 1611.74 1369.08 1609.22 Q1367.11 1606.71 1363.16 1606.71 Q1358.42 1606.71 1355.68 1609.73 Q1352.95 1612.76 1352.95 1617.98 L1352.95 1638.12 L1347.06 1638.12 L1347.06 1588.6 L1352.95 1588.6 L1352.95 1608.01 Q1355.05 1604.8 1357.88 1603.21 Q1360.74 1601.62 1364.47 1601.62 Q1370.61 1601.62 1373.76 1605.44 Q1376.91 1609.22 1376.91 1616.61 Z" fill="#000000" fill-rule="evenodd" fill-opacity="1" /><path clip-path="url(#clip060)" d="M 0 0 M1413.55 1618.84 L1413.55 1621.7 L1386.62 1621.7 Q1387 1627.75 1390.25 1630.93 Q1393.53 1634.08 1399.35 1634.08 Q1402.73 1634.08 1405.88 1633.25 Q1409.06 1632.43 1412.18 1630.77 L1412.18 1636.31 Q1409.03 1637.65 1405.72 1638.35 Q1402.41 1639.05 1399 1639.05 Q1390.47 1639.05 1385.47 1634.08 Q1380.51 1629.12 1380.51 1620.65 Q1380.51 1611.9 1385.22 1606.77 Q1389.96 1601.62 1397.98 1601.62 Q1405.18 1601.62 1409.35 1606.26 Q1413.55 1610.88 1413.55 1618.84 M1407.69 1617.12 Q1407.63 1612.31 1404.99 1609.45 Q1402.38 1606.58 1398.05 1606.58 Q1393.15 1606.58 1390.18 1609.35 Q1387.26 1612.12 1386.81 1617.15 L1407.69 1617.12 Z" fill="#000000" fill-rule="evenodd" fill-opacity="1" /><path clip-path="url(#clip060)" d="M 0 0 M1435.89 1620.2 Q1428.79 1620.2 1426.06 1621.83 Q1423.32 1623.45 1423.32 1627.37 Q1423.32 1630.48 1425.36 1632.33 Q1427.42 1634.15 1430.96 1634.15 Q1435.83 1634.15 1438.76 1630.71 Q1441.72 1627.24 1441.72 1621.51 L1441.72 1620.2 L1435.89 1620.2 M1447.57 1617.79 L1447.57 1638.12 L1441.72 1638.12 L1441.72 1632.71 Q1439.71 1635.96 1436.72 1637.52 Q1433.73 1639.05 1429.4 1639.05 Q1423.92 1639.05 1420.68 1635.99 Q1417.46 1632.9 1417.46 1627.75 Q1417.46 1621.73 1421.47 1618.68 Q1425.51 1615.62 1433.5 1615.62 L1441.72 1615.62 L1441.72 1615.05 Q1441.72 1611.01 1439.04 1608.81 Q1436.4 1606.58 1431.59 1606.58 Q1428.54 1606.58 1425.64 1607.31 Q1422.75 1608.05 1420.07 1609.51 L1420.07 1604.1 Q1423.29 1602.86 1426.31 1602.25 Q1429.33 1601.62 1432.2 1601.62 Q1439.93 1601.62 1443.75 1605.63 Q1447.57 1609.64 1447.57 1617.79 Z" fill="#000000" fill-rule="evenodd" fill-opacity="1" /><path clip-path="url(#clip060)" d="M 0 0 M1477.17 1607.89 L1477.17 1588.6 L1483.03 1588.6 L1483.03 1638.12 L1477.17 1638.12 L1477.17 1632.78 Q1475.33 1635.96 1472.49 1637.52 Q1469.69 1639.05 1465.75 1639.05 Q1459.28 1639.05 1455.21 1633.89 Q1451.17 1628.73 1451.17 1620.33 Q1451.17 1611.93 1455.21 1606.77 Q1459.28 1601.62 1465.75 1601.62 Q1469.69 1601.62 1472.49 1603.18 Q1475.33 1604.7 1477.17 1607.89 M1457.22 1620.33 Q1457.22 1626.79 1459.86 1630.48 Q1462.53 1634.15 1467.18 1634.15 Q1471.83 1634.15 1474.5 1630.48 Q1477.17 1626.79 1477.17 1620.33 Q1477.17 1613.87 1474.5 1610.21 Q1471.83 1606.52 1467.18 1606.52 Q1462.53 1606.52 1459.86 1610.21 Q1457.22 1613.87 1457.22 1620.33 Z" fill="#000000" fill-rule="evenodd" fill-opacity="1" /><path clip-path="url(#clip060)" d="M 0 0 M1511.9 1603.53 L1511.9 1609.06 Q1509.41 1607.79 1506.74 1607.15 Q1504.07 1606.52 1501.2 1606.52 Q1496.84 1606.52 1494.65 1607.85 Q1492.48 1609.19 1492.48 1611.87 Q1492.48 1613.9 1494.04 1615.08 Q1495.6 1616.23 1500.31 1617.28 L1502.32 1617.72 Q1508.56 1619.06 1511.17 1621.51 Q1513.81 1623.93 1513.81 1628.29 Q1513.81 1633.25 1509.86 1636.15 Q1505.95 1639.05 1499.07 1639.05 Q1496.21 1639.05 1493.09 1638.47 Q1490 1637.93 1486.56 1636.82 L1486.56 1630.77 Q1489.81 1632.46 1492.96 1633.32 Q1496.11 1634.15 1499.2 1634.15 Q1503.34 1634.15 1505.56 1632.74 Q1507.79 1631.31 1507.79 1628.73 Q1507.79 1626.35 1506.17 1625.07 Q1504.58 1623.8 1499.13 1622.62 L1497.1 1622.15 Q1491.65 1621 1489.24 1618.64 Q1486.82 1616.26 1486.82 1612.12 Q1486.82 1607.09 1490.38 1604.35 Q1493.95 1601.62 1500.5 1601.62 Q1503.75 1601.62 1506.61 1602.09 Q1509.48 1602.57 1511.9 1603.53 Z" fill="#000000" fill-rule="evenodd" fill-opacity="1" /><polyline clip-path="url(#clip062)" style="stroke:#000000; stroke-width:2; stroke-opacity:0.1; fill:none" points="
  102.74,1499.33 2352.76,1499.33 
  "/>
<polyline clip-path="url(#clip062)" style="stroke:#000000; stroke-width:2; stroke-opacity:0.1; fill:none" points="
  102.74,1150.45 2352.76,1150.45 
  "/>
<polyline clip-path="url(#clip062)" style="stroke:#000000; stroke-width:2; stroke-opacity:0.1; fill:none" points="
  102.74,801.57 2352.76,801.57 
  "/>
<polyline clip-path="url(#clip062)" style="stroke:#000000; stroke-width:2; stroke-opacity:0.1; fill:none" points="
  102.74,452.69 2352.76,452.69 
  "/>
<polyline clip-path="url(#clip062)" style="stroke:#000000; stroke-width:2; stroke-opacity:0.1; fill:none" points="
  102.74,103.811 2352.76,103.811 
  "/>
<polyline clip-path="url(#clip060)" style="stroke:#000000; stroke-width:4; stroke-opacity:1; fill:none" points="
  102.74,1505.26 102.74,62.9921 
  "/>
<polyline clip-path="url(#clip060)" style="stroke:#000000; stroke-width:4; stroke-opacity:1; fill:none" points="
  102.74,1499.33 129.74,1499.33 
  "/>
<polyline clip-path="url(#clip060)" style="stroke:#000000; stroke-width:4; stroke-opacity:1; fill:none" points="
  102.74,1150.45 129.74,1150.45 
  "/>
<polyline clip-path="url(#clip060)" style="stroke:#000000; stroke-width:4; stroke-opacity:1; fill:none" points="
  102.74,801.57 129.74,801.57 
  "/>
<polyline clip-path="url(#clip060)" style="stroke:#000000; stroke-width:4; stroke-opacity:1; fill:none" points="
  102.74,452.69 129.74,452.69 
  "/>
<polyline clip-path="url(#clip060)" style="stroke:#000000; stroke-width:4; stroke-opacity:1; fill:none" points="
  102.74,103.811 129.74,103.811 
  "/>
<path clip-path="url(#clip060)" d="M 0 0 M54.7958 1485.13 Q51.1847 1485.13 49.356 1488.69 Q47.5504 1492.23 47.5504 1499.36 Q47.5504 1506.47 49.356 1510.03 Q51.1847 1513.58 54.7958 1513.58 Q58.43 1513.58 60.2356 1510.03 Q62.0643 1506.47 62.0643 1499.36 Q62.0643 1492.23 60.2356 1488.69 Q58.43 1485.13 54.7958 1485.13 M54.7958 1481.42 Q60.6059 1481.42 63.6615 1486.03 Q66.7402 1490.61 66.7402 1499.36 Q66.7402 1508.09 63.6615 1512.7 Q60.6059 1517.28 54.7958 1517.28 Q48.9856 1517.28 45.9069 1512.7 Q42.8514 1508.09 42.8514 1499.36 Q42.8514 1490.61 45.9069 1486.03 Q48.9856 1481.42 54.7958 1481.42 Z" fill="#000000" fill-rule="evenodd" fill-opacity="1" /><path clip-path="url(#clip060)" d="M 0 0 M23.4071 1163.79 L39.7264 1163.79 L39.7264 1167.73 L17.7821 1167.73 L17.7821 1163.79 Q20.4441 1161.04 25.0274 1156.41 Q29.6339 1151.76 30.8144 1150.41 Q33.0598 1147.89 33.9394 1146.16 Q34.8422 1144.4 34.8422 1142.71 Q34.8422 1139.95 32.8977 1138.22 Q30.9765 1136.48 27.8746 1136.48 Q25.6756 1136.48 23.2219 1137.24 Q20.7913 1138.01 18.0136 1139.56 L18.0136 1134.84 Q20.8376 1133.7 23.2913 1133.12 Q25.745 1132.54 27.782 1132.54 Q33.1524 1132.54 36.3468 1135.23 Q39.5412 1137.91 39.5412 1142.41 Q39.5412 1144.54 38.731 1146.46 Q37.944 1148.35 35.8375 1150.95 Q35.2588 1151.62 32.157 1154.84 Q29.0552 1158.03 23.4071 1163.79 Z" fill="#000000" fill-rule="evenodd" fill-opacity="1" /><path clip-path="url(#clip060)" d="M 0 0 M54.7958 1136.25 Q51.1847 1136.25 49.356 1139.81 Q47.5504 1143.35 47.5504 1150.48 Q47.5504 1157.59 49.356 1161.16 Q51.1847 1164.7 54.7958 1164.7 Q58.43 1164.7 60.2356 1161.16 Q62.0643 1157.59 62.0643 1150.48 Q62.0643 1143.35 60.2356 1139.81 Q58.43 1136.25 54.7958 1136.25 M54.7958 1132.54 Q60.6059 1132.54 63.6615 1137.15 Q66.7402 1141.73 66.7402 1150.48 Q66.7402 1159.21 63.6615 1163.82 Q60.6059 1168.4 54.7958 1168.4 Q48.9856 1168.4 45.9069 1163.82 Q42.8514 1159.21 42.8514 1150.48 Q42.8514 1141.73 45.9069 1137.15 Q48.9856 1132.54 54.7958 1132.54 Z" fill="#000000" fill-rule="evenodd" fill-opacity="1" /><path clip-path="url(#clip060)" d="M 0 0 M30.1431 788.364 L18.3376 806.813 L30.1431 806.813 L30.1431 788.364 M28.9163 784.29 L34.7959 784.29 L34.7959 806.813 L39.7264 806.813 L39.7264 810.702 L34.7959 810.702 L34.7959 818.85 L30.1431 818.85 L30.1431 810.702 L14.5414 810.702 L14.5414 806.188 L28.9163 784.29 Z" fill="#000000" fill-rule="evenodd" fill-opacity="1" /><path clip-path="url(#clip060)" d="M 0 0 M54.7958 787.369 Q51.1847 787.369 49.356 790.933 Q47.5504 794.475 47.5504 801.605 Q47.5504 808.711 49.356 812.276 Q51.1847 815.818 54.7958 815.818 Q58.43 815.818 60.2356 812.276 Q62.0643 808.711 62.0643 801.605 Q62.0643 794.475 60.2356 790.933 Q58.43 787.369 54.7958 787.369 M54.7958 783.665 Q60.6059 783.665 63.6615 788.271 Q66.7402 792.855 66.7402 801.605 Q66.7402 810.331 63.6615 814.938 Q60.6059 819.521 54.7958 819.521 Q48.9856 819.521 45.9069 814.938 Q42.8514 810.331 42.8514 801.605 Q42.8514 792.855 45.9069 788.271 Q48.9856 783.665 54.7958 783.665 Z" fill="#000000" fill-rule="evenodd" fill-opacity="1" /><path clip-path="url(#clip060)" d="M 0 0 M28.1987 450.827 Q25.0506 450.827 23.1987 452.98 Q21.37 455.133 21.37 458.883 Q21.37 462.609 23.1987 464.785 Q25.0506 466.938 28.1987 466.938 Q31.3468 466.938 33.1755 464.785 Q35.0274 462.609 35.0274 458.883 Q35.0274 455.133 33.1755 452.98 Q31.3468 450.827 28.1987 450.827 M37.4811 436.174 L37.4811 440.434 Q35.7218 439.6 33.9163 439.16 Q32.1339 438.721 30.3746 438.721 Q25.745 438.721 23.2913 441.846 Q20.8608 444.971 20.5136 451.29 Q21.8793 449.276 23.9395 448.211 Q25.9996 447.123 28.4765 447.123 Q33.6848 447.123 36.694 450.295 Q39.7264 453.443 39.7264 458.883 Q39.7264 464.207 36.5783 467.424 Q33.4302 470.642 28.1987 470.642 Q22.2034 470.642 19.0321 466.058 Q15.8608 461.452 15.8608 452.725 Q15.8608 444.531 19.7497 439.67 Q23.6385 434.785 30.1894 434.785 Q31.9487 434.785 33.7311 435.133 Q35.5366 435.48 37.4811 436.174 Z" fill="#000000" fill-rule="evenodd" fill-opacity="1" /><path clip-path="url(#clip060)" d="M 0 0 M54.7958 438.489 Q51.1847 438.489 49.356 442.054 Q47.5504 445.596 47.5504 452.725 Q47.5504 459.832 49.356 463.396 Q51.1847 466.938 54.7958 466.938 Q58.43 466.938 60.2356 463.396 Q62.0643 459.832 62.0643 452.725 Q62.0643 445.596 60.2356 442.054 Q58.43 438.489 54.7958 438.489 M54.7958 434.785 Q60.6059 434.785 63.6615 439.392 Q66.7402 443.975 66.7402 452.725 Q66.7402 461.452 63.6615 466.058 Q60.6059 470.642 54.7958 470.642 Q48.9856 470.642 45.9069 466.058 Q42.8514 461.452 42.8514 452.725 Q42.8514 443.975 45.9069 439.392 Q48.9856 434.785 54.7958 434.785 Z" fill="#000000" fill-rule="evenodd" fill-opacity="1" /><path clip-path="url(#clip060)" d="M 0 0 M27.8746 104.679 Q24.5413 104.679 22.62 106.461 Q20.7219 108.244 20.7219 111.369 Q20.7219 114.494 22.62 116.276 Q24.5413 118.059 27.8746 118.059 Q31.2079 118.059 33.1292 116.276 Q35.0505 114.471 35.0505 111.369 Q35.0505 108.244 33.1292 106.461 Q31.2311 104.679 27.8746 104.679 M23.1987 102.688 Q20.1895 101.948 18.4997 99.8874 Q16.833 97.8273 16.833 94.8643 Q16.833 90.7208 19.7728 88.3134 Q22.7358 85.906 27.8746 85.906 Q33.0366 85.906 35.9764 88.3134 Q38.9162 90.7208 38.9162 94.8643 Q38.9162 97.8273 37.2264 99.8874 Q35.5598 101.948 32.5737 102.688 Q35.9533 103.475 37.8283 105.767 Q39.7264 108.059 39.7264 111.369 Q39.7264 116.392 36.6477 119.077 Q33.5922 121.762 27.8746 121.762 Q22.1571 121.762 19.0784 119.077 Q16.0228 116.392 16.0228 111.369 Q16.0228 108.059 17.921 105.767 Q19.8191 103.475 23.1987 102.688 M21.4858 95.3041 Q21.4858 97.9893 23.1524 99.4939 Q24.8422 100.999 27.8746 100.999 Q30.8839 100.999 32.5737 99.4939 Q34.2866 97.9893 34.2866 95.3041 Q34.2866 92.619 32.5737 91.1143 Q30.8839 89.6097 27.8746 89.6097 Q24.8422 89.6097 23.1524 91.1143 Q21.4858 92.619 21.4858 95.3041 Z" fill="#000000" fill-rule="evenodd" fill-opacity="1" /><path clip-path="url(#clip060)" d="M 0 0 M54.7958 89.6097 Q51.1847 89.6097 49.356 93.1745 Q47.5504 96.7162 47.5504 103.846 Q47.5504 110.952 49.356 114.517 Q51.1847 118.059 54.7958 118.059 Q58.43 118.059 60.2356 114.517 Q62.0643 110.952 62.0643 103.846 Q62.0643 96.7162 60.2356 93.1745 Q58.43 89.6097 54.7958 89.6097 M54.7958 85.906 Q60.6059 85.906 63.6615 90.5125 Q66.7402 95.0958 66.7402 103.846 Q66.7402 112.573 63.6615 117.179 Q60.6059 121.762 54.7958 121.762 Q48.9856 121.762 45.9069 117.179 Q42.8514 112.573 42.8514 103.846 Q42.8514 95.0958 45.9069 90.5125 Q48.9856 85.906 54.7958 85.906 Z" fill="#000000" fill-rule="evenodd" fill-opacity="1" /><path clip-path="url(#clip060)" d="M 0 0 M-54.8741 1169.81 Q-54.8741 1176.81 -49.6542 1180.95 Q-44.4344 1185.05 -35.4269 1185.05 Q-26.4512 1185.05 -21.2314 1180.95 Q-16.0115 1176.81 -16.0115 1169.81 Q-16.0115 1162.81 -21.2314 1158.73 Q-26.4512 1154.63 -35.4269 1154.63 Q-44.4344 1154.63 -49.6542 1158.73 Q-54.8741 1162.81 -54.8741 1169.81 M-60.094 1169.81 Q-60.094 1159.81 -53.3782 1153.83 Q-46.6942 1147.85 -35.4269 1147.85 Q-24.1914 1147.85 -17.4756 1153.83 Q-10.7916 1159.81 -10.7916 1169.81 Q-10.7916 1179.83 -17.4756 1185.85 Q-24.1596 1191.83 -35.4269 1191.83 Q-46.6942 1191.83 -53.3782 1185.85 Q-60.094 1179.83 -60.094 1169.81 Z" fill="#000000" fill-rule="evenodd" fill-opacity="1" /><path clip-path="url(#clip060)" d="M 0 0 M-29.5068 1116.11 Q-35.968 1116.11 -39.6283 1118.79 Q-43.3204 1121.43 -43.3204 1126.08 Q-43.3204 1130.72 -39.6283 1133.4 Q-35.968 1136.04 -29.5068 1136.04 Q-23.0456 1136.04 -19.3535 1133.4 Q-15.6932 1130.72 -15.6932 1126.08 Q-15.6932 1121.43 -19.3535 1118.79 Q-23.0456 1116.11 -29.5068 1116.11 M-41.9517 1136.04 Q-45.1346 1134.19 -46.6624 1131.39 Q-48.222 1128.56 -48.222 1124.64 Q-48.222 1118.15 -43.0657 1114.11 Q-37.9095 1110.03 -29.5068 1110.03 Q-21.1041 1110.03 -15.9478 1114.11 Q-10.7916 1118.15 -10.7916 1124.64 Q-10.7916 1128.56 -12.3194 1131.39 Q-13.879 1134.19 -17.0618 1136.04 L-11.7146 1136.04 L-11.7146 1141.93 L-61.2398 1141.93 L-61.2398 1136.04 L-41.9517 1136.04 Z" fill="#000000" fill-rule="evenodd" fill-opacity="1" /><path clip-path="url(#clip060)" d="M 0 0 M-46.3123 1081.17 L-40.7741 1081.17 Q-42.0472 1083.65 -42.6838 1086.32 Q-43.3204 1089 -43.3204 1091.86 Q-43.3204 1096.22 -41.9836 1098.42 Q-40.6468 1100.58 -37.9732 1100.58 Q-35.9362 1100.58 -34.7585 1099.02 Q-33.6127 1097.46 -32.5623 1092.75 L-32.1167 1090.75 Q-30.7799 1084.51 -28.3291 1081.9 Q-25.9102 1079.26 -21.5497 1079.26 Q-16.5844 1079.26 -13.688 1083.2 Q-10.7916 1087.12 -10.7916 1093.99 Q-10.7916 1096.86 -11.3645 1099.98 Q-11.9056 1103.06 -13.0196 1106.5 L-19.067 1106.5 Q-17.3801 1103.25 -16.5207 1100.1 Q-15.6932 1096.95 -15.6932 1093.87 Q-15.6932 1089.73 -17.0937 1087.5 Q-18.5259 1085.27 -21.1041 1085.27 Q-23.4912 1085.27 -24.7643 1086.89 Q-26.0375 1088.49 -27.2151 1093.93 L-27.6926 1095.97 Q-28.8384 1101.41 -31.1937 1103.83 Q-33.5808 1106.25 -37.7185 1106.25 Q-42.7475 1106.25 -45.4847 1102.68 Q-48.222 1099.12 -48.222 1092.56 Q-48.222 1089.31 -47.7445 1086.45 Q-47.2671 1083.58 -46.3123 1081.17 Z" fill="#000000" fill-rule="evenodd" fill-opacity="1" /><path clip-path="url(#clip060)" d="M 0 0 M-31.0027 1042.62 L-28.1382 1042.62 L-28.1382 1069.55 Q-22.0907 1069.17 -18.9079 1065.92 Q-15.7569 1062.64 -15.7569 1056.82 Q-15.7569 1053.44 -16.5844 1050.29 Q-17.4119 1047.11 -19.067 1043.99 L-13.5289 1043.99 Q-12.1921 1047.14 -11.4918 1050.45 Q-10.7916 1053.76 -10.7916 1057.17 Q-10.7916 1065.7 -15.7569 1070.69 Q-20.7221 1075.66 -29.1885 1075.66 Q-37.9413 1075.66 -43.0657 1070.95 Q-48.222 1066.21 -48.222 1058.19 Q-48.222 1050.99 -43.575 1046.82 Q-38.9599 1042.62 -31.0027 1042.62 M-32.7215 1048.48 Q-37.5276 1048.54 -40.3921 1051.18 Q-43.2567 1053.79 -43.2567 1058.12 Q-43.2567 1063.02 -40.4876 1065.98 Q-37.7185 1068.91 -32.6896 1069.36 L-32.7215 1048.48 Z" fill="#000000" fill-rule="evenodd" fill-opacity="1" /><path clip-path="url(#clip060)" d="M 0 0 M-41.8881 1015.82 Q-42.461 1016.81 -42.7156 1017.99 Q-43.0021 1019.13 -43.0021 1020.53 Q-43.0021 1025.5 -39.7556 1028.17 Q-36.5409 1030.81 -30.4935 1030.81 L-11.7146 1030.81 L-11.7146 1036.7 L-47.3626 1036.7 L-47.3626 1030.81 L-41.8244 1030.81 Q-45.0709 1028.97 -46.6305 1026.01 Q-48.222 1023.05 -48.222 1018.81 Q-48.222 1018.21 -48.1265 1017.48 Q-48.0628 1016.74 -47.9037 1015.85 L-41.8881 1015.82 Z" fill="#000000" fill-rule="evenodd" fill-opacity="1" /><path clip-path="url(#clip060)" d="M 0 0 M-47.3626 1013.88 L-47.3626 1007.67 L-17.4438 996.534 L-47.3626 985.394 L-47.3626 979.187 L-11.7146 992.555 L-11.7146 1000.51 L-47.3626 1013.88 Z" fill="#000000" fill-rule="evenodd" fill-opacity="1" /><path clip-path="url(#clip060)" d="M 0 0 M-31.0027 942.553 L-28.1382 942.553 L-28.1382 969.479 Q-22.0907 969.098 -18.9079 965.851 Q-15.7569 962.573 -15.7569 956.748 Q-15.7569 953.374 -16.5844 950.223 Q-17.4119 947.04 -19.067 943.921 L-13.5289 943.921 Q-12.1921 947.072 -11.4918 950.382 Q-10.7916 953.692 -10.7916 957.098 Q-10.7916 965.628 -15.7569 970.625 Q-20.7221 975.591 -29.1885 975.591 Q-37.9413 975.591 -43.0657 970.88 Q-48.222 966.137 -48.222 958.117 Q-48.222 950.923 -43.575 946.754 Q-38.9599 942.553 -31.0027 942.553 M-32.7215 948.409 Q-37.5276 948.473 -40.3921 951.114 Q-43.2567 953.724 -43.2567 958.053 Q-43.2567 962.955 -40.4876 965.915 Q-37.7185 968.843 -32.6896 969.288 L-32.7215 948.409 Z" fill="#000000" fill-rule="evenodd" fill-opacity="1" /><path clip-path="url(#clip060)" d="M 0 0 M-41.9517 912.952 L-61.2398 912.952 L-61.2398 907.096 L-11.7146 907.096 L-11.7146 912.952 L-17.0618 912.952 Q-13.879 914.798 -12.3194 917.631 Q-10.7916 920.432 -10.7916 924.378 Q-10.7916 930.84 -15.9478 934.914 Q-21.1041 938.956 -29.5068 938.956 Q-37.9095 938.956 -43.0657 934.914 Q-48.222 930.84 -48.222 924.378 Q-48.222 920.432 -46.6624 917.631 Q-45.1346 914.798 -41.9517 912.952 M-29.5068 932.908 Q-23.0456 932.908 -19.3535 930.267 Q-15.6932 927.593 -15.6932 922.946 Q-15.6932 918.299 -19.3535 915.626 Q-23.0456 912.952 -29.5068 912.952 Q-35.968 912.952 -39.6283 915.626 Q-43.3204 918.299 -43.3204 922.946 Q-43.3204 927.593 -39.6283 930.267 Q-35.968 932.908 -29.5068 932.908 Z" fill="#000000" fill-rule="evenodd" fill-opacity="1" /><path clip-path="url(#clip060)" d="M 0 0 M-33.2307 850.6 L-11.7146 850.6 L-11.7146 856.456 L-33.0398 856.456 Q-38.1005 856.456 -40.6149 858.43 Q-43.1294 860.403 -43.1294 864.35 Q-43.1294 869.092 -40.1057 871.83 Q-37.082 874.567 -31.8621 874.567 L-11.7146 874.567 L-11.7146 880.455 L-47.3626 880.455 L-47.3626 874.567 L-41.8244 874.567 Q-45.0391 872.466 -46.6305 869.633 Q-48.222 866.769 -48.222 863.045 Q-48.222 856.902 -44.4025 853.751 Q-40.6149 850.6 -33.2307 850.6 Z" fill="#000000" fill-rule="evenodd" fill-opacity="1" /><path clip-path="url(#clip060)" d="M 0 0 M-25.7828 845.062 L-47.3626 845.062 L-47.3626 839.205 L-26.0056 839.205 Q-20.9449 839.205 -18.3986 837.232 Q-15.8842 835.259 -15.8842 831.312 Q-15.8842 826.569 -18.9079 823.832 Q-21.9316 821.063 -27.1515 821.063 L-47.3626 821.063 L-47.3626 815.207 L-11.7146 815.207 L-11.7146 821.063 L-17.1891 821.063 Q-13.9426 823.196 -12.3512 826.028 Q-10.7916 828.829 -10.7916 832.553 Q-10.7916 838.696 -14.611 841.879 Q-18.4305 845.062 -25.7828 845.062 M-48.222 830.325 L-48.222 830.325 Z" fill="#000000" fill-rule="evenodd" fill-opacity="1" /><path clip-path="url(#clip060)" d="M 0 0 M-40.5195 781.309 Q-44.4662 779.113 -46.3441 776.057 Q-48.222 773.002 -48.222 768.864 Q-48.222 763.294 -44.3071 760.27 Q-40.424 757.247 -33.2307 757.247 L-11.7146 757.247 L-11.7146 763.135 L-33.0398 763.135 Q-38.1641 763.135 -40.6468 764.949 Q-43.1294 766.764 -43.1294 770.487 Q-43.1294 775.039 -40.1057 777.681 Q-37.082 780.322 -31.8621 780.322 L-11.7146 780.322 L-11.7146 786.211 L-33.0398 786.211 Q-38.196 786.211 -40.6468 788.025 Q-43.1294 789.839 -43.1294 793.627 Q-43.1294 798.115 -40.0739 800.756 Q-37.0501 803.398 -31.8621 803.398 L-11.7146 803.398 L-11.7146 809.286 L-47.3626 809.286 L-47.3626 803.398 L-41.8244 803.398 Q-45.1028 801.393 -46.6624 798.592 Q-48.222 795.791 -48.222 791.94 Q-48.222 788.057 -46.2486 785.351 Q-44.2752 782.614 -40.5195 781.309 Z" fill="#000000" fill-rule="evenodd" fill-opacity="1" /><path clip-path="url(#clip060)" d="M 0 0 M-29.5068 725.514 Q-35.968 725.514 -39.6283 728.187 Q-43.3204 730.829 -43.3204 735.476 Q-43.3204 740.123 -39.6283 742.797 Q-35.968 745.438 -29.5068 745.438 Q-23.0456 745.438 -19.3535 742.797 Q-15.6932 740.123 -15.6932 735.476 Q-15.6932 730.829 -19.3535 728.187 Q-23.0456 725.514 -29.5068 725.514 M-41.9517 745.438 Q-45.1346 743.592 -46.6624 740.791 Q-48.222 737.959 -48.222 734.044 Q-48.222 727.551 -43.0657 723.509 Q-37.9095 719.434 -29.5068 719.434 Q-21.1041 719.434 -15.9478 723.509 Q-10.7916 727.551 -10.7916 734.044 Q-10.7916 737.959 -12.3194 740.791 Q-13.879 743.592 -17.0618 745.438 L-11.7146 745.438 L-11.7146 751.327 L-61.2398 751.327 L-61.2398 745.438 L-41.9517 745.438 Z" fill="#000000" fill-rule="evenodd" fill-opacity="1" /><path clip-path="url(#clip060)" d="M 0 0 M-31.0027 682.8 L-28.1382 682.8 L-28.1382 709.727 Q-22.0907 709.345 -18.9079 706.098 Q-15.7569 702.82 -15.7569 696.995 Q-15.7569 693.622 -16.5844 690.471 Q-17.4119 687.288 -19.067 684.168 L-13.5289 684.168 Q-12.1921 687.32 -11.4918 690.63 Q-10.7916 693.94 -10.7916 697.345 Q-10.7916 705.876 -15.7569 710.873 Q-20.7221 715.838 -29.1885 715.838 Q-37.9413 715.838 -43.0657 711.127 Q-48.222 706.385 -48.222 698.364 Q-48.222 691.171 -43.575 687.001 Q-38.9599 682.8 -31.0027 682.8 M-32.7215 688.656 Q-37.5276 688.72 -40.3921 691.362 Q-43.2567 693.972 -43.2567 698.3 Q-43.2567 703.202 -40.4876 706.162 Q-37.7185 709.09 -32.6896 709.536 L-32.7215 688.656 Z" fill="#000000" fill-rule="evenodd" fill-opacity="1" /><path clip-path="url(#clip060)" d="M 0 0 M-41.8881 656 Q-42.461 656.987 -42.7156 658.165 Q-43.0021 659.31 -43.0021 660.711 Q-43.0021 665.676 -39.7556 668.35 Q-36.5409 670.991 -30.4935 670.991 L-11.7146 670.991 L-11.7146 676.88 L-47.3626 676.88 L-47.3626 670.991 L-41.8244 670.991 Q-45.0709 669.145 -46.6305 666.185 Q-48.222 663.225 -48.222 658.992 Q-48.222 658.387 -48.1265 657.655 Q-48.0628 656.923 -47.9037 656.032 L-41.8881 656 Z" fill="#000000" fill-rule="evenodd" fill-opacity="1" /><path clip-path="url(#clip060)" d="M 0 0 M-43.2567 615.323 Q-43.2567 620.034 -39.5646 622.771 Q-35.9043 625.508 -29.5068 625.508 Q-23.1093 625.508 -19.4171 622.803 Q-15.7569 620.066 -15.7569 615.323 Q-15.7569 610.645 -19.449 607.907 Q-23.1411 605.17 -29.5068 605.17 Q-35.8407 605.17 -39.5328 607.907 Q-43.2567 610.645 -43.2567 615.323 M-48.222 615.323 Q-48.222 607.685 -43.2567 603.324 Q-38.2915 598.963 -29.5068 598.963 Q-20.7539 598.963 -15.7569 603.324 Q-10.7916 607.685 -10.7916 615.323 Q-10.7916 622.994 -15.7569 627.355 Q-20.7539 631.683 -29.5068 631.683 Q-38.2915 631.683 -43.2567 627.355 Q-48.222 622.994 -48.222 615.323 Z" fill="#000000" fill-rule="evenodd" fill-opacity="1" /><path clip-path="url(#clip060)" d="M 0 0 M-61.2398 574.774 L-56.3701 574.774 L-56.3701 580.376 Q-56.3701 583.527 -55.0969 584.768 Q-53.8238 585.977 -50.5136 585.977 L-47.3626 585.977 L-47.3626 576.333 L-42.8111 576.333 L-42.8111 585.977 L-11.7146 585.977 L-11.7146 591.866 L-42.8111 591.866 L-42.8111 597.468 L-47.3626 597.468 L-47.3626 591.866 L-49.8452 591.866 Q-55.7972 591.866 -58.5026 589.097 Q-61.2398 586.328 -61.2398 580.312 L-61.2398 574.774 Z" fill="#000000" fill-rule="evenodd" fill-opacity="1" /><path clip-path="url(#clip060)" d="M 0 0 M-41.9517 524.453 L-61.2398 524.453 L-61.2398 518.596 L-11.7146 518.596 L-11.7146 524.453 L-17.0618 524.453 Q-13.879 526.299 -12.3194 529.132 Q-10.7916 531.933 -10.7916 535.879 Q-10.7916 542.341 -15.9478 546.415 Q-21.1041 550.457 -29.5068 550.457 Q-37.9095 550.457 -43.0657 546.415 Q-48.222 542.341 -48.222 535.879 Q-48.222 531.933 -46.6624 529.132 Q-45.1346 526.299 -41.9517 524.453 M-29.5068 544.409 Q-23.0456 544.409 -19.3535 541.768 Q-15.6932 539.094 -15.6932 534.447 Q-15.6932 529.8 -19.3535 527.126 Q-23.0456 524.453 -29.5068 524.453 Q-35.968 524.453 -39.6283 527.126 Q-43.3204 529.8 -43.3204 534.447 Q-43.3204 539.094 -39.6283 541.768 Q-35.968 544.409 -29.5068 544.409 Z" fill="#000000" fill-rule="evenodd" fill-opacity="1" /><path clip-path="url(#clip060)" d="M 0 0 M-41.8881 491.797 Q-42.461 492.784 -42.7156 493.961 Q-43.0021 495.107 -43.0021 496.507 Q-43.0021 501.473 -39.7556 504.146 Q-36.5409 506.788 -30.4935 506.788 L-11.7146 506.788 L-11.7146 512.676 L-47.3626 512.676 L-47.3626 506.788 L-41.8244 506.788 Q-45.0709 504.942 -46.6305 501.982 Q-48.222 499.022 -48.222 494.789 Q-48.222 494.184 -48.1265 493.452 Q-48.0628 492.72 -47.9037 491.829 L-41.8881 491.797 Z" fill="#000000" fill-rule="evenodd" fill-opacity="1" /><path clip-path="url(#clip060)" d="M 0 0 M-29.6341 469.453 Q-29.6341 476.551 -28.0108 479.288 Q-26.3876 482.025 -22.4727 482.025 Q-19.3535 482.025 -17.5074 479.988 Q-15.6932 477.92 -15.6932 474.387 Q-15.6932 469.517 -19.1307 466.589 Q-22.6 463.629 -28.3291 463.629 L-29.6341 463.629 L-29.6341 469.453 M-32.0531 457.772 L-11.7146 457.772 L-11.7146 463.629 L-17.1255 463.629 Q-13.879 465.634 -12.3194 468.626 Q-10.7916 471.618 -10.7916 475.946 Q-10.7916 481.421 -13.8471 484.667 Q-16.9345 487.882 -22.0907 487.882 Q-28.1063 487.882 -31.1619 483.872 Q-34.2174 479.829 -34.2174 471.84 L-34.2174 463.629 L-34.7903 463.629 Q-38.8325 463.629 -41.0287 466.302 Q-43.2567 468.944 -43.2567 473.75 Q-43.2567 476.806 -42.5247 479.702 Q-41.7926 482.598 -40.3285 485.272 L-45.7393 485.272 Q-46.9807 482.057 -47.5854 479.034 Q-48.222 476.01 -48.222 473.145 Q-48.222 465.411 -44.2116 461.592 Q-40.2012 457.772 -32.0531 457.772 Z" fill="#000000" fill-rule="evenodd" fill-opacity="1" /><path clip-path="url(#clip060)" d="M 0 0 M-47.3626 455.035 L-47.3626 449.178 L-19.5445 441.858 L-47.3626 434.569 L-47.3626 427.662 L-19.5445 420.342 L-47.3626 413.053 L-47.3626 407.197 L-11.7146 416.522 L-11.7146 423.429 L-40.9332 431.1 L-11.7146 438.802 L-11.7146 445.709 L-47.3626 455.035 Z" fill="#000000" fill-rule="evenodd" fill-opacity="1" /><path clip-path="url(#clip060)" d="M 0 0 M-46.3123 378.328 L-40.7741 378.328 Q-42.0472 380.811 -42.6838 383.484 Q-43.3204 386.158 -43.3204 389.022 Q-43.3204 393.383 -41.9836 395.579 Q-40.6468 397.744 -37.9732 397.744 Q-35.9362 397.744 -34.7585 396.184 Q-33.6127 394.624 -32.5623 389.914 L-32.1167 387.908 Q-30.7799 381.67 -28.3291 379.06 Q-25.9102 376.418 -21.5497 376.418 Q-16.5844 376.418 -13.688 380.365 Q-10.7916 384.28 -10.7916 391.155 Q-10.7916 394.02 -11.3645 397.139 Q-11.9056 400.226 -13.0196 403.664 L-19.067 403.664 Q-17.3801 400.417 -16.5207 397.266 Q-15.6932 394.115 -15.6932 391.028 Q-15.6932 386.89 -17.0937 384.662 Q-18.5259 382.434 -21.1041 382.434 Q-23.4912 382.434 -24.7643 384.057 Q-26.0375 385.649 -27.2151 391.091 L-27.6926 393.128 Q-28.8384 398.571 -31.1937 400.99 Q-33.5808 403.409 -37.7185 403.409 Q-42.7475 403.409 -45.4847 399.844 Q-48.222 396.279 -48.222 389.723 Q-48.222 386.476 -47.7445 383.612 Q-47.2671 380.747 -46.3123 378.328 Z" fill="#000000" fill-rule="evenodd" fill-opacity="1" /><path clip-path="url(#clip060)" d="M 0 0 M878.864 43.6931 L878.864 65.8515 L891.989 65.8515 Q898.592 65.8515 901.752 63.1374 Q904.952 60.3828 904.952 54.752 Q904.952 49.0808 901.752 46.4072 Q898.592 43.6931 891.989 43.6931 L878.864 43.6931 M878.864 18.8205 L878.864 37.0496 L890.976 37.0496 Q896.971 37.0496 899.888 34.8216 Q902.845 32.5531 902.845 27.935 Q902.845 23.3575 899.888 21.089 Q896.971 18.8205 890.976 18.8205 L878.864 18.8205 M870.681 12.096 L891.584 12.096 Q900.941 12.096 906.005 15.9849 Q911.069 19.8737 911.069 27.0438 Q911.069 32.5936 908.476 35.8748 Q905.883 39.156 900.86 39.9662 Q906.896 41.2625 910.218 45.3944 Q913.58 49.4858 913.58 55.6432 Q913.58 63.745 908.071 68.1605 Q902.562 72.576 892.394 72.576 L870.681 72.576 L870.681 12.096 Z" fill="#000000" fill-rule="evenodd" fill-opacity="1" /><path clip-path="url(#clip060)" d="M 0 0 M942.018 49.7694 Q932.984 49.7694 929.5 51.8354 Q926.016 53.9013 926.016 58.8839 Q926.016 62.8538 928.609 65.2034 Q931.242 67.5124 935.739 67.5124 Q941.936 67.5124 945.663 63.1374 Q949.431 58.7219 949.431 51.4303 L949.431 49.7694 L942.018 49.7694 M956.884 46.6907 L956.884 72.576 L949.431 72.576 L949.431 65.6895 Q946.879 69.8214 943.071 71.8063 Q939.263 73.7508 933.754 73.7508 Q926.786 73.7508 922.654 69.8619 Q918.563 65.9325 918.563 59.3701 Q918.563 51.7138 923.667 47.825 Q928.812 43.9361 938.979 43.9361 L949.431 43.9361 L949.431 43.2069 Q949.431 38.0623 946.028 35.2672 Q942.666 32.4315 936.549 32.4315 Q932.66 32.4315 928.974 33.3632 Q925.287 34.295 921.885 36.1584 L921.885 29.2718 Q925.976 27.692 929.824 26.9223 Q933.673 26.1121 937.318 26.1121 Q947.162 26.1121 952.023 31.2163 Q956.884 36.3204 956.884 46.6907 Z" fill="#000000" fill-rule="evenodd" fill-opacity="1" /><path clip-path="url(#clip060)" d="M 0 0 M983.58 76.7889 Q980.42 84.8907 977.422 87.3618 Q974.425 89.8329 969.402 89.8329 L963.447 89.8329 L963.447 83.5945 L967.822 83.5945 Q970.9 83.5945 972.602 82.1361 Q974.303 80.6778 976.369 75.2496 L977.706 71.8468 L959.355 27.2059 L967.255 27.2059 L981.433 62.6918 L995.611 27.2059 L1003.51 27.2059 L983.58 76.7889 Z" fill="#000000" fill-rule="evenodd" fill-opacity="1" /><path clip-path="url(#clip060)" d="M 0 0 M1050.14 48.0275 L1050.14 51.6733 L1015.87 51.6733 Q1016.35 59.3701 1020.48 63.421 Q1024.66 67.4314 1032.07 67.4314 Q1036.36 67.4314 1040.37 66.3781 Q1044.42 65.3249 1048.39 63.2184 L1048.39 70.267 Q1044.38 71.9684 1040.17 72.8596 Q1035.96 73.7508 1031.62 73.7508 Q1020.77 73.7508 1014.41 67.4314 Q1008.09 61.1119 1008.09 50.3365 Q1008.09 39.1965 1014.08 32.6746 Q1020.12 26.1121 1030.33 26.1121 Q1039.48 26.1121 1044.79 32.0264 Q1050.14 37.9003 1050.14 48.0275 M1042.68 45.84 Q1042.6 39.7232 1039.24 36.0774 Q1035.92 32.4315 1030.41 32.4315 Q1024.17 32.4315 1020.4 35.9558 Q1016.68 39.4801 1016.11 45.8805 L1042.68 45.84 Z" fill="#000000" fill-rule="evenodd" fill-opacity="1" /><path clip-path="url(#clip060)" d="M 0 0 M1086.88 28.5427 L1086.88 35.5912 Q1083.72 33.9709 1080.32 33.1607 Q1076.91 32.3505 1073.27 32.3505 Q1067.72 32.3505 1064.92 34.0519 Q1062.17 35.7533 1062.17 39.156 Q1062.17 41.7486 1064.15 43.2475 Q1066.14 44.7058 1072.13 46.0426 L1074.68 46.6097 Q1082.62 48.3111 1085.95 51.4303 Q1089.31 54.509 1089.31 60.0587 Q1089.31 66.3781 1084.29 70.0644 Q1079.3 73.7508 1070.55 73.7508 Q1066.91 73.7508 1062.94 73.0216 Q1059.01 72.3329 1054.63 70.9151 L1054.63 63.2184 Q1058.76 65.3654 1062.77 66.4591 Q1066.79 67.5124 1070.71 67.5124 Q1075.98 67.5124 1078.82 65.73 Q1081.65 63.9071 1081.65 60.6258 Q1081.65 57.5877 1079.59 55.9673 Q1077.56 54.3469 1070.63 52.8481 L1068.04 52.2405 Q1061.11 50.7821 1058.04 47.7845 Q1054.96 44.7463 1054.96 39.4801 Q1054.96 33.0797 1059.49 29.5959 Q1064.03 26.1121 1072.38 26.1121 Q1076.51 26.1121 1080.15 26.7198 Q1083.8 27.3274 1086.88 28.5427 Z" fill="#000000" fill-rule="evenodd" fill-opacity="1" /><path clip-path="url(#clip060)" d="M 0 0 M1097.13 27.2059 L1104.58 27.2059 L1104.58 72.576 L1097.13 72.576 L1097.13 27.2059 M1097.13 9.54393 L1104.58 9.54393 L1104.58 18.9825 L1097.13 18.9825 L1097.13 9.54393 Z" fill="#000000" fill-rule="evenodd" fill-opacity="1" /><path clip-path="url(#clip060)" d="M 0 0 M1133.02 49.7694 Q1123.98 49.7694 1120.5 51.8354 Q1117.02 53.9013 1117.02 58.8839 Q1117.02 62.8538 1119.61 65.2034 Q1122.24 67.5124 1126.74 67.5124 Q1132.94 67.5124 1136.66 63.1374 Q1140.43 58.7219 1140.43 51.4303 L1140.43 49.7694 L1133.02 49.7694 M1147.88 46.6907 L1147.88 72.576 L1140.43 72.576 L1140.43 65.6895 Q1137.88 69.8214 1134.07 71.8063 Q1130.26 73.7508 1124.75 73.7508 Q1117.79 73.7508 1113.65 69.8619 Q1109.56 65.9325 1109.56 59.3701 Q1109.56 51.7138 1114.67 47.825 Q1119.81 43.9361 1129.98 43.9361 L1140.43 43.9361 L1140.43 43.2069 Q1140.43 38.0623 1137.03 35.2672 Q1133.67 32.4315 1127.55 32.4315 Q1123.66 32.4315 1119.97 33.3632 Q1116.29 34.295 1112.88 36.1584 L1112.88 29.2718 Q1116.98 27.692 1120.82 26.9223 Q1124.67 26.1121 1128.32 26.1121 Q1138.16 26.1121 1143.02 31.2163 Q1147.88 36.3204 1147.88 46.6907 Z" fill="#000000" fill-rule="evenodd" fill-opacity="1" /><path clip-path="url(#clip060)" d="M 0 0 M1193.42 45.1919 L1193.42 72.576 L1185.96 72.576 L1185.96 45.4349 Q1185.96 38.994 1183.45 35.7938 Q1180.94 32.5936 1175.92 32.5936 Q1169.88 32.5936 1166.4 36.4419 Q1162.91 40.2903 1162.91 46.9338 L1162.91 72.576 L1155.42 72.576 L1155.42 27.2059 L1162.91 27.2059 L1162.91 34.2544 Q1165.59 30.163 1169.19 28.1376 Q1172.84 26.1121 1177.58 26.1121 Q1185.4 26.1121 1189.41 30.9732 Q1193.42 35.7938 1193.42 45.1919 Z" fill="#000000" fill-rule="evenodd" fill-opacity="1" /><path clip-path="url(#clip060)" d="M 0 0 M1266.41 48.0275 L1266.41 51.6733 L1232.14 51.6733 Q1232.63 59.3701 1236.76 63.421 Q1240.93 67.4314 1248.35 67.4314 Q1252.64 67.4314 1256.65 66.3781 Q1260.7 65.3249 1264.67 63.2184 L1264.67 70.267 Q1260.66 71.9684 1256.45 72.8596 Q1252.24 73.7508 1247.9 73.7508 Q1237.04 73.7508 1230.68 67.4314 Q1224.37 61.1119 1224.37 50.3365 Q1224.37 39.1965 1230.36 32.6746 Q1236.4 26.1121 1246.6 26.1121 Q1255.76 26.1121 1261.07 32.0264 Q1266.41 37.9003 1266.41 48.0275 M1258.96 45.84 Q1258.88 39.7232 1255.52 36.0774 Q1252.2 32.4315 1246.69 32.4315 Q1240.45 32.4315 1236.68 35.9558 Q1232.95 39.4801 1232.39 45.8805 L1258.96 45.84 Z" fill="#000000" fill-rule="evenodd" fill-opacity="1" /><path clip-path="url(#clip060)" d="M 0 0 M1303.16 28.5427 L1303.16 35.5912 Q1300 33.9709 1296.59 33.1607 Q1293.19 32.3505 1289.54 32.3505 Q1283.99 32.3505 1281.2 34.0519 Q1278.45 35.7533 1278.45 39.156 Q1278.45 41.7486 1280.43 43.2475 Q1282.41 44.7058 1288.41 46.0426 L1290.96 46.6097 Q1298.9 48.3111 1302.22 51.4303 Q1305.59 54.509 1305.59 60.0587 Q1305.59 66.3781 1300.56 70.0644 Q1295.58 73.7508 1286.83 73.7508 Q1283.18 73.7508 1279.21 73.0216 Q1275.29 72.3329 1270.91 70.9151 L1270.91 63.2184 Q1275.04 65.3654 1279.05 66.4591 Q1283.06 67.5124 1286.99 67.5124 Q1292.26 67.5124 1295.09 65.73 Q1297.93 63.9071 1297.93 60.6258 Q1297.93 57.5877 1295.86 55.9673 Q1293.84 54.3469 1286.91 52.8481 L1284.32 52.2405 Q1277.39 50.7821 1274.31 47.7845 Q1271.23 44.7463 1271.23 39.4801 Q1271.23 33.0797 1275.77 29.5959 Q1280.31 26.1121 1288.65 26.1121 Q1292.79 26.1121 1296.43 26.7198 Q1300.08 27.3274 1303.16 28.5427 Z" fill="#000000" fill-rule="evenodd" fill-opacity="1" /><path clip-path="url(#clip060)" d="M 0 0 M1320.78 14.324 L1320.78 27.2059 L1336.13 27.2059 L1336.13 32.9987 L1320.78 32.9987 L1320.78 57.6282 Q1320.78 63.1779 1322.28 64.7578 Q1323.82 66.3376 1328.47 66.3376 L1336.13 66.3376 L1336.13 72.576 L1328.47 72.576 Q1319.85 72.576 1316.56 69.3758 Q1313.28 66.1351 1313.28 57.6282 L1313.28 32.9987 L1307.81 32.9987 L1307.81 27.2059 L1313.28 27.2059 L1313.28 14.324 L1320.78 14.324 Z" fill="#000000" fill-rule="evenodd" fill-opacity="1" /><path clip-path="url(#clip060)" d="M 0 0 M1343.95 27.2059 L1351.4 27.2059 L1351.4 72.576 L1343.95 72.576 L1343.95 27.2059 M1343.95 9.54393 L1351.4 9.54393 L1351.4 18.9825 L1343.95 18.9825 L1343.95 9.54393 Z" fill="#000000" fill-rule="evenodd" fill-opacity="1" /><path clip-path="url(#clip060)" d="M 0 0 M1394.54 35.9153 Q1397.34 30.8922 1401.23 28.5022 Q1405.12 26.1121 1410.38 26.1121 Q1417.47 26.1121 1421.32 31.0947 Q1425.17 36.0368 1425.17 45.1919 L1425.17 72.576 L1417.67 72.576 L1417.67 45.4349 Q1417.67 38.913 1415.37 35.7533 Q1413.06 32.5936 1408.32 32.5936 Q1402.52 32.5936 1399.16 36.4419 Q1395.8 40.2903 1395.8 46.9338 L1395.8 72.576 L1388.31 72.576 L1388.31 45.4349 Q1388.31 38.8725 1386 35.7533 Q1383.69 32.5936 1378.87 32.5936 Q1373.16 32.5936 1369.79 36.4824 Q1366.43 40.3308 1366.43 46.9338 L1366.43 72.576 L1358.94 72.576 L1358.94 27.2059 L1366.43 27.2059 L1366.43 34.2544 Q1368.98 30.082 1372.55 28.0971 Q1376.11 26.1121 1381.01 26.1121 Q1385.96 26.1121 1389.4 28.6237 Q1392.88 31.1352 1394.54 35.9153 Z" fill="#000000" fill-rule="evenodd" fill-opacity="1" /><path clip-path="url(#clip060)" d="M 0 0 M1453.61 49.7694 Q1444.57 49.7694 1441.09 51.8354 Q1437.61 53.9013 1437.61 58.8839 Q1437.61 62.8538 1440.2 65.2034 Q1442.83 67.5124 1447.33 67.5124 Q1453.53 67.5124 1457.25 63.1374 Q1461.02 58.7219 1461.02 51.4303 L1461.02 49.7694 L1453.61 49.7694 M1468.47 46.6907 L1468.47 72.576 L1461.02 72.576 L1461.02 65.6895 Q1458.47 69.8214 1454.66 71.8063 Q1450.85 73.7508 1445.34 73.7508 Q1438.37 73.7508 1434.24 69.8619 Q1430.15 65.9325 1430.15 59.3701 Q1430.15 51.7138 1435.26 47.825 Q1440.4 43.9361 1450.57 43.9361 L1461.02 43.9361 L1461.02 43.2069 Q1461.02 38.0623 1457.62 35.2672 Q1454.25 32.4315 1448.14 32.4315 Q1444.25 32.4315 1440.56 33.3632 Q1436.88 34.295 1433.47 36.1584 L1433.47 29.2718 Q1437.56 27.692 1441.41 26.9223 Q1445.26 26.1121 1448.91 26.1121 Q1458.75 26.1121 1463.61 31.2163 Q1468.47 36.3204 1468.47 46.6907 Z" fill="#000000" fill-rule="evenodd" fill-opacity="1" /><path clip-path="url(#clip060)" d="M 0 0 M1483.66 14.324 L1483.66 27.2059 L1499.02 27.2059 L1499.02 32.9987 L1483.66 32.9987 L1483.66 57.6282 Q1483.66 63.1779 1485.16 64.7578 Q1486.7 66.3376 1491.36 66.3376 L1499.02 66.3376 L1499.02 72.576 L1491.36 72.576 Q1482.73 72.576 1479.45 69.3758 Q1476.17 66.1351 1476.17 57.6282 L1476.17 32.9987 L1470.7 32.9987 L1470.7 27.2059 L1476.17 27.2059 L1476.17 14.324 L1483.66 14.324 Z" fill="#000000" fill-rule="evenodd" fill-opacity="1" /><path clip-path="url(#clip060)" d="M 0 0 M1545.64 48.0275 L1545.64 51.6733 L1511.37 51.6733 Q1511.86 59.3701 1515.99 63.421 Q1520.16 67.4314 1527.58 67.4314 Q1531.87 67.4314 1535.88 66.3781 Q1539.93 65.3249 1543.9 63.2184 L1543.9 70.267 Q1539.89 71.9684 1535.68 72.8596 Q1531.46 73.7508 1527.13 73.7508 Q1516.27 73.7508 1509.91 67.4314 Q1503.59 61.1119 1503.59 50.3365 Q1503.59 39.1965 1509.59 32.6746 Q1515.63 26.1121 1525.83 26.1121 Q1534.99 26.1121 1540.3 32.0264 Q1545.64 37.9003 1545.64 48.0275 M1538.19 45.84 Q1538.11 39.7232 1534.75 36.0774 Q1531.42 32.4315 1525.91 32.4315 Q1519.68 32.4315 1515.91 35.9558 Q1512.18 39.4801 1511.62 45.8805 L1538.19 45.84 Z" fill="#000000" fill-rule="evenodd" fill-opacity="1" /><path clip-path="url(#clip060)" d="M 0 0 M1582.38 28.5427 L1582.38 35.5912 Q1579.22 33.9709 1575.82 33.1607 Q1572.42 32.3505 1568.77 32.3505 Q1563.22 32.3505 1560.43 34.0519 Q1557.67 35.7533 1557.67 39.156 Q1557.67 41.7486 1559.66 43.2475 Q1561.64 44.7058 1567.64 46.0426 L1570.19 46.6097 Q1578.13 48.3111 1581.45 51.4303 Q1584.81 54.509 1584.81 60.0587 Q1584.81 66.3781 1579.79 70.0644 Q1574.81 73.7508 1566.06 73.7508 Q1562.41 73.7508 1558.44 73.0216 Q1554.51 72.3329 1550.14 70.9151 L1550.14 63.2184 Q1554.27 65.3654 1558.28 66.4591 Q1562.29 67.5124 1566.22 67.5124 Q1571.49 67.5124 1574.32 65.73 Q1577.16 63.9071 1577.16 60.6258 Q1577.16 57.5877 1575.09 55.9673 Q1573.07 54.3469 1566.14 52.8481 L1563.55 52.2405 Q1556.62 50.7821 1553.54 47.7845 Q1550.46 44.7463 1550.46 39.4801 Q1550.46 33.0797 1555 29.5959 Q1559.54 26.1121 1567.88 26.1121 Q1572.01 26.1121 1575.66 26.7198 Q1579.31 27.3274 1582.38 28.5427 Z" fill="#000000" fill-rule="evenodd" fill-opacity="1" /><polyline clip-path="url(#clip062)" style="stroke:#ffffff; stroke-width:4; stroke-opacity:1; fill:none" points="
  852.745,1464.44 852.745,1412.11 1352.75,1359.78 1415.25,1307.45 1452.75,1255.11 1602.75,1202.78 1602.75,1150.45 1602.75,1098.12 1686.08,1045.79 1602.75,993.454 
  1534.57,941.122 1540.25,888.79 1429.67,836.458 1442.04,784.126 1502.75,731.794 1415.25,679.462 1426.28,627.13 1394.42,574.798 1326.43,522.466 1302.75,470.134 
  1281.32,417.803 1227.75,365.471 1244.05,313.139 1227.75,260.807 1242.75,208.475 1227.75,156.143 1213.86,103.811 
  "/>
<polyline clip-path="url(#clip062)" style="stroke:#000000; stroke-width:4; stroke-opacity:1; fill:none" points="
  131.043,1464.44 1997,1464.44 
  "/>
<polyline clip-path="url(#clip062)" style="stroke:#000000; stroke-width:4; stroke-opacity:1; fill:none" points="
  221.417,1412.11 1714.69,1412.11 
  "/>
<polyline clip-path="url(#clip062)" style="stroke:#000000; stroke-width:4; stroke-opacity:1; fill:none" points="
  653.686,1359.78 1999.47,1359.78 
  "/>
<polyline clip-path="url(#clip062)" style="stroke:#000000; stroke-width:4; stroke-opacity:1; fill:none" points="
  795.531,1307.45 1975.91,1307.45 
  "/>
<polyline clip-path="url(#clip062)" style="stroke:#000000; stroke-width:4; stroke-opacity:1; fill:none" points="
  893.351,1255.11 1955.38,1255.11 
  "/>
<polyline clip-path="url(#clip062)" style="stroke:#000000; stroke-width:4; stroke-opacity:1; fill:none" points="
  1093.69,1202.78 2033.03,1202.78 
  "/>
<polyline clip-path="url(#clip062)" style="stroke:#000000; stroke-width:4; stroke-opacity:1; fill:none" points="
  1131.47,1150.45 2006.46,1150.45 
  "/>
<polyline clip-path="url(#clip062)" style="stroke:#000000; stroke-width:4; stroke-opacity:1; fill:none" points="
  1162.07,1098.12 1984.29,1098.12 
  "/>
<polyline clip-path="url(#clip062)" style="stroke:#000000; stroke-width:4; stroke-opacity:1; fill:none" points="
  1277.53,1045.79 2030.42,1045.79 
  "/>
<polyline clip-path="url(#clip062)" style="stroke:#000000; stroke-width:4; stroke-opacity:1; fill:none" points="
  1209.02,993.454 1949.14,993.454 
  "/>
<polyline clip-path="url(#clip062)" style="stroke:#000000; stroke-width:4; stroke-opacity:1; fill:none" points="
  1155.9,941.122 1878,941.122 
  "/>
<polyline clip-path="url(#clip062)" style="stroke:#000000; stroke-width:4; stroke-opacity:1; fill:none" points="
  1178,888.79 1869.61,888.79 
  "/>
<polyline clip-path="url(#clip062)" style="stroke:#000000; stroke-width:4; stroke-opacity:1; fill:none" points="
  1078.94,836.458 1760.78,836.458 
  "/>
<polyline clip-path="url(#clip062)" style="stroke:#000000; stroke-width:4; stroke-opacity:1; fill:none" points="
  1104.1,784.126 1760.62,784.126 
  "/>
<polyline clip-path="url(#clip062)" style="stroke:#000000; stroke-width:4; stroke-opacity:1; fill:none" points="
  1177.62,731.794 1804.72,731.794 
  "/>
<polyline clip-path="url(#clip062)" style="stroke:#000000; stroke-width:4; stroke-opacity:1; fill:none" points="
  1098.74,679.462 1716.95,679.462 
  "/>
<polyline clip-path="url(#clip062)" style="stroke:#000000; stroke-width:4; stroke-opacity:1; fill:none" points="
  1119.28,627.13 1718.52,627.13 
  "/>
<polyline clip-path="url(#clip062)" style="stroke:#000000; stroke-width:4; stroke-opacity:1; fill:none" points="
  1095.76,574.798 1681.37,574.798 
  "/>
<polyline clip-path="url(#clip062)" style="stroke:#000000; stroke-width:4; stroke-opacity:1; fill:none" points="
  1035.86,522.466 1610.44,522.466 
  "/>
<polyline clip-path="url(#clip062)" style="stroke:#000000; stroke-width:4; stroke-opacity:1; fill:none" points="
  1019.72,470.134 1581.04,470.134 
  "/>
<polyline clip-path="url(#clip062)" style="stroke:#000000; stroke-width:4; stroke-opacity:1; fill:none" points="
  1005.35,417.803 1554.06,417.803 
  "/>
<polyline clip-path="url(#clip062)" style="stroke:#000000; stroke-width:4; stroke-opacity:1; fill:none" points="
  959.255,365.471 1496.24,365.471 
  "/>
<polyline clip-path="url(#clip062)" style="stroke:#000000; stroke-width:4; stroke-opacity:1; fill:none" points="
  980.917,313.139 1506.29,313.139 
  "/>
<polyline clip-path="url(#clip062)" style="stroke:#000000; stroke-width:4; stroke-opacity:1; fill:none" points="
  970.453,260.807 1485.04,260.807 
  "/>
<polyline clip-path="url(#clip062)" style="stroke:#000000; stroke-width:4; stroke-opacity:1; fill:none" points="
  990.194,208.475 1494.54,208.475 
  "/>
<polyline clip-path="url(#clip062)" style="stroke:#000000; stroke-width:4; stroke-opacity:1; fill:none" points="
  980.357,156.143 1475.14,156.143 
  "/>
<polyline clip-path="url(#clip062)" style="stroke:#000000; stroke-width:4; stroke-opacity:1; fill:none" points="
  971.354,103.811 1457.01,103.811 
  "/>
<line clip-path="url(#clip062)" x1="131.043" y1="1480.44" x2="131.043" y2="1448.44" style="stroke:#000000; stroke-width:3.2; stroke-opacity:1"/>
<line clip-path="url(#clip062)" x1="1997" y1="1480.44" x2="1997" y2="1448.44" style="stroke:#000000; stroke-width:3.2; stroke-opacity:1"/>
<line clip-path="url(#clip062)" x1="221.417" y1="1428.11" x2="221.417" y2="1396.11" style="stroke:#000000; stroke-width:3.2; stroke-opacity:1"/>
<line clip-path="url(#clip062)" x1="1714.69" y1="1428.11" x2="1714.69" y2="1396.11" style="stroke:#000000; stroke-width:3.2; stroke-opacity:1"/>
<line clip-path="url(#clip062)" x1="653.686" y1="1375.78" x2="653.686" y2="1343.78" style="stroke:#000000; stroke-width:3.2; stroke-opacity:1"/>
<line clip-path="url(#clip062)" x1="1999.47" y1="1375.78" x2="1999.47" y2="1343.78" style="stroke:#000000; stroke-width:3.2; stroke-opacity:1"/>
<line clip-path="url(#clip062)" x1="795.531" y1="1323.45" x2="795.531" y2="1291.45" style="stroke:#000000; stroke-width:3.2; stroke-opacity:1"/>
<line clip-path="url(#clip062)" x1="1975.91" y1="1323.45" x2="1975.91" y2="1291.45" style="stroke:#000000; stroke-width:3.2; stroke-opacity:1"/>
<line clip-path="url(#clip062)" x1="893.351" y1="1271.11" x2="893.351" y2="1239.11" style="stroke:#000000; stroke-width:3.2; stroke-opacity:1"/>
<line clip-path="url(#clip062)" x1="1955.38" y1="1271.11" x2="1955.38" y2="1239.11" style="stroke:#000000; stroke-width:3.2; stroke-opacity:1"/>
<line clip-path="url(#clip062)" x1="1093.69" y1="1218.78" x2="1093.69" y2="1186.78" style="stroke:#000000; stroke-width:3.2; stroke-opacity:1"/>
<line clip-path="url(#clip062)" x1="2033.03" y1="1218.78" x2="2033.03" y2="1186.78" style="stroke:#000000; stroke-width:3.2; stroke-opacity:1"/>
<line clip-path="url(#clip062)" x1="1131.47" y1="1166.45" x2="1131.47" y2="1134.45" style="stroke:#000000; stroke-width:3.2; stroke-opacity:1"/>
<line clip-path="url(#clip062)" x1="2006.46" y1="1166.45" x2="2006.46" y2="1134.45" style="stroke:#000000; stroke-width:3.2; stroke-opacity:1"/>
<line clip-path="url(#clip062)" x1="1162.07" y1="1114.12" x2="1162.07" y2="1082.12" style="stroke:#000000; stroke-width:3.2; stroke-opacity:1"/>
<line clip-path="url(#clip062)" x1="1984.29" y1="1114.12" x2="1984.29" y2="1082.12" style="stroke:#000000; stroke-width:3.2; stroke-opacity:1"/>
<line clip-path="url(#clip062)" x1="1277.53" y1="1061.79" x2="1277.53" y2="1029.79" style="stroke:#000000; stroke-width:3.2; stroke-opacity:1"/>
<line clip-path="url(#clip062)" x1="2030.42" y1="1061.79" x2="2030.42" y2="1029.79" style="stroke:#000000; stroke-width:3.2; stroke-opacity:1"/>
<line clip-path="url(#clip062)" x1="1209.02" y1="1009.45" x2="1209.02" y2="977.454" style="stroke:#000000; stroke-width:3.2; stroke-opacity:1"/>
<line clip-path="url(#clip062)" x1="1949.14" y1="1009.45" x2="1949.14" y2="977.454" style="stroke:#000000; stroke-width:3.2; stroke-opacity:1"/>
<line clip-path="url(#clip062)" x1="1155.9" y1="957.122" x2="1155.9" y2="925.122" style="stroke:#000000; stroke-width:3.2; stroke-opacity:1"/>
<line clip-path="url(#clip062)" x1="1878" y1="957.122" x2="1878" y2="925.122" style="stroke:#000000; stroke-width:3.2; stroke-opacity:1"/>
<line clip-path="url(#clip062)" x1="1178" y1="904.79" x2="1178" y2="872.79" style="stroke:#000000; stroke-width:3.2; stroke-opacity:1"/>
<line clip-path="url(#clip062)" x1="1869.61" y1="904.79" x2="1869.61" y2="872.79" style="stroke:#000000; stroke-width:3.2; stroke-opacity:1"/>
<line clip-path="url(#clip062)" x1="1078.94" y1="852.458" x2="1078.94" y2="820.458" style="stroke:#000000; stroke-width:3.2; stroke-opacity:1"/>
<line clip-path="url(#clip062)" x1="1760.78" y1="852.458" x2="1760.78" y2="820.458" style="stroke:#000000; stroke-width:3.2; stroke-opacity:1"/>
<line clip-path="url(#clip062)" x1="1104.1" y1="800.126" x2="1104.1" y2="768.126" style="stroke:#000000; stroke-width:3.2; stroke-opacity:1"/>
<line clip-path="url(#clip062)" x1="1760.62" y1="800.126" x2="1760.62" y2="768.126" style="stroke:#000000; stroke-width:3.2; stroke-opacity:1"/>
<line clip-path="url(#clip062)" x1="1177.62" y1="747.794" x2="1177.62" y2="715.794" style="stroke:#000000; stroke-width:3.2; stroke-opacity:1"/>
<line clip-path="url(#clip062)" x1="1804.72" y1="747.794" x2="1804.72" y2="715.794" style="stroke:#000000; stroke-width:3.2; stroke-opacity:1"/>
<line clip-path="url(#clip062)" x1="1098.74" y1="695.462" x2="1098.74" y2="663.462" style="stroke:#000000; stroke-width:3.2; stroke-opacity:1"/>
<line clip-path="url(#clip062)" x1="1716.95" y1="695.462" x2="1716.95" y2="663.462" style="stroke:#000000; stroke-width:3.2; stroke-opacity:1"/>
<line clip-path="url(#clip062)" x1="1119.28" y1="643.13" x2="1119.28" y2="611.13" style="stroke:#000000; stroke-width:3.2; stroke-opacity:1"/>
<line clip-path="url(#clip062)" x1="1718.52" y1="643.13" x2="1718.52" y2="611.13" style="stroke:#000000; stroke-width:3.2; stroke-opacity:1"/>
<line clip-path="url(#clip062)" x1="1095.76" y1="590.798" x2="1095.76" y2="558.798" style="stroke:#000000; stroke-width:3.2; stroke-opacity:1"/>
<line clip-path="url(#clip062)" x1="1681.37" y1="590.798" x2="1681.37" y2="558.798" style="stroke:#000000; stroke-width:3.2; stroke-opacity:1"/>
<line clip-path="url(#clip062)" x1="1035.86" y1="538.466" x2="1035.86" y2="506.466" style="stroke:#000000; stroke-width:3.2; stroke-opacity:1"/>
<line clip-path="url(#clip062)" x1="1610.44" y1="538.466" x2="1610.44" y2="506.466" style="stroke:#000000; stroke-width:3.2; stroke-opacity:1"/>
<line clip-path="url(#clip062)" x1="1019.72" y1="486.134" x2="1019.72" y2="454.134" style="stroke:#000000; stroke-width:3.2; stroke-opacity:1"/>
<line clip-path="url(#clip062)" x1="1581.04" y1="486.134" x2="1581.04" y2="454.134" style="stroke:#000000; stroke-width:3.2; stroke-opacity:1"/>
<line clip-path="url(#clip062)" x1="1005.35" y1="433.803" x2="1005.35" y2="401.803" style="stroke:#000000; stroke-width:3.2; stroke-opacity:1"/>
<line clip-path="url(#clip062)" x1="1554.06" y1="433.803" x2="1554.06" y2="401.803" style="stroke:#000000; stroke-width:3.2; stroke-opacity:1"/>
<line clip-path="url(#clip062)" x1="959.255" y1="381.471" x2="959.255" y2="349.471" style="stroke:#000000; stroke-width:3.2; stroke-opacity:1"/>
<line clip-path="url(#clip062)" x1="1496.24" y1="381.471" x2="1496.24" y2="349.471" style="stroke:#000000; stroke-width:3.2; stroke-opacity:1"/>
<line clip-path="url(#clip062)" x1="980.917" y1="329.139" x2="980.917" y2="297.139" style="stroke:#000000; stroke-width:3.2; stroke-opacity:1"/>
<line clip-path="url(#clip062)" x1="1506.29" y1="329.139" x2="1506.29" y2="297.139" style="stroke:#000000; stroke-width:3.2; stroke-opacity:1"/>
<line clip-path="url(#clip062)" x1="970.453" y1="276.807" x2="970.453" y2="244.807" style="stroke:#000000; stroke-width:3.2; stroke-opacity:1"/>
<line clip-path="url(#clip062)" x1="1485.04" y1="276.807" x2="1485.04" y2="244.807" style="stroke:#000000; stroke-width:3.2; stroke-opacity:1"/>
<line clip-path="url(#clip062)" x1="990.194" y1="224.475" x2="990.194" y2="192.475" style="stroke:#000000; stroke-width:3.2; stroke-opacity:1"/>
<line clip-path="url(#clip062)" x1="1494.54" y1="224.475" x2="1494.54" y2="192.475" style="stroke:#000000; stroke-width:3.2; stroke-opacity:1"/>
<line clip-path="url(#clip062)" x1="980.357" y1="172.143" x2="980.357" y2="140.143" style="stroke:#000000; stroke-width:3.2; stroke-opacity:1"/>
<line clip-path="url(#clip062)" x1="1475.14" y1="172.143" x2="1475.14" y2="140.143" style="stroke:#000000; stroke-width:3.2; stroke-opacity:1"/>
<line clip-path="url(#clip062)" x1="971.354" y1="119.811" x2="971.354" y2="87.811" style="stroke:#000000; stroke-width:3.2; stroke-opacity:1"/>
<line clip-path="url(#clip062)" x1="1457.01" y1="119.811" x2="1457.01" y2="87.811" style="stroke:#000000; stroke-width:3.2; stroke-opacity:1"/>
<circle clip-path="url(#clip062)" cx="852.745" cy="1464.44" r="14" fill="#3182bd" fill-rule="evenodd" fill-opacity="1" stroke="#000000" stroke-opacity="1" stroke-width="3.2"/>
<circle clip-path="url(#clip062)" cx="852.745" cy="1412.11" r="14" fill="#3182bd" fill-rule="evenodd" fill-opacity="1" stroke="#000000" stroke-opacity="1" stroke-width="3.2"/>
<circle clip-path="url(#clip062)" cx="1352.75" cy="1359.78" r="14" fill="#3182bd" fill-rule="evenodd" fill-opacity="1" stroke="#000000" stroke-opacity="1" stroke-width="3.2"/>
<circle clip-path="url(#clip062)" cx="1415.25" cy="1307.45" r="14" fill="#3182bd" fill-rule="evenodd" fill-opacity="1" stroke="#000000" stroke-opacity="1" stroke-width="3.2"/>
<circle clip-path="url(#clip062)" cx="1452.75" cy="1255.11" r="14" fill="#3182bd" fill-rule="evenodd" fill-opacity="1" stroke="#000000" stroke-opacity="1" stroke-width="3.2"/>
<circle clip-path="url(#clip062)" cx="1602.75" cy="1202.78" r="14" fill="#3182bd" fill-rule="evenodd" fill-opacity="1" stroke="#000000" stroke-opacity="1" stroke-width="3.2"/>
<circle clip-path="url(#clip062)" cx="1602.75" cy="1150.45" r="14" fill="#3182bd" fill-rule="evenodd" fill-opacity="1" stroke="#000000" stroke-opacity="1" stroke-width="3.2"/>
<circle clip-path="url(#clip062)" cx="1602.75" cy="1098.12" r="14" fill="#3182bd" fill-rule="evenodd" fill-opacity="1" stroke="#000000" stroke-opacity="1" stroke-width="3.2"/>
<circle clip-path="url(#clip062)" cx="1686.08" cy="1045.79" r="14" fill="#3182bd" fill-rule="evenodd" fill-opacity="1" stroke="#000000" stroke-opacity="1" stroke-width="3.2"/>
<circle clip-path="url(#clip062)" cx="1602.75" cy="993.454" r="14" fill="#3182bd" fill-rule="evenodd" fill-opacity="1" stroke="#000000" stroke-opacity="1" stroke-width="3.2"/>
<circle clip-path="url(#clip062)" cx="1534.57" cy="941.122" r="14" fill="#3182bd" fill-rule="evenodd" fill-opacity="1" stroke="#000000" stroke-opacity="1" stroke-width="3.2"/>
<circle clip-path="url(#clip062)" cx="1540.25" cy="888.79" r="14" fill="#3182bd" fill-rule="evenodd" fill-opacity="1" stroke="#000000" stroke-opacity="1" stroke-width="3.2"/>
<circle clip-path="url(#clip062)" cx="1429.67" cy="836.458" r="14" fill="#3182bd" fill-rule="evenodd" fill-opacity="1" stroke="#000000" stroke-opacity="1" stroke-width="3.2"/>
<circle clip-path="url(#clip062)" cx="1442.04" cy="784.126" r="14" fill="#3182bd" fill-rule="evenodd" fill-opacity="1" stroke="#000000" stroke-opacity="1" stroke-width="3.2"/>
<circle clip-path="url(#clip062)" cx="1502.75" cy="731.794" r="14" fill="#3182bd" fill-rule="evenodd" fill-opacity="1" stroke="#000000" stroke-opacity="1" stroke-width="3.2"/>
<circle clip-path="url(#clip062)" cx="1415.25" cy="679.462" r="14" fill="#3182bd" fill-rule="evenodd" fill-opacity="1" stroke="#000000" stroke-opacity="1" stroke-width="3.2"/>
<circle clip-path="url(#clip062)" cx="1426.28" cy="627.13" r="14" fill="#3182bd" fill-rule="evenodd" fill-opacity="1" stroke="#000000" stroke-opacity="1" stroke-width="3.2"/>
<circle clip-path="url(#clip062)" cx="1394.42" cy="574.798" r="14" fill="#3182bd" fill-rule="evenodd" fill-opacity="1" stroke="#000000" stroke-opacity="1" stroke-width="3.2"/>
<circle clip-path="url(#clip062)" cx="1326.43" cy="522.466" r="14" fill="#3182bd" fill-rule="evenodd" fill-opacity="1" stroke="#000000" stroke-opacity="1" stroke-width="3.2"/>
<circle clip-path="url(#clip062)" cx="1302.75" cy="470.134" r="14" fill="#3182bd" fill-rule="evenodd" fill-opacity="1" stroke="#000000" stroke-opacity="1" stroke-width="3.2"/>
<circle clip-path="url(#clip062)" cx="1281.32" cy="417.803" r="14" fill="#3182bd" fill-rule="evenodd" fill-opacity="1" stroke="#000000" stroke-opacity="1" stroke-width="3.2"/>
<circle clip-path="url(#clip062)" cx="1227.75" cy="365.471" r="14" fill="#3182bd" fill-rule="evenodd" fill-opacity="1" stroke="#000000" stroke-opacity="1" stroke-width="3.2"/>
<circle clip-path="url(#clip062)" cx="1244.05" cy="313.139" r="14" fill="#3182bd" fill-rule="evenodd" fill-opacity="1" stroke="#000000" stroke-opacity="1" stroke-width="3.2"/>
<circle clip-path="url(#clip062)" cx="1227.75" cy="260.807" r="14" fill="#3182bd" fill-rule="evenodd" fill-opacity="1" stroke="#000000" stroke-opacity="1" stroke-width="3.2"/>
<circle clip-path="url(#clip062)" cx="1242.75" cy="208.475" r="14" fill="#3182bd" fill-rule="evenodd" fill-opacity="1" stroke="#000000" stroke-opacity="1" stroke-width="3.2"/>
<circle clip-path="url(#clip062)" cx="1227.75" cy="156.143" r="14" fill="#3182bd" fill-rule="evenodd" fill-opacity="1" stroke="#000000" stroke-opacity="1" stroke-width="3.2"/>
<circle clip-path="url(#clip062)" cx="1213.86" cy="103.811" r="14" fill="#3182bd" fill-rule="evenodd" fill-opacity="1" stroke="#000000" stroke-opacity="1" stroke-width="3.2"/>
<polyline clip-path="url(#clip062)" style="stroke:#3182bd; stroke-width:6; stroke-opacity:1; fill:none" stroke-dasharray="24, 15" points="
  1227.75,2947.53 1227.75,-1379.28 
  "/>
<path clip-path="url(#clip060)" d="
M1683.75 292.508 L2277.76 292.508 L2277.76 111.068 L1683.75 111.068  Z
  " fill="#ffffff" fill-rule="evenodd" fill-opacity="1"/>
<polyline clip-path="url(#clip060)" style="stroke:#000000; stroke-width:4; stroke-opacity:1; fill:none" points="
  1683.75,292.508 2277.76,292.508 2277.76,111.068 1683.75,111.068 1683.75,292.508 
  "/>
<circle clip-path="url(#clip060)" cx="1783.75" cy="171.548" r="23" fill="#3182bd" fill-rule="evenodd" fill-opacity="1" stroke="#000000" stroke-opacity="1" stroke-width="5.12"/>
<path clip-path="url(#clip060)" d="M 0 0 M1907.78 174.8 L1907.78 176.883 L1888.2 176.883 Q1888.47 181.281 1890.84 183.596 Q1893.22 185.888 1897.46 185.888 Q1899.91 185.888 1902.2 185.286 Q1904.52 184.684 1906.78 183.481 L1906.78 187.508 Q1904.49 188.48 1902.09 188.99 Q1899.68 189.499 1897.2 189.499 Q1891 189.499 1887.36 185.888 Q1883.75 182.277 1883.75 176.119 Q1883.75 169.754 1887.18 166.027 Q1890.63 162.277 1896.46 162.277 Q1901.69 162.277 1904.72 165.657 Q1907.78 169.013 1907.78 174.8 M1903.52 173.55 Q1903.47 170.055 1901.55 167.971 Q1899.65 165.888 1896.51 165.888 Q1892.94 165.888 1890.79 167.902 Q1888.66 169.916 1888.34 173.573 L1903.52 173.55 Z" fill="#000000" fill-rule="evenodd" fill-opacity="1" /><path clip-path="url(#clip060)" d="M 0 0 M1928.78 163.666 L1928.78 167.694 Q1926.97 166.768 1925.03 166.305 Q1923.08 165.842 1921 165.842 Q1917.83 165.842 1916.23 166.814 Q1914.65 167.786 1914.65 169.731 Q1914.65 171.212 1915.79 172.069 Q1916.92 172.902 1920.35 173.666 L1921.81 173.99 Q1926.34 174.962 1928.24 176.744 Q1930.16 178.504 1930.16 181.675 Q1930.16 185.286 1927.29 187.393 Q1924.45 189.499 1919.45 189.499 Q1917.36 189.499 1915.09 189.082 Q1912.85 188.689 1910.35 187.879 L1910.35 183.481 Q1912.71 184.707 1915 185.332 Q1917.29 185.934 1919.54 185.934 Q1922.55 185.934 1924.17 184.916 Q1925.79 183.874 1925.79 181.999 Q1925.79 180.263 1924.61 179.337 Q1923.45 178.411 1919.49 177.555 L1918.01 177.207 Q1914.05 176.374 1912.29 174.661 Q1910.53 172.925 1910.53 169.916 Q1910.53 166.258 1913.13 164.268 Q1915.72 162.277 1920.49 162.277 Q1922.85 162.277 1924.93 162.624 Q1927.02 162.971 1928.78 163.666 Z" fill="#000000" fill-rule="evenodd" fill-opacity="1" /><path clip-path="url(#clip060)" d="M 0 0 M1938.84 155.541 L1938.84 162.902 L1947.62 162.902 L1947.62 166.212 L1938.84 166.212 L1938.84 180.286 Q1938.84 183.457 1939.7 184.36 Q1940.58 185.263 1943.24 185.263 L1947.62 185.263 L1947.62 188.828 L1943.24 188.828 Q1938.31 188.828 1936.44 186.999 Q1934.56 185.147 1934.56 180.286 L1934.56 166.212 L1931.44 166.212 L1931.44 162.902 L1934.56 162.902 L1934.56 155.541 L1938.84 155.541 Z" fill="#000000" fill-rule="evenodd" fill-opacity="1" /><path clip-path="url(#clip060)" d="M 0 0 M1952.09 162.902 L1956.34 162.902 L1956.34 188.828 L1952.09 188.828 L1952.09 162.902 M1952.09 152.809 L1956.34 152.809 L1956.34 158.203 L1952.09 158.203 L1952.09 152.809 Z" fill="#000000" fill-rule="evenodd" fill-opacity="1" /><path clip-path="url(#clip060)" d="M 0 0 M1981 167.879 Q1982.59 165.008 1984.82 163.643 Q1987.04 162.277 1990.05 162.277 Q1994.1 162.277 1996.3 165.124 Q1998.5 167.948 1998.5 173.18 L1998.5 188.828 L1994.21 188.828 L1994.21 173.319 Q1994.21 169.592 1992.9 167.786 Q1991.58 165.981 1988.87 165.981 Q1985.56 165.981 1983.64 168.18 Q1981.71 170.379 1981.71 174.175 L1981.71 188.828 L1977.43 188.828 L1977.43 173.319 Q1977.43 169.569 1976.11 167.786 Q1974.79 165.981 1972.04 165.981 Q1968.77 165.981 1966.85 168.203 Q1964.93 170.402 1964.93 174.175 L1964.93 188.828 L1960.65 188.828 L1960.65 162.902 L1964.93 162.902 L1964.93 166.93 Q1966.39 164.545 1968.43 163.411 Q1970.46 162.277 1973.27 162.277 Q1976.09 162.277 1978.06 163.712 Q1980.05 165.147 1981 167.879 Z" fill="#000000" fill-rule="evenodd" fill-opacity="1" /><path clip-path="url(#clip060)" d="M 0 0 M2014.75 175.795 Q2009.58 175.795 2007.59 176.976 Q2005.6 178.156 2005.6 181.004 Q2005.6 183.272 2007.08 184.615 Q2008.59 185.934 2011.16 185.934 Q2014.7 185.934 2016.83 183.434 Q2018.98 180.911 2018.98 176.744 L2018.98 175.795 L2014.75 175.795 M2023.24 174.036 L2023.24 188.828 L2018.98 188.828 L2018.98 184.893 Q2017.52 187.254 2015.35 188.388 Q2013.17 189.499 2010.02 189.499 Q2006.04 189.499 2003.68 187.277 Q2001.34 185.031 2001.34 181.281 Q2001.34 176.906 2004.26 174.684 Q2007.2 172.462 2013.01 172.462 L2018.98 172.462 L2018.98 172.045 Q2018.98 169.106 2017.04 167.508 Q2015.12 165.888 2011.62 165.888 Q2009.4 165.888 2007.29 166.42 Q2005.19 166.953 2003.24 168.018 L2003.24 164.082 Q2005.58 163.18 2007.78 162.74 Q2009.98 162.277 2012.06 162.277 Q2017.69 162.277 2020.46 165.194 Q2023.24 168.11 2023.24 174.036 Z" fill="#000000" fill-rule="evenodd" fill-opacity="1" /><path clip-path="url(#clip060)" d="M 0 0 M2031.92 155.541 L2031.92 162.902 L2040.7 162.902 L2040.7 166.212 L2031.92 166.212 L2031.92 180.286 Q2031.92 183.457 2032.78 184.36 Q2033.66 185.263 2036.32 185.263 L2040.7 185.263 L2040.7 188.828 L2036.32 188.828 Q2031.39 188.828 2029.52 186.999 Q2027.64 185.147 2027.64 180.286 L2027.64 166.212 L2024.52 166.212 L2024.52 162.902 L2027.64 162.902 L2027.64 155.541 L2031.92 155.541 Z" fill="#000000" fill-rule="evenodd" fill-opacity="1" /><path clip-path="url(#clip060)" d="M 0 0 M2067.34 174.8 L2067.34 176.883 L2047.76 176.883 Q2048.03 181.281 2050.39 183.596 Q2052.78 185.888 2057.02 185.888 Q2059.47 185.888 2061.76 185.286 Q2064.08 184.684 2066.34 183.481 L2066.34 187.508 Q2064.05 188.48 2061.64 188.99 Q2059.24 189.499 2056.76 189.499 Q2050.56 189.499 2046.92 185.888 Q2043.31 182.277 2043.31 176.119 Q2043.31 169.754 2046.74 166.027 Q2050.19 162.277 2056.02 162.277 Q2061.25 162.277 2064.28 165.657 Q2067.34 169.013 2067.34 174.8 M2063.08 173.55 Q2063.03 170.055 2061.11 167.971 Q2059.21 165.888 2056.07 165.888 Q2052.5 165.888 2050.35 167.902 Q2048.22 169.916 2047.89 173.573 L2063.08 173.55 Z" fill="#000000" fill-rule="evenodd" fill-opacity="1" /><path clip-path="url(#clip060)" d="M 0 0 M2088.87 166.837 L2088.87 152.809 L2093.13 152.809 L2093.13 188.828 L2088.87 188.828 L2088.87 184.939 Q2087.52 187.254 2085.46 188.388 Q2083.43 189.499 2080.56 189.499 Q2075.86 189.499 2072.89 185.749 Q2069.95 181.999 2069.95 175.888 Q2069.95 169.777 2072.89 166.027 Q2075.86 162.277 2080.56 162.277 Q2083.43 162.277 2085.46 163.411 Q2087.52 164.522 2088.87 166.837 M2074.35 175.888 Q2074.35 180.587 2076.27 183.272 Q2078.22 185.934 2081.6 185.934 Q2084.98 185.934 2086.92 183.272 Q2088.87 180.587 2088.87 175.888 Q2088.87 171.189 2086.92 168.527 Q2084.98 165.842 2081.6 165.842 Q2078.22 165.842 2076.27 168.527 Q2074.35 171.189 2074.35 175.888 Z" fill="#000000" fill-rule="evenodd" fill-opacity="1" /><path clip-path="url(#clip060)" d="M 0 0 M2132.85 167.879 Q2134.45 165.008 2136.67 163.643 Q2138.89 162.277 2141.9 162.277 Q2145.95 162.277 2148.15 165.124 Q2150.35 167.948 2150.35 173.18 L2150.35 188.828 L2146.07 188.828 L2146.07 173.319 Q2146.07 169.592 2144.75 167.786 Q2143.43 165.981 2140.72 165.981 Q2137.41 165.981 2135.49 168.18 Q2133.57 170.379 2133.57 174.175 L2133.57 188.828 L2129.28 188.828 L2129.28 173.319 Q2129.28 169.569 2127.96 167.786 Q2126.64 165.981 2123.89 165.981 Q2120.63 165.981 2118.7 168.203 Q2116.78 170.402 2116.78 174.175 L2116.78 188.828 L2112.5 188.828 L2112.5 162.902 L2116.78 162.902 L2116.78 166.93 Q2118.24 164.545 2120.28 163.411 Q2122.32 162.277 2125.12 162.277 Q2127.94 162.277 2129.91 163.712 Q2131.9 165.147 2132.85 167.879 Z" fill="#000000" fill-rule="evenodd" fill-opacity="1" /><path clip-path="url(#clip060)" d="M 0 0 M2176.99 174.8 L2176.99 176.883 L2157.41 176.883 Q2157.69 181.281 2160.05 183.596 Q2162.43 185.888 2166.67 185.888 Q2169.12 185.888 2171.41 185.286 Q2173.73 184.684 2176 183.481 L2176 187.508 Q2173.7 188.48 2171.3 188.99 Q2168.89 189.499 2166.41 189.499 Q2160.21 189.499 2156.57 185.888 Q2152.96 182.277 2152.96 176.119 Q2152.96 169.754 2156.39 166.027 Q2159.84 162.277 2165.67 162.277 Q2170.9 162.277 2173.94 165.657 Q2176.99 169.013 2176.99 174.8 M2172.73 173.55 Q2172.69 170.055 2170.76 167.971 Q2168.87 165.888 2165.72 165.888 Q2162.15 165.888 2160 167.902 Q2157.87 169.916 2157.55 173.573 L2172.73 173.55 Z" fill="#000000" fill-rule="evenodd" fill-opacity="1" /><path clip-path="url(#clip060)" d="M 0 0 M2193.24 175.795 Q2188.08 175.795 2186.09 176.976 Q2184.1 178.156 2184.1 181.004 Q2184.1 183.272 2185.58 184.615 Q2187.08 185.934 2189.65 185.934 Q2193.2 185.934 2195.32 183.434 Q2197.48 180.911 2197.48 176.744 L2197.48 175.795 L2193.24 175.795 M2201.74 174.036 L2201.74 188.828 L2197.48 188.828 L2197.48 184.893 Q2196.02 187.254 2193.84 188.388 Q2191.67 189.499 2188.52 189.499 Q2184.54 189.499 2182.18 187.277 Q2179.84 185.031 2179.84 181.281 Q2179.84 176.906 2182.76 174.684 Q2185.7 172.462 2191.51 172.462 L2197.48 172.462 L2197.48 172.045 Q2197.48 169.106 2195.53 167.508 Q2193.61 165.888 2190.12 165.888 Q2187.89 165.888 2185.79 166.42 Q2183.68 166.953 2181.74 168.018 L2181.74 164.082 Q2184.07 163.18 2186.27 162.74 Q2188.47 162.277 2190.56 162.277 Q2196.18 162.277 2198.96 165.194 Q2201.74 168.11 2201.74 174.036 Z" fill="#000000" fill-rule="evenodd" fill-opacity="1" /><path clip-path="url(#clip060)" d="M 0 0 M2227.76 173.18 L2227.76 188.828 L2223.5 188.828 L2223.5 173.319 Q2223.5 169.638 2222.06 167.809 Q2220.63 165.981 2217.76 165.981 Q2214.31 165.981 2212.32 168.18 Q2210.32 170.379 2210.32 174.175 L2210.32 188.828 L2206.04 188.828 L2206.04 162.902 L2210.32 162.902 L2210.32 166.93 Q2211.85 164.592 2213.91 163.434 Q2216 162.277 2218.7 162.277 Q2223.17 162.277 2225.46 165.055 Q2227.76 167.809 2227.76 173.18 Z" fill="#000000" fill-rule="evenodd" fill-opacity="1" /><polyline clip-path="url(#clip060)" style="stroke:#3182bd; stroke-width:4; stroke-opacity:1; fill:none" stroke-dasharray="16, 10" points="
  1708.75,232.028 1858.75,232.028 
  "/>
<path clip-path="url(#clip060)" d="M 0 0 M1891.16 216.021 L1891.16 223.382 L1899.93 223.382 L1899.93 226.692 L1891.16 226.692 L1891.16 240.766 Q1891.16 243.937 1892.02 244.84 Q1892.9 245.743 1895.56 245.743 L1899.93 245.743 L1899.93 249.308 L1895.56 249.308 Q1890.63 249.308 1888.75 247.479 Q1886.88 245.627 1886.88 240.766 L1886.88 226.692 L1883.75 226.692 L1883.75 223.382 L1886.88 223.382 L1886.88 216.021 L1891.16 216.021 Z" fill="#000000" fill-rule="evenodd" fill-opacity="1" /><path clip-path="url(#clip060)" d="M 0 0 M1919.42 227.363 Q1918.71 226.947 1917.85 226.762 Q1917.02 226.553 1916 226.553 Q1912.39 226.553 1910.44 228.914 Q1908.52 231.252 1908.52 235.65 L1908.52 249.308 L1904.24 249.308 L1904.24 223.382 L1908.52 223.382 L1908.52 227.41 Q1909.86 225.049 1912.02 223.914 Q1914.17 222.757 1917.25 222.757 Q1917.69 222.757 1918.22 222.826 Q1918.75 222.873 1919.4 222.988 L1919.42 227.363 Z" fill="#000000" fill-rule="evenodd" fill-opacity="1" /><path clip-path="url(#clip060)" d="M 0 0 M1923.45 239.076 L1923.45 223.382 L1927.71 223.382 L1927.71 238.914 Q1927.71 242.595 1929.15 244.447 Q1930.58 246.275 1933.45 246.275 Q1936.9 246.275 1938.89 244.076 Q1940.9 241.877 1940.9 238.081 L1940.9 223.382 L1945.16 223.382 L1945.16 249.308 L1940.9 249.308 L1940.9 245.326 Q1939.35 247.687 1937.29 248.845 Q1935.26 249.979 1932.55 249.979 Q1928.08 249.979 1925.77 247.201 Q1923.45 244.423 1923.45 239.076 M1934.17 222.757 L1934.17 222.757 Z" fill="#000000" fill-rule="evenodd" fill-opacity="1" /><path clip-path="url(#clip060)" d="M 0 0 M1971.81 235.28 L1971.81 237.363 L1952.22 237.363 Q1952.5 241.761 1954.86 244.076 Q1957.25 246.368 1961.48 246.368 Q1963.94 246.368 1966.23 245.766 Q1968.54 245.164 1970.81 243.961 L1970.81 247.988 Q1968.52 248.96 1966.11 249.47 Q1963.71 249.979 1961.23 249.979 Q1955.03 249.979 1951.39 246.368 Q1947.78 242.757 1947.78 236.599 Q1947.78 230.234 1951.21 226.507 Q1954.65 222.757 1960.49 222.757 Q1965.72 222.757 1968.75 226.137 Q1971.81 229.493 1971.81 235.28 M1967.55 234.03 Q1967.5 230.535 1965.58 228.451 Q1963.68 226.368 1960.53 226.368 Q1956.97 226.368 1954.82 228.382 Q1952.69 230.396 1952.36 234.053 L1967.55 234.03 Z" fill="#000000" fill-rule="evenodd" fill-opacity="1" /><path clip-path="url(#clip060)" d="M 0 0 M2011.53 228.359 Q2013.13 225.488 2015.35 224.123 Q2017.57 222.757 2020.58 222.757 Q2024.63 222.757 2026.83 225.604 Q2029.03 228.428 2029.03 233.66 L2029.03 249.308 L2024.75 249.308 L2024.75 233.799 Q2024.75 230.072 2023.43 228.266 Q2022.11 226.461 2019.4 226.461 Q2016.09 226.461 2014.17 228.66 Q2012.25 230.859 2012.25 234.655 L2012.25 249.308 L2007.96 249.308 L2007.96 233.799 Q2007.96 230.049 2006.65 228.266 Q2005.33 226.461 2002.57 226.461 Q1999.31 226.461 1997.39 228.683 Q1995.46 230.882 1995.46 234.655 L1995.46 249.308 L1991.18 249.308 L1991.18 223.382 L1995.46 223.382 L1995.46 227.41 Q1996.92 225.025 1998.96 223.891 Q2001 222.757 2003.8 222.757 Q2006.62 222.757 2008.59 224.192 Q2010.58 225.627 2011.53 228.359 Z" fill="#000000" fill-rule="evenodd" fill-opacity="1" /><path clip-path="url(#clip060)" d="M 0 0 M2055.67 235.28 L2055.67 237.363 L2036.09 237.363 Q2036.37 241.761 2038.73 244.076 Q2041.11 246.368 2045.35 246.368 Q2047.8 246.368 2050.09 245.766 Q2052.41 245.164 2054.68 243.961 L2054.68 247.988 Q2052.39 248.96 2049.98 249.47 Q2047.57 249.979 2045.09 249.979 Q2038.89 249.979 2035.26 246.368 Q2031.64 242.757 2031.64 236.599 Q2031.64 230.234 2035.07 226.507 Q2038.52 222.757 2044.35 222.757 Q2049.58 222.757 2052.62 226.137 Q2055.67 229.493 2055.67 235.28 M2051.41 234.03 Q2051.37 230.535 2049.45 228.451 Q2047.55 226.368 2044.4 226.368 Q2040.83 226.368 2038.68 228.382 Q2036.55 230.396 2036.23 234.053 L2051.41 234.03 Z" fill="#000000" fill-rule="evenodd" fill-opacity="1" /><path clip-path="url(#clip060)" d="M 0 0 M2071.92 236.275 Q2066.76 236.275 2064.77 237.456 Q2062.78 238.636 2062.78 241.484 Q2062.78 243.752 2064.26 245.095 Q2065.77 246.414 2068.33 246.414 Q2071.88 246.414 2074.01 243.914 Q2076.16 241.391 2076.16 237.224 L2076.16 236.275 L2071.92 236.275 M2080.42 234.516 L2080.42 249.308 L2076.16 249.308 L2076.16 245.373 Q2074.7 247.734 2072.52 248.868 Q2070.35 249.979 2067.2 249.979 Q2063.22 249.979 2060.86 247.757 Q2058.52 245.511 2058.52 241.761 Q2058.52 237.386 2061.44 235.164 Q2064.38 232.942 2070.19 232.942 L2076.16 232.942 L2076.16 232.525 Q2076.16 229.586 2074.21 227.988 Q2072.29 226.368 2068.8 226.368 Q2066.58 226.368 2064.47 226.9 Q2062.36 227.433 2060.42 228.498 L2060.42 224.562 Q2062.76 223.66 2064.95 223.22 Q2067.15 222.757 2069.24 222.757 Q2074.86 222.757 2077.64 225.674 Q2080.42 228.59 2080.42 234.516 Z" fill="#000000" fill-rule="evenodd" fill-opacity="1" /><path clip-path="url(#clip060)" d="M 0 0 M2106.44 233.66 L2106.44 249.308 L2102.18 249.308 L2102.18 233.799 Q2102.18 230.118 2100.74 228.289 Q2099.31 226.461 2096.44 226.461 Q2092.99 226.461 2091 228.66 Q2089.01 230.859 2089.01 234.655 L2089.01 249.308 L2084.72 249.308 L2084.72 223.382 L2089.01 223.382 L2089.01 227.41 Q2090.53 225.072 2092.59 223.914 Q2094.68 222.757 2097.39 222.757 Q2101.85 222.757 2104.14 225.535 Q2106.44 228.289 2106.44 233.66 Z" fill="#000000" fill-rule="evenodd" fill-opacity="1" /></svg>
