<?xml version="1.0" encoding="UTF-8"?>
<svg xmlns="http://www.w3.org/2000/svg" xmlns:xlink="http://www.w3.org/1999/xlink" width="600pt" height="450pt" viewBox="0 0 600 450" version="1.1">
<defs>
<g>
<symbol overflow="visible" id="TkZukiT40-0">
<path style="stroke:none;" d="M 0.59375 2.125 L 0.59375 -8.46875 L 6.59375 -8.46875 L 6.59375 2.125 Z M 1.265625 1.453125 L 5.9375 1.453125 L 5.9375 -7.78125 L 1.265625 -7.78125 Z M 1.265625 1.453125 "/>
</symbol>
<symbol overflow="visible" id="TkZukiT40-1">
<path style="stroke:none;" d="M 2.359375 -7.78125 L 2.359375 -4.484375 L 3.84375 -4.484375 C 4.394531 -4.484375 4.820312 -4.625 5.125 -4.90625 C 5.425781 -5.195312 5.578125 -5.609375 5.578125 -6.140625 C 5.578125 -6.660156 5.425781 -7.0625 5.125 -7.34375 C 4.820312 -7.632812 4.394531 -7.78125 3.84375 -7.78125 Z M 1.171875 -8.75 L 3.84375 -8.75 C 4.832031 -8.75 5.578125 -8.523438 6.078125 -8.078125 C 6.578125 -7.640625 6.828125 -6.992188 6.828125 -6.140625 C 6.828125 -5.273438 6.578125 -4.617188 6.078125 -4.171875 C 5.578125 -3.734375 4.832031 -3.515625 3.84375 -3.515625 L 2.359375 -3.515625 L 2.359375 0 L 1.171875 0 Z M 1.171875 -8.75 "/>
</symbol>
<symbol overflow="visible" id="TkZukiT40-2">
<path style="stroke:none;" d="M 4.9375 -5.5625 C 4.8125 -5.625 4.675781 -5.671875 4.53125 -5.703125 C 4.394531 -5.742188 4.238281 -5.765625 4.0625 -5.765625 C 3.457031 -5.765625 2.988281 -5.566406 2.65625 -5.171875 C 2.332031 -4.773438 2.171875 -4.203125 2.171875 -3.453125 L 2.171875 0 L 1.09375 0 L 1.09375 -6.5625 L 2.171875 -6.5625 L 2.171875 -5.546875 C 2.398438 -5.941406 2.695312 -6.234375 3.0625 -6.421875 C 3.425781 -6.617188 3.867188 -6.71875 4.390625 -6.71875 C 4.460938 -6.71875 4.539062 -6.710938 4.625 -6.703125 C 4.71875 -6.691406 4.816406 -6.675781 4.921875 -6.65625 Z M 4.9375 -5.5625 "/>
</symbol>
<symbol overflow="visible" id="TkZukiT40-3">
<path style="stroke:none;" d="M 3.671875 -5.8125 C 3.097656 -5.8125 2.640625 -5.582031 2.296875 -5.125 C 1.960938 -4.675781 1.796875 -4.0625 1.796875 -3.28125 C 1.796875 -2.488281 1.960938 -1.867188 2.296875 -1.421875 C 2.628906 -0.972656 3.085938 -0.75 3.671875 -0.75 C 4.242188 -0.75 4.695312 -0.972656 5.03125 -1.421875 C 5.375 -1.878906 5.546875 -2.5 5.546875 -3.28125 C 5.546875 -4.050781 5.375 -4.664062 5.03125 -5.125 C 4.695312 -5.582031 4.242188 -5.8125 3.671875 -5.8125 Z M 3.671875 -6.71875 C 4.609375 -6.71875 5.34375 -6.410156 5.875 -5.796875 C 6.414062 -5.191406 6.6875 -4.351562 6.6875 -3.28125 C 6.6875 -2.207031 6.414062 -1.363281 5.875 -0.75 C 5.34375 -0.132812 4.609375 0.171875 3.671875 0.171875 C 2.734375 0.171875 1.992188 -0.132812 1.453125 -0.75 C 0.921875 -1.363281 0.65625 -2.207031 0.65625 -3.28125 C 0.65625 -4.351562 0.921875 -5.191406 1.453125 -5.796875 C 1.992188 -6.410156 2.734375 -6.71875 3.671875 -6.71875 Z M 3.671875 -6.71875 "/>
</symbol>
<symbol overflow="visible" id="TkZukiT40-4">
<path style="stroke:none;" d="M 5.84375 -3.28125 C 5.84375 -4.070312 5.675781 -4.691406 5.34375 -5.140625 C 5.019531 -5.585938 4.578125 -5.8125 4.015625 -5.8125 C 3.441406 -5.8125 2.988281 -5.585938 2.65625 -5.140625 C 2.332031 -4.691406 2.171875 -4.070312 2.171875 -3.28125 C 2.171875 -2.488281 2.332031 -1.863281 2.65625 -1.40625 C 2.988281 -0.957031 3.441406 -0.734375 4.015625 -0.734375 C 4.578125 -0.734375 5.019531 -0.957031 5.34375 -1.40625 C 5.675781 -1.863281 5.84375 -2.488281 5.84375 -3.28125 Z M 2.171875 -5.5625 C 2.398438 -5.957031 2.6875 -6.25 3.03125 -6.4375 C 3.375 -6.625 3.785156 -6.71875 4.265625 -6.71875 C 5.066406 -6.71875 5.71875 -6.398438 6.21875 -5.765625 C 6.71875 -5.140625 6.96875 -4.3125 6.96875 -3.28125 C 6.96875 -2.25 6.71875 -1.414062 6.21875 -0.78125 C 5.71875 -0.144531 5.066406 0.171875 4.265625 0.171875 C 3.785156 0.171875 3.375 0.078125 3.03125 -0.109375 C 2.6875 -0.304688 2.398438 -0.597656 2.171875 -0.984375 L 2.171875 0 L 1.09375 0 L 1.09375 -9.125 L 2.171875 -9.125 Z M 2.171875 -5.5625 "/>
</symbol>
<symbol overflow="visible" id="TkZukiT40-5">
<path style="stroke:none;" d="M 4.109375 -3.296875 C 3.242188 -3.296875 2.640625 -3.195312 2.296875 -3 C 1.960938 -2.800781 1.796875 -2.460938 1.796875 -1.984375 C 1.796875 -1.597656 1.921875 -1.289062 2.171875 -1.0625 C 2.429688 -0.84375 2.773438 -0.734375 3.203125 -0.734375 C 3.804688 -0.734375 4.285156 -0.941406 4.640625 -1.359375 C 5.003906 -1.785156 5.1875 -2.351562 5.1875 -3.0625 L 5.1875 -3.296875 Z M 6.265625 -3.75 L 6.265625 0 L 5.1875 0 L 5.1875 -1 C 4.9375 -0.601562 4.628906 -0.304688 4.265625 -0.109375 C 3.898438 0.078125 3.453125 0.171875 2.921875 0.171875 C 2.242188 0.171875 1.707031 -0.015625 1.3125 -0.390625 C 0.914062 -0.773438 0.71875 -1.28125 0.71875 -1.90625 C 0.71875 -2.644531 0.960938 -3.203125 1.453125 -3.578125 C 1.953125 -3.953125 2.691406 -4.140625 3.671875 -4.140625 L 5.1875 -4.140625 L 5.1875 -4.25 C 5.1875 -4.75 5.019531 -5.132812 4.6875 -5.40625 C 4.363281 -5.675781 3.910156 -5.8125 3.328125 -5.8125 C 2.953125 -5.8125 2.582031 -5.765625 2.21875 -5.671875 C 1.863281 -5.578125 1.523438 -5.441406 1.203125 -5.265625 L 1.203125 -6.265625 C 1.597656 -6.421875 1.976562 -6.535156 2.34375 -6.609375 C 2.71875 -6.679688 3.082031 -6.71875 3.4375 -6.71875 C 4.382812 -6.71875 5.09375 -6.472656 5.5625 -5.984375 C 6.03125 -5.492188 6.265625 -4.75 6.265625 -3.75 Z M 6.265625 -3.75 "/>
</symbol>
<symbol overflow="visible" id="TkZukiT40-6">
<path style="stroke:none;" d="M 4.453125 -9.125 L 4.453125 -8.21875 L 3.421875 -8.21875 C 3.035156 -8.21875 2.765625 -8.140625 2.609375 -7.984375 C 2.460938 -7.828125 2.390625 -7.546875 2.390625 -7.140625 L 2.390625 -6.5625 L 4.171875 -6.5625 L 4.171875 -5.71875 L 2.390625 -5.71875 L 2.390625 0 L 1.3125 0 L 1.3125 -5.71875 L 0.28125 -5.71875 L 0.28125 -6.5625 L 1.3125 -6.5625 L 1.3125 -7.015625 C 1.3125 -7.742188 1.476562 -8.273438 1.8125 -8.609375 C 2.15625 -8.953125 2.695312 -9.125 3.4375 -9.125 Z M 4.453125 -9.125 "/>
</symbol>
<symbol overflow="visible" id="TkZukiT40-7">
<path style="stroke:none;" d="M 6.75 -3.546875 L 6.75 -3.03125 L 1.78125 -3.03125 C 1.832031 -2.28125 2.054688 -1.710938 2.453125 -1.328125 C 2.859375 -0.941406 3.414062 -0.75 4.125 -0.75 C 4.539062 -0.75 4.941406 -0.796875 5.328125 -0.890625 C 5.722656 -0.992188 6.113281 -1.148438 6.5 -1.359375 L 6.5 -0.328125 C 6.101562 -0.171875 5.703125 -0.0507812 5.296875 0.03125 C 4.890625 0.125 4.476562 0.171875 4.0625 0.171875 C 3.019531 0.171875 2.191406 -0.128906 1.578125 -0.734375 C 0.960938 -1.347656 0.65625 -2.175781 0.65625 -3.21875 C 0.65625 -4.289062 0.945312 -5.140625 1.53125 -5.765625 C 2.113281 -6.398438 2.894531 -6.71875 3.875 -6.71875 C 4.757812 -6.71875 5.457031 -6.429688 5.96875 -5.859375 C 6.488281 -5.296875 6.75 -4.523438 6.75 -3.546875 Z M 5.671875 -3.875 C 5.660156 -4.457031 5.492188 -4.925781 5.171875 -5.28125 C 4.847656 -5.632812 4.421875 -5.8125 3.890625 -5.8125 C 3.285156 -5.8125 2.800781 -5.640625 2.4375 -5.296875 C 2.082031 -4.953125 1.878906 -4.472656 1.828125 -3.859375 Z M 5.671875 -3.875 "/>
</symbol>
<symbol overflow="visible" id="TkZukiT40-8">
<path style="stroke:none;" d="M 5.453125 -5.5625 L 5.453125 -9.125 L 6.53125 -9.125 L 6.53125 0 L 5.453125 0 L 5.453125 -0.984375 C 5.222656 -0.597656 4.9375 -0.304688 4.59375 -0.109375 C 4.25 0.078125 3.832031 0.171875 3.34375 0.171875 C 2.550781 0.171875 1.90625 -0.144531 1.40625 -0.78125 C 0.90625 -1.414062 0.65625 -2.25 0.65625 -3.28125 C 0.65625 -4.3125 0.90625 -5.140625 1.40625 -5.765625 C 1.90625 -6.398438 2.550781 -6.71875 3.34375 -6.71875 C 3.832031 -6.71875 4.25 -6.625 4.59375 -6.4375 C 4.9375 -6.25 5.222656 -5.957031 5.453125 -5.5625 Z M 1.78125 -3.28125 C 1.78125 -2.488281 1.941406 -1.863281 2.265625 -1.40625 C 2.585938 -0.957031 3.035156 -0.734375 3.609375 -0.734375 C 4.179688 -0.734375 4.628906 -0.957031 4.953125 -1.40625 C 5.285156 -1.863281 5.453125 -2.488281 5.453125 -3.28125 C 5.453125 -4.070312 5.285156 -4.691406 4.953125 -5.140625 C 4.628906 -5.585938 4.179688 -5.8125 3.609375 -5.8125 C 3.035156 -5.8125 2.585938 -5.585938 2.265625 -5.140625 C 1.941406 -4.691406 1.78125 -4.070312 1.78125 -3.28125 Z M 1.78125 -3.28125 "/>
</symbol>
<symbol overflow="visible" id="TkZukiT40-9">
<path style="stroke:none;" d="M 1.28125 -1.484375 L 2.515625 -1.484375 L 2.515625 0 L 1.28125 0 Z M 1.28125 -1.484375 "/>
</symbol>
<symbol overflow="visible" id="TkZukiT40-10">
<path style="stroke:none;" d="M 1.484375 -1 L 3.421875 -1 L 3.421875 -7.671875 L 1.3125 -7.25 L 1.3125 -8.328125 L 3.40625 -8.75 L 4.59375 -8.75 L 4.59375 -1 L 6.53125 -1 L 6.53125 0 L 1.484375 0 Z M 1.484375 -1 "/>
</symbol>
<symbol overflow="visible" id="TkZukiT40-11">
<path style="stroke:none;" d="M 3.8125 -7.96875 C 3.207031 -7.96875 2.75 -7.664062 2.4375 -7.0625 C 2.132812 -6.46875 1.984375 -5.566406 1.984375 -4.359375 C 1.984375 -3.160156 2.132812 -2.257812 2.4375 -1.65625 C 2.75 -1.0625 3.207031 -0.765625 3.8125 -0.765625 C 4.425781 -0.765625 4.882812 -1.0625 5.1875 -1.65625 C 5.5 -2.257812 5.65625 -3.160156 5.65625 -4.359375 C 5.65625 -5.566406 5.5 -6.46875 5.1875 -7.0625 C 4.882812 -7.664062 4.425781 -7.96875 3.8125 -7.96875 Z M 3.8125 -8.90625 C 4.789062 -8.90625 5.539062 -8.515625 6.0625 -7.734375 C 6.582031 -6.960938 6.84375 -5.835938 6.84375 -4.359375 C 6.84375 -2.890625 6.582031 -1.765625 6.0625 -0.984375 C 5.539062 -0.210938 4.789062 0.171875 3.8125 0.171875 C 2.832031 0.171875 2.082031 -0.210938 1.5625 -0.984375 C 1.050781 -1.765625 0.796875 -2.890625 0.796875 -4.359375 C 0.796875 -5.835938 1.050781 -6.960938 1.5625 -7.734375 C 2.082031 -8.515625 2.832031 -8.90625 3.8125 -8.90625 Z M 3.8125 -8.90625 "/>
</symbol>
<symbol overflow="visible" id="TkZukiT41-0">
<path style="stroke:none;" d="M 0.59375 2.125 L 0.59375 -8.46875 L 6.59375 -8.46875 L 6.59375 2.125 Z M 1.265625 1.453125 L 5.9375 1.453125 L 5.9375 -7.78125 L 1.265625 -7.78125 Z M 1.265625 1.453125 "/>
</symbol>
<symbol overflow="visible" id="TkZukiT41-1">
<path style="stroke:none;" d="M 5.84375 -3.28125 C 5.84375 -4.070312 5.675781 -4.691406 5.34375 -5.140625 C 5.019531 -5.585938 4.578125 -5.8125 4.015625 -5.8125 C 3.441406 -5.8125 2.988281 -5.585938 2.65625 -5.140625 C 2.332031 -4.691406 2.171875 -4.070312 2.171875 -3.28125 C 2.171875 -2.488281 2.332031 -1.863281 2.65625 -1.40625 C 2.988281 -0.957031 3.441406 -0.734375 4.015625 -0.734375 C 4.578125 -0.734375 5.019531 -0.957031 5.34375 -1.40625 C 5.675781 -1.863281 5.84375 -2.488281 5.84375 -3.28125 Z M 2.171875 -5.5625 C 2.398438 -5.957031 2.6875 -6.25 3.03125 -6.4375 C 3.375 -6.625 3.785156 -6.71875 4.265625 -6.71875 C 5.066406 -6.71875 5.71875 -6.398438 6.21875 -5.765625 C 6.71875 -5.140625 6.96875 -4.3125 6.96875 -3.28125 C 6.96875 -2.25 6.71875 -1.414062 6.21875 -0.78125 C 5.71875 -0.144531 5.066406 0.171875 4.265625 0.171875 C 3.785156 0.171875 3.375 0.078125 3.03125 -0.109375 C 2.6875 -0.304688 2.398438 -0.597656 2.171875 -0.984375 L 2.171875 0 L 1.09375 0 L 1.09375 -9.125 L 2.171875 -9.125 Z M 2.171875 -5.5625 "/>
</symbol>
<symbol overflow="visible" id="TkZukiT41-2">
<path style="stroke:none;" d="M 1.125 -6.5625 L 2.203125 -6.5625 L 2.203125 0 L 1.125 0 Z M 1.125 -9.125 L 2.203125 -9.125 L 2.203125 -7.75 L 1.125 -7.75 Z M 1.125 -9.125 "/>
</symbol>
<symbol overflow="visible" id="TkZukiT41-3">
<path style="stroke:none;" d="M 1.125 -9.125 L 2.203125 -9.125 L 2.203125 0 L 1.125 0 Z M 1.125 -9.125 "/>
</symbol>
<symbol overflow="visible" id="TkZukiT41-4">
<path style="stroke:none;" d="M 2.203125 -8.421875 L 2.203125 -6.5625 L 4.421875 -6.5625 L 4.421875 -5.71875 L 2.203125 -5.71875 L 2.203125 -2.15625 C 2.203125 -1.625 2.273438 -1.28125 2.421875 -1.125 C 2.566406 -0.976562 2.863281 -0.90625 3.3125 -0.90625 L 4.421875 -0.90625 L 4.421875 0 L 3.3125 0 C 2.476562 0 1.898438 -0.15625 1.578125 -0.46875 C 1.265625 -0.78125 1.109375 -1.34375 1.109375 -2.15625 L 1.109375 -5.71875 L 0.328125 -5.71875 L 0.328125 -6.5625 L 1.109375 -6.5625 L 1.109375 -8.421875 Z M 2.203125 -8.421875 "/>
</symbol>
<symbol overflow="visible" id="TkZukiT41-5">
<path style="stroke:none;" d="M 4.109375 -3.296875 C 3.242188 -3.296875 2.640625 -3.195312 2.296875 -3 C 1.960938 -2.800781 1.796875 -2.460938 1.796875 -1.984375 C 1.796875 -1.597656 1.921875 -1.289062 2.171875 -1.0625 C 2.429688 -0.84375 2.773438 -0.734375 3.203125 -0.734375 C 3.804688 -0.734375 4.285156 -0.941406 4.640625 -1.359375 C 5.003906 -1.785156 5.1875 -2.351562 5.1875 -3.0625 L 5.1875 -3.296875 Z M 6.265625 -3.75 L 6.265625 0 L 5.1875 0 L 5.1875 -1 C 4.9375 -0.601562 4.628906 -0.304688 4.265625 -0.109375 C 3.898438 0.078125 3.453125 0.171875 2.921875 0.171875 C 2.242188 0.171875 1.707031 -0.015625 1.3125 -0.390625 C 0.914062 -0.773438 0.71875 -1.28125 0.71875 -1.90625 C 0.71875 -2.644531 0.960938 -3.203125 1.453125 -3.578125 C 1.953125 -3.953125 2.691406 -4.140625 3.671875 -4.140625 L 5.1875 -4.140625 L 5.1875 -4.25 C 5.1875 -4.75 5.019531 -5.132812 4.6875 -5.40625 C 4.363281 -5.675781 3.910156 -5.8125 3.328125 -5.8125 C 2.953125 -5.8125 2.582031 -5.765625 2.21875 -5.671875 C 1.863281 -5.578125 1.523438 -5.441406 1.203125 -5.265625 L 1.203125 -6.265625 C 1.597656 -6.421875 1.976562 -6.535156 2.34375 -6.609375 C 2.71875 -6.679688 3.082031 -6.71875 3.4375 -6.71875 C 4.382812 -6.71875 5.09375 -6.472656 5.5625 -5.984375 C 6.03125 -5.492188 6.265625 -4.75 6.265625 -3.75 Z M 6.265625 -3.75 "/>
</symbol>
<symbol overflow="visible" id="TkZukiT41-6">
<path style="stroke:none;" d="M 5.3125 -6.375 L 5.3125 -5.34375 C 5.007812 -5.5 4.691406 -5.613281 4.359375 -5.6875 C 4.035156 -5.769531 3.695312 -5.8125 3.34375 -5.8125 C 2.8125 -5.8125 2.410156 -5.726562 2.140625 -5.5625 C 1.867188 -5.40625 1.734375 -5.160156 1.734375 -4.828125 C 1.734375 -4.578125 1.828125 -4.378906 2.015625 -4.234375 C 2.210938 -4.097656 2.601562 -3.96875 3.1875 -3.84375 L 3.546875 -3.75 C 4.316406 -3.59375 4.863281 -3.363281 5.1875 -3.0625 C 5.507812 -2.757812 5.671875 -2.34375 5.671875 -1.8125 C 5.671875 -1.195312 5.425781 -0.710938 4.9375 -0.359375 C 4.457031 -0.00390625 3.796875 0.171875 2.953125 0.171875 C 2.597656 0.171875 2.226562 0.132812 1.84375 0.0625 C 1.46875 0 1.070312 -0.0976562 0.65625 -0.234375 L 0.65625 -1.359375 C 1.050781 -1.148438 1.441406 -0.992188 1.828125 -0.890625 C 2.210938 -0.785156 2.597656 -0.734375 2.984375 -0.734375 C 3.484375 -0.734375 3.867188 -0.816406 4.140625 -0.984375 C 4.421875 -1.160156 4.5625 -1.410156 4.5625 -1.734375 C 4.5625 -2.023438 4.460938 -2.25 4.265625 -2.40625 C 4.066406 -2.5625 3.632812 -2.710938 2.96875 -2.859375 L 2.59375 -2.9375 C 1.925781 -3.082031 1.441406 -3.300781 1.140625 -3.59375 C 0.847656 -3.882812 0.703125 -4.28125 0.703125 -4.78125 C 0.703125 -5.40625 0.921875 -5.882812 1.359375 -6.21875 C 1.796875 -6.550781 2.414062 -6.71875 3.21875 -6.71875 C 3.613281 -6.71875 3.988281 -6.6875 4.34375 -6.625 C 4.695312 -6.570312 5.019531 -6.488281 5.3125 -6.375 Z M 5.3125 -6.375 "/>
</symbol>
<symbol overflow="visible" id="TkZukiT41-7">
<path style="stroke:none;" d="M 3.8125 -7.96875 C 3.207031 -7.96875 2.75 -7.664062 2.4375 -7.0625 C 2.132812 -6.46875 1.984375 -5.566406 1.984375 -4.359375 C 1.984375 -3.160156 2.132812 -2.257812 2.4375 -1.65625 C 2.75 -1.0625 3.207031 -0.765625 3.8125 -0.765625 C 4.425781 -0.765625 4.882812 -1.0625 5.1875 -1.65625 C 5.5 -2.257812 5.65625 -3.160156 5.65625 -4.359375 C 5.65625 -5.566406 5.5 -6.46875 5.1875 -7.0625 C 4.882812 -7.664062 4.425781 -7.96875 3.8125 -7.96875 Z M 3.8125 -8.90625 C 4.789062 -8.90625 5.539062 -8.515625 6.0625 -7.734375 C 6.582031 -6.960938 6.84375 -5.835938 6.84375 -4.359375 C 6.84375 -2.890625 6.582031 -1.765625 6.0625 -0.984375 C 5.539062 -0.210938 4.789062 0.171875 3.8125 0.171875 C 2.832031 0.171875 2.082031 -0.210938 1.5625 -0.984375 C 1.050781 -1.765625 0.796875 -2.890625 0.796875 -4.359375 C 0.796875 -5.835938 1.050781 -6.960938 1.5625 -7.734375 C 2.082031 -8.515625 2.832031 -8.90625 3.8125 -8.90625 Z M 3.8125 -8.90625 "/>
</symbol>
<symbol overflow="visible" id="TkZukiT42-0">
<path style="stroke:none;" d="M 0.59375 2.125 L 0.59375 -8.46875 L 6.59375 -8.46875 L 6.59375 2.125 Z M 1.265625 1.453125 L 5.9375 1.453125 L 5.9375 -7.78125 L 1.265625 -7.78125 Z M 1.265625 1.453125 "/>
</symbol>
<symbol overflow="visible" id="TkZukiT42-1">
<path style="stroke:none;" d="M 3.859375 0.609375 C 3.554688 1.390625 3.257812 1.898438 2.96875 2.140625 C 2.675781 2.378906 2.289062 2.5 1.8125 2.5 L 0.953125 2.5 L 0.953125 1.59375 L 1.578125 1.59375 C 1.878906 1.59375 2.109375 1.519531 2.265625 1.375 C 2.429688 1.238281 2.613281 0.910156 2.8125 0.390625 L 3.015625 -0.109375 L 0.359375 -6.5625 L 1.5 -6.5625 L 3.546875 -1.4375 L 5.609375 -6.5625 L 6.75 -6.5625 Z M 3.859375 0.609375 "/>
</symbol>
<symbol overflow="visible" id="TkZukiT42-2">
<path style="stroke:none;" d=""/>
</symbol>
<symbol overflow="visible" id="TkZukiT42-3">
<path style="stroke:none;" d="M 3.671875 -5.8125 C 3.097656 -5.8125 2.640625 -5.582031 2.296875 -5.125 C 1.960938 -4.675781 1.796875 -4.0625 1.796875 -3.28125 C 1.796875 -2.488281 1.960938 -1.867188 2.296875 -1.421875 C 2.628906 -0.972656 3.085938 -0.75 3.671875 -0.75 C 4.242188 -0.75 4.695312 -0.972656 5.03125 -1.421875 C 5.375 -1.878906 5.546875 -2.5 5.546875 -3.28125 C 5.546875 -4.050781 5.375 -4.664062 5.03125 -5.125 C 4.695312 -5.582031 4.242188 -5.8125 3.671875 -5.8125 Z M 3.671875 -6.71875 C 4.609375 -6.71875 5.34375 -6.410156 5.875 -5.796875 C 6.414062 -5.191406 6.6875 -4.351562 6.6875 -3.28125 C 6.6875 -2.207031 6.414062 -1.363281 5.875 -0.75 C 5.34375 -0.132812 4.609375 0.171875 3.671875 0.171875 C 2.734375 0.171875 1.992188 -0.132812 1.453125 -0.75 C 0.921875 -1.363281 0.65625 -2.207031 0.65625 -3.28125 C 0.65625 -4.351562 0.921875 -5.191406 1.453125 -5.796875 C 1.992188 -6.410156 2.734375 -6.71875 3.671875 -6.71875 Z M 3.671875 -6.71875 "/>
</symbol>
<symbol overflow="visible" id="TkZukiT42-4">
<path style="stroke:none;" d="M 6.59375 -3.96875 L 6.59375 0 L 5.515625 0 L 5.515625 -3.921875 C 5.515625 -4.546875 5.390625 -5.007812 5.140625 -5.3125 C 4.898438 -5.625 4.539062 -5.78125 4.0625 -5.78125 C 3.476562 -5.78125 3.015625 -5.59375 2.671875 -5.21875 C 2.335938 -4.851562 2.171875 -4.347656 2.171875 -3.703125 L 2.171875 0 L 1.09375 0 L 1.09375 -9.125 L 2.171875 -9.125 L 2.171875 -5.546875 C 2.429688 -5.941406 2.734375 -6.234375 3.078125 -6.421875 C 3.429688 -6.617188 3.835938 -6.71875 4.296875 -6.71875 C 5.046875 -6.71875 5.613281 -6.484375 6 -6.015625 C 6.394531 -5.554688 6.59375 -4.875 6.59375 -3.96875 Z M 6.59375 -3.96875 "/>
</symbol>
<symbol overflow="visible" id="TkZukiT42-5">
<path style="stroke:none;" d="M 1.296875 -8.75 L 5.9375 -8.75 L 5.9375 -7.75 L 2.375 -7.75 L 2.375 -5.609375 C 2.550781 -5.671875 2.722656 -5.710938 2.890625 -5.734375 C 3.066406 -5.765625 3.238281 -5.78125 3.40625 -5.78125 C 4.382812 -5.78125 5.160156 -5.507812 5.734375 -4.96875 C 6.304688 -4.4375 6.59375 -3.71875 6.59375 -2.8125 C 6.59375 -1.863281 6.296875 -1.128906 5.703125 -0.609375 C 5.117188 -0.0859375 4.296875 0.171875 3.234375 0.171875 C 2.859375 0.171875 2.476562 0.140625 2.09375 0.078125 C 1.71875 0.015625 1.328125 -0.078125 0.921875 -0.203125 L 0.921875 -1.390625 C 1.273438 -1.203125 1.640625 -1.0625 2.015625 -0.96875 C 2.390625 -0.875 2.785156 -0.828125 3.203125 -0.828125 C 3.878906 -0.828125 4.414062 -1.003906 4.8125 -1.359375 C 5.207031 -1.710938 5.40625 -2.195312 5.40625 -2.8125 C 5.40625 -3.414062 5.207031 -3.894531 4.8125 -4.25 C 4.414062 -4.601562 3.878906 -4.78125 3.203125 -4.78125 C 2.890625 -4.78125 2.570312 -4.742188 2.25 -4.671875 C 1.9375 -4.609375 1.617188 -4.503906 1.296875 -4.359375 Z M 1.296875 -8.75 "/>
</symbol>
<symbol overflow="visible" id="TkZukiT43-0">
<path style="stroke:none;" d="M 0.59375 2.125 L 0.59375 -8.46875 L 6.59375 -8.46875 L 6.59375 2.125 Z M 1.265625 1.453125 L 5.9375 1.453125 L 5.9375 -7.78125 L 1.265625 -7.78125 Z M 1.265625 1.453125 "/>
</symbol>
<symbol overflow="visible" id="TkZukiT43-1">
<path style="stroke:none;" d="M 3.8125 -7.96875 C 3.207031 -7.96875 2.75 -7.664062 2.4375 -7.0625 C 2.132812 -6.46875 1.984375 -5.566406 1.984375 -4.359375 C 1.984375 -3.160156 2.132812 -2.257812 2.4375 -1.65625 C 2.75 -1.0625 3.207031 -0.765625 3.8125 -0.765625 C 4.425781 -0.765625 4.882812 -1.0625 5.1875 -1.65625 C 5.5 -2.257812 5.65625 -3.160156 5.65625 -4.359375 C 5.65625 -5.566406 5.5 -6.46875 5.1875 -7.0625 C 4.882812 -7.664062 4.425781 -7.96875 3.8125 -7.96875 Z M 3.8125 -8.90625 C 4.789062 -8.90625 5.539062 -8.515625 6.0625 -7.734375 C 6.582031 -6.960938 6.84375 -5.835938 6.84375 -4.359375 C 6.84375 -2.890625 6.582031 -1.765625 6.0625 -0.984375 C 5.539062 -0.210938 4.789062 0.171875 3.8125 0.171875 C 2.832031 0.171875 2.082031 -0.210938 1.5625 -0.984375 C 1.050781 -1.765625 0.796875 -2.890625 0.796875 -4.359375 C 0.796875 -5.835938 1.050781 -6.960938 1.5625 -7.734375 C 2.082031 -8.515625 2.832031 -8.90625 3.8125 -8.90625 Z M 3.8125 -8.90625 "/>
</symbol>
<symbol overflow="visible" id="TkZukiT44-0">
<path style="stroke:none;" d="M 0.59375 2.125 L 0.59375 -8.46875 L 6.59375 -8.46875 L 6.59375 2.125 Z M 1.265625 1.453125 L 5.9375 1.453125 L 5.9375 -7.78125 L 1.265625 -7.78125 Z M 1.265625 1.453125 "/>
</symbol>
<symbol overflow="visible" id="TkZukiT44-1">
<path style="stroke:none;" d="M 1.28125 -1.484375 L 2.515625 -1.484375 L 2.515625 0 L 1.28125 0 Z M 1.28125 -1.484375 "/>
</symbol>
<symbol overflow="visible" id="TkZukiT45-0">
<path style="stroke:none;" d="M 2.125 -0.59375 L -8.46875 -0.59375 L -8.46875 -6.59375 L 2.125 -6.59375 Z M 1.453125 -1.265625 L 1.453125 -5.9375 L -7.78125 -5.9375 L -7.78125 -1.265625 Z M 1.453125 -1.265625 "/>
</symbol>
<symbol overflow="visible" id="TkZukiT45-1">
<path style="stroke:none;" d="M -7.953125 -4.734375 C -7.953125 -3.867188 -7.628906 -3.179688 -6.984375 -2.671875 C -6.347656 -2.171875 -5.472656 -1.921875 -4.359375 -1.921875 C -3.265625 -1.921875 -2.394531 -2.171875 -1.75 -2.671875 C -1.113281 -3.179688 -0.796875 -3.867188 -0.796875 -4.734375 C -0.796875 -5.585938 -1.113281 -6.265625 -1.75 -6.765625 C -2.394531 -7.273438 -3.265625 -7.53125 -4.359375 -7.53125 C -5.472656 -7.53125 -6.347656 -7.273438 -6.984375 -6.765625 C -7.628906 -6.265625 -7.953125 -5.585938 -7.953125 -4.734375 Z M -8.90625 -4.734375 C -8.90625 -5.953125 -8.492188 -6.925781 -7.671875 -7.65625 C -6.847656 -8.394531 -5.742188 -8.765625 -4.359375 -8.765625 C -2.984375 -8.765625 -1.882812 -8.394531 -1.0625 -7.65625 C -0.238281 -6.925781 0.171875 -5.953125 0.171875 -4.734375 C 0.171875 -3.503906 -0.238281 -2.519531 -1.0625 -1.78125 C -1.882812 -1.039062 -2.984375 -0.671875 -4.359375 -0.671875 C -5.742188 -0.671875 -6.847656 -1.039062 -7.671875 -1.78125 C -8.492188 -2.519531 -8.90625 -3.503906 -8.90625 -4.734375 Z M -8.90625 -4.734375 "/>
</symbol>
<symbol overflow="visible" id="TkZukiT46-0">
<path style="stroke:none;" d="M 2.125 -0.59375 L -8.46875 -0.59375 L -8.46875 -6.59375 L 2.125 -6.59375 Z M 1.453125 -1.265625 L 1.453125 -5.9375 L -7.78125 -5.9375 L -7.78125 -1.265625 Z M 1.453125 -1.265625 "/>
</symbol>
<symbol overflow="visible" id="TkZukiT46-1">
<path style="stroke:none;" d="M -3.28125 -5.84375 C -4.070312 -5.84375 -4.691406 -5.675781 -5.140625 -5.34375 C -5.585938 -5.019531 -5.8125 -4.578125 -5.8125 -4.015625 C -5.8125 -3.441406 -5.585938 -2.988281 -5.140625 -2.65625 C -4.691406 -2.332031 -4.070312 -2.171875 -3.28125 -2.171875 C -2.488281 -2.171875 -1.863281 -2.332031 -1.40625 -2.65625 C -0.957031 -2.988281 -0.734375 -3.441406 -0.734375 -4.015625 C -0.734375 -4.578125 -0.957031 -5.019531 -1.40625 -5.34375 C -1.863281 -5.675781 -2.488281 -5.84375 -3.28125 -5.84375 Z M -5.5625 -2.171875 C -5.957031 -2.398438 -6.25 -2.6875 -6.4375 -3.03125 C -6.625 -3.375 -6.71875 -3.785156 -6.71875 -4.265625 C -6.71875 -5.066406 -6.398438 -5.71875 -5.765625 -6.21875 C -5.140625 -6.71875 -4.3125 -6.96875 -3.28125 -6.96875 C -2.25 -6.96875 -1.414062 -6.71875 -0.78125 -6.21875 C -0.144531 -5.71875 0.171875 -5.066406 0.171875 -4.265625 C 0.171875 -3.785156 0.078125 -3.375 -0.109375 -3.03125 C -0.304688 -2.6875 -0.597656 -2.398438 -0.984375 -2.171875 L 0 -2.171875 L 0 -1.09375 L -9.125 -1.09375 L -9.125 -2.171875 Z M -5.5625 -2.171875 "/>
</symbol>
<symbol overflow="visible" id="TkZukiT47-0">
<path style="stroke:none;" d="M 2.125 -0.59375 L -8.46875 -0.59375 L -8.46875 -6.59375 L 2.125 -6.59375 Z M 1.453125 -1.265625 L 1.453125 -5.9375 L -7.78125 -5.9375 L -7.78125 -1.265625 Z M 1.453125 -1.265625 "/>
</symbol>
<symbol overflow="visible" id="TkZukiT47-1">
<path style="stroke:none;" d="M -6.375 -5.3125 L -5.34375 -5.3125 C -5.5 -5.007812 -5.613281 -4.691406 -5.6875 -4.359375 C -5.769531 -4.035156 -5.8125 -3.695312 -5.8125 -3.34375 C -5.8125 -2.8125 -5.726562 -2.410156 -5.5625 -2.140625 C -5.40625 -1.867188 -5.160156 -1.734375 -4.828125 -1.734375 C -4.578125 -1.734375 -4.378906 -1.828125 -4.234375 -2.015625 C -4.097656 -2.210938 -3.96875 -2.601562 -3.84375 -3.1875 L -3.75 -3.546875 C -3.59375 -4.316406 -3.363281 -4.863281 -3.0625 -5.1875 C -2.757812 -5.507812 -2.34375 -5.671875 -1.8125 -5.671875 C -1.195312 -5.671875 -0.710938 -5.425781 -0.359375 -4.9375 C -0.00390625 -4.457031 0.171875 -3.796875 0.171875 -2.953125 C 0.171875 -2.597656 0.132812 -2.226562 0.0625 -1.84375 C 0 -1.46875 -0.0976562 -1.070312 -0.234375 -0.65625 L -1.359375 -0.65625 C -1.148438 -1.050781 -0.992188 -1.441406 -0.890625 -1.828125 C -0.785156 -2.210938 -0.734375 -2.597656 -0.734375 -2.984375 C -0.734375 -3.484375 -0.816406 -3.867188 -0.984375 -4.140625 C -1.160156 -4.421875 -1.410156 -4.5625 -1.734375 -4.5625 C -2.023438 -4.5625 -2.25 -4.460938 -2.40625 -4.265625 C -2.5625 -4.066406 -2.710938 -3.632812 -2.859375 -2.96875 L -2.9375 -2.59375 C -3.082031 -1.925781 -3.300781 -1.441406 -3.59375 -1.140625 C -3.882812 -0.847656 -4.28125 -0.703125 -4.78125 -0.703125 C -5.40625 -0.703125 -5.882812 -0.921875 -6.21875 -1.359375 C -6.550781 -1.796875 -6.71875 -2.414062 -6.71875 -3.21875 C -6.71875 -3.613281 -6.6875 -3.988281 -6.625 -4.34375 C -6.570312 -4.695312 -6.488281 -5.019531 -6.375 -5.3125 Z M -6.375 -5.3125 "/>
</symbol>
<symbol overflow="visible" id="TkZukiT47-2">
<path style="stroke:none;" d="M -3.546875 -6.75 L -3.03125 -6.75 L -3.03125 -1.78125 C -2.28125 -1.832031 -1.710938 -2.054688 -1.328125 -2.453125 C -0.941406 -2.859375 -0.75 -3.414062 -0.75 -4.125 C -0.75 -4.539062 -0.796875 -4.941406 -0.890625 -5.328125 C -0.992188 -5.722656 -1.148438 -6.113281 -1.359375 -6.5 L -0.328125 -6.5 C -0.171875 -6.101562 -0.0507812 -5.703125 0.03125 -5.296875 C 0.125 -4.890625 0.171875 -4.476562 0.171875 -4.0625 C 0.171875 -3.019531 -0.128906 -2.191406 -0.734375 -1.578125 C -1.347656 -0.960938 -2.175781 -0.65625 -3.21875 -0.65625 C -4.289062 -0.65625 -5.140625 -0.945312 -5.765625 -1.53125 C -6.398438 -2.113281 -6.71875 -2.894531 -6.71875 -3.875 C -6.71875 -4.757812 -6.429688 -5.457031 -5.859375 -5.96875 C -5.296875 -6.488281 -4.523438 -6.75 -3.546875 -6.75 Z M -3.875 -5.671875 C -4.457031 -5.660156 -4.925781 -5.492188 -5.28125 -5.171875 C -5.632812 -4.847656 -5.8125 -4.421875 -5.8125 -3.890625 C -5.8125 -3.285156 -5.640625 -2.800781 -5.296875 -2.4375 C -4.953125 -2.082031 -4.472656 -1.878906 -3.859375 -1.828125 Z M -3.875 -5.671875 "/>
</symbol>
<symbol overflow="visible" id="TkZukiT47-3">
<path style="stroke:none;" d="M -5.296875 -6.234375 C -5.785156 -6.503906 -6.144531 -6.828125 -6.375 -7.203125 C -6.601562 -7.578125 -6.71875 -8.019531 -6.71875 -8.53125 C -6.71875 -9.21875 -6.476562 -9.742188 -6 -10.109375 C -5.519531 -10.484375 -4.84375 -10.671875 -3.96875 -10.671875 L 0 -10.671875 L 0 -9.59375 L -3.921875 -9.59375 C -4.554688 -9.59375 -5.023438 -9.476562 -5.328125 -9.25 C -5.628906 -9.03125 -5.78125 -8.691406 -5.78125 -8.234375 C -5.78125 -7.671875 -5.59375 -7.226562 -5.21875 -6.90625 C -4.851562 -6.582031 -4.347656 -6.421875 -3.703125 -6.421875 L 0 -6.421875 L 0 -5.34375 L -3.921875 -5.34375 C -4.554688 -5.34375 -5.023438 -5.226562 -5.328125 -5 C -5.628906 -4.78125 -5.78125 -4.4375 -5.78125 -3.96875 C -5.78125 -3.414062 -5.59375 -2.976562 -5.21875 -2.65625 C -4.851562 -2.332031 -4.347656 -2.171875 -3.703125 -2.171875 L 0 -2.171875 L 0 -1.09375 L -6.5625 -1.09375 L -6.5625 -2.171875 L -5.546875 -2.171875 C -5.941406 -2.421875 -6.234375 -2.71875 -6.421875 -3.0625 C -6.617188 -3.40625 -6.71875 -3.8125 -6.71875 -4.28125 C -6.71875 -4.757812 -6.597656 -5.164062 -6.359375 -5.5 C -6.117188 -5.832031 -5.765625 -6.078125 -5.296875 -6.234375 Z M -5.296875 -6.234375 "/>
</symbol>
<symbol overflow="visible" id="TkZukiT47-4">
<path style="stroke:none;" d="M -9.125 -4.453125 L -8.21875 -4.453125 L -8.21875 -3.421875 C -8.21875 -3.035156 -8.140625 -2.765625 -7.984375 -2.609375 C -7.828125 -2.460938 -7.546875 -2.390625 -7.140625 -2.390625 L -6.5625 -2.390625 L -6.5625 -4.171875 L -5.71875 -4.171875 L -5.71875 -2.390625 L 0 -2.390625 L 0 -1.3125 L -5.71875 -1.3125 L -5.71875 -0.28125 L -6.5625 -0.28125 L -6.5625 -1.3125 L -7.015625 -1.3125 C -7.742188 -1.3125 -8.273438 -1.476562 -8.609375 -1.8125 C -8.953125 -2.15625 -9.125 -2.695312 -9.125 -3.4375 Z M -9.125 -4.453125 "/>
</symbol>
<symbol overflow="visible" id="TkZukiT47-5">
<path style="stroke:none;" d="M -3.296875 -4.109375 C -3.296875 -3.242188 -3.195312 -2.640625 -3 -2.296875 C -2.800781 -1.960938 -2.460938 -1.796875 -1.984375 -1.796875 C -1.597656 -1.796875 -1.289062 -1.921875 -1.0625 -2.171875 C -0.84375 -2.429688 -0.734375 -2.773438 -0.734375 -3.203125 C -0.734375 -3.804688 -0.941406 -4.285156 -1.359375 -4.640625 C -1.785156 -5.003906 -2.351562 -5.1875 -3.0625 -5.1875 L -3.296875 -5.1875 Z M -3.75 -6.265625 L 0 -6.265625 L 0 -5.1875 L -1 -5.1875 C -0.601562 -4.9375 -0.304688 -4.628906 -0.109375 -4.265625 C 0.078125 -3.898438 0.171875 -3.453125 0.171875 -2.921875 C 0.171875 -2.242188 -0.015625 -1.707031 -0.390625 -1.3125 C -0.773438 -0.914062 -1.28125 -0.71875 -1.90625 -0.71875 C -2.644531 -0.71875 -3.203125 -0.960938 -3.578125 -1.453125 C -3.953125 -1.953125 -4.140625 -2.691406 -4.140625 -3.671875 L -4.140625 -5.1875 L -4.25 -5.1875 C -4.75 -5.1875 -5.132812 -5.019531 -5.40625 -4.6875 C -5.675781 -4.363281 -5.8125 -3.910156 -5.8125 -3.328125 C -5.8125 -2.953125 -5.765625 -2.582031 -5.671875 -2.21875 C -5.578125 -1.863281 -5.441406 -1.523438 -5.265625 -1.203125 L -6.265625 -1.203125 C -6.421875 -1.597656 -6.535156 -1.976562 -6.609375 -2.34375 C -6.679688 -2.71875 -6.71875 -3.082031 -6.71875 -3.4375 C -6.71875 -4.382812 -6.472656 -5.09375 -5.984375 -5.5625 C -5.492188 -6.03125 -4.75 -6.265625 -3.75 -6.265625 Z M -3.75 -6.265625 "/>
</symbol>
<symbol overflow="visible" id="TkZukiT48-0">
<path style="stroke:none;" d="M 2.125 -0.59375 L -8.46875 -0.59375 L -8.46875 -6.59375 L 2.125 -6.59375 Z M 1.453125 -1.265625 L 1.453125 -5.9375 L -7.78125 -5.9375 L -7.78125 -1.265625 Z M 1.453125 -1.265625 "/>
</symbol>
<symbol overflow="visible" id="TkZukiT48-1">
<path style="stroke:none;" d="M -3.546875 -6.75 L -3.03125 -6.75 L -3.03125 -1.78125 C -2.28125 -1.832031 -1.710938 -2.054688 -1.328125 -2.453125 C -0.941406 -2.859375 -0.75 -3.414062 -0.75 -4.125 C -0.75 -4.539062 -0.796875 -4.941406 -0.890625 -5.328125 C -0.992188 -5.722656 -1.148438 -6.113281 -1.359375 -6.5 L -0.328125 -6.5 C -0.171875 -6.101562 -0.0507812 -5.703125 0.03125 -5.296875 C 0.125 -4.890625 0.171875 -4.476562 0.171875 -4.0625 C 0.171875 -3.019531 -0.128906 -2.191406 -0.734375 -1.578125 C -1.347656 -0.960938 -2.175781 -0.65625 -3.21875 -0.65625 C -4.289062 -0.65625 -5.140625 -0.945312 -5.765625 -1.53125 C -6.398438 -2.113281 -6.71875 -2.894531 -6.71875 -3.875 C -6.71875 -4.757812 -6.429688 -5.457031 -5.859375 -5.96875 C -5.296875 -6.488281 -4.523438 -6.75 -3.546875 -6.75 Z M -3.875 -5.671875 C -4.457031 -5.660156 -4.925781 -5.492188 -5.28125 -5.171875 C -5.632812 -4.847656 -5.8125 -4.421875 -5.8125 -3.890625 C -5.8125 -3.285156 -5.640625 -2.800781 -5.296875 -2.4375 C -4.953125 -2.082031 -4.472656 -1.878906 -3.859375 -1.828125 Z M -3.875 -5.671875 "/>
</symbol>
<symbol overflow="visible" id="TkZukiT48-2">
<path style="stroke:none;" d="M -6.5625 -0.359375 L -6.5625 -1.5 L -1.0625 -3.546875 L -6.5625 -5.609375 L -6.5625 -6.75 L 0 -4.28125 L 0 -2.8125 Z M -6.5625 -0.359375 "/>
</symbol>
<symbol overflow="visible" id="TkZukiT48-3">
<path style="stroke:none;" d="M -5.5625 -5.453125 L -9.125 -5.453125 L -9.125 -6.53125 L 0 -6.53125 L 0 -5.453125 L -0.984375 -5.453125 C -0.597656 -5.222656 -0.304688 -4.9375 -0.109375 -4.59375 C 0.078125 -4.25 0.171875 -3.832031 0.171875 -3.34375 C 0.171875 -2.550781 -0.144531 -1.90625 -0.78125 -1.40625 C -1.414062 -0.90625 -2.25 -0.65625 -3.28125 -0.65625 C -4.3125 -0.65625 -5.140625 -0.90625 -5.765625 -1.40625 C -6.398438 -1.90625 -6.71875 -2.550781 -6.71875 -3.34375 C -6.71875 -3.832031 -6.625 -4.25 -6.4375 -4.59375 C -6.25 -4.9375 -5.957031 -5.222656 -5.5625 -5.453125 Z M -3.28125 -1.78125 C -2.488281 -1.78125 -1.863281 -1.941406 -1.40625 -2.265625 C -0.957031 -2.585938 -0.734375 -3.035156 -0.734375 -3.609375 C -0.734375 -4.179688 -0.957031 -4.628906 -1.40625 -4.953125 C -1.863281 -5.285156 -2.488281 -5.453125 -3.28125 -5.453125 C -4.070312 -5.453125 -4.691406 -5.285156 -5.140625 -4.953125 C -5.585938 -4.628906 -5.8125 -4.179688 -5.8125 -3.609375 C -5.8125 -3.035156 -5.585938 -2.585938 -5.140625 -2.265625 C -4.691406 -1.941406 -4.070312 -1.78125 -3.28125 -1.78125 Z M -3.28125 -1.78125 "/>
</symbol>
<symbol overflow="visible" id="TkZukiT48-4">
<path style="stroke:none;" d=""/>
</symbol>
<symbol overflow="visible" id="TkZukiT48-5">
<path style="stroke:none;" d="M -3.96875 -6.59375 L 0 -6.59375 L 0 -5.515625 L -3.921875 -5.515625 C -4.546875 -5.515625 -5.007812 -5.390625 -5.3125 -5.140625 C -5.625 -4.898438 -5.78125 -4.539062 -5.78125 -4.0625 C -5.78125 -3.476562 -5.59375 -3.015625 -5.21875 -2.671875 C -4.851562 -2.335938 -4.347656 -2.171875 -3.703125 -2.171875 L 0 -2.171875 L 0 -1.09375 L -6.5625 -1.09375 L -6.5625 -2.171875 L -5.546875 -2.171875 C -5.941406 -2.429688 -6.234375 -2.734375 -6.421875 -3.078125 C -6.617188 -3.429688 -6.71875 -3.835938 -6.71875 -4.296875 C -6.71875 -5.046875 -6.484375 -5.613281 -6.015625 -6 C -5.554688 -6.394531 -4.875 -6.59375 -3.96875 -6.59375 Z M -3.96875 -6.59375 "/>
</symbol>
<symbol overflow="visible" id="TkZukiT48-6">
<path style="stroke:none;" d="M -2.59375 -1.015625 L -6.5625 -1.015625 L -6.5625 -2.09375 L -2.625 -2.09375 C -2.007812 -2.09375 -1.546875 -2.210938 -1.234375 -2.453125 C -0.921875 -2.703125 -0.765625 -3.066406 -0.765625 -3.546875 C -0.765625 -4.128906 -0.945312 -4.585938 -1.3125 -4.921875 C -1.6875 -5.265625 -2.195312 -5.4375 -2.84375 -5.4375 L -6.5625 -5.4375 L -6.5625 -6.515625 L 0 -6.515625 L 0 -5.4375 L -1.015625 -5.4375 C -0.609375 -5.175781 -0.304688 -4.875 -0.109375 -4.53125 C 0.078125 -4.1875 0.171875 -3.785156 0.171875 -3.328125 C 0.171875 -2.566406 -0.0625 -1.988281 -0.53125 -1.59375 C -1 -1.207031 -1.6875 -1.015625 -2.59375 -1.015625 Z M -6.71875 -3.734375 Z M -6.71875 -3.734375 "/>
</symbol>
<symbol overflow="visible" id="TkZukiT49-0">
<path style="stroke:none;" d="M 2.125 -0.59375 L -8.46875 -0.59375 L -8.46875 -6.59375 L 2.125 -6.59375 Z M 1.453125 -1.265625 L 1.453125 -5.9375 L -7.78125 -5.9375 L -7.78125 -1.265625 Z M 1.453125 -1.265625 "/>
</symbol>
<symbol overflow="visible" id="TkZukiT49-1">
<path style="stroke:none;" d="M -5.5625 -4.9375 C -5.625 -4.8125 -5.671875 -4.675781 -5.703125 -4.53125 C -5.742188 -4.394531 -5.765625 -4.238281 -5.765625 -4.0625 C -5.765625 -3.457031 -5.566406 -2.988281 -5.171875 -2.65625 C -4.773438 -2.332031 -4.203125 -2.171875 -3.453125 -2.171875 L 0 -2.171875 L 0 -1.09375 L -6.5625 -1.09375 L -6.5625 -2.171875 L -5.546875 -2.171875 C -5.941406 -2.398438 -6.234375 -2.695312 -6.421875 -3.0625 C -6.617188 -3.425781 -6.71875 -3.867188 -6.71875 -4.390625 C -6.71875 -4.460938 -6.710938 -4.539062 -6.703125 -4.625 C -6.691406 -4.71875 -6.675781 -4.816406 -6.65625 -4.921875 Z M -5.5625 -4.9375 "/>
</symbol>
<symbol overflow="visible" id="TkZukiT49-2">
<path style="stroke:none;" d="M -3.28125 -5.84375 C -4.070312 -5.84375 -4.691406 -5.675781 -5.140625 -5.34375 C -5.585938 -5.019531 -5.8125 -4.578125 -5.8125 -4.015625 C -5.8125 -3.441406 -5.585938 -2.988281 -5.140625 -2.65625 C -4.691406 -2.332031 -4.070312 -2.171875 -3.28125 -2.171875 C -2.488281 -2.171875 -1.863281 -2.332031 -1.40625 -2.65625 C -0.957031 -2.988281 -0.734375 -3.441406 -0.734375 -4.015625 C -0.734375 -4.578125 -0.957031 -5.019531 -1.40625 -5.34375 C -1.863281 -5.675781 -2.488281 -5.84375 -3.28125 -5.84375 Z M -5.5625 -2.171875 C -5.957031 -2.398438 -6.25 -2.6875 -6.4375 -3.03125 C -6.625 -3.375 -6.71875 -3.785156 -6.71875 -4.265625 C -6.71875 -5.066406 -6.398438 -5.71875 -5.765625 -6.21875 C -5.140625 -6.71875 -4.3125 -6.96875 -3.28125 -6.96875 C -2.25 -6.96875 -1.414062 -6.71875 -0.78125 -6.21875 C -0.144531 -5.71875 0.171875 -5.066406 0.171875 -4.265625 C 0.171875 -3.785156 0.078125 -3.375 -0.109375 -3.03125 C -0.304688 -2.6875 -0.597656 -2.398438 -0.984375 -2.171875 L 0 -2.171875 L 0 -1.09375 L -9.125 -1.09375 L -9.125 -2.171875 Z M -5.5625 -2.171875 "/>
</symbol>
<symbol overflow="visible" id="TkZukiT410-0">
<path style="stroke:none;" d="M 2.125 -0.59375 L -8.46875 -0.59375 L -8.46875 -6.59375 L 2.125 -6.59375 Z M 1.453125 -1.265625 L 1.453125 -5.9375 L -7.78125 -5.9375 L -7.78125 -1.265625 Z M 1.453125 -1.265625 "/>
</symbol>
<symbol overflow="visible" id="TkZukiT410-1">
<path style="stroke:none;" d="M -5.5625 -4.9375 C -5.625 -4.8125 -5.671875 -4.675781 -5.703125 -4.53125 C -5.742188 -4.394531 -5.765625 -4.238281 -5.765625 -4.0625 C -5.765625 -3.457031 -5.566406 -2.988281 -5.171875 -2.65625 C -4.773438 -2.332031 -4.203125 -2.171875 -3.453125 -2.171875 L 0 -2.171875 L 0 -1.09375 L -6.5625 -1.09375 L -6.5625 -2.171875 L -5.546875 -2.171875 C -5.941406 -2.398438 -6.234375 -2.695312 -6.421875 -3.0625 C -6.617188 -3.425781 -6.71875 -3.867188 -6.71875 -4.390625 C -6.71875 -4.460938 -6.710938 -4.539062 -6.703125 -4.625 C -6.691406 -4.71875 -6.675781 -4.816406 -6.65625 -4.921875 Z M -5.5625 -4.9375 "/>
</symbol>
<symbol overflow="visible" id="TkZukiT410-2">
<path style="stroke:none;" d="M -6.375 -5.3125 L -5.34375 -5.3125 C -5.5 -5.007812 -5.613281 -4.691406 -5.6875 -4.359375 C -5.769531 -4.035156 -5.8125 -3.695312 -5.8125 -3.34375 C -5.8125 -2.8125 -5.726562 -2.410156 -5.5625 -2.140625 C -5.40625 -1.867188 -5.160156 -1.734375 -4.828125 -1.734375 C -4.578125 -1.734375 -4.378906 -1.828125 -4.234375 -2.015625 C -4.097656 -2.210938 -3.96875 -2.601562 -3.84375 -3.1875 L -3.75 -3.546875 C -3.59375 -4.316406 -3.363281 -4.863281 -3.0625 -5.1875 C -2.757812 -5.507812 -2.34375 -5.671875 -1.8125 -5.671875 C -1.195312 -5.671875 -0.710938 -5.425781 -0.359375 -4.9375 C -0.00390625 -4.457031 0.171875 -3.796875 0.171875 -2.953125 C 0.171875 -2.597656 0.132812 -2.226562 0.0625 -1.84375 C 0 -1.46875 -0.0976562 -1.070312 -0.234375 -0.65625 L -1.359375 -0.65625 C -1.148438 -1.050781 -0.992188 -1.441406 -0.890625 -1.828125 C -0.785156 -2.210938 -0.734375 -2.597656 -0.734375 -2.984375 C -0.734375 -3.484375 -0.816406 -3.867188 -0.984375 -4.140625 C -1.160156 -4.421875 -1.410156 -4.5625 -1.734375 -4.5625 C -2.023438 -4.5625 -2.25 -4.460938 -2.40625 -4.265625 C -2.5625 -4.066406 -2.710938 -3.632812 -2.859375 -2.96875 L -2.9375 -2.59375 C -3.082031 -1.925781 -3.300781 -1.441406 -3.59375 -1.140625 C -3.882812 -0.847656 -4.28125 -0.703125 -4.78125 -0.703125 C -5.40625 -0.703125 -5.882812 -0.921875 -6.21875 -1.359375 C -6.550781 -1.796875 -6.71875 -2.414062 -6.71875 -3.21875 C -6.71875 -3.613281 -6.6875 -3.988281 -6.625 -4.34375 C -6.570312 -4.695312 -6.488281 -5.019531 -6.375 -5.3125 Z M -6.375 -5.3125 "/>
</symbol>
<symbol overflow="visible" id="TkZukiT411-0">
<path style="stroke:none;" d="M 2.125 -0.59375 L -8.46875 -0.59375 L -8.46875 -6.59375 L 2.125 -6.59375 Z M 1.453125 -1.265625 L 1.453125 -5.9375 L -7.78125 -5.9375 L -7.78125 -1.265625 Z M 1.453125 -1.265625 "/>
</symbol>
<symbol overflow="visible" id="TkZukiT411-1">
<path style="stroke:none;" d=""/>
</symbol>
<symbol overflow="visible" id="TkZukiT411-2">
<path style="stroke:none;" d="M -5.8125 -3.671875 C -5.8125 -3.097656 -5.582031 -2.640625 -5.125 -2.296875 C -4.675781 -1.960938 -4.0625 -1.796875 -3.28125 -1.796875 C -2.488281 -1.796875 -1.867188 -1.960938 -1.421875 -2.296875 C -0.972656 -2.628906 -0.75 -3.085938 -0.75 -3.671875 C -0.75 -4.242188 -0.972656 -4.695312 -1.421875 -5.03125 C -1.878906 -5.375 -2.5 -5.546875 -3.28125 -5.546875 C -4.050781 -5.546875 -4.664062 -5.375 -5.125 -5.03125 C -5.582031 -4.695312 -5.8125 -4.242188 -5.8125 -3.671875 Z M -6.71875 -3.671875 C -6.71875 -4.609375 -6.410156 -5.34375 -5.796875 -5.875 C -5.191406 -6.414062 -4.351562 -6.6875 -3.28125 -6.6875 C -2.207031 -6.6875 -1.363281 -6.414062 -0.75 -5.875 C -0.132812 -5.34375 0.171875 -4.609375 0.171875 -3.671875 C 0.171875 -2.734375 -0.132812 -1.992188 -0.75 -1.453125 C -1.363281 -0.921875 -2.207031 -0.65625 -3.28125 -0.65625 C -4.351562 -0.65625 -5.191406 -0.921875 -5.796875 -1.453125 C -6.410156 -1.992188 -6.71875 -2.734375 -6.71875 -3.671875 Z M -6.71875 -3.671875 "/>
</symbol>
<symbol overflow="visible" id="TkZukiT411-3">
<path style="stroke:none;" d="M -5.5625 -5.453125 L -9.125 -5.453125 L -9.125 -6.53125 L 0 -6.53125 L 0 -5.453125 L -0.984375 -5.453125 C -0.597656 -5.222656 -0.304688 -4.9375 -0.109375 -4.59375 C 0.078125 -4.25 0.171875 -3.832031 0.171875 -3.34375 C 0.171875 -2.550781 -0.144531 -1.90625 -0.78125 -1.40625 C -1.414062 -0.90625 -2.25 -0.65625 -3.28125 -0.65625 C -4.3125 -0.65625 -5.140625 -0.90625 -5.765625 -1.40625 C -6.398438 -1.90625 -6.71875 -2.550781 -6.71875 -3.34375 C -6.71875 -3.832031 -6.625 -4.25 -6.4375 -4.59375 C -6.25 -4.9375 -5.957031 -5.222656 -5.5625 -5.453125 Z M -3.28125 -1.78125 C -2.488281 -1.78125 -1.863281 -1.941406 -1.40625 -2.265625 C -0.957031 -2.585938 -0.734375 -3.035156 -0.734375 -3.609375 C -0.734375 -4.179688 -0.957031 -4.628906 -1.40625 -4.953125 C -1.863281 -5.285156 -2.488281 -5.453125 -3.28125 -5.453125 C -4.070312 -5.453125 -4.691406 -5.285156 -5.140625 -4.953125 C -5.585938 -4.628906 -5.8125 -4.179688 -5.8125 -3.609375 C -5.8125 -3.035156 -5.585938 -2.585938 -5.140625 -2.265625 C -4.691406 -1.941406 -4.070312 -1.78125 -3.28125 -1.78125 Z M -3.28125 -1.78125 "/>
</symbol>
<symbol overflow="visible" id="TkZukiT411-4">
<path style="stroke:none;" d="M -6.5625 -0.5 L -6.5625 -1.578125 L -1.4375 -2.9375 L -6.5625 -4.265625 L -6.5625 -5.546875 L -1.4375 -6.890625 L -6.5625 -8.234375 L -6.5625 -9.3125 L 0 -7.59375 L 0 -6.328125 L -5.375 -4.90625 L 0 -3.5 L 0 -2.21875 Z M -6.5625 -0.5 "/>
</symbol>
<symbol overflow="visible" id="TkZukiT412-0">
<path style="stroke:none;" d="M 0.59375 2.125 L 0.59375 -8.46875 L 6.59375 -8.46875 L 6.59375 2.125 Z M 1.265625 1.453125 L 5.9375 1.453125 L 5.9375 -7.78125 L 1.265625 -7.78125 Z M 1.265625 1.453125 "/>
</symbol>
<symbol overflow="visible" id="TkZukiT412-1">
<path style="stroke:none;" d="M 3.8125 -7.96875 C 3.207031 -7.96875 2.75 -7.664062 2.4375 -7.0625 C 2.132812 -6.46875 1.984375 -5.566406 1.984375 -4.359375 C 1.984375 -3.160156 2.132812 -2.257812 2.4375 -1.65625 C 2.75 -1.0625 3.207031 -0.765625 3.8125 -0.765625 C 4.425781 -0.765625 4.882812 -1.0625 5.1875 -1.65625 C 5.5 -2.257812 5.65625 -3.160156 5.65625 -4.359375 C 5.65625 -5.566406 5.5 -6.46875 5.1875 -7.0625 C 4.882812 -7.664062 4.425781 -7.96875 3.8125 -7.96875 Z M 3.8125 -8.90625 C 4.789062 -8.90625 5.539062 -8.515625 6.0625 -7.734375 C 6.582031 -6.960938 6.84375 -5.835938 6.84375 -4.359375 C 6.84375 -2.890625 6.582031 -1.765625 6.0625 -0.984375 C 5.539062 -0.210938 4.789062 0.171875 3.8125 0.171875 C 2.832031 0.171875 2.082031 -0.210938 1.5625 -0.984375 C 1.050781 -1.765625 0.796875 -2.890625 0.796875 -4.359375 C 0.796875 -5.835938 1.050781 -6.960938 1.5625 -7.734375 C 2.082031 -8.515625 2.832031 -8.90625 3.8125 -8.90625 Z M 3.8125 -8.90625 "/>
</symbol>
<symbol overflow="visible" id="TkZukiT413-0">
<path style="stroke:none;" d="M 0.59375 2.125 L 0.59375 -8.46875 L 6.59375 -8.46875 L 6.59375 2.125 Z M 1.265625 1.453125 L 5.9375 1.453125 L 5.9375 -7.78125 L 1.265625 -7.78125 Z M 1.265625 1.453125 "/>
</symbol>
<symbol overflow="visible" id="TkZukiT413-1">
<path style="stroke:none;" d="M 2.296875 -1 L 6.4375 -1 L 6.4375 0 L 0.875 0 L 0.875 -1 C 1.320312 -1.457031 1.929688 -2.078125 2.703125 -2.859375 C 3.484375 -3.648438 3.972656 -4.160156 4.171875 -4.390625 C 4.554688 -4.804688 4.820312 -5.160156 4.96875 -5.453125 C 5.125 -5.753906 5.203125 -6.046875 5.203125 -6.328125 C 5.203125 -6.796875 5.035156 -7.175781 4.703125 -7.46875 C 4.378906 -7.757812 3.957031 -7.90625 3.4375 -7.90625 C 3.0625 -7.90625 2.664062 -7.84375 2.25 -7.71875 C 1.84375 -7.59375 1.40625 -7.394531 0.9375 -7.125 L 0.9375 -8.328125 C 1.414062 -8.515625 1.859375 -8.65625 2.265625 -8.75 C 2.679688 -8.851562 3.0625 -8.90625 3.40625 -8.90625 C 4.3125 -8.90625 5.035156 -8.675781 5.578125 -8.21875 C 6.117188 -7.769531 6.390625 -7.164062 6.390625 -6.40625 C 6.390625 -6.050781 6.320312 -5.710938 6.1875 -5.390625 C 6.050781 -5.066406 5.804688 -4.6875 5.453125 -4.25 C 5.347656 -4.132812 5.035156 -3.804688 4.515625 -3.265625 C 3.992188 -2.722656 3.253906 -1.96875 2.296875 -1 Z M 2.296875 -1 "/>
</symbol>
<symbol overflow="visible" id="TkZukiT413-2">
<path style="stroke:none;" d="M 4.53125 -7.71875 L 1.546875 -3.046875 L 4.53125 -3.046875 Z M 4.21875 -8.75 L 5.71875 -8.75 L 5.71875 -3.046875 L 6.96875 -3.046875 L 6.96875 -2.0625 L 5.71875 -2.0625 L 5.71875 0 L 4.53125 0 L 4.53125 -2.0625 L 0.59375 -2.0625 L 0.59375 -3.203125 Z M 4.21875 -8.75 "/>
</symbol>
<symbol overflow="visible" id="TkZukiT414-0">
<path style="stroke:none;" d="M 0.59375 2.125 L 0.59375 -8.46875 L 6.59375 -8.46875 L 6.59375 2.125 Z M 1.265625 1.453125 L 5.9375 1.453125 L 5.9375 -7.78125 L 1.265625 -7.78125 Z M 1.265625 1.453125 "/>
</symbol>
<symbol overflow="visible" id="TkZukiT414-1">
<path style="stroke:none;" d="M 3.8125 -7.96875 C 3.207031 -7.96875 2.75 -7.664062 2.4375 -7.0625 C 2.132812 -6.46875 1.984375 -5.566406 1.984375 -4.359375 C 1.984375 -3.160156 2.132812 -2.257812 2.4375 -1.65625 C 2.75 -1.0625 3.207031 -0.765625 3.8125 -0.765625 C 4.425781 -0.765625 4.882812 -1.0625 5.1875 -1.65625 C 5.5 -2.257812 5.65625 -3.160156 5.65625 -4.359375 C 5.65625 -5.566406 5.5 -6.46875 5.1875 -7.0625 C 4.882812 -7.664062 4.425781 -7.96875 3.8125 -7.96875 Z M 3.8125 -8.90625 C 4.789062 -8.90625 5.539062 -8.515625 6.0625 -7.734375 C 6.582031 -6.960938 6.84375 -5.835938 6.84375 -4.359375 C 6.84375 -2.890625 6.582031 -1.765625 6.0625 -0.984375 C 5.539062 -0.210938 4.789062 0.171875 3.8125 0.171875 C 2.832031 0.171875 2.082031 -0.210938 1.5625 -0.984375 C 1.050781 -1.765625 0.796875 -2.890625 0.796875 -4.359375 C 0.796875 -5.835938 1.050781 -6.960938 1.5625 -7.734375 C 2.082031 -8.515625 2.832031 -8.90625 3.8125 -8.90625 Z M 3.8125 -8.90625 "/>
</symbol>
<symbol overflow="visible" id="TkZukiT415-0">
<path style="stroke:none;" d="M 0.59375 2.125 L 0.59375 -8.46875 L 6.59375 -8.46875 L 6.59375 2.125 Z M 1.265625 1.453125 L 5.9375 1.453125 L 5.9375 -7.78125 L 1.265625 -7.78125 Z M 1.265625 1.453125 "/>
</symbol>
<symbol overflow="visible" id="TkZukiT415-1">
<path style="stroke:none;" d="M 3.96875 -4.84375 C 3.4375 -4.84375 3.015625 -4.660156 2.703125 -4.296875 C 2.390625 -3.929688 2.234375 -3.4375 2.234375 -2.8125 C 2.234375 -2.175781 2.390625 -1.675781 2.703125 -1.3125 C 3.015625 -0.945312 3.4375 -0.765625 3.96875 -0.765625 C 4.5 -0.765625 4.914062 -0.945312 5.21875 -1.3125 C 5.53125 -1.675781 5.6875 -2.175781 5.6875 -2.8125 C 5.6875 -3.4375 5.53125 -3.929688 5.21875 -4.296875 C 4.914062 -4.660156 4.5 -4.84375 3.96875 -4.84375 Z M 6.3125 -8.5625 L 6.3125 -7.484375 C 6.007812 -7.617188 5.707031 -7.722656 5.40625 -7.796875 C 5.101562 -7.867188 4.804688 -7.90625 4.515625 -7.90625 C 3.734375 -7.90625 3.132812 -7.640625 2.71875 -7.109375 C 2.3125 -6.585938 2.078125 -5.796875 2.015625 -4.734375 C 2.242188 -5.066406 2.53125 -5.320312 2.875 -5.5 C 3.226562 -5.6875 3.613281 -5.78125 4.03125 -5.78125 C 4.90625 -5.78125 5.597656 -5.515625 6.109375 -4.984375 C 6.617188 -4.453125 6.875 -3.726562 6.875 -2.8125 C 6.875 -1.90625 6.609375 -1.179688 6.078125 -0.640625 C 5.546875 -0.0976562 4.84375 0.171875 3.96875 0.171875 C 2.945312 0.171875 2.171875 -0.210938 1.640625 -0.984375 C 1.109375 -1.765625 0.84375 -2.890625 0.84375 -4.359375 C 0.84375 -5.742188 1.171875 -6.847656 1.828125 -7.671875 C 2.484375 -8.492188 3.363281 -8.90625 4.46875 -8.90625 C 4.757812 -8.90625 5.054688 -8.875 5.359375 -8.8125 C 5.660156 -8.757812 5.976562 -8.675781 6.3125 -8.5625 Z M 6.3125 -8.5625 "/>
</symbol>
<symbol overflow="visible" id="TkZukiT415-2">
<path style="stroke:none;" d="M 3.8125 -4.15625 C 3.25 -4.15625 2.804688 -4.003906 2.484375 -3.703125 C 2.160156 -3.398438 2 -2.988281 2 -2.46875 C 2 -1.9375 2.160156 -1.519531 2.484375 -1.21875 C 2.804688 -0.914062 3.25 -0.765625 3.8125 -0.765625 C 4.375 -0.765625 4.816406 -0.914062 5.140625 -1.21875 C 5.460938 -1.519531 5.625 -1.9375 5.625 -2.46875 C 5.625 -2.988281 5.460938 -3.398438 5.140625 -3.703125 C 4.828125 -4.003906 4.382812 -4.15625 3.8125 -4.15625 Z M 2.625 -4.65625 C 2.125 -4.78125 1.726562 -5.015625 1.4375 -5.359375 C 1.15625 -5.710938 1.015625 -6.140625 1.015625 -6.640625 C 1.015625 -7.335938 1.265625 -7.890625 1.765625 -8.296875 C 2.265625 -8.703125 2.945312 -8.90625 3.8125 -8.90625 C 4.6875 -8.90625 5.367188 -8.703125 5.859375 -8.296875 C 6.359375 -7.890625 6.609375 -7.335938 6.609375 -6.640625 C 6.609375 -6.140625 6.46875 -5.710938 6.1875 -5.359375 C 5.90625 -5.015625 5.507812 -4.78125 5 -4.65625 C 5.570312 -4.519531 6.015625 -4.257812 6.328125 -3.875 C 6.648438 -3.488281 6.8125 -3.019531 6.8125 -2.46875 C 6.8125 -1.613281 6.550781 -0.957031 6.03125 -0.5 C 5.519531 -0.0507812 4.78125 0.171875 3.8125 0.171875 C 2.851562 0.171875 2.113281 -0.0507812 1.59375 -0.5 C 1.070312 -0.957031 0.8125 -1.613281 0.8125 -2.46875 C 0.8125 -3.019531 0.972656 -3.488281 1.296875 -3.875 C 1.617188 -4.257812 2.0625 -4.519531 2.625 -4.65625 Z M 2.203125 -6.53125 C 2.203125 -6.070312 2.34375 -5.71875 2.625 -5.46875 C 2.90625 -5.21875 3.300781 -5.09375 3.8125 -5.09375 C 4.320312 -5.09375 4.71875 -5.21875 5 -5.46875 C 5.289062 -5.71875 5.4375 -6.070312 5.4375 -6.53125 C 5.4375 -6.976562 5.289062 -7.328125 5 -7.578125 C 4.71875 -7.835938 4.320312 -7.96875 3.8125 -7.96875 C 3.300781 -7.96875 2.90625 -7.835938 2.625 -7.578125 C 2.34375 -7.328125 2.203125 -6.976562 2.203125 -6.53125 Z M 2.203125 -6.53125 "/>
</symbol>
<symbol overflow="visible" id="TkZukiT416-0">
<path style="stroke:none;" d="M 0.59375 2.125 L 0.59375 -8.46875 L 6.59375 -8.46875 L 6.59375 2.125 Z M 1.265625 1.453125 L 5.9375 1.453125 L 5.9375 -7.78125 L 1.265625 -7.78125 Z M 1.265625 1.453125 "/>
</symbol>
<symbol overflow="visible" id="TkZukiT416-1">
<path style="stroke:none;" d="M 3.8125 -7.96875 C 3.207031 -7.96875 2.75 -7.664062 2.4375 -7.0625 C 2.132812 -6.46875 1.984375 -5.566406 1.984375 -4.359375 C 1.984375 -3.160156 2.132812 -2.257812 2.4375 -1.65625 C 2.75 -1.0625 3.207031 -0.765625 3.8125 -0.765625 C 4.425781 -0.765625 4.882812 -1.0625 5.1875 -1.65625 C 5.5 -2.257812 5.65625 -3.160156 5.65625 -4.359375 C 5.65625 -5.566406 5.5 -6.46875 5.1875 -7.0625 C 4.882812 -7.664062 4.425781 -7.96875 3.8125 -7.96875 Z M 3.8125 -8.90625 C 4.789062 -8.90625 5.539062 -8.515625 6.0625 -7.734375 C 6.582031 -6.960938 6.84375 -5.835938 6.84375 -4.359375 C 6.84375 -2.890625 6.582031 -1.765625 6.0625 -0.984375 C 5.539062 -0.210938 4.789062 0.171875 3.8125 0.171875 C 2.832031 0.171875 2.082031 -0.210938 1.5625 -0.984375 C 1.050781 -1.765625 0.796875 -2.890625 0.796875 -4.359375 C 0.796875 -5.835938 1.050781 -6.960938 1.5625 -7.734375 C 2.082031 -8.515625 2.832031 -8.90625 3.8125 -8.90625 Z M 3.8125 -8.90625 "/>
</symbol>
<symbol overflow="visible" id="TkZukiT417-0">
<path style="stroke:none;" d="M 0.59375 2.125 L 0.59375 -8.46875 L 6.59375 -8.46875 L 6.59375 2.125 Z M 1.265625 1.453125 L 5.9375 1.453125 L 5.9375 -7.78125 L 1.265625 -7.78125 Z M 1.265625 1.453125 "/>
</symbol>
<symbol overflow="visible" id="TkZukiT417-1">
<path style="stroke:none;" d="M 1.171875 -8.75 L 6.203125 -8.75 L 6.203125 -7.75 L 2.359375 -7.75 L 2.359375 -5.171875 L 5.828125 -5.171875 L 5.828125 -4.171875 L 2.359375 -4.171875 L 2.359375 0 L 1.171875 0 Z M 1.171875 -8.75 "/>
</symbol>
<symbol overflow="visible" id="TkZukiT417-2">
<path style="stroke:none;" d="M 4.9375 -5.5625 C 4.8125 -5.625 4.675781 -5.671875 4.53125 -5.703125 C 4.394531 -5.742188 4.238281 -5.765625 4.0625 -5.765625 C 3.457031 -5.765625 2.988281 -5.566406 2.65625 -5.171875 C 2.332031 -4.773438 2.171875 -4.203125 2.171875 -3.453125 L 2.171875 0 L 1.09375 0 L 1.09375 -6.5625 L 2.171875 -6.5625 L 2.171875 -5.546875 C 2.398438 -5.941406 2.695312 -6.234375 3.0625 -6.421875 C 3.425781 -6.617188 3.867188 -6.71875 4.390625 -6.71875 C 4.460938 -6.71875 4.539062 -6.710938 4.625 -6.703125 C 4.71875 -6.691406 4.816406 -6.675781 4.921875 -6.65625 Z M 4.9375 -5.5625 "/>
</symbol>
<symbol overflow="visible" id="TkZukiT417-3">
<path style="stroke:none;" d="M 6.75 -3.546875 L 6.75 -3.03125 L 1.78125 -3.03125 C 1.832031 -2.28125 2.054688 -1.710938 2.453125 -1.328125 C 2.859375 -0.941406 3.414062 -0.75 4.125 -0.75 C 4.539062 -0.75 4.941406 -0.796875 5.328125 -0.890625 C 5.722656 -0.992188 6.113281 -1.148438 6.5 -1.359375 L 6.5 -0.328125 C 6.101562 -0.171875 5.703125 -0.0507812 5.296875 0.03125 C 4.890625 0.125 4.476562 0.171875 4.0625 0.171875 C 3.019531 0.171875 2.191406 -0.128906 1.578125 -0.734375 C 0.960938 -1.347656 0.65625 -2.175781 0.65625 -3.21875 C 0.65625 -4.289062 0.945312 -5.140625 1.53125 -5.765625 C 2.113281 -6.398438 2.894531 -6.71875 3.875 -6.71875 C 4.757812 -6.71875 5.457031 -6.429688 5.96875 -5.859375 C 6.488281 -5.296875 6.75 -4.523438 6.75 -3.546875 Z M 5.671875 -3.875 C 5.660156 -4.457031 5.492188 -4.925781 5.171875 -5.28125 C 4.847656 -5.632812 4.421875 -5.8125 3.890625 -5.8125 C 3.285156 -5.8125 2.800781 -5.640625 2.4375 -5.296875 C 2.082031 -4.953125 1.878906 -4.472656 1.828125 -3.859375 Z M 5.671875 -3.875 "/>
</symbol>
<symbol overflow="visible" id="TkZukiT417-4">
<path style="stroke:none;" d="M 2.203125 -8.421875 L 2.203125 -6.5625 L 4.421875 -6.5625 L 4.421875 -5.71875 L 2.203125 -5.71875 L 2.203125 -2.15625 C 2.203125 -1.625 2.273438 -1.28125 2.421875 -1.125 C 2.566406 -0.976562 2.863281 -0.90625 3.3125 -0.90625 L 4.421875 -0.90625 L 4.421875 0 L 3.3125 0 C 2.476562 0 1.898438 -0.15625 1.578125 -0.46875 C 1.265625 -0.78125 1.109375 -1.34375 1.109375 -2.15625 L 1.109375 -5.71875 L 0.328125 -5.71875 L 0.328125 -6.5625 L 1.109375 -6.5625 L 1.109375 -8.421875 Z M 2.203125 -8.421875 "/>
</symbol>
<symbol overflow="visible" id="TkZukiT417-5">
<path style="stroke:none;" d="M 4.109375 -3.296875 C 3.242188 -3.296875 2.640625 -3.195312 2.296875 -3 C 1.960938 -2.800781 1.796875 -2.460938 1.796875 -1.984375 C 1.796875 -1.597656 1.921875 -1.289062 2.171875 -1.0625 C 2.429688 -0.84375 2.773438 -0.734375 3.203125 -0.734375 C 3.804688 -0.734375 4.285156 -0.941406 4.640625 -1.359375 C 5.003906 -1.785156 5.1875 -2.351562 5.1875 -3.0625 L 5.1875 -3.296875 Z M 6.265625 -3.75 L 6.265625 0 L 5.1875 0 L 5.1875 -1 C 4.9375 -0.601562 4.628906 -0.304688 4.265625 -0.109375 C 3.898438 0.078125 3.453125 0.171875 2.921875 0.171875 C 2.242188 0.171875 1.707031 -0.015625 1.3125 -0.390625 C 0.914062 -0.773438 0.71875 -1.28125 0.71875 -1.90625 C 0.71875 -2.644531 0.960938 -3.203125 1.453125 -3.578125 C 1.953125 -3.953125 2.691406 -4.140625 3.671875 -4.140625 L 5.1875 -4.140625 L 5.1875 -4.25 C 5.1875 -4.75 5.019531 -5.132812 4.6875 -5.40625 C 4.363281 -5.675781 3.910156 -5.8125 3.328125 -5.8125 C 2.953125 -5.8125 2.582031 -5.765625 2.21875 -5.671875 C 1.863281 -5.578125 1.523438 -5.441406 1.203125 -5.265625 L 1.203125 -6.265625 C 1.597656 -6.421875 1.976562 -6.535156 2.34375 -6.609375 C 2.71875 -6.679688 3.082031 -6.71875 3.4375 -6.71875 C 4.382812 -6.71875 5.09375 -6.472656 5.5625 -5.984375 C 6.03125 -5.492188 6.265625 -4.75 6.265625 -3.75 Z M 6.265625 -3.75 "/>
</symbol>
<symbol overflow="visible" id="TkZukiT418-0">
<path style="stroke:none;" d="M 0.59375 2.125 L 0.59375 -8.46875 L 6.59375 -8.46875 L 6.59375 2.125 Z M 1.265625 1.453125 L 5.9375 1.453125 L 5.9375 -7.78125 L 1.265625 -7.78125 Z M 1.265625 1.453125 "/>
</symbol>
<symbol overflow="visible" id="TkZukiT418-1">
<path style="stroke:none;" d="M 6.75 -3.546875 L 6.75 -3.03125 L 1.78125 -3.03125 C 1.832031 -2.28125 2.054688 -1.710938 2.453125 -1.328125 C 2.859375 -0.941406 3.414062 -0.75 4.125 -0.75 C 4.539062 -0.75 4.941406 -0.796875 5.328125 -0.890625 C 5.722656 -0.992188 6.113281 -1.148438 6.5 -1.359375 L 6.5 -0.328125 C 6.101562 -0.171875 5.703125 -0.0507812 5.296875 0.03125 C 4.890625 0.125 4.476562 0.171875 4.0625 0.171875 C 3.019531 0.171875 2.191406 -0.128906 1.578125 -0.734375 C 0.960938 -1.347656 0.65625 -2.175781 0.65625 -3.21875 C 0.65625 -4.289062 0.945312 -5.140625 1.53125 -5.765625 C 2.113281 -6.398438 2.894531 -6.71875 3.875 -6.71875 C 4.757812 -6.71875 5.457031 -6.429688 5.96875 -5.859375 C 6.488281 -5.296875 6.75 -4.523438 6.75 -3.546875 Z M 5.671875 -3.875 C 5.660156 -4.457031 5.492188 -4.925781 5.171875 -5.28125 C 4.847656 -5.632812 4.421875 -5.8125 3.890625 -5.8125 C 3.285156 -5.8125 2.800781 -5.640625 2.4375 -5.296875 C 2.082031 -4.953125 1.878906 -4.472656 1.828125 -3.859375 Z M 5.671875 -3.875 "/>
</symbol>
<symbol overflow="visible" id="TkZukiT418-2">
<path style="stroke:none;" d="M 2.203125 -8.421875 L 2.203125 -6.5625 L 4.421875 -6.5625 L 4.421875 -5.71875 L 2.203125 -5.71875 L 2.203125 -2.15625 C 2.203125 -1.625 2.273438 -1.28125 2.421875 -1.125 C 2.566406 -0.976562 2.863281 -0.90625 3.3125 -0.90625 L 4.421875 -0.90625 L 4.421875 0 L 3.3125 0 C 2.476562 0 1.898438 -0.15625 1.578125 -0.46875 C 1.265625 -0.78125 1.109375 -1.34375 1.109375 -2.15625 L 1.109375 -5.71875 L 0.328125 -5.71875 L 0.328125 -6.5625 L 1.109375 -6.5625 L 1.109375 -8.421875 Z M 2.203125 -8.421875 "/>
</symbol>
<symbol overflow="visible" id="TkZukiT418-3">
<path style="stroke:none;" d=""/>
</symbol>
<symbol overflow="visible" id="TkZukiT418-4">
<path style="stroke:none;" d="M 1.125 -6.5625 L 2.203125 -6.5625 L 2.203125 0 L 1.125 0 Z M 1.125 -9.125 L 2.203125 -9.125 L 2.203125 -7.75 L 1.125 -7.75 Z M 1.125 -9.125 "/>
</symbol>
<symbol overflow="visible" id="TkZukiT418-5">
<path style="stroke:none;" d="M 6.234375 -5.296875 C 6.503906 -5.785156 6.828125 -6.144531 7.203125 -6.375 C 7.578125 -6.601562 8.019531 -6.71875 8.53125 -6.71875 C 9.21875 -6.71875 9.742188 -6.476562 10.109375 -6 C 10.484375 -5.519531 10.671875 -4.84375 10.671875 -3.96875 L 10.671875 0 L 9.59375 0 L 9.59375 -3.921875 C 9.59375 -4.554688 9.476562 -5.023438 9.25 -5.328125 C 9.03125 -5.628906 8.691406 -5.78125 8.234375 -5.78125 C 7.671875 -5.78125 7.226562 -5.59375 6.90625 -5.21875 C 6.582031 -4.851562 6.421875 -4.347656 6.421875 -3.703125 L 6.421875 0 L 5.34375 0 L 5.34375 -3.921875 C 5.34375 -4.554688 5.226562 -5.023438 5 -5.328125 C 4.78125 -5.628906 4.4375 -5.78125 3.96875 -5.78125 C 3.414062 -5.78125 2.976562 -5.59375 2.65625 -5.21875 C 2.332031 -4.851562 2.171875 -4.347656 2.171875 -3.703125 L 2.171875 0 L 1.09375 0 L 1.09375 -6.5625 L 2.171875 -6.5625 L 2.171875 -5.546875 C 2.421875 -5.941406 2.71875 -6.234375 3.0625 -6.421875 C 3.40625 -6.617188 3.8125 -6.71875 4.28125 -6.71875 C 4.757812 -6.71875 5.164062 -6.597656 5.5 -6.359375 C 5.832031 -6.117188 6.078125 -5.765625 6.234375 -5.296875 Z M 6.234375 -5.296875 "/>
</symbol>
<symbol overflow="visible" id="TkZukiT418-6">
<path style="stroke:none;" d="M 5.3125 -6.375 L 5.3125 -5.34375 C 5.007812 -5.5 4.691406 -5.613281 4.359375 -5.6875 C 4.035156 -5.769531 3.695312 -5.8125 3.34375 -5.8125 C 2.8125 -5.8125 2.410156 -5.726562 2.140625 -5.5625 C 1.867188 -5.40625 1.734375 -5.160156 1.734375 -4.828125 C 1.734375 -4.578125 1.828125 -4.378906 2.015625 -4.234375 C 2.210938 -4.097656 2.601562 -3.96875 3.1875 -3.84375 L 3.546875 -3.75 C 4.316406 -3.59375 4.863281 -3.363281 5.1875 -3.0625 C 5.507812 -2.757812 5.671875 -2.34375 5.671875 -1.8125 C 5.671875 -1.195312 5.425781 -0.710938 4.9375 -0.359375 C 4.457031 -0.00390625 3.796875 0.171875 2.953125 0.171875 C 2.597656 0.171875 2.226562 0.132812 1.84375 0.0625 C 1.46875 0 1.070312 -0.0976562 0.65625 -0.234375 L 0.65625 -1.359375 C 1.050781 -1.148438 1.441406 -0.992188 1.828125 -0.890625 C 2.210938 -0.785156 2.597656 -0.734375 2.984375 -0.734375 C 3.484375 -0.734375 3.867188 -0.816406 4.140625 -0.984375 C 4.421875 -1.160156 4.5625 -1.410156 4.5625 -1.734375 C 4.5625 -2.023438 4.460938 -2.25 4.265625 -2.40625 C 4.066406 -2.5625 3.632812 -2.710938 2.96875 -2.859375 L 2.59375 -2.9375 C 1.925781 -3.082031 1.441406 -3.300781 1.140625 -3.59375 C 0.847656 -3.882812 0.703125 -4.28125 0.703125 -4.78125 C 0.703125 -5.40625 0.921875 -5.882812 1.359375 -6.21875 C 1.796875 -6.550781 2.414062 -6.71875 3.21875 -6.71875 C 3.613281 -6.71875 3.988281 -6.6875 4.34375 -6.625 C 4.695312 -6.570312 5.019531 -6.488281 5.3125 -6.375 Z M 5.3125 -6.375 "/>
</symbol>
<symbol overflow="visible" id="TkZukiT419-0">
<path style="stroke:none;" d="M 0.59375 2.125 L 0.59375 -8.46875 L 6.59375 -8.46875 L 6.59375 2.125 Z M 1.265625 1.453125 L 5.9375 1.453125 L 5.9375 -7.78125 L 1.265625 -7.78125 Z M 1.265625 1.453125 "/>
</symbol>
<symbol overflow="visible" id="TkZukiT419-1">
<path style="stroke:none;" d="M 1.78125 -3.28125 C 1.78125 -2.488281 1.941406 -1.863281 2.265625 -1.40625 C 2.585938 -0.957031 3.035156 -0.734375 3.609375 -0.734375 C 4.179688 -0.734375 4.628906 -0.957031 4.953125 -1.40625 C 5.285156 -1.863281 5.453125 -2.488281 5.453125 -3.28125 C 5.453125 -4.070312 5.285156 -4.691406 4.953125 -5.140625 C 4.628906 -5.585938 4.179688 -5.8125 3.609375 -5.8125 C 3.035156 -5.8125 2.585938 -5.585938 2.265625 -5.140625 C 1.941406 -4.691406 1.78125 -4.070312 1.78125 -3.28125 Z M 5.453125 -0.984375 C 5.222656 -0.597656 4.9375 -0.304688 4.59375 -0.109375 C 4.25 0.078125 3.832031 0.171875 3.34375 0.171875 C 2.550781 0.171875 1.90625 -0.144531 1.40625 -0.78125 C 0.90625 -1.414062 0.65625 -2.25 0.65625 -3.28125 C 0.65625 -4.3125 0.90625 -5.140625 1.40625 -5.765625 C 1.90625 -6.398438 2.550781 -6.71875 3.34375 -6.71875 C 3.832031 -6.71875 4.25 -6.625 4.59375 -6.4375 C 4.9375 -6.25 5.222656 -5.957031 5.453125 -5.5625 L 5.453125 -6.5625 L 6.53125 -6.5625 L 6.53125 2.5 L 5.453125 2.5 Z M 5.453125 -0.984375 "/>
</symbol>
<symbol overflow="visible" id="TkZukiT419-2">
<path style="stroke:none;" d="M 1.015625 -2.59375 L 1.015625 -6.5625 L 2.09375 -6.5625 L 2.09375 -2.625 C 2.09375 -2.007812 2.210938 -1.546875 2.453125 -1.234375 C 2.703125 -0.921875 3.066406 -0.765625 3.546875 -0.765625 C 4.128906 -0.765625 4.585938 -0.945312 4.921875 -1.3125 C 5.265625 -1.6875 5.4375 -2.195312 5.4375 -2.84375 L 5.4375 -6.5625 L 6.515625 -6.5625 L 6.515625 0 L 5.4375 0 L 5.4375 -1.015625 C 5.175781 -0.609375 4.875 -0.304688 4.53125 -0.109375 C 4.1875 0.078125 3.785156 0.171875 3.328125 0.171875 C 2.566406 0.171875 1.988281 -0.0625 1.59375 -0.53125 C 1.207031 -1 1.015625 -1.6875 1.015625 -2.59375 Z M 3.734375 -6.71875 Z M 3.734375 -6.71875 "/>
</symbol>
<symbol overflow="visible" id="TkZukiT419-3">
<path style="stroke:none;" d="M 6.59375 -3.96875 L 6.59375 0 L 5.515625 0 L 5.515625 -3.921875 C 5.515625 -4.546875 5.390625 -5.007812 5.140625 -5.3125 C 4.898438 -5.625 4.539062 -5.78125 4.0625 -5.78125 C 3.476562 -5.78125 3.015625 -5.59375 2.671875 -5.21875 C 2.335938 -4.851562 2.171875 -4.347656 2.171875 -3.703125 L 2.171875 0 L 1.09375 0 L 1.09375 -6.5625 L 2.171875 -6.5625 L 2.171875 -5.546875 C 2.429688 -5.941406 2.734375 -6.234375 3.078125 -6.421875 C 3.429688 -6.617188 3.835938 -6.71875 4.296875 -6.71875 C 5.046875 -6.71875 5.613281 -6.484375 6 -6.015625 C 6.394531 -5.554688 6.59375 -4.875 6.59375 -3.96875 Z M 6.59375 -3.96875 "/>
</symbol>
<symbol overflow="visible" id="TkZukiT419-4">
<path style="stroke:none;" d="M 1.125 -6.5625 L 2.203125 -6.5625 L 2.203125 0 L 1.125 0 Z M 1.125 -9.125 L 2.203125 -9.125 L 2.203125 -7.75 L 1.125 -7.75 Z M 1.125 -9.125 "/>
</symbol>
<symbol overflow="visible" id="TkZukiT419-5">
<path style="stroke:none;" d="M 5.3125 -6.375 L 5.3125 -5.34375 C 5.007812 -5.5 4.691406 -5.613281 4.359375 -5.6875 C 4.035156 -5.769531 3.695312 -5.8125 3.34375 -5.8125 C 2.8125 -5.8125 2.410156 -5.726562 2.140625 -5.5625 C 1.867188 -5.40625 1.734375 -5.160156 1.734375 -4.828125 C 1.734375 -4.578125 1.828125 -4.378906 2.015625 -4.234375 C 2.210938 -4.097656 2.601562 -3.96875 3.1875 -3.84375 L 3.546875 -3.75 C 4.316406 -3.59375 4.863281 -3.363281 5.1875 -3.0625 C 5.507812 -2.757812 5.671875 -2.34375 5.671875 -1.8125 C 5.671875 -1.195312 5.425781 -0.710938 4.9375 -0.359375 C 4.457031 -0.00390625 3.796875 0.171875 2.953125 0.171875 C 2.597656 0.171875 2.226562 0.132812 1.84375 0.0625 C 1.46875 0 1.070312 -0.0976562 0.65625 -0.234375 L 0.65625 -1.359375 C 1.050781 -1.148438 1.441406 -0.992188 1.828125 -0.890625 C 2.210938 -0.785156 2.597656 -0.734375 2.984375 -0.734375 C 3.484375 -0.734375 3.867188 -0.816406 4.140625 -0.984375 C 4.421875 -1.160156 4.5625 -1.410156 4.5625 -1.734375 C 4.5625 -2.023438 4.460938 -2.25 4.265625 -2.40625 C 4.066406 -2.5625 3.632812 -2.710938 2.96875 -2.859375 L 2.59375 -2.9375 C 1.925781 -3.082031 1.441406 -3.300781 1.140625 -3.59375 C 0.847656 -3.882812 0.703125 -4.28125 0.703125 -4.78125 C 0.703125 -5.40625 0.921875 -5.882812 1.359375 -6.21875 C 1.796875 -6.550781 2.414062 -6.71875 3.21875 -6.71875 C 3.613281 -6.71875 3.988281 -6.6875 4.34375 -6.625 C 4.695312 -6.570312 5.019531 -6.488281 5.3125 -6.375 Z M 5.3125 -6.375 "/>
</symbol>
</g>
<clipPath id="clip1">
  <path d="M 51 372 L 588 372 L 588 374 L 51 374 Z M 51 372 "/>
</clipPath>
<clipPath id="clip2">
  <path d="M 175 356 L 588 356 L 588 358 L 175 358 Z M 175 356 "/>
</clipPath>
</defs>
<g id="surface1">
<rect x="0" y="0" width="600" height="450" style="fill:rgb(100%,100%,100%);fill-opacity:1;stroke:none;"/>
<path style=" stroke:none;fill-rule:nonzero;fill:rgb(100%,100%,100%);fill-opacity:1;" d="M 51 402 L 588 402 L 588 29.25 L 51 29.25 Z M 51 402 "/>
<path style="fill:none;stroke-width:1;stroke-linecap:butt;stroke-linejoin:miter;stroke:rgb(0%,0%,0%);stroke-opacity:0.12;stroke-miterlimit:10;" d="M 170.286458 536 L 170.286458 39 " transform="matrix(0.75,0,0,0.75,0,0)"/>
<path style="fill:none;stroke-width:1;stroke-linecap:butt;stroke-linejoin:miter;stroke:rgb(0%,0%,0%);stroke-opacity:0.12;stroke-miterlimit:10;" d="M 426 536 L 426 39 " transform="matrix(0.75,0,0,0.75,0,0)"/>
<path style="fill:none;stroke-width:1;stroke-linecap:butt;stroke-linejoin:miter;stroke:rgb(0%,0%,0%);stroke-opacity:0.12;stroke-miterlimit:10;" d="M 681.713542 536 L 681.713542 39 " transform="matrix(0.75,0,0,0.75,0,0)"/>
<path style="fill:none;stroke-width:1;stroke-linecap:butt;stroke-linejoin:miter;stroke:rgb(0%,0%,0%);stroke-opacity:0.12;stroke-miterlimit:10;" d="M 68 508.03125 L 784 508.03125 " transform="matrix(0.75,0,0,0.75,0,0)"/>
<path style="fill:none;stroke-width:1;stroke-linecap:butt;stroke-linejoin:miter;stroke:rgb(0%,0%,0%);stroke-opacity:0.12;stroke-miterlimit:10;" d="M 68 400.453125 L 784 400.453125 " transform="matrix(0.75,0,0,0.75,0,0)"/>
<path style="fill:none;stroke-width:1;stroke-linecap:butt;stroke-linejoin:miter;stroke:rgb(0%,0%,0%);stroke-opacity:0.12;stroke-miterlimit:10;" d="M 68 292.880208 L 784 292.880208 " transform="matrix(0.75,0,0,0.75,0,0)"/>
<path style="fill:none;stroke-width:1;stroke-linecap:butt;stroke-linejoin:miter;stroke:rgb(0%,0%,0%);stroke-opacity:0.12;stroke-miterlimit:10;" d="M 68 185.302083 L 784 185.302083 " transform="matrix(0.75,0,0,0.75,0,0)"/>
<path style="fill:none;stroke-width:1;stroke-linecap:butt;stroke-linejoin:miter;stroke:rgb(0%,0%,0%);stroke-opacity:0.12;stroke-miterlimit:10;" d="M 68 77.729167 L 784 77.729167 " transform="matrix(0.75,0,0,0.75,0,0)"/>
<g style="fill:rgb(0%,0%,0%);fill-opacity:1;">
  <use xlink:href="#TkZukiT40-1" x="259.871094" y="436.109375"/>
</g>
<g style="fill:rgb(0%,0%,0%);fill-opacity:1;">
  <use xlink:href="#TkZukiT40-2" x="267.109375" y="436.109375"/>
</g>
<g style="fill:rgb(0%,0%,0%);fill-opacity:1;">
  <use xlink:href="#TkZukiT40-3" x="272.042969" y="436.109375"/>
</g>
<g style="fill:rgb(0%,0%,0%);fill-opacity:1;">
  <use xlink:href="#TkZukiT40-4" x="279.382812" y="436.109375"/>
</g>
<g style="fill:rgb(0%,0%,0%);fill-opacity:1;">
  <use xlink:href="#TkZukiT40-5" x="287" y="436.109375"/>
</g>
<g style="fill:rgb(0%,0%,0%);fill-opacity:1;">
  <use xlink:href="#TkZukiT41-1" x="294.355469" y="436.109375"/>
</g>
<g style="fill:rgb(0%,0%,0%);fill-opacity:1;">
  <use xlink:href="#TkZukiT41-2" x="301.972656" y="436.109375"/>
</g>
<g style="fill:rgb(0%,0%,0%);fill-opacity:1;">
  <use xlink:href="#TkZukiT41-3" x="305.304688" y="436.109375"/>
</g>
<g style="fill:rgb(0%,0%,0%);fill-opacity:1;">
  <use xlink:href="#TkZukiT41-2" x="308.640625" y="436.109375"/>
</g>
<g style="fill:rgb(0%,0%,0%);fill-opacity:1;">
  <use xlink:href="#TkZukiT41-4" x="311.972656" y="436.109375"/>
</g>
<g style="fill:rgb(0%,0%,0%);fill-opacity:1;">
  <use xlink:href="#TkZukiT42-1" x="316.679688" y="436.109375"/>
</g>
<g style="fill:rgb(0%,0%,0%);fill-opacity:1;">
  <use xlink:href="#TkZukiT42-2" x="323.78125" y="436.109375"/>
</g>
<g style="fill:rgb(0%,0%,0%);fill-opacity:1;">
  <use xlink:href="#TkZukiT42-3" x="327.59375" y="436.109375"/>
</g>
<g style="fill:rgb(0%,0%,0%);fill-opacity:1;">
  <use xlink:href="#TkZukiT40-6" x="334.9375" y="436.109375"/>
</g>
<g style="fill:rgb(0%,0%,0%);fill-opacity:1;">
  <use xlink:href="#TkZukiT42-2" x="339.160156" y="436.109375"/>
</g>
<g style="fill:rgb(0%,0%,0%);fill-opacity:1;">
  <use xlink:href="#TkZukiT42-4" x="342.976562" y="436.109375"/>
</g>
<g style="fill:rgb(0%,0%,0%);fill-opacity:1;">
  <use xlink:href="#TkZukiT40-7" x="350.582031" y="436.109375"/>
</g>
<g style="fill:rgb(0%,0%,0%);fill-opacity:1;">
  <use xlink:href="#TkZukiT41-5" x="357.964844" y="436.109375"/>
</g>
<g style="fill:rgb(0%,0%,0%);fill-opacity:1;">
  <use xlink:href="#TkZukiT40-8" x="365.316406" y="436.109375"/>
</g>
<g style="fill:rgb(0%,0%,0%);fill-opacity:1;">
  <use xlink:href="#TkZukiT41-6" x="372.933594" y="436.109375"/>
</g>
<g style="fill:rgb(0%,0%,0%);fill-opacity:1;">
  <use xlink:href="#TkZukiT43-1" x="118.570312" y="419.890625"/>
</g>
<g style="fill:rgb(0%,0%,0%);fill-opacity:1;">
  <use xlink:href="#TkZukiT44-1" x="126.207031" y="419.890625"/>
</g>
<g style="fill:rgb(0%,0%,0%);fill-opacity:1;">
  <use xlink:href="#TkZukiT43-1" x="130.019531" y="419.890625"/>
</g>
<g style="fill:rgb(0%,0%,0%);fill-opacity:1;">
  <use xlink:href="#TkZukiT41-7" x="310.550781" y="419.890625"/>
</g>
<g style="fill:rgb(0%,0%,0%);fill-opacity:1;">
  <use xlink:href="#TkZukiT40-9" x="318.183594" y="419.890625"/>
</g>
<g style="fill:rgb(0%,0%,0%);fill-opacity:1;">
  <use xlink:href="#TkZukiT42-5" x="322" y="419.890625"/>
</g>
<g style="fill:rgb(0%,0%,0%);fill-opacity:1;">
  <use xlink:href="#TkZukiT40-10" x="501.878906" y="419.890625"/>
</g>
<g style="fill:rgb(0%,0%,0%);fill-opacity:1;">
  <use xlink:href="#TkZukiT40-9" x="509.511719" y="419.890625"/>
</g>
<g style="fill:rgb(0%,0%,0%);fill-opacity:1;">
  <use xlink:href="#TkZukiT40-11" x="513.328125" y="419.890625"/>
</g>
<g style="fill:rgb(0%,0%,0%);fill-opacity:1;">
  <use xlink:href="#TkZukiT45-1" x="22.28125" y="297.117188"/>
</g>
<g style="fill:rgb(0%,0%,0%);fill-opacity:1;">
  <use xlink:href="#TkZukiT46-1" x="22.28125" y="287.671875"/>
</g>
<g style="fill:rgb(0%,0%,0%);fill-opacity:1;">
  <use xlink:href="#TkZukiT47-1" x="22.28125" y="280.054688"/>
</g>
<g style="fill:rgb(0%,0%,0%);fill-opacity:1;">
  <use xlink:href="#TkZukiT48-1" x="22.28125" y="273.804688"/>
</g>
<g style="fill:rgb(0%,0%,0%);fill-opacity:1;">
  <use xlink:href="#TkZukiT49-1" x="22.28125" y="266.417969"/>
</g>
<g style="fill:rgb(0%,0%,0%);fill-opacity:1;">
  <use xlink:href="#TkZukiT48-2" x="22.28125" y="261.484375"/>
</g>
<g style="fill:rgb(0%,0%,0%);fill-opacity:1;">
  <use xlink:href="#TkZukiT47-2" x="22.28125" y="254.386719"/>
</g>
<g style="fill:rgb(0%,0%,0%);fill-opacity:1;">
  <use xlink:href="#TkZukiT48-3" x="22.28125" y="247"/>
</g>
<g style="fill:rgb(0%,0%,0%);fill-opacity:1;">
  <use xlink:href="#TkZukiT48-4" x="22.28125" y="239.382812"/>
</g>
<g style="fill:rgb(0%,0%,0%);fill-opacity:1;">
  <use xlink:href="#TkZukiT48-5" x="22.28125" y="235.570312"/>
</g>
<g style="fill:rgb(0%,0%,0%);fill-opacity:1;">
  <use xlink:href="#TkZukiT48-6" x="22.28125" y="227.964844"/>
</g>
<g style="fill:rgb(0%,0%,0%);fill-opacity:1;">
  <use xlink:href="#TkZukiT47-3" x="22.28125" y="220.359375"/>
</g>
<g style="fill:rgb(0%,0%,0%);fill-opacity:1;">
  <use xlink:href="#TkZukiT49-2" x="22.28125" y="208.667969"/>
</g>
<g style="fill:rgb(0%,0%,0%);fill-opacity:1;">
  <use xlink:href="#TkZukiT48-1" x="22.28125" y="201.054687"/>
</g>
<g style="fill:rgb(0%,0%,0%);fill-opacity:1;">
  <use xlink:href="#TkZukiT410-1" x="22.28125" y="193.671875"/>
</g>
<g style="fill:rgb(0%,0%,0%);fill-opacity:1;">
  <use xlink:href="#TkZukiT411-1" x="22.28125" y="188.734375"/>
</g>
<g style="fill:rgb(0%,0%,0%);fill-opacity:1;">
  <use xlink:href="#TkZukiT411-2" x="22.28125" y="184.921875"/>
</g>
<g style="fill:rgb(0%,0%,0%);fill-opacity:1;">
  <use xlink:href="#TkZukiT47-4" x="22.28125" y="177.578125"/>
</g>
<g style="fill:rgb(0%,0%,0%);fill-opacity:1;">
  <use xlink:href="#TkZukiT411-1" x="22.28125" y="173.355469"/>
</g>
<g style="fill:rgb(0%,0%,0%);fill-opacity:1;">
  <use xlink:href="#TkZukiT411-3" x="22.28125" y="169.539062"/>
</g>
<g style="fill:rgb(0%,0%,0%);fill-opacity:1;">
  <use xlink:href="#TkZukiT410-1" x="22.28125" y="161.921875"/>
</g>
<g style="fill:rgb(0%,0%,0%);fill-opacity:1;">
  <use xlink:href="#TkZukiT47-5" x="22.28125" y="156.992188"/>
</g>
<g style="fill:rgb(0%,0%,0%);fill-opacity:1;">
  <use xlink:href="#TkZukiT411-4" x="22.28125" y="149.636719"/>
</g>
<g style="fill:rgb(0%,0%,0%);fill-opacity:1;">
  <use xlink:href="#TkZukiT410-2" x="22.28125" y="139.820312"/>
</g>
<g style="fill:rgb(0%,0%,0%);fill-opacity:1;">
  <use xlink:href="#TkZukiT412-1" x="36.703125" y="385.175781"/>
</g>
<g style="fill:rgb(0%,0%,0%);fill-opacity:1;">
  <use xlink:href="#TkZukiT413-1" x="29.066406" y="304.496094"/>
</g>
<g style="fill:rgb(0%,0%,0%);fill-opacity:1;">
  <use xlink:href="#TkZukiT414-1" x="36.703125" y="304.496094"/>
</g>
<g style="fill:rgb(0%,0%,0%);fill-opacity:1;">
  <use xlink:href="#TkZukiT413-2" x="29.066406" y="223.8125"/>
</g>
<g style="fill:rgb(0%,0%,0%);fill-opacity:1;">
  <use xlink:href="#TkZukiT414-1" x="36.703125" y="223.8125"/>
</g>
<g style="fill:rgb(0%,0%,0%);fill-opacity:1;">
  <use xlink:href="#TkZukiT415-1" x="29.066406" y="143.132812"/>
</g>
<g style="fill:rgb(0%,0%,0%);fill-opacity:1;">
  <use xlink:href="#TkZukiT416-1" x="36.703125" y="143.132812"/>
</g>
<g style="fill:rgb(0%,0%,0%);fill-opacity:1;">
  <use xlink:href="#TkZukiT415-2" x="29.066406" y="62.449219"/>
</g>
<g style="fill:rgb(0%,0%,0%);fill-opacity:1;">
  <use xlink:href="#TkZukiT416-1" x="36.703125" y="62.449219"/>
</g>
<g style="fill:rgb(0%,0%,0%);fill-opacity:1;">
  <use xlink:href="#TkZukiT417-1" x="253.878906" y="23.421875"/>
</g>
<g style="fill:rgb(0%,0%,0%);fill-opacity:1;">
  <use xlink:href="#TkZukiT417-2" x="260.78125" y="23.421875"/>
</g>
<g style="fill:rgb(0%,0%,0%);fill-opacity:1;">
  <use xlink:href="#TkZukiT418-1" x="265.71875" y="23.421875"/>
</g>
<g style="fill:rgb(0%,0%,0%);fill-opacity:1;">
  <use xlink:href="#TkZukiT419-1" x="273.101562" y="23.421875"/>
</g>
<g style="fill:rgb(0%,0%,0%);fill-opacity:1;">
  <use xlink:href="#TkZukiT419-2" x="280.71875" y="23.421875"/>
</g>
<g style="fill:rgb(0%,0%,0%);fill-opacity:1;">
  <use xlink:href="#TkZukiT417-3" x="288.320312" y="23.421875"/>
</g>
<g style="fill:rgb(0%,0%,0%);fill-opacity:1;">
  <use xlink:href="#TkZukiT419-3" x="295.703125" y="23.421875"/>
</g>
<g style="fill:rgb(0%,0%,0%);fill-opacity:1;">
  <use xlink:href="#TkZukiT417-4" x="303.308594" y="23.421875"/>
</g>
<g style="fill:rgb(0%,0%,0%);fill-opacity:1;">
  <use xlink:href="#TkZukiT419-4" x="308.015625" y="23.421875"/>
</g>
<g style="fill:rgb(0%,0%,0%);fill-opacity:1;">
  <use xlink:href="#TkZukiT419-5" x="311.351562" y="23.421875"/>
</g>
<g style="fill:rgb(0%,0%,0%);fill-opacity:1;">
  <use xlink:href="#TkZukiT418-2" x="317.601562" y="23.421875"/>
</g>
<g style="fill:rgb(0%,0%,0%);fill-opacity:1;">
  <use xlink:href="#TkZukiT418-3" x="322.304688" y="23.421875"/>
</g>
<g style="fill:rgb(0%,0%,0%);fill-opacity:1;">
  <use xlink:href="#TkZukiT418-1" x="326.121094" y="23.421875"/>
</g>
<g style="fill:rgb(0%,0%,0%);fill-opacity:1;">
  <use xlink:href="#TkZukiT419-5" x="333.503906" y="23.421875"/>
</g>
<g style="fill:rgb(0%,0%,0%);fill-opacity:1;">
  <use xlink:href="#TkZukiT417-4" x="339.753906" y="23.421875"/>
</g>
<g style="fill:rgb(0%,0%,0%);fill-opacity:1;">
  <use xlink:href="#TkZukiT418-4" x="344.460938" y="23.421875"/>
</g>
<g style="fill:rgb(0%,0%,0%);fill-opacity:1;">
  <use xlink:href="#TkZukiT418-5" x="347.796875" y="23.421875"/>
</g>
<g style="fill:rgb(0%,0%,0%);fill-opacity:1;">
  <use xlink:href="#TkZukiT417-5" x="359.484375" y="23.421875"/>
</g>
<g style="fill:rgb(0%,0%,0%);fill-opacity:1;">
  <use xlink:href="#TkZukiT418-2" x="366.835938" y="23.421875"/>
</g>
<g style="fill:rgb(0%,0%,0%);fill-opacity:1;">
  <use xlink:href="#TkZukiT418-1" x="371.542969" y="23.421875"/>
</g>
<g style="fill:rgb(0%,0%,0%);fill-opacity:1;">
  <use xlink:href="#TkZukiT418-6" x="378.925781" y="23.421875"/>
</g>
<path style=" stroke:none;fill-rule:nonzero;fill:rgb(0%,0%,0%);fill-opacity:1;" d="M 322.875 372.953125 C 322.875 377.453125 316.125 377.453125 316.125 372.953125 C 316.125 368.453125 322.875 368.453125 322.875 372.953125 "/>
<path style=" stroke:none;fill-rule:nonzero;fill:rgb(0%,0%,0%);fill-opacity:1;" d="M 386.804688 356.816406 C 386.804688 361.316406 380.054688 361.316406 380.054688 356.816406 C 380.054688 352.316406 386.804688 352.316406 386.804688 356.816406 "/>
<path style=" stroke:none;fill-rule:nonzero;fill:rgb(0%,0%,0%);fill-opacity:1;" d="M 399.589844 340.683594 C 399.589844 345.183594 392.839844 345.183594 392.839844 340.683594 C 392.839844 336.183594 399.589844 336.183594 399.589844 340.683594 "/>
<path style=" stroke:none;fill-rule:nonzero;fill:rgb(0%,0%,0%);fill-opacity:1;" d="M 405.070312 324.546875 C 405.070312 329.046875 398.320312 329.046875 398.320312 324.546875 C 398.320312 320.046875 405.070312 320.046875 405.070312 324.546875 "/>
<path style=" stroke:none;fill-rule:nonzero;fill:rgb(0%,0%,0%);fill-opacity:1;" d="M 408.113281 308.410156 C 408.113281 312.910156 401.363281 312.910156 401.363281 308.410156 C 401.363281 303.910156 408.113281 303.910156 408.113281 308.410156 "/>
<path style=" stroke:none;fill-rule:nonzero;fill:rgb(0%,0%,0%);fill-opacity:1;" d="M 410.050781 292.273438 C 410.050781 296.773438 403.300781 296.773438 403.300781 292.273438 C 403.300781 287.773438 410.050781 287.773438 410.050781 292.273438 "/>
<path style=" stroke:none;fill-rule:nonzero;fill:rgb(0%,0%,0%);fill-opacity:1;" d="M 411.390625 276.136719 C 411.390625 280.636719 404.640625 280.636719 404.640625 276.136719 C 404.640625 271.636719 411.390625 271.636719 411.390625 276.136719 "/>
<path style=" stroke:none;fill-rule:nonzero;fill:rgb(0%,0%,0%);fill-opacity:1;" d="M 386.804688 260 C 386.804688 264.5 380.054688 264.5 380.054688 260 C 380.054688 255.5 386.804688 255.5 386.804688 260 "/>
<path style=" stroke:none;fill-rule:nonzero;fill:rgb(0%,0%,0%);fill-opacity:1;" d="M 379.28125 243.863281 C 379.28125 248.363281 372.53125 248.363281 372.53125 243.863281 C 372.53125 239.363281 379.28125 239.363281 379.28125 243.863281 "/>
<path style=" stroke:none;fill-rule:nonzero;fill:rgb(0%,0%,0%);fill-opacity:1;" d="M 363.25 227.726562 C 363.25 232.226562 356.5 232.226562 356.5 227.726562 C 356.5 223.226562 363.25 223.226562 363.25 227.726562 "/>
<path style=" stroke:none;fill-rule:nonzero;fill:rgb(0%,0%,0%);fill-opacity:1;" d="M 377.671875 211.589844 C 377.671875 216.089844 370.921875 216.089844 370.921875 211.589844 C 370.921875 207.089844 377.671875 207.089844 377.671875 211.589844 "/>
<path style=" stroke:none;fill-rule:nonzero;fill:rgb(0%,0%,0%);fill-opacity:1;" d="M 356.230469 195.453125 C 356.230469 199.953125 349.480469 199.953125 349.480469 195.453125 C 349.480469 190.953125 356.230469 190.953125 356.230469 195.453125 "/>
<path style=" stroke:none;fill-rule:nonzero;fill:rgb(0%,0%,0%);fill-opacity:1;" d="M 353.5625 179.316406 C 353.5625 183.816406 346.8125 183.816406 346.8125 179.316406 C 346.8125 174.816406 353.5625 174.816406 353.5625 179.316406 "/>
<path style=" stroke:none;fill-rule:nonzero;fill:rgb(0%,0%,0%);fill-opacity:1;" d="M 344.183594 163.183594 C 344.183594 167.683594 337.433594 167.683594 337.433594 163.183594 C 337.433594 158.683594 344.183594 158.683594 344.183594 163.183594 "/>
<path style=" stroke:none;fill-rule:nonzero;fill:rgb(0%,0%,0%);fill-opacity:1;" d="M 336.101562 147.046875 C 336.101562 151.546875 329.351562 151.546875 329.351562 147.046875 C 329.351562 142.546875 336.101562 142.546875 336.101562 147.046875 "/>
<path style=" stroke:none;fill-rule:nonzero;fill:rgb(0%,0%,0%);fill-opacity:1;" d="M 329.0625 130.910156 C 329.0625 135.410156 322.3125 135.410156 322.3125 130.910156 C 322.3125 126.410156 329.0625 126.410156 329.0625 130.910156 "/>
<path style=" stroke:none;fill-rule:nonzero;fill:rgb(0%,0%,0%);fill-opacity:1;" d="M 328.6875 114.773438 C 328.6875 119.273438 321.9375 119.273438 321.9375 114.773438 C 321.9375 110.273438 328.6875 110.273438 328.6875 114.773438 "/>
<path style=" stroke:none;fill-rule:nonzero;fill:rgb(0%,0%,0%);fill-opacity:1;" d="M 328.355469 98.636719 C 328.355469 103.136719 321.605469 103.136719 321.605469 98.636719 C 321.605469 94.136719 328.355469 94.136719 328.355469 98.636719 "/>
<path style=" stroke:none;fill-rule:nonzero;fill:rgb(0%,0%,0%);fill-opacity:1;" d="M 328.058594 82.5 C 328.058594 87 321.308594 87 321.308594 82.5 C 321.308594 78 328.058594 78 328.058594 82.5 "/>
<path style=" stroke:none;fill-rule:nonzero;fill:rgb(0%,0%,0%);fill-opacity:1;" d="M 322.875 66.363281 C 322.875 70.863281 316.125 70.863281 316.125 66.363281 C 316.125 61.863281 322.875 61.863281 322.875 66.363281 "/>
<path style="fill:none;stroke-width:1.5;stroke-linecap:butt;stroke-linejoin:miter;stroke:rgb(0%,0%,0%);stroke-opacity:1;stroke-dasharray:4.5,4.5;stroke-miterlimit:10;" d="M 426 513.411458 L 426 61.588542 " transform="matrix(0.75,0,0,0.75,0,0)"/>
<g clip-path="url(#clip1)" clip-rule="nonzero">
<path style="fill:none;stroke-width:1.5;stroke-linecap:butt;stroke-linejoin:miter;stroke:rgb(0%,0%,0%);stroke-opacity:1;stroke-miterlimit:10;" d="M -2823.15625 497.270833 L 3675.15625 497.270833 " transform="matrix(0.75,0,0,0.75,0,0)"/>
</g>
<g clip-path="url(#clip2)" clip-rule="nonzero">
<path style="fill:none;stroke-width:1.5;stroke-linecap:butt;stroke-linejoin:miter;stroke:rgb(0%,0%,0%);stroke-opacity:1;stroke-miterlimit:10;" d="M 234.083333 475.755208 L 788.395833 475.755208 " transform="matrix(0.75,0,0,0.75,0,0)"/>
</g>
<path style="fill:none;stroke-width:1.5;stroke-linecap:butt;stroke-linejoin:miter;stroke:rgb(0%,0%,0%);stroke-opacity:1;stroke-miterlimit:10;" d="M 351.5625 454.244792 L 705.010417 454.244792 " transform="matrix(0.75,0,0,0.75,0,0)"/>
<path style="fill:none;stroke-width:1.5;stroke-linecap:butt;stroke-linejoin:miter;stroke:rgb(0%,0%,0%);stroke-opacity:1;stroke-miterlimit:10;" d="M 397.15625 432.729167 L 674.026042 432.729167 " transform="matrix(0.75,0,0,0.75,0,0)"/>
<path style="fill:none;stroke-width:1.5;stroke-linecap:butt;stroke-linejoin:miter;stroke:rgb(0%,0%,0%);stroke-opacity:1;stroke-miterlimit:10;" d="M 422.432292 411.213542 L 656.869792 411.213542 " transform="matrix(0.75,0,0,0.75,0,0)"/>
<path style="fill:none;stroke-width:1.5;stroke-linecap:butt;stroke-linejoin:miter;stroke:rgb(0%,0%,0%);stroke-opacity:1;stroke-miterlimit:10;" d="M 438.869792 389.697917 L 645.598958 389.697917 " transform="matrix(0.75,0,0,0.75,0,0)"/>
<path style="fill:none;stroke-width:1.5;stroke-linecap:butt;stroke-linejoin:miter;stroke:rgb(0%,0%,0%);stroke-opacity:1;stroke-miterlimit:10;" d="M 450.583333 368.182292 L 637.463542 368.182292 " transform="matrix(0.75,0,0,0.75,0,0)"/>
<path style="fill:none;stroke-width:1.5;stroke-linecap:butt;stroke-linejoin:miter;stroke:rgb(0%,0%,0%);stroke-opacity:1;stroke-miterlimit:10;" d="M 419.677083 346.666667 L 602.802083 346.666667 " transform="matrix(0.75,0,0,0.75,0,0)"/>
<path style="fill:none;stroke-width:1.5;stroke-linecap:butt;stroke-linejoin:miter;stroke:rgb(0%,0%,0%);stroke-opacity:1;stroke-miterlimit:10;" d="M 414.651042 325.151042 L 587.770833 325.151042 " transform="matrix(0.75,0,0,0.75,0,0)"/>
<path style="fill:none;stroke-width:1.5;stroke-linecap:butt;stroke-linejoin:miter;stroke:rgb(0%,0%,0%);stroke-opacity:1;stroke-miterlimit:10;" d="M 396.5625 303.635417 L 563.104167 303.635417 " transform="matrix(0.75,0,0,0.75,0,0)"/>
<path style="fill:none;stroke-width:1.5;stroke-linecap:butt;stroke-linejoin:miter;stroke:rgb(0%,0%,0%);stroke-opacity:1;stroke-miterlimit:10;" d="M 421.770833 282.119792 L 576.348958 282.119792 " transform="matrix(0.75,0,0,0.75,0,0)"/>
<path style="fill:none;stroke-width:1.5;stroke-linecap:butt;stroke-linejoin:miter;stroke:rgb(0%,0%,0%);stroke-opacity:1;stroke-miterlimit:10;" d="M 394.864583 260.604167 L 546.078125 260.604167 " transform="matrix(0.75,0,0,0.75,0,0)"/>
<path style="fill:none;stroke-width:1.5;stroke-linecap:butt;stroke-linejoin:miter;stroke:rgb(0%,0%,0%);stroke-opacity:1;stroke-miterlimit:10;" d="M 394.447917 239.088542 L 539.380208 239.088542 " transform="matrix(0.75,0,0,0.75,0,0)"/>
<path style="fill:none;stroke-width:1.5;stroke-linecap:butt;stroke-linejoin:miter;stroke:rgb(0%,0%,0%);stroke-opacity:1;stroke-miterlimit:10;" d="M 384.395833 217.578125 L 524.427083 217.578125 " transform="matrix(0.75,0,0,0.75,0,0)"/>
<path style="fill:none;stroke-width:1.5;stroke-linecap:butt;stroke-linejoin:miter;stroke:rgb(0%,0%,0%);stroke-opacity:1;stroke-miterlimit:10;" d="M 375.973958 196.0625 L 511.296875 196.0625 " transform="matrix(0.75,0,0,0.75,0,0)"/>
<path style="fill:none;stroke-width:1.5;stroke-linecap:butt;stroke-linejoin:miter;stroke:rgb(0%,0%,0%);stroke-opacity:1;stroke-miterlimit:10;" d="M 368.8125 174.546875 L 499.682292 174.546875 " transform="matrix(0.75,0,0,0.75,0,0)"/>
<path style="fill:none;stroke-width:1.5;stroke-linecap:butt;stroke-linejoin:miter;stroke:rgb(0%,0%,0%);stroke-opacity:1;stroke-miterlimit:10;" d="M 370.432292 153.03125 L 497.0625 153.03125 " transform="matrix(0.75,0,0,0.75,0,0)"/>
<path style="fill:none;stroke-width:1.5;stroke-linecap:butt;stroke-linejoin:miter;stroke:rgb(0%,0%,0%);stroke-opacity:1;stroke-miterlimit:10;" d="M 371.916667 131.515625 L 494.692708 131.515625 " transform="matrix(0.75,0,0,0.75,0,0)"/>
<path style="fill:none;stroke-width:1.5;stroke-linecap:butt;stroke-linejoin:miter;stroke:rgb(0%,0%,0%);stroke-opacity:1;stroke-miterlimit:10;" d="M 373.286458 110 L 492.536458 110 " transform="matrix(0.75,0,0,0.75,0,0)"/>
<path style="fill:none;stroke-width:1.5;stroke-linecap:butt;stroke-linejoin:miter;stroke:rgb(0%,0%,0%);stroke-opacity:1;stroke-miterlimit:10;" d="M 367.973958 88.484375 L 484.026042 88.484375 " transform="matrix(0.75,0,0,0.75,0,0)"/>
<path style="fill:none;stroke-width:1;stroke-linecap:butt;stroke-linejoin:miter;stroke:rgb(0%,0%,0%);stroke-opacity:1;stroke-miterlimit:10;" d="M 170.286458 536.5 L 170.286458 542.5 " transform="matrix(0.75,0,0,0.75,0,0)"/>
<path style="fill:none;stroke-width:1;stroke-linecap:butt;stroke-linejoin:miter;stroke:rgb(0%,0%,0%);stroke-opacity:1;stroke-miterlimit:10;" d="M 426 536.5 L 426 542.5 " transform="matrix(0.75,0,0,0.75,0,0)"/>
<path style="fill:none;stroke-width:1;stroke-linecap:butt;stroke-linejoin:miter;stroke:rgb(0%,0%,0%);stroke-opacity:1;stroke-miterlimit:10;" d="M 681.713542 536.5 L 681.713542 542.5 " transform="matrix(0.75,0,0,0.75,0,0)"/>
<path style="fill:none;stroke-width:1;stroke-linecap:butt;stroke-linejoin:miter;stroke:rgb(0%,0%,0%);stroke-opacity:1;stroke-miterlimit:10;" d="M 67.5 508.03125 L 61.5 508.03125 " transform="matrix(0.75,0,0,0.75,0,0)"/>
<path style="fill:none;stroke-width:1;stroke-linecap:butt;stroke-linejoin:miter;stroke:rgb(0%,0%,0%);stroke-opacity:1;stroke-miterlimit:10;" d="M 67.5 400.453125 L 61.5 400.453125 " transform="matrix(0.75,0,0,0.75,0,0)"/>
<path style="fill:none;stroke-width:1;stroke-linecap:butt;stroke-linejoin:miter;stroke:rgb(0%,0%,0%);stroke-opacity:1;stroke-miterlimit:10;" d="M 67.5 292.880208 L 61.5 292.880208 " transform="matrix(0.75,0,0,0.75,0,0)"/>
<path style="fill:none;stroke-width:1;stroke-linecap:butt;stroke-linejoin:miter;stroke:rgb(0%,0%,0%);stroke-opacity:1;stroke-miterlimit:10;" d="M 67.5 185.302083 L 61.5 185.302083 " transform="matrix(0.75,0,0,0.75,0,0)"/>
<path style="fill:none;stroke-width:1;stroke-linecap:butt;stroke-linejoin:miter;stroke:rgb(0%,0%,0%);stroke-opacity:1;stroke-miterlimit:10;" d="M 67.5 77.729167 L 61.5 77.729167 " transform="matrix(0.75,0,0,0.75,0,0)"/>
<path style="fill:none;stroke-width:1;stroke-linecap:butt;stroke-linejoin:miter;stroke:rgb(0%,0%,0%);stroke-opacity:1;stroke-miterlimit:10;" d="M 67.5 536 L 784.5 536 " transform="matrix(0.75,0,0,0.75,0,0)"/>
<path style="fill:none;stroke-width:1;stroke-linecap:butt;stroke-linejoin:miter;stroke:rgb(0%,0%,0%);stroke-opacity:1;stroke-miterlimit:10;" d="M 68 536.5 L 68 38.5 " transform="matrix(0.75,0,0,0.75,0,0)"/>
<path style="fill:none;stroke-width:1;stroke-linecap:butt;stroke-linejoin:miter;stroke:rgb(0%,0%,0%);stroke-opacity:1;stroke-miterlimit:10;" d="M 67.5 39 L 784.5 39 " transform="matrix(0.75,0,0,0.75,0,0)"/>
<path style="fill:none;stroke-width:1;stroke-linecap:butt;stroke-linejoin:miter;stroke:rgb(0%,0%,0%);stroke-opacity:1;stroke-miterlimit:10;" d="M 784 536.5 L 784 38.5 " transform="matrix(0.75,0,0,0.75,0,0)"/>
</g>
</svg>
