<?xml version="1.0" encoding="UTF-8"?>
<svg xmlns="http://www.w3.org/2000/svg"
     xmlns:xlink="http://www.w3.org/1999/xlink"
     xmlns:gadfly="http://www.gadflyjl.org/ns"
     version="1.2"
     width="141.42mm" height="100mm" viewBox="0 0 141.42 100"
     stroke="none"
     fill="#000000"
     stroke-width="0.3"
     font-size="3.88"
>
<defs>
  <marker id="arrow" markerWidth="15" markerHeight="7" refX="5" refY="3.5" orient="auto" markerUnits="strokeWidth">
    <path d="M0,0 L15,3.5 L0,7 z" stroke="context-stroke" fill="context-stroke"/>
  </marker>
</defs>
<g class="plotroot xscalable yscalable" id="img-72712b7f-1">
  <g font-size="3.88" font-family="'PT Sans','Helvetica Neue','Helvetica',sans-serif" fill="#564A55" stroke="#000000" stroke-opacity="0.000" id="img-72712b7f-2">
    <g transform="translate(78.08,88.39)">
      <g class="primitive">
        <text text-anchor="middle" dy="0.6em">W</text>
      </g>
    </g>
  </g>
  <g class="guide xlabels" font-size="2.82" font-family="'PT Sans Caption','Helvetica Neue','Helvetica',sans-serif" fill="#6C606B" id="img-72712b7f-3">
    <g transform="translate(21.74,81.72)">
      <g class="primitive">
        <text text-anchor="middle" dy="0.6em">6.0</text>
      </g>
    </g>
    <g transform="translate(44.28,81.72)">
      <g class="primitive">
        <text text-anchor="middle" dy="0.6em">6.5</text>
      </g>
    </g>
    <g transform="translate(66.82,81.72)">
      <g class="primitive">
        <text text-anchor="middle" dy="0.6em">7.0</text>
      </g>
    </g>
    <g transform="translate(89.35,81.72)">
      <g class="primitive">
        <text text-anchor="middle" dy="0.6em">7.5</text>
      </g>
    </g>
    <g transform="translate(111.89,81.72)">
      <g class="primitive">
        <text text-anchor="middle" dy="0.6em">8.0</text>
      </g>
    </g>
    <g transform="translate(134.42,81.72)">
      <g class="primitive">
        <text text-anchor="middle" dy="0.6em">8.5</text>
      </g>
    </g>
  </g>
  <g clip-path="url(#img-72712b7f-4)">
    <g id="img-72712b7f-5">
      <g pointer-events="visible" stroke-width="0.3" fill="#000000" fill-opacity="0.000" stroke="#000000" stroke-opacity="0.000" class="guide background" id="img-72712b7f-6">
        <g transform="translate(78.08,42.86)" id="img-72712b7f-7">
          <path d="M-58.34,-37.86 L58.34,-37.86 58.34,37.86 -58.34,37.86  z" class="primitive"/>
        </g>
      </g>
      <g class="guide ygridlines xfixed" stroke-dasharray="0.5,0.5" stroke-width="0.2" stroke="#D0D0E0" id="img-72712b7f-8">
        <g transform="translate(78.08,78.71)" id="img-72712b7f-9">
          <path fill="none" d="M-58.34,0 L58.34,0 " class="primitive"/>
        </g>
        <g transform="translate(78.08,60.79)" id="img-72712b7f-10">
          <path fill="none" d="M-58.34,0 L58.34,0 " class="primitive"/>
        </g>
        <g transform="translate(78.08,42.86)" id="img-72712b7f-11">
          <path fill="none" d="M-58.34,0 L58.34,0 " class="primitive"/>
        </g>
        <g transform="translate(78.08,24.93)" id="img-72712b7f-12">
          <path fill="none" d="M-58.34,0 L58.34,0 " class="primitive"/>
        </g>
        <g transform="translate(78.08,7)" id="img-72712b7f-13">
          <path fill="none" d="M-58.34,0 L58.34,0 " class="primitive"/>
        </g>
      </g>
      <g class="guide xgridlines yfixed" stroke-dasharray="0.5,0.5" stroke-width="0.2" stroke="#D0D0E0" id="img-72712b7f-14">
        <g transform="translate(21.74,42.86)" id="img-72712b7f-15">
          <path fill="none" d="M0,-37.86 L0,37.86 " class="primitive"/>
        </g>
        <g transform="translate(44.28,42.86)" id="img-72712b7f-16">
          <path fill="none" d="M0,-37.86 L0,37.86 " class="primitive"/>
        </g>
        <g transform="translate(66.82,42.86)" id="img-72712b7f-17">
          <path fill="none" d="M0,-37.86 L0,37.86 " class="primitive"/>
        </g>
        <g transform="translate(89.35,42.86)" id="img-72712b7f-18">
          <path fill="none" d="M0,-37.86 L0,37.86 " class="primitive"/>
        </g>
        <g transform="translate(111.89,42.86)" id="img-72712b7f-19">
          <path fill="none" d="M0,-37.86 L0,37.86 " class="primitive"/>
        </g>
        <g transform="translate(134.42,42.86)" id="img-72712b7f-20">
          <path fill="none" d="M0,-37.86 L0,37.86 " class="primitive"/>
        </g>
      </g>
      <g class="plotpanel" id="img-72712b7f-21">
        <metadata>
          <boundingbox value="19.745000000000005mm 5.0mm 116.6763562373095mm 75.715mm"/>
          <unitbox value="5.955625118108458 1.555776336889075 2.588749763783085 -2.11155267377815"/>
        </metadata>
        <g class="geometry" id="img-72712b7f-22">
          <g stroke-width="0.3" id="img-72712b7f-23">
            <g class="color_RGBA{Float32}(0.0f0,0.74736935f0,1.0f0,1.0f0)" fill-opacity="1" stroke="#FFFFFF" fill="#00BFFF" id="img-72712b7f-24">
              <g class="marker" id="img-72712b7f-25">
                <g transform="translate(71.77,37.83)" id="img-72712b7f-26">
                  <circle cx="0" cy="0" r="0.9" class="primitive"/>
                </g>
              </g>
            </g>
            <g class="color_RGBA{Float32}(0.0f0,0.74736935f0,1.0f0,1.0f0)" fill-opacity="1" stroke="#FFFFFF" fill="#00BFFF" id="img-72712b7f-27">
              <g class="marker" id="img-72712b7f-28">
                <g transform="translate(77.18,40.89)" id="img-72712b7f-29">
                  <circle cx="0" cy="0" r="0.9" class="primitive"/>
                </g>
              </g>
            </g>
            <g class="color_RGBA{Float32}(0.0f0,0.74736935f0,1.0f0,1.0f0)" fill-opacity="1" stroke="#FFFFFF" fill="#00BFFF" id="img-72712b7f-30">
              <g class="marker" id="img-72712b7f-31">
                <g transform="translate(78.53,41.65)" id="img-72712b7f-32">
                  <circle cx="0" cy="0" r="0.9" class="primitive"/>
                </g>
              </g>
            </g>
            <g class="color_RGBA{Float32}(0.0f0,0.74736935f0,1.0f0,1.0f0)" fill-opacity="1" stroke="#FFFFFF" fill="#00BFFF" id="img-72712b7f-33">
              <g class="marker" id="img-72712b7f-34">
                <g transform="translate(85.75,45.72)" id="img-72712b7f-35">
                  <circle cx="0" cy="0" r="0.9" class="primitive"/>
                </g>
              </g>
            </g>
            <g class="color_RGBA{Float32}(0.0f0,0.74736935f0,1.0f0,1.0f0)" fill-opacity="1" stroke="#FFFFFF" fill="#00BFFF" id="img-72712b7f-36">
              <g class="marker" id="img-72712b7f-37">
                <g transform="translate(91.15,48.77)" id="img-72712b7f-38">
                  <circle cx="0" cy="0" r="0.9" class="primitive"/>
                </g>
              </g>
            </g>
            <g class="color_RGBA{Float32}(0.0f0,0.74736935f0,1.0f0,1.0f0)" fill-opacity="1" stroke="#FFFFFF" fill="#00BFFF" id="img-72712b7f-39">
              <g class="marker" id="img-72712b7f-40">
                <g transform="translate(92.51,49.53)" id="img-72712b7f-41">
                  <circle cx="0" cy="0" r="0.9" class="primitive"/>
                </g>
              </g>
            </g>
            <g class="color_RGBA{Float32}(0.0f0,0.74736935f0,1.0f0,1.0f0)" fill-opacity="1" stroke="#FFFFFF" fill="#00BFFF" id="img-72712b7f-42">
              <g class="marker" id="img-72712b7f-43">
                <g transform="translate(59.15,30.71)" id="img-72712b7f-44">
                  <circle cx="0" cy="0" r="0.9" class="primitive"/>
                </g>
              </g>
            </g>
            <g class="color_RGBA{Float32}(0.0f0,0.74736935f0,1.0f0,1.0f0)" fill-opacity="1" stroke="#FFFFFF" fill="#00BFFF" id="img-72712b7f-45">
              <g class="marker" id="img-72712b7f-46">
                <g transform="translate(101.07,54.37)" id="img-72712b7f-47">
                  <circle cx="0" cy="0" r="0.9" class="primitive"/>
                </g>
              </g>
            </g>
            <g class="color_RGBA{Float32}(0.0f0,0.74736935f0,1.0f0,1.0f0)" fill-opacity="1" stroke="#FFFFFF" fill="#00BFFF" id="img-72712b7f-48">
              <g class="marker" id="img-72712b7f-49">
                <g transform="translate(41.13,20.54)" id="img-72712b7f-50">
                  <circle cx="0" cy="0" r="0.9" class="primitive"/>
                </g>
              </g>
            </g>
            <g class="color_RGBA{Float32}(0.0f0,0.74736935f0,1.0f0,1.0f0)" fill-opacity="1" stroke="#FFFFFF" fill="#00BFFF" id="img-72712b7f-51">
              <g class="marker" id="img-72712b7f-52">
                <g transform="translate(100.17,53.86)" id="img-72712b7f-53">
                  <circle cx="0" cy="0" r="0.9" class="primitive"/>
                </g>
              </g>
            </g>
            <g class="color_RGBA{Float32}(0.0f0,0.74736935f0,1.0f0,1.0f0)" fill-opacity="1" stroke="#FFFFFF" fill="#00BFFF" id="img-72712b7f-54">
              <g class="marker" id="img-72712b7f-55">
                <g transform="translate(47.44,24.1)" id="img-72712b7f-56">
                  <circle cx="0" cy="0" r="0.9" class="primitive"/>
                </g>
              </g>
            </g>
            <g class="color_RGBA{Float32}(0.0f0,0.74736935f0,1.0f0,1.0f0)" fill-opacity="1" stroke="#FFFFFF" fill="#00BFFF" id="img-72712b7f-57">
              <g class="marker" id="img-72712b7f-58">
                <g transform="translate(122.25,66.32)" id="img-72712b7f-59">
                  <circle cx="0" cy="0" r="0.9" class="primitive"/>
                </g>
              </g>
            </g>
          </g>
        </g>
        <g stroke-width="0.3" fill="#000000" fill-opacity="0.000" class="geometry" id="img-72712b7f-60">
          <g class="color_LCHab{Float32}(70.0f0,60.0f0,240.0f0)" stroke-dasharray="none" stroke="#00BFFF" id="img-72712b7f-61">
            <g transform="translate(81.69,43.43)" id="img-72712b7f-62">
              <path fill="none" d="M-49.58,-27.98 L-49.18,-27.75 -48.78,-27.53 -48.38,-27.3 -47.98,-27.08 -47.59,-26.85 -47.19,-26.63 -46.79,-26.4 -46.39,-26.18 -45.99,-25.96 -45.6,-25.73 -45.2,-25.51 -44.8,-25.28 -44.4,-25.06 -44,-24.83 -43.6,-24.61 -43.21,-24.38 -42.81,-24.16 -42.41,-23.93 -42.01,-23.71 -41.61,-23.48 -41.22,-23.26 -40.82,-23.03 -40.42,-22.81 -40.02,-22.58 -39.62,-22.36 -39.22,-22.14 -38.83,-21.91 -38.43,-21.69 -38.03,-21.46 -37.63,-21.24 -37.23,-21.01 -36.83,-20.79 -36.44,-20.56 -36.04,-20.34 -35.64,-20.11 -35.24,-19.89 -34.84,-19.66 -34.45,-19.44 -34.05,-19.21 -33.65,-18.99 -33.25,-18.76 -32.85,-18.54 -32.45,-18.31 -32.06,-18.09 -31.66,-17.87 -31.26,-17.64 -30.86,-17.42 -30.46,-17.19 -30.07,-16.97 -29.67,-16.74 -29.27,-16.52 -28.87,-16.29 -28.47,-16.07 -28.07,-15.84 -27.68,-15.62 -27.28,-15.39 -26.88,-15.17 -26.48,-14.94 -26.08,-14.72 -25.68,-14.49 -25.29,-14.27 -24.89,-14.05 -24.49,-13.82 -24.09,-13.6 -23.69,-13.37 -23.3,-13.15 -22.9,-12.92 -22.5,-12.7 -22.1,-12.47 -21.7,-12.25 -21.3,-12.02 -20.91,-11.8 -20.51,-11.57 -20.11,-11.35 -19.71,-11.12 -19.31,-10.9 -18.92,-10.67 -18.52,-10.45 -18.12,-10.22 -17.72,-10 -17.32,-9.78 -16.92,-9.55 -16.53,-9.33 -16.13,-9.1 -15.73,-8.88 -15.33,-8.65 -14.93,-8.43 -14.53,-8.2 -14.14,-7.98 -13.74,-7.75 -13.34,-7.53 -12.94,-7.3 -12.54,-7.08 -12.15,-6.85 -11.75,-6.63 -11.35,-6.4 -10.95,-6.18 -10.55,-5.96 -10.15,-5.73 -9.76,-5.51 -9.36,-5.28 -8.96,-5.06 -8.56,-4.83 -8.16,-4.61 -7.77,-4.38 -7.37,-4.16 -6.97,-3.93 -6.57,-3.71 -6.17,-3.48 -5.77,-3.26 -5.38,-3.03 -4.98,-2.81 -4.58,-2.58 -4.18,-2.36 -3.78,-2.13 -3.38,-1.91 -2.99,-1.69 -2.59,-1.46 -2.19,-1.24 -1.79,-1.01 -1.39,-0.79 -1,-0.56 -0.6,-0.34 -0.2,-0.11 0.2,0.11 0.6,0.34 1,0.56 1.39,0.79 1.79,1.01 2.19,1.24 2.59,1.46 2.99,1.69 3.38,1.91 3.78,2.13 4.18,2.36 4.58,2.58 4.98,2.81 5.38,3.03 5.77,3.26 6.17,3.48 6.57,3.71 6.97,3.93 7.37,4.16 7.77,4.38 8.16,4.61 8.56,4.83 8.96,5.06 9.36,5.28 9.76,5.51 10.15,5.73 10.55,5.96 10.95,6.18 11.35,6.4 11.75,6.63 12.15,6.85 12.54,7.08 12.94,7.3 13.34,7.53 13.74,7.75 14.14,7.98 14.53,8.2 14.93,8.43 15.33,8.65 15.73,8.88 16.13,9.1 16.53,9.33 16.92,9.55 17.32,9.78 17.72,10 18.12,10.22 18.52,10.45 18.92,10.67 19.31,10.9 19.71,11.12 20.11,11.35 20.51,11.57 20.91,11.8 21.3,12.02 21.7,12.25 22.1,12.47 22.5,12.7 22.9,12.92 23.3,13.15 23.69,13.37 24.09,13.6 24.49,13.82 24.89,14.05 25.29,14.27 25.68,14.49 26.08,14.72 26.48,14.94 26.88,15.17 27.28,15.39 27.68,15.62 28.07,15.84 28.47,16.07 28.87,16.29 29.27,16.52 29.67,16.74 30.07,16.97 30.46,17.19 30.86,17.42 31.26,17.64 31.66,17.87 32.06,18.09 32.45,18.31 32.85,18.54 33.25,18.76 33.65,18.99 34.05,19.21 34.45,19.44 34.84,19.66 35.24,19.89 35.64,20.11 36.04,20.34 36.44,20.56 36.83,20.79 37.23,21.01 37.63,21.24 38.03,21.46 38.43,21.69 38.83,21.91 39.22,22.14 39.62,22.36 40.02,22.58 40.42,22.81 40.82,23.03 41.22,23.26 41.61,23.48 42.01,23.71 42.41,23.93 42.81,24.16 43.21,24.38 43.6,24.61 44,24.83 44.4,25.06 44.8,25.28 45.2,25.51 45.6,25.73 45.99,25.96 46.39,26.18 46.79,26.4 47.19,26.63 47.59,26.85 47.98,27.08 48.38,27.3 48.78,27.53 49.18,27.75 49.58,27.98 " class="primitive"/>
            </g>
          </g>
        </g>
        <g class="geometry" id="img-72712b7f-63">
          <g stroke-width="0.3" id="img-72712b7f-64">
            <g class="color_RGBA{Float32}(0.0f0,0.74736935f0,1.0f0,1.0f0)" fill-opacity="1" stroke="#FFFFFF" fill="#00BFFF" id="img-72712b7f-65">
              <g class="marker" id="img-72712b7f-66">
                <g transform="translate(71.77,24.93)" id="img-72712b7f-67">
                  <circle cx="0" cy="0" r="0.9" class="primitive"/>
                </g>
              </g>
            </g>
            <g class="color_RGBA{Float32}(0.0f0,0.74736935f0,1.0f0,1.0f0)" fill-opacity="1" stroke="#FFFFFF" fill="#00BFFF" id="img-72712b7f-68">
              <g class="marker" id="img-72712b7f-69">
                <g transform="translate(77.18,60.79)" id="img-72712b7f-70">
                  <circle cx="0" cy="0" r="0.9" class="primitive"/>
                </g>
              </g>
            </g>
            <g class="color_RGBA{Float32}(0.0f0,0.74736935f0,1.0f0,1.0f0)" fill-opacity="1" stroke="#FFFFFF" fill="#00BFFF" id="img-72712b7f-71">
              <g class="marker" id="img-72712b7f-72">
                <g transform="translate(78.53,24.93)" id="img-72712b7f-73">
                  <circle cx="0" cy="0" r="0.9" class="primitive"/>
                </g>
              </g>
            </g>
            <g class="color_RGBA{Float32}(0.0f0,0.74736935f0,1.0f0,1.0f0)" fill-opacity="1" stroke="#FFFFFF" fill="#00BFFF" id="img-72712b7f-74">
              <g class="marker" id="img-72712b7f-75">
                <g transform="translate(85.75,60.79)" id="img-72712b7f-76">
                  <circle cx="0" cy="0" r="0.9" class="primitive"/>
                </g>
              </g>
            </g>
            <g class="color_RGBA{Float32}(0.0f0,0.74736935f0,1.0f0,1.0f0)" fill-opacity="1" stroke="#FFFFFF" fill="#00BFFF" id="img-72712b7f-77">
              <g class="marker" id="img-72712b7f-78">
                <g transform="translate(91.15,24.93)" id="img-72712b7f-79">
                  <circle cx="0" cy="0" r="0.9" class="primitive"/>
                </g>
              </g>
            </g>
            <g class="color_RGBA{Float32}(0.0f0,0.74736935f0,1.0f0,1.0f0)" fill-opacity="1" stroke="#FFFFFF" fill="#00BFFF" id="img-72712b7f-80">
              <g class="marker" id="img-72712b7f-81">
                <g transform="translate(92.51,60.79)" id="img-72712b7f-82">
                  <circle cx="0" cy="0" r="0.9" class="primitive"/>
                </g>
              </g>
            </g>
            <g class="color_RGBA{Float32}(0.0f0,0.74736935f0,1.0f0,1.0f0)" fill-opacity="1" stroke="#FFFFFF" fill="#00BFFF" id="img-72712b7f-83">
              <g class="marker" id="img-72712b7f-84">
                <g transform="translate(59.15,24.93)" id="img-72712b7f-85">
                  <circle cx="0" cy="0" r="0.9" class="primitive"/>
                </g>
              </g>
            </g>
            <g class="color_RGBA{Float32}(0.0f0,0.74736935f0,1.0f0,1.0f0)" fill-opacity="1" stroke="#FFFFFF" fill="#00BFFF" id="img-72712b7f-86">
              <g class="marker" id="img-72712b7f-87">
                <g transform="translate(101.07,60.79)" id="img-72712b7f-88">
                  <circle cx="0" cy="0" r="0.9" class="primitive"/>
                </g>
              </g>
            </g>
            <g class="color_RGBA{Float32}(0.0f0,0.74736935f0,1.0f0,1.0f0)" fill-opacity="1" stroke="#FFFFFF" fill="#00BFFF" id="img-72712b7f-89">
              <g class="marker" id="img-72712b7f-90">
                <g transform="translate(41.13,24.93)" id="img-72712b7f-91">
                  <circle cx="0" cy="0" r="0.9" class="primitive"/>
                </g>
              </g>
            </g>
            <g class="color_RGBA{Float32}(0.0f0,0.74736935f0,1.0f0,1.0f0)" fill-opacity="1" stroke="#FFFFFF" fill="#00BFFF" id="img-72712b7f-92">
              <g class="marker" id="img-72712b7f-93">
                <g transform="translate(100.17,60.79)" id="img-72712b7f-94">
                  <circle cx="0" cy="0" r="0.9" class="primitive"/>
                </g>
              </g>
            </g>
            <g class="color_RGBA{Float32}(0.0f0,0.74736935f0,1.0f0,1.0f0)" fill-opacity="1" stroke="#FFFFFF" fill="#00BFFF" id="img-72712b7f-95">
              <g class="marker" id="img-72712b7f-96">
                <g transform="translate(47.44,24.93)" id="img-72712b7f-97">
                  <circle cx="0" cy="0" r="0.9" class="primitive"/>
                </g>
              </g>
            </g>
            <g class="color_RGBA{Float32}(0.0f0,0.74736935f0,1.0f0,1.0f0)" fill-opacity="1" stroke="#FFFFFF" fill="#00BFFF" id="img-72712b7f-98">
              <g class="marker" id="img-72712b7f-99">
                <g transform="translate(122.25,60.79)" id="img-72712b7f-100">
                  <circle cx="0" cy="0" r="0.9" class="primitive"/>
                </g>
              </g>
            </g>
          </g>
        </g>
      </g>
    </g>
  </g>
  <g class="guide ylabels" font-size="2.82" font-family="'PT Sans Caption','Helvetica Neue','Helvetica',sans-serif" fill="#6C606B" id="img-72712b7f-101">
    <g transform="translate(18.74,78.71)" id="img-72712b7f-102">
      <g class="primitive">
        <text text-anchor="end" dy="0.35em">-0.5</text>
      </g>
    </g>
    <g transform="translate(18.74,60.79)" id="img-72712b7f-103">
      <g class="primitive">
        <text text-anchor="end" dy="0.35em">0.0</text>
      </g>
    </g>
    <g transform="translate(18.74,42.86)" id="img-72712b7f-104">
      <g class="primitive">
        <text text-anchor="end" dy="0.35em">0.5</text>
      </g>
    </g>
    <g transform="translate(18.74,24.93)" id="img-72712b7f-105">
      <g class="primitive">
        <text text-anchor="end" dy="0.35em">1.0</text>
      </g>
    </g>
    <g transform="translate(18.74,7)" id="img-72712b7f-106">
      <g class="primitive">
        <text text-anchor="end" dy="0.35em">1.5</text>
      </g>
    </g>
  </g>
  <g font-size="3.88" font-family="'PT Sans','Helvetica Neue','Helvetica',sans-serif" fill="#564A55" stroke="#000000" stroke-opacity="0.000" id="img-72712b7f-107">
    <g transform="translate(8.81,40.86)" id="img-72712b7f-108">
      <g class="primitive">
        <text text-anchor="middle" dy="0.35em" transform="rotate(-90,0, 2)">Y_digit</text>
      </g>
    </g>
  </g>
</g>
<defs>
  <clipPath id="img-72712b7f-4">
    <path d="M19.75,5 L136.42,5 136.42,80.72 19.75,80.72 " />
  </clipPath>
</defs>
</svg>
