<?xml version="1.0" encoding="UTF-8"?>
<svg xmlns="http://www.w3.org/2000/svg"
     xmlns:xlink="http://www.w3.org/1999/xlink"
     xmlns:gadfly="http://www.gadflyjl.org/ns"
     version="1.2"
     width="141.42mm" height="100mm" viewBox="0 0 141.42 100"
     stroke="none"
     fill="#000000"
     stroke-width="0.3"
     font-size="3.88"
>
<defs>
  <marker id="arrow" markerWidth="15" markerHeight="7" refX="5" refY="3.5" orient="auto" markerUnits="strokeWidth">
    <path d="M0,0 L15,3.5 L0,7 z" stroke="context-stroke" fill="context-stroke"/>
  </marker>
</defs>
<g class="plotroot xscalable yscalable" id="img-e28e778c-1">
  <g font-size="3.88" font-family="'PT Sans','Helvetica Neue','Helvetica',sans-serif" fill="#564A55" stroke="#000000" stroke-opacity="0.000" id="img-e28e778c-2">
    <g transform="translate(77.53,88.39)">
      <g class="primitive">
        <text text-anchor="middle" dy="0.6em">W</text>
      </g>
    </g>
  </g>
  <g class="guide xlabels" font-size="2.82" font-family="'PT Sans Caption','Helvetica Neue','Helvetica',sans-serif" fill="#6C606B" id="img-e28e778c-3">
    <g transform="translate(20.63,81.72)">
      <g class="primitive">
        <text text-anchor="middle" dy="0.6em">6.0</text>
      </g>
    </g>
    <g transform="translate(43.39,81.72)">
      <g class="primitive">
        <text text-anchor="middle" dy="0.6em">6.5</text>
      </g>
    </g>
    <g transform="translate(66.15,81.72)">
      <g class="primitive">
        <text text-anchor="middle" dy="0.6em">7.0</text>
      </g>
    </g>
    <g transform="translate(88.91,81.72)">
      <g class="primitive">
        <text text-anchor="middle" dy="0.6em">7.5</text>
      </g>
    </g>
    <g transform="translate(111.66,81.72)">
      <g class="primitive">
        <text text-anchor="middle" dy="0.6em">8.0</text>
      </g>
    </g>
    <g transform="translate(134.42,81.72)">
      <g class="primitive">
        <text text-anchor="middle" dy="0.6em">8.5</text>
      </g>
    </g>
  </g>
  <g clip-path="url(#img-e28e778c-4)">
    <g id="img-e28e778c-5">
      <g pointer-events="visible" stroke-width="0.3" fill="#000000" fill-opacity="0.000" stroke="#000000" stroke-opacity="0.000" class="guide background" id="img-e28e778c-6">
        <g transform="translate(77.53,42.86)" id="img-e28e778c-7">
          <path d="M-58.89,-37.86 L58.89,-37.86 58.89,37.86 -58.89,37.86  z" class="primitive"/>
        </g>
      </g>
      <g class="guide ygridlines xfixed" stroke-dasharray="0.5,0.5" stroke-width="0.2" stroke="#D0D0E0" id="img-e28e778c-8">
        <g transform="translate(77.53,78.71)" id="img-e28e778c-9">
          <path fill="none" d="M-58.89,0 L58.89,0 " class="primitive"/>
        </g>
        <g transform="translate(77.53,42.86)" id="img-e28e778c-10">
          <path fill="none" d="M-58.89,0 L58.89,0 " class="primitive"/>
        </g>
        <g transform="translate(77.53,7)" id="img-e28e778c-11">
          <path fill="none" d="M-58.89,0 L58.89,0 " class="primitive"/>
        </g>
      </g>
      <g class="guide xgridlines yfixed" stroke-dasharray="0.5,0.5" stroke-width="0.2" stroke="#D0D0E0" id="img-e28e778c-12">
        <g transform="translate(20.63,42.86)" id="img-e28e778c-13">
          <path fill="none" d="M0,-37.86 L0,37.86 " class="primitive"/>
        </g>
        <g transform="translate(43.39,42.86)" id="img-e28e778c-14">
          <path fill="none" d="M0,-37.86 L0,37.86 " class="primitive"/>
        </g>
        <g transform="translate(66.15,42.86)" id="img-e28e778c-15">
          <path fill="none" d="M0,-37.86 L0,37.86 " class="primitive"/>
        </g>
        <g transform="translate(88.91,42.86)" id="img-e28e778c-16">
          <path fill="none" d="M0,-37.86 L0,37.86 " class="primitive"/>
        </g>
        <g transform="translate(111.66,42.86)" id="img-e28e778c-17">
          <path fill="none" d="M0,-37.86 L0,37.86 " class="primitive"/>
        </g>
        <g transform="translate(134.42,42.86)" id="img-e28e778c-18">
          <path fill="none" d="M0,-37.86 L0,37.86 " class="primitive"/>
        </g>
      </g>
      <g class="plotpanel" id="img-e28e778c-19">
        <metadata>
          <boundingbox value="18.63166666666666mm 5.0mm 117.78968957064285mm 75.715mm"/>
          <unitbox value="5.9560592878066 1.0278881684445373 2.5878814243868007 -1.055776336889075"/>
        </metadata>
        <g class="geometry" id="img-e28e778c-20">
          <g stroke-width="0.3" id="img-e28e778c-21">
            <g class="color_RGBA{Float32}(0.0f0,0.74736935f0,1.0f0,1.0f0)" fill-opacity="1" stroke="#FFFFFF" fill="#00BFFF" id="img-e28e778c-22">
              <g class="marker" id="img-e28e778c-23">
                <g transform="translate(71.15,20.14)" id="img-e28e778c-24">
                  <circle cx="0" cy="0" r="0.9" class="primitive"/>
                </g>
              </g>
            </g>
            <g class="color_RGBA{Float32}(0.0f0,0.74736935f0,1.0f0,1.0f0)" fill-opacity="1" stroke="#FFFFFF" fill="#00BFFF" id="img-e28e778c-25">
              <g class="marker" id="img-e28e778c-26">
                <g transform="translate(76.62,30.42)" id="img-e28e778c-27">
                  <circle cx="0" cy="0" r="0.9" class="primitive"/>
                </g>
              </g>
            </g>
            <g class="color_RGBA{Float32}(0.0f0,0.74736935f0,1.0f0,1.0f0)" fill-opacity="1" stroke="#FFFFFF" fill="#00BFFF" id="img-e28e778c-28">
              <g class="marker" id="img-e28e778c-29">
                <g transform="translate(77.98,33.55)" id="img-e28e778c-30">
                  <circle cx="0" cy="0" r="0.9" class="primitive"/>
                </g>
              </g>
            </g>
            <g class="color_RGBA{Float32}(0.0f0,0.74736935f0,1.0f0,1.0f0)" fill-opacity="1" stroke="#FFFFFF" fill="#00BFFF" id="img-e28e778c-31">
              <g class="marker" id="img-e28e778c-32">
                <g transform="translate(85.26,51.59)" id="img-e28e778c-33">
                  <circle cx="0" cy="0" r="0.9" class="primitive"/>
                </g>
              </g>
            </g>
            <g class="color_RGBA{Float32}(0.0f0,0.74736935f0,1.0f0,1.0f0)" fill-opacity="1" stroke="#FFFFFF" fill="#00BFFF" id="img-e28e778c-34">
              <g class="marker" id="img-e28e778c-35">
                <g transform="translate(90.73,62.97)" id="img-e28e778c-36">
                  <circle cx="0" cy="0" r="0.9" class="primitive"/>
                </g>
              </g>
            </g>
            <g class="color_RGBA{Float32}(0.0f0,0.74736935f0,1.0f0,1.0f0)" fill-opacity="1" stroke="#FFFFFF" fill="#00BFFF" id="img-e28e778c-37">
              <g class="marker" id="img-e28e778c-38">
                <g transform="translate(92.09,65.21)" id="img-e28e778c-39">
                  <circle cx="0" cy="0" r="0.9" class="primitive"/>
                </g>
              </g>
            </g>
            <g class="color_RGBA{Float32}(0.0f0,0.74736935f0,1.0f0,1.0f0)" fill-opacity="1" stroke="#FFFFFF" fill="#00BFFF" id="img-e28e778c-40">
              <g class="marker" id="img-e28e778c-41">
                <g transform="translate(58.41,9.56)" id="img-e28e778c-42">
                  <circle cx="0" cy="0" r="0.9" class="primitive"/>
                </g>
              </g>
            </g>
            <g class="color_RGBA{Float32}(0.0f0,0.74736935f0,1.0f0,1.0f0)" fill-opacity="1" stroke="#FFFFFF" fill="#00BFFF" id="img-e28e778c-43">
              <g class="marker" id="img-e28e778c-44">
                <g transform="translate(100.74,74.12)" id="img-e28e778c-45">
                  <circle cx="0" cy="0" r="0.9" class="primitive"/>
                </g>
              </g>
            </g>
            <g class="color_RGBA{Float32}(0.0f0,0.74736935f0,1.0f0,1.0f0)" fill-opacity="1" stroke="#FFFFFF" fill="#00BFFF" id="img-e28e778c-46">
              <g class="marker" id="img-e28e778c-47">
                <g transform="translate(40.2,7.2)" id="img-e28e778c-48">
                  <circle cx="0" cy="0" r="0.9" class="primitive"/>
                </g>
              </g>
            </g>
            <g class="color_RGBA{Float32}(0.0f0,0.74736935f0,1.0f0,1.0f0)" fill-opacity="1" stroke="#FFFFFF" fill="#00BFFF" id="img-e28e778c-49">
              <g class="marker" id="img-e28e778c-50">
                <g transform="translate(99.83,73.54)" id="img-e28e778c-51">
                  <circle cx="0" cy="0" r="0.9" class="primitive"/>
                </g>
              </g>
            </g>
            <g class="color_RGBA{Float32}(0.0f0,0.74736935f0,1.0f0,1.0f0)" fill-opacity="1" stroke="#FFFFFF" fill="#00BFFF" id="img-e28e778c-52">
              <g class="marker" id="img-e28e778c-53">
                <g transform="translate(46.58,7.5)" id="img-e28e778c-54">
                  <circle cx="0" cy="0" r="0.9" class="primitive"/>
                </g>
              </g>
            </g>
            <g class="color_RGBA{Float32}(0.0f0,0.74736935f0,1.0f0,1.0f0)" fill-opacity="1" stroke="#FFFFFF" fill="#00BFFF" id="img-e28e778c-55">
              <g class="marker" id="img-e28e778c-56">
                <g transform="translate(122.13,78.48)" id="img-e28e778c-57">
                  <circle cx="0" cy="0" r="0.9" class="primitive"/>
                </g>
              </g>
            </g>
          </g>
        </g>
        <g stroke-width="0.3" fill="#000000" fill-opacity="0.000" class="geometry" id="img-e28e778c-58">
          <g class="color_LCHab{Float32}(70.0f0,60.0f0,240.0f0)" stroke-dasharray="none" stroke="#00BFFF" id="img-e28e778c-59">
            <g transform="translate(81.17,42.45)" id="img-e28e778c-60">
              <path fill="none" d="M-50.07,-35.39 L-49.67,-35.39 -49.26,-35.39 -48.86,-35.38 -48.46,-35.38 -48.06,-35.37 -47.65,-35.37 -47.25,-35.36 -46.85,-35.36 -46.45,-35.35 -46.05,-35.35 -45.64,-35.34 -45.24,-35.34 -44.84,-35.33 -44.44,-35.32 -44.04,-35.32 -43.63,-35.31 -43.23,-35.3 -42.83,-35.29 -42.43,-35.28 -42.02,-35.27 -41.62,-35.26 -41.22,-35.25 -40.82,-35.24 -40.42,-35.23 -40.01,-35.22 -39.61,-35.2 -39.21,-35.19 -38.81,-35.17 -38.41,-35.16 -38,-35.14 -37.6,-35.12 -37.2,-35.1 -36.8,-35.08 -36.39,-35.06 -35.99,-35.04 -35.59,-35.02 -35.19,-34.99 -34.79,-34.96 -34.38,-34.94 -33.98,-34.91 -33.58,-34.88 -33.18,-34.84 -32.78,-34.81 -32.37,-34.77 -31.97,-34.73 -31.57,-34.69 -31.17,-34.65 -30.76,-34.6 -30.36,-34.55 -29.96,-34.5 -29.56,-34.44 -29.16,-34.39 -28.75,-34.33 -28.35,-34.26 -27.95,-34.19 -27.55,-34.12 -27.15,-34.04 -26.74,-33.96 -26.34,-33.88 -25.94,-33.79 -25.54,-33.7 -25.13,-33.6 -24.73,-33.49 -24.33,-33.38 -23.93,-33.26 -23.53,-33.14 -23.12,-33.01 -22.72,-32.87 -22.32,-32.73 -21.92,-32.57 -21.51,-32.41 -21.11,-32.24 -20.71,-32.06 -20.31,-31.88 -19.91,-31.68 -19.5,-31.47 -19.1,-31.25 -18.7,-31.02 -18.3,-30.78 -17.9,-30.53 -17.49,-30.26 -17.09,-29.98 -16.69,-29.69 -16.29,-29.38 -15.88,-29.05 -15.48,-28.72 -15.08,-28.36 -14.68,-27.99 -14.28,-27.6 -13.87,-27.2 -13.47,-26.77 -13.07,-26.33 -12.67,-25.87 -12.27,-25.39 -11.86,-24.89 -11.46,-24.37 -11.06,-23.82 -10.66,-23.26 -10.25,-22.67 -9.85,-22.07 -9.45,-21.44 -9.05,-20.79 -8.65,-20.11 -8.24,-19.42 -7.84,-18.7 -7.44,-17.96 -7.04,-17.2 -6.64,-16.41 -6.23,-15.61 -5.83,-14.79 -5.43,-13.94 -5.03,-13.08 -4.62,-12.19 -4.22,-11.29 -3.82,-10.37 -3.42,-9.44 -3.02,-8.49 -2.61,-7.53 -2.21,-6.56 -1.81,-5.57 -1.41,-4.58 -1.01,-3.57 -0.6,-2.57 -0.2,-1.55 0.2,-0.54 0.6,0.48 1.01,1.5 1.41,2.51 1.81,3.53 2.21,4.54 2.61,5.54 3.02,6.53 3.42,7.51 3.82,8.48 4.22,9.44 4.62,10.39 5.03,11.32 5.43,12.24 5.83,13.14 6.23,14.02 6.64,14.88 7.04,15.72 7.44,16.54 7.84,17.35 8.24,18.13 8.65,18.88 9.05,19.62 9.45,20.34 9.85,21.03 10.25,21.7 10.66,22.35 11.06,22.97 11.46,23.58 11.86,24.16 12.27,24.72 12.67,25.26 13.07,25.78 13.47,26.28 13.87,26.75 14.28,27.21 14.68,27.65 15.08,28.07 15.48,28.48 15.88,28.86 16.29,29.23 16.69,29.58 17.09,29.92 17.49,30.24 17.9,30.55 18.3,30.84 18.7,31.12 19.1,31.38 19.5,31.63 19.91,31.87 20.31,32.1 20.71,32.32 21.11,32.53 21.51,32.72 21.92,32.91 22.32,33.09 22.72,33.25 23.12,33.41 23.53,33.57 23.93,33.71 24.33,33.85 24.73,33.98 25.13,34.1 25.54,34.21 25.94,34.32 26.34,34.43 26.74,34.53 27.15,34.62 27.55,34.71 27.95,34.79 28.35,34.87 28.75,34.95 29.16,35.02 29.56,35.09 29.96,35.15 30.36,35.21 30.76,35.27 31.17,35.33 31.57,35.38 31.97,35.42 32.37,35.47 32.78,35.51 33.18,35.56 33.58,35.59 33.98,35.63 34.38,35.67 34.79,35.7 35.19,35.73 35.59,35.76 35.99,35.79 36.39,35.81 36.8,35.84 37.2,35.86 37.6,35.88 38,35.91 38.41,35.93 38.81,35.94 39.21,35.96 39.61,35.98 40.01,35.99 40.42,36.01 40.82,36.02 41.22,36.04 41.62,36.05 42.02,36.06 42.43,36.07 42.83,36.08 43.23,36.09 43.63,36.1 44.04,36.11 44.44,36.12 44.84,36.13 45.24,36.14 45.64,36.14 46.05,36.15 46.45,36.16 46.85,36.16 47.25,36.17 47.65,36.17 48.06,36.18 48.46,36.18 48.86,36.19 49.26,36.19 49.67,36.2 50.07,36.2 " class="primitive"/>
            </g>
          </g>
        </g>
        <g class="geometry" id="img-e28e778c-61">
          <g stroke-width="0.3" id="img-e28e778c-62">
            <g class="color_RGBA{Float32}(0.0f0,0.74736935f0,1.0f0,1.0f0)" fill-opacity="1" stroke="#FFFFFF" fill="#00BFFF" id="img-e28e778c-63">
              <g class="marker" id="img-e28e778c-64">
                <g transform="translate(71.15,7)" id="img-e28e778c-65">
                  <circle cx="0" cy="0" r="0.9" class="primitive"/>
                </g>
              </g>
            </g>
            <g class="color_RGBA{Float32}(0.0f0,0.74736935f0,1.0f0,1.0f0)" fill-opacity="1" stroke="#FFFFFF" fill="#00BFFF" id="img-e28e778c-66">
              <g class="marker" id="img-e28e778c-67">
                <g transform="translate(76.62,78.71)" id="img-e28e778c-68">
                  <circle cx="0" cy="0" r="0.9" class="primitive"/>
                </g>
              </g>
            </g>
            <g class="color_RGBA{Float32}(0.0f0,0.74736935f0,1.0f0,1.0f0)" fill-opacity="1" stroke="#FFFFFF" fill="#00BFFF" id="img-e28e778c-69">
              <g class="marker" id="img-e28e778c-70">
                <g transform="translate(77.98,7)" id="img-e28e778c-71">
                  <circle cx="0" cy="0" r="0.9" class="primitive"/>
                </g>
              </g>
            </g>
            <g class="color_RGBA{Float32}(0.0f0,0.74736935f0,1.0f0,1.0f0)" fill-opacity="1" stroke="#FFFFFF" fill="#00BFFF" id="img-e28e778c-72">
              <g class="marker" id="img-e28e778c-73">
                <g transform="translate(85.26,78.71)" id="img-e28e778c-74">
                  <circle cx="0" cy="0" r="0.9" class="primitive"/>
                </g>
              </g>
            </g>
            <g class="color_RGBA{Float32}(0.0f0,0.74736935f0,1.0f0,1.0f0)" fill-opacity="1" stroke="#FFFFFF" fill="#00BFFF" id="img-e28e778c-75">
              <g class="marker" id="img-e28e778c-76">
                <g transform="translate(90.73,7)" id="img-e28e778c-77">
                  <circle cx="0" cy="0" r="0.9" class="primitive"/>
                </g>
              </g>
            </g>
            <g class="color_RGBA{Float32}(0.0f0,0.74736935f0,1.0f0,1.0f0)" fill-opacity="1" stroke="#FFFFFF" fill="#00BFFF" id="img-e28e778c-78">
              <g class="marker" id="img-e28e778c-79">
                <g transform="translate(92.09,78.71)" id="img-e28e778c-80">
                  <circle cx="0" cy="0" r="0.9" class="primitive"/>
                </g>
              </g>
            </g>
            <g class="color_RGBA{Float32}(0.0f0,0.74736935f0,1.0f0,1.0f0)" fill-opacity="1" stroke="#FFFFFF" fill="#00BFFF" id="img-e28e778c-81">
              <g class="marker" id="img-e28e778c-82">
                <g transform="translate(58.41,7)" id="img-e28e778c-83">
                  <circle cx="0" cy="0" r="0.9" class="primitive"/>
                </g>
              </g>
            </g>
            <g class="color_RGBA{Float32}(0.0f0,0.74736935f0,1.0f0,1.0f0)" fill-opacity="1" stroke="#FFFFFF" fill="#00BFFF" id="img-e28e778c-84">
              <g class="marker" id="img-e28e778c-85">
                <g transform="translate(100.74,78.71)" id="img-e28e778c-86">
                  <circle cx="0" cy="0" r="0.9" class="primitive"/>
                </g>
              </g>
            </g>
            <g class="color_RGBA{Float32}(0.0f0,0.74736935f0,1.0f0,1.0f0)" fill-opacity="1" stroke="#FFFFFF" fill="#00BFFF" id="img-e28e778c-87">
              <g class="marker" id="img-e28e778c-88">
                <g transform="translate(40.2,7)" id="img-e28e778c-89">
                  <circle cx="0" cy="0" r="0.9" class="primitive"/>
                </g>
              </g>
            </g>
            <g class="color_RGBA{Float32}(0.0f0,0.74736935f0,1.0f0,1.0f0)" fill-opacity="1" stroke="#FFFFFF" fill="#00BFFF" id="img-e28e778c-90">
              <g class="marker" id="img-e28e778c-91">
                <g transform="translate(99.83,78.71)" id="img-e28e778c-92">
                  <circle cx="0" cy="0" r="0.9" class="primitive"/>
                </g>
              </g>
            </g>
            <g class="color_RGBA{Float32}(0.0f0,0.74736935f0,1.0f0,1.0f0)" fill-opacity="1" stroke="#FFFFFF" fill="#00BFFF" id="img-e28e778c-93">
              <g class="marker" id="img-e28e778c-94">
                <g transform="translate(46.58,7)" id="img-e28e778c-95">
                  <circle cx="0" cy="0" r="0.9" class="primitive"/>
                </g>
              </g>
            </g>
            <g class="color_RGBA{Float32}(0.0f0,0.74736935f0,1.0f0,1.0f0)" fill-opacity="1" stroke="#FFFFFF" fill="#00BFFF" id="img-e28e778c-96">
              <g class="marker" id="img-e28e778c-97">
                <g transform="translate(122.13,78.71)" id="img-e28e778c-98">
                  <circle cx="0" cy="0" r="0.9" class="primitive"/>
                </g>
              </g>
            </g>
          </g>
        </g>
      </g>
    </g>
  </g>
  <g class="guide ylabels" font-size="2.82" font-family="'PT Sans Caption','Helvetica Neue','Helvetica',sans-serif" fill="#6C606B" id="img-e28e778c-99">
    <g transform="translate(17.63,78.71)" id="img-e28e778c-100">
      <g class="primitive">
        <text text-anchor="end" dy="0.35em">0.0</text>
      </g>
    </g>
    <g transform="translate(17.63,42.86)" id="img-e28e778c-101">
      <g class="primitive">
        <text text-anchor="end" dy="0.35em">0.5</text>
      </g>
    </g>
    <g transform="translate(17.63,7)" id="img-e28e778c-102">
      <g class="primitive">
        <text text-anchor="end" dy="0.35em">1.0</text>
      </g>
    </g>
  </g>
  <g font-size="3.88" font-family="'PT Sans','Helvetica Neue','Helvetica',sans-serif" fill="#564A55" stroke="#000000" stroke-opacity="0.000" id="img-e28e778c-103">
    <g transform="translate(8.81,40.86)" id="img-e28e778c-104">
      <g class="primitive">
        <text text-anchor="middle" dy="0.35em" transform="rotate(-90,0, 2)">Y_digit</text>
      </g>
    </g>
  </g>
</g>
<defs>
  <clipPath id="img-e28e778c-4">
    <path d="M18.63,5 L136.42,5 136.42,80.72 18.63,80.72 " />
  </clipPath>
</defs>
</svg>
