<?xml version="1.0" encoding="UTF-8"?>
<svg xmlns="http://www.w3.org/2000/svg"
     xmlns:xlink="http://www.w3.org/1999/xlink"
     xmlns:gadfly="http://www.gadflyjl.org/ns"
     version="1.2"
     width="141.42mm" height="100mm" viewBox="0 0 141.42 100"
     stroke="none"
     fill="#000000"
     stroke-width="0.3"
     font-size="3.88"
>
<defs>
  <marker id="arrow" markerWidth="15" markerHeight="7" refX="5" refY="3.5" orient="auto" markerUnits="strokeWidth">
    <path d="M0,0 L15,3.5 L0,7 z" stroke="context-stroke" fill="context-stroke"/>
  </marker>
</defs>
<g class="plotroot xscalable yscalable" id="img-8d085aa3-1">
  <g font-size="3.88" font-family="'PT Sans','Helvetica Neue','Helvetica',sans-serif" fill="#564A55" stroke="#000000" stroke-opacity="0.000" id="img-8d085aa3-2">
    <g transform="translate(76.69,88.39)">
      <g class="primitive">
        <text text-anchor="middle" dy="0.6em">W</text>
      </g>
    </g>
  </g>
  <g class="guide xlabels" font-size="2.82" font-family="'PT Sans Caption','Helvetica Neue','Helvetica',sans-serif" fill="#6C606B" id="img-8d085aa3-3">
    <g transform="translate(18.96,81.72)">
      <g class="primitive">
        <text text-anchor="middle" dy="0.6em">6.0</text>
      </g>
    </g>
    <g transform="translate(42.05,81.72)">
      <g class="primitive">
        <text text-anchor="middle" dy="0.6em">6.5</text>
      </g>
    </g>
    <g transform="translate(65.14,81.72)">
      <g class="primitive">
        <text text-anchor="middle" dy="0.6em">7.0</text>
      </g>
    </g>
    <g transform="translate(88.24,81.72)">
      <g class="primitive">
        <text text-anchor="middle" dy="0.6em">7.5</text>
      </g>
    </g>
    <g transform="translate(111.33,81.72)">
      <g class="primitive">
        <text text-anchor="middle" dy="0.6em">8.0</text>
      </g>
    </g>
    <g transform="translate(134.42,81.72)">
      <g class="primitive">
        <text text-anchor="middle" dy="0.6em">8.5</text>
      </g>
    </g>
  </g>
  <g clip-path="url(#img-8d085aa3-4)">
    <g id="img-8d085aa3-5">
      <g pointer-events="visible" stroke-width="0.3" fill="#000000" fill-opacity="0.000" stroke="#000000" stroke-opacity="0.000" class="guide background" id="img-8d085aa3-6">
        <g transform="translate(76.69,42.86)" id="img-8d085aa3-7">
          <path d="M-59.73,-37.86 L59.73,-37.86 59.73,37.86 -59.73,37.86  z" class="primitive"/>
        </g>
      </g>
      <g class="guide ygridlines xfixed" stroke-dasharray="0.5,0.5" stroke-width="0.2" stroke="#D0D0E0" id="img-8d085aa3-8">
        <g transform="translate(76.69,78.72)" id="img-8d085aa3-9">
          <path fill="none" d="M-59.73,0 L59.73,0 " class="primitive"/>
        </g>
        <g transform="translate(76.69,64.37)" id="img-8d085aa3-10">
          <path fill="none" d="M-59.73,0 L59.73,0 " class="primitive"/>
        </g>
        <g transform="translate(76.69,50.03)" id="img-8d085aa3-11">
          <path fill="none" d="M-59.73,0 L59.73,0 " class="primitive"/>
        </g>
        <g transform="translate(76.69,35.69)" id="img-8d085aa3-12">
          <path fill="none" d="M-59.73,0 L59.73,0 " class="primitive"/>
        </g>
        <g transform="translate(76.69,21.34)" id="img-8d085aa3-13">
          <path fill="none" d="M-59.73,0 L59.73,0 " class="primitive"/>
        </g>
        <g transform="translate(76.69,7)" id="img-8d085aa3-14">
          <path fill="none" d="M-59.73,0 L59.73,0 " class="primitive"/>
        </g>
      </g>
      <g class="guide xgridlines yfixed" stroke-dasharray="0.5,0.5" stroke-width="0.2" stroke="#D0D0E0" id="img-8d085aa3-15">
        <g transform="translate(18.96,42.86)" id="img-8d085aa3-16">
          <path fill="none" d="M0,-37.86 L0,37.86 " class="primitive"/>
        </g>
        <g transform="translate(42.05,42.86)" id="img-8d085aa3-17">
          <path fill="none" d="M0,-37.86 L0,37.86 " class="primitive"/>
        </g>
        <g transform="translate(65.14,42.86)" id="img-8d085aa3-18">
          <path fill="none" d="M0,-37.86 L0,37.86 " class="primitive"/>
        </g>
        <g transform="translate(88.24,42.86)" id="img-8d085aa3-19">
          <path fill="none" d="M0,-37.86 L0,37.86 " class="primitive"/>
        </g>
        <g transform="translate(111.33,42.86)" id="img-8d085aa3-20">
          <path fill="none" d="M0,-37.86 L0,37.86 " class="primitive"/>
        </g>
        <g transform="translate(134.42,42.86)" id="img-8d085aa3-21">
          <path fill="none" d="M0,-37.86 L0,37.86 " class="primitive"/>
        </g>
      </g>
      <g class="plotpanel" id="img-8d085aa3-22">
        <metadata>
          <boundingbox value="16.95916666666666mm 5.0mm 119.46218957064285mm 75.715mm"/>
          <unitbox value="5.956695780509681 15.139440842222687 2.5866084389806394 -5.278881684445374"/>
        </metadata>
        <g stroke-width="0.3" fill="#000000" fill-opacity="0.000" class="geometry" id="img-8d085aa3-23">
          <g class="color_LCHab{Float32}(70.0f0,60.0f0,240.0f0)" stroke-dasharray="none" stroke="#00BFFF" id="img-8d085aa3-24">
            <g transform="translate(80.39,46.93)" id="img-8d085aa3-25">
              <path fill="none" d="M-50.8,26.35 L-50.4,26.14 -49.99,25.93 -49.58,25.72 -49.17,25.51 -48.76,25.29 -48.36,25.08 -47.95,24.87 -47.54,24.66 -47.13,24.45 -46.72,24.24 -46.31,24.02 -45.91,23.81 -45.5,23.6 -45.09,23.39 -44.68,23.18 -44.27,22.97 -43.87,22.75 -43.46,22.54 -43.05,22.33 -42.64,22.12 -42.23,21.91 -41.83,21.7 -41.42,21.48 -41.01,21.27 -40.6,21.06 -40.19,20.85 -39.79,20.64 -39.38,20.43 -38.97,20.21 -38.56,20 -38.15,19.79 -37.75,19.58 -37.34,19.37 -36.93,19.16 -36.52,18.94 -36.11,18.73 -35.71,18.52 -35.3,18.31 -34.89,18.1 -34.48,17.89 -34.07,17.67 -33.66,17.46 -33.26,17.25 -32.85,17.04 -32.44,16.83 -32.03,16.62 -31.62,16.4 -31.22,16.19 -30.81,15.98 -30.4,15.77 -29.99,15.56 -29.58,15.35 -29.18,15.13 -28.77,14.92 -28.36,14.71 -27.95,14.5 -27.54,14.29 -27.14,14.08 -26.73,13.86 -26.32,13.65 -25.91,13.44 -25.5,13.23 -25.1,13.02 -24.69,12.81 -24.28,12.59 -23.87,12.38 -23.46,12.17 -23.06,11.96 -22.65,11.75 -22.24,11.54 -21.83,11.32 -21.42,11.11 -21.02,10.9 -20.61,10.69 -20.2,10.48 -19.79,10.27 -19.38,10.05 -18.97,9.84 -18.57,9.63 -18.16,9.42 -17.75,9.21 -17.34,9 -16.93,8.78 -16.53,8.57 -16.12,8.36 -15.71,8.15 -15.3,7.94 -14.89,7.73 -14.49,7.51 -14.08,7.3 -13.67,7.09 -13.26,6.88 -12.85,6.67 -12.45,6.46 -12.04,6.24 -11.63,6.03 -11.22,5.82 -10.81,5.61 -10.41,5.4 -10,5.19 -9.59,4.97 -9.18,4.76 -8.77,4.55 -8.37,4.34 -7.96,4.13 -7.55,3.92 -7.14,3.7 -6.73,3.49 -6.32,3.28 -5.92,3.07 -5.51,2.86 -5.1,2.65 -4.69,2.43 -4.28,2.22 -3.88,2.01 -3.47,1.8 -3.06,1.59 -2.65,1.38 -2.24,1.16 -1.84,0.95 -1.43,0.74 -1.02,0.53 -0.61,0.32 -0.2,0.11 0.2,-0.11 0.61,-0.32 1.02,-0.53 1.43,-0.74 1.84,-0.95 2.24,-1.16 2.65,-1.38 3.06,-1.59 3.47,-1.8 3.88,-2.01 4.28,-2.22 4.69,-2.43 5.1,-2.65 5.51,-2.86 5.92,-3.07 6.32,-3.28 6.73,-3.49 7.14,-3.7 7.55,-3.92 7.96,-4.13 8.37,-4.34 8.77,-4.55 9.18,-4.76 9.59,-4.97 10,-5.19 10.41,-5.4 10.81,-5.61 11.22,-5.82 11.63,-6.03 12.04,-6.24 12.45,-6.46 12.85,-6.67 13.26,-6.88 13.67,-7.09 14.08,-7.3 14.49,-7.51 14.89,-7.73 15.3,-7.94 15.71,-8.15 16.12,-8.36 16.53,-8.57 16.93,-8.78 17.34,-9 17.75,-9.21 18.16,-9.42 18.57,-9.63 18.97,-9.84 19.38,-10.05 19.79,-10.27 20.2,-10.48 20.61,-10.69 21.02,-10.9 21.42,-11.11 21.83,-11.32 22.24,-11.54 22.65,-11.75 23.06,-11.96 23.46,-12.17 23.87,-12.38 24.28,-12.59 24.69,-12.81 25.1,-13.02 25.5,-13.23 25.91,-13.44 26.32,-13.65 26.73,-13.86 27.14,-14.08 27.54,-14.29 27.95,-14.5 28.36,-14.71 28.77,-14.92 29.18,-15.13 29.58,-15.35 29.99,-15.56 30.4,-15.77 30.81,-15.98 31.22,-16.19 31.62,-16.4 32.03,-16.62 32.44,-16.83 32.85,-17.04 33.26,-17.25 33.66,-17.46 34.07,-17.67 34.48,-17.89 34.89,-18.1 35.3,-18.31 35.71,-18.52 36.11,-18.73 36.52,-18.94 36.93,-19.16 37.34,-19.37 37.75,-19.58 38.15,-19.79 38.56,-20 38.97,-20.21 39.38,-20.43 39.79,-20.64 40.19,-20.85 40.6,-21.06 41.01,-21.27 41.42,-21.48 41.83,-21.7 42.23,-21.91 42.64,-22.12 43.05,-22.33 43.46,-22.54 43.87,-22.75 44.27,-22.97 44.68,-23.18 45.09,-23.39 45.5,-23.6 45.91,-23.81 46.31,-24.02 46.72,-24.24 47.13,-24.45 47.54,-24.66 47.95,-24.87 48.36,-25.08 48.76,-25.29 49.17,-25.51 49.58,-25.72 49.99,-25.93 50.4,-26.14 50.8,-26.35 " class="primitive"/>
            </g>
          </g>
        </g>
        <g class="geometry" id="img-8d085aa3-26">
          <g stroke-width="0.3" id="img-8d085aa3-27">
            <g class="color_RGBA{Float32}(0.0f0,0.74736935f0,1.0f0,1.0f0)" fill-opacity="1" stroke="#FFFFFF" fill="#00BFFF" id="img-8d085aa3-28">
              <g class="marker" id="img-8d085aa3-29">
                <g transform="translate(70.22,52.18)" id="img-8d085aa3-30">
                  <circle cx="0" cy="0" r="0.9" class="primitive"/>
                </g>
              </g>
            </g>
            <g class="color_RGBA{Float32}(0.0f0,0.74736935f0,1.0f0,1.0f0)" fill-opacity="1" stroke="#FFFFFF" fill="#00BFFF" id="img-8d085aa3-31">
              <g class="marker" id="img-8d085aa3-32">
                <g transform="translate(75.77,49.31)" id="img-8d085aa3-33">
                  <circle cx="0" cy="0" r="0.9" class="primitive"/>
                </g>
              </g>
            </g>
            <g class="color_RGBA{Float32}(0.0f0,0.74736935f0,1.0f0,1.0f0)" fill-opacity="1" stroke="#FFFFFF" fill="#00BFFF" id="img-8d085aa3-34">
              <g class="marker" id="img-8d085aa3-35">
                <g transform="translate(77.15,48.59)" id="img-8d085aa3-36">
                  <circle cx="0" cy="0" r="0.9" class="primitive"/>
                </g>
              </g>
            </g>
            <g class="color_RGBA{Float32}(0.0f0,0.74736935f0,1.0f0,1.0f0)" fill-opacity="1" stroke="#FFFFFF" fill="#00BFFF" id="img-8d085aa3-37">
              <g class="marker" id="img-8d085aa3-38">
                <g transform="translate(84.54,44.72)" id="img-8d085aa3-39">
                  <circle cx="0" cy="0" r="0.9" class="primitive"/>
                </g>
              </g>
            </g>
            <g class="color_RGBA{Float32}(0.0f0,0.74736935f0,1.0f0,1.0f0)" fill-opacity="1" stroke="#FFFFFF" fill="#00BFFF" id="img-8d085aa3-40">
              <g class="marker" id="img-8d085aa3-41">
                <g transform="translate(90.08,42)" id="img-8d085aa3-42">
                  <circle cx="0" cy="0" r="0.9" class="primitive"/>
                </g>
              </g>
            </g>
            <g class="color_RGBA{Float32}(0.0f0,0.74736935f0,1.0f0,1.0f0)" fill-opacity="1" stroke="#FFFFFF" fill="#00BFFF" id="img-8d085aa3-43">
              <g class="marker" id="img-8d085aa3-44">
                <g transform="translate(91.47,41.28)" id="img-8d085aa3-45">
                  <circle cx="0" cy="0" r="0.9" class="primitive"/>
                </g>
              </g>
            </g>
            <g class="color_RGBA{Float32}(0.0f0,0.74736935f0,1.0f0,1.0f0)" fill-opacity="1" stroke="#FFFFFF" fill="#00BFFF" id="img-8d085aa3-46">
              <g class="marker" id="img-8d085aa3-47">
                <g transform="translate(57.29,58.92)" id="img-8d085aa3-48">
                  <circle cx="0" cy="0" r="0.9" class="primitive"/>
                </g>
              </g>
            </g>
            <g class="color_RGBA{Float32}(0.0f0,0.74736935f0,1.0f0,1.0f0)" fill-opacity="1" stroke="#FFFFFF" fill="#00BFFF" id="img-8d085aa3-49">
              <g class="marker" id="img-8d085aa3-50">
                <g transform="translate(100.24,36.55)" id="img-8d085aa3-51">
                  <circle cx="0" cy="0" r="0.9" class="primitive"/>
                </g>
              </g>
            </g>
            <g class="color_RGBA{Float32}(0.0f0,0.74736935f0,1.0f0,1.0f0)" fill-opacity="1" stroke="#FFFFFF" fill="#00BFFF" id="img-8d085aa3-52">
              <g class="marker" id="img-8d085aa3-53">
                <g transform="translate(38.82,68.53)" id="img-8d085aa3-54">
                  <circle cx="0" cy="0" r="0.9" class="primitive"/>
                </g>
              </g>
            </g>
            <g class="color_RGBA{Float32}(0.0f0,0.74736935f0,1.0f0,1.0f0)" fill-opacity="1" stroke="#FFFFFF" fill="#00BFFF" id="img-8d085aa3-55">
              <g class="marker" id="img-8d085aa3-56">
                <g transform="translate(99.32,37.12)" id="img-8d085aa3-57">
                  <circle cx="0" cy="0" r="0.9" class="primitive"/>
                </g>
              </g>
            </g>
            <g class="color_RGBA{Float32}(0.0f0,0.74736935f0,1.0f0,1.0f0)" fill-opacity="1" stroke="#FFFFFF" fill="#00BFFF" id="img-8d085aa3-58">
              <g class="marker" id="img-8d085aa3-59">
                <g transform="translate(45.28,65.09)" id="img-8d085aa3-60">
                  <circle cx="0" cy="0" r="0.9" class="primitive"/>
                </g>
              </g>
            </g>
            <g class="color_RGBA{Float32}(0.0f0,0.74736935f0,1.0f0,1.0f0)" fill-opacity="1" stroke="#FFFFFF" fill="#00BFFF" id="img-8d085aa3-61">
              <g class="marker" id="img-8d085aa3-62">
                <g transform="translate(121.95,25.36)" id="img-8d085aa3-63">
                  <circle cx="0" cy="0" r="0.9" class="primitive"/>
                </g>
              </g>
            </g>
          </g>
        </g>
      </g>
    </g>
  </g>
  <g class="guide ylabels" font-size="2.82" font-family="'PT Sans Caption','Helvetica Neue','Helvetica',sans-serif" fill="#6C606B" id="img-8d085aa3-64">
    <g transform="translate(15.96,78.72)" id="img-8d085aa3-65">
      <g class="primitive">
        <text text-anchor="end" dy="0.35em">10</text>
      </g>
    </g>
    <g transform="translate(15.96,64.37)" id="img-8d085aa3-66">
      <g class="primitive">
        <text text-anchor="end" dy="0.35em">11</text>
      </g>
    </g>
    <g transform="translate(15.96,50.03)" id="img-8d085aa3-67">
      <g class="primitive">
        <text text-anchor="end" dy="0.35em">12</text>
      </g>
    </g>
    <g transform="translate(15.96,35.69)" id="img-8d085aa3-68">
      <g class="primitive">
        <text text-anchor="end" dy="0.35em">13</text>
      </g>
    </g>
    <g transform="translate(15.96,21.34)" id="img-8d085aa3-69">
      <g class="primitive">
        <text text-anchor="end" dy="0.35em">14</text>
      </g>
    </g>
    <g transform="translate(15.96,7)" id="img-8d085aa3-70">
      <g class="primitive">
        <text text-anchor="end" dy="0.35em">15</text>
      </g>
    </g>
  </g>
  <g font-size="3.88" font-family="'PT Sans','Helvetica Neue','Helvetica',sans-serif" fill="#564A55" stroke="#000000" stroke-opacity="0.000" id="img-8d085aa3-71">
    <g transform="translate(9.61,42.86)" id="img-8d085aa3-72">
      <g class="primitive">
        <text text-anchor="end" dy="0.35em">H</text>
      </g>
    </g>
  </g>
</g>
<defs>
  <clipPath id="img-8d085aa3-4">
    <path d="M16.96,5 L136.42,5 136.42,80.72 16.96,80.72 " />
  </clipPath>
</defs>
</svg>
