<?xml version="1.0" encoding="UTF-8"?>
<svg xmlns="http://www.w3.org/2000/svg"
     xmlns:xlink="http://www.w3.org/1999/xlink"
     xmlns:gadfly="http://www.gadflyjl.org/ns"
     version="1.2"
     width="141.42mm" height="100mm" viewBox="0 0 141.42 100"
     stroke="none"
     fill="#000000"
     stroke-width="0.3"
     font-size="3.88"
>
<defs>
  <marker id="arrow" markerWidth="15" markerHeight="7" refX="5" refY="3.5" orient="auto" markerUnits="strokeWidth">
    <path d="M0,0 L15,3.5 L0,7 z" stroke="context-stroke" fill="context-stroke"/>
  </marker>
</defs>
<g class="plotroot xscalable yscalable" id="img-76319b3f-1">
  <g font-size="3.88" font-family="'PT Sans','Helvetica Neue','Helvetica',sans-serif" fill="#564A55" stroke="#000000" stroke-opacity="0.000" id="img-76319b3f-2">
    <g transform="translate(71.23,88.39)">
      <g class="primitive">
        <text text-anchor="middle" dy="0.6em">False positive rate</text>
      </g>
    </g>
  </g>
  <g class="guide xlabels" font-size="2.82" font-family="'PT Sans Caption','Helvetica Neue','Helvetica',sans-serif" fill="#6C606B" id="img-76319b3f-3">
    <g transform="translate(20.63,81.72)">
      <g class="primitive">
        <text text-anchor="middle" dy="0.6em">0.0</text>
      </g>
    </g>
    <g transform="translate(71.23,81.72)">
      <g class="primitive">
        <text text-anchor="middle" dy="0.6em">0.5</text>
      </g>
    </g>
    <g transform="translate(121.83,81.72)">
      <g class="primitive">
        <text text-anchor="middle" dy="0.6em">1.0</text>
      </g>
    </g>
  </g>
  <g class="guide colorkey" id="img-76319b3f-4">
    <g fill="#4C404B" font-size="2.82" font-family="'PT Sans','Helvetica Neue','Helvetica',sans-serif" id="img-76319b3f-5">
      <g transform="translate(127.64,42.86)" id="img-76319b3f-6" class="color_logistic">
        <g class="primitive">
          <text dy="0.35em">logistic</text>
        </g>
      </g>
      <g transform="translate(127.64,46.48)" id="img-76319b3f-7" class="color_forest">
        <g class="primitive">
          <text dy="0.35em">forest</text>
        </g>
      </g>
    </g>
    <g fill-opacity="1" id="img-76319b3f-8">
      <g transform="translate(125.73,42.86)" id="img-76319b3f-9" class="color_logistic" fill="#00BFFF" stroke="#FFFFFF">
        <path d="M-0.91,-0.91 L0.91,-0.91 0.91,0.91 -0.91,0.91  z" class="primitive"/>
      </g>
      <g transform="translate(125.73,46.48)" id="img-76319b3f-10" class="color_forest" fill="#D4CA3A" stroke="#FFFFFF">
        <path d="M-0.91,-0.91 L0.91,-0.91 0.91,0.91 -0.91,0.91  z" class="primitive"/>
      </g>
    </g>
    <g fill="#362A35" font-size="3.88" font-family="'PT Sans','Helvetica Neue','Helvetica',sans-serif" stroke="#000000" stroke-opacity="0.000" id="img-76319b3f-11">
      <g transform="translate(124.83,39.04)" id="img-76319b3f-12">
        <g class="primitive">
          <text dy="-0em">Color</text>
        </g>
      </g>
    </g>
  </g>
  <g clip-path="url(#img-76319b3f-13)">
    <g id="img-76319b3f-14">
      <g pointer-events="visible" stroke-width="0.3" fill="#000000" fill-opacity="0.000" stroke="#000000" stroke-opacity="0.000" class="guide background" id="img-76319b3f-15">
        <g transform="translate(71.23,42.86)" id="img-76319b3f-16">
          <path d="M-52.6,-37.86 L52.6,-37.86 52.6,37.86 -52.6,37.86  z" class="primitive"/>
        </g>
      </g>
      <g class="guide xgridlines yfixed" stroke-dasharray="0.5,0.5" stroke-width="0.2" stroke="#D0D0E0" id="img-76319b3f-17">
        <g transform="translate(20.63,42.86)" id="img-76319b3f-18">
          <path fill="none" d="M0,-37.86 L0,37.86 " class="primitive"/>
        </g>
        <g transform="translate(71.23,42.86)" id="img-76319b3f-19">
          <path fill="none" d="M0,-37.86 L0,37.86 " class="primitive"/>
        </g>
        <g transform="translate(121.83,42.86)" id="img-76319b3f-20">
          <path fill="none" d="M0,-37.86 L0,37.86 " class="primitive"/>
        </g>
      </g>
      <g class="guide ygridlines xfixed" stroke-dasharray="0.5,0.5" stroke-width="0.2" stroke="#D0D0E0" id="img-76319b3f-21">
        <g transform="translate(71.23,78.71)" id="img-76319b3f-22">
          <path fill="none" d="M-52.6,0 L52.6,0 " class="primitive"/>
        </g>
        <g transform="translate(71.23,71.54)" id="img-76319b3f-23">
          <path fill="none" d="M-52.6,0 L52.6,0 " class="primitive"/>
        </g>
        <g transform="translate(71.23,64.37)" id="img-76319b3f-24">
          <path fill="none" d="M-52.6,0 L52.6,0 " class="primitive"/>
        </g>
        <g transform="translate(71.23,57.2)" id="img-76319b3f-25">
          <path fill="none" d="M-52.6,0 L52.6,0 " class="primitive"/>
        </g>
        <g transform="translate(71.23,50.03)" id="img-76319b3f-26">
          <path fill="none" d="M-52.6,0 L52.6,0 " class="primitive"/>
        </g>
        <g transform="translate(71.23,42.86)" id="img-76319b3f-27">
          <path fill="none" d="M-52.6,0 L52.6,0 " class="primitive"/>
        </g>
        <g transform="translate(71.23,35.69)" id="img-76319b3f-28">
          <path fill="none" d="M-52.6,0 L52.6,0 " class="primitive"/>
        </g>
        <g transform="translate(71.23,28.51)" id="img-76319b3f-29">
          <path fill="none" d="M-52.6,0 L52.6,0 " class="primitive"/>
        </g>
        <g transform="translate(71.23,21.34)" id="img-76319b3f-30">
          <path fill="none" d="M-52.6,0 L52.6,0 " class="primitive"/>
        </g>
        <g transform="translate(71.23,14.17)" id="img-76319b3f-31">
          <path fill="none" d="M-52.6,0 L52.6,0 " class="primitive"/>
        </g>
        <g transform="translate(71.23,7)" id="img-76319b3f-32">
          <path fill="none" d="M-52.6,0 L52.6,0 " class="primitive"/>
        </g>
      </g>
      <g class="plotpanel" id="img-76319b3f-33">
        <metadata>
          <boundingbox value="18.63166666666666mm 5.0mm 105.1963562373095mm 75.715mm"/>
          <unitbox value="-0.019763557447759483 1.0278881684445373 1.039527114895519 -1.055776336889075"/>
        </metadata>
        <g stroke-width="0.3" fill="#000000" fill-opacity="0.000" class="geometry" id="img-76319b3f-34">
          <g class="color_forest" stroke-dasharray="none" stroke="#D4CA3A" id="img-76319b3f-35">
            <g transform="translate(50.99,38.57)" id="img-76319b3f-36">
              <path fill="none" d="M-30.36,41.08 L-23.13,25.01 -23.13,25.01 -8.67,-0.35 -8.67,-0.35 -8.67,-0.35 5.78,-16.58 13.01,-20.96 13.01,-20.96 70.84,-31.56 " class="primitive"/>
            </g>
          </g>
        </g>
        <g stroke-width="0.3" fill="#000000" fill-opacity="0.000" class="geometry" id="img-76319b3f-37">
          <g class="color_logistic" stroke-dasharray="none" stroke="#00BFFF" id="img-76319b3f-38">
            <g transform="translate(61.69,33.54)" id="img-76319b3f-39">
              <path fill="none" d="M-41.06,52.16 L-33.83,34.79 -33.83,34.79 -26.6,20.04 -26.6,20.04 -26.6,20.04 -26.6,20.04 -26.6,20.04 -26.6,20.04 -19.37,7.86 -12.14,-1.93 -12.14,-1.93 -12.14,-1.93 -4.92,-9.1 2.31,-14.08 9.54,-15.93 16.77,-17.75 16.77,-17.75 24,-20.27 31.23,-22.43 31.23,-22.43 38.45,-24.28 45.68,-25.77 52.91,-26.85 60.14,-27.45 " class="primitive"/>
            </g>
          </g>
        </g>
      </g>
    </g>
  </g>
  <g class="guide ylabels" font-size="2.82" font-family="'PT Sans Caption','Helvetica Neue','Helvetica',sans-serif" fill="#6C606B" id="img-76319b3f-40">
    <g transform="translate(17.63,78.71)" id="img-76319b3f-41">
      <g class="primitive">
        <text text-anchor="end" dy="0.35em">0.0</text>
      </g>
    </g>
    <g transform="translate(17.63,71.54)" id="img-76319b3f-42">
      <g class="primitive">
        <text text-anchor="end" dy="0.35em">0.1</text>
      </g>
    </g>
    <g transform="translate(17.63,64.37)" id="img-76319b3f-43">
      <g class="primitive">
        <text text-anchor="end" dy="0.35em">0.2</text>
      </g>
    </g>
    <g transform="translate(17.63,57.2)" id="img-76319b3f-44">
      <g class="primitive">
        <text text-anchor="end" dy="0.35em">0.3</text>
      </g>
    </g>
    <g transform="translate(17.63,50.03)" id="img-76319b3f-45">
      <g class="primitive">
        <text text-anchor="end" dy="0.35em">0.4</text>
      </g>
    </g>
    <g transform="translate(17.63,42.86)" id="img-76319b3f-46">
      <g class="primitive">
        <text text-anchor="end" dy="0.35em">0.5</text>
      </g>
    </g>
    <g transform="translate(17.63,35.69)" id="img-76319b3f-47">
      <g class="primitive">
        <text text-anchor="end" dy="0.35em">0.6</text>
      </g>
    </g>
    <g transform="translate(17.63,28.51)" id="img-76319b3f-48">
      <g class="primitive">
        <text text-anchor="end" dy="0.35em">0.7</text>
      </g>
    </g>
    <g transform="translate(17.63,21.34)" id="img-76319b3f-49">
      <g class="primitive">
        <text text-anchor="end" dy="0.35em">0.8</text>
      </g>
    </g>
    <g transform="translate(17.63,14.17)" id="img-76319b3f-50">
      <g class="primitive">
        <text text-anchor="end" dy="0.35em">0.9</text>
      </g>
    </g>
    <g transform="translate(17.63,7)" id="img-76319b3f-51">
      <g class="primitive">
        <text text-anchor="end" dy="0.35em">1.0</text>
      </g>
    </g>
  </g>
  <g font-size="3.88" font-family="'PT Sans','Helvetica Neue','Helvetica',sans-serif" fill="#564A55" stroke="#000000" stroke-opacity="0.000" id="img-76319b3f-52">
    <g transform="translate(8.81,40.86)" id="img-76319b3f-53">
      <g class="primitive">
        <text text-anchor="middle" dy="0.35em" transform="rotate(-90,0, 2)">True positive rate estimate</text>
      </g>
    </g>
  </g>
</g>
<defs>
  <clipPath id="img-76319b3f-13">
    <path d="M18.63,5 L123.83,5 123.83,80.72 18.63,80.72 " />
  </clipPath>
</defs>
</svg>
